<?xml version="1.0" encoding="UTF-8" standalone="no"?>
<!-- Created with Inkscape (http://www.inkscape.org/) -->

<svg
   xmlns:dc="http://purl.org/dc/elements/1.1/"
   xmlns:cc="http://creativecommons.org/ns#"
   xmlns:rdf="http://www.w3.org/1999/02/22-rdf-syntax-ns#"
   xmlns:svg="http://www.w3.org/2000/svg"
   xmlns="http://www.w3.org/2000/svg"
   xmlns:sodipodi="http://sodipodi.sourceforge.net/DTD/sodipodi-0.dtd"
   xmlns:inkscape="http://www.inkscape.org/namespaces/inkscape"
   width="14.856763mm"
   height="13.06701mm"
   viewBox="0 0 14.856763 13.06701"
   version="1.1"
   id="svg8"
   inkscape:version="0.92.2 (5c3e80d, 2017-08-06)">
  <defs
     id="defs2">
    <pattern
       y="0"
       x="0"
       height="6"
       width="6"
       patternUnits="userSpaceOnUse"
       id="EMFhbasepattern" />
  </defs>
  <sodipodi:namedview
     id="base"
     pagecolor="#ffffff"
     bordercolor="#666666"
     borderopacity="1.0"
     inkscape:pageopacity="0.0"
     inkscape:pageshadow="2"
     inkscape:zoom="3.959798"
     inkscape:cx="1.9330557"
     inkscape:cy="11.458362"
     inkscape:document-units="mm"
     inkscape:current-layer="layer1"
     showgrid="false"
     fit-margin-top="0"
     fit-margin-left="0"
     fit-margin-right="0"
     fit-margin-bottom="0"
     inkscape:window-width="1920"
     inkscape:window-height="1027"
     inkscape:window-x="-8"
     inkscape:window-y="-8"
     inkscape:window-maximized="1" />
  <metadata
     id="metadata5">
    <rdf:RDF>
      <cc:Work
         rdf:about="">
        <dc:format>image/svg+xml</dc:format>
        <dc:type
           rdf:resource="http://purl.org/dc/dcmitype/StillImage" />
        <dc:title></dc:title>
      </cc:Work>
    </rdf:RDF>
  </metadata>
  <g
     inkscape:label="Layer 1"
     inkscape:groupmode="layer"
     id="layer1"
     transform="translate(-41.708526,-114.32962)">
    <path
       id="path818"
       d="m 56.275427,126.0773 c 0.127979,0.23263 0.13464,0.52444 -0.0076,0.77085 -0.142728,0.2469 -0.398924,0.38686 -0.664635,0.39232 v 0 H 42.589745 v 0 c -0.265473,-0.005 -0.521907,-0.14542 -0.664397,-0.39232 -0.14249,-0.24641 -0.135591,-0.53822 -0.0078,-0.77085 v 0 l 6.506717,-11.25749 v 0 c 0.137732,-0.22717 0.387268,-0.37901 0.672247,-0.37901 0.28498,0 0.534753,0.15184 0.672248,0.37901 v 0 z"
       style="fill:#ffffff;fill-opacity:1;fill-rule:evenodd;stroke:none;stroke-width:0.26458332"
       inkscape:connector-curvature="0" />
    <path
       id="path820"
       d="m 46.303281,122.41859 0.41962,-0.6309 0.403443,0.6309 h 0.403444 l 0.395118,-0.6309 0.403206,0.6309 h 0.411769 l 0.395118,-0.6309 0.395118,0.6309 h 0.386792 l 0.395117,-0.6309 0.370379,0.6309 h 0.436271 l 0.403443,-0.6309 0.38703,0.6309 h 0.205766 v 0.60333 h -0.205766 v 1.5909 h 0.205766 v 0.60333 h -0.205766 v 0.384 h -0.790473 v -0.384 h -0.436271 v 0.384 h -0.765496 v -0.384 h -0.386792 v 0.384 h -0.790236 v -0.384 h -0.411769 v 0.384 h -0.798324 v -0.384 h -0.403444 v 0.384 h -0.823063 v -0.384 h -0.222417 v -0.60333 h 0.222417 v -1.5909 h -0.222417 v -0.60333 z m 0.823063,0.60333 h 0.403444 v 1.5909 h -0.403444 z m 1.201768,0 h 0.411769 v 1.5909 h -0.411769 z m 1.202005,0 h 0.386792 v 1.5909 h -0.386792 z m 1.152288,0 h 0.436271 v 1.5909 h -0.436271 z"
       style="fill:#1d1d1b;fill-opacity:1;fill-rule:evenodd;stroke:none;stroke-width:0.26458332"
       inkscape:connector-curvature="0" />
    <path
       id="path822"
       d="M 55.123139,126.22581 H 43.148762 l 5.98814,-10.36021 z m 1.342591,-0.0166 c 0.130596,0.23739 0.137495,0.53537 -0.0078,0.78702 -0.145583,0.25188 -0.40725,0.39493 -0.678433,0.4004 v 0 H 42.494355 v 0 c -0.271182,-0.005 -0.53285,-0.14852 -0.678432,-0.4004 -0.145344,-0.25165 -0.138446,-0.54963 -0.0078,-0.78702 v 0 l 6.642546,-11.49273 v 0 c 0.140587,-0.23192 0.395356,-0.38686 0.686283,-0.38686 0.290926,0 0.545933,0.15494 0.686282,0.38686 v 0 z"
       style="fill:#e02726;fill-opacity:1;fill-rule:evenodd;stroke:none;stroke-width:0.26458332"
       inkscape:connector-curvature="0" />
  </g>
</svg>
