<?xml version="1.0" encoding="UTF-8" standalone="no"?>
<!-- Created with Inkscape (http://www.inkscape.org/) -->

<svg
   xmlns:dc="http://purl.org/dc/elements/1.1/"
   xmlns:cc="http://creativecommons.org/ns#"
   xmlns:rdf="http://www.w3.org/1999/02/22-rdf-syntax-ns#"
   xmlns:svg="http://www.w3.org/2000/svg"
   xmlns="http://www.w3.org/2000/svg"
   xmlns:sodipodi="http://sodipodi.sourceforge.net/DTD/sodipodi-0.dtd"
   xmlns:inkscape="http://www.inkscape.org/namespaces/inkscape"
   width="14.857109mm"
   height="13.06703mm"
   viewBox="0 0 14.857109 13.06703"
   version="1.1"
   id="svg8"
   inkscape:version="0.92.2 (5c3e80d, 2017-08-06)"
   sodipodi:docname="112.svg">
  <defs
     id="defs2">
    <pattern
       y="0"
       x="0"
       height="6"
       width="6"
       patternUnits="userSpaceOnUse"
       id="EMFhbasepattern" />
  </defs>
  <sodipodi:namedview
     id="base"
     pagecolor="#ffffff"
     bordercolor="#666666"
     borderopacity="1.0"
     inkscape:pageopacity="0.0"
     inkscape:pageshadow="2"
     inkscape:zoom="7.9195959"
     inkscape:cx="-7.8663835"
     inkscape:cy="11.110562"
     inkscape:document-units="mm"
     inkscape:current-layer="layer1"
     showgrid="false"
     fit-margin-top="0"
     fit-margin-left="0"
     fit-margin-right="0"
     fit-margin-bottom="0"
     inkscape:window-width="1920"
     inkscape:window-height="1027"
     inkscape:window-x="-8"
     inkscape:window-y="-8"
     inkscape:window-maximized="1" />
  <metadata
     id="metadata5">
    <rdf:RDF>
      <cc:Work
         rdf:about="">
        <dc:format>image/svg+xml</dc:format>
        <dc:type
           rdf:resource="http://purl.org/dc/dcmitype/StillImage" />
        <dc:title />
      </cc:Work>
    </rdf:RDF>
  </metadata>
  <g
     inkscape:label="Layer 1"
     inkscape:groupmode="layer"
     id="layer1"
     transform="translate(-87.065479,-148.34745)">
    <path
       style="fill:#ffffff;fill-opacity:1;stroke:none;stroke-width:0.26458332px;stroke-linecap:butt;stroke-linejoin:miter;stroke-opacity:1"
       d="m 87.700244,160.7129 6.781964,-11.86009 6.654222,11.8935 z"
       id="path815"
       inkscape:connector-curvature="0"
       sodipodi:nodetypes="cccc" />
    <path
       id="path818"
       d="m 95.729967,158.06489 v -2.33467 h 1.766521 v 0.43082 h -0.152959 v 1.90385 z m 0.820697,-1.90385 v 1.63961 h 0.625871 v -1.63961 z m -0.556409,0 v 0.66701 h 0.417248 v -0.66701 z m -0.804521,3.005 c 0,-0.29917 0.242641,-0.54178 0.542136,-0.54178 0.299495,0 0.542374,0.24261 0.542374,0.54178 0,0.29917 -0.242879,0.54179 -0.542374,0.54179 -0.299495,0 -0.542136,-0.24262 -0.542136,-0.54179 z m -1.184896,0 c 0,-0.29917 0.24264,-0.54178 0.542136,-0.54178 0.299494,0 0.542373,0.24261 0.542373,0.54178 0,0.29917 -0.242879,0.54179 -0.542373,0.54179 -0.299496,0 -0.542136,-0.24262 -0.542136,-0.54179 z m -1.192034,0 c 0,-0.29917 0.242641,-0.54178 0.542136,-0.54178 0.299495,0 0.542374,0.24261 0.542374,0.54178 0,0.29917 -0.242879,0.54179 -0.542374,0.54179 -0.299495,0 -0.542136,-0.24262 -0.542136,-0.54179 z m -0.60232,-3.82481 c 0,0 0.0835,-0.264 0.292121,-0.38923 -0.0697,-0.12499 -0.250492,-1.01442 0.639906,-0.75042 0.02783,-0.2362 0.09729,-0.63921 0.584241,-0.62519 -0.09729,-0.25022 0.05566,-0.90321 0.570206,-0.98662 -0.250253,-0.7086 0.834733,-0.72262 0.445318,0.0185 0.792865,0.45861 0.653703,1.67668 -0.431283,1.5379 0.09729,0.48642 -0.459115,0.917 -0.973656,0.43058 0.04163,0.16681 -0.250491,0.59763 -0.556647,0.45862 -0.05543,0.11121 -0.222421,0.30582 -0.222421,0.30582 v 0 z m -0.278323,0.1806 h 0.848529 l -0.222421,1.0282 h 1.18228 l 0.181029,-0.38899 h 0.639906 l 0.166756,0.38899 h 0.779068 v 1.51486 h -3.93673 v 0 c 0,0 -0.249777,-0.45149 -0.245734,-0.76444 0.004,-0.30963 0.259531,-0.75042 0.259531,-0.75042 v 0 h 0.598277 z m -0.29902,3.64421 c 0,-0.29917 0.242641,-0.54178 0.542136,-0.54178 0.299495,0 0.542374,0.24261 0.542374,0.54178 0,0.29917 -0.242879,0.54179 -0.542374,0.54179 -0.299495,0 -0.542136,-0.24262 -0.542136,-0.54179 z m -0.451978,-0.87897 h 6.162366 v 0.98662 h -0.792865 v 0 c -0.290693,-1.34567 -1.318349,-0.76848 -1.375203,-0.61236 v 0 h -0.07089 v 0 c -0.653941,-0.61141 -1.174667,0 -1.174667,0 v 0 h -0.06161 v 0 c -0.544514,-0.59644 -1.074994,0 -1.074994,0 v 0 h -0.09468 v 0 c -0.468868,-0.52991 -1.19346,-0.11359 -1.267204,0.23715 0,0 -0.054,0.16966 -0.05567,0.37521 v 0 h -0.194588 z"
       style="fill:#1d1d1b;fill-opacity:1;fill-rule:evenodd;stroke:none;stroke-width:0.26458332"
       inkscape:connector-curvature="0" />
    <path
       id="path820"
       d="M 100.48145,160.24367 H 88.506641 l 5.988474,-10.36021 z m 1.34142,-0.0166 c 0.13084,0.23739 0.13774,0.53537 -0.008,0.78702 -0.14558,0.25188 -0.40726,0.39493 -0.67844,0.40039 v 0 H 87.851511 v 0 c -0.271187,-0.005 -0.533097,-0.14852 -0.678443,-0.4004 -0.145585,-0.25164 -0.138686,-0.54962 -0.0079,-0.78701 v 0 L 93.80787,148.7343 v 0 c 0.140351,-0.23192 0.395124,-0.38685 0.686055,-0.38685 0.29117,0 0.545943,0.15493 0.686294,0.38685 v 0 z"
       style="fill:#e02726;fill-opacity:1;fill-rule:evenodd;stroke:none;stroke-width:0.26458332"
       inkscape:connector-curvature="0" />
  </g>
</svg>
