<?xml version="1.0" encoding="UTF-8" standalone="no"?>
<!-- Created with Inkscape (http://www.inkscape.org/) -->

<svg
   xmlns:dc="http://purl.org/dc/elements/1.1/"
   xmlns:cc="http://creativecommons.org/ns#"
   xmlns:rdf="http://www.w3.org/1999/02/22-rdf-syntax-ns#"
   xmlns:svg="http://www.w3.org/2000/svg"
   xmlns="http://www.w3.org/2000/svg"
   xmlns:sodipodi="http://sodipodi.sourceforge.net/DTD/sodipodi-0.dtd"
   xmlns:inkscape="http://www.inkscape.org/namespaces/inkscape"
   width="19.511003mm"
   height="12.53mm"
   viewBox="0 0 19.511003 12.53"
   version="1.1"
   id="svg8"
   inkscape:version="0.92.2 (5c3e80d, 2017-08-06)"
   sodipodi:docname="121.svg">
  <defs
     id="defs2">
    <pattern
       y="0"
       x="0"
       height="6"
       width="6"
       patternUnits="userSpaceOnUse"
       id="EMFhbasepattern" />
    <pattern
       y="0"
       x="0"
       height="6"
       width="6"
       patternUnits="userSpaceOnUse"
       id="EMFhbasepattern-9" />
  </defs>
  <sodipodi:namedview
     id="base"
     pagecolor="#ffffff"
     bordercolor="#666666"
     borderopacity="1.0"
     inkscape:pageopacity="0.0"
     inkscape:pageshadow="2"
     inkscape:zoom="7.9195959"
     inkscape:cx="-6.6218167"
     inkscape:cy="46.254694"
     inkscape:document-units="mm"
     inkscape:current-layer="layer1"
     showgrid="false"
     fit-margin-top="0"
     fit-margin-left="0"
     fit-margin-right="0"
     fit-margin-bottom="0"
     inkscape:window-width="1920"
     inkscape:window-height="1027"
     inkscape:window-x="-8"
     inkscape:window-y="-8"
     inkscape:window-maximized="1" />
  <metadata
     id="metadata5">
    <rdf:RDF>
      <cc:Work
         rdf:about="">
        <dc:format>image/svg+xml</dc:format>
        <dc:type
           rdf:resource="http://purl.org/dc/dcmitype/StillImage" />
        <dc:title />
      </cc:Work>
    </rdf:RDF>
  </metadata>
  <g
     inkscape:label="Layer 1"
     inkscape:groupmode="layer"
     id="layer1"
     transform="translate(-86.530777,-158.15626)">
    <path
       style="fill:#ffffff;stroke:none;stroke-width:0.26458332px;stroke-linecap:butt;stroke-linejoin:miter;stroke-opacity:1;fill-opacity:1"
       d="m 86.530777,170.02887 2.461691,0.65715 7.293809,-4.19272 7.294283,4.19296 2.46122,-0.65739 -0.65885,-2.45067 -5.491922,-3.15694 5.491922,-3.15694 0.65885,-2.45067 -2.46122,-0.65739 -7.294283,4.19296 -7.293809,-4.19249 -2.461691,0.65692 0.659326,2.45115 5.491445,3.15646 -5.491445,3.1567 z"
       id="path815"
       inkscape:connector-curvature="0" />
    <path
       id="path834"
       d="m 87.190103,167.57796 5.491445,-3.1567 -5.491445,-3.15646 -0.659326,-2.45115 2.461691,-0.65692 7.293809,4.19249 7.294283,-4.19296 2.46122,0.65739 -0.65885,2.45067 -5.491922,3.15694 5.491922,3.15694 0.65885,2.45067 -2.46122,0.65739 -7.294283,-4.19296 -7.293809,4.19272 -2.461691,-0.65715 z m 0.77394,0.5912 6.51987,-3.7479 -6.51987,-3.74766 -0.329782,-1.22558 1.230964,-0.32857 7.421052,4.26579 0.329544,-0.18932 7.091989,-4.07671 1.23049,0.32881 -0.32931,1.22534 -6.520349,3.7479 6.520349,3.74813 0.32931,1.22534 -1.23049,0.32858 -7.421533,-4.26603 -7.421052,4.26603 -1.230964,-0.32858 z"
       style="fill:#e02726;fill-opacity:1;fill-rule:evenodd;stroke:none;stroke-width:0.26458332"
       inkscape:connector-curvature="0" />
  </g>
</svg>
