<?xml version="1.0" encoding="UTF-8" standalone="no"?>
<!-- Created with Inkscape (http://www.inkscape.org/) -->

<svg
   xmlns:dc="http://purl.org/dc/elements/1.1/"
   xmlns:cc="http://creativecommons.org/ns#"
   xmlns:rdf="http://www.w3.org/1999/02/22-rdf-syntax-ns#"
   xmlns:svg="http://www.w3.org/2000/svg"
   xmlns="http://www.w3.org/2000/svg"
   xmlns:sodipodi="http://sodipodi.sourceforge.net/DTD/sodipodi-0.dtd"
   xmlns:inkscape="http://www.inkscape.org/namespaces/inkscape"
   width="6.2651434mm"
   height="12.709003mm"
   viewBox="0 0 6.2651432 12.709004"
   version="1.1"
   id="svg8"
   inkscape:version="0.92.2 (5c3e80d, 2017-08-06)"
   sodipodi:docname="123.svg">
  <defs
     id="defs2">
    <pattern
       y="0"
       x="0"
       height="6"
       width="6"
       patternUnits="userSpaceOnUse"
       id="EMFhbasepattern" />
    <pattern
       y="0"
       x="0"
       height="6"
       width="6"
       patternUnits="userSpaceOnUse"
       id="EMFhbasepattern-9" />
    <pattern
       y="0"
       x="0"
       height="6"
       width="6"
       patternUnits="userSpaceOnUse"
       id="EMFhbasepattern-3" />
  </defs>
  <sodipodi:namedview
     id="base"
     pagecolor="#ffffff"
     bordercolor="#666666"
     borderopacity="1.0"
     inkscape:pageopacity="0.0"
     inkscape:pageshadow="2"
     inkscape:zoom="11.2"
     inkscape:cx="32.163446"
     inkscape:cy="16.771209"
     inkscape:document-units="mm"
     inkscape:current-layer="layer1"
     showgrid="false"
     fit-margin-top="0"
     fit-margin-left="0"
     fit-margin-right="0"
     fit-margin-bottom="0"
     inkscape:window-width="1920"
     inkscape:window-height="1027"
     inkscape:window-x="-8"
     inkscape:window-y="-8"
     inkscape:window-maximized="1" />
  <metadata
     id="metadata5">
    <rdf:RDF>
      <cc:Work
         rdf:about="">
        <dc:format>image/svg+xml</dc:format>
        <dc:type
           rdf:resource="http://purl.org/dc/dcmitype/StillImage" />
        <dc:title />
      </cc:Work>
    </rdf:RDF>
  </metadata>
  <g
     inkscape:label="Layer 1"
     inkscape:groupmode="layer"
     id="layer1"
     transform="translate(-86.906118,-146.05721)">
    <path
       style="fill:#ffffff;fill-opacity:1;fill-rule:evenodd;stroke:none;stroke-width:0.26458332"
       d="m 87.179578,157.94615 -0.0052,-11.0708 2.37e-4,-0.0228 9.46e-4,-0.0178 0.0021,-0.0194 0.0033,-0.0204 0.0043,-0.0216 0.0057,-0.0223 0.0069,-0.023 0.008,-0.0235 0.0092,-0.0238 0.01041,-0.0235 0.01159,-0.0238 0.01277,-0.0235 0.01372,-0.0233 0.0149,-0.0228 0.01608,-0.0221 0.01703,-0.0214 0.01797,-0.0206 0.01892,-0.0197 0.01963,-0.0187 0.02081,-0.0178 0.02152,-0.0166 0.02246,-0.0154 0.02317,-0.0144 0.02435,-0.013 0.0253,-0.012 0.02625,-0.0106 0.02743,-0.009 0.02861,-0.008 0.03003,-0.006 0.03121,-0.005 0.03311,-0.003 0.03807,-10e-4 h 4.642886 l 0.03098,7.2e-4 0.02696,0.002 0.02648,0.003 0.02601,0.005 0.02554,0.006 0.0253,0.007 0.02483,0.008 0.02412,0.01 0.02365,0.0108 0.02317,0.012 0.02246,0.013 0.02199,0.0142 0.02128,0.0151 0.02033,0.0163 0.01963,0.017 0.01892,0.018 0.01774,0.019 0.01703,0.0199 0.01631,0.0207 0.01513,0.0214 0.01395,0.0221 0.013,0.0228 0.01182,0.0235 0.01088,0.024 0.0097,0.0245 0.0083,0.0254 0.0073,0.0257 0.0059,0.0262 0.0047,0.0269 0.0035,0.0274 0.0021,0.0278 7.1e-4,0.0322 v 11.06912 l -7.1e-4,0.0334 -0.0019,0.0283 -0.0035,0.0274 -0.0045,0.0271 -0.0061,0.0262 -0.0073,0.0257 -0.0085,0.0252 -0.0097,0.0245 -0.01088,0.024 -0.01206,0.0233 -0.01324,0.0226 -0.01442,0.0221 -0.01537,0.0211 -0.01632,0.0206 -0.01726,0.0197 -0.01844,0.019 -0.01892,0.0178 -0.0201,0.0173 -0.02081,0.0161 -0.02152,0.0151 -0.02199,0.0139 -0.0227,0.013 -0.02341,0.012 -0.02388,0.0106 -0.02412,0.01 -0.02483,0.008 -0.02483,0.007 -0.0253,0.006 -0.02554,0.005 -0.02577,0.003 -0.02601,0.002 -0.02979,7.2e-4 h -4.642413 l -0.03263,-9.6e-4 -0.02956,-0.003 -0.02861,-0.004 -0.0279,-0.005 -0.02696,-0.006 -0.02625,-0.008 -0.0253,-0.009 -0.02459,-0.0103 -0.02412,-0.0115 -0.02294,-0.0125 -0.02246,-0.0137 -0.02152,-0.0146 -0.02081,-0.0159 -0.0201,-0.0166 -0.01892,-0.0175 -0.01821,-0.0185 -0.0175,-0.0194 -0.01655,-0.0202 -0.01537,-0.0209 -0.01442,-0.0214 -0.01348,-0.0223 -0.01253,-0.0231 -0.01111,-0.0233 -0.01017,-0.024 -0.0092,-0.0242 -0.0078,-0.0245 -0.0069,-0.025 -0.0054,-0.0254 -0.0043,-0.0255 -0.0031,-0.0257 -0.0019,-0.0257 z"
       id="path828" />
    <path
       id="path847"
       d="m 87.046215,151.04223 5.979593,-3.50249 -0.0012,1.15238 -5.976992,3.502 z"
       style="fill:#e02726;fill-opacity:1;fill-rule:evenodd;stroke:none;stroke-width:0.26458332"
       inkscape:connector-curvature="0" />
    <path
       id="path849"
       d="m 87.046215,153.58677 5.980539,-3.50489 -0.0026,1.15477 -5.97581,3.50225 z"
       style="fill:#e02726;fill-opacity:1;fill-rule:evenodd;stroke:none;stroke-width:0.26458332"
       inkscape:connector-curvature="0" />
    <path
       id="path851"
       d="m 87.04787,156.13106 5.977702,-3.50393 0.0021,1.15142 -5.980539,3.50537 z"
       style="fill:#e02726;fill-opacity:1;fill-rule:evenodd;stroke:none;stroke-width:0.26458332"
       inkscape:connector-curvature="0" />
    <path
       id="path853"
       d="m 87.179578,157.94615 -0.0052,-11.0708 2.37e-4,-0.0228 9.46e-4,-0.0178 0.0021,-0.0194 0.0033,-0.0204 0.0043,-0.0216 0.0057,-0.0223 0.0069,-0.023 0.008,-0.0235 0.0092,-0.0238 0.01041,-0.0235 0.01159,-0.0238 0.01277,-0.0235 0.01372,-0.0233 0.0149,-0.0228 0.01608,-0.0221 0.01703,-0.0214 0.01797,-0.0206 0.01892,-0.0197 0.01963,-0.0187 0.02081,-0.0178 0.02152,-0.0166 0.02246,-0.0154 0.02317,-0.0144 0.02435,-0.013 0.0253,-0.012 0.02625,-0.0106 0.02743,-0.009 0.02861,-0.008 0.03003,-0.006 0.03121,-0.005 0.03311,-0.003 0.03807,-10e-4 h 4.642886 l 0.03098,7.2e-4 0.02696,0.002 0.02648,0.003 0.02601,0.005 0.02554,0.006 0.0253,0.007 0.02483,0.008 0.02412,0.01 0.02365,0.0108 0.02317,0.012 0.02246,0.013 0.02199,0.0142 0.02128,0.0151 0.02033,0.0163 0.01963,0.017 0.01892,0.018 0.01774,0.019 0.01703,0.0199 0.01631,0.0207 0.01513,0.0214 0.01395,0.0221 0.013,0.0228 0.01182,0.0235 0.01088,0.024 0.0097,0.0245 0.0083,0.0254 0.0073,0.0257 0.0059,0.0262 0.0047,0.0269 0.0035,0.0274 0.0021,0.0278 7.1e-4,0.0322 v 11.06912 l -7.1e-4,0.0334 -0.0019,0.0283 -0.0035,0.0274 -0.0045,0.0271 -0.0061,0.0262 -0.0073,0.0257 -0.0085,0.0252 -0.0097,0.0245 -0.01088,0.024 -0.01206,0.0233 -0.01324,0.0226 -0.01442,0.0221 -0.01537,0.0211 -0.01632,0.0206 -0.01726,0.0197 -0.01844,0.019 -0.01892,0.0178 -0.0201,0.0173 -0.02081,0.0161 -0.02152,0.0151 -0.02199,0.0139 -0.0227,0.013 -0.02341,0.012 -0.02388,0.0106 -0.02412,0.01 -0.02483,0.008 -0.02483,0.007 -0.0253,0.006 -0.02554,0.005 -0.02577,0.003 -0.02601,0.002 -0.02979,7.2e-4 h -4.642413 l -0.03263,-9.6e-4 -0.02956,-0.003 -0.02861,-0.004 -0.0279,-0.005 -0.02696,-0.006 -0.02625,-0.008 -0.0253,-0.009 -0.02459,-0.0103 -0.02412,-0.0115 -0.02294,-0.0125 -0.02246,-0.0137 -0.02152,-0.0146 -0.02081,-0.0159 -0.0201,-0.0166 -0.01892,-0.0175 -0.01821,-0.0185 -0.0175,-0.0194 -0.01655,-0.0202 -0.01537,-0.0209 -0.01442,-0.0214 -0.01348,-0.0223 -0.01253,-0.0231 -0.01111,-0.0233 -0.01017,-0.024 -0.0092,-0.0242 -0.0078,-0.0245 -0.0069,-0.025 -0.0054,-0.0254 -0.0043,-0.0255 -0.0031,-0.0257 -0.0019,-0.0257 z m -0.268145,0.003 -0.0052,-11.07488 c -0.0066,-0.325 0.270273,-0.81538 0.809874,-0.81706 1.55023,0 3.100224,0 4.650454,0 0.438869,-7.2e-4 0.805618,0.36268 0.804672,0.81706 0,3.69162 0,7.38325 0,11.07488 0.0038,0.46446 -0.379281,0.81802 -0.804672,0.81706 -1.55023,0 -3.100224,0 -4.650454,0 -0.473392,-0.004 -0.805854,-0.39485 -0.804672,-0.81706 z"
       style="fill:#1d1d1b;fill-opacity:1;fill-rule:evenodd;stroke:none;stroke-width:0.26458332"
       inkscape:connector-curvature="0" />
  </g>
</svg>
