<?xml version="1.0" encoding="UTF-8" standalone="no"?>
<!-- Created with Inkscape (http://www.inkscape.org/) -->

<svg
   xmlns:dc="http://purl.org/dc/elements/1.1/"
   xmlns:cc="http://creativecommons.org/ns#"
   xmlns:rdf="http://www.w3.org/1999/02/22-rdf-syntax-ns#"
   xmlns:svg="http://www.w3.org/2000/svg"
   xmlns="http://www.w3.org/2000/svg"
   xmlns:sodipodi="http://sodipodi.sourceforge.net/DTD/sodipodi-0.dtd"
   xmlns:inkscape="http://www.inkscape.org/namespaces/inkscape"
   width="6.2651434mm"
   height="12.709003mm"
   viewBox="0 0 6.2651435 12.709004"
   version="1.1"
   id="svg8"
   inkscape:version="0.92.2 (5c3e80d, 2017-08-06)">
  <defs
     id="defs2">
    <pattern
       y="0"
       x="0"
       height="6"
       width="6"
       patternUnits="userSpaceOnUse"
       id="EMFhbasepattern" />
    <pattern
       y="0"
       x="0"
       height="6"
       width="6"
       patternUnits="userSpaceOnUse"
       id="EMFhbasepattern-6" />
    <pattern
       y="0"
       x="0"
       height="6"
       width="6"
       patternUnits="userSpaceOnUse"
       id="EMFhbasepattern-3" />
    <pattern
       y="0"
       x="0"
       height="6"
       width="6"
       patternUnits="userSpaceOnUse"
       id="EMFhbasepattern-2" />
    <pattern
       y="0"
       x="0"
       height="6"
       width="6"
       patternUnits="userSpaceOnUse"
       id="EMFhbasepattern-5" />
  </defs>
  <sodipodi:namedview
     id="base"
     pagecolor="#ffffff"
     bordercolor="#666666"
     borderopacity="1.0"
     inkscape:pageopacity="0.0"
     inkscape:pageshadow="2"
     inkscape:zoom="7.9195959"
     inkscape:cx="-6.2189728"
     inkscape:cy="13.372375"
     inkscape:document-units="mm"
     inkscape:current-layer="layer1"
     showgrid="false"
     fit-margin-top="0"
     fit-margin-left="0"
     fit-margin-right="0"
     fit-margin-bottom="0"
     inkscape:window-width="1920"
     inkscape:window-height="1027"
     inkscape:window-x="-8"
     inkscape:window-y="-8"
     inkscape:window-maximized="1" />
  <metadata
     id="metadata5">
    <rdf:RDF>
      <cc:Work
         rdf:about="">
        <dc:format>image/svg+xml</dc:format>
        <dc:type
           rdf:resource="http://purl.org/dc/dcmitype/StillImage" />
        <dc:title></dc:title>
      </cc:Work>
    </rdf:RDF>
  </metadata>
  <g
     inkscape:label="Layer 1"
     inkscape:groupmode="layer"
     id="layer1"
     transform="translate(-48.33113,-123.36028)">
    <path
       style="fill:#ffffff;fill-opacity:1;fill-rule:evenodd;stroke:none;stroke-width:0.26458332"
       d="m 48.336445,135.25222 -0.0052,-11.07488 c -0.0066,-0.325 0.270273,-0.81538 0.809874,-0.81706 1.549994,0 3.100224,0 4.650217,0 0.439106,-7.2e-4 0.805855,0.36268 0.804909,0.81706 0,3.69162 0,7.38325 0,11.07488 0.0038,0.46446 -0.379281,0.81802 -0.804909,0.81706 -1.549993,0 -3.100223,0 -4.650217,0 -0.473392,-0.004 -0.805854,-0.39485 -0.804672,-0.81706 z"
       id="path885" />
    <path
       id="path910"
       d="m 54.451537,129.61769 -5.979367,-3.50225 0.0012,1.15214 5.976766,3.502 z"
       style="fill:#e02726;fill-opacity:1;fill-rule:evenodd;stroke:none;stroke-width:0.26458332"
       inkscape:connector-curvature="0" />
    <path
       id="path912"
       d="m 54.451537,132.16222 -5.980313,-3.50488 0.0026,1.15477 5.975584,3.50249 z"
       style="fill:#e02726;fill-opacity:1;fill-rule:evenodd;stroke:none;stroke-width:0.26458332"
       inkscape:connector-curvature="0" />
    <path
       id="path914"
       d="m 48.604819,135.24922 -0.0052,-11.0708 v -0.0228 l 0.0012,-0.0178 0.0021,-0.0194 0.0031,-0.0204 0.0045,-0.0216 0.0057,-0.0223 0.0066,-0.023 0.008,-0.0235 0.0092,-0.0238 0.0104,-0.0235 0.01159,-0.0238 0.01277,-0.0235 0.01371,-0.0233 0.0149,-0.0228 0.01608,-0.0221 0.01703,-0.0214 0.01797,-0.0206 0.01892,-0.0197 0.01963,-0.0187 0.02081,-0.0178 0.02152,-0.0166 0.02246,-0.0154 0.02341,-0.0144 0.02412,-0.013 0.0253,-0.012 0.02625,-0.0106 0.02743,-0.009 0.02861,-0.008 0.03003,-0.006 0.03145,-0.005 0.03287,-0.003 0.03807,-10e-4 h 4.642948 l 0.03098,7.2e-4 0.02672,0.002 0.02648,0.003 0.02601,0.005 0.02577,0.006 0.02506,0.007 0.02483,0.008 0.02435,0.01 0.02365,0.0108 0.02294,0.012 0.0227,0.013 0.02175,0.0142 0.02128,0.0151 0.02034,0.0163 0.01963,0.017 0.01892,0.018 0.01797,0.019 0.01702,0.0199 0.01608,0.0206 0.01513,0.0214 0.01395,0.0221 0.013,0.0228 0.01206,0.0235 0.01064,0.024 0.0097,0.0245 0.0085,0.0255 0.0073,0.0257 0.0059,0.0262 0.0047,0.0269 0.0033,0.0274 0.0021,0.0278 7.09e-4,0.0322 v 11.06912 l -7.09e-4,0.0334 -0.0019,0.0283 -0.0033,0.0274 -0.0047,0.0271 -0.0061,0.0262 -0.0071,0.0257 -0.0085,0.0252 -0.0099,0.0245 -0.01088,0.024 -0.01206,0.0233 -0.01324,0.0226 -0.01442,0.0221 -0.01513,0.0211 -0.01631,0.0206 -0.0175,0.0197 -0.01821,0.019 -0.01915,0.0178 -0.01986,0.0173 -0.02081,0.0161 -0.02152,0.0151 -0.02223,0.0139 -0.0227,0.013 -0.02341,0.012 -0.02388,0.0106 -0.02412,0.01 -0.02459,0.008 -0.02506,0.007 -0.0253,0.006 -0.02554,0.005 -0.02577,0.003 -0.02577,0.002 -0.02979,7.2e-4 h -4.642475 l -0.03263,-9.6e-4 -0.02956,-0.003 -0.02861,-0.004 -0.0279,-0.005 -0.02696,-0.006 -0.02601,-0.008 -0.02554,-0.009 -0.02459,-0.0103 -0.02388,-0.0115 -0.02317,-0.0125 -0.02223,-0.0137 -0.02175,-0.0146 -0.02081,-0.0159 -0.01986,-0.0166 -0.01915,-0.0175 -0.01821,-0.0185 -0.0175,-0.0194 -0.01632,-0.0202 -0.01561,-0.0209 -0.01442,-0.0214 -0.01348,-0.0223 -0.0123,-0.023 -0.01135,-0.0233 -0.01017,-0.024 -0.0092,-0.0242 -0.0078,-0.0245 -0.0066,-0.025 -0.0057,-0.0254 -0.0043,-0.0255 -0.0031,-0.0257 -0.0019,-0.0257 z m -0.268372,0.003 -0.0052,-11.07488 c -0.0064,-0.325 0.270263,-0.81538 0.81008,-0.81706 1.549935,0 3.100107,0 4.650041,0 0.43909,-7.2e-4 0.805588,0.36268 0.804879,0.81706 0,3.69162 0,7.38325 0,11.07488 0.0035,0.46446 -0.379503,0.81802 -0.804879,0.81706 -1.549934,0 -3.100106,0 -4.650041,0 -0.473611,-0.004 -0.805824,-0.39485 -0.804878,-0.81706 z"
       style="fill:#1d1d1b;fill-opacity:1;fill-rule:evenodd;stroke:none;stroke-width:0.26458332"
       inkscape:connector-curvature="0" />
  </g>
</svg>
