<?xml version="1.0" encoding="UTF-8" standalone="no"?>
<!-- Created with Inkscape (http://www.inkscape.org/) -->

<svg
   xmlns:dc="http://purl.org/dc/elements/1.1/"
   xmlns:cc="http://creativecommons.org/ns#"
   xmlns:rdf="http://www.w3.org/1999/02/22-rdf-syntax-ns#"
   xmlns:svg="http://www.w3.org/2000/svg"
   xmlns="http://www.w3.org/2000/svg"
   xmlns:sodipodi="http://sodipodi.sourceforge.net/DTD/sodipodi-0.dtd"
   xmlns:inkscape="http://www.inkscape.org/namespaces/inkscape"
   width="14.85712mm"
   height="13.07659mm"
   viewBox="0 0 14.85712 13.07659"
   version="1.1"
   id="svg8"
   inkscape:version="0.92.2 (5c3e80d, 2017-08-06)"
   sodipodi:docname="132.svg">
  <defs
     id="defs2">
    <pattern
       y="0"
       x="0"
       height="6"
       width="6"
       patternUnits="userSpaceOnUse"
       id="EMFhbasepattern" />
  </defs>
  <sodipodi:namedview
     id="base"
     pagecolor="#ffffff"
     bordercolor="#666666"
     borderopacity="1.0"
     inkscape:pageopacity="0.0"
     inkscape:pageshadow="2"
     inkscape:zoom="5.6"
     inkscape:cx="-31.013152"
     inkscape:cy="48.688349"
     inkscape:document-units="mm"
     inkscape:current-layer="layer1"
     showgrid="false"
     fit-margin-top="0"
     fit-margin-left="0"
     fit-margin-right="0"
     fit-margin-bottom="0"
     inkscape:window-width="1920"
     inkscape:window-height="1027"
     inkscape:window-x="-8"
     inkscape:window-y="-8"
     inkscape:window-maximized="1" />
  <metadata
     id="metadata5">
    <rdf:RDF>
      <cc:Work
         rdf:about="">
        <dc:format>image/svg+xml</dc:format>
        <dc:type
           rdf:resource="http://purl.org/dc/dcmitype/StillImage" />
        <dc:title />
      </cc:Work>
    </rdf:RDF>
  </metadata>
  <g
     inkscape:label="Layer 1"
     inkscape:groupmode="layer"
     id="layer1"
     transform="translate(-143.76189,-203.39298)">
    <path
       style="fill:#ffffff;fill-opacity:1;fill-rule:evenodd;stroke:none;stroke-width:0.26458332"
       d="m 158.5193,215.28129 c 0.13084,0.23756 0.13773,0.53576 -0.008,0.78759 -0.14535,0.25206 -0.40726,0.39522 -0.67844,0.40069 v 0 H 144.5477 v 0 c -0.27095,-0.005 -0.53262,-0.14863 -0.6782,-0.40069 -0.14559,-0.25183 -0.13869,-0.55003 -0.008,-0.78759 v 0 l 6.64265,-11.50117 v 0 c 0.14035,-0.2321 0.39512,-0.38714 0.68629,-0.38714 0.29093,0 0.54571,0.15504 0.68606,0.38714 v 0 z"
       id="path821" />
    <path
       id="path824"
       d="m 148.48681,214.20496 1.87666,-1.87624 -1.87666,-1.87576 0.82688,-0.82683 1.8769,1.876 1.87643,-1.876 0.82712,0.82683 -1.87667,1.87576 1.87667,1.87624 -0.82712,0.82659 -1.87643,-1.876 -1.8769,1.876 z"
       style="fill:#1d1d1b;fill-opacity:1;fill-rule:evenodd;stroke:none;stroke-width:0.26458332"
       inkscape:connector-curvature="0" />
    <path
       id="path826"
       d="m 157.17788,215.29789 h -11.97481 l 5.98847,-10.36783 z m 1.34142,-0.0166 c 0.13084,0.23756 0.13773,0.53576 -0.008,0.78759 -0.14535,0.25206 -0.40726,0.39522 -0.67844,0.40069 v 0 H 144.5477 v 0 c -0.27095,-0.005 -0.53262,-0.14863 -0.6782,-0.40069 -0.14559,-0.25183 -0.13869,-0.55003 -0.008,-0.78759 v 0 l 6.64265,-11.50117 v 0 c 0.14035,-0.2321 0.39512,-0.38714 0.68629,-0.38714 0.29093,0 0.54571,0.15504 0.68606,0.38714 v 0 z"
       style="fill:#e02726;fill-opacity:1;fill-rule:evenodd;stroke:none;stroke-width:0.26458332"
       inkscape:connector-curvature="0" />
  </g>
</svg>
