<?xml version="1.0" encoding="UTF-8" standalone="no"?>
<!-- Created with Inkscape (http://www.inkscape.org/) -->

<svg
   xmlns:dc="http://purl.org/dc/elements/1.1/"
   xmlns:cc="http://creativecommons.org/ns#"
   xmlns:rdf="http://www.w3.org/1999/02/22-rdf-syntax-ns#"
   xmlns:svg="http://www.w3.org/2000/svg"
   xmlns="http://www.w3.org/2000/svg"
   xmlns:sodipodi="http://sodipodi.sourceforge.net/DTD/sodipodi-0.dtd"
   xmlns:inkscape="http://www.inkscape.org/namespaces/inkscape"
   width="14.856909mm"
   height="13.07659mm"
   viewBox="0 0 14.856909 13.07659"
   version="1.1"
   id="svg8"
   inkscape:version="0.92.3 (2405546, 2018-03-11)">
  <defs
     id="defs2">
    <pattern
       y="0"
       x="0"
       height="6"
       width="6"
       patternUnits="userSpaceOnUse"
       id="EMFhbasepattern" />
    <pattern
       y="0"
       x="0"
       height="6"
       width="6"
       patternUnits="userSpaceOnUse"
       id="EMFhbasepattern-4" />
    <pattern
       y="0"
       x="0"
       height="6"
       width="6"
       patternUnits="userSpaceOnUse"
       id="EMFhbasepattern-7" />
  </defs>
  <sodipodi:namedview
     id="base"
     pagecolor="#ffffff"
     bordercolor="#666666"
     borderopacity="1.0"
     inkscape:pageopacity="0.0"
     inkscape:pageshadow="2"
     inkscape:zoom="5.6"
     inkscape:cx="8.6890637"
     inkscape:cy="53.650432"
     inkscape:document-units="mm"
     inkscape:current-layer="layer1"
     showgrid="false"
     fit-margin-top="0"
     fit-margin-left="0"
     fit-margin-right="0"
     fit-margin-bottom="0"
     inkscape:window-width="1920"
     inkscape:window-height="1027"
     inkscape:window-x="-8"
     inkscape:window-y="-8"
     inkscape:window-maximized="1" />
  <metadata
     id="metadata5">
    <rdf:RDF>
      <cc:Work
         rdf:about="">
        <dc:format>image/svg+xml</dc:format>
        <dc:type
           rdf:resource="http://purl.org/dc/dcmitype/StillImage" />
        <dc:title></dc:title>
      </cc:Work>
    </rdf:RDF>
  </metadata>
  <g
     inkscape:label="Layer 1"
     inkscape:groupmode="layer"
     id="layer1"
     transform="translate(-142.3197,-124.36914)">
    <path
       style="fill:#ffffff;fill-opacity:1;fill-rule:evenodd;stroke:none;stroke-width:0.26458332"
       d="m 155.73544,136.27645 h -11.97438 l 5.98814,-10.36782 z"
       id="path917"
       inkscape:connector-curvature="0" />
    <path
       id="path900"
       d="m 150.49067,129.75649 -0.74123,-1.19542 v 0 l -0.7881,1.19542 v 2.68428 0.014 h -1.61948 v 0.62945 h 1.61948 v 0.009 l -2.3e-4,2.82483 h 1.52956 c 0,-4.86134 0,-1.44583 0,-6.16115 z"
       style="fill:#1d1d1b;fill-opacity:1;fill-rule:evenodd;stroke:none;stroke-width:0.26458332"
       inkscape:connector-curvature="0" />
    <path
       id="path902"
       d="m 157.07708,136.25745 c 0.13059,0.23756 0.13749,0.53553 -0.008,0.78759 -0.14558,0.25183 -0.40725,0.39499 -0.67843,0.40069 v 0 h -13.2851 v 0 c -0.27118,-0.006 -0.53285,-0.14886 -0.67843,-0.40069 -0.14534,-0.25206 -0.13844,-0.55003 -0.008,-0.78759 v 0 l 6.64255,-11.50141 v 0 c 0.14058,-0.23185 0.39535,-0.3869 0.68628,-0.3869 0.29093,0 0.5457,0.15505 0.68628,0.3869 v 0 z m -1.34164,0.019 h -11.97438 l 5.98814,-10.36782 z"
       style="fill:#e02726;fill-opacity:1;fill-rule:evenodd;stroke:none;stroke-width:0.26458332"
       inkscape:connector-curvature="0" />
  </g>
</svg>
