<?xml version="1.0" encoding="UTF-8" standalone="no"?>
<svg
   xmlns:dc="http://purl.org/dc/elements/1.1/"
   xmlns:cc="http://creativecommons.org/ns#"
   xmlns:rdf="http://www.w3.org/1999/02/22-rdf-syntax-ns#"
   xmlns:svg="http://www.w3.org/2000/svg"
   xmlns="http://www.w3.org/2000/svg"
   xmlns:sodipodi="http://sodipodi.sourceforge.net/DTD/sodipodi-0.dtd"
   xmlns:inkscape="http://www.inkscape.org/namespaces/inkscape"
   width="14.856915mm"
   height="13.17846mm"
   viewBox="0 0 14.856915 13.17846"
   version="1.1"
   id="svg8"
   inkscape:version="1.0.1 (3bc2e813f5, 2020-09-07)">
  <defs
     id="defs2">
    <pattern
       id="EMFhbasepattern"
       patternUnits="userSpaceOnUse"
       width="6"
       height="6"
       x="0"
       y="0" />
    <pattern
       id="EMFhbasepattern-7"
       patternUnits="userSpaceOnUse"
       width="6"
       height="6"
       x="0"
       y="0" />
  </defs>
  <sodipodi:namedview
     id="base"
     pagecolor="#ffffff"
     bordercolor="#666666"
     borderopacity="1.0"
     inkscape:pageopacity="0.0"
     inkscape:pageshadow="2"
     inkscape:zoom="7.9195959"
     inkscape:cx="12.615025"
     inkscape:cy="45.875848"
     inkscape:document-units="mm"
     inkscape:current-layer="layer1"
     inkscape:document-rotation="0"
     showgrid="false"
     fit-margin-top="0"
     fit-margin-left="0"
     fit-margin-right="0"
     fit-margin-bottom="0"
     inkscape:window-width="1920"
     inkscape:window-height="1027"
     inkscape:window-x="-8"
     inkscape:window-y="-8"
     inkscape:window-maximized="1" />
  <metadata
     id="metadata5">
    <rdf:RDF>
      <cc:Work
         rdf:about="">
        <dc:format>image/svg+xml</dc:format>
        <dc:type
           rdf:resource="http://purl.org/dc/dcmitype/StillImage" />
        <dc:title></dc:title>
      </cc:Work>
    </rdf:RDF>
  </metadata>
  <g
     inkscape:label="Layer 1"
     inkscape:groupmode="layer"
     id="layer1"
     transform="translate(-115.87763,-146.9995)">
    <path
       style="fill:#ffffff;fill-opacity:1;fill-rule:evenodd;stroke:none;stroke-width:0.264583"
       d="m 129.29335,158.99962 h -11.97457 l 5.98824,-10.44834 z"
       id="path911" />
    <path
       style="fill:#ffffff;fill-opacity:1;fill-rule:evenodd;stroke:none;stroke-width:0.264583"
       d="m 130.63501,158.98042 c 0.1306,0.23941 0.1375,0.53993 -0.008,0.79372 -0.14535,0.25404 -0.40702,0.39807 -0.67821,0.40382 v 0 h -13.2853 v 0 c -0.27119,-0.006 -0.53286,-0.14978 -0.67845,-0.40382 -0.14534,-0.25379 -0.13844,-0.55431 -0.008,-0.79372 v 0 l 6.64266,-11.59077 v 0 c 0.14035,-0.2339 0.39536,-0.39015 0.68629,-0.39015 0.29093,0 0.5457,0.15625 0.68629,0.39015 v 0 z"
       id="path907" />
    <path
       style="fill:#1d1d1b;fill-opacity:1;fill-rule:evenodd;stroke:none;stroke-width:0.264583"
       d="m 122.44208,158.6787 -7.2e-4,0.14067 h -4.81119 l 2.02249,-3.55116 h 2.7887 v 1.9697 0 c 0,0 0.51121,0.0616 0.93869,-0.20227 0.58519,0.29549 1.12019,0.30628 1.82266,0 0.48552,0.26002 1.21202,0.36284 1.89236,0 0.34446,0.18477 0.70224,0.25068 1.01077,0.25859 l 0.1325,0.23102 c -0.4672,0.0201 -0.92537,-0.11743 -1.14802,-0.23462 -0.55237,0.26937 -1.30194,0.25499 -1.88761,0 -0.59708,0.23198 -1.34832,0.22312 -1.82266,0 -0.46363,0.24972 -0.93869,0.1934 -0.93869,0.1934 v 0 0.35133 0 c 0,0 0.51121,0.0573 0.93869,-0.20634 0.52715,0.28998 1.09545,0.31898 1.82266,0 0.5645,0.29357 1.21202,0.3439 1.8838,0.004 0.36396,0.23199 0.97366,0.3046 1.36759,0.26865 l 0.12085,0.21066 c -0.4722,0.0661 -1.07,0.0268 -1.48463,-0.24253 -0.66156,0.28351 -1.40922,0.22647 -1.88761,-0.004 -0.692,0.25546 -1.25864,0.25546 -1.82266,0.004 -0.44222,0.26362 -1.04217,0.20203 -0.93869,0.20203 v 0 l -0.001,0.39902 v 0 c 0.18602,0 0.60826,0 0.94011,-0.24661 0.56949,0.24661 1.03884,0.24661 1.82266,0 0.6901,0.24661 1.18775,0.24661 1.88761,0 0.44127,0.21689 1.12162,0.30101 1.69349,0.25188 l 0.12275,0.21449 c -0.67488,0.0753 -1.45918,-0.004 -1.81624,-0.21976 -0.60613,0.23102 -1.2163,0.2593 -1.88761,0 -0.73696,0.2593 -1.43158,0.22144 -1.82266,0 -0.36943,0.24995 -0.93797,0.20706 -0.93797,0.20706 z m -1.2546,-4.06929 c -0.18793,-0.0875 -0.31995,-0.19388 -0.1375,-0.71225 0.0209,-0.0597 0.11657,-0.27776 0.25097,-0.37002 l 0.69938,-0.48074 c 0.10752,-0.0738 0.2179,-0.0865 0.43485,-0.007 l 1.28266,0.47019 c 0.16058,0.059 0.22362,0.0932 0.36016,0.41915 l 0.22076,0.52796 c 0.0783,0.18669 0.15795,0.35181 0.28617,0.42921 l 0.77003,0.46349 c 0.20315,0.12222 0.23836,0.20131 0.26167,0.51765 0.005,0.0594 -0.0875,0.45055 -0.33137,0.30076 0.0951,-0.28902 -0.024,-0.57301 -0.29807,-0.67725 -0.2738,-0.10449 -0.55284,0.0412 -0.65608,0.31658 l -2.194,-0.80452 c 0.0947,-0.27823 0.005,-0.55143 -0.2857,-0.66191 -0.29069,-0.11048 -0.56735,0.0359 -0.66393,0.26841 z m 1.85311,-1.18173 -0.25596,0.70817 1.25674,0.46062 c 0.0759,0.028 0.14701,-0.0384 0.13107,-0.0774 l -0.24193,-0.58931 c -0.0847,-0.2061 -0.1049,-0.21424 -0.46197,-0.34509 z m -0.66583,-0.1735 -0.49218,0.35923 c -0.0547,0.0398 -0.0961,0.12247 0.0209,0.19939 l 0.79691,0.29214 0.25572,-0.70817 -0.33327,-0.12222 c -0.1287,-0.0472 -0.19293,-0.0606 -0.24811,-0.0204 z m -1.13685,1.57882 c 0.006,0.23486 0.19982,0.42011 0.43295,0.41412 0.23312,-0.006 0.41701,-0.20131 0.41106,-0.43617 -0.006,-0.23486 -0.19982,-0.42011 -0.43295,-0.41411 -0.23312,0.006 -0.41701,0.2013 -0.41106,0.43616 z m 0.18198,-0.005 c -0.003,-0.13349 0.10134,-0.24445 0.23384,-0.24804 0.1325,-0.003 0.24264,0.10209 0.24621,0.23558 0.003,0.13348 -0.10134,0.24444 -0.23384,0.24804 -0.1325,0.003 -0.24264,-0.1021 -0.24621,-0.23558 z m 3.15291,1.1568 c -0.003,-0.13325 0.10181,-0.24421 0.23479,-0.24804 0.13274,-0.004 0.24288,0.10113 0.24621,0.23438 0.003,0.13324 -0.10205,0.24444 -0.23479,0.24804 -0.13274,0.004 -0.24312,-0.10114 -0.24621,-0.23438 z m -0.18246,0.005 c 0.006,0.23414 0.19935,0.41891 0.43295,0.4122 0.2336,-0.007 0.41844,-0.20202 0.41296,-0.43616 -0.006,-0.23438 -0.19958,-0.41892 -0.43294,-0.41245 -0.23361,0.007 -0.41844,0.20203 -0.41297,0.43641 z"
       id="path891" />
    <path
       style="fill:#e02726;fill-opacity:1;fill-rule:evenodd;stroke:none;stroke-width:0.264583"
       d="m 130.63501,158.98042 c 0.1306,0.23941 0.1375,0.53993 -0.008,0.79372 -0.14535,0.25404 -0.40702,0.39807 -0.67821,0.40382 v 0 h -13.2853 v 0 c -0.27119,-0.006 -0.53286,-0.14978 -0.67845,-0.40382 -0.14534,-0.25379 -0.13844,-0.55431 -0.008,-0.79372 v 0 l 6.64266,-11.59077 v 0 c 0.14035,-0.2339 0.39536,-0.39015 0.68629,-0.39015 0.29093,0 0.5457,0.15625 0.68629,0.39015 v 0 z m -1.34166,0.0192 h -11.97457 l 5.98824,-10.44834 z"
       id="path893" />
  </g>
</svg>
