<?xml version="1.0" encoding="UTF-8" standalone="no"?>
<!-- Created with Inkscape (http://www.inkscape.org/) -->

<svg
   xmlns:dc="http://purl.org/dc/elements/1.1/"
   xmlns:cc="http://creativecommons.org/ns#"
   xmlns:rdf="http://www.w3.org/1999/02/22-rdf-syntax-ns#"
   xmlns:svg="http://www.w3.org/2000/svg"
   xmlns="http://www.w3.org/2000/svg"
   xmlns:sodipodi="http://sodipodi.sourceforge.net/DTD/sodipodi-0.dtd"
   xmlns:inkscape="http://www.inkscape.org/namespaces/inkscape"
   width="14.856998mm"
   height="13.067mm"
   viewBox="0 0 14.856999 13.067"
   version="1.1"
   id="svg8"
   inkscape:version="0.92.2 (5c3e80d, 2017-08-06)">
  <defs
     id="defs2">
    <pattern
       y="0"
       x="0"
       height="6"
       width="6"
       patternUnits="userSpaceOnUse"
       id="EMFhbasepattern" />
    <pattern
       y="0"
       x="0"
       height="6"
       width="6"
       patternUnits="userSpaceOnUse"
       id="EMFhbasepattern-9" />
    <pattern
       y="0"
       x="0"
       height="6"
       width="6"
       patternUnits="userSpaceOnUse"
       id="EMFhbasepattern-91" />
    <pattern
       y="0"
       x="0"
       height="6"
       width="6"
       patternUnits="userSpaceOnUse"
       id="EMFhbasepattern-8" />
  </defs>
  <sodipodi:namedview
     id="base"
     pagecolor="#ffffff"
     bordercolor="#666666"
     borderopacity="1.0"
     inkscape:pageopacity="0.0"
     inkscape:pageshadow="2"
     inkscape:zoom="5.6"
     inkscape:cx="3.6355547"
     inkscape:cy="51.240938"
     inkscape:document-units="mm"
     inkscape:current-layer="layer1"
     showgrid="false"
     fit-margin-top="0"
     fit-margin-left="0"
     fit-margin-right="0"
     fit-margin-bottom="0"
     inkscape:window-width="1920"
     inkscape:window-height="1027"
     inkscape:window-x="-8"
     inkscape:window-y="-8"
     inkscape:window-maximized="1" />
  <metadata
     id="metadata5">
    <rdf:RDF>
      <cc:Work
         rdf:about="">
        <dc:format>image/svg+xml</dc:format>
        <dc:type
           rdf:resource="http://purl.org/dc/dcmitype/StillImage" />
        <dc:title></dc:title>
      </cc:Work>
    </rdf:RDF>
  </metadata>
  <g
     inkscape:label="Layer 1"
     inkscape:groupmode="layer"
     id="layer1"
     transform="translate(119.73861,-102.40179)">
    <path
       inkscape:connector-curvature="0"
       style="fill:#ffffff;fill-opacity:1;fill-rule:evenodd;stroke:none;stroke-width:0.26458332"
       d="m -104.98114,114.28138 c 0.13059,0.23739 0.13749,0.53537 -0.008,0.78701 -0.14558,0.25188 -0.40725,0.3947 -0.67843,0.4004 v 0 h -13.2851 v 0 c -0.27118,-0.006 -0.53285,-0.14852 -0.67843,-0.4004 -0.14558,-0.25164 -0.13844,-0.54962 -0.008,-0.78701 v 0 l 6.64255,-11.49274 v 0 c 0.14035,-0.23192 0.39535,-0.38685 0.68628,-0.38685 0.29093,0 0.5457,0.15493 0.68628,0.38685 v 0 z"
       id="path978"
       sodipodi:nodetypes="cccccccccccsccc" />
    <path
       id="path965"
       d="m -112.30854,110.94821 c 0,-0.33362 0.11608,-0.6941 0.38275,-0.85022 l 1.23911,-0.77965 0.63585,-1.09783 -1.25243,-9.5e-4 -1.52719,0.94955 c -0.6418,0.37569 -0.75099,1.08429 -0.73766,1.85847 v 3.09293 h 1.25957 z"
       style="fill:#1d1d1b;fill-opacity:1;fill-rule:evenodd;stroke:none;stroke-width:0.26458332"
       inkscape:connector-curvature="0" />
    <path
       id="path967"
       d="m -104.98114,114.28138 c 0.13059,0.23739 0.13749,0.53537 -0.008,0.78701 -0.14558,0.25188 -0.40725,0.3947 -0.67843,0.4004 v 0 h -13.2851 v 0 c -0.27118,-0.006 -0.53285,-0.14852 -0.67843,-0.4004 -0.14558,-0.25164 -0.13844,-0.54962 -0.008,-0.78701 v 0 l 6.64255,-11.49274 v 0 c 0.14035,-0.23192 0.39535,-0.38685 0.68628,-0.38685 0.29093,0 0.5457,0.15493 0.68628,0.38685 v 0 z m -1.34164,0.019 h -11.97438 l 5.98814,-10.35998 z"
       style="fill:#e02726;fill-opacity:1;fill-rule:evenodd;stroke:none;stroke-width:0.26458332"
       inkscape:connector-curvature="0" />
  </g>
</svg>
