<?xml version="1.0" encoding="UTF-8" standalone="no"?>
<!-- Created with Inkscape (http://www.inkscape.org/) -->

<svg
   xmlns:dc="http://purl.org/dc/elements/1.1/"
   xmlns:cc="http://creativecommons.org/ns#"
   xmlns:rdf="http://www.w3.org/1999/02/22-rdf-syntax-ns#"
   xmlns:svg="http://www.w3.org/2000/svg"
   xmlns="http://www.w3.org/2000/svg"
   xmlns:sodipodi="http://sodipodi.sourceforge.net/DTD/sodipodi-0.dtd"
   xmlns:inkscape="http://www.inkscape.org/namespaces/inkscape"
   width="14.856828mm"
   height="13.067mm"
   viewBox="0 0 14.856828 13.067"
   version="1.1"
   id="svg8"
   inkscape:version="0.92.2 (5c3e80d, 2017-08-06)"
   sodipodi:docname="151_kollasega.svg">
  <defs
     id="defs2">
    <pattern
       y="0"
       x="0"
       height="6"
       width="6"
       patternUnits="userSpaceOnUse"
       id="EMFhbasepattern" />
  </defs>
  <sodipodi:namedview
     id="base"
     pagecolor="#ffffff"
     bordercolor="#666666"
     borderopacity="1.0"
     inkscape:pageopacity="0.0"
     inkscape:pageshadow="2"
     inkscape:zoom="7.9195959"
     inkscape:cx="14.947685"
     inkscape:cy="13.609441"
     inkscape:document-units="mm"
     inkscape:current-layer="layer1"
     showgrid="false"
     fit-margin-top="0"
     fit-margin-left="0"
     fit-margin-right="0"
     fit-margin-bottom="0"
     inkscape:window-width="1920"
     inkscape:window-height="1027"
     inkscape:window-x="-8"
     inkscape:window-y="-8"
     inkscape:window-maximized="1" />
  <metadata
     id="metadata5">
    <rdf:RDF>
      <cc:Work
         rdf:about="">
        <dc:format>image/svg+xml</dc:format>
        <dc:type
           rdf:resource="http://purl.org/dc/dcmitype/StillImage" />
        <dc:title></dc:title>
      </cc:Work>
    </rdf:RDF>
  </metadata>
  <g
     inkscape:label="Layer 1"
     inkscape:groupmode="layer"
     id="layer1"
     transform="translate(-89.333482,-183.12126)">
    <path
       style="fill:#ffc500;fill-opacity:1;fill-rule:evenodd;stroke:none;stroke-width:0.26458332"
       d="M 102.74905,195.02007 H 90.774669 l 5.988377,-10.36041 z"
       id="path837"
       inkscape:connector-curvature="0" />
    <path
       id="path818"
       d="m 94.128769,194.65912 c 0,0 1.530755,-0.57602 1.530755,-1.0584 0,-0.57602 -1.692037,-0.87092 -1.692037,-1.09856 0,-0.22765 1.235546,-0.54917 1.235546,-0.54917 v 0 h 0.201484 v 0 c 0,0 -0.709832,0.30797 -0.709832,0.45554 0,0.36167 2.445163,0.73665 2.445163,1.5137 0,0.37498 -0.483371,0.73689 -0.483371,0.73689 v 0 z"
       style="fill:#1d1d1b;fill-opacity:1;fill-rule:evenodd;stroke:none;stroke-width:0.26458332"
       inkscape:connector-curvature="0" />
    <path
       id="path820"
       d="m 98.452704,194.65912 c 0,0 0.779056,-0.22789 0.779056,-0.77705 0,-0.36167 -2.538174,-0.83075 -2.538174,-1.16557 0,-0.2412 1.195106,-0.43059 1.195106,-0.43059 v 0 h 0.241924 v 0 c 0,0 -0.738616,0.2564 -0.738616,0.44104 0,0.45839 3.8094,0.45839 3.8094,1.38277 0,0.36167 -0.31804,0.5494 -0.31804,0.5494 v 0 z"
       style="fill:#1d1d1b;fill-opacity:1;fill-rule:evenodd;stroke:none;stroke-width:0.26458332"
       inkscape:connector-curvature="0" />
    <path
       id="path822"
       d="m 98.54072,189.71001 -0.02759,-0.0105 c -0.992671,-0.35193 -2.100476,-0.52635 -3.152855,-0.53752 l -0.0033,0.0176 0.390361,-0.83075 v 0 c 0.05114,-0.0803 0.178647,-0.11882 0.284979,-0.11169 0.861362,0.0632 1.371137,0.15256 2.083111,0.3467 0.148674,0.0406 0.211237,0.1029 0.2355,0.17514 v 0 z m 0.127741,-0.076 c -0.04068,-0.1509 -0.174128,-0.85238 -0.174128,-0.85238 -0.02284,-0.1459 -0.154383,-0.28491 -0.295922,-0.32602 -0.733382,-0.20603 -1.278364,-0.30322 -2.214896,-0.36904 -0.195061,-0.008 -0.332793,0.11049 -0.379417,0.21196 0,0 -0.323278,0.68342 -0.367286,0.76873 -0.455777,0.49736 -0.549502,1.09856 -0.266187,1.58713 l -0.100623,0.57791 c -0.03497,0.18821 0.333982,0.24856 0.372519,0.0637 l 0.09705,-0.57269 1.033348,0.17822 c 0.06066,0.12428 0.15819,0.21458 0.295685,0.23716 0.137494,0.0226 0.247394,-0.0261 0.352775,-0.12333 l 1.035727,0.17965 -0.101813,0.58219 c -0.03259,0.18654 0.338027,0.24975 0.370379,0.0649 l 0.102526,-0.58195 c 0.441742,-0.37736 0.550691,-1.07504 0.240258,-1.6261 z"
       style="fill:#1d1d1b;fill-opacity:1;fill-rule:evenodd;stroke:none;stroke-width:0.26458332"
       inkscape:connector-curvature="0" />
    <path
       id="path824"
       d="m 104.09069,195.00107 c 0.13059,0.23739 0.13773,0.53514 -0.008,0.78702 -0.14559,0.25165 -0.40725,0.39471 -0.67844,0.40017 v 0 H 90.119311 v 0 c -0.271183,-0.005 -0.53285,-0.14852 -0.678432,-0.40017 -0.145345,-0.25188 -0.138446,-0.54963 -0.0078,-0.78702 v 0 l 6.642546,-11.49319 v 0 c 0.140587,-0.23168 0.395356,-0.38662 0.686282,-0.38662 0.291165,0 0.545933,0.15494 0.686283,0.38662 v 0 z m -1.34164,0.019 H 90.774669 l 5.988377,-10.36041 z"
       style="fill:#eb001f;fill-opacity:1;fill-rule:evenodd;stroke:none;stroke-width:0.26458332"
       inkscape:connector-curvature="0" />
  </g>
</svg>
