<?xml version="1.0" encoding="UTF-8" standalone="no"?>
<!-- Created with Inkscape (http://www.inkscape.org/) -->

<svg
   xmlns:dc="http://purl.org/dc/elements/1.1/"
   xmlns:cc="http://creativecommons.org/ns#"
   xmlns:rdf="http://www.w3.org/1999/02/22-rdf-syntax-ns#"
   xmlns:svg="http://www.w3.org/2000/svg"
   xmlns="http://www.w3.org/2000/svg"
   xmlns:sodipodi="http://sodipodi.sourceforge.net/DTD/sodipodi-0.dtd"
   xmlns:inkscape="http://www.inkscape.org/namespaces/inkscape"
   width="14.857268mm"
   height="13.067mm"
   viewBox="0 0 14.857269 13.067001"
   version="1.1"
   id="svg8"
   inkscape:version="0.92.2 (5c3e80d, 2017-08-06)"
   sodipodi:docname="152.svg">
  <defs
     id="defs2">
    <pattern
       y="0"
       x="0"
       height="6"
       width="6"
       patternUnits="userSpaceOnUse"
       id="EMFhbasepattern" />
    <pattern
       y="0"
       x="0"
       height="6"
       width="6"
       patternUnits="userSpaceOnUse"
       id="EMFhbasepattern-2" />
    <pattern
       y="0"
       x="0"
       height="6"
       width="6"
       patternUnits="userSpaceOnUse"
       id="EMFhbasepattern-7" />
  </defs>
  <sodipodi:namedview
     id="base"
     pagecolor="#ffffff"
     bordercolor="#666666"
     borderopacity="1.0"
     inkscape:pageopacity="0.0"
     inkscape:pageshadow="2"
     inkscape:zoom="5.6"
     inkscape:cx="-34.145905"
     inkscape:cy="45.396872"
     inkscape:document-units="mm"
     inkscape:current-layer="layer1"
     showgrid="false"
     fit-margin-top="0"
     fit-margin-left="0"
     fit-margin-right="0"
     fit-margin-bottom="0"
     inkscape:window-width="1920"
     inkscape:window-height="1027"
     inkscape:window-x="-8"
     inkscape:window-y="-8"
     inkscape:window-maximized="1" />
  <metadata
     id="metadata5">
    <rdf:RDF>
      <cc:Work
         rdf:about="">
        <dc:format>image/svg+xml</dc:format>
        <dc:type
           rdf:resource="http://purl.org/dc/dcmitype/StillImage" />
        <dc:title />
      </cc:Work>
    </rdf:RDF>
  </metadata>
  <g
     inkscape:label="Layer 1"
     inkscape:groupmode="layer"
     id="layer1"
     transform="translate(-144.59076,-202.5317)">
    <path
       style="fill:#ffffff;fill-opacity:1;fill-rule:evenodd;stroke:none;stroke-width:0.26458332"
       d="m 159.34832,214.4115 c 0.13083,0.2374 0.13773,0.53515 -0.008,0.78703 -0.14559,0.25165 -0.40726,0.3947 -0.67845,0.40017 v 0 h -13.28506 v 0 c -0.27119,-0.005 -0.53286,-0.14852 -0.67845,-0.40017 -0.14558,-0.25188 -0.13868,-0.54963 -0.008,-0.78703 v 0 l 6.64266,-11.49318 v 0 c 0.14035,-0.23169 0.39512,-0.38662 0.68629,-0.38662 0.29093,0 0.5457,0.15493 0.68605,0.38662 v 0 z"
       id="path821" />
    <path
       id="path859"
       d="m 146.9044,213.8008 h 10.23018 v 0 c 0,0 -0.53833,-0.98308 -0.55641,-0.98118 -1.47203,0.14686 -1.66733,-1.53532 -2.51728,-1.53532 -0.84996,0 -1.19727,1.31742 -2.04866,1.32954 -0.85138,0.0121 -1.18656,-1.32954 -2.03247,-1.32954 -0.84591,0 -1.11234,1.70262 -2.5218,1.53532 -0.0183,-0.002 -0.55356,0.98118 -0.55356,0.98118 z"
       style="fill:#1d1d1b;fill-opacity:1;fill-rule:evenodd;stroke:none;stroke-width:0.26458332"
       inkscape:connector-curvature="0" />
    <path
       id="path861"
       d="m 159.34832,214.4115 c 0.13083,0.2374 0.13773,0.53515 -0.008,0.78703 -0.14559,0.25165 -0.40726,0.3947 -0.67845,0.40017 v 0 h -13.28506 v 0 c -0.27119,-0.005 -0.53286,-0.14852 -0.67845,-0.40017 -0.14558,-0.25188 -0.13868,-0.54963 -0.008,-0.78703 v 0 l 6.64266,-11.49318 v 0 c 0.14035,-0.23169 0.39512,-0.38662 0.68629,-0.38662 0.29093,0 0.5457,0.15493 0.68605,0.38662 v 0 z m -1.34143,0.019 h -11.97457 l 5.98824,-10.3604 z"
       style="fill:#e02726;fill-opacity:1;fill-rule:evenodd;stroke:none;stroke-width:0.26458332"
       inkscape:connector-curvature="0" />
  </g>
</svg>
