<?xml version="1.0" encoding="UTF-8" standalone="no"?>
<!-- Created with Inkscape (http://www.inkscape.org/) -->

<svg
   xmlns:dc="http://purl.org/dc/elements/1.1/"
   xmlns:cc="http://creativecommons.org/ns#"
   xmlns:rdf="http://www.w3.org/1999/02/22-rdf-syntax-ns#"
   xmlns:svg="http://www.w3.org/2000/svg"
   xmlns="http://www.w3.org/2000/svg"
   xmlns:sodipodi="http://sodipodi.sourceforge.net/DTD/sodipodi-0.dtd"
   xmlns:inkscape="http://www.inkscape.org/namespaces/inkscape"
   width="14.856909mm"
   height="13.067mm"
   viewBox="0 0 14.856909 13.067001"
   version="1.1"
   id="svg8"
   inkscape:version="0.92.2 (5c3e80d, 2017-08-06)">
  <defs
     id="defs2">
    <pattern
       y="0"
       x="0"
       height="6"
       width="6"
       patternUnits="userSpaceOnUse"
       id="EMFhbasepattern" />
    <pattern
       y="0"
       x="0"
       height="6"
       width="6"
       patternUnits="userSpaceOnUse"
       id="EMFhbasepattern-2" />
    <pattern
       y="0"
       x="0"
       height="6"
       width="6"
       patternUnits="userSpaceOnUse"
       id="EMFhbasepattern-7" />
    <pattern
       y="0"
       x="0"
       height="6"
       width="6"
       patternUnits="userSpaceOnUse"
       id="EMFhbasepattern-3" />
    <pattern
       y="0"
       x="0"
       height="6"
       width="6"
       patternUnits="userSpaceOnUse"
       id="EMFhbasepattern-5" />
  </defs>
  <sodipodi:namedview
     id="base"
     pagecolor="#ffffff"
     bordercolor="#666666"
     borderopacity="1.0"
     inkscape:pageopacity="0.0"
     inkscape:pageshadow="2"
     inkscape:zoom="5.6"
     inkscape:cx="16.697997"
     inkscape:cy="46.161847"
     inkscape:document-units="mm"
     inkscape:current-layer="layer1"
     showgrid="false"
     fit-margin-top="0"
     fit-margin-left="0"
     fit-margin-right="0"
     fit-margin-bottom="0"
     inkscape:window-width="1920"
     inkscape:window-height="1027"
     inkscape:window-x="-8"
     inkscape:window-y="-8"
     inkscape:window-maximized="1" />
  <metadata
     id="metadata5">
    <rdf:RDF>
      <cc:Work
         rdf:about="">
        <dc:format>image/svg+xml</dc:format>
        <dc:type
           rdf:resource="http://purl.org/dc/dcmitype/StillImage" />
        <dc:title></dc:title>
      </cc:Work>
    </rdf:RDF>
  </metadata>
  <g
     inkscape:label="Layer 1"
     inkscape:groupmode="layer"
     id="layer1"
     transform="translate(-138.81595,-202.7341)">
    <path
       id="path894"
       d="m 153.57333,214.6139 c 0.13059,0.2374 0.13749,0.53515 -0.008,0.78703 -0.14558,0.25165 -0.40725,0.3947 -0.67843,0.40017 v 0 h -13.2851 v 0 c -0.27118,-0.005 -0.53285,-0.14852 -0.67843,-0.40017 -0.14534,-0.25188 -0.13844,-0.54963 -0.008,-0.78703 v 0 l 6.64255,-11.49294 v 0 c 0.14058,-0.23193 0.39535,-0.38686 0.68628,-0.38686 0.29093,0 0.5457,0.15493 0.68628,0.38686 v 0 z"
       style="fill:#e02726;fill-opacity:1;fill-rule:evenodd;stroke:none;stroke-width:0.26458332"
       inkscape:connector-curvature="0" />
    <path
       id="path896"
       d="m 152.23169,214.63291 h -11.97438 l 5.98814,-10.3604 z"
       style="fill:#f1e000;fill-opacity:1;fill-rule:evenodd;stroke:none;stroke-width:0.26458332"
       inkscape:connector-curvature="0" />
    <path
       id="path898"
       d="m 144.71541,212.355 c -0.45173,-1.32027 -0.27451,-1.30387 -0.0856,-1.62182 l -0.37347,-0.1989 c -0.0109,0.10432 -0.0878,0.16278 -0.18602,0.11264 -0.19316,-0.0986 -0.43698,-0.27589 -0.33184,-0.52445 l 0.24977,-0.21054 c 0.10538,-0.31319 0.13084,-0.64516 0.27737,-0.95242 l 0.0997,-0.0972 c 0.42367,-0.13972 0.82521,-0.32864 1.27052,-0.37355 0.13892,-0.001 0.30163,0.067 0.44055,0.0656 0.18983,-0.067 0.16437,-0.0917 0.2807,-0.24809 0.27951,-0.51494 0.77192,-0.77396 1.04191,-0.11192 0.1344,0.25046 -0.0602,0.55177 -0.22028,0.69245 -0.2531,0.22242 -0.28212,0.31011 -0.58185,0.0913 v 0 c 0.0528,0.10408 0.13369,0.23478 0.15843,0.31201 l 0.0673,1.38181 0.50953,0.88968 c 0.0937,0.0673 0.18531,0.0972 0.25454,0.20318 0.0492,0.0758 0.0285,0.15422 0.0295,0.23216 l 1.57786,0.84549 c 0.13107,-0.0946 0.24287,-0.19486 0.47052,-0.50093 0.11752,-0.15802 0.35373,-0.47502 0.69009,-0.59621 l 1.58023,2.70826 -4.60677,-2.3e-4 0.0845,-0.17775 v 0 c 0,0 -0.69152,0.002 -1.02003,0.003 -0.10229,2.4e-4 -0.16961,-0.0646 -0.16984,-0.17228 -0.1513,-0.70956 -0.0802,-1.37611 -0.005,-1.93953 v 0 l -0.65892,-0.30702 c 0.003,0.23763 0.0171,0.48524 -0.0224,0.71265 -0.2355,0.34813 -0.64774,0.88921 -0.98815,1.33405 l 0.38442,0.30179 c 0.23288,0.0924 0.27094,0.17989 0.11347,0.245 0,0 -0.49503,0 -0.49503,0 v 0 c -0.25049,-0.12809 -0.72625,-0.27185 -0.84971,-0.49546 0.0416,-0.33221 0.77287,-1.33191 1.01432,-1.60281 z m 2.2746,-0.18464 c -0.0393,0.53063 -0.0999,1.05104 -0.0535,1.56123 0.0264,0.11026 0.0737,0.16776 0.17532,0.2198 l 0.3925,0.20104 c 0.14986,-0.30393 0.0431,-0.38187 0.34659,-0.55225 0.1501,-0.0556 0.31804,-0.0226 0.45387,-0.1692 0.0642,-0.17204 0.0868,-0.24547 0.18603,-0.29299 0.13868,-0.10622 0.25619,-0.10741 0.46101,-0.12642 l -1.51982,-0.81554 -0.44198,-0.0257 c 0,0 0,0 0,0 z m -0.80736,-1.90911 c -0.11656,0.19438 -0.33255,0.57672 -0.37609,0.79677 l 0.99624,0.52136 c -0.20434,-0.29751 -0.40487,-0.50354 -0.57543,-0.81959 -0.0595,-0.11049 -0.0228,-0.37616 -0.0447,-0.49854 z m -0.9646,-0.94197 c -0.1746,0.009 -0.3542,-0.0233 -0.52286,0.0188 -0.14606,0.22574 -0.26547,0.44864 -0.32185,0.73475 l 0.0181,0.22313 0.35111,0.18678 c 0.15819,-0.38829 0.25762,-0.802 0.47552,-1.16344 z"
       style="fill:#1d1d1b;fill-opacity:1;fill-rule:evenodd;stroke:none;stroke-width:0.26458332"
       inkscape:connector-curvature="0" />
  </g>
</svg>
