<?xml version="1.0" encoding="UTF-8" standalone="no"?>
<svg
   xmlns:dc="http://purl.org/dc/elements/1.1/"
   xmlns:cc="http://creativecommons.org/ns#"
   xmlns:rdf="http://www.w3.org/1999/02/22-rdf-syntax-ns#"
   xmlns:svg="http://www.w3.org/2000/svg"
   xmlns="http://www.w3.org/2000/svg"
   xmlns:sodipodi="http://sodipodi.sourceforge.net/DTD/sodipodi-0.dtd"
   xmlns:inkscape="http://www.inkscape.org/namespaces/inkscape"
   width="14.857146mm"
   height="13.067mm"
   viewBox="0 0 14.857146 13.067"
   version="1.1"
   id="svg8"
   inkscape:version="1.0.1 (3bc2e813f5, 2020-09-07)">
  <defs
     id="defs2">
    <pattern
       id="EMFhbasepattern"
       patternUnits="userSpaceOnUse"
       width="6"
       height="6"
       x="0"
       y="0" />
    <pattern
       id="EMFhbasepattern-7"
       patternUnits="userSpaceOnUse"
       width="6"
       height="6"
       x="0"
       y="0" />
    <pattern
       id="EMFhbasepattern-4"
       patternUnits="userSpaceOnUse"
       width="6"
       height="6"
       x="0"
       y="0" />
  </defs>
  <sodipodi:namedview
     id="base"
     pagecolor="#ffffff"
     bordercolor="#666666"
     borderopacity="1.0"
     inkscape:pageopacity="0.0"
     inkscape:pageshadow="2"
     inkscape:zoom="7.9195959"
     inkscape:cx="12.533521"
     inkscape:cy="9.0917484"
     inkscape:document-units="mm"
     inkscape:current-layer="layer1"
     inkscape:document-rotation="0"
     showgrid="false"
     fit-margin-top="0"
     fit-margin-left="0"
     fit-margin-right="0"
     fit-margin-bottom="0"
     inkscape:window-width="1920"
     inkscape:window-height="1027"
     inkscape:window-x="-8"
     inkscape:window-y="-8"
     inkscape:window-maximized="1" />
  <metadata
     id="metadata5">
    <rdf:RDF>
      <cc:Work
         rdf:about="">
        <dc:format>image/svg+xml</dc:format>
        <dc:type
           rdf:resource="http://purl.org/dc/dcmitype/StillImage" />
        <dc:title></dc:title>
      </cc:Work>
    </rdf:RDF>
  </metadata>
  <g
     inkscape:label="Layer 1"
     inkscape:groupmode="layer"
     id="layer1"
     transform="translate(-115.89919,-147.0141)">
    <path
       style="fill:#e02726;fill-opacity:1;fill-rule:evenodd;stroke:none;stroke-width:0.264583"
       d="m 130.65681,158.8939 c 0.13059,0.2374 0.13749,0.53515 -0.008,0.78703 -0.14559,0.25165 -0.40726,0.3947 -0.67845,0.40017 v 0 h -13.2853 v 0 c -0.27119,-0.005 -0.53286,-0.14852 -0.67844,-0.40017 -0.14535,-0.25188 -0.13845,-0.54963 -0.008,-0.78703 v 0 l 6.64242,-11.49294 v 0 c 0.14035,-0.23193 0.39536,-0.38686 0.68629,-0.38686 0.29093,0 0.54594,0.15493 0.68629,0.38686 v 0 z"
       id="path920" />
    <path
       style="fill:#ffffff;fill-opacity:1;fill-rule:evenodd;stroke:none;stroke-width:0.264583"
       d="m 129.31515,158.9129 h -11.97457 l 5.98823,-10.3604 z"
       id="path935" />
    <path
       style="fill:#1d1d1b;fill-opacity:1;fill-rule:evenodd;stroke:none;stroke-width:0.264583"
       d="m 121.97645,151.81326 h 1.17252 v 2.00346 0 c 0,1.55932 -1.18822,1.72851 -1.18822,2.91666 v 0 1.82 h -1.17039 v -2.07854 0 c 0,-1.48281 1.18561,-1.55956 1.18561,-2.78003 v 0 z"
       id="path916" />
    <path
       style="fill:#1d1d1b;fill-opacity:1;fill-rule:evenodd;stroke:none;stroke-width:0.264583"
       d="m 124.68118,151.81326 4.7e-4,1.88155 v 0 c 0,1.22047 1.18562,1.29722 1.18562,2.78003 v 0 2.07854 h -1.17039 v -1.82 0 c 0,-1.18815 -1.18847,-1.35734 -1.18847,-2.91666 v 0 l 2.4e-4,-2.00346 z"
       id="path918" />
  </g>
</svg>
