<?xml version="1.0" encoding="UTF-8" standalone="no"?>
<!-- Created with Inkscape (http://www.inkscape.org/) -->

<svg
   xmlns:dc="http://purl.org/dc/elements/1.1/"
   xmlns:cc="http://creativecommons.org/ns#"
   xmlns:rdf="http://www.w3.org/1999/02/22-rdf-syntax-ns#"
   xmlns:svg="http://www.w3.org/2000/svg"
   xmlns="http://www.w3.org/2000/svg"
   xmlns:sodipodi="http://sodipodi.sourceforge.net/DTD/sodipodi-0.dtd"
   xmlns:inkscape="http://www.inkscape.org/namespaces/inkscape"
   width="14.857146mm"
   height="13.066996mm"
   viewBox="0 0 14.857147 13.066995"
   version="1.1"
   id="svg8"
   inkscape:version="0.92.2 (5c3e80d, 2017-08-06)">
  <defs
     id="defs2">
    <pattern
       y="0"
       x="0"
       height="6"
       width="6"
       patternUnits="userSpaceOnUse"
       id="EMFhbasepattern" />
    <pattern
       y="0"
       x="0"
       height="6"
       width="6"
       patternUnits="userSpaceOnUse"
       id="EMFhbasepattern-9" />
    <pattern
       y="0"
       x="0"
       height="6"
       width="6"
       patternUnits="userSpaceOnUse"
       id="EMFhbasepattern-91" />
    <pattern
       y="0"
       x="0"
       height="6"
       width="6"
       patternUnits="userSpaceOnUse"
       id="EMFhbasepattern-8" />
    <pattern
       y="0"
       x="0"
       height="6"
       width="6"
       patternUnits="userSpaceOnUse"
       id="EMFhbasepattern-2" />
  </defs>
  <sodipodi:namedview
     id="base"
     pagecolor="#ffffff"
     bordercolor="#666666"
     borderopacity="1.0"
     inkscape:pageopacity="0.0"
     inkscape:pageshadow="2"
     inkscape:zoom="5.6"
     inkscape:cx="33.497774"
     inkscape:cy="25.934467"
     inkscape:document-units="mm"
     inkscape:current-layer="layer1"
     showgrid="false"
     fit-margin-top="0"
     fit-margin-left="0"
     fit-margin-right="0"
     fit-margin-bottom="0"
     inkscape:window-width="1920"
     inkscape:window-height="1027"
     inkscape:window-x="-8"
     inkscape:window-y="-8"
     inkscape:window-maximized="1" />
  <metadata
     id="metadata5">
    <rdf:RDF>
      <cc:Work
         rdf:about="">
        <dc:format>image/svg+xml</dc:format>
        <dc:type
           rdf:resource="http://purl.org/dc/dcmitype/StillImage" />
        <dc:title></dc:title>
      </cc:Work>
    </rdf:RDF>
  </metadata>
  <g
     inkscape:label="Layer 1"
     inkscape:groupmode="layer"
     id="layer1"
     transform="translate(127.63966,-95.706124)">
    <path
       inkscape:connector-curvature="0"
       style="fill:#ffffff;fill-opacity:1;fill-rule:evenodd;stroke:none;stroke-width:0.26458332"
       d="m -112.88204,107.58592 c 0.13059,0.2374 0.13749,0.53515 -0.008,0.78703 -0.14559,0.25165 -0.40726,0.3947 -0.67845,0.40017 v 0 h -13.2853 v 0 c -0.27119,-0.005 -0.53286,-0.14852 -0.67844,-0.40017 -0.14535,-0.25188 -0.13845,-0.54963 -0.008,-0.78703 v 0 l 6.64242,-11.492936 v 0 c 0.14035,-0.23193 0.39536,-0.38686 0.68629,-0.38686 0.29093,0 0.54594,0.15493 0.68629,0.38686 v 0 z"
       id="path999"
       sodipodi:nodetypes="cccccccccccsccc" />
    <path
       id="path983"
       d="m -118.85553,100.50552 4.8e-4,1.88179 v 0 c 0,1.22022 1.18561,1.29698 1.18561,2.77978 v 0 2.07879 h -1.17039 v -1.82001 0 c 0,-1.18838 -1.18823,-1.35734 -1.18823,-2.9169 v 0 -2.00345 z"
       style="fill:#1d1d1b;fill-opacity:1;fill-rule:evenodd;stroke:none;stroke-width:0.26458332"
       inkscape:connector-curvature="0" />
    <path
       id="path985"
       d="m -121.55812,107.24588 v -6.74036 h 1.16967 v 6.74036 z"
       style="fill:#1d1d1b;fill-opacity:1;fill-rule:evenodd;stroke:none;stroke-width:0.26458332"
       inkscape:connector-curvature="0" />
    <path
       id="path987"
       d="m -112.88204,107.58592 c 0.13059,0.2374 0.13749,0.53515 -0.008,0.78703 -0.14559,0.25165 -0.40726,0.3947 -0.67845,0.40017 v 0 h -13.2853 v 0 c -0.27119,-0.005 -0.53286,-0.14852 -0.67844,-0.40017 -0.14535,-0.25188 -0.13845,-0.54963 -0.008,-0.78703 v 0 l 6.64242,-11.492936 v 0 c 0.14035,-0.23193 0.39536,-0.38686 0.68629,-0.38686 0.29093,0 0.54594,0.15493 0.68629,0.38686 v 0 z m -1.34166,0.019 h -11.97457 l 5.98823,-10.360396 z"
       style="fill:#e02726;fill-opacity:1;fill-rule:evenodd;stroke:none;stroke-width:0.26458332"
       inkscape:connector-curvature="0" />
  </g>
</svg>
