<?xml version="1.0" encoding="UTF-8" standalone="no"?>
<!-- Created with Inkscape (http://www.inkscape.org/) -->

<svg
   xmlns:dc="http://purl.org/dc/elements/1.1/"
   xmlns:cc="http://creativecommons.org/ns#"
   xmlns:rdf="http://www.w3.org/1999/02/22-rdf-syntax-ns#"
   xmlns:svg="http://www.w3.org/2000/svg"
   xmlns="http://www.w3.org/2000/svg"
   xmlns:sodipodi="http://sodipodi.sourceforge.net/DTD/sodipodi-0.dtd"
   xmlns:inkscape="http://www.inkscape.org/namespaces/inkscape"
   width="14.857268mm"
   height="13.066998mm"
   viewBox="0 0 14.857269 13.066997"
   version="1.1"
   id="svg8"
   inkscape:version="0.92.2 (5c3e80d, 2017-08-06)">
  <defs
     id="defs2">
    <pattern
       y="0"
       x="0"
       height="6"
       width="6"
       patternUnits="userSpaceOnUse"
       id="EMFhbasepattern" />
    <pattern
       y="0"
       x="0"
       height="6"
       width="6"
       patternUnits="userSpaceOnUse"
       id="EMFhbasepattern-9" />
    <pattern
       y="0"
       x="0"
       height="6"
       width="6"
       patternUnits="userSpaceOnUse"
       id="EMFhbasepattern-91" />
    <pattern
       y="0"
       x="0"
       height="6"
       width="6"
       patternUnits="userSpaceOnUse"
       id="EMFhbasepattern-8" />
    <pattern
       y="0"
       x="0"
       height="6"
       width="6"
       patternUnits="userSpaceOnUse"
       id="EMFhbasepattern-2" />
    <pattern
       y="0"
       x="0"
       height="6"
       width="6"
       patternUnits="userSpaceOnUse"
       id="EMFhbasepattern-1" />
    <pattern
       y="0"
       x="0"
       height="6"
       width="6"
       patternUnits="userSpaceOnUse"
       id="EMFhbasepattern-93" />
  </defs>
  <sodipodi:namedview
     id="base"
     pagecolor="#ffffff"
     bordercolor="#666666"
     borderopacity="1.0"
     inkscape:pageopacity="0.0"
     inkscape:pageshadow="2"
     inkscape:zoom="5.6"
     inkscape:cx="32.645898"
     inkscape:cy="20.628012"
     inkscape:document-units="mm"
     inkscape:current-layer="layer1"
     showgrid="false"
     fit-margin-top="0"
     fit-margin-left="0"
     fit-margin-right="0"
     fit-margin-bottom="0"
     inkscape:window-width="1920"
     inkscape:window-height="1027"
     inkscape:window-x="-8"
     inkscape:window-y="-8"
     inkscape:window-maximized="1" />
  <metadata
     id="metadata5">
    <rdf:RDF>
      <cc:Work
         rdf:about="">
        <dc:format>image/svg+xml</dc:format>
        <dc:type
           rdf:resource="http://purl.org/dc/dcmitype/StillImage" />
        <dc:title></dc:title>
      </cc:Work>
    </rdf:RDF>
  </metadata>
  <g
     inkscape:label="Layer 1"
     inkscape:groupmode="layer"
     id="layer1"
     transform="translate(127.41427,-94.302122)">
    <path
       inkscape:connector-curvature="0"
       style="fill:#ffffff;fill-opacity:1;fill-rule:evenodd;stroke:none;stroke-width:0.26458332"
       d="m -112.65671,106.18193 c 0.13083,0.23739 0.13773,0.53514 -0.008,0.78703 -0.14535,0.25165 -0.40702,0.3947 -0.67845,0.40016 v 0 h -13.28506 v 0 c -0.27119,-0.005 -0.53286,-0.14851 -0.67845,-0.40016 -0.14558,-0.25189 -0.13868,-0.54964 -0.008,-0.78703 v 0 l 6.64266,-11.492947 v 0 c 0.14035,-0.231927 0.39512,-0.386861 0.68629,-0.386861 0.29093,0 0.5457,0.154934 0.68629,0.386861 v 0 z"
       id="path1039"
       sodipodi:nodetypes="cccccccccccsccc" />
    <path
       id="path1023"
       d="m -121.34255,99.101508 -4.7e-4,1.881792 v 0 c 0,1.22023 -1.18561,1.29698 -1.18561,2.77979 v 0 2.07878 h 1.17038 v -1.82 0 c 0,-1.18839 1.18823,-1.35734 1.18823,-2.9169 v 0 -2.003462 z"
       style="fill:#1d1d1b;fill-opacity:1;fill-rule:evenodd;stroke:none;stroke-width:0.26458332"
       inkscape:connector-curvature="0" />
    <path
       id="path1025"
       d="m -118.63995,105.84187 v -6.740362 h -1.16944 v 6.740362 z"
       style="fill:#1d1d1b;fill-opacity:1;fill-rule:evenodd;stroke:none;stroke-width:0.26458332"
       inkscape:connector-curvature="0" />
    <path
       id="path1027"
       d="m -113.99814,106.20093 h -11.97457 l 5.98824,-10.360406 z m 1.34143,-0.019 c 0.13083,0.23739 0.13773,0.53514 -0.008,0.78703 -0.14535,0.25165 -0.40702,0.3947 -0.67845,0.40016 v 0 h -13.28506 v 0 c -0.27119,-0.005 -0.53286,-0.14851 -0.67845,-0.40016 -0.14558,-0.25189 -0.13868,-0.54964 -0.008,-0.78703 v 0 l 6.64266,-11.492947 v 0 c 0.14035,-0.231927 0.39512,-0.386861 0.68629,-0.386861 0.29093,0 0.5457,0.154934 0.68629,0.386861 v 0 z"
       style="fill:#e02726;fill-opacity:1;fill-rule:evenodd;stroke:none;stroke-width:0.26458332"
       inkscape:connector-curvature="0" />
  </g>
</svg>
