<?xml version="1.0" encoding="UTF-8" standalone="no"?>
<!-- Created with Inkscape (http://www.inkscape.org/) -->

<svg
   xmlns:dc="http://purl.org/dc/elements/1.1/"
   xmlns:cc="http://creativecommons.org/ns#"
   xmlns:rdf="http://www.w3.org/1999/02/22-rdf-syntax-ns#"
   xmlns:svg="http://www.w3.org/2000/svg"
   xmlns="http://www.w3.org/2000/svg"
   xmlns:sodipodi="http://sodipodi.sourceforge.net/DTD/sodipodi-0.dtd"
   xmlns:inkscape="http://www.inkscape.org/namespaces/inkscape"
   width="14.857268mm"
   height="13.067mm"
   viewBox="0 0 14.857269 13.067001"
   version="1.1"
   id="svg8"
   inkscape:version="0.92.2 (5c3e80d, 2017-08-06)"
   sodipodi:docname="166.svg">
  <defs
     id="defs2">
    <pattern
       y="0"
       x="0"
       height="6"
       width="6"
       patternUnits="userSpaceOnUse"
       id="EMFhbasepattern" />
    <pattern
       y="0"
       x="0"
       height="6"
       width="6"
       patternUnits="userSpaceOnUse"
       id="EMFhbasepattern-2" />
    <pattern
       y="0"
       x="0"
       height="6"
       width="6"
       patternUnits="userSpaceOnUse"
       id="EMFhbasepattern-7" />
    <pattern
       y="0"
       x="0"
       height="6"
       width="6"
       patternUnits="userSpaceOnUse"
       id="EMFhbasepattern-3" />
    <pattern
       y="0"
       x="0"
       height="6"
       width="6"
       patternUnits="userSpaceOnUse"
       id="EMFhbasepattern-5" />
    <pattern
       y="0"
       x="0"
       height="6"
       width="6"
       patternUnits="userSpaceOnUse"
       id="EMFhbasepattern-28" />
  </defs>
  <sodipodi:namedview
     id="base"
     pagecolor="#ffffff"
     bordercolor="#666666"
     borderopacity="1.0"
     inkscape:pageopacity="0.0"
     inkscape:pageshadow="2"
     inkscape:zoom="5.6"
     inkscape:cx="-50.493134"
     inkscape:cy="34.069662"
     inkscape:document-units="mm"
     inkscape:current-layer="layer1"
     showgrid="false"
     fit-margin-top="0"
     fit-margin-left="0"
     fit-margin-right="0"
     fit-margin-bottom="0"
     inkscape:window-width="1920"
     inkscape:window-height="1027"
     inkscape:window-x="-8"
     inkscape:window-y="-8"
     inkscape:window-maximized="1" />
  <metadata
     id="metadata5">
    <rdf:RDF>
      <cc:Work
         rdf:about="">
        <dc:format>image/svg+xml</dc:format>
        <dc:type
           rdf:resource="http://purl.org/dc/dcmitype/StillImage" />
        <dc:title />
      </cc:Work>
    </rdf:RDF>
  </metadata>
  <g
     inkscape:label="Layer 1"
     inkscape:groupmode="layer"
     id="layer1"
     transform="translate(-148.91596,-199.53471)">
    <path
       style="fill:#ffffff;fill-opacity:1;fill-rule:evenodd;stroke:none;stroke-width:0.26458332"
       d="m 162.33186,211.43331 h -11.97457 l 5.98847,-10.36017 z"
       id="path820" />
    <path
       id="path913"
       d="m 153.6415,209.81669 h 5.39781 v 0.53895 h 1.89355 v 0.44935 h -9.17634 v -0.44935 h 1.88498 z"
       style="fill:#1d1d1b;fill-opacity:1;fill-rule:evenodd;stroke:none;stroke-width:0.26458332"
       inkscape:connector-curvature="0" />
    <path
       id="path915"
       d="m 163.67352,211.41451 c 0.13083,0.2374 0.13773,0.53515 -0.008,0.78679 -0.14559,0.25189 -0.40726,0.39494 -0.67845,0.40041 v 0 h -13.28506 v 0 c -0.27119,-0.005 -0.5331,-0.14852 -0.67845,-0.40041 -0.14558,-0.25164 -0.13868,-0.54939 -0.008,-0.78679 v 0 l 6.64266,-11.49318 v 0 c 0.14035,-0.23169 0.39512,-0.38662 0.68605,-0.38662 0.29117,0 0.54594,0.15493 0.68629,0.38662 v 0 z m -1.34166,0.0188 h -11.97457 l 5.98847,-10.36017 z"
       style="fill:#e02726;fill-opacity:1;fill-rule:evenodd;stroke:none;stroke-width:0.26458332"
       inkscape:connector-curvature="0" />
  </g>
</svg>
