<?xml version="1.0" encoding="UTF-8" standalone="no"?>
<!-- Created with Inkscape (http://www.inkscape.org/) -->

<svg
   xmlns:dc="http://purl.org/dc/elements/1.1/"
   xmlns:cc="http://creativecommons.org/ns#"
   xmlns:rdf="http://www.w3.org/1999/02/22-rdf-syntax-ns#"
   xmlns:svg="http://www.w3.org/2000/svg"
   xmlns="http://www.w3.org/2000/svg"
   xmlns:sodipodi="http://sodipodi.sourceforge.net/DTD/sodipodi-0.dtd"
   xmlns:inkscape="http://www.inkscape.org/namespaces/inkscape"
   width="14.856909mm"
   height="13.066998mm"
   viewBox="0 0 14.856909 13.066997"
   version="1.1"
   id="svg8"
   inkscape:version="0.92.2 (5c3e80d, 2017-08-06)">
  <defs
     id="defs2">
    <pattern
       y="0"
       x="0"
       height="6"
       width="6"
       patternUnits="userSpaceOnUse"
       id="EMFhbasepattern" />
    <pattern
       y="0"
       x="0"
       height="6"
       width="6"
       patternUnits="userSpaceOnUse"
       id="EMFhbasepattern-9" />
    <pattern
       y="0"
       x="0"
       height="6"
       width="6"
       patternUnits="userSpaceOnUse"
       id="EMFhbasepattern-91" />
    <pattern
       y="0"
       x="0"
       height="6"
       width="6"
       patternUnits="userSpaceOnUse"
       id="EMFhbasepattern-8" />
    <pattern
       y="0"
       x="0"
       height="6"
       width="6"
       patternUnits="userSpaceOnUse"
       id="EMFhbasepattern-2" />
    <pattern
       y="0"
       x="0"
       height="6"
       width="6"
       patternUnits="userSpaceOnUse"
       id="EMFhbasepattern-1" />
    <pattern
       y="0"
       x="0"
       height="6"
       width="6"
       patternUnits="userSpaceOnUse"
       id="EMFhbasepattern-93" />
    <pattern
       y="0"
       x="0"
       height="6"
       width="6"
       patternUnits="userSpaceOnUse"
       id="EMFhbasepattern-3" />
    <pattern
       y="0"
       x="0"
       height="6"
       width="6"
       patternUnits="userSpaceOnUse"
       id="EMFhbasepattern-6" />
    <pattern
       y="0"
       x="0"
       height="6"
       width="6"
       patternUnits="userSpaceOnUse"
       id="EMFhbasepattern-0" />
  </defs>
  <sodipodi:namedview
     id="base"
     pagecolor="#ffffff"
     bordercolor="#666666"
     borderopacity="1.0"
     inkscape:pageopacity="0.0"
     inkscape:pageshadow="2"
     inkscape:zoom="5.6"
     inkscape:cx="82.72723"
     inkscape:cy="-0.34205119"
     inkscape:document-units="mm"
     inkscape:current-layer="layer1"
     showgrid="false"
     fit-margin-top="0"
     fit-margin-left="0"
     fit-margin-right="0"
     fit-margin-bottom="0"
     inkscape:window-width="1920"
     inkscape:window-height="1027"
     inkscape:window-x="-8"
     inkscape:window-y="-8"
     inkscape:window-maximized="1" />
  <metadata
     id="metadata5">
    <rdf:RDF>
      <cc:Work
         rdf:about="">
        <dc:format>image/svg+xml</dc:format>
        <dc:type
           rdf:resource="http://purl.org/dc/dcmitype/StillImage" />
        <dc:title></dc:title>
      </cc:Work>
    </rdf:RDF>
  </metadata>
  <g
     inkscape:label="Layer 1"
     inkscape:groupmode="layer"
     id="layer1"
     transform="translate(140.66496,-88.753792)">
    <path
       style="fill:#ffffff;fill-opacity:1;fill-rule:evenodd;stroke:none;stroke-width:0.26458332"
       d="m -125.90758,100.6336 c 0.13059,0.23739 0.13749,0.53514 -0.008,0.78679 -0.14558,0.25189 -0.40725,0.39494 -0.67843,0.4004 v 0 h -13.2851 v 0 c -0.27118,-0.005 -0.53285,-0.14851 -0.67843,-0.4004 -0.14534,-0.25165 -0.13844,-0.5494 -0.008,-0.78679 v 0 l 6.64255,-11.493185 v 0 c 0.14035,-0.231689 0.39535,-0.386623 0.68628,-0.386623 0.29093,0 0.5457,0.154934 0.68628,0.386623 v 0 z"
       id="path1101" />
    <path
       id="path1084"
       d="m -134.30996,94.747988 c -0.14082,0.20389 -0.27285,0.66156 -0.28998,0.78109 0.0423,0.1048 0.039,0.55154 0.16105,0.74354 0.0402,-0.14067 0.12798,-0.57126 0.30591,-0.74354 -0.18316,-0.437 -0.20909,-0.57435 -0.17698,-0.78109 z m 1.3973,0.94767 c -0.029,-0.0744 -0.24858,-0.79772 -0.33969,-0.94767 0.0228,0.18345 -0.0397,0.27114 -0.19958,0.78109 0.28784,0.16302 0.7184,1.93193 0.77739,2.26889 -0.30591,0.0803 -0.55164,0.10883 -0.55164,0.10883 0.0509,0.54702 -0.14202,0.94553 -0.15201,1.41603 -0.006,0.0402 0.0745,0.22718 0.0514,0.29015 -0.0231,0.0632 -0.14987,0.0981 -0.17556,0.1067 -0.0588,0.0197 -0.14273,-0.0877 -0.15438,-0.14496 -0.0114,-0.0575 0.0507,-0.21814 0.0678,-0.39042 0.0381,-0.37736 -0.10086,-0.80937 -0.035,-1.23544 0,0 -0.007,-0.0105 -0.15533,-0.0126 0.0214,0.12095 0.0226,0.46385 -0.0692,1.2927 -0.0445,0.40207 0.0697,0.5292 0.0236,0.58647 -0.0461,0.0575 -0.063,0.14329 -0.14011,0.11359 -0.0433,-0.0169 -0.17651,-0.0561 -0.16509,-0.17086 0.0117,-0.11477 0.0752,-0.18773 0.0633,-0.22955 -0.0171,-0.51304 -0.24525,-1.09096 -0.13749,-1.6078 -0.16866,-0.0202 -0.46934,-0.0739 -0.53523,-0.11287 0,-0.12832 0.059,-0.70077 0.17912,-1.17389 -0.21147,-0.50948 -0.24787,-0.67701 -0.34611,-1.0824 0.0276,-0.19581 0.27856,-1.027275 0.31614,-1.192665 0.0576,-0.252362 0.42343,-0.311294 0.51596,-0.338622 0.17722,-0.05228 -0.17103,-0.03398 -0.25096,-0.230025 0.16699,0.0021 0.10681,-0.319374 0.10776,-0.417277 9.5e-4,-0.09767 0.0933,-0.441278 0.41224,-0.440803 0.31924,7.13e-4 0.41296,0.347177 0.41272,0.440328 -4.7e-4,0.0777 -0.0752,0.420128 0.0985,0.422029 -0.0871,0.190104 -0.43961,0.188203 -0.28284,0.225748 0.18507,0.04396 0.466,0.0499 0.58875,0.360009 0.0343,0.0385 0.16699,0.734038 0.16699,0.734038 0,0 0.0687,0.34456 0.20125,0.4995 0.13249,0.15493 0.14415,0.93293 0.16699,0.97309 0.0231,0.0402 0.0687,0.15374 0.0687,0.15374 0,0 0.0738,0.14282 -0.007,0.18298 -0.0806,0.0402 0.2562,0.30583 0.30211,0.38044 0.14225,-0.0349 0.38489,-0.39422 0.43865,-0.39731 0.17674,-0.01 0.28617,0.044 0.18317,-0.0288 -0.13322,-0.0941 -0.1099,-0.13925 -0.0949,-0.24499 0.0198,-0.13854 0.002,-0.31486 0.24074,-0.31225 0.30044,0.003 0.38322,0.31653 0.0959,0.54869 -0.0297,0.0242 -0.0459,0.0546 -0.008,0.0589 0.0773,0.009 0.21957,0.0718 0.21957,0.0718 0.11608,0.0613 0.27689,0.59953 0.33279,0.85594 0.0269,0.12309 -0.0293,0.43866 -0.0293,0.43866 0,0 -0.005,0.21814 -0.0228,0.24119 -0.0174,0.0228 -0.10728,0.076 -0.13035,0.053 -0.0231,-0.023 0.0423,-0.12831 0.0338,-0.21362 -0.003,-0.0292 -0.0128,-0.3536 -0.004,-0.47835 -0.0538,-0.15684 -0.21243,-0.47954 -0.21243,-0.47954 -0.0645,0.42274 0.0561,0.62972 -0.0207,2.1054 0.0278,0.0478 0.0623,0.12404 0.0749,0.16064 -0.014,0.0551 -0.10776,0.12665 -0.15962,0.144 -0.0704,-0.0223 -0.1451,-0.10171 -0.15652,-0.13592 0.002,-0.0452 0.0569,-0.17134 0.0569,-0.17134 0,0 -0.007,-0.39327 -0.0114,-0.43913 -0.008,-0.0836 -0.0718,-0.49214 -0.0999,-0.53705 -0.0288,0.0478 -0.10062,0.27399 -0.16508,0.46813 0.004,0.13997 0.009,0.54536 0.0383,0.62806 0.0181,0.0433 0.0635,0.18749 0.0426,0.23264 -0.0167,0.0352 -0.088,0.0703 -0.13084,0.0694 -0.045,-10e-4 -0.18769,-0.063 -0.18602,-0.0981 0.002,-0.0387 0.0269,-0.12356 0.0944,-0.2122 -0.20125,-0.72857 -0.16676,-0.68437 0.0247,-1.70261 -0.008,-0.33625 -0.0423,-0.63946 -0.0423,-0.63946 -0.15271,0.13521 -0.44531,0.24784 -0.44531,0.24784 -0.17983,-0.0896 -0.37442,-0.44769 -0.37442,-0.44769 0.006,-0.0345 -0.039,-0.0259 -0.0795,-0.10622 -0.0402,-0.0803 0.0129,-0.18773 0.0171,-0.30298 -0.0733,-0.3101 -0.29997,-0.71978 -0.34398,-0.98521 z"
       style="fill:#1d1d1b;fill-opacity:1;fill-rule:evenodd;stroke:none;stroke-width:0.26458332"
       inkscape:connector-curvature="0" />
    <path
       id="path1086"
       d="m -125.90758,100.6336 c 0.13059,0.23739 0.13749,0.53514 -0.008,0.78679 -0.14558,0.25189 -0.40725,0.39494 -0.67843,0.4004 v 0 h -13.2851 v 0 c -0.27118,-0.005 -0.53285,-0.14851 -0.67843,-0.4004 -0.14534,-0.25165 -0.13844,-0.5494 -0.008,-0.78679 v 0 l 6.64255,-11.493185 v 0 c 0.14035,-0.231689 0.39535,-0.386623 0.68628,-0.386623 0.29093,0 0.5457,0.154934 0.68628,0.386623 v 0 z m -1.34164,0.0188 h -11.97438 l 5.98838,-10.360166 z"
       style="fill:#e02726;fill-opacity:1;fill-rule:evenodd;stroke:none;stroke-width:0.26458332"
       inkscape:connector-curvature="0" />
  </g>
</svg>
