<?xml version="1.0" encoding="UTF-8" standalone="no"?>
<svg
   xmlns:dc="http://purl.org/dc/elements/1.1/"
   xmlns:cc="http://creativecommons.org/ns#"
   xmlns:rdf="http://www.w3.org/1999/02/22-rdf-syntax-ns#"
   xmlns:svg="http://www.w3.org/2000/svg"
   xmlns="http://www.w3.org/2000/svg"
   xmlns:sodipodi="http://sodipodi.sourceforge.net/DTD/sodipodi-0.dtd"
   xmlns:inkscape="http://www.inkscape.org/namespaces/inkscape"
   width="14.856947mm"
   height="13.10615mm"
   viewBox="0 0 14.856947 13.10615"
   version="1.1"
   id="svg8"
   inkscape:version="1.0.1 (3bc2e813f5, 2020-09-07)">
  <defs
     id="defs2">
    <pattern
       id="EMFhbasepattern"
       patternUnits="userSpaceOnUse"
       width="6"
       height="6"
       x="0"
       y="0" />
    <pattern
       id="EMFhbasepattern-5"
       patternUnits="userSpaceOnUse"
       width="6"
       height="6"
       x="0"
       y="0" />
  </defs>
  <sodipodi:namedview
     id="base"
     pagecolor="#ffffff"
     bordercolor="#666666"
     borderopacity="1.0"
     inkscape:pageopacity="0.0"
     inkscape:pageshadow="2"
     inkscape:zoom="7.9195959"
     inkscape:cx="12.236155"
     inkscape:cy="11.955745"
     inkscape:document-units="mm"
     inkscape:current-layer="layer1"
     inkscape:document-rotation="0"
     showgrid="false"
     fit-margin-top="0"
     fit-margin-left="0"
     fit-margin-right="0"
     fit-margin-bottom="0"
     inkscape:window-width="1920"
     inkscape:window-height="1027"
     inkscape:window-x="-8"
     inkscape:window-y="-8"
     inkscape:window-maximized="1" />
  <metadata
     id="metadata5">
    <rdf:RDF>
      <cc:Work
         rdf:about="">
        <dc:format>image/svg+xml</dc:format>
        <dc:type
           rdf:resource="http://purl.org/dc/dcmitype/StillImage" />
        <dc:title></dc:title>
      </cc:Work>
    </rdf:RDF>
  </metadata>
  <g
     inkscape:label="Layer 1"
     inkscape:groupmode="layer"
     id="layer1"
     transform="translate(-91.015957,-43.105555)">
    <path
       style="fill:#ffffff;fill-opacity:1;fill-rule:evenodd;stroke:none;stroke-width:0.264583"
       d="m 105.77337,55.020952 c 0.1306,0.238103 0.13749,0.536745 -0.008,0.789148 -0.14559,0.252642 -0.40726,0.396124 -0.67845,0.401605 v 0 H 91.801773 v 0 c -0.271186,-0.0055 -0.532858,-0.148963 -0.678443,-0.401605 -0.145346,-0.252403 -0.138448,-0.551045 -0.0076,-0.789148 v 0 l 6.642415,-11.527616 v 0 c 0.140589,-0.232382 0.395362,-0.387781 0.686293,-0.387781 0.290931,0 0.545942,0.155399 0.686293,0.387781 v 0 z"
       id="path886"
       sodipodi:nodetypes="ccsccscsccssscc" />
    <path
       style="fill:#1d1d1b;fill-opacity:1;fill-rule:evenodd;stroke:none;stroke-width:0.264583"
       d="m 96.554919,50.182385 c -0.0059,0.06554 -0.03878,0.180663 -0.06018,0.286963 -0.02117,0.106539 0.01261,0.148487 0.04948,0.127751 0.159382,-0.09033 0.965807,0.361564 1.061436,0.414714 0.09539,0.05315 0.201725,0.739096 0.196253,0.776278 -0.0052,0.03718 0.127506,0.1666 0.116801,0.25002 -0.01047,0.08342 -0.111329,0.201875 -0.143206,0.201875 -0.04948,0.0088 -0.15391,-0.117026 -0.185787,-0.159451 -0.03188,-0.04242 0.02664,-0.164693 0.03711,-0.212838 0.01071,-0.04767 -0.148439,-0.510289 -0.175082,-0.584652 -0.02664,-0.0746 -0.47767,-0.191388 -0.47767,-0.191388 0,0 0.387512,0.868754 0.419389,0.943117 0.03188,0.0746 -0.02141,0.226424 -0.02141,0.2903 0,0.06387 0.13488,0.69119 0.193161,0.723127 0.05828,0.0317 0.900151,-0.276476 0.900151,-0.276476 v 0 l 0.144871,0.286725 v 0 c 0,0 0.01427,-0.696195 0.01974,-0.79177 0.0052,-0.09581 0.976273,-0.850878 0.976273,-0.914516 0,-0.06388 -0.461494,-0.733853 -0.461494,-0.733853 0,0 -0.122272,0.63804 -0.297354,0.63804 -0.159144,0 -0.838538,-0.334869 -0.891586,-0.366807 -0.05305,-0.03194 -0.159144,0.04791 -0.254773,-0.01597 -0.09539,-0.06388 -0.122034,-0.218082 -0.127268,-0.30317 -0.0052,-0.08509 0.169849,-0.116787 0.262385,-0.1063 0.0923,0.01073 0.172704,0.170175 0.172704,0.170175 0,0 0.621113,0.260508 0.647518,0.234052 0.01189,-0.01192 0.06589,-0.261461 0.08492,-0.452134 -0.0052,-0.132756 0.01118,-0.423771 0.0052,-0.467864 -0.01047,-0.07984 0.143206,-0.223326 0.212192,-0.308414 0.06899,-0.08509 -0.01285,-0.160403 -0.06351,-0.127512 -0.16414,0.106538 -0.257152,0.03361 -0.307821,-0.04505 -0.169373,-0.263367 -0.20339,-0.587511 -0.115849,-0.817749 0.113708,-0.299357 0.787155,-0.436879 0.904908,-0.02979 0.107523,0.371812 -0.06328,0.553666 -0.06637,0.746485 -0.01,0.04004 0.02664,0.0777 0.05067,0.0715 0.222897,-0.03718 1.115909,0.40947 1.195369,0.505284 0.0797,0.09557 0.28664,0.887821 0.29735,0.946453 0.0105,0.05839 0.13512,0.110829 0.14321,0.217844 0.0159,0.212839 -0.19103,0.308414 -0.19103,0.308414 0,0 -0.16461,-0.07961 -0.21766,-0.164694 -0.053,-0.08509 0.005,-0.25002 0.005,-0.25002 0,0 -0.2424,-0.664734 -0.30068,-0.755304 -0.0585,-0.07269 -0.26524,-0.100818 -0.419154,-0.164694 0.09325,0.248114 0.597804,1.170018 0.624444,1.207199 0.0264,0.03718 0.0212,0.186145 0.0107,0.276476 -0.0107,0.09033 0.42105,0.829428 0.45245,0.850402 0.0676,0.04528 1.04907,-0.655677 1.04907,-0.655677 v 0 l 0.15938,0.251927 0.0155,0.05696 c 0.0911,0.05959 0.18151,0.207595 0.25002,0.331056 0.19101,0.345833 -0.005,0.308414 -0.005,0.308414 0,0 -0.23884,-0.191388 -0.31829,-0.28172 -0.0797,-0.09033 -0.14868,-0.01073 -0.14868,-0.01073 v 0 l 0.0583,0.170176 v 0 c -0.29712,0.05315 -1.10378,0.472869 -1.23105,0.472869 -0.1275,0 -0.847336,-0.999127 -0.847336,-0.999127 0,0 -0.649183,0.419958 -0.68106,0.505045 -0.01499,0.04052 0.009,0.427346 0.0074,0.834195 -0.0019,0.449273 -0.01951,0.920474 -0.01951,0.920474 v 0 h -0.312816 c -0.04924,-0.04528 -0.146061,0 -0.30116,0 -0.185787,0 -0.403451,-0.03885 -0.403451,-0.111782 0,-0.07269 0.210289,-0.141098 0.376808,-0.2126 0.260006,-0.111544 0.180553,-0.17542 0.180553,-0.17542 v 0 h -0.206959 v 0 c 0,0 0.01047,-0.19687 0.01047,-0.281957 -0.05305,-0.03718 -0.265239,-0.265751 -0.265239,-0.265751 v 0 l -0.01594,0.132994 v 0 c 0,0 -0.933929,0.138238 -1.066668,0.04242 -0.132739,-0.09557 -0.355636,-0.770796 -0.355636,-0.770796 0,0 -0.437467,0.254549 -0.429617,0.372051 0.04044,0.59204 0.0264,1.231986 0.0264,1.231986 v 0 h -0.302588 l -0.03735,-0.02931 v 0 c 0,0 -0.12584,0.03098 -0.275707,0.03098 -0.149866,0 -0.249302,-0.03051 -0.249302,-0.08509 0,-0.05458 0.18888,-0.151347 0.366103,-0.164932 0.177223,-0.01359 0.132501,-0.159212 0.132501,-0.159212 v 0 l -0.190545,-0.041 v 0 c 0,0 0.01403,-0.817511 0.06851,-0.967666 0.05471,-0.150393 0.67987,-0.725272 0.67987,-0.807262 0,-0.08199 -0.309486,-0.500993 -0.309486,-0.500993 0,0 -0.194588,0.610392 -0.317336,0.528403 -0.09682,-0.06459 -0.53048,-0.280051 -0.748143,-0.460953 -0.06161,-0.03146 -0.170325,-0.0224 -0.19102,-0.03718 -0.03711,-0.02646 -0.130123,-0.20545 -0.05305,-0.308413 0.06375,-0.08509 0.204579,-0.07293 0.254772,-0.02646 0.09158,0.08485 0.0521,0.157543 0.100863,0.191388 0.16747,0.117025 0.573061,0.297688 0.573061,0.297688 0,0 0.06351,-0.625408 0.07707,-0.720983 0.0138,-0.09557 0.06827,-0.122984 0.149866,-0.191149 0.08183,-0.0684 0.04092,-0.218559 -0.05447,-0.163979 -0.09539,0.05482 -0.161998,0.05935 -0.216474,-0.0088 -0.05447,-0.06817 -0.180077,-0.301263 -0.140113,-0.541034 0.08159,-0.490983 0.801429,-0.468579 0.751949,0.06816 z"
       id="path869" />
    <path
       style="fill:#e02726;fill-opacity:1;fill-rule:evenodd;stroke:none;stroke-width:0.264583"
       d="m 105.77337,55.020952 c 0.1306,0.238103 0.13749,0.536745 -0.008,0.789148 -0.14559,0.252642 -0.40726,0.396124 -0.67845,0.401605 v 0 H 91.801773 v 0 c -0.271186,-0.0055 -0.532858,-0.148963 -0.678443,-0.401605 -0.145346,-0.252403 -0.138448,-0.551045 -0.0076,-0.789148 v 0 l 6.642415,-11.527616 v 0 c 0.140589,-0.232382 0.395362,-0.387781 0.686293,-0.387781 0.290931,0 0.545942,0.155399 0.686293,0.387781 v 0 z m -1.34166,0.01883 H 92.457142 l 5.988474,-10.391204 z"
       id="path871" />
  </g>
</svg>
