<?xml version="1.0" encoding="UTF-8" standalone="no"?>
<!-- Created with Inkscape (http://www.inkscape.org/) -->

<svg
   xmlns:dc="http://purl.org/dc/elements/1.1/"
   xmlns:cc="http://creativecommons.org/ns#"
   xmlns:rdf="http://www.w3.org/1999/02/22-rdf-syntax-ns#"
   xmlns:svg="http://www.w3.org/2000/svg"
   xmlns="http://www.w3.org/2000/svg"
   xmlns:sodipodi="http://sodipodi.sourceforge.net/DTD/sodipodi-0.dtd"
   xmlns:inkscape="http://www.inkscape.org/namespaces/inkscape"
   width="17.183996mm"
   height="17.183996mm"
   viewBox="0 0 17.183997 17.183997"
   version="1.1"
   id="svg8"
   inkscape:version="0.92.2 (5c3e80d, 2017-08-06)"
   sodipodi:docname="222.svg">
  <defs
     id="defs2">
    <pattern
       y="0"
       x="0"
       height="6"
       width="6"
       patternUnits="userSpaceOnUse"
       id="EMFhbasepattern" />
    <pattern
       y="0"
       x="0"
       height="6"
       width="6"
       patternUnits="userSpaceOnUse"
       id="EMFhbasepattern-2" />
    <pattern
       y="0"
       x="0"
       height="6"
       width="6"
       patternUnits="userSpaceOnUse"
       id="EMFhbasepattern-7" />
    <pattern
       y="0"
       x="0"
       height="6"
       width="6"
       patternUnits="userSpaceOnUse"
       id="EMFhbasepattern-3" />
    <pattern
       y="0"
       x="0"
       height="6"
       width="6"
       patternUnits="userSpaceOnUse"
       id="EMFhbasepattern-5" />
    <pattern
       y="0"
       x="0"
       height="6"
       width="6"
       patternUnits="userSpaceOnUse"
       id="EMFhbasepattern-28" />
    <pattern
       y="0"
       x="0"
       height="6"
       width="6"
       patternUnits="userSpaceOnUse"
       id="EMFhbasepattern-56" />
    <pattern
       y="0"
       x="0"
       height="6"
       width="6"
       patternUnits="userSpaceOnUse"
       id="EMFhbasepattern-1" />
  </defs>
  <sodipodi:namedview
     id="base"
     pagecolor="#ffffff"
     bordercolor="#666666"
     borderopacity="1.0"
     inkscape:pageopacity="0.0"
     inkscape:pageshadow="2"
     inkscape:zoom="5.6"
     inkscape:cx="-18.053995"
     inkscape:cy="46.16142"
     inkscape:document-units="mm"
     inkscape:current-layer="layer1"
     showgrid="false"
     fit-margin-top="0"
     fit-margin-left="0"
     fit-margin-right="0"
     fit-margin-bottom="0"
     inkscape:window-width="1920"
     inkscape:window-height="1027"
     inkscape:window-x="-8"
     inkscape:window-y="-8"
     inkscape:window-maximized="1" />
  <metadata
     id="metadata5">
    <rdf:RDF>
      <cc:Work
         rdf:about="">
        <dc:format>image/svg+xml</dc:format>
        <dc:type
           rdf:resource="http://purl.org/dc/dcmitype/StillImage" />
        <dc:title />
      </cc:Work>
    </rdf:RDF>
  </metadata>
  <g
     inkscape:label="Layer 1"
     inkscape:groupmode="layer"
     id="layer1"
     transform="translate(-140.3331,-198.61699)">
    <path
       style="fill:#ffffff;stroke:none;stroke-width:0.05179587px;stroke-linecap:butt;stroke-linejoin:miter;stroke-miterlimit:4;stroke-dasharray:none;stroke-opacity:1;fill-opacity:1"
       d="m 145.37696,198.64289 h 7.09652 l 5.01772,5.01789 v 7.09642 l -5.01772,5.01789 h -7.09652 L 140.359,210.7572 v -7.09642 z"
       id="path824" />
    <path
       id="path942"
       d="m 145.37696,198.64289 h 7.09652 l 5.01772,5.01789 v 7.09642 l -5.01772,5.01789 h -7.09652 L 140.359,210.7572 v -7.09642 z"
       style="fill:none;stroke:#231f20;stroke-width:0.05179587px;stroke-linecap:butt;stroke-linejoin:miter;stroke-miterlimit:4;stroke-dasharray:none;stroke-opacity:1"
       inkscape:connector-curvature="0" />
    <path
       id="path944"
       d="m 145.6134,199.21407 h 6.6234 l 4.68345,4.68339 v 6.62306 l -4.68345,4.68339 h -6.6234 l -4.68345,-4.68339 v -6.62306 z"
       style="fill:#ed1c24;fill-opacity:1;fill-rule:evenodd;stroke:none;stroke-width:0.26458332"
       inkscape:connector-curvature="0" />
    <path
       id="path946"
       d="m 145.6134,199.21407 h 6.6234 l 4.68345,4.68339 v 6.62306 l -4.68345,4.68339 h -6.6234 l -4.68345,-4.68339 v -6.62306 z"
       style="fill:none;stroke:#231f20;stroke-width:0.05179587px;stroke-linecap:butt;stroke-linejoin:miter;stroke-miterlimit:4;stroke-dasharray:none;stroke-opacity:1"
       inkscape:connector-curvature="0" />
    <path
       id="path948"
       d="m 141.23018,208.07152 0.79947,-0.0954 c 0.0897,0.63233 0.38464,0.94885 0.88437,0.94885 0.24651,0 0.44123,-0.0645 0.58294,-0.19447 0.14268,-0.12901 0.21294,-0.28919 0.21294,-0.4803 0,-0.11294 -0.0242,-0.20862 -0.0736,-0.28679 -0.0496,-0.0796 -0.12566,-0.14388 -0.22709,-0.19471 -0.10119,-0.0506 -0.34531,-0.13477 -0.73473,-0.25442 -0.34891,-0.10599 -0.60453,-0.21989 -0.76591,-0.34435 -0.16234,-0.12325 -0.29135,-0.28559 -0.38679,-0.48725 -0.0957,-0.20143 -0.14292,-0.41796 -0.14292,-0.6496 0,-0.26953 0.0611,-0.51244 0.1832,-0.72897 0.12326,-0.21533 0.29231,-0.37887 0.50789,-0.48942 0.21654,-0.10934 0.48247,-0.16473 0.80044,-0.16473 0.47671,0 0.84864,0.129 1.11601,0.38798 0.26833,0.25802 0.41005,0.62898 0.42492,1.11048 l -0.81891,0.0436 c -0.0369,-0.26593 -0.1139,-0.45153 -0.2338,-0.55752 -0.11846,-0.10479 -0.28895,-0.15778 -0.50908,-0.15778 -0.2199,0 -0.39039,0.0463 -0.50885,0.13836 -0.1199,0.0921 -0.17985,0.20598 -0.17985,0.34434 0,0.13477 0.0542,0.24747 0.16234,0.33979 0.10839,0.0933 0.35706,0.19351 0.74529,0.30405 0.41221,0.11966 0.70932,0.24531 0.89252,0.37648 0.1832,0.1314 0.32372,0.3019 0.42036,0.50908 0.0969,0.20838 0.14508,0.46064 0.14508,0.75774 0,0.42971 -0.13237,0.79012 -0.39614,1.08266 -0.26498,0.29255 -0.67839,0.43882 -1.24047,0.43882 -0.99395,0 -1.54788,-0.56543 -1.65962,-1.69653 z m 5.04122,1.60901 v -4.10932 h -1.20473 v -0.83712 h 3.22261 v 0.83712 h -1.20113 v 4.10932 z m 2.52817,-2.44276 c 0,-0.58965 0.0866,-1.07451 0.26161,-1.45578 0.17386,-0.38103 0.4019,-0.66567 0.68294,-0.85223 0.28104,-0.18655 0.62179,-0.27983 1.02273,-0.27983 0.58055,0 1.0527,0.22108 1.41887,0.66446 0.36521,0.44338 0.54818,1.07451 0.54818,1.8934 0,0.82704 -0.19352,1.47424 -0.58031,1.93944 -0.33979,0.41244 -0.80068,0.61747 -1.38338,0.61747 -0.58726,0 -1.05031,-0.20383 -1.3901,-0.61051 -0.38703,-0.4652 -0.58054,-1.10449 -0.58054,-1.91642 z m 0.84312,-0.0333 c 0,0.56903 0.10839,0.99514 0.32372,1.27954 0.21654,0.28439 0.48367,0.42731 0.8038,0.42731 0.32132,0 0.5875,-0.14172 0.79948,-0.42396 0.21174,-0.28199 0.31653,-0.71506 0.31653,-1.30015 0,-0.57358 -0.1024,-0.99754 -0.30862,-1.27282 -0.20503,-0.27408 -0.47456,-0.411 -0.80739,-0.411 -0.33284,0 -0.60453,0.13812 -0.81315,0.4146 -0.20958,0.27768 -0.31437,0.70595 -0.31437,1.28648 z m 3.86886,2.4761 v -4.94644 h 1.31624 c 0.49086,0 0.81099,0.024 0.96182,0.0712 0.24076,0.076 0.43883,0.23955 0.59541,0.48846 0.15659,0.24986 0.235,0.57118 0.235,0.96516 0,0.35801 -0.0679,0.65751 -0.20262,0.89946 -0.13477,0.24171 -0.30406,0.41101 -0.50693,0.50908 -0.20143,0.0978 -0.55057,0.14724 -1.04575,0.14724 h -0.53666 v 1.86582 z m 0.81651,-4.10932 v 1.40278 h 0.45273 c 0.30406,0 0.51005,-0.0206 0.61963,-0.0633 0.10815,-0.0427 0.19807,-0.11966 0.26714,-0.2314 0.0703,-0.11174 0.10479,-0.24771 0.10479,-0.41005 0,-0.16353 -0.0357,-0.30285 -0.10719,-0.4146 -0.0724,-0.11294 -0.16114,-0.18775 -0.26713,-0.22708 -0.10599,-0.0379 -0.32948,-0.0564 -0.67143,-0.0564 z"
       style="fill:#fcffff;fill-opacity:1;fill-rule:evenodd;stroke:none;stroke-width:0.26458332"
       inkscape:connector-curvature="0" />
  </g>
</svg>
