<?xml version="1.0" encoding="UTF-8" standalone="no"?>
<svg
   xmlns:dc="http://purl.org/dc/elements/1.1/"
   xmlns:cc="http://creativecommons.org/ns#"
   xmlns:rdf="http://www.w3.org/1999/02/22-rdf-syntax-ns#"
   xmlns:svg="http://www.w3.org/2000/svg"
   xmlns="http://www.w3.org/2000/svg"
   xmlns:sodipodi="http://sodipodi.sourceforge.net/DTD/sodipodi-0.dtd"
   xmlns:inkscape="http://www.inkscape.org/namespaces/inkscape"
   width="13.246mm"
   height="13.246mm"
   viewBox="0 0 13.246 13.246"
   version="1.1"
   id="svg8"
   inkscape:version="1.0.1 (3bc2e813f5, 2020-09-07)">
  <defs
     id="defs2">
    <pattern
       id="EMFhbasepattern"
       patternUnits="userSpaceOnUse"
       width="6"
       height="6"
       x="0"
       y="0" />
    <pattern
       id="EMFhbasepattern-7"
       patternUnits="userSpaceOnUse"
       width="6"
       height="6"
       x="0"
       y="0" />
    <pattern
       id="EMFhbasepattern-4"
       patternUnits="userSpaceOnUse"
       width="6"
       height="6"
       x="0"
       y="0" />
    <pattern
       id="EMFhbasepattern-8"
       patternUnits="userSpaceOnUse"
       width="6"
       height="6"
       x="0"
       y="0" />
    <pattern
       id="EMFhbasepattern-84"
       patternUnits="userSpaceOnUse"
       width="6"
       height="6"
       x="0"
       y="0" />
  </defs>
  <sodipodi:namedview
     id="base"
     pagecolor="#ffffff"
     bordercolor="#666666"
     borderopacity="1.0"
     inkscape:pageopacity="0.0"
     inkscape:pageshadow="2"
     inkscape:zoom="7.9195959"
     inkscape:cx="8.4276839"
     inkscape:cy="9.0265283"
     inkscape:document-units="mm"
     inkscape:current-layer="layer1"
     inkscape:document-rotation="0"
     showgrid="false"
     fit-margin-top="0"
     fit-margin-left="0"
     fit-margin-right="0"
     fit-margin-bottom="0"
     inkscape:window-width="1920"
     inkscape:window-height="1027"
     inkscape:window-x="-8"
     inkscape:window-y="-8"
     inkscape:window-maximized="1" />
  <metadata
     id="metadata5">
    <rdf:RDF>
      <cc:Work
         rdf:about="">
        <dc:format>image/svg+xml</dc:format>
        <dc:type
           rdf:resource="http://purl.org/dc/dcmitype/StillImage" />
        <dc:title></dc:title>
      </cc:Work>
    </rdf:RDF>
  </metadata>
  <g
     inkscape:label="Layer 1"
     inkscape:groupmode="layer"
     id="layer1"
     transform="translate(-116.98553,-147.03136)">
    <path
       style="fill:#e02726;fill-opacity:1;fill-rule:evenodd;stroke:none;stroke-width:0.264583"
       d="m 123.60865,147.03136 c 3.64778,0 6.62288,2.97534 6.62288,6.62312 0,3.64778 -2.9751,6.62288 -6.62288,6.62288 -3.64778,0 -6.62312,-2.9751 -6.62312,-6.62288 0,-3.64778 2.97534,-6.62312 6.62312,-6.62312 z"
       id="path986" />
    <path
       style="fill:#ffffff;fill-opacity:1;fill-rule:evenodd;stroke:none;stroke-width:0.264583"
       d="m 123.60865,148.26183 0.27746,0.007 0.27317,0.0207 0.26889,0.0343 0.26483,0.0477 0.25982,0.0603 0.25506,0.0725 0.24981,0.0849 0.24433,0.0968 0.23837,0.10798 0.23241,0.11942 0.22597,0.13015 0.21907,0.14064 0.21167,0.15089 0.20428,0.16042 0.19642,0.1702 0.18784,0.17925 0.17925,0.18784 0.16996,0.19618 0.16066,0.20428 0.15089,0.21191 0.14064,0.21906 0.13015,0.22574 0.11942,0.23241 0.10798,0.23861 0.0968,0.24433 0.0846,0.24981 0.0727,0.25506 0.0603,0.25982 0.0474,0.26459 0.0343,0.26912 0.021,0.27318 0.007,0.27746 -0.007,0.27746 -0.021,0.27317 -0.0343,0.26889 -0.0474,0.26483 -0.0603,0.25982 -0.0727,0.25506 -0.0846,0.24981 -0.0968,0.24433 -0.10798,0.23837 -0.11942,0.23241 -0.13015,0.22597 -0.14064,0.21907 -0.15089,0.21167 -0.16066,0.20428 -0.16996,0.19642 -0.17925,0.18784 -0.18784,0.17925 -0.19642,0.16996 -0.20428,0.16066 -0.21167,0.15089 -0.21907,0.14064 -0.22597,0.13015 -0.23241,0.11942 -0.23837,0.10798 -0.24433,0.0968 -0.24981,0.0846 -0.25506,0.0727 -0.25982,0.0603 -0.26483,0.0474 -0.26889,0.0343 -0.27341,0.021 -0.27722,0.007 -0.27746,-0.007 -0.27318,-0.021 -0.26912,-0.0343 -0.26459,-0.0474 -0.25982,-0.0603 -0.25506,-0.0727 -0.24981,-0.0846 -0.24433,-0.0968 -0.23861,-0.10798 -0.23241,-0.11942 -0.22574,-0.13015 -0.21906,-0.14064 -0.21191,-0.15089 -0.20428,-0.16066 -0.19618,-0.16996 -0.18784,-0.17925 -0.17925,-0.18784 -0.1702,-0.19642 -0.16066,-0.20428 -0.15065,-0.21167 -0.14064,-0.21907 -0.13015,-0.22597 -0.11942,-0.23241 -0.10798,-0.23837 -0.0968,-0.24433 -0.0849,-0.24981 -0.0727,-0.25506 -0.0601,-0.25982 -0.0477,-0.26483 -0.0343,-0.26889 -0.0207,-0.27317 -0.007,-0.27746 0.007,-0.27746 0.0207,-0.27318 0.0343,-0.26912 0.0477,-0.26459 0.0601,-0.25982 0.0727,-0.25506 0.0849,-0.24981 0.0968,-0.24433 0.10798,-0.23861 0.11942,-0.23241 0.13015,-0.22574 0.14064,-0.21906 0.15065,-0.21191 0.16066,-0.20428 0.1702,-0.19618 0.17925,-0.18784 0.18784,-0.17925 0.19618,-0.1702 0.20428,-0.16066 0.21191,-0.15065 0.21906,-0.14064 0.22574,-0.13015 0.23241,-0.11942 0.23861,-0.10798 0.24433,-0.0968 0.24981,-0.0849 0.25506,-0.0725 0.25982,-0.0603 0.26459,-0.0477 0.26912,-0.0343 0.27318,-0.0207 z"
       id="path972" />
    <path
       style="fill:#1d1d1b;fill-opacity:1;fill-rule:evenodd;stroke:none;stroke-width:0.264583"
       d="m 121.7167,152.95343 v -3.7846 h 1.28673 v 3.7846 h 0.0446 1.20425 l -1.89218,3.12218 -1.89243,-3.12218 h 1.20425 z"
       id="path968" />
    <path
       style="fill:#e02726;fill-opacity:1;fill-rule:evenodd;stroke:none;stroke-width:0.264583"
       d="m 125.06628,156.84793 v 1.70315 h -1.28672 v -1.70315 h -0.0448 -1.20401 l 1.89218,-3.12242 1.89219,3.12242 h -1.20401 z"
       id="path970" />
  </g>
</svg>
