<?xml version="1.0" encoding="UTF-8" standalone="no"?>
<svg
   xmlns:dc="http://purl.org/dc/elements/1.1/"
   xmlns:cc="http://creativecommons.org/ns#"
   xmlns:rdf="http://www.w3.org/1999/02/22-rdf-syntax-ns#"
   xmlns:svg="http://www.w3.org/2000/svg"
   xmlns="http://www.w3.org/2000/svg"
   xmlns:sodipodi="http://sodipodi.sourceforge.net/DTD/sodipodi-0.dtd"
   xmlns:inkscape="http://www.inkscape.org/namespaces/inkscape"
   width="13.246008mm"
   height="13.246008mm"
   viewBox="0 0 13.246008 13.246008"
   version="1.1"
   id="svg8"
   inkscape:version="1.0.1 (3bc2e813f5, 2020-09-07)">
  <defs
     id="defs2">
    <pattern
       id="EMFhbasepattern"
       patternUnits="userSpaceOnUse"
       width="6"
       height="6"
       x="0"
       y="0" />
    <pattern
       id="EMFhbasepattern-7"
       patternUnits="userSpaceOnUse"
       width="6"
       height="6"
       x="0"
       y="0" />
    <pattern
       id="EMFhbasepattern-4"
       patternUnits="userSpaceOnUse"
       width="6"
       height="6"
       x="0"
       y="0" />
    <pattern
       id="EMFhbasepattern-8"
       patternUnits="userSpaceOnUse"
       width="6"
       height="6"
       x="0"
       y="0" />
  </defs>
  <sodipodi:namedview
     id="base"
     pagecolor="#ffffff"
     bordercolor="#666666"
     borderopacity="1.0"
     inkscape:pageopacity="0.0"
     inkscape:pageshadow="2"
     inkscape:zoom="7.9195959"
     inkscape:cx="8.9022414"
     inkscape:cy="8.8697535"
     inkscape:document-units="mm"
     inkscape:current-layer="layer1"
     inkscape:document-rotation="0"
     showgrid="false"
     fit-margin-top="0"
     fit-margin-left="0"
     fit-margin-right="0"
     fit-margin-bottom="0"
     inkscape:window-width="1920"
     inkscape:window-height="1027"
     inkscape:window-x="-8"
     inkscape:window-y="-8"
     inkscape:window-maximized="1" />
  <metadata
     id="metadata5">
    <rdf:RDF>
      <cc:Work
         rdf:about="">
        <dc:format>image/svg+xml</dc:format>
        <dc:type
           rdf:resource="http://purl.org/dc/dcmitype/StillImage" />
        <dc:title></dc:title>
      </cc:Work>
    </rdf:RDF>
  </metadata>
  <g
     inkscape:label="Layer 1"
     inkscape:groupmode="layer"
     id="layer1"
     transform="translate(-116.85997,-147.07284)">
    <path
       style="fill:#00adef;fill-opacity:1;fill-rule:evenodd;stroke:none;stroke-width:0.264583"
       d="m 130.08033,160.2932 h -13.19472 v -13.19472 h 13.19472 z"
       id="path940" />
    <path
       style="fill:none;stroke:#000000;stroke-width:0.0512877px;stroke-linecap:round;stroke-linejoin:miter;stroke-miterlimit:4;stroke-dasharray:none;stroke-opacity:1"
       d="m 130.08033,160.2932 h -13.19472 v -13.19472 h 13.19472 z"
       id="path942" />
    <path
       style="fill:#fcffff;fill-opacity:1;fill-rule:evenodd;stroke:none;stroke-width:0.264583"
       d="m 125.42953,154.36319 v 5.08944 h -1.28196 v -5.08944 h -0.0444 -1.19956 l 1.88506,-3.11009 1.88482,3.11009 h -1.19956 z"
       id="path944" />
    <path
       style="fill:#fcffff;fill-opacity:1;fill-rule:evenodd;stroke:none;stroke-width:0.264583"
       d="m 123.48155,150.48401 h 0.0446 1.19957 l -1.88506,3.11008 -1.88483,-3.11008 h 1.19957 0.0444 v -2.54472 h 1.28172 z"
       id="path946" />
    <path
       style="fill:#e02726;fill-opacity:1;fill-rule:evenodd;stroke:none;stroke-width:0.264583"
       d="m 123.29325,150.6723 h 1.0977 l -1.55026,2.55802 -1.55027,-2.55802 h 1.09794 v -2.54448 h 0.90489 z"
       id="path948" />
    <path
       style="fill:#fcffff;fill-opacity:1;fill-rule:evenodd;stroke:none;stroke-width:0.264583"
       d="m 129.23669,147.09848 0.0385,0.001 0.043,0.003 0.0425,0.005 0.0418,0.007 0.0413,0.01 0.0404,0.0114 0.0396,0.0133 0.0385,0.0152 0.0378,0.0171 0.0366,0.0188 0.0356,0.0204 0.0344,0.0221 0.0332,0.0235 0.0318,0.0252 0.0309,0.0266 0.0294,0.028 0.0278,0.0294 0.0266,0.0306 0.0252,0.032 0.0238,0.0332 0.0221,0.0344 0.0204,0.0356 0.0188,0.0366 0.0171,0.0377 0.0152,0.0385 0.0133,0.0397 0.0114,0.0404 0.01,0.0413 0.007,0.0418 0.005,0.0423 0.003,0.043 0.001,0.0387 v 11.50765 l -0.001,0.0385 -0.003,0.043 -0.005,0.0425 -0.007,0.042 -0.01,0.0411 -0.0114,0.0404 -0.0133,0.0394 -0.0152,0.0387 -0.0171,0.0378 -0.0188,0.0366 -0.0204,0.0356 -0.0221,0.0344 -0.0238,0.0332 -0.0252,0.0318 -0.0266,0.0306 -0.0278,0.0294 -0.0294,0.028 -0.0309,0.0266 -0.0318,0.0252 -0.0332,0.0237 -0.0344,0.0221 -0.0356,0.0204 -0.0366,0.0187 -0.0378,0.0169 -0.0385,0.0154 -0.0396,0.0133 -0.0404,0.0114 -0.0411,0.01 -0.042,0.008 -0.0423,0.005 -0.043,0.003 -0.0387,9.5e-4 h -11.50744 l -0.0387,-9.5e-4 -0.0427,-0.003 -0.0425,-0.005 -0.0418,-0.008 -0.0413,-0.01 -0.0404,-0.0114 -0.0394,-0.0133 -0.0387,-0.0154 -0.0378,-0.0169 -0.0366,-0.0187 -0.0356,-0.0204 -0.0344,-0.0221 -0.0332,-0.0237 -0.0318,-0.0252 -0.0309,-0.0266 -0.0292,-0.028 -0.0283,-0.0294 -0.0264,-0.0306 -0.0252,-0.0318 -0.0237,-0.0332 -0.0221,-0.0344 -0.0204,-0.0356 -0.0188,-0.0366 -0.0169,-0.0378 -0.0154,-0.0387 -0.0133,-0.0394 -0.0114,-0.0404 -0.009,-0.0413 -0.008,-0.0418 -0.005,-0.0425 -0.003,-0.043 -9.5e-4,-0.0385 v -11.50765 l 9.5e-4,-0.0387 0.003,-0.043 0.005,-0.0423 0.008,-0.0418 0.009,-0.0413 0.0114,-0.0404 0.0133,-0.0397 0.0154,-0.0385 0.0169,-0.0377 0.0188,-0.0366 0.0204,-0.0356 0.0221,-0.0344 0.0237,-0.0332 0.0252,-0.032 0.0266,-0.0306 0.028,-0.0294 0.0292,-0.028 0.0309,-0.0266 0.0318,-0.0252 0.0332,-0.0235 0.0344,-0.0221 0.0356,-0.0204 0.0366,-0.0188 0.0378,-0.0171 0.0385,-0.0152 0.0396,-0.0133 0.0404,-0.0114 0.0413,-0.01 0.0418,-0.007 0.0425,-0.005 0.0427,-0.003 0.0387,-0.001 z m -11.50269,0.37707 h 11.49794 v 0 c 0.26024,0 0.47133,0.21109 0.47133,0.47133 v 0 11.49815 0 c 0,0.26025 -0.21109,0.47134 -0.47133,0.47134 v 0 H 117.734 v 0 c -0.26024,0 -0.47133,-0.21109 -0.47133,-0.47134 v 0 -11.49815 0 c 0,-0.26024 0.21109,-0.47133 0.47133,-0.47133 z"
       id="path950" />
  </g>
</svg>
