<?xml version="1.0" encoding="UTF-8" standalone="no"?>
<!-- Created with Inkscape (http://www.inkscape.org/) -->

<svg
   xmlns:dc="http://purl.org/dc/elements/1.1/"
   xmlns:cc="http://creativecommons.org/ns#"
   xmlns:rdf="http://www.w3.org/1999/02/22-rdf-syntax-ns#"
   xmlns:svg="http://www.w3.org/2000/svg"
   xmlns="http://www.w3.org/2000/svg"
   xmlns:sodipodi="http://sodipodi.sourceforge.net/DTD/sodipodi-0.dtd"
   xmlns:inkscape="http://www.inkscape.org/namespaces/inkscape"
   width="13.783mm"
   height="13.783mm"
   viewBox="0 0 13.783001 13.783001"
   version="1.1"
   id="svg8"
   inkscape:version="0.92.2 (5c3e80d, 2017-08-06)"
   sodipodi:docname="311a.svg">
  <defs
     id="defs2">
    <pattern
       y="0"
       x="0"
       height="6"
       width="6"
       patternUnits="userSpaceOnUse"
       id="EMFhbasepattern" />
    <pattern
       y="0"
       x="0"
       height="6"
       width="6"
       patternUnits="userSpaceOnUse"
       id="EMFhbasepattern-2" />
    <pattern
       y="0"
       x="0"
       height="6"
       width="6"
       patternUnits="userSpaceOnUse"
       id="EMFhbasepattern-7" />
    <pattern
       y="0"
       x="0"
       height="6"
       width="6"
       patternUnits="userSpaceOnUse"
       id="EMFhbasepattern-3" />
    <pattern
       y="0"
       x="0"
       height="6"
       width="6"
       patternUnits="userSpaceOnUse"
       id="EMFhbasepattern-5" />
    <pattern
       y="0"
       x="0"
       height="6"
       width="6"
       patternUnits="userSpaceOnUse"
       id="EMFhbasepattern-28" />
    <pattern
       y="0"
       x="0"
       height="6"
       width="6"
       patternUnits="userSpaceOnUse"
       id="EMFhbasepattern-56" />
    <pattern
       y="0"
       x="0"
       height="6"
       width="6"
       patternUnits="userSpaceOnUse"
       id="EMFhbasepattern-1" />
    <pattern
       y="0"
       x="0"
       height="6"
       width="6"
       patternUnits="userSpaceOnUse"
       id="EMFhbasepattern-73" />
  </defs>
  <sodipodi:namedview
     id="base"
     pagecolor="#ffffff"
     bordercolor="#666666"
     borderopacity="1.0"
     inkscape:pageopacity="0.0"
     inkscape:pageshadow="2"
     inkscape:zoom="5.6"
     inkscape:cx="-2.9712611"
     inkscape:cy="26.0466"
     inkscape:document-units="mm"
     inkscape:current-layer="layer1"
     showgrid="false"
     fit-margin-top="0"
     fit-margin-left="0"
     fit-margin-right="0"
     fit-margin-bottom="0"
     inkscape:window-width="1920"
     inkscape:window-height="1027"
     inkscape:window-x="-8"
     inkscape:window-y="-8"
     inkscape:window-maximized="1" />
  <metadata
     id="metadata5">
    <rdf:RDF>
      <cc:Work
         rdf:about="">
        <dc:format>image/svg+xml</dc:format>
        <dc:type
           rdf:resource="http://purl.org/dc/dcmitype/StillImage" />
        <dc:title />
      </cc:Work>
    </rdf:RDF>
  </metadata>
  <g
     inkscape:label="Layer 1"
     inkscape:groupmode="layer"
     id="layer1"
     transform="translate(-136.34246,-196.69594)">
    <path
       id="path964"
       d="m 143.52392,197.98343 0.28555,0.0217 0.28079,0.0357 0.27603,0.0493 0.27102,0.0626 0.26579,0.0755 0.26031,0.0881 0.25435,0.10026 0.2484,0.11217 0.24173,0.12385 0.23483,0.13503 0.22768,0.146 0.22006,0.1567 0.2122,0.16672 0.2041,0.17647 0.19505,0.18601 0.18601,0.19529 0.17671,0.20362 0.16671,0.2122 0.15647,0.2203 0.146,0.22768 0.13503,0.23483 0.12385,0.24173 0.11217,0.2484 0.10026,0.25435 0.0881,0.26031 0.0755,0.26579 0.0626,0.27102 0.0493,0.27603 0.0357,0.28103 0.0217,0.28531 0.007,0.28984 -0.007,0.29008 -0.0217,0.28531 -0.0357,0.28079 -0.0493,0.27627 -0.0626,0.27102 -0.0755,0.26579 -0.0881,0.26031 -0.10026,0.25435 -0.11217,0.24817 -0.12385,0.24196 -0.13503,0.23483 -0.146,0.22768 -0.15647,0.22006 -0.16671,0.2122 -0.17671,0.20386 -0.18601,0.19506 -0.19505,0.18624 -0.2041,0.17647 -0.2122,0.16672 -0.22006,0.1567 -0.22768,0.14576 -0.23483,0.13527 -0.24173,0.12385 -0.2484,0.11217 -0.25435,0.10026 -0.26031,0.0881 -0.26579,0.0755 -0.27102,0.0624 -0.27603,0.0493 -0.28079,0.0357 -0.28555,0.0217 -0.28984,0.007 -0.28984,-0.007 -0.28555,-0.0217 -0.28079,-0.0357 -0.27627,-0.0493 -0.27102,-0.0624 -0.26579,-0.0755 -0.26007,-0.0881 -0.25459,-0.10026 -0.24816,-0.11217 -0.24174,-0.12385 -0.23482,-0.13527 -0.22792,-0.14576 -0.22006,-0.1567 -0.2122,-0.16672 -0.20386,-0.17647 -0.19506,-0.18624 -0.186,-0.19506 -0.17671,-0.20386 -0.16672,-0.2122 -0.15647,-0.22006 -0.14599,-0.22768 -0.13503,-0.23506 -0.12385,-0.24173 -0.11241,-0.24817 -0.10026,-0.25435 -0.0881,-0.26031 -0.0753,-0.26579 -0.0626,-0.27102 -0.0493,-0.27627 -0.0357,-0.28079 -0.0217,-0.28531 -0.007,-0.29008 0.007,-0.28984 0.0217,-0.28531 0.0357,-0.28103 0.0493,-0.27603 0.0626,-0.27102 0.0753,-0.26579 0.0881,-0.26031 0.10026,-0.25435 0.11241,-0.2484 0.12385,-0.24173 0.13503,-0.23483 0.14599,-0.22768 0.15647,-0.22006 0.16672,-0.21244 0.17671,-0.20362 0.186,-0.19529 0.19506,-0.18601 0.20386,-0.17647 0.2122,-0.16672 0.22006,-0.1567 0.22768,-0.146 0.23506,-0.13503 0.24174,-0.12385 0.24816,-0.11217 0.25459,-0.10026 0.26007,-0.0881 0.26579,-0.0755 0.27102,-0.0626 0.27627,-0.0493 0.28079,-0.0357 0.28555,-0.0217 0.28984,-0.007 z m -0.28984,-1.28749 c 3.80602,0 6.89138,3.08536 6.89138,6.89138 0,3.80603 -3.08536,6.89162 -6.89138,6.89162 -3.80603,0 -6.89162,-3.08559 -6.89162,-6.89162 0,-3.80602 3.08559,-6.89138 6.89162,-6.89138 z"
       style="fill:#e02726;fill-opacity:1;fill-rule:evenodd;stroke:none;stroke-width:0.26458332"
       inkscape:connector-curvature="0" />
    <path
       style="fill:#ffffff;fill-opacity:1;fill-rule:evenodd;stroke:none;stroke-width:0.26458332"
       d="m 143.52392,197.98343 0.28555,0.0217 0.28079,0.0357 0.27603,0.0493 0.27102,0.0626 0.26579,0.0755 0.26031,0.0881 0.25435,0.10026 0.2484,0.11217 0.24173,0.12385 0.23483,0.13503 0.22768,0.146 0.22006,0.1567 0.2122,0.16672 0.2041,0.17647 0.19505,0.18601 0.18601,0.19529 0.17671,0.20362 0.16671,0.2122 0.15647,0.2203 0.146,0.22768 0.13503,0.23483 0.12385,0.24173 0.11217,0.2484 0.10026,0.25435 0.0881,0.26031 0.0755,0.26579 0.0626,0.27102 0.0493,0.27603 0.0357,0.28103 0.0217,0.28531 0.007,0.28984 -0.007,0.29008 -0.0217,0.28531 -0.0357,0.28079 -0.0493,0.27627 -0.0626,0.27102 -0.0755,0.26579 -0.0881,0.26031 -0.10026,0.25435 -0.11217,0.24817 -0.12385,0.24196 -0.13503,0.23483 -0.146,0.22768 -0.15647,0.22006 -0.16671,0.2122 -0.17671,0.20386 -0.18601,0.19506 -0.19505,0.18624 -0.2041,0.17647 -0.2122,0.16672 -0.22006,0.1567 -0.22768,0.14576 -0.23483,0.13527 -0.24173,0.12385 -0.2484,0.11217 -0.25435,0.10026 -0.26031,0.0881 -0.26579,0.0755 -0.27102,0.0624 -0.27603,0.0493 -0.28079,0.0357 -0.28555,0.0217 -0.28984,0.007 -0.28984,-0.007 -0.28555,-0.0217 -0.28079,-0.0357 -0.27627,-0.0493 -0.27102,-0.0624 -0.26579,-0.0755 -0.26007,-0.0881 -0.25459,-0.10026 -0.24816,-0.11217 -0.24174,-0.12385 -0.23482,-0.13527 -0.22792,-0.14576 -0.22006,-0.1567 -0.2122,-0.16672 -0.20386,-0.17647 -0.19506,-0.18624 -0.186,-0.19506 -0.17671,-0.20386 -0.16672,-0.2122 -0.15647,-0.22006 -0.14599,-0.22768 -0.13503,-0.23506 -0.12385,-0.24173 -0.11241,-0.24817 -0.10026,-0.25435 -0.0881,-0.26031 -0.0753,-0.26579 -0.0626,-0.27102 -0.0493,-0.27627 -0.0357,-0.28079 -0.0217,-0.28531 -0.007,-0.29008 0.007,-0.28984 0.0217,-0.28531 0.0357,-0.28103 0.0493,-0.27603 0.0626,-0.27102 0.0753,-0.26579 0.0881,-0.26031 0.10026,-0.25435 0.11241,-0.2484 0.12385,-0.24173 0.13503,-0.23483 0.14599,-0.22768 0.15647,-0.22006 0.16672,-0.21244 0.17671,-0.20362 0.186,-0.19529 0.19506,-0.18601 0.20386,-0.17647 0.2122,-0.16672 0.22006,-0.1567 0.22768,-0.146 0.23506,-0.13503 0.24174,-0.12385 0.24816,-0.11217 0.25459,-0.10026 0.26007,-0.0881 0.26579,-0.0755 0.27102,-0.0626 0.27627,-0.0493 0.28079,-0.0357 0.28555,-0.0217 0.28984,-0.007 z"
       id="path829" />
  </g>
</svg>
