<?xml version="1.0" encoding="UTF-8" standalone="no"?>
<!-- Created with Inkscape (http://www.inkscape.org/) -->

<svg
   xmlns:dc="http://purl.org/dc/elements/1.1/"
   xmlns:cc="http://creativecommons.org/ns#"
   xmlns:rdf="http://www.w3.org/1999/02/22-rdf-syntax-ns#"
   xmlns:svg="http://www.w3.org/2000/svg"
   xmlns="http://www.w3.org/2000/svg"
   xmlns:sodipodi="http://sodipodi.sourceforge.net/DTD/sodipodi-0.dtd"
   xmlns:inkscape="http://www.inkscape.org/namespaces/inkscape"
   width="13.783mm"
   height="13.783mm"
   viewBox="0 0 13.783001 13.783001"
   version="1.1"
   id="svg8"
   inkscape:version="0.92.2 (5c3e80d, 2017-08-06)"
   sodipodi:docname="311c.svg">
  <defs
     id="defs2">
    <pattern
       y="0"
       x="0"
       height="6"
       width="6"
       patternUnits="userSpaceOnUse"
       id="EMFhbasepattern" />
    <pattern
       y="0"
       x="0"
       height="6"
       width="6"
       patternUnits="userSpaceOnUse"
       id="EMFhbasepattern-2" />
    <pattern
       y="0"
       x="0"
       height="6"
       width="6"
       patternUnits="userSpaceOnUse"
       id="EMFhbasepattern-7" />
    <pattern
       y="0"
       x="0"
       height="6"
       width="6"
       patternUnits="userSpaceOnUse"
       id="EMFhbasepattern-3" />
    <pattern
       y="0"
       x="0"
       height="6"
       width="6"
       patternUnits="userSpaceOnUse"
       id="EMFhbasepattern-5" />
    <pattern
       y="0"
       x="0"
       height="6"
       width="6"
       patternUnits="userSpaceOnUse"
       id="EMFhbasepattern-28" />
    <pattern
       y="0"
       x="0"
       height="6"
       width="6"
       patternUnits="userSpaceOnUse"
       id="EMFhbasepattern-56" />
    <pattern
       y="0"
       x="0"
       height="6"
       width="6"
       patternUnits="userSpaceOnUse"
       id="EMFhbasepattern-1" />
    <pattern
       y="0"
       x="0"
       height="6"
       width="6"
       patternUnits="userSpaceOnUse"
       id="EMFhbasepattern-73" />
    <pattern
       y="0"
       x="0"
       height="6"
       width="6"
       patternUnits="userSpaceOnUse"
       id="EMFhbasepattern-0" />
  </defs>
  <sodipodi:namedview
     id="base"
     pagecolor="#ffffff"
     bordercolor="#666666"
     borderopacity="1.0"
     inkscape:pageopacity="0.0"
     inkscape:pageshadow="2"
     inkscape:zoom="5.6"
     inkscape:cx="-0.13892114"
     inkscape:cy="19.77179"
     inkscape:document-units="mm"
     inkscape:current-layer="layer1"
     showgrid="false"
     fit-margin-top="0"
     fit-margin-left="0"
     fit-margin-right="0"
     fit-margin-bottom="0"
     inkscape:window-width="1920"
     inkscape:window-height="1027"
     inkscape:window-x="-8"
     inkscape:window-y="-8"
     inkscape:window-maximized="1" />
  <metadata
     id="metadata5">
    <rdf:RDF>
      <cc:Work
         rdf:about="">
        <dc:format>image/svg+xml</dc:format>
        <dc:type
           rdf:resource="http://purl.org/dc/dcmitype/StillImage" />
        <dc:title />
      </cc:Work>
    </rdf:RDF>
  </metadata>
  <g
     inkscape:label="Layer 1"
     inkscape:groupmode="layer"
     id="layer1"
     transform="translate(-135.59307,-195.03573)">
    <path
       style="fill:#ffffff;fill-opacity:1;fill-rule:evenodd;stroke:none;stroke-width:0.26458332"
       d="m 142.77441,196.32322 0.28556,0.0217 0.2808,0.0357 0.27603,0.0493 0.27103,0.0626 0.26603,0.0755 0.26007,0.0881 0.25436,0.10026 0.24841,0.11217 0.24173,0.12385 0.23483,0.13503 0.22769,0.146 0.2203,0.1567 0.2122,0.16672 0.20363,0.17647 0.19529,0.18601 0.18601,0.19529 0.17672,0.20362 0.16671,0.2122 0.15648,0.2203 0.14599,0.22768 0.13504,0.23483 0.12384,0.24173 0.11218,0.2484 0.10027,0.25435 0.0881,0.26031 0.0755,0.26579 0.0626,0.27102 0.0493,0.27603 0.0357,0.28103 0.0217,0.28531 0.007,0.28984 -0.007,0.29008 -0.0217,0.28531 -0.0357,0.28079 -0.0493,0.27627 -0.0626,0.27102 -0.0755,0.26579 -0.0881,0.26031 -0.10027,0.25435 -0.11218,0.24817 -0.12384,0.24196 -0.13504,0.23483 -0.14599,0.22768 -0.15648,0.22006 -0.16671,0.2122 -0.17672,0.20386 -0.18601,0.19506 -0.19529,0.18624 -0.20363,0.17647 -0.2122,0.16672 -0.2203,0.1567 -0.22769,0.14576 -0.23483,0.13527 -0.24173,0.12385 -0.24841,0.11217 -0.25436,0.10026 -0.26007,0.0881 -0.26579,0.0755 -0.27127,0.0624 -0.27603,0.0493 -0.2808,0.0357 -0.28556,0.0217 -0.28984,0.007 -0.28985,-0.007 -0.28555,-0.0217 -0.2808,-0.0357 -0.27627,-0.0493 -0.27103,-0.0624 -0.26579,-0.0755 -0.26007,-0.0881 -0.2546,-0.10026 -0.24817,-0.11217 -0.24173,-0.12385 -0.23507,-0.13527 -0.22768,-0.14576 -0.22007,-0.1567 -0.2122,-0.16672 -0.20387,-0.17647 -0.19505,-0.18624 -0.18601,-0.19506 -0.17672,-0.20386 -0.16671,-0.2122 -0.15648,-0.22006 -0.14599,-0.22768 -0.13504,-0.23506 -0.12408,-0.24173 -0.11218,-0.24817 -0.10026,-0.25435 -0.0879,-0.26031 -0.0755,-0.26579 -0.0626,-0.27102 -0.0493,-0.27627 -0.0357,-0.28079 -0.0217,-0.28531 -0.007,-0.29008 0.007,-0.28984 0.0217,-0.28531 0.0357,-0.28103 0.0493,-0.27603 0.0626,-0.27102 0.0755,-0.26579 0.0879,-0.26031 0.10026,-0.25435 0.11218,-0.2484 0.12408,-0.24173 0.13504,-0.23483 0.14599,-0.22768 0.15648,-0.22006 0.16671,-0.21244 0.17672,-0.20362 0.18601,-0.19529 0.19505,-0.18601 0.20387,-0.17647 0.2122,-0.16672 0.22007,-0.1567 0.22768,-0.146 0.23507,-0.13503 0.24173,-0.12385 0.24817,-0.11217 0.2546,-0.10026 0.26007,-0.0881 0.26579,-0.0755 0.27103,-0.0626 0.27627,-0.0493 0.2808,-0.0357 0.28555,-0.0217 0.28985,-0.007 z"
       id="path854" />
    <path
       id="path977"
       d="m 142.77441,196.32322 0.28556,0.0217 0.2808,0.0357 0.27603,0.0493 0.27103,0.0626 0.26603,0.0755 0.26007,0.0881 0.25436,0.10026 0.24841,0.11217 0.24173,0.12385 0.23483,0.13503 0.22769,0.146 0.2203,0.1567 0.2122,0.16672 0.20363,0.17647 0.19529,0.18601 0.18601,0.19529 0.17672,0.20362 0.16671,0.2122 0.15648,0.2203 0.14599,0.22768 0.13504,0.23483 0.12384,0.24173 0.11218,0.2484 0.10027,0.25435 0.0881,0.26031 0.0755,0.26579 0.0626,0.27102 0.0493,0.27603 0.0357,0.28103 0.0217,0.28531 0.007,0.28984 -0.007,0.29008 -0.0217,0.28531 -0.0357,0.28079 -0.0493,0.27627 -0.0626,0.27102 -0.0755,0.26579 -0.0881,0.26031 -0.10027,0.25435 -0.11218,0.24817 -0.12384,0.24196 -0.13504,0.23483 -0.14599,0.22768 -0.15648,0.22006 -0.16671,0.2122 -0.17672,0.20386 -0.18601,0.19506 -0.19529,0.18624 -0.20363,0.17647 -0.2122,0.16672 -0.2203,0.1567 -0.22769,0.14576 -0.23483,0.13527 -0.24173,0.12385 -0.24841,0.11217 -0.25436,0.10026 -0.26007,0.0881 -0.26579,0.0755 -0.27127,0.0624 -0.27603,0.0493 -0.2808,0.0357 -0.28556,0.0217 -0.28984,0.007 -0.28985,-0.007 -0.28555,-0.0217 -0.2808,-0.0357 -0.27627,-0.0493 -0.27103,-0.0624 -0.26579,-0.0755 -0.26007,-0.0881 -0.2546,-0.10026 -0.24817,-0.11217 -0.24173,-0.12385 -0.23507,-0.13527 -0.22768,-0.14576 -0.22007,-0.1567 -0.2122,-0.16672 -0.20387,-0.17647 -0.19505,-0.18624 -0.18601,-0.19506 -0.17672,-0.20386 -0.16671,-0.2122 -0.15648,-0.22006 -0.14599,-0.22768 -0.13504,-0.23506 -0.12408,-0.24173 -0.11218,-0.24817 -0.10026,-0.25435 -0.0879,-0.26031 -0.0755,-0.26579 -0.0626,-0.27102 -0.0493,-0.27627 -0.0357,-0.28079 -0.0217,-0.28531 -0.007,-0.29008 0.007,-0.28984 0.0217,-0.28531 0.0357,-0.28103 0.0493,-0.27603 0.0626,-0.27102 0.0755,-0.26579 0.0879,-0.26031 0.10026,-0.25435 0.11218,-0.2484 0.12408,-0.24173 0.13504,-0.23483 0.14599,-0.22768 0.15648,-0.22006 0.16671,-0.21244 0.17672,-0.20362 0.18601,-0.19529 0.19505,-0.18601 0.20387,-0.17647 0.2122,-0.16672 0.22007,-0.1567 0.22768,-0.146 0.23507,-0.13503 0.24173,-0.12385 0.24817,-0.11217 0.2546,-0.10026 0.26007,-0.0881 0.26579,-0.0755 0.27103,-0.0626 0.27627,-0.0493 0.2808,-0.0357 0.28555,-0.0217 0.28985,-0.007 z m -0.28984,-1.28749 c 3.80609,0 6.8915,3.08536 6.8915,6.89138 0,3.80603 -3.08541,6.89162 -6.8915,6.89162 -3.80609,0 -6.8915,-3.08559 -6.8915,-6.89162 0,-3.80602 3.08541,-6.89138 6.8915,-6.89138 z"
       style="fill:#e02726;fill-opacity:1;fill-rule:evenodd;stroke:none;stroke-width:0.26458332"
       inkscape:connector-curvature="0" />
    <path
       id="path979"
       d="m 138.14428,200.69654 h 8.68415 v 0 c 0.0519,0 0.38178,-2.4e-4 0.38178,0.44226 0,0.44489 -0.32986,0.44369 -0.38178,0.44369 v 0 h -8.68344 v 0 c -0.0519,0 -0.38606,0.001 -0.38606,-0.4425 0,-0.44369 0.33319,-0.44345 0.38535,-0.44345 z"
       style="fill:#1d1d1b;fill-opacity:1;fill-rule:evenodd;stroke:none;stroke-width:0.26458332"
       inkscape:connector-curvature="0" />
    <path
       id="path981"
       d="m 138.50462,200.20808 v -1.57543 h 0.95718 v 0.26626 h -0.69758 v 0.34772 h 0.64899 v 0.26626 h -0.64899 v 0.42892 h 0.72163 v 0.26627 z"
       style="fill:#1d1d1b;fill-opacity:1;fill-rule:evenodd;stroke:none;stroke-width:0.26458332"
       inkscape:connector-curvature="0" />
    <path
       id="path983"
       d="m 139.9336,200.20808 v -1.57543 h 0.54897 c 0.14051,0 0.24054,0.0143 0.30104,0.0426 0.0603,0.0281 0.10931,0.0774 0.14813,0.14695 0.0386,0.07 0.0581,0.15361 0.0581,0.25078 0,0.12337 -0.0298,0.22268 -0.0888,0.29794 -0.0591,0.075 -0.14314,0.12241 -0.25198,0.14194 0.0557,0.04 0.10241,0.0838 0.13861,0.13146 0.0367,0.0479 0.0867,0.13337 0.15005,0.2565 l 0.15766,0.30723 h -0.31199 l -0.18934,-0.34248 c -0.0679,-0.12408 -0.11384,-0.20172 -0.13861,-0.23292 -0.0241,-0.0312 -0.0503,-0.0529 -0.0774,-0.0645 -0.0272,-0.0121 -0.0707,-0.0179 -0.13099,-0.0179 h -0.0538 v 0.6578 z m 0.2596,-0.90882 h 0.19363 c 0.11836,0 0.19362,-0.005 0.22601,-0.0157 0.0322,-0.0102 0.0583,-0.0312 0.0784,-0.0626 0.0202,-0.0317 0.0303,-0.0738 0.0303,-0.12623 0,-0.0502 -0.01,-0.0905 -0.0303,-0.12098 -0.02,-0.0305 -0.0472,-0.0512 -0.0817,-0.0631 -0.0243,-0.008 -0.095,-0.0117 -0.21197,-0.0117 h -0.20434 z"
       style="fill:#1d1d1b;fill-opacity:1;fill-rule:evenodd;stroke:none;stroke-width:0.26458332"
       inkscape:connector-curvature="0" />
    <path
       id="path985"
       d="m 142.62556,200.20808 h -0.28222 l -0.11051,-0.35653 h -0.5192 l -0.10669,0.35653 h -0.27722 l 0.50204,-1.57543 h 0.27794 z m -0.47775,-0.62279 -0.1791,-0.58468 -0.17505,0.58468 z"
       style="fill:#1d1d1b;fill-opacity:1;fill-rule:evenodd;stroke:none;stroke-width:0.26458332"
       inkscape:connector-curvature="0" />
    <path
       id="path987"
       d="m 143.14809,200.20808 v -1.30917 h -0.38273 v -0.26626 h 1.0253 v 0.26626 h -0.38297 v 1.30917 z"
       style="fill:#1d1d1b;fill-opacity:1;fill-rule:evenodd;stroke:none;stroke-width:0.26458332"
       inkscape:connector-curvature="0" />
    <path
       id="path989"
       d="m 144.18577,200.20808 v -1.57543 h 0.95718 v 0.26626 h -0.69758 v 0.34772 h 0.64923 v 0.26626 h -0.64923 v 0.42892 h 0.72187 v 0.26627 z"
       style="fill:#1d1d1b;fill-opacity:1;fill-rule:evenodd;stroke:none;stroke-width:0.26458332"
       inkscape:connector-curvature="0" />
    <path
       id="path991"
       d="m 145.61475,200.20808 v -1.57543 h 0.95718 v 0.26626 h -0.69758 v 0.34772 h 0.64924 v 0.26626 h -0.64924 v 0.42892 h 0.72188 v 0.26627 z"
       style="fill:#1d1d1b;fill-opacity:1;fill-rule:evenodd;stroke:none;stroke-width:0.26458332"
       inkscape:connector-curvature="0" />
    <path
       id="path993"
       d="m 137.60484,203.27033 -0.34677,-1.18151 h 0.20935 l 0.24673,0.87452 0.23507,-0.87452 h 0.20982 l -0.34319,1.18151 z"
       style="fill:#1d1d1b;fill-opacity:1;fill-rule:evenodd;stroke:none;stroke-width:0.26458332"
       inkscape:connector-curvature="0" />
    <path
       id="path995"
       d="m 138.56726,202.67469 -0.16815,-0.0348 c 0.0202,-0.0874 0.0538,-0.15028 0.10075,-0.18838 0.0469,-0.0384 0.11431,-0.0576 0.2022,-0.0576 0.0784,0 0.13813,0.0112 0.17933,0.0331 0.0414,0.0219 0.0707,0.0519 0.0886,0.09 0.0176,0.0379 0.0264,0.10694 0.0264,0.20696 l -0.002,0.2646 c 0,0.0743 0.003,0.12956 0.009,0.16599 0.006,0.0362 0.0164,0.0748 0.0324,0.11575 h -0.18315 l -0.0243,-0.0936 c -0.0314,0.0376 -0.0655,0.066 -0.10193,0.085 -0.0362,0.0191 -0.0748,0.0283 -0.11575,0.0283 -0.0684,0 -0.12432,-0.0231 -0.16791,-0.0691 -0.0436,-0.0462 -0.0655,-0.10717 -0.0655,-0.18362 0,-0.0488 0.009,-0.0907 0.0269,-0.12718 0.0179,-0.036 0.0429,-0.0648 0.075,-0.0862 0.0324,-0.0217 0.0841,-0.0407 0.15529,-0.0574 0.0862,-0.02 0.14647,-0.0383 0.18029,-0.0557 0,-0.0474 -0.003,-0.0784 -0.0102,-0.0934 -0.007,-0.0145 -0.0191,-0.0267 -0.0369,-0.0362 -0.0179,-0.009 -0.0431,-0.014 -0.076,-0.014 -0.0331,0 -0.0593,0.007 -0.0784,0.0226 -0.0188,0.015 -0.0343,0.0431 -0.0462,0.0848 z m 0.24769,0.18315 c -0.0238,0.01 -0.061,0.0212 -0.11099,0.0341 -0.0576,0.015 -0.0955,0.0319 -0.11336,0.05 -0.0179,0.0183 -0.0264,0.0424 -0.0264,0.0714 0,0.0329 0.01,0.0605 0.0293,0.0831 0.0198,0.0224 0.0445,0.0336 0.0743,0.0336 0.0264,0 0.0524,-0.009 0.0784,-0.0271 0.026,-0.0183 0.0438,-0.0398 0.0538,-0.0645 0.01,-0.0248 0.015,-0.0698 0.015,-0.13527 z m -0.33177,-0.59421 v -0.19458 h 0.16005 v 0.19458 z m 0.2839,0 v -0.19458 h 0.16004 v 0.19458 z"
       style="fill:#1d1d1b;fill-opacity:1;fill-rule:evenodd;stroke:none;stroke-width:0.26458332"
       inkscape:connector-curvature="0" />
    <path
       id="path997"
       d="m 139.34891,203.27033 v -1.18151 h 0.18648 v 1.18151 z"
       style="fill:#1d1d1b;fill-opacity:1;fill-rule:evenodd;stroke:none;stroke-width:0.26458332"
       inkscape:connector-curvature="0" />
    <path
       id="path999"
       d="m 139.89121,202.29816 v -0.20934 h 0.18624 v 0.20934 z m 0.18624,0.11575 v 0.82927 c 0,0.11622 -0.006,0.19601 -0.019,0.23911 -0.0129,0.0431 -0.0364,0.0762 -0.0696,0.0995 -0.0333,0.0233 -0.0745,0.035 -0.1236,0.035 -0.0372,0 -0.0803,-0.008 -0.12933,-0.0243 l 0.0322,-0.19243 c 0.0179,0.005 0.0333,0.007 0.0464,0.007 0.0319,0 0.0545,-0.0129 0.0669,-0.0388 0.006,-0.014 0.01,-0.06 0.01,-0.13789 v -0.81665 z"
       style="fill:#1d1d1b;fill-opacity:1;fill-rule:evenodd;stroke:none;stroke-width:0.26458332"
       inkscape:connector-curvature="0" />
    <path
       id="path1001"
       d="m 140.58021,202.67469 -0.16838,-0.0348 c 0.0205,-0.0874 0.0541,-0.15028 0.10098,-0.18838 0.0467,-0.0384 0.11432,-0.0576 0.2022,-0.0576 0.0784,0 0.13814,0.0112 0.17934,0.0331 0.0412,0.0219 0.0707,0.0519 0.0886,0.09 0.0176,0.0379 0.0262,0.10694 0.0262,0.20696 l -0.001,0.2646 c 0,0.0743 0.003,0.12956 0.009,0.16599 0.006,0.0362 0.0164,0.0748 0.0324,0.11575 h -0.18315 l -0.0243,-0.0936 c -0.0314,0.0376 -0.0657,0.066 -0.10193,0.085 -0.0364,0.0191 -0.0748,0.0283 -0.11575,0.0283 -0.0683,0 -0.12432,-0.0231 -0.16791,-0.0691 -0.0436,-0.0462 -0.0655,-0.10717 -0.0655,-0.18362 0,-0.0488 0.009,-0.0907 0.0267,-0.12718 0.0179,-0.036 0.0431,-0.0648 0.0753,-0.0862 0.0324,-0.0217 0.0841,-0.0407 0.15528,-0.0574 0.086,-0.02 0.14624,-0.0383 0.18029,-0.0557 0,-0.0474 -0.003,-0.0784 -0.0102,-0.0934 -0.007,-0.0145 -0.019,-0.0267 -0.0369,-0.0362 -0.0179,-0.009 -0.0431,-0.014 -0.076,-0.014 -0.0331,0 -0.0593,0.007 -0.0784,0.0226 -0.0191,0.015 -0.0343,0.0431 -0.0462,0.0848 z m 0.24769,0.18315 c -0.0238,0.01 -0.061,0.0212 -0.11098,0.0341 -0.0579,0.015 -0.0955,0.0319 -0.11337,0.05 -0.0179,0.0183 -0.0267,0.0424 -0.0267,0.0714 0,0.0329 0.01,0.0605 0.0295,0.0831 0.0198,0.0224 0.0445,0.0336 0.0743,0.0336 0.0264,0 0.0524,-0.009 0.0784,-0.0271 0.0257,-0.0183 0.0436,-0.0398 0.0538,-0.0645 0.01,-0.0248 0.015,-0.0698 0.015,-0.13527 z"
       style="fill:#1d1d1b;fill-opacity:1;fill-rule:evenodd;stroke:none;stroke-width:0.26458332"
       inkscape:connector-curvature="0" />
    <path
       id="path1003"
       d="m 142.08517,202.67469 -0.16838,-0.0348 c 0.0205,-0.0874 0.0541,-0.15028 0.10098,-0.18838 0.0467,-0.0384 0.11432,-0.0576 0.2022,-0.0576 0.0784,0 0.13814,0.0112 0.17934,0.0331 0.0412,0.0219 0.0707,0.0519 0.0886,0.09 0.0176,0.0379 0.0264,0.10694 0.0264,0.20696 l -0.002,0.2646 c 0,0.0743 0.003,0.12956 0.009,0.16599 0.006,0.0362 0.0164,0.0748 0.0324,0.11575 h -0.18315 l -0.0243,-0.0936 c -0.0317,0.0376 -0.0657,0.066 -0.10194,0.085 -0.0364,0.0191 -0.0748,0.0283 -0.11575,0.0283 -0.0684,0 -0.12432,-0.0231 -0.1679,-0.0691 -0.0436,-0.0462 -0.0655,-0.10717 -0.0655,-0.18362 0,-0.0488 0.009,-0.0907 0.0267,-0.12718 0.0179,-0.036 0.0431,-0.0648 0.0753,-0.0862 0.0324,-0.0217 0.0841,-0.0407 0.15528,-0.0574 0.086,-0.02 0.14623,-0.0383 0.18029,-0.0557 0,-0.0474 -0.003,-0.0784 -0.0102,-0.0934 -0.007,-0.0145 -0.019,-0.0267 -0.0369,-0.0362 -0.0179,-0.009 -0.0431,-0.014 -0.076,-0.014 -0.0331,0 -0.0593,0.007 -0.0784,0.0226 -0.0191,0.015 -0.0343,0.0431 -0.0462,0.0848 z m 0.24769,0.18315 c -0.0238,0.01 -0.061,0.0212 -0.11098,0.0341 -0.0576,0.015 -0.0955,0.0319 -0.11337,0.05 -0.0179,0.0183 -0.0267,0.0424 -0.0267,0.0714 0,0.0329 0.01,0.0605 0.0295,0.0831 0.0198,0.0224 0.0445,0.0336 0.0743,0.0336 0.0262,0 0.0524,-0.009 0.0784,-0.0271 0.0257,-0.0183 0.0436,-0.0398 0.0538,-0.0645 0.01,-0.0248 0.015,-0.0698 0.015,-0.13527 z"
       style="fill:#1d1d1b;fill-opacity:1;fill-rule:evenodd;stroke:none;stroke-width:0.26458332"
       inkscape:connector-curvature="0" />
    <path
       id="path1005"
       d="m 143.04497,203.27033 h -0.18648 v -0.85642 h 0.17338 v 0.12146 c 0.0295,-0.0569 0.056,-0.0945 0.0793,-0.11336 0.0233,-0.0186 0.0505,-0.0281 0.081,-0.0281 0.0426,0 0.0829,0.0145 0.12194,0.0429 l -0.0581,0.19744 c -0.031,-0.0248 -0.0598,-0.0372 -0.0874,-0.0372 -0.0257,0 -0.0486,0.01 -0.0684,0.0286 -0.0195,0.0193 -0.0338,0.0536 -0.0424,0.1036 -0.009,0.0503 -0.0129,0.14218 -0.0129,0.27627 z"
       style="fill:#1d1d1b;fill-opacity:1;fill-rule:evenodd;stroke:none;stroke-width:0.26458332"
       inkscape:connector-curvature="0" />
    <path
       id="path1007"
       d="m 143.75303,203.27033 -0.28151,-0.85642 h 0.19601 l 0.13075,0.4375 0.0388,0.14575 0.0395,-0.14599 0.13241,-0.43726 h 0.19006 l -0.27722,0.85642 z"
       style="fill:#1d1d1b;fill-opacity:1;fill-rule:evenodd;stroke:none;stroke-width:0.26458332"
       inkscape:connector-curvature="0" />
    <path
       id="path1009"
       d="m 144.62423,202.67469 -0.16814,-0.0348 c 0.0202,-0.0874 0.0538,-0.15028 0.10074,-0.18838 0.0469,-0.0384 0.11432,-0.0576 0.2022,-0.0576 0.0784,0 0.13814,0.0112 0.17934,0.0331 0.0412,0.0219 0.0707,0.0519 0.0886,0.09 0.0176,0.0379 0.0264,0.10694 0.0264,0.20696 l -0.002,0.2646 c 0,0.0743 0.003,0.12956 0.009,0.16599 0.006,0.0362 0.0164,0.0748 0.0324,0.11575 h -0.18315 l -0.0243,-0.0936 c -0.0314,0.0376 -0.0657,0.066 -0.10194,0.085 -0.0364,0.0191 -0.0748,0.0283 -0.11574,0.0283 -0.0684,0 -0.12433,-0.0231 -0.16791,-0.0691 -0.0436,-0.0462 -0.0655,-0.10717 -0.0655,-0.18362 0,-0.0488 0.009,-0.0907 0.0267,-0.12718 0.0181,-0.036 0.0431,-0.0648 0.0753,-0.0862 0.0324,-0.0217 0.0841,-0.0407 0.15528,-0.0574 0.0862,-0.02 0.14623,-0.0383 0.18029,-0.0557 0,-0.0474 -0.003,-0.0784 -0.0102,-0.0934 -0.007,-0.0145 -0.0191,-0.0267 -0.0369,-0.0362 -0.0179,-0.009 -0.0431,-0.014 -0.076,-0.014 -0.0331,0 -0.0593,0.007 -0.0784,0.0226 -0.0188,0.015 -0.0343,0.0431 -0.0462,0.0848 z m 0.24769,0.18315 c -0.0238,0.01 -0.061,0.0212 -0.11098,0.0341 -0.0576,0.015 -0.0955,0.0319 -0.11337,0.05 -0.0179,0.0183 -0.0267,0.0424 -0.0267,0.0714 0,0.0329 0.01,0.0605 0.0295,0.0831 0.0198,0.0224 0.0445,0.0336 0.0743,0.0336 0.0264,0 0.0524,-0.009 0.0784,-0.0271 0.0257,-0.0183 0.0438,-0.0398 0.0538,-0.0645 0.01,-0.0248 0.015,-0.0698 0.015,-0.13527 z"
       style="fill:#1d1d1b;fill-opacity:1;fill-rule:evenodd;stroke:none;stroke-width:0.26458332"
       inkscape:connector-curvature="0" />
    <path
       id="path1011"
       d="m 145.72764,202.41391 v 0.17981 h -0.12718 v 0.34581 c 0,0.075 0.002,0.11812 0.006,0.13003 0.007,0.0217 0.0226,0.0324 0.0457,0.0324 0.0171,0 0.0419,-0.007 0.0741,-0.0217 l 0.0162,0.176 c -0.0429,0.0226 -0.0915,0.0338 -0.146,0.0338 -0.0474,0 -0.0853,-0.0112 -0.11384,-0.0338 -0.0283,-0.0229 -0.0476,-0.0553 -0.0574,-0.0979 -0.007,-0.0312 -0.0112,-0.0948 -0.0112,-0.19053 v -0.37415 h -0.0857 v -0.17981 h 0.0857 v -0.17005 l 0.18648,-0.13194 v 0.30199 z"
       style="fill:#1d1d1b;fill-opacity:1;fill-rule:evenodd;stroke:none;stroke-width:0.26458332"
       inkscape:connector-curvature="0" />
    <path
       id="path1013"
       d="m 146.48762,203.27033 v -0.12861 c -0.0257,0.0467 -0.0595,0.0829 -0.10146,0.10908 -0.0417,0.0262 -0.0855,0.0393 -0.13122,0.0393 -0.0462,0 -0.0874,-0.0121 -0.12385,-0.0362 -0.0367,-0.0243 -0.0641,-0.0586 -0.0817,-0.1036 -0.0179,-0.0445 -0.0272,-0.10932 -0.0272,-0.19434 v -0.54205 h 0.18648 v 0.3932 c 0,0.11241 0.003,0.18386 0.009,0.21434 0.005,0.0302 0.0179,0.0538 0.0371,0.0703 0.0193,0.0169 0.0426,0.025 0.0698,0.025 0.0312,0 0.0598,-0.011 0.0862,-0.0326 0.0262,-0.0217 0.0433,-0.0498 0.0517,-0.0838 0.008,-0.0341 0.0124,-0.10932 0.0124,-0.2253 V 202.414 h 0.18649 v 0.85642 z"
       style="fill:#1d1d1b;fill-opacity:1;fill-rule:evenodd;stroke:none;stroke-width:0.26458332"
       inkscape:connector-curvature="0" />
    <path
       id="path1015"
       d="m 147.66534,203.27033 h -0.17338 v -0.12575 c -0.0283,0.0483 -0.0619,0.0848 -0.10051,0.10884 -0.0386,0.0245 -0.0781,0.0367 -0.11884,0.0367 -0.0784,0 -0.14671,-0.0391 -0.20506,-0.11742 -0.0579,-0.0784 -0.0872,-0.19005 -0.0872,-0.33556 0,-0.14623 0.0283,-0.25698 0.0853,-0.33152 0.0567,-0.0745 0.1267,-0.1117 0.20982,-0.1117 0.0391,0 0.0757,0.01 0.10979,0.0298 0.0338,0.0203 0.0653,0.0498 0.0936,0.0898 v -0.42464 h 0.18648 z m -0.49514,-0.44631 c 0,0.0774 0.007,0.13527 0.0198,0.17338 0.0129,0.0381 0.0317,0.0667 0.0562,0.086 0.0243,0.0188 0.0519,0.0286 0.0824,0.0286 0.0407,0 0.076,-0.0221 0.10598,-0.0664 0.03,-0.0443 0.045,-0.11075 0.045,-0.19982 0,-0.0988 -0.0145,-0.16981 -0.0436,-0.21315 -0.0293,-0.0436 -0.0665,-0.0653 -0.11146,-0.0653 -0.0429,0 -0.0793,0.0212 -0.10932,0.0638 -0.03,0.0426 -0.045,0.10693 -0.045,0.19291 z"
       style="fill:#1d1d1b;fill-opacity:1;fill-rule:evenodd;stroke:none;stroke-width:0.26458332"
       inkscape:connector-curvature="0" />
    <path
       id="path1017"
       d="m 139.48276,205.15679 v -1.18151 h 0.18648 v 0.62493 l 0.21768,-0.29984 h 0.22888 l -0.24079,0.31366 0.25722,0.54276 h -0.19887 l -0.17886,-0.3851 -0.0853,0.11098 v 0.27412 z"
       style="fill:#1d1d1b;fill-opacity:1;fill-rule:evenodd;stroke:none;stroke-width:0.26458332"
       inkscape:connector-curvature="0" />
    <path
       id="path1019"
       d="m 140.87339,205.15679 v -0.12861 c -0.026,0.0467 -0.0598,0.0829 -0.10169,0.10908 -0.0417,0.0262 -0.0855,0.0393 -0.13123,0.0393 -0.0462,0 -0.0874,-0.0121 -0.12385,-0.0364 -0.0367,-0.024 -0.0638,-0.0586 -0.0817,-0.10336 -0.0179,-0.0445 -0.0272,-0.10932 -0.0272,-0.19434 v -0.54205 h 0.18649 v 0.3932 c 0,0.11241 0.003,0.18362 0.009,0.21434 0.005,0.0302 0.0179,0.0538 0.0371,0.0703 0.0193,0.0167 0.0426,0.025 0.07,0.025 0.031,0 0.0595,-0.011 0.086,-0.0326 0.0262,-0.0217 0.0434,-0.0498 0.0517,-0.0838 0.008,-0.0343 0.0124,-0.10932 0.0124,-0.2253 v -0.36105 h 0.18648 v 0.85642 z m -0.3682,-1.0067 v -0.19481 h 0.16029 v 0.19481 z m 0.28389,0 v -0.19481 h 0.16005 v 0.19481 z"
       style="fill:#1d1d1b;fill-opacity:1;fill-rule:evenodd;stroke:none;stroke-width:0.26458332"
       inkscape:connector-curvature="0" />
    <path
       id="path1021"
       d="m 141.40736,205.15679 v -1.18151 h 0.18624 v 1.18151 z"
       style="fill:#1d1d1b;fill-opacity:1;fill-rule:evenodd;stroke:none;stroke-width:0.26458332"
       inkscape:connector-curvature="0" />
    <path
       id="path1023"
       d="m 142.09303,204.56092 -0.16814,-0.0345 c 0.0202,-0.0874 0.0538,-0.15028 0.10074,-0.18838 0.0467,-0.0383 0.11432,-0.0576 0.2022,-0.0576 0.0784,0 0.13813,0.011 0.17934,0.0331 0.0412,0.0219 0.0707,0.0519 0.0886,0.09 0.0176,0.0379 0.0264,0.10694 0.0264,0.20696 l -0.002,0.2646 c 0,0.0743 0.003,0.12956 0.009,0.166 0.006,0.0362 0.0164,0.0748 0.0324,0.11574 h -0.18314 l -0.0243,-0.0936 c -0.0314,0.0376 -0.0655,0.066 -0.10193,0.085 -0.0362,0.0191 -0.0748,0.0283 -0.11575,0.0283 -0.0684,0 -0.12432,-0.0231 -0.1679,-0.0691 -0.0436,-0.0462 -0.0655,-0.10717 -0.0655,-0.18362 0,-0.0488 0.009,-0.091 0.0267,-0.12718 0.0181,-0.036 0.0431,-0.0648 0.0753,-0.0864 0.0324,-0.0214 0.0841,-0.0407 0.15528,-0.0572 0.0862,-0.02 0.14623,-0.0386 0.18029,-0.0557 0,-0.0474 -0.003,-0.0784 -0.0102,-0.0934 -0.007,-0.0145 -0.019,-0.0267 -0.0369,-0.0362 -0.0179,-0.009 -0.0431,-0.0141 -0.076,-0.0141 -0.0331,0 -0.0593,0.007 -0.0784,0.0226 -0.019,0.015 -0.0343,0.0431 -0.0462,0.0845 z m 0.24769,0.18314 c -0.0238,0.01 -0.061,0.0212 -0.11099,0.0343 -0.0576,0.015 -0.0955,0.0319 -0.11336,0.05 -0.0179,0.0183 -0.0267,0.0424 -0.0267,0.0714 0,0.0329 0.01,0.0605 0.0295,0.0831 0.0198,0.0222 0.0445,0.0336 0.0743,0.0336 0.0264,0 0.0524,-0.009 0.0784,-0.0274 0.0257,-0.0181 0.0438,-0.0395 0.0538,-0.0643 0.01,-0.0248 0.015,-0.0698 0.015,-0.13527 z"
       style="fill:#1d1d1b;fill-opacity:1;fill-rule:evenodd;stroke:none;stroke-width:0.26458332"
       inkscape:connector-curvature="0" />
    <path
       id="path1025"
       d="m 142.87468,205.15679 v -1.18151 h 0.18648 v 1.18151 z"
       style="fill:#1d1d1b;fill-opacity:1;fill-rule:evenodd;stroke:none;stroke-width:0.26458332"
       inkscape:connector-curvature="0" />
    <path
       id="path1027"
       d="m 143.42008,204.18462 v -0.20934 h 0.18648 v 0.20934 z m 0,0.97217 v -0.85642 h 0.18648 v 0.85642 z"
       style="fill:#1d1d1b;fill-opacity:1;fill-rule:evenodd;stroke:none;stroke-width:0.26458332"
       inkscape:connector-curvature="0" />
    <path
       id="path1029"
       d="m 144.6028,205.15679 h -0.18649 v -0.43774 c 0,-0.0874 -0.004,-0.14599 -0.0105,-0.17481 -0.007,-0.0293 -0.02,-0.0514 -0.0391,-0.0672 -0.0191,-0.0157 -0.0407,-0.0233 -0.065,-0.0233 -0.031,0 -0.0591,0.0103 -0.0843,0.0303 -0.0255,0.02 -0.0431,0.0481 -0.0531,0.0836 -0.0102,0.0355 -0.0155,0.10241 -0.0155,0.20077 v 0.38844 h -0.18649 v -0.85642 h 0.17339 v 0.12503 c 0.0305,-0.0481 0.065,-0.0843 0.10336,-0.1086 0.0386,-0.0243 0.081,-0.0364 0.12766,-0.0364 0.0541,0 0.10003,0.0141 0.13718,0.0424 0.0374,0.0283 0.0633,0.0648 0.0774,0.10907 0.0143,0.0443 0.0214,0.1086 0.0214,0.19244 z"
       style="fill:#1d1d1b;fill-opacity:1;fill-rule:evenodd;stroke:none;stroke-width:0.26458332"
       inkscape:connector-curvature="0" />
    <path
       id="path1031"
       d="m 145.36944,204.88434 0.18482,0.0381 c -0.0248,0.086 -0.0634,0.1498 -0.11551,0.19172 -0.0524,0.0414 -0.11575,0.0624 -0.19077,0.0624 -0.10384,0 -0.18386,-0.0348 -0.24054,-0.10432 -0.0669,-0.0805 -0.10003,-0.19362 -0.10003,-0.3389 0,-0.14313 0.0336,-0.25792 0.1005,-0.3439 0.0569,-0.0726 0.13075,-0.10908 0.22102,-0.10908 0.10027,0 0.17886,0.0372 0.23602,0.11146 0.0655,0.085 0.0984,0.21054 0.0984,0.37606 l -7.1e-4,0.0257 h -0.46538 c 9.6e-4,0.0676 0.0162,0.12027 0.0457,0.15742 0.0295,0.0371 0.065,0.0555 0.10646,0.0555 0.06,0 0.0998,-0.0407 0.12003,-0.12217 z m 0.01,-0.22935 c -0.002,-0.0667 -0.0162,-0.11718 -0.0431,-0.15076 -0.0269,-0.0338 -0.0588,-0.0505 -0.0962,-0.0505 -0.0393,0 -0.0724,0.0176 -0.0993,0.0524 -0.0274,0.0357 -0.041,0.0855 -0.0405,0.14885 z"
       style="fill:#1d1d1b;fill-opacity:1;fill-rule:evenodd;stroke:none;stroke-width:0.26458332"
       inkscape:connector-curvature="0" />
  </g>
</svg>
