<?xml version="1.0" encoding="UTF-8" standalone="no"?>
<!-- Created with Inkscape (http://www.inkscape.org/) -->

<svg
   xmlns:dc="http://purl.org/dc/elements/1.1/"
   xmlns:cc="http://creativecommons.org/ns#"
   xmlns:rdf="http://www.w3.org/1999/02/22-rdf-syntax-ns#"
   xmlns:svg="http://www.w3.org/2000/svg"
   xmlns="http://www.w3.org/2000/svg"
   xmlns:sodipodi="http://sodipodi.sourceforge.net/DTD/sodipodi-0.dtd"
   xmlns:inkscape="http://www.inkscape.org/namespaces/inkscape"
   width="13.783mm"
   height="13.783mm"
   viewBox="0 0 13.783001 13.783001"
   version="1.1"
   id="svg8"
   inkscape:version="0.92.2 (5c3e80d, 2017-08-06)"
   sodipodi:docname="313a.svg">
  <defs
     id="defs2">
    <pattern
       y="0"
       x="0"
       height="6"
       width="6"
       patternUnits="userSpaceOnUse"
       id="EMFhbasepattern" />
    <pattern
       y="0"
       x="0"
       height="6"
       width="6"
       patternUnits="userSpaceOnUse"
       id="EMFhbasepattern-2" />
    <pattern
       y="0"
       x="0"
       height="6"
       width="6"
       patternUnits="userSpaceOnUse"
       id="EMFhbasepattern-7" />
    <pattern
       y="0"
       x="0"
       height="6"
       width="6"
       patternUnits="userSpaceOnUse"
       id="EMFhbasepattern-3" />
    <pattern
       y="0"
       x="0"
       height="6"
       width="6"
       patternUnits="userSpaceOnUse"
       id="EMFhbasepattern-5" />
    <pattern
       y="0"
       x="0"
       height="6"
       width="6"
       patternUnits="userSpaceOnUse"
       id="EMFhbasepattern-28" />
    <pattern
       y="0"
       x="0"
       height="6"
       width="6"
       patternUnits="userSpaceOnUse"
       id="EMFhbasepattern-56" />
    <pattern
       y="0"
       x="0"
       height="6"
       width="6"
       patternUnits="userSpaceOnUse"
       id="EMFhbasepattern-1" />
    <pattern
       y="0"
       x="0"
       height="6"
       width="6"
       patternUnits="userSpaceOnUse"
       id="EMFhbasepattern-73" />
    <pattern
       y="0"
       x="0"
       height="6"
       width="6"
       patternUnits="userSpaceOnUse"
       id="EMFhbasepattern-0" />
    <pattern
       y="0"
       x="0"
       height="6"
       width="6"
       patternUnits="userSpaceOnUse"
       id="EMFhbasepattern-8" />
  </defs>
  <sodipodi:namedview
     id="base"
     pagecolor="#ffffff"
     bordercolor="#666666"
     borderopacity="1.0"
     inkscape:pageopacity="0.0"
     inkscape:pageshadow="2"
     inkscape:zoom="5.6"
     inkscape:cx="-33.913724"
     inkscape:cy="60.818394"
     inkscape:document-units="mm"
     inkscape:current-layer="layer1"
     showgrid="false"
     fit-margin-top="0"
     fit-margin-left="0"
     fit-margin-right="0"
     fit-margin-bottom="0"
     inkscape:window-width="1920"
     inkscape:window-height="1027"
     inkscape:window-x="-8"
     inkscape:window-y="-8"
     inkscape:window-maximized="1" />
  <metadata
     id="metadata5">
    <rdf:RDF>
      <cc:Work
         rdf:about="">
        <dc:format>image/svg+xml</dc:format>
        <dc:type
           rdf:resource="http://purl.org/dc/dcmitype/StillImage" />
        <dc:title />
      </cc:Work>
    </rdf:RDF>
  </metadata>
  <g
     inkscape:label="Layer 1"
     inkscape:groupmode="layer"
     id="layer1"
     transform="translate(-144.52932,-211.56562)">
    <path
       style="fill:#ffffff;fill-opacity:1;fill-rule:evenodd;stroke:none;stroke-width:0.26458332"
       d="m 151.71066,212.85335 0.28556,0.0217 0.2808,0.0357 0.27603,0.0493 0.27103,0.0624 0.26603,0.0755 0.26031,0.0881 0.25436,0.10026 0.24817,0.11217 0.24173,0.12385 0.23507,0.13503 0.22768,0.146 0.22007,0.1567 0.2122,0.16672 0.20387,0.17647 0.19505,0.18624 0.18601,0.19506 0.17672,0.20386 0.16671,0.2122 0.15648,0.22006 0.14599,0.22768 0.13528,0.23506 0.1236,0.24174 0.11242,0.24816 0.10026,0.25435 0.0881,0.26031 0.0755,0.26579 0.0624,0.27102 0.0493,0.27627 0.0357,0.28079 0.0217,0.28531 0.007,0.29008 -0.007,0.28984 -0.0217,0.28531 -0.0357,0.28103 -0.0493,0.27603 -0.0624,0.27102 -0.0755,0.26579 -0.0881,0.26031 -0.10026,0.25435 -0.11242,0.2484 -0.1236,0.24173 -0.13528,0.23483 -0.14599,0.22768 -0.15648,0.2203 -0.16671,0.2122 -0.17672,0.20362 -0.18601,0.19529 -0.19505,0.18601 -0.20387,0.17647 -0.2122,0.16672 -0.22007,0.1567 -0.22768,0.146 -0.23507,0.13503 -0.24173,0.12385 -0.24817,0.11217 -0.25436,0.10026 -0.26031,0.0881 -0.26579,0.0755 -0.27127,0.0626 -0.27603,0.0493 -0.2808,0.0357 -0.28556,0.0217 -0.28984,0.007 -0.28985,-0.007 -0.28532,-0.0217 -0.28103,-0.0357 -0.27603,-0.0493 -0.27103,-0.0626 -0.26579,-0.0755 -0.26031,-0.0881 -0.25436,-0.10026 -0.24841,-0.11217 -0.24173,-0.12385 -0.23483,-0.13503 -0.22769,-0.146 -0.2203,-0.1567 -0.2122,-0.16672 -0.20363,-0.17647 -0.19529,-0.18601 -0.18601,-0.19529 -0.17648,-0.20362 -0.16695,-0.2122 -0.15648,-0.2203 -0.14599,-0.22768 -0.13504,-0.23483 -0.12384,-0.24173 -0.11218,-0.2484 -0.10027,-0.25435 -0.0881,-0.26031 -0.0755,-0.26579 -0.0626,-0.27102 -0.0493,-0.27603 -0.0357,-0.28103 -0.0217,-0.28531 -0.007,-0.28984 0.007,-0.29008 0.0217,-0.28531 0.0357,-0.28079 0.0493,-0.27627 0.0626,-0.27102 0.0755,-0.26579 0.0881,-0.26031 0.10027,-0.25435 0.11218,-0.24816 0.12384,-0.24174 0.13504,-0.23506 0.14599,-0.22768 0.15648,-0.22006 0.16695,-0.2122 0.17648,-0.20386 0.18601,-0.19506 0.19529,-0.18624 0.20363,-0.17647 0.2122,-0.16672 0.2203,-0.15647 0.22769,-0.14623 0.23483,-0.13503 0.24173,-0.12385 0.24841,-0.11217 0.25436,-0.10026 0.26031,-0.0881 0.26579,-0.0755 0.27103,-0.0624 0.27603,-0.0493 0.28103,-0.0357 0.28532,-0.0217 0.28985,-0.007 z"
       id="path831" />
    <path
       id="path1071"
       d="m 148.46331,220.10697 c 0,-0.22768 0.18457,-0.41202 0.41226,-0.41202 0.22768,0 0.41226,0.18434 0.41226,0.41226 0,0.22744 -0.18458,0.41201 -0.41226,0.41201 -0.22769,0 -0.41226,-0.18457 -0.41226,-0.41225 z m -0.41227,0 c 0,-0.45536 0.36916,-0.82451 0.82453,-0.82451 0.45536,2.4e-4 0.82452,0.36939 0.82452,0.82475 0,0.45536 -0.36916,0.82451 -0.82476,0.82427 -0.45537,0 -0.82429,-0.36915 -0.82429,-0.82451 z m 5.45705,0 c 2.3e-4,-0.22768 0.18481,-0.41202 0.41226,-0.41202 0.22792,0 0.4125,0.18434 0.41226,0.41226 0,0.22744 -0.18458,0.41201 -0.41226,0.41201 -0.22769,0 -0.41226,-0.18457 -0.41226,-0.41225 z m -0.41203,0 c 0,-0.45536 0.36916,-0.82451 0.82452,-0.82451 0.45537,2.4e-4 0.82429,0.36939 0.82429,0.82475 0,0.45536 -0.36916,0.82451 -0.82452,0.82427 -0.45537,0 -0.82453,-0.36915 -0.82429,-0.82451 z m -2.89559,-4.09801 5.70568,0.01 -2.3e-4,4.04704 h -0.96862 c -0.10026,-1.30654 -1.95937,-1.32726 -2.04177,0.0105 h -2.99896 c -0.0576,-1.3356 -1.99128,-1.3175 -2.04654,-0.011 -0.0105,-10e-4 -0.66876,4.8e-4 -0.66876,4.8e-4 -0.15195,0.0155 -0.16719,-0.166 -0.21578,-0.29651 -0.04,-0.27031 -0.0879,-0.66446 -0.12789,-1.08934 -0.0114,-0.12146 0.0545,-0.31294 0.15195,-0.45584 0.23173,-0.33985 0.37558,-0.5099 0.61541,-0.84999 0.11242,-0.15909 0.20006,-0.28246 0.41989,-0.28246 0.51895,-0.0117 1.66547,0 1.67762,0 0.0121,0 0.16886,0 0.13266,0.2334 0.002,0.0238 0,1.85479 0,1.85479 0,0 0.36915,2.3e-4 0.36915,2.3e-4 v 0 z m -2.41474,1.47445 c -0.0896,0.1236 -0.48966,0.67923 -0.57064,0.80259 -0.081,0.12361 -0.12361,0.18124 0.0298,0.18124 0.15314,0 1.57117,0 1.75836,0 0.18744,0 0.23412,0.0331 0.23435,-0.1398 0,-0.1729 0,-0.76973 0,-0.885 0,-0.11527 -0.009,-0.15647 -0.13194,-0.15647 -0.1236,0 -0.79618,0 -0.89001,0 -0.25103,0 -0.29795,0.0205 -0.42989,0.19744 z"
       style="fill:#1d1d1b;fill-opacity:1;fill-rule:evenodd;stroke:none;stroke-width:0.26458332"
       inkscape:connector-curvature="0" />
    <path
       id="path1073"
       d="m 152.14246,217.39529 c -0.0769,-0.0407 -0.13552,-0.0953 -0.17458,-0.16529 -0.0393,-0.0698 -0.0586,-0.15361 -0.0586,-0.25221 0,-0.15861 0.0448,-0.28484 0.1348,-0.37939 0.0898,-0.0938 0.21102,-0.14099 0.36344,-0.14099 0.16124,0 0.28437,0.0505 0.36892,0.151 0.0843,0.1005 0.12622,0.22268 0.12622,0.367 0,0.0981 -0.0207,0.18291 -0.0617,0.25507 -0.041,0.0722 -0.0972,0.12694 -0.16838,0.16481 0.0953,0.0462 0.16647,0.11074 0.21315,0.19386 0.0472,0.0833 0.0707,0.18576 0.0707,0.30746 0,0.12504 -0.0231,0.23554 -0.0693,0.33104 -0.0467,0.096 -0.11074,0.16957 -0.19243,0.21982 -0.0817,0.0505 -0.17362,0.076 -0.27556,0.076 -0.15981,0 -0.29199,-0.0555 -0.3963,-0.16648 -0.10408,-0.11074 -0.156,-0.2603 -0.156,-0.44797 0,-0.1217 0.0236,-0.22602 0.0712,-0.31342 0.0476,-0.0876 0.11551,-0.15409 0.20435,-0.20029 z m 0.0669,-0.38916 c 0,0.0784 0.0183,0.13861 0.0555,0.18053 0.0374,0.0419 0.0846,0.0634 0.14123,0.0634 0.0579,0 0.10551,-0.0214 0.1429,-0.0634 0.0376,-0.0419 0.0564,-0.10217 0.0564,-0.18053 0,-0.076 -0.0183,-0.13503 -0.0555,-0.17695 -0.0374,-0.0419 -0.0841,-0.0631 -0.13956,-0.0631 -0.0591,0 -0.10717,0.0212 -0.14457,0.0636 -0.0376,0.0424 -0.0564,0.10145 -0.0564,0.17647 z m -0.0312,0.86595 c 0,0.10908 0.0231,0.19243 0.0688,0.2515 0.0457,0.0588 0.10098,0.0886 0.16505,0.0886 0.0648,0 0.1186,-0.0283 0.16195,-0.0843 0.0438,-0.0562 0.0655,-0.14075 0.0655,-0.25292 0,-0.0967 -0.0222,-0.17314 -0.0669,-0.22911 -0.0443,-0.0562 -0.0991,-0.0846 -0.1641,-0.0846 -0.0648,0 -0.11884,0.0283 -0.16338,0.085 -0.0448,0.0564 -0.0669,0.13194 -0.0669,0.22577 z"
       style="fill:#fcffff;fill-opacity:1;fill-rule:evenodd;stroke:none;stroke-width:0.26458332"
       inkscape:connector-curvature="0" />
    <path
       id="path1075"
       d="m 154.06753,217.02066 v 0.30866 h -0.21792 v 0.59277 c 0,0.12885 0.003,0.20292 0.01,0.22316 0.0129,0.0371 0.0391,0.0557 0.0788,0.0557 0.0293,0 0.0717,-0.0124 0.12694,-0.0374 l 0.0279,0.30198 c -0.0736,0.0386 -0.15718,0.0579 -0.25055,0.0579 -0.0812,0 -0.14623,-0.0193 -0.19529,-0.0579 -0.0486,-0.0393 -0.0817,-0.0948 -0.0981,-0.1679 -0.0129,-0.0533 -0.0193,-0.16242 -0.0193,-0.32699 v -0.64136 h -0.14719 v -0.30866 h 0.14719 v -0.29151 l 0.31961,-0.22649 v 0.518 z"
       style="fill:#fcffff;fill-opacity:1;fill-rule:evenodd;stroke:none;stroke-width:0.26458332"
       inkscape:connector-curvature="0" />
    <path
       id="path1077"
       d="m 151.71066,212.85335 0.28556,0.0217 0.2808,0.0357 0.27603,0.0493 0.27103,0.0624 0.26603,0.0755 0.26031,0.0881 0.25436,0.10026 0.24817,0.11217 0.24173,0.12385 0.23507,0.13503 0.22768,0.146 0.22007,0.1567 0.2122,0.16672 0.20387,0.17647 0.19505,0.18624 0.18601,0.19506 0.17672,0.20386 0.16671,0.2122 0.15648,0.22006 0.14599,0.22768 0.13528,0.23506 0.1236,0.24174 0.11242,0.24816 0.10026,0.25435 0.0881,0.26031 0.0755,0.26579 0.0624,0.27102 0.0493,0.27627 0.0357,0.28079 0.0217,0.28531 0.007,0.29008 -0.007,0.28984 -0.0217,0.28531 -0.0357,0.28103 -0.0493,0.27603 -0.0624,0.27102 -0.0755,0.26579 -0.0881,0.26031 -0.10026,0.25435 -0.11242,0.2484 -0.1236,0.24173 -0.13528,0.23483 -0.14599,0.22768 -0.15648,0.2203 -0.16671,0.2122 -0.17672,0.20362 -0.18601,0.19529 -0.19505,0.18601 -0.20387,0.17647 -0.2122,0.16672 -0.22007,0.1567 -0.22768,0.146 -0.23507,0.13503 -0.24173,0.12385 -0.24817,0.11217 -0.25436,0.10026 -0.26031,0.0881 -0.26579,0.0755 -0.27127,0.0626 -0.27603,0.0493 -0.2808,0.0357 -0.28556,0.0217 -0.28984,0.007 -0.28985,-0.007 -0.28532,-0.0217 -0.28103,-0.0357 -0.27603,-0.0493 -0.27103,-0.0626 -0.26579,-0.0755 -0.26031,-0.0881 -0.25436,-0.10026 -0.24841,-0.11217 -0.24173,-0.12385 -0.23483,-0.13503 -0.22769,-0.146 -0.2203,-0.1567 -0.2122,-0.16672 -0.20363,-0.17647 -0.19529,-0.18601 -0.18601,-0.19529 -0.17648,-0.20362 -0.16695,-0.2122 -0.15648,-0.2203 -0.14599,-0.22768 -0.13504,-0.23483 -0.12384,-0.24173 -0.11218,-0.2484 -0.10027,-0.25435 -0.0881,-0.26031 -0.0755,-0.26579 -0.0626,-0.27102 -0.0493,-0.27603 -0.0357,-0.28103 -0.0217,-0.28531 -0.007,-0.28984 0.007,-0.29008 0.0217,-0.28531 0.0357,-0.28079 0.0493,-0.27627 0.0626,-0.27102 0.0755,-0.26579 0.0881,-0.26031 0.10027,-0.25435 0.11218,-0.24816 0.12384,-0.24174 0.13504,-0.23506 0.14599,-0.22768 0.15648,-0.22006 0.16695,-0.2122 0.17648,-0.20386 0.18601,-0.19506 0.19529,-0.18624 0.20363,-0.17647 0.2122,-0.16672 0.2203,-0.15647 0.22769,-0.14623 0.23483,-0.13503 0.24173,-0.12385 0.24841,-0.11217 0.25436,-0.10026 0.26031,-0.0881 0.26579,-0.0755 0.27103,-0.0624 0.27603,-0.0493 0.28103,-0.0357 0.28532,-0.0217 0.28985,-0.007 z m -0.28984,-1.28773 c 3.80609,0 6.8915,3.08559 6.8915,6.89162 0,3.80602 -3.08541,6.89138 -6.8915,6.89138 -3.80609,0 -6.8915,-3.08536 -6.8915,-6.89138 0,-3.80603 3.08541,-6.89162 6.8915,-6.89162 z"
       style="fill:#e02726;fill-opacity:1;fill-rule:evenodd;stroke:none;stroke-width:0.26458332"
       inkscape:connector-curvature="0" />
  </g>
</svg>
