<?xml version="1.0" encoding="UTF-8" standalone="no"?>
<!-- Created with Inkscape (http://www.inkscape.org/) -->

<svg
   xmlns:dc="http://purl.org/dc/elements/1.1/"
   xmlns:cc="http://creativecommons.org/ns#"
   xmlns:rdf="http://www.w3.org/1999/02/22-rdf-syntax-ns#"
   xmlns:svg="http://www.w3.org/2000/svg"
   xmlns="http://www.w3.org/2000/svg"
   xmlns:sodipodi="http://sodipodi.sourceforge.net/DTD/sodipodi-0.dtd"
   xmlns:inkscape="http://www.inkscape.org/namespaces/inkscape"
   width="13.783mm"
   height="13.783mm"
   viewBox="0 0 13.783001 13.783001"
   version="1.1"
   id="svg8"
   inkscape:version="0.92.2 (5c3e80d, 2017-08-06)"
   sodipodi:docname="351.svg">
  <defs
     id="defs2">
    <pattern
       y="0"
       x="0"
       height="6"
       width="6"
       patternUnits="userSpaceOnUse"
       id="EMFhbasepattern" />
    <pattern
       y="0"
       x="0"
       height="6"
       width="6"
       patternUnits="userSpaceOnUse"
       id="EMFhbasepattern-2" />
    <pattern
       y="0"
       x="0"
       height="6"
       width="6"
       patternUnits="userSpaceOnUse"
       id="EMFhbasepattern-7" />
    <pattern
       y="0"
       x="0"
       height="6"
       width="6"
       patternUnits="userSpaceOnUse"
       id="EMFhbasepattern-3" />
    <pattern
       y="0"
       x="0"
       height="6"
       width="6"
       patternUnits="userSpaceOnUse"
       id="EMFhbasepattern-5" />
    <pattern
       y="0"
       x="0"
       height="6"
       width="6"
       patternUnits="userSpaceOnUse"
       id="EMFhbasepattern-28" />
    <pattern
       y="0"
       x="0"
       height="6"
       width="6"
       patternUnits="userSpaceOnUse"
       id="EMFhbasepattern-56" />
    <pattern
       y="0"
       x="0"
       height="6"
       width="6"
       patternUnits="userSpaceOnUse"
       id="EMFhbasepattern-1" />
    <pattern
       y="0"
       x="0"
       height="6"
       width="6"
       patternUnits="userSpaceOnUse"
       id="EMFhbasepattern-73" />
    <pattern
       y="0"
       x="0"
       height="6"
       width="6"
       patternUnits="userSpaceOnUse"
       id="EMFhbasepattern-0" />
    <pattern
       y="0"
       x="0"
       height="6"
       width="6"
       patternUnits="userSpaceOnUse"
       id="EMFhbasepattern-8" />
    <pattern
       y="0"
       x="0"
       height="6"
       width="6"
       patternUnits="userSpaceOnUse"
       id="EMFhbasepattern-32" />
    <pattern
       y="0"
       x="0"
       height="6"
       width="6"
       patternUnits="userSpaceOnUse"
       id="EMFhbasepattern-24" />
    <pattern
       y="0"
       x="0"
       height="6"
       width="6"
       patternUnits="userSpaceOnUse"
       id="EMFhbasepattern-4" />
    <pattern
       y="0"
       x="0"
       height="6"
       width="6"
       patternUnits="userSpaceOnUse"
       id="EMFhbasepattern-9" />
    <pattern
       y="0"
       x="0"
       height="6"
       width="6"
       patternUnits="userSpaceOnUse"
       id="EMFhbasepattern-81" />
  </defs>
  <sodipodi:namedview
     id="base"
     pagecolor="#ffffff"
     bordercolor="#666666"
     borderopacity="1.0"
     inkscape:pageopacity="0.0"
     inkscape:pageshadow="2"
     inkscape:zoom="5.6"
     inkscape:cx="-80.030725"
     inkscape:cy="69.469176"
     inkscape:document-units="mm"
     inkscape:current-layer="layer1"
     showgrid="false"
     fit-margin-top="0"
     fit-margin-left="0"
     fit-margin-right="0"
     fit-margin-bottom="0"
     inkscape:window-width="1920"
     inkscape:window-height="1027"
     inkscape:window-x="-8"
     inkscape:window-y="-8"
     inkscape:window-maximized="1" />
  <metadata
     id="metadata5">
    <rdf:RDF>
      <cc:Work
         rdf:about="">
        <dc:format>image/svg+xml</dc:format>
        <dc:type
           rdf:resource="http://purl.org/dc/dcmitype/StillImage" />
        <dc:title />
      </cc:Work>
    </rdf:RDF>
  </metadata>
  <g
     inkscape:label="Layer 1"
     inkscape:groupmode="layer"
     id="layer1"
     transform="translate(-156.73111,-208.18483)">
    <path
       style="fill:#ffffff;fill-opacity:1;fill-rule:evenodd;stroke:none;stroke-width:0.26458332"
       d="m 163.91233,209.47232 0.28555,0.0217 0.28079,0.0357 0.27627,0.0493 0.27102,0.0626 0.26579,0.0755 0.26031,0.0881 0.25435,0.10026 0.24817,0.11217 0.24173,0.12385 0.23482,0.13503 0.22792,0.146 0.22006,0.15647 0.2122,0.16695 0.20386,0.17647 0.19506,0.18601 0.186,0.19529 0.17671,0.20386 0.16672,0.2122 0.15647,0.22006 0.14599,0.22768 0.13527,0.23483 0.12361,0.24173 0.11241,0.2484 0.10026,0.25435 0.0881,0.26031 0.0755,0.26579 0.0624,0.27102 0.0493,0.27603 0.0357,0.28079 0.0217,0.28555 0.007,0.28984 -0.007,0.29008 -0.0217,0.28531 -0.0357,0.28079 -0.0493,0.27627 -0.0624,0.27102 -0.0755,0.26579 -0.0881,0.26031 -0.10026,0.25435 -0.11241,0.24817 -0.12361,0.24173 -0.13527,0.23506 -0.14599,0.22768 -0.15647,0.22006 -0.16672,0.2122 -0.17671,0.20386 -0.186,0.19529 -0.19506,0.18601 -0.20386,0.17647 -0.2122,0.16672 -0.22006,0.1567 -0.22792,0.14576 -0.23482,0.13527 -0.24173,0.12361 -0.24817,0.11241 -0.25435,0.10026 -0.26031,0.0881 -0.26579,0.0755 -0.27102,0.0624 -0.27627,0.0493 -0.28079,0.0357 -0.28555,0.0217 -0.28984,0.007 -0.28984,-0.007 -0.28555,-0.0217 -0.28079,-0.0357 -0.27603,-0.0493 -0.27102,-0.0624 -0.26579,-0.0755 -0.26031,-0.0881 -0.25435,-0.10026 -0.2484,-0.11241 -0.24173,-0.12361 -0.23483,-0.13527 -0.22768,-0.14576 -0.22006,-0.1567 -0.2122,-0.16672 -0.20386,-0.17647 -0.19529,-0.18601 -0.18601,-0.19529 -0.17647,-0.20386 -0.16695,-0.2122 -0.15647,-0.22006 -0.146,-0.22768 -0.13503,-0.23506 -0.12385,-0.24173 -0.11217,-0.24817 -0.1005,-0.25435 -0.0879,-0.26031 -0.0755,-0.26579 -0.0626,-0.27102 -0.0493,-0.27627 -0.0357,-0.28079 -0.0217,-0.28531 -0.007,-0.29008 0.007,-0.28984 0.0217,-0.28555 0.0357,-0.28079 0.0493,-0.27603 0.0626,-0.27102 0.0755,-0.26579 0.0879,-0.26031 0.1005,-0.25435 0.11217,-0.2484 0.12385,-0.24173 0.13503,-0.23483 0.146,-0.22768 0.15647,-0.22006 0.16695,-0.2122 0.17647,-0.20386 0.18601,-0.19529 0.19529,-0.18601 0.20386,-0.17647 0.2122,-0.16695 0.22006,-0.15647 0.22768,-0.146 0.23483,-0.13503 0.24173,-0.12385 0.2484,-0.11217 0.25435,-0.10026 0.26031,-0.0881 0.26579,-0.0755 0.27102,-0.0626 0.27603,-0.0493 0.28079,-0.0357 0.28555,-0.0217 0.28984,-0.007 z"
       id="path838" />
    <path
       id="path1157"
       d="m 163.91233,209.47232 0.28555,0.0217 0.28079,0.0357 0.27627,0.0493 0.27102,0.0626 0.26579,0.0755 0.26031,0.0881 0.25435,0.10026 0.24817,0.11217 0.24173,0.12385 0.23482,0.13503 0.22792,0.146 0.22006,0.15647 0.2122,0.16695 0.20386,0.17647 0.19506,0.18601 0.186,0.19529 0.17671,0.20386 0.16672,0.2122 0.15647,0.22006 0.14599,0.22768 0.13527,0.23483 0.12361,0.24173 0.11241,0.2484 0.10026,0.25435 0.0881,0.26031 0.0755,0.26579 0.0624,0.27102 0.0493,0.27603 0.0357,0.28079 0.0217,0.28555 0.007,0.28984 -0.007,0.29008 -0.0217,0.28531 -0.0357,0.28079 -0.0493,0.27627 -0.0624,0.27102 -0.0755,0.26579 -0.0881,0.26031 -0.10026,0.25435 -0.11241,0.24817 -0.12361,0.24173 -0.13527,0.23506 -0.14599,0.22768 -0.15647,0.22006 -0.16672,0.2122 -0.17671,0.20386 -0.186,0.19529 -0.19506,0.18601 -0.20386,0.17647 -0.2122,0.16672 -0.22006,0.1567 -0.22792,0.14576 -0.23482,0.13527 -0.24173,0.12361 -0.24817,0.11241 -0.25435,0.10026 -0.26031,0.0881 -0.26579,0.0755 -0.27102,0.0624 -0.27627,0.0493 -0.28079,0.0357 -0.28555,0.0217 -0.28984,0.007 -0.28984,-0.007 -0.28555,-0.0217 -0.28079,-0.0357 -0.27603,-0.0493 -0.27102,-0.0624 -0.26579,-0.0755 -0.26031,-0.0881 -0.25435,-0.10026 -0.2484,-0.11241 -0.24173,-0.12361 -0.23483,-0.13527 -0.22768,-0.14576 -0.22006,-0.1567 -0.2122,-0.16672 -0.20386,-0.17647 -0.19529,-0.18601 -0.18601,-0.19529 -0.17647,-0.20386 -0.16695,-0.2122 -0.15647,-0.22006 -0.146,-0.22768 -0.13503,-0.23506 -0.12385,-0.24173 -0.11217,-0.24817 -0.1005,-0.25435 -0.0879,-0.26031 -0.0755,-0.26579 -0.0626,-0.27102 -0.0493,-0.27627 -0.0357,-0.28079 -0.0217,-0.28531 -0.007,-0.29008 0.007,-0.28984 0.0217,-0.28555 0.0357,-0.28079 0.0493,-0.27603 0.0626,-0.27102 0.0755,-0.26579 0.0879,-0.26031 0.1005,-0.25435 0.11217,-0.2484 0.12385,-0.24173 0.13503,-0.23483 0.146,-0.22768 0.15647,-0.22006 0.16695,-0.2122 0.17647,-0.20386 0.18601,-0.19529 0.19529,-0.18601 0.20386,-0.17647 0.2122,-0.16695 0.22006,-0.15647 0.22768,-0.146 0.23483,-0.13503 0.24173,-0.12385 0.2484,-0.11217 0.25435,-0.10026 0.26031,-0.0881 0.26579,-0.0755 0.27102,-0.0626 0.27603,-0.0493 0.28079,-0.0357 0.28555,-0.0217 0.28984,-0.007 z m -0.28984,-1.28749 c 3.80603,0 6.89162,3.08536 6.89162,6.89138 0,3.80603 -3.08559,6.89162 -6.89162,6.89162 -3.80602,0 -6.89138,-3.08559 -6.89138,-6.89162 0,-3.80602 3.08536,-6.89138 6.89138,-6.89138 z"
       style="fill:#e02726;fill-opacity:1;fill-rule:evenodd;stroke:none;stroke-width:0.26458332"
       inkscape:connector-curvature="0" />
    <path
       id="path1159"
       d="m 160.18656,216.42395 0.8993,-0.13194 c 0.025,0.27794 0.1005,0.49085 0.22839,0.63803 0.12932,0.14719 0.28055,0.22006 0.45536,0.22006 0.18958,0 0.34914,-0.0867 0.48132,-0.26126 0.13051,-0.17457 0.19648,-0.41535 0.19648,-0.72329 0,-0.28746 -0.0631,-0.51299 -0.18957,-0.67661 -0.1267,-0.16361 -0.27936,-0.24483 -0.45941,-0.24483 -0.11837,0 -0.26007,0.0288 -0.42369,0.0853 l 0.10051,-0.92691 c 0.24197,0.005 0.43321,-0.0593 0.57467,-0.19267 0.13909,-0.13194 0.20792,-0.32033 0.20792,-0.56254 0,-0.20195 -0.0495,-0.36152 -0.15004,-0.47584 -0.10027,-0.11408 -0.2284,-0.17195 -0.38511,-0.17195 -0.15671,0 -0.29293,0.0662 -0.40701,0.19958 -0.11551,0.13337 -0.18291,0.33152 -0.20482,0.59278 l -0.85832,-0.17338 c 0.0893,-0.54324 0.26269,-0.93645 0.52133,-1.1827 0.25697,-0.24602 0.58301,-0.36844 0.97645,-0.36844 0.43988,0 0.79069,0.15671 1.05052,0.47013 0.26007,0.31366 0.38939,0.66018 0.38939,1.03981 0,0.25721 -0.0579,0.48965 -0.17481,0.6959 -0.1167,0.20624 -0.2915,0.38653 -0.52395,0.54181 0.2696,0.0729 0.48966,0.23244 0.65875,0.47989 0.16909,0.24626 0.25436,0.55587 0.25436,0.92716 0,0.53895 -0.16076,0.98598 -0.48133,1.3394 -0.32032,0.35343 -0.70257,0.52943 -1.14554,0.52943 -0.42488,0 -0.78378,-0.14837 -1.07815,-0.44702 -0.29294,-0.29842 -0.46489,-0.704 -0.513,-1.21986 z"
       style="fill:#1d1d1b;fill-opacity:1;fill-rule:evenodd;stroke:none;stroke-width:0.26458332"
       inkscape:connector-curvature="0" />
    <path
       id="path1161"
       d="m 165.74092,212.0673 c 0.46893,0 0.84856,0.22268 1.13888,0.66971 0.29008,0.44679 0.4344,1.22795 0.4344,2.34349 0,1.11387 -0.14432,1.8936 -0.4344,2.34063 -0.29032,0.44702 -0.66852,0.6697 -1.13459,0.6697 -0.47037,0 -0.85,-0.22149 -1.14031,-0.66422 -0.29008,-0.44274 -0.4344,-1.22819 -0.4344,-2.35707 0,-1.10863 0.14432,-1.88574 0.4344,-2.33253 0.29031,-0.44703 0.66851,-0.66971 1.13602,-0.66971 z m 0.001,0.9405 c -0.18148,0 -0.32723,0.12098 -0.43607,0.36176 -0.1086,0.24054 -0.16219,0.81141 -0.16219,1.71094 0,0.90072 0.0536,1.47016 0.16219,1.7107 0.10884,0.23935 0.25459,0.3589 0.43607,0.3589 0.18433,0 0.33009,-0.12098 0.43726,-0.36152 0.10741,-0.24078 0.16099,-0.81022 0.16099,-1.70808 0,-0.89953 -0.0536,-1.4704 -0.16099,-1.71094 -0.10717,-0.24078 -0.25293,-0.36176 -0.43726,-0.36176 z"
       style="fill:#1d1d1b;fill-opacity:1;fill-rule:evenodd;stroke:none;stroke-width:0.26458332"
       inkscape:connector-curvature="0" />
  </g>
</svg>
