<?xml version="1.0" encoding="UTF-8" standalone="no"?>
<!-- Created with Inkscape (http://www.inkscape.org/) -->

<svg
   xmlns:dc="http://purl.org/dc/elements/1.1/"
   xmlns:cc="http://creativecommons.org/ns#"
   xmlns:rdf="http://www.w3.org/1999/02/22-rdf-syntax-ns#"
   xmlns:svg="http://www.w3.org/2000/svg"
   xmlns="http://www.w3.org/2000/svg"
   xmlns:sodipodi="http://sodipodi.sourceforge.net/DTD/sodipodi-0.dtd"
   xmlns:inkscape="http://www.inkscape.org/namespaces/inkscape"
   width="13.782995mm"
   height="13.78294mm"
   viewBox="0 0 13.782996 13.782941"
   version="1.1"
   id="svg8"
   inkscape:version="0.92.2 (5c3e80d, 2017-08-06)">
  <defs
     id="defs2">
    <pattern
       y="0"
       x="0"
       height="6"
       width="6"
       patternUnits="userSpaceOnUse"
       id="EMFhbasepattern" />
    <pattern
       y="0"
       x="0"
       height="6"
       width="6"
       patternUnits="userSpaceOnUse"
       id="EMFhbasepattern-2" />
    <pattern
       y="0"
       x="0"
       height="6"
       width="6"
       patternUnits="userSpaceOnUse"
       id="EMFhbasepattern-7" />
    <pattern
       y="0"
       x="0"
       height="6"
       width="6"
       patternUnits="userSpaceOnUse"
       id="EMFhbasepattern-3" />
    <pattern
       y="0"
       x="0"
       height="6"
       width="6"
       patternUnits="userSpaceOnUse"
       id="EMFhbasepattern-5" />
    <pattern
       y="0"
       x="0"
       height="6"
       width="6"
       patternUnits="userSpaceOnUse"
       id="EMFhbasepattern-28" />
    <pattern
       y="0"
       x="0"
       height="6"
       width="6"
       patternUnits="userSpaceOnUse"
       id="EMFhbasepattern-56" />
    <pattern
       y="0"
       x="0"
       height="6"
       width="6"
       patternUnits="userSpaceOnUse"
       id="EMFhbasepattern-1" />
    <pattern
       y="0"
       x="0"
       height="6"
       width="6"
       patternUnits="userSpaceOnUse"
       id="EMFhbasepattern-73" />
    <pattern
       y="0"
       x="0"
       height="6"
       width="6"
       patternUnits="userSpaceOnUse"
       id="EMFhbasepattern-0" />
    <pattern
       y="0"
       x="0"
       height="6"
       width="6"
       patternUnits="userSpaceOnUse"
       id="EMFhbasepattern-8" />
    <pattern
       y="0"
       x="0"
       height="6"
       width="6"
       patternUnits="userSpaceOnUse"
       id="EMFhbasepattern-32" />
    <pattern
       y="0"
       x="0"
       height="6"
       width="6"
       patternUnits="userSpaceOnUse"
       id="EMFhbasepattern-24" />
    <pattern
       y="0"
       x="0"
       height="6"
       width="6"
       patternUnits="userSpaceOnUse"
       id="EMFhbasepattern-4" />
    <pattern
       y="0"
       x="0"
       height="6"
       width="6"
       patternUnits="userSpaceOnUse"
       id="EMFhbasepattern-9" />
    <pattern
       y="0"
       x="0"
       height="6"
       width="6"
       patternUnits="userSpaceOnUse"
       id="EMFhbasepattern-81" />
    <pattern
       y="0"
       x="0"
       height="6"
       width="6"
       patternUnits="userSpaceOnUse"
       id="EMFhbasepattern-53" />
  </defs>
  <sodipodi:namedview
     id="base"
     pagecolor="#ffffff"
     bordercolor="#666666"
     borderopacity="1.0"
     inkscape:pageopacity="0.0"
     inkscape:pageshadow="2"
     inkscape:zoom="5.6"
     inkscape:cx="-16.930534"
     inkscape:cy="64.265674"
     inkscape:document-units="mm"
     inkscape:current-layer="layer1"
     showgrid="false"
     fit-margin-top="0"
     fit-margin-left="0"
     fit-margin-right="0"
     fit-margin-bottom="0"
     inkscape:window-width="1920"
     inkscape:window-height="1027"
     inkscape:window-x="-8"
     inkscape:window-y="-8"
     inkscape:window-maximized="1" />
  <metadata
     id="metadata5">
    <rdf:RDF>
      <cc:Work
         rdf:about="">
        <dc:format>image/svg+xml</dc:format>
        <dc:type
           rdf:resource="http://purl.org/dc/dcmitype/StillImage" />
        <dc:title></dc:title>
      </cc:Work>
    </rdf:RDF>
  </metadata>
  <g
     inkscape:label="Layer 1"
     inkscape:groupmode="layer"
     id="layer1"
     transform="translate(-147.71349,-206.80813)">
    <path
       id="path1176"
       d="m 154.60499,207.89104 c 3.20806,0 5.80857,2.60046 5.80857,5.80847 0,3.20801 -2.60051,5.80847 -5.80857,5.80847 -3.20806,0 -5.80857,-2.60046 -5.80857,-5.80847 0,-3.20801 2.60051,-5.80847 5.80857,-5.80847 z"
       style="fill:#2b9fcf;fill-opacity:1;fill-rule:evenodd;stroke:none;stroke-width:0.26458332"
       inkscape:connector-curvature="0" />
    <path
       id="path1178"
       d="m 150.92655,209.46408 0.13814,-0.1186 0.22387,-0.17338 0.23007,-0.16028 0.23578,-0.14742 0.24126,-0.13456 0.2465,-0.1217 0.25079,-0.10908 0.25483,-0.0962 0.25841,-0.0834 0.26174,-0.0705 0.26436,-0.0579 0.26627,-0.045 0.26793,-0.0322 0.26913,-0.0193 0.26936,-0.006 0.2696,0.006 0.26913,0.0193 0.26793,0.0322 0.26627,0.045 0.26412,0.0579 0.26174,0.0705 0.25865,0.0834 0.25483,0.0962 0.25079,0.10908 0.24626,0.1217 0.24126,0.13456 0.23602,0.14742 0.23007,0.16028 0.22387,0.17338 0.13813,0.1186 -3.67867,3.67861 z m 7.91394,0.55706 0.11861,0.13813 0.17338,0.22363 0.16052,0.23006 0.14719,0.23602 0.1348,0.24126 0.1217,0.24625 0.10884,0.25102 0.0962,0.25483 0.0833,0.25841 0.0707,0.26173 0.0576,0.26412 0.045,0.2665 0.0322,0.26793 0.0193,0.26888 0.006,0.2696 -0.006,0.2696 -0.0193,0.26888 -0.0322,0.26793 -0.045,0.2665 -0.0576,0.26436 -0.0707,0.2615 -0.0833,0.2584 -0.0962,0.25507 -0.10884,0.25078 -0.1217,0.24626 -0.1348,0.24125 -0.14719,0.23602 -0.16052,0.23006 -0.17338,0.22387 -0.11861,0.13813 -3.67844,-3.67861 z m -4.2355,4.23519 -3.67844,3.67861 0.13814,0.1186 0.22363,0.17338 0.23031,0.16028 0.23578,0.14742 0.24126,0.13456 0.2465,0.12194 0.25079,0.10884 0.25483,0.0962 0.25841,0.0834 0.26174,0.0707 0.26436,0.0576 0.26627,0.045 0.26793,0.0322 0.26913,0.0193 0.26936,0.006 0.2696,-0.006 0.26913,-0.0193 0.26793,-0.0322 0.26627,-0.045 0.26412,-0.0576 0.26174,-0.0707 0.25865,-0.0834 0.25483,-0.0962 0.25079,-0.10884 0.24626,-0.12194 0.24126,-0.13456 0.23602,-0.14742 0.23007,-0.16028 0.22387,-0.17338 0.13813,-0.1186 z m -4.2355,3.12179 3.67867,-3.67861 -3.67867,-3.67837 -0.11861,0.13813 -0.17338,0.22363 -0.16028,0.23006 -0.14743,0.23602 -0.13456,0.24126 -0.12194,0.24625 -0.10884,0.25102 -0.0962,0.25483 -0.0834,0.25841 -0.0705,0.26173 -0.0579,0.26412 -0.045,0.2665 -0.0322,0.26793 -0.0193,0.26888 -0.006,0.2696 0.006,0.2696 0.0193,0.26888 0.0322,0.26793 0.045,0.2665 0.0579,0.26436 0.0705,0.2615 0.0834,0.2584 0.0962,0.25507 0.10884,0.25078 0.12194,0.24626 0.13456,0.24125 0.14743,0.23602 0.16028,0.23006 0.17338,0.22387 z m -0.63756,-8.55159 c 2.69124,-2.6912 7.05488,-2.6912 9.74612,0 2.69125,2.6912 2.69125,7.05476 0,9.74596 -2.69124,2.69144 -7.05488,2.69144 -9.74612,0 -2.69125,-2.6912 -2.69125,-7.05476 0,-9.74596 z"
       style="fill:#e02726;fill-opacity:1;fill-rule:evenodd;stroke:none;stroke-width:0.26458332"
       inkscape:connector-curvature="0" />
  </g>
</svg>
