<?xml version="1.0" encoding="UTF-8" standalone="no"?>
<!-- Created with Inkscape (http://www.inkscape.org/) -->

<svg
   xmlns:dc="http://purl.org/dc/elements/1.1/"
   xmlns:cc="http://creativecommons.org/ns#"
   xmlns:rdf="http://www.w3.org/1999/02/22-rdf-syntax-ns#"
   xmlns:svg="http://www.w3.org/2000/svg"
   xmlns="http://www.w3.org/2000/svg"
   xmlns:sodipodi="http://sodipodi.sourceforge.net/DTD/sodipodi-0.dtd"
   xmlns:inkscape="http://www.inkscape.org/namespaces/inkscape"
   width="13.782991mm"
   height="20.763712mm"
   viewBox="0 0 13.782992 20.763714"
   version="1.1"
   id="svg8"
   inkscape:version="0.92.2 (5c3e80d, 2017-08-06)"
   sodipodi:docname="381.svg">
  <defs
     id="defs2">
    <pattern
       y="0"
       x="0"
       height="6"
       width="6"
       patternUnits="userSpaceOnUse"
       id="EMFhbasepattern" />
    <pattern
       y="0"
       x="0"
       height="6"
       width="6"
       patternUnits="userSpaceOnUse"
       id="EMFhbasepattern-2" />
    <pattern
       y="0"
       x="0"
       height="6"
       width="6"
       patternUnits="userSpaceOnUse"
       id="EMFhbasepattern-7" />
    <pattern
       y="0"
       x="0"
       height="6"
       width="6"
       patternUnits="userSpaceOnUse"
       id="EMFhbasepattern-3" />
    <pattern
       y="0"
       x="0"
       height="6"
       width="6"
       patternUnits="userSpaceOnUse"
       id="EMFhbasepattern-5" />
    <pattern
       y="0"
       x="0"
       height="6"
       width="6"
       patternUnits="userSpaceOnUse"
       id="EMFhbasepattern-28" />
    <pattern
       y="0"
       x="0"
       height="6"
       width="6"
       patternUnits="userSpaceOnUse"
       id="EMFhbasepattern-56" />
    <pattern
       y="0"
       x="0"
       height="6"
       width="6"
       patternUnits="userSpaceOnUse"
       id="EMFhbasepattern-1" />
    <pattern
       y="0"
       x="0"
       height="6"
       width="6"
       patternUnits="userSpaceOnUse"
       id="EMFhbasepattern-73" />
    <pattern
       y="0"
       x="0"
       height="6"
       width="6"
       patternUnits="userSpaceOnUse"
       id="EMFhbasepattern-0" />
    <pattern
       y="0"
       x="0"
       height="6"
       width="6"
       patternUnits="userSpaceOnUse"
       id="EMFhbasepattern-8" />
    <pattern
       y="0"
       x="0"
       height="6"
       width="6"
       patternUnits="userSpaceOnUse"
       id="EMFhbasepattern-32" />
    <pattern
       y="0"
       x="0"
       height="6"
       width="6"
       patternUnits="userSpaceOnUse"
       id="EMFhbasepattern-24" />
    <pattern
       y="0"
       x="0"
       height="6"
       width="6"
       patternUnits="userSpaceOnUse"
       id="EMFhbasepattern-4" />
    <pattern
       y="0"
       x="0"
       height="6"
       width="6"
       patternUnits="userSpaceOnUse"
       id="EMFhbasepattern-9" />
    <pattern
       y="0"
       x="0"
       height="6"
       width="6"
       patternUnits="userSpaceOnUse"
       id="EMFhbasepattern-81" />
    <pattern
       y="0"
       x="0"
       height="6"
       width="6"
       patternUnits="userSpaceOnUse"
       id="EMFhbasepattern-53" />
    <pattern
       y="0"
       x="0"
       height="6"
       width="6"
       patternUnits="userSpaceOnUse"
       id="EMFhbasepattern-26" />
    <pattern
       y="0"
       x="0"
       height="6"
       width="6"
       patternUnits="userSpaceOnUse"
       id="EMFhbasepattern-811" />
  </defs>
  <sodipodi:namedview
     id="base"
     pagecolor="#ffffff"
     bordercolor="#666666"
     borderopacity="1.0"
     inkscape:pageopacity="0.0"
     inkscape:pageshadow="2"
     inkscape:zoom="3.959798"
     inkscape:cx="131.88884"
     inkscape:cy="75.136598"
     inkscape:document-units="mm"
     inkscape:current-layer="layer1"
     showgrid="false"
     fit-margin-top="0"
     fit-margin-left="0"
     fit-margin-right="0"
     fit-margin-bottom="0"
     inkscape:window-width="1920"
     inkscape:window-height="1027"
     inkscape:window-x="-8"
     inkscape:window-y="-8"
     inkscape:window-maximized="1" />
  <metadata
     id="metadata5">
    <rdf:RDF>
      <cc:Work
         rdf:about="">
        <dc:format>image/svg+xml</dc:format>
        <dc:type
           rdf:resource="http://purl.org/dc/dcmitype/StillImage" />
        <dc:title />
      </cc:Work>
    </rdf:RDF>
  </metadata>
  <g
     inkscape:label="Layer 1"
     inkscape:groupmode="layer"
     id="layer1"
     transform="translate(-142.10425,-201.83989)">
    <path
       style="fill:#ffffff;fill-opacity:1;fill-rule:evenodd;stroke:none;stroke-width:0.26458332"
       d="m 142.97552,202.26016 h 12.0407 c 0.24914,0 0.45319,0.20877 0.45319,0.46406 v 18.99506 c 0,0.25506 -0.20405,0.46406 -0.45319,0.46406 h -12.0407 c -0.24938,0 -0.45319,-0.209 -0.45319,-0.46406 v -18.99506 c 0,-0.25529 0.20381,-0.46406 0.45319,-0.46406 z"
       id="path836" />
    <path
       id="path1208"
       d="m 146.81841,215.51532 1.51143,-1.52009 -1.51143,-1.51985 0.66602,-0.66974 1.51144,1.51985 1.51167,-1.51985 0.66603,0.66974 -1.51144,1.51985 1.51144,1.51985 -0.66603,0.66998 -1.51167,-1.51985 -1.51144,1.51985 z"
       style="fill:#1d1d1b;fill-opacity:1;fill-rule:evenodd;stroke:none;stroke-width:0.26458332"
       inkscape:connector-curvature="0" />
    <path
       id="path1210"
       d="m 153.81822,216.40075 h -9.64447 l 4.82307,-8.39975 z m 1.08055,-0.0134 c 0.10535,0.19254 0.1108,0.434 -0.006,0.63824 -0.11721,0.204 -0.32791,0.31996 -0.5462,0.32449 v 0 h -10.70034 v 0 c -0.21853,-0.005 -0.42923,-0.12049 -0.54644,-0.32449 -0.11722,-0.20424 -0.11152,-0.4457 -0.006,-0.63824 v 0 l 5.35005,-9.31835 v 0 c 0.11294,-0.18777 0.31818,-0.31351 0.55261,-0.31351 0.23443,0 0.43967,0.12574 0.55285,0.31351 v 0 z"
       style="fill:#e02726;fill-opacity:1;fill-rule:evenodd;stroke:none;stroke-width:0.26458332"
       inkscape:connector-curvature="0" />
    <path
       id="path1212"
       d="m 142.12988,222.57798 v -20.71246 h 13.73174 v 20.71246 z"
       style="fill:none;stroke:#231f20;stroke-width:0.05125115px;stroke-linecap:butt;stroke-linejoin:miter;stroke-miterlimit:4;stroke-dasharray:none;stroke-opacity:1"
       inkscape:connector-curvature="0" />
    <path
       id="path1214"
       d="m 148.02376,205.21898 h -0.35307 l -0.14046,-0.44832 h -0.6423 l -0.1324,0.44832 h -0.34523 l 0.62616,-1.97271 h 0.34381 z m -0.5977,-0.78021 -0.22113,-0.73225 -0.21782,0.73225 z m 1.06038,0.78021 v -1.95649 h 0.32364 v 1.62388 h 0.80816 v 0.33261 z m 3.095,0 h -0.35306 l -0.14071,-0.44832 h -0.64206 l -0.13263,0.44832 h -0.34524 l 0.62617,-1.97271 h 0.34405 z m -0.59793,-0.78021 -0.2209,-0.73225 -0.21806,0.73225 z"
       style="fill:#1d1d1b;fill-opacity:1;fill-rule:evenodd;stroke:none;stroke-width:0.26458332"
       inkscape:connector-curvature="0" />
    <path
       id="path1216"
       d="m 142.97552,201.86552 h 12.0407 c 0.46505,0 0.8454,0.38652 0.8454,0.8587 v 18.99506 c 0,0.47218 -0.38035,0.8587 -0.8454,0.8587 h -12.0407 c -0.46506,0 -0.84564,-0.38652 -0.84564,-0.8587 v -18.99506 c 0,-0.47218 0.38058,-0.8587 0.84564,-0.8587 z m 0,0.39464 h 12.0407 c 0.24914,0 0.45319,0.20877 0.45319,0.46406 v 18.99506 c 0,0.25506 -0.20405,0.46406 -0.45319,0.46406 h -12.0407 c -0.24938,0 -0.45319,-0.209 -0.45319,-0.46406 v -18.99506 c 0,-0.25529 0.20381,-0.46406 0.45319,-0.46406 z"
       style="fill:#1d1d1b;fill-opacity:1;fill-rule:evenodd;stroke:none;stroke-width:0.26458332"
       inkscape:connector-curvature="0" />
  </g>
</svg>
