<?xml version="1.0" encoding="UTF-8" standalone="no"?>
<!-- Created with Inkscape (http://www.inkscape.org/) -->

<svg
   xmlns:dc="http://purl.org/dc/elements/1.1/"
   xmlns:cc="http://creativecommons.org/ns#"
   xmlns:rdf="http://www.w3.org/1999/02/22-rdf-syntax-ns#"
   xmlns:svg="http://www.w3.org/2000/svg"
   xmlns="http://www.w3.org/2000/svg"
   xmlns:sodipodi="http://sodipodi.sourceforge.net/DTD/sodipodi-0.dtd"
   xmlns:inkscape="http://www.inkscape.org/namespaces/inkscape"
   width="13.783mm"
   height="20.763712mm"
   viewBox="0 0 13.783 20.763712"
   version="1.1"
   id="svg8"
   inkscape:version="0.92.2 (5c3e80d, 2017-08-06)"
   sodipodi:docname="388.svg">
  <defs
     id="defs2">
    <pattern
       y="0"
       x="0"
       height="6"
       width="6"
       patternUnits="userSpaceOnUse"
       id="EMFhbasepattern" />
  </defs>
  <sodipodi:namedview
     id="base"
     pagecolor="#ffffff"
     bordercolor="#666666"
     borderopacity="1.0"
     inkscape:pageopacity="0.0"
     inkscape:pageshadow="2"
     inkscape:zoom="7.9195959"
     inkscape:cx="19.941139"
     inkscape:cy="40.360814"
     inkscape:document-units="mm"
     inkscape:current-layer="layer1"
     showgrid="false"
     fit-margin-top="0"
     fit-margin-left="0"
     fit-margin-right="0"
     fit-margin-bottom="0"
     inkscape:window-width="1920"
     inkscape:window-height="1027"
     inkscape:window-x="-8"
     inkscape:window-y="-8"
     inkscape:window-maximized="1" />
  <metadata
     id="metadata5">
    <rdf:RDF>
      <cc:Work
         rdf:about="">
        <dc:format>image/svg+xml</dc:format>
        <dc:type
           rdf:resource="http://purl.org/dc/dcmitype/StillImage" />
        <dc:title />
      </cc:Work>
    </rdf:RDF>
  </metadata>
  <g
     inkscape:label="Layer 1"
     inkscape:groupmode="layer"
     id="layer1"
     transform="translate(-9.7394526,-155.83838)">
    <path
       style="fill:#ffffff;fill-opacity:1;fill-rule:evenodd;stroke:none;stroke-width:0.26458332"
       d="m 10.610722,156.25841 h 12.040699 c 0.249137,0 0.453193,0.20877 0.453193,0.46407 v 18.99528 c 0,0.2553 -0.204056,0.46407 -0.453193,0.46407 H 10.610722 c -0.249375,0 -0.453193,-0.20877 -0.453193,-0.46407 v -18.99528 c 0,-0.2553 0.203818,-0.46407 0.453193,-0.46407 z"
       id="path825" />
    <path
       id="path818"
       d="m 16.694898,168.85734 c 1.643596,0 2.976126,1.33997 2.976126,2.99274 0,1.65277 -1.33253,2.99274 -2.976126,2.99274 -1.643596,0 -2.976126,-1.33997 -2.976126,-2.99274 0,-1.65277 1.33253,-2.99274 2.976126,-2.99274 z"
       style="fill:#2b9fcf;fill-opacity:1;fill-rule:evenodd;stroke:none;stroke-width:0.26458332"
       inkscape:connector-curvature="0" />
    <path
       id="path820"
       d="m 14.810232,169.66786 0.07071,-0.0611 0.114603,-0.0895 0.117925,-0.0826 0.12101,-0.0759 0.12362,-0.0694 0.125992,-0.0627 0.128602,-0.0561 0.130738,-0.0496 0.132399,-0.043 0.13406,-0.0363 0.135246,-0.0298 0.13667,-0.0231 0.137144,-0.0167 0.137856,-0.01 0.138093,-0.003 0.138094,0.003 0.137856,0.01 0.137381,0.0167 0.136433,0.0231 0.135246,0.0298 0.13406,0.0363 0.132637,0.043 0.1305,0.0496 0.128603,0.0561 0.126229,0.0627 0.12362,0.0694 0.120772,0.0759 0.117925,0.0826 0.114841,0.0895 0.111044,0.0959 0.107722,0.10308 0.102503,0.10832 0.09538,0.1119 0.08898,0.11524 0.0821,0.11859 0.07569,0.12144 0.06881,0.12431 0.0624,0.12694 0.05576,0.12932 0.04935,0.13123 0.04271,0.13337 0.03606,0.13457 0.02966,0.13624 0.02302,0.1372 0.01661,0.13814 0.01,0.13863 0.0031,0.13886 -0.0031,0.13887 -0.01,0.13862 -0.01661,0.13815 -0.02302,0.1372 -0.02966,0.136 -0.03606,0.1348 -0.04271,0.13314 -0.04935,0.13147 -0.05576,0.12908 -0.0624,0.12694 -0.06881,0.12431 -0.07569,0.12168 -0.0821,0.11858 -0.08898,0.11525 -0.06074,0.0711 z m 3.76957,4.36444 -0.07071,0.0611 -0.114841,0.0895 -0.117925,0.0825 -0.120772,0.0759 -0.12362,0.0694 -0.126229,0.0628 -0.128603,0.0561 -0.1305,0.0496 -0.132637,0.0429 -0.13406,0.0363 -0.135246,0.0298 -0.136432,0.0231 -0.137382,0.0167 -0.137856,0.01 -0.138093,0.003 -0.138093,-0.003 -0.137857,-0.01 -0.137144,-0.0167 -0.13667,-0.0231 -0.135246,-0.0298 -0.13406,-0.0363 -0.132398,-0.0429 -0.130738,-0.0496 -0.1286,-0.056 -0.125993,-0.0627 -0.12362,-0.0694 -0.121009,-0.0759 -0.117926,-0.0826 -0.114603,-0.0895 -0.111281,-0.0962 -0.107722,-0.10283 -0.102265,-0.10833 -0.09562,-0.1119 -0.08874,-0.11524 -0.08233,-0.11858 -0.07545,-0.12169 -0.06905,-0.12431 -0.0624,-0.12693 -0.05576,-0.12908 -0.04935,-0.13147 -0.04271,-0.13314 -0.03607,-0.13481 -0.02966,-0.136 -0.02301,-0.13719 -0.01637,-0.13815 -0.01,-0.13863 -0.0033,-0.13886 0.0033,-0.13886 0.01,-0.13863 0.01637,-0.13815 0.02301,-0.13719 0.02966,-0.13624 0.03607,-0.13457 0.04271,-0.13338 0.04935,-0.13123 0.05576,-0.12932 0.0624,-0.12693 0.06905,-0.12431 0.07545,-0.12145 0.08233,-0.11858 0.08874,-0.11524 0.06074,-0.0713 z m -4.381737,-4.69299 c 1.379036,-1.38673 3.614868,-1.38673 4.993666,0 1.379035,1.3865 1.379035,3.63481 0,5.02154 -1.378798,1.38649 -3.61463,1.38649 -4.993666,0 -1.378798,-1.38673 -1.378798,-3.63504 0,-5.02154 z"
       style="fill:#e02726;fill-opacity:1;fill-rule:evenodd;stroke:none;stroke-width:0.26458332"
       inkscape:connector-curvature="0" />
    <path
       id="path822"
       d="m 16.843431,161.02417 0.146398,0.0112 0.143788,0.0184 0.141415,0.0253 0.139043,0.0322 0.136195,0.0389 0.133348,0.0453 0.130264,0.0518 0.127179,0.0577 0.123856,0.0639 0.120298,0.0694 0.116739,0.0754 0.112705,0.0807 0.108909,0.0859 0.1044,0.0909 0.09989,0.0959 0.09539,0.10045 0.0904,0.10498 0.08542,0.10952 0.0802,0.11333 0.07498,0.11739 0.06905,0.12097 0.06359,0.12455 0.05742,0.12789 0.05149,0.13122 0.04508,0.13386 0.03868,0.13695 0.03203,0.13982 0.02515,0.14221 0.01827,0.14459 0.01115,0.14721 0.0038,0.14937 -0.0038,0.14936 -0.01115,0.14697 -0.01827,0.14483 -0.02515,0.14221 -0.03203,0.13958 -0.03868,0.13695 -0.04508,0.13409 -0.05149,0.13123 -0.05742,0.12789 -0.06359,0.12455 -0.06905,0.12097 -0.07498,0.11739 -0.0802,0.11333 -0.08542,0.10928 -0.0904,0.10499 -0.09539,0.10068 -0.09989,0.0959 -0.1044,0.0909 -0.108909,0.0859 -0.112705,0.0807 -0.116739,0.0752 -0.120298,0.0697 -0.123856,0.0639 -0.127179,0.0577 -0.130264,0.0515 -0.133348,0.0456 -0.136195,0.0389 -0.139043,0.0322 -0.141415,0.0253 -0.143788,0.0184 -0.146398,0.0112 -0.148533,0.004 -0.148534,-0.004 -0.14616,-0.0112 -0.144025,-0.0184 -0.141416,-0.0253 -0.138805,-0.0322 -0.136195,-0.0389 -0.133348,-0.0456 -0.1305,-0.0515 -0.127179,-0.0577 -0.123857,-0.0639 -0.120298,-0.0697 -0.116739,-0.0752 -0.112705,-0.0807 -0.108671,-0.0859 -0.104401,-0.0909 -0.100129,-0.0959 -0.09538,-0.10068 -0.0904,-0.10499 -0.08542,-0.10928 -0.0802,-0.11333 -0.07474,-0.11739 -0.06928,-0.12097 -0.06335,-0.12455 -0.05766,-0.12789 -0.05125,-0.13123 -0.04532,-0.13409 -0.03868,-0.13695 -0.0318,-0.13958 -0.02539,-0.14221 -0.01827,-0.14483 -0.01115,-0.14697 -0.0038,-0.14936 0.0038,-0.14937 0.01115,-0.14721 0.01827,-0.14459 0.02539,-0.14221 0.0318,-0.13982 0.03868,-0.13695 0.04532,-0.13386 0.05125,-0.13122 0.05766,-0.12789 0.06335,-0.12455 0.06928,-0.12097 0.07474,-0.11739 0.0802,-0.11334 0.08542,-0.10951 0.0904,-0.10499 0.09538,-0.10044 0.100129,-0.0959 0.104401,-0.0909 0.108671,-0.0859 0.112705,-0.0807 0.116739,-0.0754 0.120298,-0.0694 0.123857,-0.0639 0.127179,-0.0577 0.1305,-0.0518 0.133348,-0.0453 0.136195,-0.0389 0.138805,-0.0322 0.141416,-0.0253 0.144025,-0.0184 0.14616,-0.0112 0.148534,-0.004 z m -0.148533,-0.66354 c 1.950154,0 3.53111,1.58978 3.53111,3.55081 0,1.96104 -1.580956,3.55082 -3.53111,3.55082 -1.950154,0 -3.530872,-1.58978 -3.530872,-3.55082 0,-1.96103 1.580718,-3.55081 3.530872,-3.55081 z"
       style="fill:#e02726;fill-opacity:1;fill-rule:evenodd;stroke:none;stroke-width:0.26458332"
       inkscape:connector-curvature="0" />
    <path
       id="path824"
       d="m 14.934563,164.60576 0.460786,-0.068 c 0.01258,0.14316 0.05149,0.25292 0.116976,0.32879 0.0662,0.0759 0.143788,0.11334 0.23324,0.11334 0.09728,0 0.178905,-0.0446 0.246528,-0.13457 0.06691,-0.0899 0.100841,-0.21402 0.100841,-0.37269 0,-0.14817 -0.03251,-0.26437 -0.09728,-0.34859 -0.06478,-0.0845 -0.143076,-0.12622 -0.235376,-0.12622 -0.0605,0 -0.13311,0.015 -0.217105,0.0439 l 0.05149,-0.47744 c 0.124094,0.003 0.222088,-0.0305 0.294694,-0.0992 0.07095,-0.068 0.106299,-0.16511 0.106299,-0.2899 0,-0.10403 -0.02539,-0.18635 -0.07688,-0.24504 -0.05149,-0.0589 -0.116976,-0.0885 -0.197175,-0.0885 -0.08044,0 -0.150194,0.0339 -0.208801,0.1026 -0.05908,0.0687 -0.09349,0.17083 -0.104875,0.3054 l -0.439668,-0.0892 c 0.04579,-0.27988 0.134534,-0.48245 0.26717,-0.60938 0.131688,-0.12694 0.298728,-0.18993 0.500174,-0.18993 0.22541,0 0.405263,0.0809 0.538374,0.24242 0.133111,0.16153 0.19931,0.34 0.19931,0.53565 0,0.13242 -0.02942,0.2522 -0.08945,0.35838 -0.05979,0.10641 -0.149245,0.19923 -0.268357,0.27939 0.138094,0.0375 0.250799,0.11978 0.337641,0.24719 0.0866,0.12694 0.130263,0.28632 0.130263,0.47768 0,0.27772 -0.08257,0.50797 -0.246764,0.69002 -0.164194,0.18229 -0.359945,0.27296 -0.586779,0.27296 -0.217817,0 -0.401704,-0.0766 -0.55261,-0.23049 -0.149958,-0.15366 -0.237986,-0.36267 -0.262663,-0.62847 z"
       style="fill:#1d1d1b;fill-opacity:1;fill-rule:evenodd;stroke:none;stroke-width:0.26458332"
       inkscape:connector-curvature="0" />
    <path
       id="path826"
       d="m 17.780426,162.36103 c 0.240359,0 0.434686,0.11477 0.583456,0.34502 0.148771,0.23024 0.222563,0.63276 0.222563,1.20754 0,0.57383 -0.07379,0.97563 -0.222563,1.20588 -0.14877,0.23048 -0.342623,0.34525 -0.58132,0.34525 -0.241071,0 -0.435636,-0.11429 -0.584169,-0.34239 -0.148771,-0.2281 -0.2228,-0.63276 -0.2228,-1.21446 0,-0.57121 0.07403,-0.97158 0.2228,-1.20182 0.148533,-0.23025 0.342386,-0.34502 0.582033,-0.34502 z m 7.12e-4,0.4846 c -0.09301,0 -0.167753,0.0625 -0.223513,0.18634 -0.05552,0.12407 -0.08305,0.41826 -0.08305,0.88162 0,0.46407 0.02752,0.75755 0.08305,0.88138 0.05576,0.12336 0.130502,0.18492 0.223513,0.18492 0.09443,0 0.168939,-0.0623 0.223986,-0.18635 0.05505,-0.12383 0.08257,-0.41731 0.08257,-0.87995 0,-0.46336 -0.02752,-0.75755 -0.08257,-0.88162 -0.05505,-0.12383 -0.129551,-0.18634 -0.223986,-0.18634 z"
       style="fill:#1d1d1b;fill-opacity:1;fill-rule:evenodd;stroke:none;stroke-width:0.26458332"
       inkscape:connector-curvature="0" />
    <path
       id="path828"
       d="M 9.7650782,176.57647 V 155.86401 H 23.496827 v 20.71246 z"
       style="fill:none;stroke:#231f20;stroke-width:0.05125115px;stroke-linecap:butt;stroke-linejoin:miter;stroke-miterlimit:4;stroke-dasharray:none;stroke-opacity:1"
       inkscape:connector-curvature="0" />
    <path
       id="path830"
       d="m 15.65896,159.21726 h -0.353063 l -0.140466,-0.44808 H 14.52313 l -0.132398,0.44808 h -0.345234 l 0.626166,-1.97249 h 0.34381 z m -0.597693,-0.78021 -0.221139,-0.73202 -0.217817,0.73202 z m 1.060377,0.78021 v -1.9565 h 0.323642 v 1.62414 h 0.808155 v 0.33236 z m 3.095001,0 h -0.353064 l -0.140703,-0.44808 h -0.642063 l -0.132399,0.44808 h -0.345471 l 0.626166,-1.97249 h 0.344047 z m -0.59793,-0.78021 -0.220902,-0.73202 -0.217818,0.73202 z"
       style="fill:#1d1d1b;fill-opacity:1;fill-rule:evenodd;stroke:none;stroke-width:0.26458332"
       inkscape:connector-curvature="0" />
    <path
       id="path832"
       d="m 10.610722,156.25841 h 12.040699 c 0.249137,0 0.453193,0.20877 0.453193,0.46407 v 18.99528 c 0,0.2553 -0.204056,0.46407 -0.453193,0.46407 H 10.610722 c -0.249375,0 -0.453193,-0.20877 -0.453193,-0.46407 v -18.99528 c 0,-0.2553 0.203818,-0.46407 0.453193,-0.46407 z m 0,-0.3944 h 12.040699 c 0.465057,0 0.845406,0.38629 0.845406,0.85847 v 18.99528 c 0,0.47218 -0.380349,0.85871 -0.845406,0.85871 H 10.610722 c -0.465057,0 -0.8456438,-0.38653 -0.8456438,-0.85871 v -18.99528 c 0,-0.47218 0.3805868,-0.85847 0.8456438,-0.85847 z"
       style="fill:#1d1d1b;fill-opacity:1;fill-rule:evenodd;stroke:none;stroke-width:0.26458332"
       inkscape:connector-curvature="0" />
  </g>
</svg>
