<?xml version="1.0" encoding="UTF-8" standalone="no"?>
<!-- Created with Inkscape (http://www.inkscape.org/) -->

<svg
   xmlns:dc="http://purl.org/dc/elements/1.1/"
   xmlns:cc="http://creativecommons.org/ns#"
   xmlns:rdf="http://www.w3.org/1999/02/22-rdf-syntax-ns#"
   xmlns:svg="http://www.w3.org/2000/svg"
   xmlns="http://www.w3.org/2000/svg"
   xmlns:sodipodi="http://sodipodi.sourceforge.net/DTD/sodipodi-0.dtd"
   xmlns:inkscape="http://www.inkscape.org/namespaces/inkscape"
   width="13.782991mm"
   height="20.763712mm"
   viewBox="0 0 13.782992 20.763714"
   version="1.1"
   id="svg8"
   inkscape:version="0.92.2 (5c3e80d, 2017-08-06)"
   sodipodi:docname="391.svg">
  <defs
     id="defs2">
    <pattern
       y="0"
       x="0"
       height="6"
       width="6"
       patternUnits="userSpaceOnUse"
       id="EMFhbasepattern" />
    <pattern
       y="0"
       x="0"
       height="6"
       width="6"
       patternUnits="userSpaceOnUse"
       id="EMFhbasepattern-2" />
    <pattern
       y="0"
       x="0"
       height="6"
       width="6"
       patternUnits="userSpaceOnUse"
       id="EMFhbasepattern-7" />
    <pattern
       y="0"
       x="0"
       height="6"
       width="6"
       patternUnits="userSpaceOnUse"
       id="EMFhbasepattern-3" />
    <pattern
       y="0"
       x="0"
       height="6"
       width="6"
       patternUnits="userSpaceOnUse"
       id="EMFhbasepattern-5" />
    <pattern
       y="0"
       x="0"
       height="6"
       width="6"
       patternUnits="userSpaceOnUse"
       id="EMFhbasepattern-28" />
    <pattern
       y="0"
       x="0"
       height="6"
       width="6"
       patternUnits="userSpaceOnUse"
       id="EMFhbasepattern-56" />
    <pattern
       y="0"
       x="0"
       height="6"
       width="6"
       patternUnits="userSpaceOnUse"
       id="EMFhbasepattern-1" />
    <pattern
       y="0"
       x="0"
       height="6"
       width="6"
       patternUnits="userSpaceOnUse"
       id="EMFhbasepattern-73" />
    <pattern
       y="0"
       x="0"
       height="6"
       width="6"
       patternUnits="userSpaceOnUse"
       id="EMFhbasepattern-0" />
    <pattern
       y="0"
       x="0"
       height="6"
       width="6"
       patternUnits="userSpaceOnUse"
       id="EMFhbasepattern-8" />
    <pattern
       y="0"
       x="0"
       height="6"
       width="6"
       patternUnits="userSpaceOnUse"
       id="EMFhbasepattern-32" />
    <pattern
       y="0"
       x="0"
       height="6"
       width="6"
       patternUnits="userSpaceOnUse"
       id="EMFhbasepattern-24" />
    <pattern
       y="0"
       x="0"
       height="6"
       width="6"
       patternUnits="userSpaceOnUse"
       id="EMFhbasepattern-4" />
    <pattern
       y="0"
       x="0"
       height="6"
       width="6"
       patternUnits="userSpaceOnUse"
       id="EMFhbasepattern-9" />
    <pattern
       y="0"
       x="0"
       height="6"
       width="6"
       patternUnits="userSpaceOnUse"
       id="EMFhbasepattern-81" />
    <pattern
       y="0"
       x="0"
       height="6"
       width="6"
       patternUnits="userSpaceOnUse"
       id="EMFhbasepattern-53" />
    <pattern
       y="0"
       x="0"
       height="6"
       width="6"
       patternUnits="userSpaceOnUse"
       id="EMFhbasepattern-26" />
    <pattern
       y="0"
       x="0"
       height="6"
       width="6"
       patternUnits="userSpaceOnUse"
       id="EMFhbasepattern-811" />
    <pattern
       y="0"
       x="0"
       height="6"
       width="6"
       patternUnits="userSpaceOnUse"
       id="EMFhbasepattern-6" />
  </defs>
  <sodipodi:namedview
     id="base"
     pagecolor="#ffffff"
     bordercolor="#666666"
     borderopacity="1.0"
     inkscape:pageopacity="0.0"
     inkscape:pageshadow="2"
     inkscape:zoom="3.959798"
     inkscape:cx="6.0177436"
     inkscape:cy="19.715396"
     inkscape:document-units="mm"
     inkscape:current-layer="layer1"
     showgrid="false"
     fit-margin-top="0"
     fit-margin-left="0"
     fit-margin-right="0"
     fit-margin-bottom="0"
     inkscape:window-width="1920"
     inkscape:window-height="1027"
     inkscape:window-x="-8"
     inkscape:window-y="-8"
     inkscape:window-maximized="1" />
  <metadata
     id="metadata5">
    <rdf:RDF>
      <cc:Work
         rdf:about="">
        <dc:format>image/svg+xml</dc:format>
        <dc:type
           rdf:resource="http://purl.org/dc/dcmitype/StillImage" />
        <dc:title />
      </cc:Work>
    </rdf:RDF>
  </metadata>
  <g
     inkscape:label="Layer 1"
     inkscape:groupmode="layer"
     id="layer1"
     transform="translate(-151.0405,-207.3553)">
    <path
       style="fill:#ffffff;fill-opacity:1;fill-rule:evenodd;stroke:none;stroke-width:0.26458332"
       d="m 164.40566,210.07562 -10.76369,17.62266 10.31216,4.7e-4 c 0.24842,-9.5e-4 0.45153,-0.20924 0.45153,-0.46406 z"
       id="path868" />
    <path
       style="fill:#ffffff;fill-opacity:1;fill-rule:evenodd;stroke:none;stroke-width:0.26458332"
       d="m 153.2965,227.69852 11.10916,-18.18837 v -0.75372 l -11.56971,18.94185 z"
       id="path866" />
    <path
       style="fill:#ffffff;fill-opacity:1;fill-rule:evenodd;stroke:none;stroke-width:0.26458332"
       d="m 152.03017,227.69852 12.13537,-19.86808 c 0.13026,0.0716 0.2228,0.20663 0.23799,0.3641 l -11.91305,19.50421 z"
       id="path864" />
    <path
       style="fill:#ffffff;fill-opacity:1;fill-rule:evenodd;stroke:none;stroke-width:0.26458332"
       d="m 151.71341,227.65172 12.13964,-19.87618 h -0.45984 l -11.92918,19.5307 c 0.0233,0.15198 0.11888,0.27987 0.24938,0.34548 z"
       id="path862" />
    <path
       style="fill:#ffffff;fill-opacity:1;fill-rule:evenodd;stroke:none;stroke-width:0.26458332"
       d="m 151.45858,226.74983 11.58916,-18.97429 h -0.0294 -0.43089 l -11.12885,18.22057 z"
       id="path860" />
    <path
       style="fill:#ffffff;fill-opacity:1;fill-rule:evenodd;stroke:none;stroke-width:0.26458332"
       d="m 151.45858,225.43064 10.78362,-17.6551 h -10.33043 c -0.24938,0 -0.45319,0.20877 -0.45319,0.46406 z"
       id="path858" />
    <path
       style="fill:#ffffff;fill-opacity:1;fill-rule:evenodd;stroke:none;stroke-width:0.26458332"
       d="m 151.91177,207.3809 h 12.0407 c 0.46505,0 0.8454,0.38652 0.8454,0.8587 v 18.99506 c 0,0.47218 -0.38035,0.8587 -0.8454,0.8587 h -12.0407 c -0.46506,0 -0.84564,-0.38652 -0.84564,-0.8587 V 208.2396 c 0,-0.47218 0.38058,-0.8587 0.84564,-0.8587 z"
       id="path1241" />
    <path
       id="path1233"
       d="m 155.75157,221.0386 1.51144,-1.52009 -1.51144,-1.51985 0.66603,-0.66974 1.51167,1.51986 1.51144,-1.51986 0.66602,0.66974 -1.51143,1.51985 1.51143,1.52009 -0.66602,0.66974 -1.51144,-1.51985 -1.51167,1.51985 z"
       style="fill:#7d8684;fill-opacity:1;fill-rule:evenodd;stroke:none;stroke-width:0.26458332"
       inkscape:connector-curvature="0" />
    <path
       id="path1235"
       d="m 162.75139,221.92403 h -9.64447 l 4.82306,-8.39975 z m 1.08054,-0.0134 c 0.10535,0.19255 0.11081,0.434 -0.006,0.638 -0.11721,0.20424 -0.32815,0.3202 -0.54644,0.32473 v 0 h -10.70034 v 0 c -0.21829,-0.005 -0.42922,-0.12049 -0.54644,-0.32473 -0.11721,-0.204 -0.11152,-0.44545 -0.006,-0.638 v 0 l 5.35005,-9.31834 v 0 c 0.11318,-0.18778 0.31842,-0.31352 0.55285,-0.31352 0.23419,0 0.43943,0.12574 0.55261,0.31352 v 0 z"
       style="fill:#7d8684;fill-opacity:1;fill-rule:evenodd;stroke:none;stroke-width:0.26458332"
       inkscape:connector-curvature="0" />
    <path
       id="path1237"
       d="m 156.93675,210.93982 h -0.35306 l -0.1407,-0.44832 h -0.64206 l -0.1324,0.44832 h -0.34524 l 0.62617,-1.97271 h 0.34381 z m -0.59769,-0.78045 -0.22114,-0.73201 -0.21781,0.73201 z m 1.06014,0.78045 v -1.95672 h 0.32388 v 1.62411 h 0.80792 v 0.33261 z m 3.09524,0 h -0.35306 l -0.14071,-0.44832 h -0.64206 l -0.13264,0.44832 h -0.34523 l 0.62617,-1.97271 h 0.34404 z m -0.59793,-0.78045 -0.22114,-0.73201 -0.21782,0.73201 z"
       style="fill:#7d8684;fill-opacity:1;fill-rule:evenodd;stroke:none;stroke-width:0.26458332"
       inkscape:connector-curvature="0" />
    <path
       id="path1239"
       d="m 151.06613,228.09339 v -20.71246 h 13.73174 v 20.71246 z"
       style="fill:none;stroke:#231f20;stroke-width:0.05125115px;stroke-linecap:butt;stroke-linejoin:miter;stroke-miterlimit:4;stroke-dasharray:none;stroke-opacity:1"
       inkscape:connector-curvature="0" />
    <path
       inkscape:connector-curvature="0"
       style="fill:#1d1d1b;fill-opacity:1;fill-rule:evenodd;stroke:none;stroke-width:0.26458332"
       d="m 164.40566,210.07562 -10.76369,17.62266 10.31216,4.7e-4 c 0.24842,-9.5e-4 0.45153,-0.20924 0.45153,-0.46406 z m -11.10916,17.6229 11.10916,-18.18837 v -0.75372 l -11.56971,18.94185 z m -1.26633,0 12.13537,-19.86808 c 0.13026,0.0716 0.2228,0.20663 0.23799,0.3641 l -11.91305,19.50421 z m -0.31676,-0.0468 12.13964,-19.87618 h -0.45984 l -11.92918,19.5307 c 0.0233,0.15198 0.11888,0.27987 0.24938,0.34548 z m -0.25483,-0.90189 11.58916,-18.97429 h -0.0294 -0.43089 l -11.12885,18.22057 z m 0,-1.31919 10.78362,-17.6551 h -10.33043 c -0.24938,0 -0.45319,0.20877 -0.45319,0.46406 z m 0.45319,-18.04974 h 12.0407 c 0.46505,0 0.8454,0.38652 0.8454,0.8587 v 18.99506 c 0,0.47218 -0.38035,0.8587 -0.8454,0.8587 h -12.0407 c -0.46506,0 -0.84564,-0.38652 -0.84564,-0.8587 V 208.2396 c 0,-0.47218 0.38058,-0.8587 0.84564,-0.8587 z"
       id="path840" />
  </g>
</svg>
