<?xml version="1.0" encoding="UTF-8" standalone="no"?>
<!-- Created with Inkscape (http://www.inkscape.org/) -->

<svg
   xmlns:dc="http://purl.org/dc/elements/1.1/"
   xmlns:cc="http://creativecommons.org/ns#"
   xmlns:rdf="http://www.w3.org/1999/02/22-rdf-syntax-ns#"
   xmlns:svg="http://www.w3.org/2000/svg"
   xmlns="http://www.w3.org/2000/svg"
   xmlns:sodipodi="http://sodipodi.sourceforge.net/DTD/sodipodi-0.dtd"
   xmlns:inkscape="http://www.inkscape.org/namespaces/inkscape"
   width="13.783mm"
   height="20.763712mm"
   viewBox="0 0 13.783 20.763712"
   version="1.1"
   id="svg8"
   inkscape:version="0.92.2 (5c3e80d, 2017-08-06)"
   sodipodi:docname="398.svg">
  <defs
     id="defs2">
    <pattern
       y="0"
       x="0"
       height="6"
       width="6"
       patternUnits="userSpaceOnUse"
       id="EMFhbasepattern" />
    <pattern
       y="0"
       x="0"
       height="6"
       width="6"
       patternUnits="userSpaceOnUse"
       id="EMFhbasepattern-0" />
  </defs>
  <sodipodi:namedview
     id="base"
     pagecolor="#ffffff"
     bordercolor="#666666"
     borderopacity="1.0"
     inkscape:pageopacity="0.0"
     inkscape:pageshadow="2"
     inkscape:zoom="5.6"
     inkscape:cx="-25.544423"
     inkscape:cy="60.628928"
     inkscape:document-units="mm"
     inkscape:current-layer="layer1"
     showgrid="false"
     fit-margin-top="0"
     fit-margin-left="0"
     fit-margin-right="0"
     fit-margin-bottom="0"
     inkscape:window-width="1920"
     inkscape:window-height="1027"
     inkscape:window-x="-8"
     inkscape:window-y="-8"
     inkscape:window-maximized="1" />
  <metadata
     id="metadata5">
    <rdf:RDF>
      <cc:Work
         rdf:about="">
        <dc:format>image/svg+xml</dc:format>
        <dc:type
           rdf:resource="http://purl.org/dc/dcmitype/StillImage" />
        <dc:title />
      </cc:Work>
    </rdf:RDF>
  </metadata>
  <g
     inkscape:label="Layer 1"
     inkscape:groupmode="layer"
     id="layer1"
     transform="translate(-21.982997,-161.25929)">
    <path
       style="fill:#ffffff;fill-opacity:1;fill-rule:evenodd;stroke:none;stroke-width:0.26458332"
       d="m 35.348158,163.97941 -10.763927,17.62285 10.312158,4.8e-4 c 0.248663,-7.2e-4 0.451769,-0.20925 0.451769,-0.46407 z"
       id="path836" />
    <path
       style="fill:#ffffff;fill-opacity:1;fill-rule:evenodd;stroke:none;stroke-width:0.26458332"
       d="M 24.23876,181.6025 35.348158,163.41417 V 162.6602 L 23.778449,181.6025 Z"
       id="path834" />
    <path
       style="fill:#ffffff;fill-opacity:1;fill-rule:evenodd;stroke:none;stroke-width:0.26458332"
       d="m 22.972667,181.60274 12.13537,-19.86854 c 0.130264,0.0716 0.222801,0.20662 0.237986,0.3641 l -11.913045,19.50444 z"
       id="path832" />
    <path
       style="fill:#ffffff;fill-opacity:1;fill-rule:evenodd;stroke:none;stroke-width:0.26458332"
       d="m 22.655906,181.55574 12.139642,-19.87642 h -0.459837 l -11.92918,19.53116 c 0.02325,0.15175 0.118875,0.27964 0.249375,0.34526 z"
       id="path830" />
    <path
       style="fill:#ffffff;fill-opacity:1;fill-rule:evenodd;stroke:none;stroke-width:0.26458332"
       d="m 22.401074,180.65384 11.589166,-18.97428 -0.02942,-2.4e-4 H 33.529931 L 22.401076,179.9001 Z"
       id="path828" />
    <path
       style="fill:#ffffff;fill-opacity:1;fill-rule:evenodd;stroke:none;stroke-width:0.26458332"
       d="M 22.401074,179.33463 33.184695,161.67932 H 22.854267 c -0.249375,0 -0.453193,0.20901 -0.453193,0.46407 z"
       id="path826" />
    <path
       style="fill:#ffffff;fill-opacity:1;fill-rule:evenodd;stroke:none;stroke-width:0.26458332"
       d="m 22.854267,161.28492 h 12.040698 c 0.465057,0 0.845407,0.38629 0.845407,0.85847 v 18.99528 c 0,0.47218 -0.38035,0.85871 -0.845407,0.85871 H 22.854267 c -0.465057,0 -0.845644,-0.38653 -0.845644,-0.85871 v -18.99528 c 0,-0.47218 0.380587,-0.85847 0.845644,-0.85847 z"
       id="path822" />
    <path
       id="path852"
       d="m 27.011305,175.08877 0.07071,-0.0611 0.114604,-0.0895 0.117925,-0.0826 0.121009,-0.0759 0.12362,-0.0694 0.12623,-0.0627 0.128365,-0.0561 0.130738,-0.0496 0.132399,-0.0429 0.134059,-0.0363 0.135246,-0.0298 0.13667,-0.0231 0.137145,-0.0167 0.137856,-0.01 0.138093,-0.003 0.138093,0.003 0.137856,0.01 0.137382,0.0167 0.136432,0.0231 0.135247,0.0298 0.134059,0.0363 0.132636,0.0429 0.130501,0.0496 0.128602,0.0561 0.125993,0.0627 0.123857,0.0694 0.120772,0.0759 0.117925,0.0826 0.114603,0.0895 0.111282,0.0959 0.107722,0.10307 0.102502,0.10833 0.09538,0.1119 0.08898,0.11524 0.0821,0.11859 0.07545,0.12144 0.06905,0.12431 0.0624,0.12694 0.05576,0.12932 0.04935,0.13122 0.04271,0.13338 0.03607,0.13457 0.02966,0.13624 0.02302,0.13719 0.01661,0.13815 0.0097,0.13863 0.0033,0.13886 -0.0033,0.13887 -0.0097,0.13862 -0.01661,0.13815 -0.02302,0.13719 -0.02966,0.136 -0.03607,0.13481 -0.04271,0.13314 -0.04935,0.13147 -0.05576,0.12908 -0.0624,0.12693 -0.06905,0.12455 -0.07545,0.12145 -0.0821,0.11858 -0.08898,0.11524 -0.06074,0.0711 z m 3.769569,4.36444 -0.07094,0.0611 -0.114603,0.0895 -0.117925,0.0825 -0.120772,0.0759 -0.123857,0.0694 -0.125993,0.0627 -0.128602,0.0561 -0.130501,0.0496 -0.132636,0.0429 -0.134059,0.0363 -0.135247,0.0298 -0.136432,0.0231 -0.137382,0.0167 -0.137856,0.01 -0.138093,0.003 -0.138093,-0.003 -0.137856,-0.01 -0.137145,-0.0167 -0.13667,-0.0231 -0.135246,-0.0298 -0.134059,-0.0363 -0.132399,-0.0429 -0.130738,-0.0496 -0.128365,-0.0561 -0.12623,-0.0627 -0.12362,-0.0694 -0.121009,-0.0759 -0.117925,-0.0825 -0.114604,-0.0895 -0.111281,-0.0961 -0.107722,-0.10284 -0.102265,-0.10832 -0.09562,-0.11191 -0.08874,-0.11524 -0.08233,-0.11858 -0.07545,-0.12145 -0.06905,-0.12455 -0.0624,-0.12693 -0.05576,-0.12908 -0.04935,-0.13147 -0.04271,-0.13314 -0.03607,-0.13481 -0.02966,-0.136 -0.02301,-0.13719 -0.01637,-0.13815 -0.01,-0.13862 -0.0033,-0.13887 0.0033,-0.13886 0.01,-0.13863 0.01637,-0.13815 0.02301,-0.13719 0.02966,-0.13624 0.03607,-0.13457 0.04271,-0.13338 0.04935,-0.13122 0.05576,-0.12932 0.0624,-0.12694 0.06905,-0.12431 0.07545,-0.12144 0.08233,-0.11859 0.08874,-0.11524 0.06074,-0.0713 z m -4.381736,-4.69299 c 1.379036,-1.38673 3.614867,-1.38673 4.993666,0 1.379035,1.38674 1.379035,3.63481 0,5.02154 -1.378799,1.38649 -3.61463,1.38649 -4.993666,0 -1.378798,-1.38673 -1.378798,-3.63504 0,-5.02154 z"
       style="fill:#7d8684;fill-opacity:1;fill-rule:evenodd;stroke:none;stroke-width:0.26458332"
       inkscape:connector-curvature="0" />
    <path
       id="path854"
       d="m 27.902505,164.63818 h -0.353063 l -0.140466,-0.44809 h -0.642301 l -0.132398,0.44809 h -0.345234 l 0.626166,-1.97249 h 0.34381 z m -0.597693,-0.78022 -0.221139,-0.73202 -0.217817,0.73202 z m 1.060377,0.78022 v -1.95651 h 0.323642 v 1.62414 h 0.808155 v 0.33237 z m 3.095,0 h -0.353063 l -0.140704,-0.44809 h -0.642063 l -0.132636,0.44809 H 29.84649 l 0.626165,-1.97249 h 0.344048 z m -0.59793,-0.78022 -0.220902,-0.73202 -0.218055,0.73202 z"
       style="fill:#7d8684;fill-opacity:1;fill-rule:evenodd;stroke:none;stroke-width:0.26458332"
       inkscape:connector-curvature="0" />
    <path
       id="path856"
       d="m 29.044504,166.44508 0.146161,0.0112 0.144025,0.0184 0.141415,0.0253 0.138806,0.0322 0.136432,0.0389 0.133111,0.0453 0.1305,0.0518 0.127179,0.0577 0.123857,0.0639 0.120298,0.0694 0.116739,0.0754 0.112942,0.0806 0.108671,0.0859 0.104401,0.0909 0.09989,0.0959 0.09538,0.10045 0.0904,0.10498 0.08542,0.10952 0.0802,0.11333 0.07498,0.11739 0.06905,0.12097 0.06359,0.12455 0.05742,0.12789 0.05149,0.13123 0.04508,0.13385 0.03868,0.13695 0.03203,0.13982 0.02515,0.14221 0.01827,0.14459 0.01115,0.14721 0.0038,0.14937 -0.0038,0.14936 -0.01115,0.14697 -0.01827,0.14483 -0.02515,0.14221 -0.03203,0.13958 -0.03868,0.13695 -0.04508,0.1341 -0.05149,0.13122 -0.05742,0.12789 -0.06359,0.12455 -0.06905,0.12097 -0.07498,0.11739 -0.0802,0.11333 -0.08542,0.10928 -0.0904,0.10499 -0.09538,0.10068 -0.09989,0.0959 -0.104401,0.0909 -0.108671,0.0859 -0.112942,0.0806 -0.116739,0.0752 -0.120298,0.0697 -0.123857,0.0639 -0.127179,0.0577 -0.1305,0.0515 -0.133111,0.0456 -0.136432,0.0389 -0.138806,0.0322 -0.141415,0.0253 -0.144025,0.0184 -0.146161,0.0112 -0.148533,0.004 -0.148534,-0.004 -0.14616,-0.0112 -0.144026,-0.0184 -0.141415,-0.0253 -0.138805,-0.0322 -0.136195,-0.0389 -0.133348,-0.0456 -0.1305,-0.0515 -0.127179,-0.0577 -0.123857,-0.0639 -0.120298,-0.0697 -0.116739,-0.0752 -0.112705,-0.0806 -0.108671,-0.0859 -0.104401,-0.0909 -0.100129,-0.0959 -0.09538,-0.10068 -0.0904,-0.10499 -0.08542,-0.10928 -0.0802,-0.11333 -0.07474,-0.11739 -0.06928,-0.12097 -0.06335,-0.12455 -0.05766,-0.12789 -0.05149,-0.13122 -0.04484,-0.1341 -0.03868,-0.13695 -0.03227,-0.13958 -0.02515,-0.14221 -0.01827,-0.14483 -0.01115,-0.14697 -0.0038,-0.14936 0.0038,-0.14937 0.01115,-0.14721 0.01827,-0.14459 0.02515,-0.14221 0.03227,-0.13982 0.03868,-0.13695 0.04484,-0.13385 0.05149,-0.13123 0.05766,-0.12789 0.06335,-0.12455 0.06928,-0.12097 0.07474,-0.11739 0.0802,-0.11333 0.08542,-0.10952 0.0904,-0.10498 0.09538,-0.10045 0.100129,-0.0959 0.104401,-0.0909 0.108671,-0.0859 0.112705,-0.0806 0.116739,-0.0754 0.120298,-0.0694 0.123857,-0.0639 0.127179,-0.0577 0.1305,-0.0518 0.133348,-0.0453 0.136195,-0.0389 0.138805,-0.0322 0.141415,-0.0253 0.144026,-0.0184 0.14616,-0.0112 0.148534,-0.004 z m -0.148533,-0.66354 c 1.950154,0 3.531109,1.58978 3.531109,3.55082 0,1.96103 -1.580955,3.55081 -3.531109,3.55081 -1.950154,0 -3.53111,-1.58978 -3.53111,-3.55081 0,-1.96104 1.580956,-3.55082 3.53111,-3.55082 z m -1.761046,4.24514 0.460073,-0.068 c 0.01186,0.14387 0.05149,0.25363 0.117688,0.3295 0.0662,0.0766 0.143788,0.11477 0.233003,0.11477 0.09823,0 0.180566,-0.0453 0.248189,-0.13529 0.06691,-0.0899 0.100841,-0.21474 0.100841,-0.37341 0,-0.14817 -0.03251,-0.26436 -0.09728,-0.34859 -0.0643,-0.0845 -0.143076,-0.12693 -0.235376,-0.12693 -0.06074,0 -0.132399,0.0143 -0.216394,0.0432 l 0.05149,-0.47457 c 0.12267,0.002 0.219953,-0.0305 0.291135,-0.1 0.07023,-0.0694 0.105587,-0.16654 0.105587,-0.29276 0,-0.10546 -0.0261,-0.18778 -0.07688,-0.24719 -0.05054,-0.0597 -0.116264,-0.0892 -0.195751,-0.0892 -0.07972,0 -0.149483,0.0346 -0.207852,0.10259 -0.05861,0.0687 -0.09301,0.17012 -0.1044,0.30398 l -0.439669,-0.0907 c 0.04579,-0.27844 0.134534,-0.4803 0.266221,-0.60652 0.132637,-0.12598 0.298965,-0.1892 0.499699,-0.1892 0.226122,0 0.405264,0.0816 0.537663,0.24313 0.13311,0.16224 0.19931,0.34143 0.19931,0.5378 0,0.13314 -0.02942,0.25291 -0.08945,0.35909 -0.05979,0.10641 -0.149958,0.19994 -0.269781,0.28011 0.139517,0.0375 0.252222,0.11954 0.339539,0.24719 0.08755,0.12765 0.131212,0.28632 0.131212,0.47767 0,0.27773 -0.08186,0.50798 -0.246764,0.69003 -0.164194,0.18205 -0.359945,0.27295 -0.587016,0.27295 -0.21758,0 -0.401467,-0.0766 -0.552373,-0.23048 -0.150906,-0.15366 -0.238223,-0.36339 -0.262662,-0.62918 z m 2.845862,-2.24831 c 0.240358,0 0.435397,0.11548 0.584168,0.34572 0.148533,0.23049 0.222563,0.63348 0.222563,1.2097 0,0.57383 -0.07403,0.97634 -0.222563,1.20659 -0.148771,0.23096 -0.343335,0.34596 -0.582033,0.34596 -0.24107,0 -0.436346,-0.11404 -0.58488,-0.34238 -0.14877,-0.2281 -0.2228,-0.6342 -0.2228,-1.21662 0,-0.57168 0.07403,-0.97276 0.2228,-1.20325 0.148534,-0.23024 0.343098,-0.34572 0.582745,-0.34572 z m 0,0.48411 c -0.09372,0 -0.168465,0.0623 -0.224224,0.18706 -0.05552,0.12455 -0.08376,0.41946 -0.08376,0.88425 0,0.46479 0.02824,0.75945 0.08376,0.88281 0.05576,0.12407 0.130501,0.18635 0.224224,0.18635 0.09443,0 0.169651,-0.0623 0.224698,-0.18707 0.05505,-0.12454 0.08257,-0.41874 0.08257,-0.88209 0,-0.46479 -0.02752,-0.7597 -0.08257,-0.88425 -0.05505,-0.12478 -0.130263,-0.18706 -0.224698,-0.18706 z"
       style="fill:#7d8684;fill-opacity:1;fill-rule:evenodd;stroke:none;stroke-width:0.26458332"
       inkscape:connector-curvature="0" />
    <path
       id="path858"
       d="m 22.008623,181.99738 v -20.71246 h 13.731749 v 20.71246 z"
       style="fill:none;stroke:#231f20;stroke-width:0.05125115px;stroke-linecap:butt;stroke-linejoin:miter;stroke-miterlimit:4;stroke-dasharray:none;stroke-opacity:1"
       inkscape:connector-curvature="0" />
    <path
       id="path860"
       d="m 35.348158,163.97941 -10.763927,17.62285 10.312158,4.8e-4 c 0.248663,-7.2e-4 0.451769,-0.20925 0.451769,-0.46407 z M 24.23876,181.6025 35.348158,163.41417 v -0.75397 l -11.569709,18.9423 z m -1.266093,2.4e-4 12.13537,-19.86854 c 0.130264,0.0716 0.222801,0.20662 0.237986,0.3641 l -11.913045,19.50444 z m -0.316761,-0.047 12.139642,-19.87642 h -0.459837 l -11.92918,19.53116 c 0.02325,0.15175 0.118875,0.27964 0.249375,0.34526 z m -0.254832,-0.9019 11.589166,-18.97428 -0.02942,-2.4e-4 H 33.529931 L 22.401076,179.9001 Z m 0,-1.31921 10.783621,-17.65531 H 22.854267 c -0.249375,0 -0.453193,0.20901 -0.453193,0.46407 z m 0.453193,-18.04971 h 12.040698 c 0.465057,0 0.845407,0.38629 0.845407,0.85847 v 18.99528 c 0,0.47218 -0.38035,0.85871 -0.845407,0.85871 H 22.854267 c -0.465057,0 -0.845644,-0.38653 -0.845644,-0.85871 v -18.99528 c 0,-0.47218 0.380587,-0.85847 0.845644,-0.85847 z"
       style="fill:#1d1d1b;fill-opacity:1;fill-rule:evenodd;stroke:none;stroke-width:0.26458332"
       inkscape:connector-curvature="0" />
  </g>
</svg>
