<?xml version="1.0" encoding="UTF-8" standalone="no"?>
<!-- Created with Inkscape (http://www.inkscape.org/) -->

<svg
   xmlns:dc="http://purl.org/dc/elements/1.1/"
   xmlns:cc="http://creativecommons.org/ns#"
   xmlns:rdf="http://www.w3.org/1999/02/22-rdf-syntax-ns#"
   xmlns:svg="http://www.w3.org/2000/svg"
   xmlns="http://www.w3.org/2000/svg"
   xmlns:sodipodi="http://sodipodi.sourceforge.net/DTD/sodipodi-0.dtd"
   xmlns:inkscape="http://www.inkscape.org/namespaces/inkscape"
   width="15.394mm"
   height="15.393993mm"
   viewBox="0 0 15.394 15.393993"
   version="1.1"
   id="svg8"
   inkscape:version="0.92.2 (5c3e80d, 2017-08-06)"
   sodipodi:docname="413.svg">
  <defs
     id="defs2">
    <pattern
       y="0"
       x="0"
       height="6"
       width="6"
       patternUnits="userSpaceOnUse"
       id="EMFhbasepattern" />
    <pattern
       y="0"
       x="0"
       height="6"
       width="6"
       patternUnits="userSpaceOnUse"
       id="EMFhbasepattern-0" />
    <pattern
       y="0"
       x="0"
       height="6"
       width="6"
       patternUnits="userSpaceOnUse"
       id="EMFhbasepattern-2" />
  </defs>
  <sodipodi:namedview
     id="base"
     pagecolor="#ffffff"
     bordercolor="#666666"
     borderopacity="1.0"
     inkscape:pageopacity="0.0"
     inkscape:pageshadow="2"
     inkscape:zoom="5.6"
     inkscape:cx="-49.846257"
     inkscape:cy="62.755649"
     inkscape:document-units="mm"
     inkscape:current-layer="layer1"
     showgrid="false"
     fit-margin-top="0"
     fit-margin-left="0"
     fit-margin-right="0"
     fit-margin-bottom="0"
     inkscape:window-width="1920"
     inkscape:window-height="1027"
     inkscape:window-x="-8"
     inkscape:window-y="-8"
     inkscape:window-maximized="1" />
  <metadata
     id="metadata5">
    <rdf:RDF>
      <cc:Work
         rdf:about="">
        <dc:format>image/svg+xml</dc:format>
        <dc:type
           rdf:resource="http://purl.org/dc/dcmitype/StillImage" />
        <dc:title />
      </cc:Work>
    </rdf:RDF>
  </metadata>
  <g
     inkscape:label="Layer 1"
     inkscape:groupmode="layer"
     id="layer1"
     transform="translate(-28.412857,-167.1917)">
    <path
       inkscape:connector-curvature="0"
       style="fill:#ffffff;stroke:none;stroke-width:0.05153362px;stroke-linecap:butt;stroke-linejoin:miter;stroke-miterlimit:4;stroke-dasharray:none;stroke-opacity:1;fill-opacity:1"
       d="m 36.109738,167.21747 c 4.236732,0 7.671352,3.43462 7.671352,7.67135 0,4.23649 -3.43462,7.67111 -7.671352,7.67111 -4.236494,0 -7.671114,-3.43462 -7.671114,-7.67111 0,-4.23673 3.43462,-7.67135 7.671114,-7.67135 z"
       id="path822" />
    <path
       id="path877"
       d="m 36.109738,167.21747 c 4.236732,0 7.671352,3.43462 7.671352,7.67135 0,4.23649 -3.43462,7.67111 -7.671352,7.67111 -4.236494,0 -7.671114,-3.43462 -7.671114,-7.67111 0,-4.23673 3.43462,-7.67135 7.671114,-7.67135 z"
       style="fill:#fcffff;fill-opacity:1;fill-rule:evenodd;stroke:none;stroke-width:0.26458332"
       inkscape:connector-curvature="0" />
    <path
       id="path879"
       d="m 36.109738,167.21747 c 4.236732,0 7.671352,3.43462 7.671352,7.67135 0,4.23649 -3.43462,7.67111 -7.671352,7.67111 -4.236494,0 -7.671114,-3.43462 -7.671114,-7.67111 0,-4.23673 3.43462,-7.67135 7.671114,-7.67135 z"
       style="fill:none;stroke:#231f20;stroke-width:0.05153362px;stroke-linecap:butt;stroke-linejoin:miter;stroke-miterlimit:4;stroke-dasharray:none;stroke-opacity:1"
       inkscape:connector-curvature="0" />
    <path
       id="path881"
       d="m 36.109738,167.76549 c 3.933972,0 7.12333,3.18936 7.12333,7.12333 0,3.93397 -3.189358,7.12309 -7.12333,7.12309 -3.933972,0 -7.123092,-3.18912 -7.123092,-7.12309 0,-3.93397 3.18912,-7.12333 7.123092,-7.12333 z"
       style="fill:#2b9fcf;fill-opacity:1;fill-rule:evenodd;stroke:none;stroke-width:0.26458332"
       inkscape:connector-curvature="0" />
    <path
       id="path883"
       d="m 30.685108,175.63391 v -1.49042 h 7.24286 v -1.33701 l 3.606399,2.08234 -3.606399,2.0821 v -1.33701 z"
       style="fill:#fcffff;fill-opacity:1;fill-rule:evenodd;stroke:none;stroke-width:0.26458332"
       inkscape:connector-curvature="0" />
  </g>
</svg>
