<?xml version="1.0" encoding="UTF-8" standalone="no"?>
<!-- Created with Inkscape (http://www.inkscape.org/) -->

<svg
   xmlns:dc="http://purl.org/dc/elements/1.1/"
   xmlns:cc="http://creativecommons.org/ns#"
   xmlns:rdf="http://www.w3.org/1999/02/22-rdf-syntax-ns#"
   xmlns:svg="http://www.w3.org/2000/svg"
   xmlns="http://www.w3.org/2000/svg"
   xmlns:sodipodi="http://sodipodi.sourceforge.net/DTD/sodipodi-0.dtd"
   xmlns:inkscape="http://www.inkscape.org/namespaces/inkscape"
   width="15.394mm"
   height="15.393993mm"
   viewBox="0 0 15.394 15.393993"
   version="1.1"
   id="svg8"
   inkscape:version="0.92.2 (5c3e80d, 2017-08-06)"
   sodipodi:docname="435.svg">
  <defs
     id="defs2">
    <pattern
       y="0"
       x="0"
       height="6"
       width="6"
       patternUnits="userSpaceOnUse"
       id="EMFhbasepattern" />
    <pattern
       y="0"
       x="0"
       height="6"
       width="6"
       patternUnits="userSpaceOnUse"
       id="EMFhbasepattern-0" />
    <pattern
       y="0"
       x="0"
       height="6"
       width="6"
       patternUnits="userSpaceOnUse"
       id="EMFhbasepattern-2" />
    <pattern
       y="0"
       x="0"
       height="6"
       width="6"
       patternUnits="userSpaceOnUse"
       id="EMFhbasepattern-6" />
    <pattern
       y="0"
       x="0"
       height="6"
       width="6"
       patternUnits="userSpaceOnUse"
       id="EMFhbasepattern-03" />
    <pattern
       y="0"
       x="0"
       height="6"
       width="6"
       patternUnits="userSpaceOnUse"
       id="EMFhbasepattern-5" />
  </defs>
  <sodipodi:namedview
     id="base"
     pagecolor="#ffffff"
     bordercolor="#666666"
     borderopacity="1.0"
     inkscape:pageopacity="0.0"
     inkscape:pageshadow="2"
     inkscape:zoom="5.6"
     inkscape:cx="54.326637"
     inkscape:cy="10.308696"
     inkscape:document-units="mm"
     inkscape:current-layer="layer1"
     showgrid="false"
     fit-margin-top="0"
     fit-margin-left="0"
     fit-margin-right="0"
     fit-margin-bottom="0"
     inkscape:window-width="1920"
     inkscape:window-height="1027"
     inkscape:window-x="-8"
     inkscape:window-y="-8"
     inkscape:window-maximized="1" />
  <metadata
     id="metadata5">
    <rdf:RDF>
      <cc:Work
         rdf:about="">
        <dc:format>image/svg+xml</dc:format>
        <dc:type
           rdf:resource="http://purl.org/dc/dcmitype/StillImage" />
        <dc:title />
      </cc:Work>
    </rdf:RDF>
  </metadata>
  <g
     inkscape:label="Layer 1"
     inkscape:groupmode="layer"
     id="layer1"
     transform="translate(-0.85044516,-153.3151)">
    <path
       inkscape:connector-curvature="0"
       style="fill:#ffffff;stroke:none;stroke-width:0.05153362px;stroke-linecap:butt;stroke-linejoin:miter;stroke-miterlimit:4;stroke-dasharray:none;stroke-opacity:1;fill-opacity:1"
       d="m 8.547326,153.34087 c 4.236732,0 7.671352,3.43462 7.671352,7.67135 0,4.23649 -3.43462,7.67111 -7.671352,7.67111 -4.236494,0 -7.67111403,-3.43462 -7.67111403,-7.67111 0,-4.23673 3.43462003,-7.67135 7.67111403,-7.67135 z"
       id="path823" />
    <path
       id="path949"
       d="m 8.547326,153.34087 c 4.236732,0 7.671352,3.43462 7.671352,7.67135 0,4.23649 -3.43462,7.67111 -7.671352,7.67111 -4.236494,0 -7.67111403,-3.43462 -7.67111403,-7.67111 0,-4.23673 3.43462003,-7.67135 7.67111403,-7.67135 z"
       style="fill:#fcffff;fill-opacity:1;fill-rule:evenodd;stroke:none;stroke-width:0.26458332"
       inkscape:connector-curvature="0" />
    <path
       id="path951"
       d="m 8.547326,153.34087 c 4.236732,0 7.671352,3.43462 7.671352,7.67135 0,4.23649 -3.43462,7.67111 -7.671352,7.67111 -4.236494,0 -7.67111403,-3.43462 -7.67111403,-7.67111 0,-4.23673 3.43462003,-7.67135 7.67111403,-7.67135 z"
       style="fill:none;stroke:#231f20;stroke-width:0.05153362px;stroke-linecap:butt;stroke-linejoin:miter;stroke-miterlimit:4;stroke-dasharray:none;stroke-opacity:1"
       inkscape:connector-curvature="0" />
    <path
       id="path953"
       d="m 8.547326,153.88889 c 3.933972,0 7.12333,3.18936 7.12333,7.12333 0,3.93397 -3.189358,7.12309 -7.12333,7.12309 -3.933972,0 -7.123092,-3.18912 -7.123092,-7.12309 0,-3.93397 3.18912,-7.12333 7.123092,-7.12333 z"
       style="fill:#2b9fcf;fill-opacity:1;fill-rule:evenodd;stroke:none;stroke-width:0.26458332"
       inkscape:connector-curvature="0" />
    <path
       id="path955"
       d="m 8.330694,157.35429 c -0.02935,-0.0754 -0.251704,-0.81047 -0.344035,-0.96268 0.02314,0.18609 -0.04032,0.27532 -0.20184,0.79352 0.291308,0.16582 0.727197,1.96329 0.786842,2.30565 -0.309679,0.0816 -0.558281,0.11047 -0.558281,0.11047 0.05129,0.55589 -0.143865,0.96077 -0.154124,1.43912 -0.0057,0.0406 0.07539,0.23071 0.05201,0.29489 -0.02314,0.0639 -0.151738,0.0997 -0.177743,0.10831 -0.05965,0.0198 -0.144342,-0.0892 -0.156032,-0.14744 -0.01169,-0.0582 0.05106,-0.22164 0.06847,-0.39652 0.03841,-0.38364 -0.102351,-0.82239 -0.03555,-1.25542 0,0 -0.0067,-0.0107 -0.157225,-0.0129 0.02171,0.12287 0.0229,0.4712 -0.0699,1.31363 -0.04509,0.40869 0.07038,0.53776 0.02362,0.59598 -0.04652,0.0582 -0.0637,0.14553 -0.141718,0.11523 -0.0439,-0.0172 -0.178936,-0.057 -0.167246,-0.17345 0.01169,-0.11666 0.07611,-0.19086 0.06418,-0.23333 -0.01742,-0.5213 -0.248363,-1.10869 -0.139332,-1.63381 -0.170585,-0.0205 -0.475016,-0.0751 -0.541818,-0.11476 0,-0.1305 0.05964,-0.71192 0.181322,-1.1929 -0.214247,-0.51773 -0.250988,-0.68783 -0.350477,-1.09963 0.02791,-0.19921 0.282004,-1.04403 0.320177,-1.21199 0.05821,-0.25648 0.428731,-0.31636 0.522493,-0.34427 0.179414,-0.053 -0.17321,-0.0346 -0.254328,-0.23381 0.169155,0.002 0.108078,-0.32447 0.109271,-0.42372 9.54e-4,-0.0995 0.09424,-0.44854 0.417279,-0.44806 0.323039,4.8e-4 0.418233,0.35262 0.417756,0.44734 -2.38e-4,0.079 -0.07611,0.42682 0.09997,0.42873 -0.08827,0.19325 -0.445193,0.19134 -0.286536,0.22952 0.187286,0.0448 0.471914,0.0508 0.596215,0.36598 0.03459,0.0389 0.169154,0.74581 0.169154,0.74581 0,0 0.06967,0.35 0.203749,0.50746 0.134083,0.15746 0.145773,0.94812 0.169154,0.98892 0.02314,0.0408 0.06943,0.15603 0.06943,0.15603 0,0 0.07468,0.1453 -0.0069,0.1861 -0.0816,0.0408 0.259577,0.31087 0.3061,0.3865 0.143865,-0.0353 0.389842,-0.40058 0.444,-0.40344 0.178936,-0.01 0.289877,0.0446 0.185617,-0.0293 -0.134799,-0.0957 -0.111179,-0.14148 -0.09615,-0.24908 0.0198,-0.14076 0.0019,-0.31994 0.243831,-0.31707 0.304191,0.003 0.387933,0.32137 0.0971,0.55732 -0.0303,0.0246 -0.04676,0.0556 -0.0079,0.0599 0.07802,0.009 0.22212,0.073 0.22212,0.073 0.11762,0.0625 0.280333,0.60934 0.337115,0.86987 0.02696,0.12478 -0.02982,0.44567 -0.02982,0.44567 0,0 -0.0055,0.22188 -0.02314,0.24503 -0.01742,0.0234 -0.108554,0.0773 -0.131935,0.0539 -0.02338,-0.0234 0.04294,-0.13027 0.03412,-0.21711 -0.0029,-0.0296 -0.01288,-0.35931 -0.0041,-0.48599 -0.0544,-0.15938 -0.214962,-0.48743 -0.214962,-0.48743 -0.01002,0.1057 0.03316,0.87703 -0.02099,2.1396 0.02815,0.0484 0.06322,0.12597 0.07587,0.16319 -0.01431,0.0558 -0.10927,0.12884 -0.161759,0.14625 -0.0711,-0.0227 -0.146727,-0.1033 -0.158418,-0.13813 0.0017,-0.0458 0.05774,-0.17393 0.05774,-0.17393 0,0 -0.0072,-0.39963 -0.01169,-0.44639 -0.0084,-0.0849 -0.07277,-0.50006 -0.101158,-0.54587 -0.02911,0.0487 -0.101874,0.27866 -0.167007,0.47597 0.0041,0.14195 0.0091,0.55398 0.03865,0.6382 0.01837,0.0439 0.06418,0.19063 0.04294,0.2362 -0.0167,0.0358 -0.08899,0.0716 -0.132413,0.0706 -0.04533,-9.5e-4 -0.189911,-0.0639 -0.188241,-0.0997 0.0017,-0.0394 0.02744,-0.12549 0.09543,-0.21567 -0.211622,-0.69308 -0.05798,-0.85341 0.0095,-1.58013 0.03173,-0.34141 -0.0272,-0.79973 -0.0272,-0.79973 -0.154601,0.13743 -0.45092,0.25171 -0.45092,0.25171 -0.182037,-0.0909 -0.379106,-0.45474 -0.379106,-0.45474 0.006,-0.0351 -0.0396,-0.0262 -0.0804,-0.10784 -0.0408,-0.0816 0.01312,-0.19086 0.01742,-0.30801 -0.0742,-0.31516 -0.303953,-0.73149 -0.348329,-1.00132 z m -1.415028,-0.96268 c -0.142433,0.20709 -0.276039,0.67208 -0.293455,0.79352 0.04294,0.10641 0.0396,0.56043 0.16319,0.75559 0.0408,-0.14291 0.12955,-0.58047 0.309679,-0.75559 -0.185617,-0.44424 -0.211622,-0.58357 -0.179414,-0.79352 z"
       style="fill:#fcffff;fill-opacity:1;fill-rule:evenodd;stroke:none;stroke-width:0.26458332"
       inkscape:connector-curvature="0" />
    <path
       id="path957"
       d="m 6.570677,164.51507 c 0.09639,0 0.189434,0.0157 0.276278,0.0446 l -0.298227,0.71908 c -0.02171,0.0522 -0.09424,0.0916 -0.1682,0.12836 -0.102352,0.0506 -0.05297,0.27914 0.135514,0.1725 0.108316,-0.0613 0.20685,-0.13647 0.252897,-0.2498 l 0.274846,-0.6759 c 0.244068,0.15675 0.406065,0.43088 0.406065,0.74151 0,0.48504 -0.394852,0.8806 -0.879173,0.8806 -0.484321,0 -0.879411,-0.39556 -0.879411,-0.8806 0,-0.4848 0.39509,-0.88037 0.879411,-0.88037 z m 3.953536,0.003 c 0.48432,0 0.879173,0.39557 0.879173,0.88036 0,0.48504 -0.394853,0.88061 -0.879173,0.88061 -0.435412,0 -0.798533,-0.3197 -0.867483,-0.73674 l 0.801157,4.8e-4 c 0.09329,0 0.110941,-0.0969 0.0909,-0.14268 l -0.358111,-0.81618 c 0.102828,-0.0425 0.215439,-0.0659 0.333537,-0.0659 z m -0.876788,0.81332 c 0.02004,-0.26363 0.156749,-0.49553 0.358589,-0.64345 l 0.274846,0.64297 z m -2.720784,-0.97007 0.244785,-0.62723 c 0.0377,-0.0964 -0.155317,-0.20781 -0.279618,-0.41561 -0.15651,-0.26196 0.06776,-0.36718 0.143626,-0.36718 h 0.690932 c 0.176074,0 0.172733,0.21234 -0.0026,0.21234 l -0.559712,-2.4e-4 c -0.162713,-7.1e-4 -0.06418,0.084 -0.03245,0.13432 0.07825,0.12454 0.341171,0.28296 0.266734,0.43756 H 9.62836 l 0.08327,-0.1379 H 9.228025 c -0.154362,0 -0.16486,-0.27675 -0.0033,-0.27675 h 0.773004 c 0.168678,0 0.198977,0.28105 -0.03746,0.27675 l -0.106407,0.1744 0.25385,0.6165 c 0.128596,-0.0534 0.26912,-0.083 0.416564,-0.083 0.601225,0 1.091749,0.49124 1.091749,1.09318 0,0.60218 -0.490524,1.09342 -1.091749,1.09342 -0.552555,0 -1.011586,-0.41489 -1.082206,-0.94931 l -0.668983,4.7e-4 -1.576547,-1.28524 -0.07515,0.19182 c 0.319461,0.19111 0.541103,0.54779 0.541103,0.94598 0,0.60218 -0.490523,1.09318 -1.091749,1.09318 -0.601225,0 -1.091749,-0.491 -1.091749,-1.09318 0,-0.60218 0.490524,-1.09318 1.091749,-1.09318 0.127164,0 0.252897,0.0255 0.355964,0.0589 z m 1.985714,0.96864 0.803066,-1.32938 0.204465,0.48814 c -0.275562,0.18443 -0.463326,0.49076 -0.485275,0.84076 z m -0.186809,-0.10665 -1.446759,-1.16761 0.03459,-0.1076 2.185884,0.004 z"
       style="fill:#fcffff;fill-opacity:1;fill-rule:evenodd;stroke:none;stroke-width:0.26458332"
       inkscape:connector-curvature="0" />
  </g>
</svg>
