<?xml version="1.0" encoding="UTF-8" standalone="no"?>
<!-- Created with Inkscape (http://www.inkscape.org/) -->

<svg
   xmlns:dc="http://purl.org/dc/elements/1.1/"
   xmlns:cc="http://creativecommons.org/ns#"
   xmlns:rdf="http://www.w3.org/1999/02/22-rdf-syntax-ns#"
   xmlns:svg="http://www.w3.org/2000/svg"
   xmlns="http://www.w3.org/2000/svg"
   xmlns:sodipodi="http://sodipodi.sourceforge.net/DTD/sodipodi-0.dtd"
   xmlns:inkscape="http://www.inkscape.org/namespaces/inkscape"
   width="7.875999mm"
   height="7.8759913mm"
   viewBox="0 0 7.8759989 7.8759912"
   version="1.1"
   id="svg8"
   inkscape:version="0.92.2 (5c3e80d, 2017-08-06)"
   sodipodi:docname="521.svg">
  <defs
     id="defs2">
    <pattern
       y="0"
       x="0"
       height="6"
       width="6"
       patternUnits="userSpaceOnUse"
       id="EMFhbasepattern" />
    <pattern
       y="0"
       x="0"
       height="6"
       width="6"
       patternUnits="userSpaceOnUse"
       id="EMFhbasepattern-0" />
    <pattern
       y="0"
       x="0"
       height="6"
       width="6"
       patternUnits="userSpaceOnUse"
       id="EMFhbasepattern-2" />
    <pattern
       y="0"
       x="0"
       height="6"
       width="6"
       patternUnits="userSpaceOnUse"
       id="EMFhbasepattern-6" />
    <pattern
       y="0"
       x="0"
       height="6"
       width="6"
       patternUnits="userSpaceOnUse"
       id="EMFhbasepattern-03" />
    <pattern
       y="0"
       x="0"
       height="6"
       width="6"
       patternUnits="userSpaceOnUse"
       id="EMFhbasepattern-5" />
    <pattern
       y="0"
       x="0"
       height="6"
       width="6"
       patternUnits="userSpaceOnUse"
       id="EMFhbasepattern-69" />
    <pattern
       y="0"
       x="0"
       height="6"
       width="6"
       patternUnits="userSpaceOnUse"
       id="EMFhbasepattern-54" />
    <pattern
       y="0"
       x="0"
       height="6"
       width="6"
       patternUnits="userSpaceOnUse"
       id="EMFhbasepattern-1" />
    <pattern
       y="0"
       x="0"
       height="6"
       width="6"
       patternUnits="userSpaceOnUse"
       id="EMFhbasepattern-05" />
    <pattern
       y="0"
       x="0"
       height="6"
       width="6"
       patternUnits="userSpaceOnUse"
       id="EMFhbasepattern-58" />
  </defs>
  <sodipodi:namedview
     id="base"
     pagecolor="#ffffff"
     bordercolor="#666666"
     borderopacity="1.0"
     inkscape:pageopacity="0.0"
     inkscape:pageshadow="2"
     inkscape:zoom="15.839192"
     inkscape:cx="8.9703018"
     inkscape:cy="21.264335"
     inkscape:document-units="mm"
     inkscape:current-layer="layer1"
     showgrid="false"
     fit-margin-top="0"
     fit-margin-left="0"
     fit-margin-right="0"
     fit-margin-bottom="0"
     inkscape:window-width="1920"
     inkscape:window-height="1027"
     inkscape:window-x="-8"
     inkscape:window-y="-8"
     inkscape:window-maximized="1" />
  <metadata
     id="metadata5">
    <rdf:RDF>
      <cc:Work
         rdf:about="">
        <dc:format>image/svg+xml</dc:format>
        <dc:type
           rdf:resource="http://purl.org/dc/dcmitype/StillImage" />
        <dc:title />
      </cc:Work>
    </rdf:RDF>
  </metadata>
  <g
     inkscape:label="Layer 1"
     inkscape:groupmode="layer"
     id="layer1"
     transform="translate(-24.324249,-167.69186)">
    <path
       style="fill:#ffffff;fill-opacity:1;fill-rule:evenodd;stroke:none;stroke-width:0.26458332"
       d="m 24.349995,168.44134 9.53e-4,-0.0343 0.0029,-0.0367 0.0045,-0.0365 0.0064,-0.0358 0.0081,-0.0353 0.0098,-0.0346 0.01144,-0.0339 0.01311,-0.0329 0.01454,-0.0324 0.01597,-0.0312 0.01764,-0.0305 0.01883,-0.0296 0.02026,-0.0284 0.02145,-0.0274 0.02288,-0.0262 0.02408,-0.0253 0.02503,-0.0241 0.02646,-0.0226 0.02742,-0.0217 0.02837,-0.0203 0.02956,-0.0188 0.03051,-0.0174 0.03123,-0.0162 0.03218,-0.0145 0.03313,-0.0131 0.03385,-0.0114 0.03457,-0.01 0.03528,-0.008 0.03576,-0.006 0.03623,-0.005 0.03695,-0.003 0.03433,-9.5e-4 h 6.377036 l 0.03433,9.5e-4 0.03671,0.003 0.03647,0.005 0.03576,0.006 0.03528,0.008 0.03457,0.01 0.03385,0.0114 0.0329,0.0131 0.03242,0.0145 0.03147,0.0162 0.03028,0.0174 0.02956,0.0188 0.02837,0.0203 0.02741,0.0217 0.02646,0.0226 0.02503,0.0241 0.02408,0.0253 0.02288,0.0262 0.02145,0.0274 0.02026,0.0284 0.01883,0.0296 0.01764,0.0305 0.01597,0.0312 0.01454,0.0324 0.01311,0.0329 0.01144,0.0339 0.0098,0.0346 0.0081,0.0353 0.0064,0.0358 0.0045,0.0365 0.0029,0.0367 9.53e-4,0.0343 v 6.37704 l -9.53e-4,0.0343 -0.0029,0.0369 -0.0045,0.0362 -0.0064,0.0358 -0.0081,0.0353 -0.0098,0.0346 -0.01144,0.0339 -0.01311,0.0331 -0.01454,0.0322 -0.01597,0.0315 -0.01764,0.0303 -0.01883,0.0296 -0.02026,0.0284 -0.02145,0.0274 -0.02288,0.0265 -0.02408,0.025 -0.02503,0.0241 -0.02646,0.0229 -0.02741,0.0214 -0.02837,0.0203 -0.02956,0.0188 -0.03028,0.0176 -0.03147,0.016 -0.03218,0.0145 -0.03314,0.0131 -0.03385,0.0114 -0.03457,0.01 -0.03528,0.008 -0.03576,0.006 -0.03647,0.005 -0.03671,0.003 -0.03433,9.5e-4 h -6.377036 l -0.03433,-9.5e-4 -0.03695,-0.003 -0.03623,-0.005 -0.03576,-0.006 -0.03528,-0.008 -0.03457,-0.01 -0.03385,-0.0114 -0.03313,-0.0131 -0.03218,-0.0145 -0.03123,-0.016 -0.03051,-0.0176 -0.02956,-0.0188 -0.02837,-0.0203 -0.02742,-0.0214 -0.02646,-0.0229 -0.02503,-0.0241 -0.02408,-0.025 -0.02288,-0.0265 -0.02145,-0.0274 -0.02026,-0.0284 -0.01883,-0.0296 -0.01764,-0.0303 -0.01597,-0.0315 -0.01454,-0.0322 -0.01311,-0.0331 -0.01144,-0.0339 -0.0098,-0.0346 -0.0081,-0.0353 -0.0064,-0.0358 -0.0045,-0.0362 -0.0029,-0.0369 -9.53e-4,-0.0343 z"
       id="path831" />
    <path
       style="fill:#ffffff;fill-opacity:1;fill-rule:evenodd;stroke:none;stroke-width:0.26458332"
       d="m 24.5736,174.81552 v -6.37132 0 c 0,-0.27772 0.225273,-0.50299 0.502992,-0.50299 v 0 h 6.371314 v 0 c 0.277719,0 0.502992,0.22527 0.502992,0.50299 v 0 6.37132 0 c 0,0.27772 -0.225273,0.50299 -0.502992,0.50299 v 0 h -6.371314 v 0 c -0.277719,0 -0.502992,-0.22527 -0.502992,-0.50299 z"
       id="path827" />
    <path
       id="path1077"
       d="m 32.174503,175.54211 h -7.824508 v -7.8245 h 7.824508 z"
       style="fill:#2b9fcf;fill-opacity:1;fill-rule:evenodd;stroke:none;stroke-width:0.26458332"
       inkscape:connector-curvature="0" />
    <path
       id="path1079"
       d="m 32.174503,175.54211 h -7.824508 v -7.8245 h 7.824508 z"
       style="fill:none;stroke:#231f20;stroke-width:0.05149115px;stroke-linecap:butt;stroke-linejoin:miter;stroke-miterlimit:4;stroke-dasharray:none;stroke-opacity:1"
       inkscape:connector-curvature="0" />
    <path
       id="path1081"
       d="m 24.349995,168.44134 9.53e-4,-0.0343 0.0029,-0.0367 0.0045,-0.0365 0.0064,-0.0358 0.0081,-0.0353 0.0098,-0.0346 0.01144,-0.0339 0.01311,-0.0329 0.01454,-0.0324 0.01597,-0.0312 0.01764,-0.0305 0.01883,-0.0296 0.02026,-0.0284 0.02145,-0.0274 0.02288,-0.0262 0.02408,-0.0253 0.02503,-0.0241 0.02646,-0.0226 0.02742,-0.0217 0.02837,-0.0203 0.02956,-0.0188 0.03051,-0.0174 0.03123,-0.0162 0.03218,-0.0145 0.03313,-0.0131 0.03385,-0.0114 0.03457,-0.01 0.03528,-0.008 0.03576,-0.006 0.03623,-0.005 0.03695,-0.003 0.03433,-9.5e-4 h 6.377036 l 0.03433,9.5e-4 0.03671,0.003 0.03647,0.005 0.03576,0.006 0.03528,0.008 0.03457,0.01 0.03385,0.0114 0.0329,0.0131 0.03242,0.0145 0.03147,0.0162 0.03028,0.0174 0.02956,0.0188 0.02837,0.0203 0.02741,0.0217 0.02646,0.0226 0.02503,0.0241 0.02408,0.0253 0.02288,0.0262 0.02145,0.0274 0.02026,0.0284 0.01883,0.0296 0.01764,0.0305 0.01597,0.0312 0.01454,0.0324 0.01311,0.0329 0.01144,0.0339 0.0098,0.0346 0.0081,0.0353 0.0064,0.0358 0.0045,0.0365 0.0029,0.0367 9.53e-4,0.0343 v 6.37704 l -9.53e-4,0.0343 -0.0029,0.0369 -0.0045,0.0362 -0.0064,0.0358 -0.0081,0.0353 -0.0098,0.0346 -0.01144,0.0339 -0.01311,0.0331 -0.01454,0.0322 -0.01597,0.0315 -0.01764,0.0303 -0.01883,0.0296 -0.02026,0.0284 -0.02145,0.0274 -0.02288,0.0265 -0.02408,0.025 -0.02503,0.0241 -0.02646,0.0229 -0.02741,0.0214 -0.02837,0.0203 -0.02956,0.0188 -0.03028,0.0176 -0.03147,0.016 -0.03218,0.0145 -0.03314,0.0131 -0.03385,0.0114 -0.03457,0.01 -0.03528,0.008 -0.03576,0.006 -0.03647,0.005 -0.03671,0.003 -0.03433,9.5e-4 h -6.377036 l -0.03433,-9.5e-4 -0.03695,-0.003 -0.03623,-0.005 -0.03576,-0.006 -0.03528,-0.008 -0.03457,-0.01 -0.03385,-0.0114 -0.03313,-0.0131 -0.03218,-0.0145 -0.03123,-0.016 -0.03051,-0.0176 -0.02956,-0.0188 -0.02837,-0.0203 -0.02742,-0.0214 -0.02646,-0.0229 -0.02503,-0.0241 -0.02408,-0.025 -0.02288,-0.0265 -0.02145,-0.0274 -0.02026,-0.0284 -0.01883,-0.0296 -0.01764,-0.0303 -0.01597,-0.0315 -0.01454,-0.0322 -0.01311,-0.0331 -0.01144,-0.0339 -0.0098,-0.0346 -0.0081,-0.0353 -0.0064,-0.0358 -0.0045,-0.0362 -0.0029,-0.0369 -9.53e-4,-0.0343 z m 0.223605,6.37418 v -6.37132 0 c 0,-0.27772 0.225273,-0.50299 0.502992,-0.50299 v 0 h 6.371314 v 0 c 0.277719,0 0.502992,0.22527 0.502992,0.50299 v 0 6.37132 0 c 0,0.27772 -0.225273,0.50299 -0.502992,0.50299 v 0 h -6.371314 v 0 c -0.277719,0 -0.502992,-0.22527 -0.502992,-0.50299 z"
       style="fill:#fcffff;fill-opacity:1;fill-rule:evenodd;stroke:none;stroke-width:0.26458332"
       inkscape:connector-curvature="0" />
    <path
       id="path1083"
       d="m 29.044748,172.18875 v 2.45918 H 27.47975 v -2.45918 h -1.285371 l 2.067989,-3.58173 2.067751,3.58173 z"
       style="fill:#fcffff;fill-opacity:1;fill-rule:evenodd;stroke:none;stroke-width:0.26458332"
       inkscape:connector-curvature="0" />
  </g>
</svg>
