<?xml version="1.0" encoding="UTF-8" standalone="no"?>
<!-- Created with Inkscape (http://www.inkscape.org/) -->

<svg
   xmlns:dc="http://purl.org/dc/elements/1.1/"
   xmlns:cc="http://creativecommons.org/ns#"
   xmlns:rdf="http://www.w3.org/1999/02/22-rdf-syntax-ns#"
   xmlns:svg="http://www.w3.org/2000/svg"
   xmlns="http://www.w3.org/2000/svg"
   xmlns:sodipodi="http://sodipodi.sourceforge.net/DTD/sodipodi-0.dtd"
   xmlns:inkscape="http://www.inkscape.org/namespaces/inkscape"
   width="4.474999mm"
   height="6.8011246mm"
   viewBox="0 0 4.474999 6.8011246"
   version="1.1"
   id="svg8"
   inkscape:version="0.92.2 (5c3e80d, 2017-08-06)">
  <defs
     id="defs2">
    <pattern
       y="0"
       x="0"
       height="6"
       width="6"
       patternUnits="userSpaceOnUse"
       id="EMFhbasepattern" />
  </defs>
  <sodipodi:namedview
     id="base"
     pagecolor="#ffffff"
     bordercolor="#666666"
     borderopacity="1.0"
     inkscape:pageopacity="0.0"
     inkscape:pageshadow="2"
     inkscape:zoom="11.2"
     inkscape:cx="21.456956"
     inkscape:cy="18.277547"
     inkscape:document-units="mm"
     inkscape:current-layer="layer1"
     showgrid="false"
     fit-margin-top="0"
     fit-margin-left="0"
     fit-margin-right="0"
     fit-margin-bottom="0"
     inkscape:window-width="1920"
     inkscape:window-height="1027"
     inkscape:window-x="-8"
     inkscape:window-y="-8"
     inkscape:window-maximized="1" />
  <metadata
     id="metadata5">
    <rdf:RDF>
      <cc:Work
         rdf:about="">
        <dc:format>image/svg+xml</dc:format>
        <dc:type
           rdf:resource="http://purl.org/dc/dcmitype/StillImage" />
        <dc:title></dc:title>
      </cc:Work>
    </rdf:RDF>
  </metadata>
  <g
     inkscape:label="Layer 1"
     inkscape:groupmode="layer"
     id="layer1"
     transform="translate(176.10654,-94.02801)">
    <path
       id="path818"
       d="m -176.08107,100.80366 v -6.750176 h 4.42405 v 6.750176 z"
       style="fill:#2b9fcf;fill-opacity:1;fill-rule:evenodd;stroke:none;stroke-width:0.26458332"
       inkscape:connector-curvature="0" />
    <path
       id="path820"
       d="m -176.08107,100.80366 v -6.750176 h 4.42405 v 6.750176 z"
       style="fill:none;stroke:#231f20;stroke-width:0.05094877px;stroke-linecap:round;stroke-linejoin:miter;stroke-miterlimit:4;stroke-dasharray:none;stroke-opacity:1"
       inkscape:connector-curvature="0" />
    <path
       id="path822"
       d="m -172.14198,94.053484 0.0229,4.8e-4 0.0243,0.0019 0.0238,0.0029 0.0238,0.0041 0.0231,0.005 0.0229,0.006 0.0224,0.0074 0.0219,0.0082 0.0212,0.0091 0.021,0.01032 0.0203,0.01104 0.0196,0.012 0.0191,0.01272 0.0184,0.01392 0.0177,0.01464 0.017,0.01536 0.0163,0.01607 0.0153,0.01704 0.0146,0.01775 0.0139,0.01848 0.013,0.01919 0.0118,0.01967 0.0111,0.02063 0.0102,0.02111 0.009,0.02159 0.008,0.02231 0.007,0.02255 0.006,0.02327 0.004,0.02375 0.003,0.02399 0.002,0.02423 4.7e-4,0.02279 v 5.811086 l -4.7e-4,0.0228 -0.002,0.0242 -0.003,0.024 -0.004,0.0237 -0.006,0.023 -0.007,0.0228 -0.008,0.0223 -0.009,0.0216 -0.0102,0.0211 -0.0111,0.0206 -0.0118,0.0197 -0.013,0.0192 -0.0139,0.0185 -0.0146,0.0178 -0.0153,0.0168 -0.0163,0.0163 -0.017,0.0154 -0.0177,0.0146 -0.0184,0.0139 -0.0191,0.0127 -0.0196,0.012 -0.0203,0.0113 -0.021,0.0101 -0.0212,0.009 -0.0219,0.008 -0.0224,0.007 -0.0229,0.006 -0.0231,0.005 -0.0238,0.004 -0.0238,0.003 -0.0243,0.002 -0.0229,7.2e-4 h -3.4539 l -0.0229,-7.2e-4 -0.0243,-0.002 -0.0241,-0.003 -0.0236,-0.004 -0.0231,-0.005 -0.0229,-0.006 -0.0224,-0.007 -0.0219,-0.008 -0.0215,-0.009 -0.0207,-0.0101 -0.0203,-0.0113 -0.0196,-0.012 -0.0191,-0.0127 -0.0184,-0.0139 -0.0177,-0.0146 -0.017,-0.0154 -0.0163,-0.0163 -0.0156,-0.0168 -0.0146,-0.0178 -0.0137,-0.0185 -0.013,-0.0192 -0.012,-0.0197 -0.0111,-0.0206 -0.01,-0.0211 -0.009,-0.0216 -0.008,-0.0223 -0.007,-0.0228 -0.006,-0.023 -0.004,-0.0237 -0.003,-0.024 -0.002,-0.0242 -7.1e-4,-0.0228 v -5.811099 l 7.1e-4,-0.02279 0.002,-0.02423 0.003,-0.02399 0.004,-0.02375 0.006,-0.02327 0.007,-0.02255 0.008,-0.02231 0.009,-0.02159 0.01,-0.02111 0.0111,-0.02063 0.012,-0.01967 0.013,-0.01919 0.0137,-0.01847 0.0146,-0.01775 0.0156,-0.01704 0.0163,-0.01608 0.017,-0.01536 0.0177,-0.01464 0.0184,-0.01392 0.0191,-0.01272 0.0196,-0.012 0.0203,-0.01104 0.0207,-0.01032 0.0215,-0.0091 0.0219,-0.0082 0.0224,-0.0074 0.0229,-0.006 0.0231,-0.005 0.0236,-0.0041 0.0241,-0.0029 0.0243,-0.0019 0.0229,-4.8e-4 z m -3.45249,0.1346 h 3.45084 v 0 c 0.19554,0 0.35381,0.150916 0.35381,0.336861 v 0 5.807255 0 c 0,0.18594 -0.15827,0.33662 -0.35381,0.33662 v 0 h -3.45084 v 0 c -0.1953,0 -0.35381,-0.15068 -0.35381,-0.33662 v 0 -5.807255 0 c 0,-0.185945 0.15851,-0.336861 0.35381,-0.336861 z"
       style="fill:#fcffff;fill-opacity:1;fill-rule:evenodd;stroke:none;stroke-width:0.26458332"
       inkscape:connector-curvature="0" />
    <path
       id="path824"
       d="m -175.63857,98.782014 v -3.712669 h 3.53928 v 3.712669 z"
       style="fill:#ffffff;fill-opacity:1;fill-rule:evenodd;stroke:none;stroke-width:0.26458332"
       inkscape:connector-curvature="0" />
    <path
       id="path826"
       d="m -175.09937,96.27667 c 0.0255,-0.03143 0.0809,-0.04775 0.13209,-0.04775 0.051,0 2.22288,0 2.39766,0 0.0847,0 0.11983,0.03743 0.1729,0.23993 0.0377,0.143237 0.0486,0.276878 0.0486,0.30591 0,0.05638 0,0.571751 0,0.602222 0,0.03023 -0.0342,0.07798 -0.0639,0.07798 -0.03,0 -0.18328,0 -0.22998,0 -0.0469,0 -0.0597,-0.03023 -0.0597,-0.06502 0,-0.03455 -0.034,-0.316226 -0.30663,-0.316226 -0.23446,0 -0.31089,0.206099 -0.31089,0.342139 0,0.03911 -0.0297,0.03911 -0.0597,0.03911 -0.0297,0 -1.08597,0 -1.11569,0 -0.03,0 -0.0682,-0.0053 -0.0682,-0.08973 0,-0.0607 -0.0616,-0.262963 -0.30239,-0.262963 -0.24956,0 -0.29815,0.236331 -0.29815,0.300632 0,0.04367 -0.0257,0.05206 -0.0554,0.05206 -0.0297,0 -0.0382,0 -0.0724,0 -0.034,0 -0.0979,-0.04439 -0.0979,-0.140359 0,-0.03479 0,-0.448908 0,-0.522566 0,-0.07366 -0.006,-0.05015 0.0191,-0.09333 0.0257,-0.04343 0.20875,-0.345978 0.27054,-0.422036 z m -0.006,1.12143 c 0,-0.139879 0.11157,-0.253365 0.24909,-0.253365 0.13775,0 0.24932,0.113486 0.24932,0.253365 0,0.140119 -0.11157,0.253606 -0.24932,0.253606 -0.13752,0 -0.24909,-0.113487 -0.24909,-0.253606 z m 1.8502,-0.006 c 0,-0.142278 0.11345,-0.257684 0.25333,-0.257684 0.13987,0 0.25333,0.115406 0.25333,0.257684 0,0.142278 -0.11346,0.257684 -0.25333,0.257684 -0.13988,0 -0.25333,-0.115406 -0.25333,-0.257684 z m 0.12666,0 c 0,0.07126 0.0566,0.128842 0.12667,0.128842 0.0701,0 0.12666,-0.05758 0.12666,-0.128842 0,-0.07126 -0.0566,-0.128842 -0.12666,-0.128842 -0.0701,0 -0.12667,0.05758 -0.12667,0.128842 z m 0.0564,-1.072245 c -0.0297,0 -0.0554,0.02159 -0.0554,0.06502 0,0.04343 0,0.152355 0,0.2728 0,0.04871 0.009,0.0607 0.0639,0.0607 0.0639,0 0.42599,0 0.48118,0 0.0712,0 0.092,-0.0034 0.0293,-0.210658 -0.0472,-0.155954 -0.0432,-0.187865 -0.11015,-0.187865 -0.14035,0 -0.37905,0 -0.40877,0 z m -0.67767,0 c -0.0408,0 -0.0547,0.0086 -0.0547,0.05206 0,0.04319 0,0.250487 0,0.285277 0,0.04535 0.008,0.06118 0.0467,0.06118 0.0384,0 0.4458,0 0.49675,0 0.0512,0 0.0613,-0.01488 0.0613,-0.06262 0,-0.04751 0,-0.248327 0,-0.278558 0,-0.03047 0.002,-0.05734 -0.0469,-0.05734 -0.0594,0 -0.4734,0 -0.50312,-1e-6 z m -0.66823,0 c -0.0467,0 -0.0764,0.02159 -0.0764,0.06502 0,0.04343 0,0.229613 0,0.264163 0,0.03479 -0.004,0.06934 0.0425,0.06934 0.0469,0 0.44722,0 0.5069,0 0.0594,0 0.0594,-0.02159 0.0594,-0.06478 0,-0.04343 0,-0.247128 0,-0.277359 0,-0.03023 -0.0255,-0.05638 -0.0467,-0.05638 -0.0212,0 -0.43872,0 -0.48566,-10e-7 z m -0.54369,0 c -0.0597,0 -0.10638,-0.01296 -0.14483,0.05206 -0.004,0.0024 -0.14105,0.220496 -0.1703,0.268482 -0.0472,0.07798 -0.0425,0.07798 0.0512,0.07798 0.0936,0 0.53944,0 0.58638,0 0.0467,0 0.0767,-0.0086 0.0767,-0.05614 0,-0.04775 0,-0.220975 0,-0.264402 0,-0.04319 0,-0.07798 -0.0469,-0.07798 -0.0469,0 -0.29248,0 -0.35216,-10e-7 z m -0.0212,1.078243 c 0,0.07126 0.0568,0.129082 0.12667,0.129082 0.0701,0 0.1269,-0.05782 0.1269,-0.129082 0,-0.07126 -0.0568,-0.128842 -0.1269,-0.128842 -0.0698,0 -0.12667,0.05758 -0.12667,0.128842 z"
       style="fill:#1d1d1b;fill-opacity:1;fill-rule:evenodd;stroke:none;stroke-width:0.26458332"
       inkscape:connector-curvature="0" />
  </g>
</svg>
