<?xml version="1.0" encoding="UTF-8" standalone="no"?>
<!-- Created with Inkscape (http://www.inkscape.org/) -->

<svg
   xmlns:dc="http://purl.org/dc/elements/1.1/"
   xmlns:cc="http://creativecommons.org/ns#"
   xmlns:rdf="http://www.w3.org/1999/02/22-rdf-syntax-ns#"
   xmlns:svg="http://www.w3.org/2000/svg"
   xmlns="http://www.w3.org/2000/svg"
   xmlns:sodipodi="http://sodipodi.sourceforge.net/DTD/sodipodi-0.dtd"
   xmlns:inkscape="http://www.inkscape.org/namespaces/inkscape"
   width="7.875999mm"
   height="7.8759913mm"
   viewBox="0 0 7.8759989 7.8759912"
   version="1.1"
   id="svg8"
   inkscape:version="0.92.2 (5c3e80d, 2017-08-06)"
   sodipodi:docname="543.svg">
  <defs
     id="defs2">
    <pattern
       y="0"
       x="0"
       height="6"
       width="6"
       patternUnits="userSpaceOnUse"
       id="EMFhbasepattern" />
    <pattern
       y="0"
       x="0"
       height="6"
       width="6"
       patternUnits="userSpaceOnUse"
       id="EMFhbasepattern-0" />
    <pattern
       y="0"
       x="0"
       height="6"
       width="6"
       patternUnits="userSpaceOnUse"
       id="EMFhbasepattern-2" />
    <pattern
       y="0"
       x="0"
       height="6"
       width="6"
       patternUnits="userSpaceOnUse"
       id="EMFhbasepattern-6" />
    <pattern
       y="0"
       x="0"
       height="6"
       width="6"
       patternUnits="userSpaceOnUse"
       id="EMFhbasepattern-03" />
    <pattern
       y="0"
       x="0"
       height="6"
       width="6"
       patternUnits="userSpaceOnUse"
       id="EMFhbasepattern-5" />
    <pattern
       y="0"
       x="0"
       height="6"
       width="6"
       patternUnits="userSpaceOnUse"
       id="EMFhbasepattern-69" />
    <pattern
       y="0"
       x="0"
       height="6"
       width="6"
       patternUnits="userSpaceOnUse"
       id="EMFhbasepattern-54" />
    <pattern
       y="0"
       x="0"
       height="6"
       width="6"
       patternUnits="userSpaceOnUse"
       id="EMFhbasepattern-1" />
    <pattern
       y="0"
       x="0"
       height="6"
       width="6"
       patternUnits="userSpaceOnUse"
       id="EMFhbasepattern-05" />
    <pattern
       y="0"
       x="0"
       height="6"
       width="6"
       patternUnits="userSpaceOnUse"
       id="EMFhbasepattern-58" />
    <pattern
       y="0"
       x="0"
       height="6"
       width="6"
       patternUnits="userSpaceOnUse"
       id="EMFhbasepattern-23" />
    <pattern
       y="0"
       x="0"
       height="6"
       width="6"
       patternUnits="userSpaceOnUse"
       id="EMFhbasepattern-62" />
  </defs>
  <sodipodi:namedview
     id="base"
     pagecolor="#ffffff"
     bordercolor="#666666"
     borderopacity="1.0"
     inkscape:pageopacity="0.0"
     inkscape:pageshadow="2"
     inkscape:zoom="15.839192"
     inkscape:cx="12.472746"
     inkscape:cy="20.628983"
     inkscape:document-units="mm"
     inkscape:current-layer="layer1"
     showgrid="false"
     fit-margin-top="0"
     fit-margin-left="0"
     fit-margin-right="0"
     fit-margin-bottom="0"
     inkscape:window-width="1920"
     inkscape:window-height="1027"
     inkscape:window-x="-8"
     inkscape:window-y="-8"
     inkscape:window-maximized="1" />
  <metadata
     id="metadata5">
    <rdf:RDF>
      <cc:Work
         rdf:about="">
        <dc:format>image/svg+xml</dc:format>
        <dc:type
           rdf:resource="http://purl.org/dc/dcmitype/StillImage" />
        <dc:title />
      </cc:Work>
    </rdf:RDF>
  </metadata>
  <g
     inkscape:label="Layer 1"
     inkscape:groupmode="layer"
     id="layer1"
     transform="translate(-16.164767,-168.10281)">
    <path
       style="fill:#fcffff;fill-opacity:1;fill-rule:evenodd;stroke:none;stroke-width:0.26458332"
       d="m 16.190513,168.85229 9.53e-4,-0.0343 0.0029,-0.0369 0.0045,-0.0362 0.0064,-0.0358 0.0081,-0.0353 0.0098,-0.0346 0.01144,-0.0339 0.01311,-0.0331 0.01454,-0.0322 0.01597,-0.0312 0.01764,-0.0305 0.01883,-0.0296 0.02026,-0.0284 0.02145,-0.0274 0.02288,-0.0265 0.02408,-0.025 0.02503,-0.0241 0.02646,-0.0229 0.02742,-0.0214 0.02837,-0.0203 0.02956,-0.0188 0.03027,-0.0176 0.03147,-0.016 0.03218,-0.0145 0.03313,-0.0131 0.03385,-0.0115 0.03457,-0.01 0.03528,-0.008 0.03576,-0.006 0.03623,-0.005 0.03695,-0.003 0.03433,-9.5e-4 h 6.377036 l 0.03433,9.5e-4 0.03671,0.003 0.03647,0.005 0.03576,0.006 0.03528,0.008 0.03457,0.01 0.03385,0.0115 0.0329,0.0131 0.03242,0.0145 0.03123,0.016 0.03051,0.0176 0.02932,0.0188 0.02861,0.0203 0.02741,0.0214 0.02646,0.0229 0.02503,0.0241 0.02408,0.025 0.02265,0.0265 0.02169,0.0274 0.02026,0.0284 0.01883,0.0296 0.0174,0.0305 0.01621,0.0312 0.01454,0.0322 0.01311,0.0331 0.01144,0.0339 0.0098,0.0346 0.0081,0.0353 0.0064,0.0358 0.0045,0.0362 0.0029,0.0369 9.53e-4,0.0343 v 6.37704 l -9.53e-4,0.0343 -0.0029,0.0367 -0.0045,0.0365 -0.0064,0.0358 -0.0081,0.0353 -0.0098,0.0346 -0.01144,0.0339 -0.01311,0.0331 -0.01454,0.0322 -0.01621,0.0312 -0.0174,0.0305 -0.01883,0.0296 -0.02026,0.0284 -0.02169,0.0274 -0.02265,0.0265 -0.02408,0.025 -0.02503,0.0241 -0.02646,0.0229 -0.02741,0.0214 -0.02861,0.0203 -0.02932,0.0188 -0.03051,0.0174 -0.03123,0.0162 -0.03242,0.0145 -0.0329,0.0131 -0.03385,0.0114 -0.03457,0.01 -0.03528,0.008 -0.03576,0.006 -0.03647,0.005 -0.03671,0.003 -0.03433,9.5e-4 h -6.377036 l -0.03433,-9.5e-4 -0.03695,-0.003 -0.03623,-0.005 -0.03576,-0.006 -0.03528,-0.008 -0.03457,-0.01 -0.03385,-0.0114 -0.03313,-0.0131 -0.03218,-0.0145 -0.03147,-0.0162 -0.03027,-0.0174 -0.02956,-0.0188 -0.02837,-0.0203 -0.02742,-0.0214 -0.02646,-0.0229 -0.02503,-0.0241 -0.02408,-0.025 -0.02288,-0.0265 -0.02145,-0.0274 -0.02026,-0.0284 -0.01883,-0.0296 -0.01764,-0.0303 -0.01597,-0.0315 -0.01454,-0.0322 -0.01311,-0.0331 -0.01144,-0.0339 -0.0098,-0.0346 -0.0081,-0.0353 -0.0064,-0.0358 -0.0045,-0.0365 -0.0029,-0.0367 -9.53e-4,-0.0343 z"
       id="path837" />
    <path
       style="fill:#fcffff;fill-opacity:1;fill-rule:evenodd;stroke:none;stroke-width:0.26458332"
       d="m 16.414118,175.22647 v -6.37132 0 c 0,-0.27772 0.225035,-0.50299 0.502992,-0.50299 v 0 h 6.371314 v 0 c 0.277719,0 0.502992,0.22527 0.502992,0.50299 v 0 6.37132 0 c 0,0.27772 -0.225273,0.50299 -0.502992,0.50299 v 0 H 16.91711 v 0 c -0.277957,0 -0.502992,-0.22527 -0.502992,-0.50299 z"
       id="path833" />
    <path
       id="path1124"
       d="m 24.015021,175.95306 h -7.824508 v -7.8245 h 7.824508 z"
       style="fill:#2b9fcf;fill-opacity:1;fill-rule:evenodd;stroke:none;stroke-width:0.26458332"
       inkscape:connector-curvature="0" />
    <path
       id="path1126"
       d="m 24.015021,175.95306 h -7.824508 v -7.8245 h 7.824508 z"
       style="fill:none;stroke:#231f20;stroke-width:0.05149115px;stroke-linecap:butt;stroke-linejoin:miter;stroke-miterlimit:4;stroke-dasharray:none;stroke-opacity:1"
       inkscape:connector-curvature="0" />
    <path
       id="path1128"
       d="m 16.190513,168.85229 9.53e-4,-0.0343 0.0029,-0.0369 0.0045,-0.0362 0.0064,-0.0358 0.0081,-0.0353 0.0098,-0.0346 0.01144,-0.0339 0.01311,-0.0331 0.01454,-0.0322 0.01597,-0.0312 0.01764,-0.0305 0.01883,-0.0296 0.02026,-0.0284 0.02145,-0.0274 0.02288,-0.0265 0.02408,-0.025 0.02503,-0.0241 0.02646,-0.0229 0.02742,-0.0214 0.02837,-0.0203 0.02956,-0.0188 0.03027,-0.0176 0.03147,-0.016 0.03218,-0.0145 0.03313,-0.0131 0.03385,-0.0115 0.03457,-0.01 0.03528,-0.008 0.03576,-0.006 0.03623,-0.005 0.03695,-0.003 0.03433,-9.5e-4 h 6.377036 l 0.03433,9.5e-4 0.03671,0.003 0.03647,0.005 0.03576,0.006 0.03528,0.008 0.03457,0.01 0.03385,0.0115 0.0329,0.0131 0.03242,0.0145 0.03123,0.016 0.03051,0.0176 0.02932,0.0188 0.02861,0.0203 0.02741,0.0214 0.02646,0.0229 0.02503,0.0241 0.02408,0.025 0.02265,0.0265 0.02169,0.0274 0.02026,0.0284 0.01883,0.0296 0.0174,0.0305 0.01621,0.0312 0.01454,0.0322 0.01311,0.0331 0.01144,0.0339 0.0098,0.0346 0.0081,0.0353 0.0064,0.0358 0.0045,0.0362 0.0029,0.0369 9.53e-4,0.0343 v 6.37704 l -9.53e-4,0.0343 -0.0029,0.0367 -0.0045,0.0365 -0.0064,0.0358 -0.0081,0.0353 -0.0098,0.0346 -0.01144,0.0339 -0.01311,0.0331 -0.01454,0.0322 -0.01621,0.0312 -0.0174,0.0305 -0.01883,0.0296 -0.02026,0.0284 -0.02169,0.0274 -0.02265,0.0265 -0.02408,0.025 -0.02503,0.0241 -0.02646,0.0229 -0.02741,0.0214 -0.02861,0.0203 -0.02932,0.0188 -0.03051,0.0174 -0.03123,0.0162 -0.03242,0.0145 -0.0329,0.0131 -0.03385,0.0114 -0.03457,0.01 -0.03528,0.008 -0.03576,0.006 -0.03647,0.005 -0.03671,0.003 -0.03433,9.5e-4 h -6.377036 l -0.03433,-9.5e-4 -0.03695,-0.003 -0.03623,-0.005 -0.03576,-0.006 -0.03528,-0.008 -0.03457,-0.01 -0.03385,-0.0114 -0.03313,-0.0131 -0.03218,-0.0145 -0.03147,-0.0162 -0.03027,-0.0174 -0.02956,-0.0188 -0.02837,-0.0203 -0.02742,-0.0214 -0.02646,-0.0229 -0.02503,-0.0241 -0.02408,-0.025 -0.02288,-0.0265 -0.02145,-0.0274 -0.02026,-0.0284 -0.01883,-0.0296 -0.01764,-0.0303 -0.01597,-0.0315 -0.01454,-0.0322 -0.01311,-0.0331 -0.01144,-0.0339 -0.0098,-0.0346 -0.0081,-0.0353 -0.0064,-0.0358 -0.0045,-0.0365 -0.0029,-0.0367 -9.53e-4,-0.0343 z m 0.223605,6.37418 v -6.37132 0 c 0,-0.27772 0.225035,-0.50299 0.502992,-0.50299 v 0 h 6.371314 v 0 c 0.277719,0 0.502992,0.22527 0.502992,0.50299 v 0 6.37132 0 c 0,0.27772 -0.225273,0.50299 -0.502992,0.50299 v 0 H 16.91711 v 0 c -0.277957,0 -0.502992,-0.22527 -0.502992,-0.50299 z"
       style="fill:#fcffff;fill-opacity:1;fill-rule:evenodd;stroke:none;stroke-width:0.26458332"
       inkscape:connector-curvature="0" />
    <path
       id="path1130"
       d="m 20.090252,168.52094 3.521184,6.09836 h -7.04213 z"
       style="fill:#ffffff;fill-opacity:1;fill-rule:evenodd;stroke:none;stroke-width:0.26458332"
       inkscape:connector-curvature="0" />
    <path
       id="path1132"
       d="m 22.107942,173.46027 0.459368,0.73828 h -0.67463 l -0.31586,-0.73828 z"
       style="fill:#1d1d1b;fill-opacity:1;fill-rule:evenodd;stroke:none;stroke-width:0.26458332"
       inkscape:connector-curvature="0" />
    <path
       id="path1134"
       d="m 19.835657,173.45813 h 0.509428 l 0.122053,0.73828 h -0.782379 z"
       style="fill:#1d1d1b;fill-opacity:1;fill-rule:evenodd;stroke:none;stroke-width:0.26458332"
       inkscape:connector-curvature="0" />
    <path
       id="path1136"
       d="m 18.0728,173.45813 h 0.531122 l -0.31586,0.73828 h -0.674391 z"
       style="fill:#1d1d1b;fill-opacity:1;fill-rule:evenodd;stroke:none;stroke-width:0.26458332"
       inkscape:connector-curvature="0" />
    <path
       id="path1138"
       d="m 20.187036,169.80464 c -0.157334,-0.0579 -0.275335,0.0131 -0.307755,0.0865 -0.04386,0.0966 -0.0472,0.25174 0.04362,0.42767 0.04863,0.0942 -0.236716,0.1938 -0.292498,0.24363 -0.09607,0.0858 -0.455553,0.68583 -0.430761,0.785 0.02503,0.0994 0.07438,0.51729 0.09082,0.59191 0.01669,0.0744 0.106797,0.0422 0.0646,0.10846 -0.05626,0.088 -0.09392,0.24602 -0.03218,0.23147 0.02741,-0.007 0.105366,-0.0207 0.155188,-0.12896 0.04935,-0.10728 0.02646,-0.14661 -0.0088,-0.71182 -0.0079,-0.12515 0.0801,-0.21788 0.146368,-0.30918 0.0267,-0.0365 0.07795,-0.0946 0.09321,-0.0932 0.01025,0.0367 0.01454,0.30036 0.0062,0.39977 -0.0083,0.0992 -0.05006,0.4124 -0.0584,0.50347 -0.0081,0.0911 0.07247,0.0939 0.04577,0.19833 -0.02837,0.11228 -0.07795,0.36116 -0.124676,0.58977 -0.112518,0.18308 -0.566402,0.55496 -0.690601,0.73017 -0.124199,0.17521 0.171637,0.26652 0.243868,0.41479 0.02789,0.0393 0.215977,0.0448 0.273904,0.004 0.05793,-0.0415 -0.111564,-0.0489 -0.15495,-0.20573 0.03647,-0.0105 0.100837,0.026 0.142077,0.001 0.04148,-0.0248 0.0913,-0.16544 0.198813,-0.30632 0.10775,-0.14065 0.231949,-0.27319 0.29822,-0.38094 0.06603,-0.10751 0.126344,-0.38928 0.160433,-0.4968 0.04815,-0.15661 0.04219,-0.0913 0.152566,0.0188 0.04124,0.0415 0.256503,0.25912 0.306086,0.35853 0.04982,0.0994 0.0708,0.40716 0.101314,0.51038 0.03337,0.11276 0.06246,0.24577 0.10775,0.34828 0.01097,0.02 0.01979,0.002 0.05006,0.0193 0.01931,0.10131 0.116094,0.1621 0.18737,0.14494 0.173545,-0.0422 0.322774,-0.0505 0.424802,-0.0851 0.149229,-0.10441 0.137549,-0.12872 -0.09154,-0.15066 -0.152328,-0.0145 -0.174975,-0.072 -0.260078,-0.37378 -0.02718,-0.0968 -0.05554,-0.45103 -0.09083,-0.54185 -0.130635,-0.33755 -0.446495,-0.59191 -0.674868,-0.8949 0,-0.0686 0.05101,-0.21645 0.04363,-0.36616 0.01621,0.0129 0.01621,0.0148 0.05912,0.0541 0.136833,0.12586 0.247682,0.23337 0.394289,0.34947 0.04935,-0.0169 0.01955,0.0565 0.136833,0.10155 0.178789,0.13469 0.219553,-0.10537 0.126106,-0.20215 -0.217169,-0.17426 -0.532314,-0.53065 -0.649838,-0.64507 9.54e-4,-0.26032 -0.01192,-0.35043 -0.182603,-0.58714 -0.05483,-0.0761 -0.0534,-0.17236 0.0098,-0.14303 0.05221,0.0243 0.08987,0.031 0.139932,-0.0846 0.03838,-0.0887 0.105605,-0.24959 0.04982,-0.35662 -0.05292,-0.10132 -0.09965,-0.11419 -0.20215,-0.1571 z"
       style="fill:#1d1d1b;fill-opacity:1;fill-rule:evenodd;stroke:none;stroke-width:0.26458332"
       inkscape:connector-curvature="0" />
  </g>
</svg>
