<?xml version="1.0" encoding="UTF-8" standalone="no"?>
<!-- Created with Inkscape (http://www.inkscape.org/) -->

<svg
   xmlns:dc="http://purl.org/dc/elements/1.1/"
   xmlns:cc="http://creativecommons.org/ns#"
   xmlns:rdf="http://www.w3.org/1999/02/22-rdf-syntax-ns#"
   xmlns:svg="http://www.w3.org/2000/svg"
   xmlns="http://www.w3.org/2000/svg"
   xmlns:sodipodi="http://sodipodi.sourceforge.net/DTD/sodipodi-0.dtd"
   xmlns:inkscape="http://www.inkscape.org/namespaces/inkscape"
   width="7.8760009mm"
   height="7.8759928mm"
   viewBox="0 0 7.8760008 7.8759926"
   version="1.1"
   id="svg8"
   inkscape:version="0.92.2 (5c3e80d, 2017-08-06)"
   sodipodi:docname="544.svg">
  <defs
     id="defs2">
    <pattern
       y="0"
       x="0"
       height="6"
       width="6"
       patternUnits="userSpaceOnUse"
       id="EMFhbasepattern" />
    <pattern
       y="0"
       x="0"
       height="6"
       width="6"
       patternUnits="userSpaceOnUse"
       id="EMFhbasepattern-0" />
    <pattern
       y="0"
       x="0"
       height="6"
       width="6"
       patternUnits="userSpaceOnUse"
       id="EMFhbasepattern-2" />
    <pattern
       y="0"
       x="0"
       height="6"
       width="6"
       patternUnits="userSpaceOnUse"
       id="EMFhbasepattern-6" />
    <pattern
       y="0"
       x="0"
       height="6"
       width="6"
       patternUnits="userSpaceOnUse"
       id="EMFhbasepattern-03" />
    <pattern
       y="0"
       x="0"
       height="6"
       width="6"
       patternUnits="userSpaceOnUse"
       id="EMFhbasepattern-5" />
    <pattern
       y="0"
       x="0"
       height="6"
       width="6"
       patternUnits="userSpaceOnUse"
       id="EMFhbasepattern-69" />
    <pattern
       y="0"
       x="0"
       height="6"
       width="6"
       patternUnits="userSpaceOnUse"
       id="EMFhbasepattern-54" />
    <pattern
       y="0"
       x="0"
       height="6"
       width="6"
       patternUnits="userSpaceOnUse"
       id="EMFhbasepattern-1" />
    <pattern
       y="0"
       x="0"
       height="6"
       width="6"
       patternUnits="userSpaceOnUse"
       id="EMFhbasepattern-05" />
    <pattern
       y="0"
       x="0"
       height="6"
       width="6"
       patternUnits="userSpaceOnUse"
       id="EMFhbasepattern-58" />
    <pattern
       y="0"
       x="0"
       height="6"
       width="6"
       patternUnits="userSpaceOnUse"
       id="EMFhbasepattern-23" />
    <pattern
       y="0"
       x="0"
       height="6"
       width="6"
       patternUnits="userSpaceOnUse"
       id="EMFhbasepattern-62" />
    <pattern
       y="0"
       x="0"
       height="6"
       width="6"
       patternUnits="userSpaceOnUse"
       id="EMFhbasepattern-3" />
  </defs>
  <sodipodi:namedview
     id="base"
     pagecolor="#ffffff"
     bordercolor="#666666"
     borderopacity="1.0"
     inkscape:pageopacity="0.0"
     inkscape:pageshadow="2"
     inkscape:zoom="15.839192"
     inkscape:cx="7.4800549"
     inkscape:cy="30.76768"
     inkscape:document-units="mm"
     inkscape:current-layer="layer1"
     showgrid="false"
     fit-margin-top="0"
     fit-margin-left="0"
     fit-margin-right="0"
     fit-margin-bottom="0"
     inkscape:window-width="1920"
     inkscape:window-height="1027"
     inkscape:window-x="-8"
     inkscape:window-y="-8"
     inkscape:window-maximized="1" />
  <metadata
     id="metadata5">
    <rdf:RDF>
      <cc:Work
         rdf:about="">
        <dc:format>image/svg+xml</dc:format>
        <dc:type
           rdf:resource="http://purl.org/dc/dcmitype/StillImage" />
        <dc:title />
      </cc:Work>
    </rdf:RDF>
  </metadata>
  <g
     inkscape:label="Layer 1"
     inkscape:groupmode="layer"
     id="layer1"
     transform="translate(-23.991276,-170.95412)">
    <path
       style="fill:#ffffff;stroke:#231f20;stroke-width:0.05149271px;stroke-linecap:butt;stroke-linejoin:miter;stroke-miterlimit:4;stroke-dasharray:none;stroke-opacity:1;fill-opacity:1"
       d="m 31.84153,178.80437 h -7.824508 v -7.8245 h 7.824508 z"
       id="path837" />
    <path
       id="path1158"
       d="m 31.84153,178.80437 h -7.824508 v -7.8245 h 7.824508 z"
       style="fill:#2b9fcf;fill-opacity:1;fill-rule:evenodd;stroke:none;stroke-width:0.26458332"
       inkscape:connector-curvature="0" />
    <path
       id="path1160"
       d="m 31.84153,178.80437 h -7.824508 v -7.8245 h 7.824508 z"
       style="fill:none;stroke:#231f20;stroke-width:0.05149271px;stroke-linecap:butt;stroke-linejoin:miter;stroke-miterlimit:4;stroke-dasharray:none;stroke-opacity:1"
       inkscape:connector-curvature="0" />
    <path
       id="path1162"
       d="m 24.017022,171.7036 7.16e-4,-0.0343 0.0029,-0.0369 0.0045,-0.0362 0.0064,-0.0358 0.0081,-0.0353 0.0098,-0.0346 0.01144,-0.0339 0.01311,-0.0331 0.01454,-0.0322 0.01621,-0.0312 0.0174,-0.0305 0.01883,-0.0296 0.02026,-0.0284 0.02169,-0.0274 0.02265,-0.0265 0.02408,-0.025 0.02527,-0.0241 0.02622,-0.0229 0.02742,-0.0214 0.02861,-0.0203 0.02932,-0.0188 0.03051,-0.0176 0.03123,-0.016 0.03242,-0.0145 0.0329,-0.0131 0.03385,-0.0114 0.03457,-0.01 0.03528,-0.008 0.03576,-0.006 0.03647,-0.005 0.03671,-0.003 0.03433,-9.5e-4 h 6.377228 l 0.03433,9.5e-4 0.03695,0.003 0.03624,0.005 0.03576,0.006 0.03528,0.008 0.03457,0.01 0.03385,0.0114 0.03314,0.0131 0.03218,0.0145 0.03147,0.016 0.03051,0.0176 0.02932,0.0188 0.02837,0.0203 0.02765,0.0214 0.02622,0.0229 0.02527,0.0241 0.02384,0.025 0.02289,0.0265 0.02145,0.0274 0.02026,0.0284 0.01883,0.0296 0.01764,0.0305 0.01597,0.0312 0.01454,0.0322 0.01311,0.0331 0.01144,0.0339 0.0098,0.0346 0.0081,0.0353 0.0064,0.0358 0.0045,0.0362 0.0029,0.0369 9.54e-4,0.0343 v 6.37704 l -9.54e-4,0.0343 -0.0029,0.0367 -0.0045,0.0365 -0.0064,0.0358 -0.0081,0.0353 -0.0098,0.0346 -0.01144,0.0339 -0.01311,0.0331 -0.01454,0.0322 -0.01597,0.0312 -0.01764,0.0305 -0.01883,0.0296 -0.02026,0.0284 -0.02145,0.0274 -0.02289,0.0265 -0.02384,0.025 -0.02527,0.0241 -0.02622,0.0229 -0.02765,0.0215 -0.02837,0.0203 -0.02932,0.0188 -0.03051,0.0174 -0.03147,0.0162 -0.03218,0.0145 -0.03314,0.0131 -0.03385,0.0114 -0.03457,0.01 -0.03528,0.008 -0.03576,0.006 -0.03624,0.005 -0.03695,0.003 -0.03433,9.5e-4 h -6.377228 l -0.03433,-9.5e-4 -0.03671,-0.003 -0.03647,-0.005 -0.03576,-0.006 -0.03528,-0.008 -0.03457,-0.01 -0.03385,-0.0114 -0.03314,-0.0131 -0.03218,-0.0145 -0.03123,-0.0162 -0.03051,-0.0174 -0.02932,-0.0188 -0.02861,-0.0203 -0.02742,-0.0215 -0.02622,-0.0229 -0.02527,-0.0241 -0.02408,-0.025 -0.02265,-0.0265 -0.02169,-0.0274 -0.02026,-0.0284 -0.01883,-0.0296 -0.0174,-0.0303 -0.01621,-0.0315 -0.01454,-0.0322 -0.01311,-0.0331 -0.01144,-0.0339 -0.0098,-0.0346 -0.0081,-0.0353 -0.0064,-0.0358 -0.0045,-0.0365 -0.0029,-0.0367 -7.16e-4,-0.0343 z m 0.223374,6.37418 v -6.37132 0 c 0,-0.27772 0.22528,-0.50299 0.503007,-0.50299 v 0 h 6.371507 v 0 c 0.277727,0 0.503008,0.22527 0.503008,0.50299 v 0 6.37132 0 c 0,0.27772 -0.225281,0.50299 -0.503008,0.50299 v 0 h -6.371507 v 0 c -0.277727,0 -0.503007,-0.22527 -0.503007,-0.50299 z"
       style="fill:#fcffff;fill-opacity:1;fill-rule:evenodd;stroke:none;stroke-width:0.26458332"
       inkscape:connector-curvature="0" />
    <path
       id="path1164"
       d="m 27.91688,171.37225 3.521052,6.09836 h -7.042105 z"
       style="fill:#ffffff;fill-opacity:1;fill-rule:evenodd;stroke:none;stroke-width:0.26458332"
       inkscape:connector-curvature="0" />
    <path
       id="path1166"
       d="m 25.899367,176.31158 -0.459382,0.73828 h 0.67465 l 0.315631,-0.73828 z"
       style="fill:#1d1d1b;fill-opacity:1;fill-rule:evenodd;stroke:none;stroke-width:0.26458332"
       inkscape:connector-curvature="0" />
    <path
       id="path1168"
       d="m 28.171721,176.30944 h -0.509683 l -0.121818,0.73828 h 0.782165 z"
       style="fill:#1d1d1b;fill-opacity:1;fill-rule:evenodd;stroke:none;stroke-width:0.26458332"
       inkscape:connector-curvature="0" />
    <path
       id="path1170"
       d="m 29.934392,176.30944 h -0.530899 l 0.315631,0.73828 h 0.67465 z"
       style="fill:#1d1d1b;fill-opacity:1;fill-rule:evenodd;stroke:none;stroke-width:0.26458332"
       inkscape:connector-curvature="0" />
    <path
       id="path1172"
       d="m 27.820092,172.65595 c 0.157578,-0.0579 0.275582,0.0131 0.307765,0.0865 0.04386,0.0965 0.04744,0.25174 -0.04339,0.42767 -0.04887,0.0942 0.236724,0.1938 0.292507,0.24363 0.09583,0.0858 0.45533,0.68583 0.430537,0.785 -0.02479,0.0994 -0.07414,0.51729 -0.09083,0.59191 -0.01645,0.0744 -0.106561,0.0422 -0.06437,0.10846 0.05626,0.088 0.09369,0.24602 0.03218,0.23147 -0.02742,-0.007 -0.105607,-0.0207 -0.155193,-0.12896 -0.04935,-0.10728 -0.02646,-0.14661 0.0088,-0.71182 0.0076,-0.12515 -0.08034,-0.21788 -0.146611,-0.30918 -0.02646,-0.0365 -0.07772,-0.0946 -0.09321,-0.0932 -0.01001,0.0367 -0.0143,0.30036 -0.0062,0.39977 0.0083,0.0992 0.05006,0.4124 0.05841,0.50347 0.0083,0.0911 -0.07223,0.0939 -0.04577,0.19833 0.02837,0.11228 0.07795,0.36116 0.124917,0.58977 0.112283,0.18308 0.56642,0.55496 0.690622,0.73017 0.124202,0.17521 -0.171642,0.26652 -0.244113,0.41479 -0.02765,0.0393 -0.215745,0.0448 -0.273675,0.004 -0.05793,-0.0415 0.111568,-0.0489 0.154717,-0.20573 -0.03624,-0.0105 -0.100602,0.026 -0.142082,0.001 -0.04148,-0.0248 -0.09107,-0.16544 -0.198819,-0.30632 -0.107515,-0.14065 -0.231717,-0.27319 -0.29799,-0.38094 -0.06627,-0.10751 -0.126586,-0.38928 -0.160438,-0.4968 -0.04816,-0.15661 -0.04219,-0.0913 -0.152571,0.0188 -0.04148,0.0415 -0.25651,0.25912 -0.306334,0.35853 -0.04959,0.0994 -0.07056,0.40716 -0.101078,0.51038 -0.03361,0.11276 -0.0627,0.24577 -0.107992,0.34828 -0.01073,0.02 -0.01955,0.002 -0.05006,0.0193 -0.01907,0.10131 -0.115859,0.1621 -0.187138,0.14494 -0.173788,-0.0422 -0.323021,-0.0505 -0.424815,-0.0851 -0.149233,-0.10441 -0.137552,-0.12872 0.09154,-0.15066 0.152333,-0.0145 0.17498,-0.072 0.260086,-0.37378 0.02718,-0.0968 0.05554,-0.45103 0.09059,-0.54185 0.130877,-0.33755 0.446508,-0.59191 0.674888,-0.8949 0,-0.0686 -0.05078,-0.21645 -0.04363,-0.36616 -0.01597,0.0129 -0.01597,0.0148 -0.05888,0.0541 -0.137075,0.12586 -0.247689,0.23337 -0.3943,0.34947 -0.04935,-0.0169 -0.01979,0.0565 -0.136838,0.10155 -0.178794,0.13469 -0.219797,-0.10537 -0.126109,-0.20215 0.217175,-0.17426 0.53233,-0.53065 0.649619,-0.64507 -9.54e-4,-0.26032 0.01216,-0.35043 0.182608,-0.58714 0.05483,-0.076 0.0534,-0.17236 -0.0095,-0.14303 -0.05221,0.0243 -0.08987,0.031 -0.140174,-0.0846 -0.03814,-0.0887 -0.105369,-0.24959 -0.04959,-0.35662 0.05268,-0.10132 0.09941,-0.11419 0.201918,-0.1571 z"
       style="fill:#1d1d1b;fill-opacity:1;fill-rule:evenodd;stroke:none;stroke-width:0.26458332"
       inkscape:connector-curvature="0" />
  </g>
</svg>
