<?xml version="1.0" encoding="UTF-8" standalone="no"?>
<!-- Created with Inkscape (http://www.inkscape.org/) -->

<svg
   xmlns:dc="http://purl.org/dc/elements/1.1/"
   xmlns:cc="http://creativecommons.org/ns#"
   xmlns:rdf="http://www.w3.org/1999/02/22-rdf-syntax-ns#"
   xmlns:svg="http://www.w3.org/2000/svg"
   xmlns="http://www.w3.org/2000/svg"
   xmlns:sodipodi="http://sodipodi.sourceforge.net/DTD/sodipodi-0.dtd"
   xmlns:inkscape="http://www.inkscape.org/namespaces/inkscape"
   width="7.8759928mm"
   height="7.8759928mm"
   viewBox="0 0 7.8759931 7.8759928"
   version="1.1"
   id="svg8"
   inkscape:version="0.92.2 (5c3e80d, 2017-08-06)">
  <defs
     id="defs2">
    <pattern
       y="0"
       x="0"
       height="6"
       width="6"
       patternUnits="userSpaceOnUse"
       id="EMFhbasepattern" />
    <pattern
       y="0"
       x="0"
       height="6"
       width="6"
       patternUnits="userSpaceOnUse"
       id="EMFhbasepattern-9" />
  </defs>
  <sodipodi:namedview
     id="base"
     pagecolor="#ffffff"
     bordercolor="#666666"
     borderopacity="1.0"
     inkscape:pageopacity="0.0"
     inkscape:pageshadow="2"
     inkscape:zoom="15.839192"
     inkscape:cx="12.56587"
     inkscape:cy="20.422264"
     inkscape:document-units="mm"
     inkscape:current-layer="layer1"
     showgrid="false"
     fit-margin-top="0"
     fit-margin-left="0"
     fit-margin-right="0"
     fit-margin-bottom="0"
     inkscape:window-width="1920"
     inkscape:window-height="1027"
     inkscape:window-x="-8"
     inkscape:window-y="-8"
     inkscape:window-maximized="1" />
  <metadata
     id="metadata5">
    <rdf:RDF>
      <cc:Work
         rdf:about="">
        <dc:format>image/svg+xml</dc:format>
        <dc:type
           rdf:resource="http://purl.org/dc/dcmitype/StillImage" />
        <dc:title></dc:title>
      </cc:Work>
    </rdf:RDF>
  </metadata>
  <g
     inkscape:label="Layer 1"
     inkscape:groupmode="layer"
     id="layer1"
     transform="translate(117.08346,-102.32324)">
    <path
       id="path858"
       d="m -109.23321,110.17349 h -7.8245 v -7.8245 h 7.8245 z"
       style="fill:#2b9fcf;fill-opacity:1;fill-rule:evenodd;stroke:none;stroke-width:0.26458332"
       inkscape:connector-curvature="0" />
    <path
       id="path860"
       d="m -109.23321,110.17349 h -7.8245 v -7.8245 h 7.8245 z"
       style="fill:none;stroke:#231f20;stroke-width:0.05149271px;stroke-linecap:butt;stroke-linejoin:miter;stroke-miterlimit:4;stroke-dasharray:none;stroke-opacity:1"
       inkscape:connector-curvature="0" />
    <path
       id="path862"
       d="m -117.05771,103.07275 9.5e-4,-0.0346 0.003,-0.0367 0.005,-0.0362 0.006,-0.036 0.008,-0.0353 0.01,-0.0343 0.0114,-0.0339 0.0131,-0.0331 0.0145,-0.0322 0.016,-0.0315 0.0176,-0.0305 0.0188,-0.0293 0.0203,-0.0286 0.0215,-0.0274 0.0229,-0.0262 0.0241,-0.0253 0.025,-0.0241 0.0265,-0.0226 0.0274,-0.0217 0.0284,-0.0203 0.0296,-0.0188 0.0303,-0.0174 0.0315,-0.0162 0.0322,-0.0145 0.0331,-0.0129 0.0339,-0.0114 0.0346,-0.01 0.0353,-0.008 0.0358,-0.006 0.0362,-0.005 0.037,-0.003 0.0343,-7.2e-4 h 6.37723 l 0.0343,7.2e-4 0.0367,0.003 0.0365,0.005 0.0358,0.006 0.0353,0.008 0.0346,0.01 0.0339,0.0114 0.0331,0.0129 0.0322,0.0145 0.0312,0.0162 0.0305,0.0174 0.0296,0.0188 0.0284,0.0203 0.0274,0.0217 0.0262,0.0226 0.0253,0.0241 0.0241,0.0253 0.0229,0.0262 0.0215,0.0274 0.0203,0.0286 0.0188,0.0293 0.0176,0.0305 0.016,0.0315 0.0145,0.0322 0.0131,0.0331 0.0114,0.0339 0.01,0.0343 0.008,0.0353 0.006,0.036 0.005,0.0362 0.003,0.037 7.1e-4,0.0343 v 6.37698 l -7.1e-4,0.0346 -0.003,0.0367 -0.005,0.0365 -0.006,0.0358 -0.008,0.035 -0.01,0.0348 -0.0114,0.0336 -0.0131,0.0331 -0.0145,0.0322 -0.016,0.0315 -0.0176,0.0305 -0.0188,0.0293 -0.0203,0.0286 -0.0215,0.0274 -0.0229,0.0262 -0.0241,0.0253 -0.0253,0.0238 -0.0262,0.0229 -0.0274,0.0217 -0.0284,0.02 -0.0296,0.0191 -0.0305,0.0174 -0.0312,0.016 -0.0322,0.0148 -0.0331,0.0129 -0.0339,0.0114 -0.0346,0.01 -0.0353,0.008 -0.0358,0.006 -0.0365,0.005 -0.0367,0.003 -0.0343,7.1e-4 h -6.37723 l -0.0343,-7.1e-4 -0.0367,-0.003 -0.0365,-0.005 -0.0358,-0.006 -0.0353,-0.008 -0.0346,-0.01 -0.0339,-0.0117 -0.0331,-0.0129 -0.0322,-0.0148 -0.0315,-0.016 -0.0303,-0.0174 -0.0296,-0.0191 -0.0284,-0.02 -0.0274,-0.0217 -0.0265,-0.0229 -0.025,-0.0238 -0.0241,-0.0253 -0.0229,-0.0262 -0.0215,-0.0274 -0.0203,-0.0286 -0.0188,-0.0293 -0.0176,-0.0305 -0.016,-0.0315 -0.0145,-0.0322 -0.0131,-0.0331 -0.0114,-0.0336 -0.01,-0.0348 -0.008,-0.035 -0.006,-0.0358 -0.005,-0.0365 -0.003,-0.0367 -9.5e-4,-0.0346 z m 0.22361,6.37412 v -6.3715 0 c 0,-0.27773 0.22528,-0.50301 0.50301,-0.50301 v 0 h 6.3715 v 0 c 0.27773,0 0.50301,0.22528 0.50301,0.50301 v 0 6.3715 0 c 0,0.27797 -0.22528,0.50301 -0.50301,0.50301 v 0 h -6.3715 v 0 c -0.27773,0 -0.50301,-0.22504 -0.50301,-0.50301 z"
       style="fill:#fcffff;fill-opacity:1;fill-rule:evenodd;stroke:none;stroke-width:0.26458332"
       inkscape:connector-curvature="0" />
    <path
       id="path864"
       d="m -115.38134,104.09593 v -0.65272 h 1.97293 v 0.51207 c -0.16186,0.19524 -0.3254,0.47368 -0.49156,0.83413 -0.16545,0.35973 -0.2937,0.74664 -0.38453,1.15858 -0.0908,0.41194 -0.13612,0.78598 -0.13612,1.12259 h -0.55498 c 0.0138,-0.52232 0.10037,-1.04392 0.26033,-1.56361 0.15948,-0.52065 0.37523,-0.99076 0.64652,-1.41104 z"
       style="fill:#fcffff;fill-opacity:1;fill-rule:evenodd;stroke:none;stroke-width:0.26458332"
       inkscape:connector-curvature="0" />
    <path
       id="path866"
       d="m -111.70915,103.3817 c 0.29203,0 0.52828,0.13875 0.70898,0.41695 0.1807,0.27821 0.27058,0.76476 0.27058,1.4592 0,0.69348 -0.0899,1.17908 -0.27058,1.45729 -0.1807,0.27844 -0.41623,0.41718 -0.70636,0.41718 -0.29298,0 -0.52923,-0.13803 -0.70993,-0.41361 -0.1807,-0.27582 -0.27057,-0.76476 -0.27057,-1.46778 0,-0.69014 0.0899,-1.17407 0.27057,-1.45228 0.1807,-0.2782 0.41624,-0.41695 0.70731,-0.41695 z m 9.6e-4,0.58573 c -0.11324,0 -0.20383,0.0753 -0.27153,0.22528 -0.0677,0.14972 -0.10108,0.50515 -0.10108,1.06514 0,0.56069 0.0334,0.91542 0.10108,1.06513 0.0677,0.149 0.15829,0.22361 0.27153,0.22361 0.11466,0 0.20549,-0.0753 0.27224,-0.22528 0.0667,-0.14994 0.10012,-0.50443 0.10012,-1.06346 0,-0.55999 -0.0334,-0.91542 -0.10012,-1.06514 -0.0667,-0.14994 -0.15758,-0.22528 -0.27224,-0.22528 z"
       style="fill:#fcffff;fill-opacity:1;fill-rule:evenodd;stroke:none;stroke-width:0.26458332"
       inkscape:connector-curvature="0" />
    <path
       id="path868"
       d="m -114.84472,109.08833 v -1.23296 h 0.19477 v 0.65224 l 0.22695,-0.31301 h 0.23887 l -0.25127,0.32755 0.26843,0.56618 h -0.2074 l -0.18666,-0.40169 -0.0889,0.11586 v 0.28583 z"
       style="fill:#fcffff;fill-opacity:1;fill-rule:evenodd;stroke:none;stroke-width:0.26458332"
       inkscape:connector-curvature="0" />
    <path
       id="path870"
       d="m -113.95003,108.1946 h 0.18094 v 0.12182 c 0.0317,-0.0474 0.0667,-0.0834 0.10489,-0.10704 0.0381,-0.0238 0.0796,-0.0355 0.12372,-0.0355 0.0472,0 0.088,0.0117 0.1223,0.0353 0.0346,0.0236 0.0629,0.0591 0.0846,0.1068 0.0327,-0.0477 0.0675,-0.0832 0.10465,-0.1068 0.0372,-0.0236 0.077,-0.0353 0.11896,-0.0353 0.0501,0 0.0932,0.0119 0.12921,0.036 0.0362,0.0236 0.0637,0.0579 0.0825,0.10203 0.0186,0.0446 0.0281,0.11252 0.0281,0.20478 v 0.57166 h -0.19476 v -0.51111 c 0,-0.0894 -0.008,-0.14876 -0.0236,-0.17832 -0.016,-0.0296 -0.0422,-0.0441 -0.0796,-0.0441 -0.0434,0 -0.0784,0.0205 -0.10489,0.062 -0.0267,0.041 -0.0398,0.12206 -0.0398,0.24197 v 0.42958 h -0.19453 v -0.49013 c 0,-0.097 -0.005,-0.15996 -0.0162,-0.18786 -0.0138,-0.037 -0.0422,-0.0555 -0.0846,-0.0555 -0.0286,0 -0.0551,0.009 -0.0791,0.0286 -0.0241,0.0191 -0.0412,0.0472 -0.052,0.0839 -0.0107,0.0367 -0.0162,0.0989 -0.0162,0.18666 v 0.43435 h -0.19452 z"
       style="fill:#fcffff;fill-opacity:1;fill-rule:evenodd;stroke:none;stroke-width:0.26458332"
       inkscape:connector-curvature="0" />
    <path
       id="path872"
       d="m -112.66438,109.10907 0.25055,-1.27444 h 0.14541 l -0.25221,1.27444 z"
       style="fill:#fcffff;fill-opacity:1;fill-rule:evenodd;stroke:none;stroke-width:0.26458332"
       inkscape:connector-curvature="0" />
    <path
       id="path874"
       d="m -111.856,107.85537 v 0.45223 c 0.0308,-0.0448 0.0649,-0.0782 0.1018,-0.10037 0.0374,-0.0222 0.078,-0.0334 0.12158,-0.0334 0.0582,0 0.10703,0.0155 0.14613,0.0463 0.0393,0.031 0.067,0.0746 0.0839,0.13135 0.0124,0.0417 0.0186,0.11228 0.0186,0.21217 v 0.5247 h -0.19477 v -0.47249 c 0,-0.10966 -0.007,-0.17784 -0.021,-0.2055 -0.0195,-0.037 -0.0524,-0.0555 -0.0992,-0.0555 -0.0498,0 -0.0882,0.02 -0.11585,0.0601 -0.0274,0.0403 -0.0413,0.11539 -0.0413,0.22552 v 0.44794 h -0.19452 v -1.23296 z"
       style="fill:#fcffff;fill-opacity:1;fill-rule:evenodd;stroke:none;stroke-width:0.26458332"
       inkscape:connector-curvature="0" />
  </g>
</svg>
