<?xml version="1.0" encoding="UTF-8" standalone="no"?>
<!-- Created with Inkscape (http://www.inkscape.org/) -->

<svg
   xmlns:dc="http://purl.org/dc/elements/1.1/"
   xmlns:cc="http://creativecommons.org/ns#"
   xmlns:rdf="http://www.w3.org/1999/02/22-rdf-syntax-ns#"
   xmlns:svg="http://www.w3.org/2000/svg"
   xmlns="http://www.w3.org/2000/svg"
   xmlns:sodipodi="http://sodipodi.sourceforge.net/DTD/sodipodi-0.dtd"
   xmlns:inkscape="http://www.inkscape.org/namespaces/inkscape"
   width="7.8760009mm"
   height="3.9383328mm"
   viewBox="0 0 7.8760008 3.9383327"
   version="1.1"
   id="svg8"
   inkscape:version="0.92.2 (5c3e80d, 2017-08-06)">
  <defs
     id="defs2">
    <pattern
       y="0"
       x="0"
       height="6"
       width="6"
       patternUnits="userSpaceOnUse"
       id="EMFhbasepattern" />
    <pattern
       y="0"
       x="0"
       height="6"
       width="6"
       patternUnits="userSpaceOnUse"
       id="EMFhbasepattern-0" />
    <pattern
       y="0"
       x="0"
       height="6"
       width="6"
       patternUnits="userSpaceOnUse"
       id="EMFhbasepattern-2" />
    <pattern
       y="0"
       x="0"
       height="6"
       width="6"
       patternUnits="userSpaceOnUse"
       id="EMFhbasepattern-6" />
    <pattern
       y="0"
       x="0"
       height="6"
       width="6"
       patternUnits="userSpaceOnUse"
       id="EMFhbasepattern-03" />
    <pattern
       y="0"
       x="0"
       height="6"
       width="6"
       patternUnits="userSpaceOnUse"
       id="EMFhbasepattern-5" />
    <pattern
       y="0"
       x="0"
       height="6"
       width="6"
       patternUnits="userSpaceOnUse"
       id="EMFhbasepattern-69" />
    <pattern
       y="0"
       x="0"
       height="6"
       width="6"
       patternUnits="userSpaceOnUse"
       id="EMFhbasepattern-54" />
    <pattern
       y="0"
       x="0"
       height="6"
       width="6"
       patternUnits="userSpaceOnUse"
       id="EMFhbasepattern-1" />
    <pattern
       y="0"
       x="0"
       height="6"
       width="6"
       patternUnits="userSpaceOnUse"
       id="EMFhbasepattern-05" />
    <pattern
       y="0"
       x="0"
       height="6"
       width="6"
       patternUnits="userSpaceOnUse"
       id="EMFhbasepattern-58" />
    <pattern
       y="0"
       x="0"
       height="6"
       width="6"
       patternUnits="userSpaceOnUse"
       id="EMFhbasepattern-23" />
    <pattern
       y="0"
       x="0"
       height="6"
       width="6"
       patternUnits="userSpaceOnUse"
       id="EMFhbasepattern-62" />
    <pattern
       y="0"
       x="0"
       height="6"
       width="6"
       patternUnits="userSpaceOnUse"
       id="EMFhbasepattern-3" />
    <pattern
       y="0"
       x="0"
       height="6"
       width="6"
       patternUnits="userSpaceOnUse"
       id="EMFhbasepattern-57" />
    <pattern
       y="0"
       x="0"
       height="6"
       width="6"
       patternUnits="userSpaceOnUse"
       id="EMFhbasepattern-7" />
    <pattern
       y="0"
       x="0"
       height="6"
       width="6"
       patternUnits="userSpaceOnUse"
       id="EMFhbasepattern-626" />
    <pattern
       y="0"
       x="0"
       height="6"
       width="6"
       patternUnits="userSpaceOnUse"
       id="EMFhbasepattern-13" />
  </defs>
  <sodipodi:namedview
     id="base"
     pagecolor="#ffffff"
     bordercolor="#666666"
     borderopacity="1.0"
     inkscape:pageopacity="0.0"
     inkscape:pageshadow="2"
     inkscape:zoom="5.6"
     inkscape:cx="-0.89414945"
     inkscape:cy="52.735795"
     inkscape:document-units="mm"
     inkscape:current-layer="layer1"
     showgrid="false"
     fit-margin-top="0"
     fit-margin-left="0"
     fit-margin-right="0"
     fit-margin-bottom="0"
     inkscape:window-width="1920"
     inkscape:window-height="1027"
     inkscape:window-x="-8"
     inkscape:window-y="-8"
     inkscape:window-maximized="1" />
  <metadata
     id="metadata5">
    <rdf:RDF>
      <cc:Work
         rdf:about="">
        <dc:format>image/svg+xml</dc:format>
        <dc:type
           rdf:resource="http://purl.org/dc/dcmitype/StillImage" />
        <dc:title></dc:title>
      </cc:Work>
    </rdf:RDF>
  </metadata>
  <g
     inkscape:label="Layer 1"
     inkscape:groupmode="layer"
     id="layer1"
     transform="translate(-23.138586,-175.99623)">
    <path
       id="path1255"
       d="m 23.164332,179.90882 v -3.88684 h 7.824508 v 3.88684 z"
       style="fill:#2b9fcf;fill-opacity:1;fill-rule:evenodd;stroke:none;stroke-width:0.26458332"
       inkscape:connector-curvature="0" />
    <path
       id="path1257"
       d="m 23.164332,179.90882 v -3.88684 h 7.824508 v 3.88684 z"
       style="fill:none;stroke:#231f20;stroke-width:0.05149271px;stroke-linecap:butt;stroke-linejoin:miter;stroke-miterlimit:4;stroke-dasharray:none;stroke-opacity:1"
       inkscape:connector-curvature="0" />
    <path
       id="path1259"
       d="m 29.734182,178.13486 h -0.631978 v -0.33892 h 0.631978 v -0.3015 l 0.821022,0.47084 -0.821022,0.47108 z"
       style="fill:#ffffff;fill-opacity:1;fill-rule:evenodd;stroke:none;stroke-width:0.26458332"
       inkscape:connector-curvature="0" />
    <path
       id="path1261"
       d="m 24.390622,177.79594 h 0.631977 v 0.33892 h -0.631977 v 0.3015 l -0.821261,-0.47108 0.821261,-0.47084 z"
       style="fill:#ffffff;fill-opacity:1;fill-rule:evenodd;stroke:none;stroke-width:0.26458332"
       inkscape:connector-curvature="0" />
    <path
       id="path1263"
       d="m 30.265081,176.02198 0.03433,7.1e-4 0.03695,0.003 0.03624,0.005 0.036,0.006 0.03504,0.008 0.03457,0.01 0.03385,0.0114 0.03314,0.0128 0.03218,0.0147 0.03147,0.0159 0.03027,0.0173 0.02956,0.0189 0.02837,0.0201 0.02765,0.0213 0.02622,0.0225 0.02527,0.0239 0.02384,0.0251 0.02289,0.026 0.02146,0.0272 0.02026,0.0284 0.01883,0.0294 0.01764,0.0301 0.01597,0.0313 0.01454,0.032 0.01311,0.0329 0.01144,0.0334 0.0098,0.0343 0.0081,0.0351 0.0064,0.0358 0.0048,0.036 0.0026,0.0365 9.54e-4,0.0343 v 2.44872 l -9.54e-4,0.0341 -0.0026,0.0367 -0.0048,0.036 -0.0064,0.0355 -0.0081,0.035 -0.0098,0.0343 -0.01144,0.0336 -0.01311,0.0329 -0.01454,0.032 -0.01597,0.031 -0.01764,0.0303 -0.01883,0.0294 -0.02026,0.0282 -0.02146,0.0272 -0.02289,0.0263 -0.02384,0.0249 -0.02527,0.0239 -0.02622,0.0227 -0.02765,0.0213 -0.02837,0.0201 -0.02956,0.0187 -0.03027,0.0175 -0.03147,0.0159 -0.03218,0.0145 -0.03314,0.013 -0.03385,0.0114 -0.03457,0.01 -0.03504,0.008 -0.036,0.006 -0.03624,0.005 -0.03695,0.003 -0.03433,9.5e-4 h -6.377228 l -0.03433,-9.5e-4 -0.03671,-0.003 -0.03647,-0.005 -0.03576,-0.006 -0.03528,-0.008 -0.03457,-0.01 -0.03385,-0.0114 -0.03314,-0.013 -0.03218,-0.0145 -0.03123,-0.0159 -0.03051,-0.0175 -0.02932,-0.0187 -0.02861,-0.0201 -0.02742,-0.0213 -0.02622,-0.0227 -0.02527,-0.0239 -0.02408,-0.0249 -0.02265,-0.0263 -0.02169,-0.0272 -0.02026,-0.0282 -0.01883,-0.0294 -0.0174,-0.0301 -0.01621,-0.0313 -0.01454,-0.032 -0.01311,-0.0329 -0.01144,-0.0336 -0.0098,-0.0343 -0.0081,-0.035 -0.0064,-0.0355 -0.0045,-0.036 -0.0029,-0.0367 -7.16e-4,-0.0341 v -2.44872 l 7.16e-4,-0.0343 0.0029,-0.0365 0.0045,-0.036 0.0064,-0.0358 0.0081,-0.0351 0.0098,-0.0343 0.01144,-0.0334 0.01311,-0.0329 0.01454,-0.032 0.01621,-0.0313 0.0174,-0.0301 0.01883,-0.0294 0.02026,-0.0284 0.02169,-0.0272 0.02265,-0.026 0.02408,-0.0251 0.02527,-0.0239 0.02622,-0.0225 0.02742,-0.0213 0.02861,-0.0201 0.02932,-0.0189 0.03051,-0.0173 0.03123,-0.0159 0.03218,-0.0147 0.03314,-0.0128 0.03385,-0.0114 0.03457,-0.01 0.03528,-0.008 0.03576,-0.006 0.03647,-0.005 0.03671,-0.003 0.03433,-7.1e-4 z m -6.374368,0.22216 h 6.371507 v 0 c 0.277727,0 0.503008,0.22358 0.503008,0.49974 v 0 2.44304 0 c 0,0.27592 -0.225281,0.49974 -0.503008,0.49974 v 0 h -6.371507 v 0 c -0.277727,0 -0.503007,-0.22382 -0.503007,-0.49974 v 0 -2.44304 0 c 0,-0.27616 0.22528,-0.49974 0.503007,-0.49974 z"
       style="fill:#ffffff;fill-opacity:1;fill-rule:evenodd;stroke:none;stroke-width:0.26458332"
       inkscape:connector-curvature="0" />
    <path
       id="path1265"
       d="m 26.073193,177.74739 c 0.07938,-0.19185 0.149711,-0.36356 0.149711,-0.36356 0,0 -0.146373,-0.22784 -0.199534,-0.33608 -0.08439,-0.17195 0.130877,-0.17195 0.130877,-0.17195 0.08606,0 0.424338,0 0.424338,0 0.08654,-0.009 0.156385,0.12434 -0.0055,0.13429 0,0 -0.109899,4.7e-4 -0.263185,0 -0.116812,-4.7e-4 -0.120865,-0.004 -0.130162,0.0109 -0.01407,0.0232 0.05411,0.12197 0.05411,0.12197 0.04529,0.0981 0.111091,0.18971 0.139698,0.24087 v 0 h 1.363841 l 0.07652,-0.10705 H 27.48376 v 0 c -0.05149,-0.0142 -0.07009,-0.0568 -0.06055,-0.10516 0.01263,-0.0628 0.04625,-0.0649 0.06055,-0.0649 0.0646,0 0.503246,0 0.503246,0 0,0 0.07676,0.0185 0.0658,0.0952 -0.0112,0.0767 -0.09869,0.0748 -0.09869,0.0748 v 0 l -0.06842,0.10705 0.156147,0.37895 c 0.07962,-0.0329 0.167113,-0.0514 0.258894,-0.0514 0.372368,0 0.67608,0.30173 0.67608,0.67192 0,0.36995 -0.303712,0.67169 -0.67608,0.67169 -0.342331,0 -0.626495,-0.25484 -0.670359,-0.58311 l -0.414087,2.4e-4 -0.985513,-0.79817 v 0 l -0.05197,0.12032 c 0.208117,0.11463 0.349721,0.33537 0.349721,0.58808 0,0.36995 -0.303711,0.67169 -0.67608,0.67169 -0.372368,0 -0.67608,-0.30174 -0.67608,-0.67169 0,-0.36995 0.303712,-0.67169 0.67608,-0.67169 0.07724,0 0.151618,0.013 0.220751,0.0367 z m 1.510215,0.60939 h -0.291315 l 0.507775,-0.83226 0.141605,0.28942 v 0 c -0.04744,0.0298 -0.09107,0.0656 -0.129924,0.1061 0,0 0,2.4e-4 0,2.4e-4 -0.0029,0.003 -0.0055,0.006 -0.0083,0.009 -0.105131,0.11368 -0.171642,0.26337 -0.178079,0.42774 z m 0.154001,-0.003 c 0.0093,-0.17953 0.104177,-0.33727 0.244829,-0.43319 l 0.195481,0.43343 z m 0.563321,-0.53148 c 0.310625,0 0.564036,0.25177 0.564036,0.56061 0,0.30861 -0.253411,0.56037 -0.564036,0.56037 -0.28035,0 -0.514212,-0.2051 -0.557123,-0.47203 l 0.540674,2.4e-4 c 0.07295,0 0.04482,-0.0703 0.03171,-0.0876 l -0.233386,-0.51774 c 0.06699,-0.0282 0.14089,-0.0438 0.218129,-0.0438 z m -2.448288,-7.1e-4 c 0.06222,0 0.122296,0.0102 0.178556,0.0289 l -0.192144,0.459 c -0.08749,0.0737 -0.154001,0.0865 -0.122534,0.15537 0.0267,0.0585 0.10537,0.0147 0.19572,-0.0547 l 0.22099,-0.50685 v 0 l 0.0033,-0.005 c 0.167352,0.0973 0.280111,0.27782 0.280111,0.48387 0,0.30861 -0.253411,0.56038 -0.564036,0.56038 -0.310625,0 -0.564036,-0.25177 -0.564036,-0.56038 0,-0.3086 0.253411,-0.56037 0.564036,-0.56037 z m 1.822031,-0.32755 -0.483459,0.78324 -0.904698,-0.72498 0.0236,-0.0606 z"
       style="fill:#ffffff;fill-opacity:1;fill-rule:evenodd;stroke:none;stroke-width:0.26458332"
       inkscape:connector-curvature="0" />
  </g>
</svg>
