<?xml version="1.0" encoding="UTF-8" standalone="no"?>
<!-- Created with Inkscape (http://www.inkscape.org/) -->

<svg
   xmlns:dc="http://purl.org/dc/elements/1.1/"
   xmlns:cc="http://creativecommons.org/ns#"
   xmlns:rdf="http://www.w3.org/1999/02/22-rdf-syntax-ns#"
   xmlns:svg="http://www.w3.org/2000/svg"
   xmlns="http://www.w3.org/2000/svg"
   xmlns:sodipodi="http://sodipodi.sourceforge.net/DTD/sodipodi-0.dtd"
   xmlns:inkscape="http://www.inkscape.org/namespaces/inkscape"
   width="9.8450403mm"
   height="5.0121799mm"
   viewBox="0 0 9.8450403 5.0121799"
   version="1.1"
   id="svg8"
   inkscape:version="0.92.2 (5c3e80d, 2017-08-06)">
  <defs
     id="defs2">
    <pattern
       y="0"
       x="0"
       height="6"
       width="6"
       patternUnits="userSpaceOnUse"
       id="EMFhbasepattern" />
  </defs>
  <sodipodi:namedview
     id="base"
     pagecolor="#ffffff"
     bordercolor="#666666"
     borderopacity="1.0"
     inkscape:pageopacity="0.0"
     inkscape:pageshadow="2"
     inkscape:zoom="15.839192"
     inkscape:cx="19.073197"
     inkscape:cy="6.9940371"
     inkscape:document-units="mm"
     inkscape:current-layer="layer1"
     showgrid="false"
     fit-margin-top="0"
     fit-margin-left="0"
     fit-margin-right="0"
     fit-margin-bottom="0"
     inkscape:window-width="1920"
     inkscape:window-height="1027"
     inkscape:window-x="-8"
     inkscape:window-y="-8"
     inkscape:window-maximized="1" />
  <metadata
     id="metadata5">
    <rdf:RDF>
      <cc:Work
         rdf:about="">
        <dc:format>image/svg+xml</dc:format>
        <dc:type
           rdf:resource="http://purl.org/dc/dcmitype/StillImage" />
        <dc:title></dc:title>
      </cc:Work>
    </rdf:RDF>
  </metadata>
  <g
     inkscape:label="Layer 1"
     inkscape:groupmode="layer"
     id="layer1"
     transform="translate(21.931429,-146.32733)">
    <path
       id="path818"
       d="m -21.930953,151.31281 v -4.98475 h 9.830728 v 4.98475 z"
       style="fill:#ffffff;fill-opacity:1;fill-rule:evenodd;stroke:none;stroke-width:0.26458332"
       inkscape:connector-curvature="0" />
    <path
       id="path820"
       d="m -21.930239,151.31233 v -4.98379 h 9.829538 v 4.98379 z m 9.830727,9.6e-4 v -4.98596 h -9.831917 v 4.98596 z"
       style="fill:#000000;fill-opacity:1;fill-rule:evenodd;stroke:none;stroke-width:0.26458332"
       inkscape:connector-curvature="0" />
    <path
       id="path822"
       d="m -18.813817,148.3248 0.144866,-0.0552 0.20172,0.5459 -0.144867,0.055 z m 3.739658,0.17675 v 0 c 0.04615,0 0.08397,0.0292 0.08397,0.0651 v 0.51239 c 0,0.0357 -0.03782,0.0651 -0.08397,0.0651 v 0 c -0.04639,0 -0.08397,-0.0294 -0.08397,-0.0651 v -0.0665 h -0.04282 c -0.03782,0 -0.06875,-0.0239 -0.06875,-0.0531 v -0.0666 h -1.09685 c -0.01855,0.0448 -0.03235,0.0738 -0.103,0.10079 -0.07041,0.0268 -0.201006,-0.0243 -0.231454,-0.10706 -0.03045,-0.0822 -0.0059,-0.14805 0.04543,-0.197 l -0.06328,-0.16348 c -0.07041,-0.003 -0.135827,-0.0473 -0.161994,-0.11815 -4.76e-4,-9.6e-4 -7.14e-4,-0.002 -9.51e-4,-0.003 l -0.62181,0.23606 -0.633466,-0.29417 -0.08873,-0.23413 -0.786657,0.005 3.241782,-1.23045 0.238115,0.64476 -0.389166,0.50829 -0.623237,0.23654 c 2.38e-4,7.3e-4 7.14e-4,0.002 9.51e-4,0.002 0.02617,0.0709 0.0057,0.14829 -0.04567,0.19724 l 0.06351,0.16348 c 0.06827,0.002 0.132022,0.0448 0.159616,0.11213 h 1.096848 v -0.0666 c 0,-0.0292 0.03092,-0.0531 0.06875,-0.0531 h 0.04282 v -0.0665 c 0,-0.0359 0.03758,-0.0651 0.08397,-0.0651 z m -2.931116,-0.3858 c 0.02569,-0.01 0.05447,0.004 0.06423,0.0297 0.0095,0.0263 -0.0036,0.0555 -0.02926,0.0651 -0.02569,0.01 -0.05471,-0.004 -0.06423,-0.0294 -0.0095,-0.0263 0.0036,-0.0555 0.02926,-0.0653 z m -0.58137,0.19459 0.0892,-0.034 -0.04092,-0.11116 0.278791,-0.002 0.08349,0.22087 0.607062,0.28187 -0.68794,0.2609 -0.0854,-0.23076 -0.0892,0.0338 z"
       style="fill:#231f20;fill-opacity:1;fill-rule:evenodd;stroke:none;stroke-width:0.26458332"
       inkscape:connector-curvature="0" />
    <path
       id="path824"
       d="m -20.985393,150.62344 -0.313759,-1.13256 h 0.192442 l 0.222177,0.83839 0.214802,-0.83839 h 0.188874 l -0.314235,1.13256 z m 0.691745,0 v -1.13256 h 0.17698 v 1.13256 z m 0.448397,-1.13256 h 0.323751 c 0.08183,0 0.143677,0.01 0.185305,0.0292 0.04163,0.019 0.08016,0.0519 0.115133,0.0977 0.03521,0.0456 0.06256,0.10537 0.08278,0.17819 0.01998,0.0735 0.02997,0.1642 0.02997,0.27271 0,0.0981 -0.01047,0.18301 -0.0314,0.25559 -0.02093,0.0723 -0.04781,0.12949 -0.07993,0.17192 -0.03211,0.0422 -0.07089,0.0738 -0.11656,0.0953 -0.04567,0.0215 -0.10419,0.0321 -0.176028,0.0321 h -0.333028 z m 0.176505,0.19169 v 0.75014 h 0.133449 c 0.05685,0 0.09824,-0.006 0.123696,-0.0169 0.02569,-0.0113 0.04662,-0.0287 0.0628,-0.0516 0.01665,-0.0229 0.02997,-0.0591 0.04091,-0.10851 0.01071,-0.0494 0.01594,-0.11453 0.01594,-0.19555 0,-0.0839 -0.0057,-0.14998 -0.01665,-0.19844 -0.01094,-0.0482 -0.02783,-0.0866 -0.05114,-0.11406 -0.02307,-0.0282 -0.05114,-0.0463 -0.08421,-0.055 -0.02498,-0.007 -0.07303,-0.0101 -0.144153,-0.0101 z m 0.8133,0.94087 v -1.13256 h 0.652496 v 0.19169 h -0.475516 v 0.25101 h 0.441737 v 0.19073 h -0.441737 v 0.3084 h 0.491453 v 0.19073 z m 0.885615,-0.55917 c 0,-0.13503 0.01879,-0.24619 0.05662,-0.33347 0.03782,-0.0873 0.08706,-0.15239 0.147959,-0.19507 0.0609,-0.0427 0.134876,-0.0641 0.221701,-0.0641 0.125837,0 0.228124,0.0506 0.307574,0.15215 0.07897,0.10151 0.118701,0.24618 0.118701,0.43354 0,0.18952 -0.04187,0.33757 -0.125837,0.44415 -0.0735,0.0945 -0.173412,0.1413 -0.299724,0.1413 -0.127264,0 -0.227648,-0.0465 -0.301152,-0.13961 -0.08397,-0.10658 -0.125837,-0.25294 -0.125837,-0.43885 z m 0.182689,-0.008 c 0,0.13021 0.02331,0.22786 0.07017,0.29297 0.04686,0.0651 0.104665,0.0979 0.174125,0.0979 0.0697,0 0.127265,-0.0325 0.173175,-0.0972 0.04591,-0.0644 0.06875,-0.16372 0.06875,-0.29755 0,-0.13141 -0.02236,-0.22858 -0.06684,-0.29152 -0.04448,-0.0627 -0.103001,-0.094 -0.175077,-0.094 -0.07208,0 -0.13107,0.0316 -0.176267,0.095 -0.04543,0.0634 -0.06803,0.16155 -0.06803,0.29441 z m 1.13491,0.56689 -0.31376,-1.13256 h 0.192442 l 0.222177,0.83839 0.214803,-0.83839 h 0.188636 l -0.313997,1.13256 z m 1.399428,0 h -0.192918 l -0.07683,-0.25728 h -0.350869 l -0.07231,0.25728 h -0.188636 l 0.342066,-1.13256 h 0.187923 z m -0.326605,-0.44801 -0.120841,-0.42028 -0.118939,0.42028 z m 0.527848,0.44801 V 149.5 h 0.176981 v 0.93243 h 0.441498 v 0.19073 z m 0.982193,0 -0.313759,-1.13256 h 0.192442 l 0.222177,0.83839 0.214802,-0.83839 h 0.188636 l -0.313997,1.13256 z m 0.697454,0 v -1.13256 h 0.652496 v 0.19169 h -0.475516 v 0.25101 h 0.441737 v 0.19073 h -0.441737 v 0.3084 h 0.491454 v 0.19073 z"
       style="fill:#231f20;fill-opacity:1;fill-rule:evenodd;stroke:none;stroke-width:0.26458332"
       inkscape:connector-curvature="0" />
    <path
       id="path826"
       d="m -12.665182,146.35699 0.02759,4.8e-4 0.0295,0.002 0.02902,0.004 0.02854,0.005 0.02831,0.007 0.02759,0.008 0.02688,0.009 0.02664,0.0104 0.02569,0.012 0.02522,0.013 0.02426,0.014 0.02355,0.0154 0.0226,0.0164 0.02188,0.0176 0.02117,0.0183 0.02022,0.0195 0.01903,0.0203 0.01832,0.0215 0.01736,0.0222 0.01594,0.0232 0.01522,0.0239 0.01403,0.0246 0.01284,0.0253 0.01166,0.0263 0.01023,0.0268 0.0093,0.0275 0.0078,0.028 0.0067,0.0284 0.005,0.0292 0.0036,0.0294 0.0024,0.0299 7.03e-4,0.0277 v 3.80952 l -7.13e-4,0.028 -0.0024,0.0297 -0.0036,0.0294 -0.005,0.0292 -0.0067,0.0285 -0.0079,0.028 -0.0093,0.0275 -0.01023,0.0268 -0.01166,0.0263 -0.01285,0.0253 -0.01403,0.0246 -0.01522,0.0239 -0.01594,0.0231 -0.01736,0.0222 -0.01832,0.0215 -0.01903,0.0203 -0.02022,0.0195 -0.02117,0.0186 -0.02188,0.0174 -0.0226,0.0164 -0.02355,0.0154 -0.02426,0.0142 -0.02522,0.0128 -0.02569,0.0118 -0.02664,0.0106 -0.02688,0.009 -0.02759,0.008 -0.02831,0.007 -0.02854,0.005 -0.02902,0.004 -0.0295,0.002 -0.02758,7.2e-4 h -8.673696 l -0.02736,-7.2e-4 -0.0295,-0.002 -0.02902,-0.004 -0.02878,-0.005 -0.02807,-0.007 -0.02759,-0.008 -0.02712,-0.009 -0.02641,-0.0106 -0.02569,-0.0118 -0.02521,-0.0128 -0.02426,-0.0142 -0.02355,-0.0154 -0.02284,-0.0164 -0.02188,-0.0174 -0.02093,-0.0186 -0.02022,-0.0195 -0.01927,-0.0203 -0.01808,-0.0215 -0.01736,-0.0222 -0.01618,-0.0231 -0.01499,-0.0239 -0.01403,-0.0246 -0.01285,-0.0253 -0.01166,-0.0263 -0.01047,-0.0268 -0.0093,-0.0275 -0.0076,-0.028 -0.0067,-0.0285 -0.005,-0.0292 -0.0038,-0.0294 -0.0021,-0.0297 -7.14e-4,-0.028 v -3.80952 l 7.14e-4,-0.0277 0.0021,-0.0299 0.0038,-0.0294 0.005,-0.0292 0.0067,-0.0284 0.0076,-0.028 0.0093,-0.0275 0.01047,-0.0268 0.01166,-0.0263 0.01285,-0.0253 0.01403,-0.0246 0.01499,-0.0239 0.01618,-0.0232 0.01736,-0.0222 0.01808,-0.0215 0.01927,-0.0203 0.02022,-0.0195 0.02093,-0.0183 0.02189,-0.0176 0.02284,-0.0164 0.02355,-0.0154 0.02426,-0.014 0.02521,-0.013 0.02569,-0.012 0.0264,-0.0104 0.02712,-0.009 0.02759,-0.008 0.02831,-0.007 0.02854,-0.005 0.02902,-0.004 0.0295,-0.002 0.02736,-4.8e-4 z m -8.671317,0.18109 h 8.669176 v 0 c 0.222176,0 0.402011,0.18253 0.402011,0.40774 v 0 3.80493 0 c 0,0.22497 -0.179835,0.4075 -0.402011,0.4075 v 0 h -8.669176 v 0 c -0.222177,0 -0.40225,-0.18253 -0.40225,-0.4075 v 0 -3.80493 0 c 0,-0.22521 0.180073,-0.40774 0.40225,-0.40774 z"
       style="fill:#231f20;fill-opacity:1;fill-rule:evenodd;stroke:none;stroke-width:0.26458332"
       inkscape:connector-curvature="0" />
  </g>
</svg>
