<?xml version="1.0" encoding="UTF-8" standalone="no"?>
<!-- Created with Inkscape (http://www.inkscape.org/) -->

<svg
   xmlns:dc="http://purl.org/dc/elements/1.1/"
   xmlns:cc="http://creativecommons.org/ns#"
   xmlns:rdf="http://www.w3.org/1999/02/22-rdf-syntax-ns#"
   xmlns:svg="http://www.w3.org/2000/svg"
   xmlns="http://www.w3.org/2000/svg"
   xmlns:sodipodi="http://sodipodi.sourceforge.net/DTD/sodipodi-0.dtd"
   xmlns:inkscape="http://www.inkscape.org/namespaces/inkscape"
   width="11.814mm"
   height="10.202664mm"
   viewBox="0 0 11.814 10.202664"
   version="1.1"
   id="svg8"
   inkscape:version="0.92.2 (5c3e80d, 2017-08-06)">
  <defs
     id="defs2">
    <pattern
       y="0"
       x="0"
       height="6"
       width="6"
       patternUnits="userSpaceOnUse"
       id="EMFhbasepattern" />
    <pattern
       y="0"
       x="0"
       height="6"
       width="6"
       patternUnits="userSpaceOnUse"
       id="EMFhbasepattern-0" />
    <pattern
       y="0"
       x="0"
       height="6"
       width="6"
       patternUnits="userSpaceOnUse"
       id="EMFhbasepattern-2" />
    <pattern
       y="0"
       x="0"
       height="6"
       width="6"
       patternUnits="userSpaceOnUse"
       id="EMFhbasepattern-6" />
    <pattern
       y="0"
       x="0"
       height="6"
       width="6"
       patternUnits="userSpaceOnUse"
       id="EMFhbasepattern-03" />
    <pattern
       y="0"
       x="0"
       height="6"
       width="6"
       patternUnits="userSpaceOnUse"
       id="EMFhbasepattern-5" />
    <pattern
       y="0"
       x="0"
       height="6"
       width="6"
       patternUnits="userSpaceOnUse"
       id="EMFhbasepattern-69" />
    <pattern
       y="0"
       x="0"
       height="6"
       width="6"
       patternUnits="userSpaceOnUse"
       id="EMFhbasepattern-54" />
    <pattern
       y="0"
       x="0"
       height="6"
       width="6"
       patternUnits="userSpaceOnUse"
       id="EMFhbasepattern-1" />
    <pattern
       y="0"
       x="0"
       height="6"
       width="6"
       patternUnits="userSpaceOnUse"
       id="EMFhbasepattern-05" />
    <pattern
       y="0"
       x="0"
       height="6"
       width="6"
       patternUnits="userSpaceOnUse"
       id="EMFhbasepattern-58" />
    <pattern
       y="0"
       x="0"
       height="6"
       width="6"
       patternUnits="userSpaceOnUse"
       id="EMFhbasepattern-23" />
    <pattern
       y="0"
       x="0"
       height="6"
       width="6"
       patternUnits="userSpaceOnUse"
       id="EMFhbasepattern-62" />
    <pattern
       y="0"
       x="0"
       height="6"
       width="6"
       patternUnits="userSpaceOnUse"
       id="EMFhbasepattern-3" />
    <pattern
       y="0"
       x="0"
       height="6"
       width="6"
       patternUnits="userSpaceOnUse"
       id="EMFhbasepattern-57" />
    <pattern
       y="0"
       x="0"
       height="6"
       width="6"
       patternUnits="userSpaceOnUse"
       id="EMFhbasepattern-7" />
    <pattern
       y="0"
       x="0"
       height="6"
       width="6"
       patternUnits="userSpaceOnUse"
       id="EMFhbasepattern-626" />
    <pattern
       y="0"
       x="0"
       height="6"
       width="6"
       patternUnits="userSpaceOnUse"
       id="EMFhbasepattern-13" />
    <pattern
       y="0"
       x="0"
       height="6"
       width="6"
       patternUnits="userSpaceOnUse"
       id="EMFhbasepattern-38" />
    <pattern
       y="0"
       x="0"
       height="6"
       width="6"
       patternUnits="userSpaceOnUse"
       id="EMFhbasepattern-20" />
  </defs>
  <sodipodi:namedview
     id="base"
     pagecolor="#ffffff"
     bordercolor="#666666"
     borderopacity="1.0"
     inkscape:pageopacity="0.0"
     inkscape:pageshadow="2"
     inkscape:zoom="5.6"
     inkscape:cx="3.2214731"
     inkscape:cy="47.793257"
     inkscape:document-units="mm"
     inkscape:current-layer="layer1"
     showgrid="false"
     fit-margin-top="0"
     fit-margin-left="0"
     fit-margin-right="0"
     fit-margin-bottom="0"
     inkscape:window-width="1920"
     inkscape:window-height="1027"
     inkscape:window-x="-8"
     inkscape:window-y="-8"
     inkscape:window-maximized="1" />
  <metadata
     id="metadata5">
    <rdf:RDF>
      <cc:Work
         rdf:about="">
        <dc:format>image/svg+xml</dc:format>
        <dc:type
           rdf:resource="http://purl.org/dc/dcmitype/StillImage" />
        <dc:title></dc:title>
      </cc:Work>
    </rdf:RDF>
  </metadata>
  <g
     inkscape:label="Layer 1"
     inkscape:groupmode="layer"
     id="layer1"
     transform="translate(-22.049661,-168.42419)">
    <path
       id="path1305"
       d="M 33.837859,178.60105 H 22.075463 v -10.15082 l 11.762396,-2.4e-4 z"
       style="fill:#fcffff;fill-opacity:1;fill-rule:evenodd;stroke:none;stroke-width:0.26458332"
       inkscape:connector-curvature="0" />
    <path
       id="path1307"
       d="M 33.837859,178.60105 H 22.075463 v -10.15082 l 11.762396,-2.4e-4 z"
       style="fill:none;stroke:#231f20;stroke-width:0.05160413px;stroke-linecap:butt;stroke-linejoin:miter;stroke-miterlimit:4;stroke-dasharray:none;stroke-opacity:1"
       inkscape:connector-curvature="0" />
    <path
       id="path1309"
       d="m 22.075463,169.18025 9.56e-4,-0.0349 0.0029,-0.037 0.0045,-0.0368 0.0065,-0.0361 0.0081,-0.0356 0.0098,-0.0349 0.01147,-0.0341 0.01314,-0.0332 0.01457,-0.0327 0.01601,-0.0315 0.01768,-0.0308 0.01887,-0.0298 0.02031,-0.0286 0.0215,-0.0277 0.02294,-0.0265 0.02413,-0.0255 0.02509,-0.0243 0.02652,-0.0228 0.02747,-0.0219 0.02843,-0.0204 0.02962,-0.019 0.03058,-0.0175 0.0313,-0.0163 0.03225,-0.0147 0.03321,-0.013 0.03392,-0.0118 0.03464,-0.01 0.03536,-0.008 0.03584,-0.006 0.03631,-0.005 0.03703,-0.003 0.0344,-9.6e-4 h 10.311746 l 0.0344,9.6e-4 0.03703,0.003 0.03631,0.005 0.03584,0.006 0.03536,0.008 0.03464,0.01 0.03392,0.0118 0.03321,0.013 0.03225,0.0147 0.03154,0.0163 0.03034,0.0175 0.02963,0.019 0.02843,0.0204 0.02747,0.0219 0.02652,0.0228 0.02508,0.0243 0.02413,0.0255 0.02293,0.0265 0.0215,0.0277 0.02031,0.0286 0.01887,0.0298 0.01768,0.0308 0.01601,0.0315 0.01457,0.0327 0.01314,0.0332 0.01147,0.0341 0.0098,0.0349 0.0081,0.0356 0.0065,0.0361 0.0045,0.0368 0.0029,0.037 9.56e-4,0.0349 v 8.69078 l -9.56e-4,0.0346 -0.0029,0.0373 -0.0045,0.0366 -0.0065,0.0363 -0.0081,0.0356 -0.0098,0.0346 -0.01147,0.0341 -0.01314,0.0334 -0.01457,0.0327 -0.01601,0.0315 -0.01768,0.0305 -0.01887,0.0298 -0.02031,0.0288 -0.0215,0.0277 -0.02293,0.0265 -0.02413,0.0255 -0.02508,0.0243 -0.02652,0.0228 -0.02747,0.0216 -0.02843,0.0204 -0.02963,0.0192 -0.03034,0.0175 -0.03154,0.0161 -0.03225,0.0149 -0.03321,0.013 -0.03392,0.0115 -0.03464,0.01 -0.03536,0.008 -0.03584,0.006 -0.03631,0.005 -0.03703,0.003 -0.0344,9.6e-4 H 22.800788 l -0.0344,-9.6e-4 -0.03703,-0.003 -0.03631,-0.005 -0.03584,-0.006 -0.03536,-0.008 -0.03464,-0.01 -0.03392,-0.0115 -0.03321,-0.013 -0.03225,-0.0149 -0.0313,-0.0161 -0.03058,-0.0175 -0.02962,-0.0192 -0.02843,-0.0204 -0.02747,-0.0216 -0.02652,-0.0228 -0.02509,-0.0243 -0.02413,-0.0255 -0.02294,-0.0265 -0.0215,-0.0277 -0.02031,-0.0288 -0.01887,-0.0298 -0.01768,-0.0305 -0.01601,-0.0315 -0.01457,-0.0327 -0.01314,-0.0334 -0.01147,-0.0341 -0.0098,-0.0346 -0.0081,-0.0356 -0.0065,-0.0363 -0.0045,-0.0366 -0.0029,-0.037 -9.56e-4,-0.0349 z m 0.224096,8.68789 v -8.68524 0 c 0,-0.28013 0.225768,-0.50736 0.504096,-0.50736 v 0 h 10.306012 v 0 c 0.278328,0 0.504096,0.22723 0.504096,0.50736 v 0 8.68524 0 c 0,0.28037 -0.225768,0.50736 -0.504096,0.50736 v 0 H 22.803655 v 0 c -0.278328,0 -0.504096,-0.22699 -0.504096,-0.50736 z"
       style="fill:#1d1d1b;fill-opacity:1;fill-rule:evenodd;stroke:none;stroke-width:0.26458332"
       inkscape:connector-curvature="0" />
    <path
       id="path1311"
       d="m 29.845706,178.03742 h -0.03775 -2.69106 -0.02246 -4.42577 v -2.26749 l 1.220581,-0.52972 1.252594,0.52972 v 0.94956 h 0.223857 v -1.08422 l 0.74826,-3.81578 0.768089,3.81578 v 1.08422 h 0.212389 v -0.44316 l 0.391331,-0.67231 h 0.45942 v -0.126 h 0.809899 v 0.13441 h 0.442457 l 0.384164,0.67231 v 0.42874 h 0.226246 v -0.89185 0 l 0.751604,-0.56315 0.785052,0.56315 v 0.89088 h 0.226963 v -1.27753 l 0.882048,-0.4285 0.811571,0.42008 v 2.61086 z"
       style="fill:#1d1d1b;fill-opacity:1;fill-rule:evenodd;stroke:none;stroke-width:0.26458332"
       inkscape:connector-curvature="0" />
    <path
       id="path1313"
       d="m 26.587957,169.59937 h 0.184676 v 0.71367 c 0,0.11518 -0.01147,0.20102 -0.0344,0.25752 -0.02294,0.0563 -0.0571,0.0995 -0.10273,0.12985 -0.04563,0.0303 -0.101775,0.0455 -0.16843,0.0455 -0.08816,0 -0.156963,-0.0305 -0.207134,-0.0914 -0.04969,-0.0608 -0.07502,-0.15269 -0.07573,-0.27556 l 0.175358,-0.0252 c 0.0022,0.0659 0.01051,0.11254 0.02532,0.14019 0.01983,0.0378 0.04969,0.0567 0.08959,0.0567 0.03894,0 0.06761,-0.0137 0.08577,-0.0414 0.01863,-0.0272 0.02771,-0.088 0.02771,-0.18227 z"
       style="fill:#231f20;fill-opacity:1;fill-rule:evenodd;stroke:none;stroke-width:0.26458332"
       inkscape:connector-curvature="0" />
    <path
       id="path1315"
       d="m 27.217957,169.59937 h 0.184676 v 0.61003 c 0,0.0947 0.0024,0.1563 0.0072,0.18515 0.0079,0.0498 0.02747,0.088 0.05853,0.11518 0.03106,0.0272 0.07191,0.0409 0.122799,0.0409 0.043,0 0.07812,-0.01 0.105358,-0.0289 0.02724,-0.0192 0.04563,-0.0457 0.05567,-0.0798 0.01003,-0.0341 0.01505,-0.10748 0.01505,-0.21953 v -0.62302 h 0.184676 v 0.592 c 0,0.15124 -0.0081,0.26041 -0.02413,0.32798 -0.01601,0.0673 -0.05232,0.12191 -0.108703,0.16375 -0.05614,0.0416 -0.130683,0.0628 -0.222901,0.0628 -0.09604,0 -0.170819,-0.0173 -0.224813,-0.0519 -0.05375,-0.0346 -0.0927,-0.0832 -0.117065,-0.14596 -0.02437,-0.063 -0.03631,-0.1789 -0.03631,-0.34722 z m 0.156485,-0.11807 v -0.18587 h 0.151946 v 0.18587 z m 0.26925,0 v -0.18587 h 0.151706 v 0.18587 z"
       style="fill:#231f20;fill-opacity:1;fill-rule:evenodd;stroke:none;stroke-width:0.26458332"
       inkscape:connector-curvature="0" />
    <path
       id="path1317"
       d="m 28.395296,170.72686 v -1.12749 h 0.390376 c 0.09986,0 0.171058,0.0101 0.2143,0.0305 0.04253,0.0202 0.07765,0.0553 0.10512,0.10508 0.02747,0.0503 0.04133,0.10989 0.04133,0.17962 0,0.0883 -0.02102,0.15918 -0.06307,0.21305 -0.04205,0.0539 -0.101775,0.0878 -0.179181,0.10171 0.03966,0.0286 0.07287,0.0601 0.09867,0.094 0.02604,0.0341 0.0614,0.0955 0.106553,0.18346 l 0.112048,0.22002 h -0.221946 l -0.134505,-0.24502 c -0.04826,-0.0887 -0.08099,-0.14452 -0.09843,-0.16688 -0.0172,-0.0221 -0.03584,-0.0377 -0.05519,-0.0462 -0.01911,-0.009 -0.05017,-0.0127 -0.09293,-0.0127 h -0.03846 v 0.47081 z m 0.184676,-0.65043 h 0.13785 c 0.0841,0 0.137611,-0.004 0.160546,-0.0113 0.02293,-0.007 0.04133,-0.0221 0.05567,-0.0447 0.01433,-0.0226 0.0215,-0.0529 0.0215,-0.0904 0,-0.0358 -0.0072,-0.0647 -0.0215,-0.0866 -0.01434,-0.0219 -0.03369,-0.0368 -0.05806,-0.0452 -0.0172,-0.006 -0.06761,-0.008 -0.150751,-0.008 h -0.145256 z"
       style="fill:#231f20;fill-opacity:1;fill-rule:evenodd;stroke:none;stroke-width:0.26458332"
       inkscape:connector-curvature="0" />
    <path
       id="path1319"
       d="m 29.56499,170.72686 v -1.12749 h 0.184436 v 1.12749 z"
       style="fill:#231f20;fill-opacity:1;fill-rule:evenodd;stroke:none;stroke-width:0.26458332"
       inkscape:connector-curvature="0" />
  </g>
</svg>
