<?xml version="1.0" encoding="UTF-8" standalone="no"?>
<!-- Created with Inkscape (http://www.inkscape.org/) -->

<svg
   xmlns:dc="http://purl.org/dc/elements/1.1/"
   xmlns:cc="http://creativecommons.org/ns#"
   xmlns:rdf="http://www.w3.org/1999/02/22-rdf-syntax-ns#"
   xmlns:svg="http://www.w3.org/2000/svg"
   xmlns="http://www.w3.org/2000/svg"
   xmlns:sodipodi="http://sodipodi.sourceforge.net/DTD/sodipodi-0.dtd"
   xmlns:inkscape="http://www.inkscape.org/namespaces/inkscape"
   width="11.814mm"
   height="7.8761044mm"
   viewBox="0 0 11.814 7.8761041"
   version="1.1"
   id="svg8"
   inkscape:version="0.92.2 (5c3e80d, 2017-08-06)">
  <defs
     id="defs2">
    <pattern
       y="0"
       x="0"
       height="6"
       width="6"
       patternUnits="userSpaceOnUse"
       id="EMFhbasepattern" />
    <pattern
       y="0"
       x="0"
       height="6"
       width="6"
       patternUnits="userSpaceOnUse"
       id="EMFhbasepattern-0" />
    <pattern
       y="0"
       x="0"
       height="6"
       width="6"
       patternUnits="userSpaceOnUse"
       id="EMFhbasepattern-2" />
    <pattern
       y="0"
       x="0"
       height="6"
       width="6"
       patternUnits="userSpaceOnUse"
       id="EMFhbasepattern-6" />
    <pattern
       y="0"
       x="0"
       height="6"
       width="6"
       patternUnits="userSpaceOnUse"
       id="EMFhbasepattern-03" />
    <pattern
       y="0"
       x="0"
       height="6"
       width="6"
       patternUnits="userSpaceOnUse"
       id="EMFhbasepattern-5" />
    <pattern
       y="0"
       x="0"
       height="6"
       width="6"
       patternUnits="userSpaceOnUse"
       id="EMFhbasepattern-69" />
    <pattern
       y="0"
       x="0"
       height="6"
       width="6"
       patternUnits="userSpaceOnUse"
       id="EMFhbasepattern-54" />
    <pattern
       y="0"
       x="0"
       height="6"
       width="6"
       patternUnits="userSpaceOnUse"
       id="EMFhbasepattern-1" />
    <pattern
       y="0"
       x="0"
       height="6"
       width="6"
       patternUnits="userSpaceOnUse"
       id="EMFhbasepattern-05" />
    <pattern
       y="0"
       x="0"
       height="6"
       width="6"
       patternUnits="userSpaceOnUse"
       id="EMFhbasepattern-58" />
    <pattern
       y="0"
       x="0"
       height="6"
       width="6"
       patternUnits="userSpaceOnUse"
       id="EMFhbasepattern-23" />
    <pattern
       y="0"
       x="0"
       height="6"
       width="6"
       patternUnits="userSpaceOnUse"
       id="EMFhbasepattern-62" />
    <pattern
       y="0"
       x="0"
       height="6"
       width="6"
       patternUnits="userSpaceOnUse"
       id="EMFhbasepattern-3" />
    <pattern
       y="0"
       x="0"
       height="6"
       width="6"
       patternUnits="userSpaceOnUse"
       id="EMFhbasepattern-57" />
    <pattern
       y="0"
       x="0"
       height="6"
       width="6"
       patternUnits="userSpaceOnUse"
       id="EMFhbasepattern-7" />
    <pattern
       y="0"
       x="0"
       height="6"
       width="6"
       patternUnits="userSpaceOnUse"
       id="EMFhbasepattern-626" />
    <pattern
       y="0"
       x="0"
       height="6"
       width="6"
       patternUnits="userSpaceOnUse"
       id="EMFhbasepattern-13" />
    <pattern
       y="0"
       x="0"
       height="6"
       width="6"
       patternUnits="userSpaceOnUse"
       id="EMFhbasepattern-38" />
    <pattern
       y="0"
       x="0"
       height="6"
       width="6"
       patternUnits="userSpaceOnUse"
       id="EMFhbasepattern-20" />
    <pattern
       y="0"
       x="0"
       height="6"
       width="6"
       patternUnits="userSpaceOnUse"
       id="EMFhbasepattern-8" />
  </defs>
  <sodipodi:namedview
     id="base"
     pagecolor="#ffffff"
     bordercolor="#666666"
     borderopacity="1.0"
     inkscape:pageopacity="0.0"
     inkscape:pageshadow="2"
     inkscape:zoom="5.6"
     inkscape:cx="14.832859"
     inkscape:cy="36.605809"
     inkscape:document-units="mm"
     inkscape:current-layer="layer1"
     showgrid="false"
     fit-margin-top="0"
     fit-margin-left="0"
     fit-margin-right="0"
     fit-margin-bottom="0"
     inkscape:window-width="1920"
     inkscape:window-height="1027"
     inkscape:window-x="-8"
     inkscape:window-y="-8"
     inkscape:window-maximized="1" />
  <metadata
     id="metadata5">
    <rdf:RDF>
      <cc:Work
         rdf:about="">
        <dc:format>image/svg+xml</dc:format>
        <dc:type
           rdf:resource="http://purl.org/dc/dcmitype/StillImage" />
        <dc:title></dc:title>
      </cc:Work>
    </rdf:RDF>
  </metadata>
  <g
     inkscape:label="Layer 1"
     inkscape:groupmode="layer"
     id="layer1"
     transform="translate(-18.977482,-167.79074)">
    <path
       id="path1339"
       d="M 30.76568,175.64104 H 19.003284 v -7.8245 H 30.76568 Z"
       style="fill:#fcffff;fill-opacity:1;fill-rule:evenodd;stroke:none;stroke-width:0.26458332"
       inkscape:connector-curvature="0" />
    <path
       id="path1341"
       d="M 30.76568,175.64104 H 19.003284 v -7.8245 H 30.76568 Z"
       style="fill:none;stroke:#231f20;stroke-width:0.05160413px;stroke-linecap:butt;stroke-linejoin:miter;stroke-miterlimit:4;stroke-dasharray:none;stroke-opacity:1"
       inkscape:connector-curvature="0" />
    <path
       id="path1343"
       d="m 19.003284,168.54029 9.56e-4,-0.0346 0.0026,-0.0367 0.0048,-0.0362 0.0065,-0.036 0.0081,-0.035 0.0098,-0.0348 0.01147,-0.0336 0.01314,-0.0331 0.01457,-0.0322 0.01601,-0.0315 0.01768,-0.0305 0.01887,-0.0293 0.02031,-0.0286 0.0215,-0.0274 0.02294,-0.0262 0.02413,-0.0253 0.02509,-0.0238 0.02652,-0.0229 0.02747,-0.0217 0.02843,-0.02 0.02963,-0.0191 0.03034,-0.0174 0.03154,-0.016 0.03225,-0.0148 0.03321,-0.0129 0.03392,-0.0117 0.03464,-0.01 0.03536,-0.008 0.03584,-0.006 0.03655,-0.005 0.03679,-0.003 0.0344,-7.1e-4 h 10.311746 l 0.0344,7.1e-4 0.03703,0.003 0.03631,0.005 0.03584,0.006 0.03536,0.008 0.03464,0.01 0.03393,0.0117 0.03321,0.0129 0.03225,0.0145 0.03154,0.0162 0.03034,0.0174 0.02962,0.0191 0.02843,0.02 0.02747,0.0217 0.02652,0.0229 0.02509,0.0238 0.02413,0.0253 0.02293,0.0262 0.0215,0.0274 0.02031,0.0286 0.01887,0.0293 0.01768,0.0305 0.01601,0.0315 0.01457,0.0322 0.01314,0.0329 0.01147,0.0339 0.0098,0.0348 0.0081,0.035 0.0065,0.036 0.0045,0.0362 0.0029,0.0367 9.56e-4,0.0346 v 6.377 l -9.56e-4,0.0343 -0.0029,0.0369 -0.0045,0.0362 -0.0065,0.036 -0.0081,0.0353 -0.0098,0.0343 -0.01147,0.0339 -0.01314,0.0331 -0.01457,0.0324 -0.01601,0.0312 -0.01768,0.0303 -0.01887,0.0296 -0.02031,0.0286 -0.0215,0.0274 -0.02293,0.0262 -0.02413,0.0253 -0.02509,0.0241 -0.02652,0.0226 -0.02747,0.0215 -0.02843,0.0203 -0.02962,0.0191 -0.03034,0.0174 -0.03154,0.016 -0.03225,0.0148 -0.03321,0.0129 -0.03393,0.0114 -0.03464,0.01 -0.03536,0.008 -0.03584,0.006 -0.03631,0.005 -0.03703,0.003 -0.0344,9.5e-4 H 19.728609 l -0.0344,-9.5e-4 -0.03679,-0.003 -0.03655,-0.005 -0.03584,-0.006 -0.03536,-0.008 -0.03464,-0.01 -0.03392,-0.0114 -0.03321,-0.0129 -0.03225,-0.0148 -0.03154,-0.016 -0.03034,-0.0174 -0.02963,-0.0191 -0.02843,-0.0203 -0.02747,-0.0215 -0.02652,-0.0226 -0.02509,-0.0241 -0.02413,-0.0253 -0.02294,-0.0262 -0.0215,-0.0274 -0.02031,-0.0286 -0.01887,-0.0296 -0.01768,-0.0303 -0.01601,-0.0312 -0.01457,-0.0324 -0.01314,-0.0331 -0.01147,-0.0339 -0.0098,-0.0343 -0.0081,-0.0353 -0.0065,-0.036 -0.0048,-0.0362 -0.0026,-0.0367 -9.56e-4,-0.0346 z m 0.224096,6.37413 v -6.37126 0 c 0,-0.27797 0.225768,-0.50301 0.504096,-0.50301 v 0 h 10.306012 v 0 c 0.278328,0 0.504096,0.22504 0.504096,0.50301 v 0 6.37126 0 c 0,0.27797 -0.225768,0.50301 -0.504096,0.50301 v 0 H 19.731476 v 0 c -0.278328,0 -0.504096,-0.22504 -0.504096,-0.50301 z"
       style="fill:#1d1d1b;fill-opacity:1;fill-rule:evenodd;stroke:none;stroke-width:0.26458332"
       inkscape:connector-curvature="0" />
    <path
       id="path1345"
       d="m 26.773527,175.08225 h -0.03775 -2.69106 -0.02246 -4.42577 v -2.24804 l 1.220581,-0.52517 1.252594,0.52517 v 0.94141 h 0.223857 v -1.07491 l 0.74826,-3.78304 0.768089,3.78304 v 1.07491 h 0.212389 v -0.43935 l 0.391331,-0.66655 h 0.45942 v -0.12491 h 0.809899 v 0.13326 h 0.442457 l 0.384164,0.66654 v 0.42506 h 0.226246 v -0.8842 0 l 0.751604,-0.55832 0.785052,0.55832 v 0.88324 h 0.226963 v -1.26658 l 0.882048,-0.42481 0.811571,0.41647 v 2.58846 z"
       style="fill:#1d1d1b;fill-opacity:1;fill-rule:evenodd;stroke:none;stroke-width:0.26458332"
       inkscape:connector-curvature="0" />
    <path
       id="path1347"
       d="m 19.22738,174.77187 10.581712,-6.73172 h 0.228396 v 0 c 0.278328,0 0.504096,0.22504 0.504096,0.50301 v 0 0.0944 l -10.661985,6.77987 h -0.148123 v 0 c -0.278328,0 -0.504096,-0.22504 -0.504096,-0.50301 v 0 0 z"
       style="fill:#e02726;fill-opacity:1;fill-rule:evenodd;stroke:none;stroke-width:0.26458332"
       inkscape:connector-curvature="0" />
  </g>
</svg>
