<?xml version="1.0" encoding="UTF-8" standalone="no"?>
<!-- Created with Inkscape (http://www.inkscape.org/) -->

<svg
   xmlns:dc="http://purl.org/dc/elements/1.1/"
   xmlns:cc="http://creativecommons.org/ns#"
   xmlns:rdf="http://www.w3.org/1999/02/22-rdf-syntax-ns#"
   xmlns:svg="http://www.w3.org/2000/svg"
   xmlns="http://www.w3.org/2000/svg"
   xmlns:sodipodi="http://sodipodi.sourceforge.net/DTD/sodipodi-0.dtd"
   xmlns:inkscape="http://www.inkscape.org/namespaces/inkscape"
   width="11.814mm"
   height="10.202664mm"
   viewBox="0 0 11.814 10.202664"
   version="1.1"
   id="svg8"
   inkscape:version="0.92.2 (5c3e80d, 2017-08-06)">
  <defs
     id="defs2">
    <pattern
       y="0"
       x="0"
       height="6"
       width="6"
       patternUnits="userSpaceOnUse"
       id="EMFhbasepattern" />
    <pattern
       y="0"
       x="0"
       height="6"
       width="6"
       patternUnits="userSpaceOnUse"
       id="EMFhbasepattern-0" />
    <pattern
       y="0"
       x="0"
       height="6"
       width="6"
       patternUnits="userSpaceOnUse"
       id="EMFhbasepattern-2" />
    <pattern
       y="0"
       x="0"
       height="6"
       width="6"
       patternUnits="userSpaceOnUse"
       id="EMFhbasepattern-6" />
    <pattern
       y="0"
       x="0"
       height="6"
       width="6"
       patternUnits="userSpaceOnUse"
       id="EMFhbasepattern-03" />
    <pattern
       y="0"
       x="0"
       height="6"
       width="6"
       patternUnits="userSpaceOnUse"
       id="EMFhbasepattern-5" />
    <pattern
       y="0"
       x="0"
       height="6"
       width="6"
       patternUnits="userSpaceOnUse"
       id="EMFhbasepattern-69" />
    <pattern
       y="0"
       x="0"
       height="6"
       width="6"
       patternUnits="userSpaceOnUse"
       id="EMFhbasepattern-54" />
    <pattern
       y="0"
       x="0"
       height="6"
       width="6"
       patternUnits="userSpaceOnUse"
       id="EMFhbasepattern-1" />
    <pattern
       y="0"
       x="0"
       height="6"
       width="6"
       patternUnits="userSpaceOnUse"
       id="EMFhbasepattern-05" />
    <pattern
       y="0"
       x="0"
       height="6"
       width="6"
       patternUnits="userSpaceOnUse"
       id="EMFhbasepattern-58" />
    <pattern
       y="0"
       x="0"
       height="6"
       width="6"
       patternUnits="userSpaceOnUse"
       id="EMFhbasepattern-23" />
    <pattern
       y="0"
       x="0"
       height="6"
       width="6"
       patternUnits="userSpaceOnUse"
       id="EMFhbasepattern-62" />
    <pattern
       y="0"
       x="0"
       height="6"
       width="6"
       patternUnits="userSpaceOnUse"
       id="EMFhbasepattern-3" />
    <pattern
       y="0"
       x="0"
       height="6"
       width="6"
       patternUnits="userSpaceOnUse"
       id="EMFhbasepattern-57" />
    <pattern
       y="0"
       x="0"
       height="6"
       width="6"
       patternUnits="userSpaceOnUse"
       id="EMFhbasepattern-7" />
    <pattern
       y="0"
       x="0"
       height="6"
       width="6"
       patternUnits="userSpaceOnUse"
       id="EMFhbasepattern-626" />
    <pattern
       y="0"
       x="0"
       height="6"
       width="6"
       patternUnits="userSpaceOnUse"
       id="EMFhbasepattern-13" />
    <pattern
       y="0"
       x="0"
       height="6"
       width="6"
       patternUnits="userSpaceOnUse"
       id="EMFhbasepattern-38" />
    <pattern
       y="0"
       x="0"
       height="6"
       width="6"
       patternUnits="userSpaceOnUse"
       id="EMFhbasepattern-20" />
    <pattern
       y="0"
       x="0"
       height="6"
       width="6"
       patternUnits="userSpaceOnUse"
       id="EMFhbasepattern-8" />
    <pattern
       y="0"
       x="0"
       height="6"
       width="6"
       patternUnits="userSpaceOnUse"
       id="EMFhbasepattern-80" />
  </defs>
  <sodipodi:namedview
     id="base"
     pagecolor="#ffffff"
     bordercolor="#666666"
     borderopacity="1.0"
     inkscape:pageopacity="0.0"
     inkscape:pageshadow="2"
     inkscape:zoom="5.6"
     inkscape:cx="15.551385"
     inkscape:cy="50.70786"
     inkscape:document-units="mm"
     inkscape:current-layer="layer1"
     showgrid="false"
     fit-margin-top="0"
     fit-margin-left="0"
     fit-margin-right="0"
     fit-margin-bottom="0"
     inkscape:window-width="1920"
     inkscape:window-height="1027"
     inkscape:window-x="-8"
     inkscape:window-y="-8"
     inkscape:window-maximized="1" />
  <metadata
     id="metadata5">
    <rdf:RDF>
      <cc:Work
         rdf:about="">
        <dc:format>image/svg+xml</dc:format>
        <dc:type
           rdf:resource="http://purl.org/dc/dcmitype/StillImage" />
        <dc:title></dc:title>
      </cc:Work>
    </rdf:RDF>
  </metadata>
  <g
     inkscape:label="Layer 1"
     inkscape:groupmode="layer"
     id="layer1"
     transform="translate(-18.787372,-169.19535)">
    <path
       id="path1364"
       d="M 30.57557,179.37221 H 18.813174 v -10.15082 l 11.762396,-2.4e-4 z"
       style="fill:#fcffff;fill-opacity:1;fill-rule:evenodd;stroke:none;stroke-width:0.26458332"
       inkscape:connector-curvature="0" />
    <path
       id="path1366"
       d="M 30.57557,179.37221 H 18.813174 v -10.15082 l 11.762396,-2.4e-4 z"
       style="fill:none;stroke:#231f20;stroke-width:0.05160413px;stroke-linecap:butt;stroke-linejoin:miter;stroke-miterlimit:4;stroke-dasharray:none;stroke-opacity:1"
       inkscape:connector-curvature="0" />
    <path
       id="path1368"
       d="m 18.813174,169.95141 7.17e-4,-0.0349 0.0029,-0.037 0.0048,-0.0368 0.0065,-0.0361 0.0081,-0.0356 0.0098,-0.0349 0.01147,-0.0341 0.01314,-0.0332 0.01433,-0.0327 0.01625,-0.0315 0.01744,-0.0308 0.01911,-0.0298 0.02031,-0.0286 0.0215,-0.0277 0.0227,-0.0265 0.02413,-0.0255 0.02532,-0.0243 0.02628,-0.0228 0.02747,-0.0219 0.02867,-0.0204 0.02939,-0.019 0.03058,-0.0175 0.03154,-0.0163 0.03225,-0.0147 0.03321,-0.013 0.03392,-0.0118 0.03464,-0.01 0.03512,-0.008 0.03608,-0.006 0.03631,-0.005 0.03703,-0.003 0.0344,-9.6e-4 h 10.311746 l 0.0344,9.6e-4 0.03679,0.003 0.03655,0.005 0.03584,0.006 0.03536,0.008 0.03464,0.01 0.03393,0.0118 0.03297,0.013 0.03249,0.0147 0.0313,0.0163 0.03058,0.0175 0.02963,0.019 0.02843,0.0204 0.02747,0.0219 0.02652,0.0228 0.02509,0.0243 0.02413,0.0255 0.0227,0.0265 0.02174,0.0277 0.02031,0.0286 0.01887,0.0298 0.01744,0.0308 0.01625,0.0315 0.01457,0.0327 0.01314,0.0332 0.01147,0.0341 0.0098,0.0349 0.0081,0.0356 0.0065,0.0361 0.0045,0.0368 0.0029,0.037 9.56e-4,0.0349 v 8.69078 l -9.56e-4,0.0346 -0.0029,0.0373 -0.0045,0.0366 -0.0065,0.0363 -0.0081,0.0356 -0.0098,0.0346 -0.01147,0.0341 -0.01314,0.0334 -0.01457,0.0327 -0.01625,0.0315 -0.01744,0.0305 -0.01887,0.0298 -0.02031,0.0288 -0.02174,0.0277 -0.0227,0.0265 -0.02413,0.0255 -0.02509,0.0243 -0.02652,0.0228 -0.02747,0.0216 -0.02843,0.0204 -0.02963,0.0192 -0.03058,0.0175 -0.0313,0.0161 -0.03249,0.0149 -0.03297,0.013 -0.03393,0.0115 -0.03464,0.01 -0.03536,0.008 -0.03584,0.006 -0.03655,0.005 -0.03679,0.003 -0.0344,9.6e-4 H 19.538499 l -0.0344,-9.6e-4 -0.03703,-0.003 -0.03631,-0.005 -0.03608,-0.006 -0.03512,-0.008 -0.03464,-0.01 -0.03392,-0.0115 -0.03321,-0.013 -0.03225,-0.0149 -0.03154,-0.0161 -0.03058,-0.0175 -0.02939,-0.0192 -0.02867,-0.0204 -0.02747,-0.0216 -0.02628,-0.0228 -0.02532,-0.0243 -0.02413,-0.0255 -0.0227,-0.0265 -0.0215,-0.0277 -0.02031,-0.0288 -0.01911,-0.0298 -0.01744,-0.0305 -0.01625,-0.0315 -0.01433,-0.0327 -0.01314,-0.0334 -0.01147,-0.0341 -0.0098,-0.0346 -0.0081,-0.0356 -0.0065,-0.0363 -0.0048,-0.0366 -0.0029,-0.037 -7.17e-4,-0.0349 z m 0.224096,8.68789 v -8.68524 0 c 0,-0.28013 0.225529,-0.50736 0.504096,-0.50736 v 0 h 10.306012 v 0 c 0.278328,0 0.504096,0.22723 0.504096,0.50736 v 0 8.68524 0 c 0,0.28037 -0.225768,0.50736 -0.504096,0.50736 v 0 H 19.541366 v 0 c -0.278567,0 -0.504096,-0.22699 -0.504096,-0.50736 z"
       style="fill:#1d1d1b;fill-opacity:1;fill-rule:evenodd;stroke:none;stroke-width:0.26458332"
       inkscape:connector-curvature="0" />
    <path
       id="path1370"
       d="m 26.583179,178.80955 h -0.03751 -2.691298 -0.02222 -4.426009 v -2.2675 l 1.22082,-0.52948 1.252355,0.52948 v 0.9498 h 0.224096 v -1.08421 l 0.748021,-3.81603 0.768328,3.81603 v 1.08421 h 0.212389 v -0.44316 l 0.391331,-0.67255 h 0.459181 v -0.126 h 0.810138 v 0.13441 h 0.442457 l 0.384164,0.67232 v 0.42873 h 0.226246 v -0.89185 0 l 0.751604,-0.56291 0.785052,0.56291 v 0.89089 h 0.226724 v -1.27754 l 0.882287,-0.42849 0.811332,0.42031 v 2.61063 z"
       style="fill:#1d1d1b;fill-opacity:1;fill-rule:evenodd;stroke:none;stroke-width:0.26458332"
       inkscape:connector-curvature="0" />
    <path
       id="path1372"
       d="m 23.325668,170.37149 h 0.184676 v 0.71367 c 0,0.11518 -0.01147,0.20102 -0.0344,0.25753 -0.02294,0.0565 -0.0571,0.0998 -0.10273,0.12984 -0.04563,0.0303 -0.101775,0.0454 -0.16843,0.0454 -0.08816,0 -0.157202,-0.0303 -0.207134,-0.0914 -0.04993,-0.0608 -0.07526,-0.15269 -0.07573,-0.27557 l 0.175358,-0.0252 c 0.0022,0.0659 0.01027,0.11277 0.02532,0.14018 0.01959,0.0378 0.04969,0.0568 0.08959,0.0568 0.03894,0 0.06761,-0.0137 0.08577,-0.0411 0.01863,-0.0274 0.02771,-0.0883 0.02771,-0.1825 z"
       style="fill:#231f20;fill-opacity:1;fill-rule:evenodd;stroke:none;stroke-width:0.26458332"
       inkscape:connector-curvature="0" />
    <path
       id="path1374"
       d="m 23.955668,170.37149 h 0.184676 v 0.61003 c 0,0.0947 0.0024,0.1563 0.0069,0.18539 0.0081,0.0495 0.02771,0.0878 0.05877,0.11518 0.03106,0.0269 0.07191,0.0406 0.122799,0.0406 0.043,0 0.07788,-0.01 0.105358,-0.0289 0.02724,-0.0192 0.04563,-0.0457 0.05567,-0.0798 0.01003,-0.0341 0.01505,-0.10724 0.01505,-0.21929 v -0.62326 h 0.184437 v 0.59224 c 0,0.151 -0.0079,0.26017 -0.02389,0.32774 -0.01625,0.0676 -0.05232,0.12215 -0.108703,0.16375 -0.05638,0.0418 -0.130683,0.0628 -0.222901,0.0628 -0.09604,0 -0.170819,-0.0173 -0.224813,-0.0519 -0.05375,-0.0346 -0.09294,-0.0832 -0.117065,-0.14596 -0.02437,-0.063 -0.03631,-0.17865 -0.03631,-0.34721 z m 0.156485,-0.11807 v -0.18587 h 0.151707 v 0.18587 z m 0.269011,0 v -0.18587 h 0.151945 v 0.18587 z"
       style="fill:#231f20;fill-opacity:1;fill-rule:evenodd;stroke:none;stroke-width:0.26458332"
       inkscape:connector-curvature="0" />
    <path
       id="path1376"
       d="m 25.133007,171.49922 v -1.12773 h 0.390376 c 0.09986,0 0.171058,0.0103 0.214061,0.0305 0.04276,0.0202 0.07788,0.0553 0.105359,0.10531 0.02747,0.05 0.04133,0.10989 0.04133,0.17938 0,0.0882 -0.02126,0.15943 -0.06307,0.21329 -0.04205,0.0536 -0.101775,0.0875 -0.179181,0.10147 0.03966,0.0286 0.07263,0.0601 0.09843,0.0943 0.02628,0.0341 0.06164,0.0952 0.106792,0.18347 l 0.112048,0.22001 h -0.221946 l -0.134505,-0.24526 c -0.04826,-0.0887 -0.08099,-0.14427 -0.09867,-0.16664 -0.0172,-0.0224 -0.0356,-0.0378 -0.05495,-0.0462 -0.01935,-0.009 -0.05041,-0.013 -0.09317,-0.013 h -0.03823 v 0.47105 z m 0.184676,-0.65043 h 0.137611 c 0.08433,0 0.13785,-0.004 0.160785,-0.0113 0.02294,-0.007 0.04133,-0.0224 0.05567,-0.045 0.01433,-0.0226 0.0215,-0.0526 0.0215,-0.0904 0,-0.0358 -0.0072,-0.0647 -0.0215,-0.0866 -0.01434,-0.0216 -0.03369,-0.0368 -0.05806,-0.045 -0.0172,-0.006 -0.06761,-0.008 -0.150751,-0.008 h -0.145256 z"
       style="fill:#231f20;fill-opacity:1;fill-rule:evenodd;stroke:none;stroke-width:0.26458332"
       inkscape:connector-curvature="0" />
    <path
       id="path1378"
       d="m 26.302462,171.49922 v -1.12773 h 0.184675 v 1.12773 z"
       style="fill:#231f20;fill-opacity:1;fill-rule:evenodd;stroke:none;stroke-width:0.26458332"
       inkscape:connector-curvature="0" />
    <path
       id="path1380"
       d="m 19.03727,178.58568 10.630689,-9.13995 h 0.179419 v 0 c 0.278328,0 0.504096,0.22723 0.504096,0.50737 v 0 0.0911 l -10.589119,9.1034 h -0.220989 v 0 c -0.278567,0 -0.504096,-0.22699 -0.504096,-0.50712 v 0 0 z"
       style="fill:#e02726;fill-opacity:1;fill-rule:evenodd;stroke:none;stroke-width:0.26458332"
       inkscape:connector-curvature="0" />
  </g>
</svg>
