<?xml version="1.0" encoding="UTF-8" standalone="no"?>
<!-- Created with Inkscape (http://www.inkscape.org/) -->

<svg
   xmlns:dc="http://purl.org/dc/elements/1.1/"
   xmlns:cc="http://creativecommons.org/ns#"
   xmlns:rdf="http://www.w3.org/1999/02/22-rdf-syntax-ns#"
   xmlns:svg="http://www.w3.org/2000/svg"
   xmlns="http://www.w3.org/2000/svg"
   xmlns:sodipodi="http://sodipodi.sourceforge.net/DTD/sodipodi-0.dtd"
   xmlns:inkscape="http://www.inkscape.org/namespaces/inkscape"
   width="10.203001mm"
   height="6.8021369mm"
   viewBox="0 0 10.203001 6.8021366"
   version="1.1"
   id="svg8"
   inkscape:version="0.92.2 (5c3e80d, 2017-08-06)">
  <defs
     id="defs2">
    <pattern
       y="0"
       x="0"
       height="6"
       width="6"
       patternUnits="userSpaceOnUse"
       id="EMFhbasepattern" />
    <pattern
       y="0"
       x="0"
       height="6"
       width="6"
       patternUnits="userSpaceOnUse"
       id="EMFhbasepattern-0" />
    <pattern
       y="0"
       x="0"
       height="6"
       width="6"
       patternUnits="userSpaceOnUse"
       id="EMFhbasepattern-2" />
    <pattern
       y="0"
       x="0"
       height="6"
       width="6"
       patternUnits="userSpaceOnUse"
       id="EMFhbasepattern-6" />
    <pattern
       y="0"
       x="0"
       height="6"
       width="6"
       patternUnits="userSpaceOnUse"
       id="EMFhbasepattern-03" />
    <pattern
       y="0"
       x="0"
       height="6"
       width="6"
       patternUnits="userSpaceOnUse"
       id="EMFhbasepattern-5" />
    <pattern
       y="0"
       x="0"
       height="6"
       width="6"
       patternUnits="userSpaceOnUse"
       id="EMFhbasepattern-69" />
    <pattern
       y="0"
       x="0"
       height="6"
       width="6"
       patternUnits="userSpaceOnUse"
       id="EMFhbasepattern-54" />
    <pattern
       y="0"
       x="0"
       height="6"
       width="6"
       patternUnits="userSpaceOnUse"
       id="EMFhbasepattern-1" />
    <pattern
       y="0"
       x="0"
       height="6"
       width="6"
       patternUnits="userSpaceOnUse"
       id="EMFhbasepattern-05" />
    <pattern
       y="0"
       x="0"
       height="6"
       width="6"
       patternUnits="userSpaceOnUse"
       id="EMFhbasepattern-58" />
    <pattern
       y="0"
       x="0"
       height="6"
       width="6"
       patternUnits="userSpaceOnUse"
       id="EMFhbasepattern-23" />
    <pattern
       y="0"
       x="0"
       height="6"
       width="6"
       patternUnits="userSpaceOnUse"
       id="EMFhbasepattern-62" />
    <pattern
       y="0"
       x="0"
       height="6"
       width="6"
       patternUnits="userSpaceOnUse"
       id="EMFhbasepattern-3" />
    <pattern
       y="0"
       x="0"
       height="6"
       width="6"
       patternUnits="userSpaceOnUse"
       id="EMFhbasepattern-57" />
    <pattern
       y="0"
       x="0"
       height="6"
       width="6"
       patternUnits="userSpaceOnUse"
       id="EMFhbasepattern-7" />
    <pattern
       y="0"
       x="0"
       height="6"
       width="6"
       patternUnits="userSpaceOnUse"
       id="EMFhbasepattern-626" />
    <pattern
       y="0"
       x="0"
       height="6"
       width="6"
       patternUnits="userSpaceOnUse"
       id="EMFhbasepattern-13" />
    <pattern
       y="0"
       x="0"
       height="6"
       width="6"
       patternUnits="userSpaceOnUse"
       id="EMFhbasepattern-38" />
    <pattern
       y="0"
       x="0"
       height="6"
       width="6"
       patternUnits="userSpaceOnUse"
       id="EMFhbasepattern-20" />
    <pattern
       y="0"
       x="0"
       height="6"
       width="6"
       patternUnits="userSpaceOnUse"
       id="EMFhbasepattern-8" />
    <pattern
       y="0"
       x="0"
       height="6"
       width="6"
       patternUnits="userSpaceOnUse"
       id="EMFhbasepattern-80" />
    <pattern
       y="0"
       x="0"
       height="6"
       width="6"
       patternUnits="userSpaceOnUse"
       id="EMFhbasepattern-66" />
    <pattern
       y="0"
       x="0"
       height="6"
       width="6"
       patternUnits="userSpaceOnUse"
       id="EMFhbasepattern-9" />
  </defs>
  <sodipodi:namedview
     id="base"
     pagecolor="#ffffff"
     bordercolor="#666666"
     borderopacity="1.0"
     inkscape:pageopacity="0.0"
     inkscape:pageshadow="2"
     inkscape:zoom="5.6"
     inkscape:cx="-1.9530687"
     inkscape:cy="42.133715"
     inkscape:document-units="mm"
     inkscape:current-layer="layer1"
     showgrid="false"
     fit-margin-top="0"
     fit-margin-left="0"
     fit-margin-right="0"
     fit-margin-bottom="0"
     inkscape:window-width="1920"
     inkscape:window-height="1027"
     inkscape:window-x="-8"
     inkscape:window-y="-8"
     inkscape:window-maximized="1" />
  <metadata
     id="metadata5">
    <rdf:RDF>
      <cc:Work
         rdf:about="">
        <dc:format>image/svg+xml</dc:format>
        <dc:type
           rdf:resource="http://purl.org/dc/dcmitype/StillImage" />
        <dc:title></dc:title>
      </cc:Work>
    </rdf:RDF>
  </metadata>
  <g
     inkscape:label="Layer 1"
     inkscape:groupmode="layer"
     id="layer1"
     transform="translate(-23.418759,-170.3273)">
    <path
       id="path1414"
       d="m 23.444737,177.10346 v -6.75018 h 10.151044 v 6.75018 z"
       style="fill:#2b9fcf;fill-opacity:1;fill-rule:evenodd;stroke:none;stroke-width:0.26458332"
       inkscape:connector-curvature="0" />
    <path
       id="path1416"
       d="m 23.444737,177.10346 v -6.75018 h 10.151044 v 6.75018 z"
       style="fill:none;stroke:#000000;stroke-width:0.05195672px;stroke-linecap:round;stroke-linejoin:miter;stroke-miterlimit:4;stroke-dasharray:none;stroke-opacity:1"
       inkscape:connector-curvature="0" />
    <path
       id="path1418"
       d="m 23.443294,171.08459 9.62e-4,-0.0345 0.0026,-0.037 0.0048,-0.0367 0.0063,-0.036 0.0084,-0.0355 0.0099,-0.0348 0.01155,-0.0341 0.01299,-0.0331 0.01491,-0.0326 0.01612,-0.0314 0.01756,-0.0307 0.01924,-0.0295 0.02045,-0.0288 0.02165,-0.0276 0.02309,-0.0264 0.02405,-0.0254 0.0255,-0.0242 0.0267,-0.0228 0.02766,-0.0218 0.02862,-0.0204 0.02983,-0.0189 0.03055,-0.0175 0.03175,-0.0163 0.03247,-0.0146 0.03344,-0.0132 0.03416,-0.0115 0.03488,-0.01 0.03536,-0.008 0.03632,-0.006 0.03656,-0.005 0.03728,-0.003 0.03464,-7.2e-4 h 8.690241 l 0.03488,7.2e-4 0.03704,0.003 0.0368,0.005 0.03608,0.006 0.03536,0.008 0.03488,0.01 0.03416,0.0115 0.03343,0.0132 0.03247,0.0146 0.03175,0.0163 0.03079,0.0175 0.02959,0.0189 0.02886,0.0204 0.02766,0.0218 0.02646,0.0228 0.0255,0.0242 0.02405,0.0254 0.02309,0.0264 0.02189,0.0276 0.02021,0.0288 0.01924,0.0295 0.01756,0.0307 0.01636,0.0317 0.01467,0.0324 0.01299,0.0331 0.01179,0.0341 0.0099,0.0348 0.0082,0.0355 0.0065,0.036 0.0046,0.0367 0.0029,0.037 7.22e-4,0.0345 v 5.29332 l -7.22e-4,0.0345 -0.0029,0.0372 -0.0046,0.0365 -0.0065,0.0362 -0.0082,0.0355 -0.0099,0.0346 -0.01179,0.0341 -0.01299,0.0334 -0.01467,0.0326 -0.01636,0.0314 -0.01756,0.0305 -0.01924,0.0298 -0.02021,0.0288 -0.02189,0.0276 -0.02285,0.0264 -0.02429,0.0254 -0.0255,0.0242 -0.02646,0.0228 -0.02766,0.0216 -0.02886,0.0204 -0.02959,0.0192 -0.03079,0.0175 -0.03175,0.0161 -0.03247,0.0149 -0.03343,0.013 -0.03416,0.0115 -0.03488,0.01 -0.03536,0.008 -0.03608,0.006 -0.0368,0.005 -0.03704,0.003 -0.03488,9.6e-4 h -8.690241 l -0.03464,-9.6e-4 -0.03728,-0.003 -0.03656,-0.005 -0.03632,-0.006 -0.03536,-0.008 -0.03488,-0.01 -0.03416,-0.0115 -0.03344,-0.013 -0.03247,-0.0149 -0.03175,-0.0161 -0.03055,-0.0175 -0.02983,-0.0192 -0.02862,-0.0204 -0.02766,-0.0216 -0.0267,-0.0228 -0.0255,-0.0242 -0.02405,-0.0254 -0.02309,-0.0264 -0.02165,-0.0276 -0.02045,-0.0288 -0.01924,-0.0298 -0.01756,-0.0305 -0.01612,-0.0314 -0.01491,-0.0326 -0.01299,-0.0334 -0.01155,-0.0341 -0.0099,-0.0346 -0.0084,-0.0355 -0.0063,-0.0362 -0.0048,-0.0365 -0.0026,-0.0369 -9.62e-4,-0.0348 z m 0.225627,5.29044 v -5.28756 0 c 0,-0.27952 0.22707,-0.50625 0.50754,-0.50625 v 0 h 8.684709 v 0 c 0.28023,0 0.5073,0.22673 0.5073,0.50625 v 0 5.28756 0 c 0,0.27976 -0.22707,0.50625 -0.5073,0.50625 v 0 h -8.684709 v 0 c -0.28047,0 -0.50754,-0.22649 -0.50754,-0.50625 z"
       style="fill:#fcffff;fill-opacity:1;fill-rule:evenodd;stroke:none;stroke-width:0.26458332"
       inkscape:connector-curvature="0" />
    <path
       id="path1420"
       d="m 32.911684,173.61896 c -9.62e-4,0 -2.371968,0 -2.372931,0 -0.527745,-10e-4 -0.955185,-0.42803 -0.956147,-0.95468 0,-4.8e-4 0,-0.44171 0,-0.44219 v 0 h 0.225626 v 0 c 0,4.8e-4 0,0.44171 0,0.44219 9.62e-4,0.40188 0.327135,0.72795 0.7298,0.72963 0.0012,0 2.372449,0 2.373652,0 v 0 z m -0.746397,-1.18861 h -0.450291 v 0.73682 h -0.741105 v -1.39327 l 0.969378,-0.82295 0.97058,0.82295 v 1.39327 H 32.165287 Z M 31.801109,172.01 v -0.41628 h 0.282154 V 172.01 Z m -2.943252,-0.29392 c 0.07577,0 0.137108,0.0593 0.137108,0.1322 0,0.0732 -0.06134,0.1322 -0.137108,0.1322 -0.07577,0 -0.137348,-0.059 -0.137348,-0.1322 0,-0.0729 0.06158,-0.1322 0.137348,-0.1322 z m -1.307817,0.0612 h 0.914293 v 0 c 0.01323,0 0.02381,0.01 0.02381,0.0218 v 0 0.15331 0 c 0,0.012 -0.01058,0.0218 -0.02381,0.0218 v 0 H 27.55004 v 0 c -0.01323,0 -0.02381,-0.01 -0.02381,-0.0218 v 0 -0.15331 0 c 0,-0.012 0.01058,-0.0218 0.02381,-0.0218 z m -0.393765,-0.065 c 0.07577,0 0.137108,0.0593 0.137108,0.1322 0,0.0729 -0.06134,0.13221 -0.137108,0.13221 -0.07577,0 -0.137108,-0.0593 -0.137108,-0.13221 0,-0.0729 0.06134,-0.1322 0.137108,-0.1322 z m 0.05292,-0.17443 c 0.04835,-0.15787 0.155389,-0.411 0.178,-0.4585 0.08732,-0.0386 1.159885,-0.0413 1.234453,0.002 0.07842,0.143 0.168859,0.37021 0.198205,0.45538 -0.179203,-0.007 -0.544824,-0.0341 -0.79691,-0.0288 -0.231881,-0.005 -0.593413,0.0156 -0.813748,0.03 z m 0.116181,-0.53864 c 0.10704,-0.0504 1.324415,-0.0434 1.362902,9.6e-4 0,0 0.212396,0.44507 0.242464,0.53337 0.104395,0.0449 0.129411,0.16387 0.149135,0.31478 0,0.13676 -0.05556,0.26608 -0.145286,0.33087 0.0029,0.003 -7.22e-4,0.29079 -7.22e-4,0.28047 0,0.10341 -0.219854,0.10341 -0.219854,0.0144 0,-0.0893 0,-0.25385 0,-0.25385 0,0 -1.392969,0 -1.392969,0 0,0 0.0012,0.15908 0.0012,0.23106 0,0.1118 -0.225386,0.12188 -0.225386,-0.005 0,-0.14396 -0.0031,-0.13724 -0.0031,-0.2884 -0.06711,-0.0288 -0.156591,-0.17971 -0.156591,-0.31647 0,-0.13675 0.08828,-0.2704 0.179443,-0.30351 0.02983,-0.0422 0.157554,-0.49521 0.208789,-0.5384 z m 2.134795,4.04425 c 0.04715,-0.012 0.111852,-0.20226 0.102952,-0.24496 -0.0087,-0.0425 -0.202535,-0.12453 -0.202535,-0.12453 0,0 0.06495,0.37813 0.09958,0.36949 z m -2.823222,0.76946 c 0.171265,0 0.310297,0.13844 0.310297,0.30927 0,0.17107 -0.139032,0.30951 -0.310297,0.30951 -0.171264,0 -0.310056,-0.13844 -0.310056,-0.30951 0,-0.17083 0.138792,-0.30927 0.310056,-0.30927 z m -0.943639,-2.84917 c -0.129652,-0.0516 -0.211195,-0.0127 -0.259062,0.0408 -0.04811,0.0763 -0.08659,0.21786 -0.02646,0.37357 0.03223,0.0835 -0.223221,0.0741 -0.280951,0.10269 -0.09958,0.0499 -0.588602,0.45107 -0.599667,0.53625 -0.01131,0.0854 -0.07312,0.16291 -0.08323,0.22625 -0.0101,0.0633 0.0063,0.0828 -0.02478,0.16171 -0.07336,0.0511 -0.06928,0.23201 -0.01443,0.23177 0.02454,-2.4e-4 0.05749,0.003 0.132056,-0.0662 0.04017,-0.10989 0.05436,-0.15451 0.172949,-0.41843 -0.0087,-0.077 0.205662,-0.15332 0.281432,-0.2133 0.03031,-0.024 0.08611,-0.0607 0.09886,-0.0564 4.81e-4,0.0322 -0.05316,0.24713 -0.08178,0.32631 -0.02862,0.0789 -0.131817,0.32462 -0.158757,0.39708 -0.0267,0.0722 0.0344,0.0926 0.02141,0.17971 -0.03464,0.0912 -0.122675,0.5408 -0.115219,0.75122 -0.0979,0.15355 -0.267962,0.33998 -0.344454,0.50433 -0.127967,0.25025 0.06302,0.1893 0.189787,0.34286 0.104635,0.0439 0.222259,0.0262 0.264835,-0.0173 0.0522,-0.0926 -0.212397,-0.11972 -0.194597,-0.17802 0.0091,-0.03 0.0012,-0.0525 0.03247,-0.0797 0.03103,-0.0274 0.136626,-0.23369 0.243426,-0.34838 0.10656,-0.10557 0.07962,-0.11324 0.127727,-0.24065 0.06711,-0.15571 0.06711,-0.22457 0.0967,-0.31454 0.04835,-0.14756 0.05316,-0.18403 0.08924,-0.14924 0.03608,0.0345 0.216246,0.27448 0.259543,0.35797 0.0433,0.0833 -0.0034,0.16556 -0.01347,0.25529 -0.01588,0.13772 -0.07433,0.18211 -0.07216,0.29775 0.0019,0.10605 -0.04594,0.23105 0.08972,0.20418 0.143843,0.0612 0.2759,0.0662 0.36947,0.0727 0.1424,0.01 0.118587,-0.0921 -0.01275,-0.12668 -0.171746,-0.0369 -0.221057,-0.10413 -0.114979,-0.40116 0.01083,-0.084 0.116422,-0.27256 0.07625,-0.38605 -0.06591,-0.13268 -0.270127,-0.43883 -0.34253,-0.51873 -0.158035,-0.17467 -0.125081,-0.15115 -0.07288,-0.34646 0.01491,-0.0557 0.119789,-0.31023 0.119549,-0.32534 0.02165,0.0276 0.142881,0.1478 0.262189,0.24713 0.0522,0.0434 0.290092,0.13484 0.33844,0.22649 0.170784,0.0725 0.216005,-0.0972 0.09718,-0.17659 -0.168859,-0.0506 -0.313905,-0.30447 -0.422869,-0.39348 -0.114498,-0.14156 -0.05292,-0.0442 -0.150338,-0.25409 0.01203,-0.0648 -0.0279,-0.16171 -0.07673,-0.22481 -0.04907,-0.0629 0.0031,-0.0907 0.0522,-0.0725 0,0 0.06639,0.0233 0.142881,-0.0465 0.03608,-0.0732 0.07866,-0.23009 0.06206,-0.33014 -0.02502,-0.0888 -0.05749,-0.11757 -0.158275,-0.1514 z m 3.817856,2.2599 0.03247,-0.0439 v 0 c 0.04498,-0.0264 0.225146,-0.35653 0.200129,-0.44483 -0.05099,-0.037 -0.486372,-0.4014 -0.586918,-0.36565 -0.02309,0.008 -0.02886,-0.0158 -0.007,-0.072 0.02165,-0.0559 0.04161,-0.11708 0.05003,-0.15259 0.02959,-0.12285 -0.06711,-0.23513 -0.217689,-0.25673 -0.167176,0.0223 -0.170062,0.0681 -0.192914,0.1406 -0.04065,0.12836 2.41e-4,0.28312 0.02598,0.32487 0.0457,0.0281 0.05172,0.0285 0.112092,0.0204 0.06013,-0.0218 0.07072,0.0633 0.01708,0.0936 -0.05364,0.0302 -0.0878,0.0405 -0.104154,0.0914 -0.01636,0.0509 -0.108965,0.38556 -0.108965,0.38556 0,0 -0.257859,0.0739 -0.3738,0.0446 -0.03367,-0.008 -0.03295,-0.006 -0.100786,-0.0329 -0.0368,-0.0146 -0.0902,-0.0216 -0.108484,0.0343 -0.02213,0.0677 0.0445,0.11588 0.07048,0.1226 0.01419,0.004 0.07264,-9.6e-4 0.113054,0.004 0.197002,0.006 0.321602,0.0305 0.406032,0.0199 0.0979,0.007 0.22274,-0.27208 0.22274,-0.27208 0,0 0.151541,0.26488 0.144084,0.30927 -0.0072,0.0446 -0.392562,0.38268 -0.424794,0.46546 -0.03199,0.0825 0.06928,0.53864 0.06928,0.53864 v 0 l 0.0026,0.0161 v 0 c 0,0 0.02622,0.0801 -0.07817,0.0876 -0.104154,0.007 -0.215284,0.0607 -0.215284,0.0907 0,0.03 0.05845,0.0468 0.146729,0.0468 0.08828,0 0.162125,-0.017 0.162125,-0.017 v 0 l 0.02213,0.0161 v 0 c 0,0 0.152984,0.0149 0.171265,-0.013 0.04402,-0.0662 0.01491,-0.33878 -0.0089,-0.6646 -0.0046,-0.0645 0.252808,-0.20466 0.252808,-0.20466 0,0 0.131094,0.37141 0.20903,0.42395 0.07817,0.0528 0.602553,-0.0748 0.602553,-0.0748 0,0 0.05099,-0.0202 0.05893,-0.0132 0.08323,0.0725 0.09044,0.2085 0.09044,0.2085 0,0 0.111129,0.12932 0.117624,-0.131 -0.03921,-0.20082 -0.08515,-0.16244 -0.06639,-0.20322 0.01948,-0.0418 -0.01082,-0.13484 -0.08202,-0.14132 -0.09333,-0.009 -0.4984,0.15331 -0.532557,0.1358 -0.0344,-0.0175 -0.113535,-0.36253 -0.113535,-0.39756 0,-0.0353 0.0036,-0.0274 0.01924,-0.0566 0.0022,-0.008 0.0053,-0.0302 0.0034,-0.0629 z"
       style="fill:#fcffff;fill-opacity:1;fill-rule:evenodd;stroke:none;stroke-width:0.26458332"
       inkscape:connector-curvature="0" />
  </g>
</svg>
