<?xml version="1.0" encoding="UTF-8" standalone="no"?>
<!-- Created with Inkscape (http://www.inkscape.org/) -->

<svg
   xmlns:dc="http://purl.org/dc/elements/1.1/"
   xmlns:cc="http://creativecommons.org/ns#"
   xmlns:rdf="http://www.w3.org/1999/02/22-rdf-syntax-ns#"
   xmlns:svg="http://www.w3.org/2000/svg"
   xmlns="http://www.w3.org/2000/svg"
   xmlns:sodipodi="http://sodipodi.sourceforge.net/DTD/sodipodi-0.dtd"
   xmlns:inkscape="http://www.inkscape.org/namespaces/inkscape"
   width="10.203mm"
   height="6.8021379mm"
   viewBox="0 0 10.203 6.8021376"
   version="1.1"
   id="svg8"
   inkscape:version="0.92.2 (5c3e80d, 2017-08-06)">
  <defs
     id="defs2">
    <pattern
       y="0"
       x="0"
       height="6"
       width="6"
       patternUnits="userSpaceOnUse"
       id="EMFhbasepattern" />
    <pattern
       y="0"
       x="0"
       height="6"
       width="6"
       patternUnits="userSpaceOnUse"
       id="EMFhbasepattern-0" />
    <pattern
       y="0"
       x="0"
       height="6"
       width="6"
       patternUnits="userSpaceOnUse"
       id="EMFhbasepattern-2" />
    <pattern
       y="0"
       x="0"
       height="6"
       width="6"
       patternUnits="userSpaceOnUse"
       id="EMFhbasepattern-6" />
    <pattern
       y="0"
       x="0"
       height="6"
       width="6"
       patternUnits="userSpaceOnUse"
       id="EMFhbasepattern-03" />
    <pattern
       y="0"
       x="0"
       height="6"
       width="6"
       patternUnits="userSpaceOnUse"
       id="EMFhbasepattern-5" />
    <pattern
       y="0"
       x="0"
       height="6"
       width="6"
       patternUnits="userSpaceOnUse"
       id="EMFhbasepattern-69" />
    <pattern
       y="0"
       x="0"
       height="6"
       width="6"
       patternUnits="userSpaceOnUse"
       id="EMFhbasepattern-54" />
    <pattern
       y="0"
       x="0"
       height="6"
       width="6"
       patternUnits="userSpaceOnUse"
       id="EMFhbasepattern-1" />
    <pattern
       y="0"
       x="0"
       height="6"
       width="6"
       patternUnits="userSpaceOnUse"
       id="EMFhbasepattern-05" />
    <pattern
       y="0"
       x="0"
       height="6"
       width="6"
       patternUnits="userSpaceOnUse"
       id="EMFhbasepattern-58" />
    <pattern
       y="0"
       x="0"
       height="6"
       width="6"
       patternUnits="userSpaceOnUse"
       id="EMFhbasepattern-23" />
    <pattern
       y="0"
       x="0"
       height="6"
       width="6"
       patternUnits="userSpaceOnUse"
       id="EMFhbasepattern-62" />
    <pattern
       y="0"
       x="0"
       height="6"
       width="6"
       patternUnits="userSpaceOnUse"
       id="EMFhbasepattern-3" />
    <pattern
       y="0"
       x="0"
       height="6"
       width="6"
       patternUnits="userSpaceOnUse"
       id="EMFhbasepattern-57" />
    <pattern
       y="0"
       x="0"
       height="6"
       width="6"
       patternUnits="userSpaceOnUse"
       id="EMFhbasepattern-7" />
    <pattern
       y="0"
       x="0"
       height="6"
       width="6"
       patternUnits="userSpaceOnUse"
       id="EMFhbasepattern-626" />
    <pattern
       y="0"
       x="0"
       height="6"
       width="6"
       patternUnits="userSpaceOnUse"
       id="EMFhbasepattern-13" />
    <pattern
       y="0"
       x="0"
       height="6"
       width="6"
       patternUnits="userSpaceOnUse"
       id="EMFhbasepattern-38" />
    <pattern
       y="0"
       x="0"
       height="6"
       width="6"
       patternUnits="userSpaceOnUse"
       id="EMFhbasepattern-20" />
    <pattern
       y="0"
       x="0"
       height="6"
       width="6"
       patternUnits="userSpaceOnUse"
       id="EMFhbasepattern-8" />
    <pattern
       y="0"
       x="0"
       height="6"
       width="6"
       patternUnits="userSpaceOnUse"
       id="EMFhbasepattern-80" />
    <pattern
       y="0"
       x="0"
       height="6"
       width="6"
       patternUnits="userSpaceOnUse"
       id="EMFhbasepattern-66" />
    <pattern
       y="0"
       x="0"
       height="6"
       width="6"
       patternUnits="userSpaceOnUse"
       id="EMFhbasepattern-9" />
    <pattern
       y="0"
       x="0"
       height="6"
       width="6"
       patternUnits="userSpaceOnUse"
       id="EMFhbasepattern-31" />
  </defs>
  <sodipodi:namedview
     id="base"
     pagecolor="#ffffff"
     bordercolor="#666666"
     borderopacity="1.0"
     inkscape:pageopacity="0.0"
     inkscape:pageshadow="2"
     inkscape:zoom="5.6"
     inkscape:cx="2.8639051"
     inkscape:cy="48.023852"
     inkscape:document-units="mm"
     inkscape:current-layer="layer1"
     showgrid="false"
     fit-margin-top="0"
     fit-margin-left="0"
     fit-margin-right="0"
     fit-margin-bottom="0"
     inkscape:window-width="1920"
     inkscape:window-height="1027"
     inkscape:window-x="-8"
     inkscape:window-y="-8"
     inkscape:window-maximized="1" />
  <metadata
     id="metadata5">
    <rdf:RDF>
      <cc:Work
         rdf:about="">
        <dc:format>image/svg+xml</dc:format>
        <dc:type
           rdf:resource="http://purl.org/dc/dcmitype/StillImage" />
        <dc:title></dc:title>
      </cc:Work>
    </rdf:RDF>
  </metadata>
  <g
     inkscape:label="Layer 1"
     inkscape:groupmode="layer"
     id="layer1"
     transform="translate(-22.144268,-171.88573)">
    <path
       id="path1436"
       d="m 22.170247,178.66189 v -6.75018 h 10.151042 v 6.75018 z"
       style="fill:#2b9fcf;fill-opacity:1;fill-rule:evenodd;stroke:none;stroke-width:0.26458332"
       inkscape:connector-curvature="0" />
    <path
       id="path1438"
       d="m 22.170247,178.66189 v -6.75018 h 10.151042 v 6.75018 z"
       style="fill:none;stroke:#000000;stroke-width:0.05195794px;stroke-linecap:round;stroke-linejoin:miter;stroke-miterlimit:4;stroke-dasharray:none;stroke-opacity:1"
       inkscape:connector-curvature="0" />
    <path
       id="path1440"
       d="m 22.170247,172.64302 7.22e-4,-0.0345 0.0029,-0.0369 0.0046,-0.0367 0.0065,-0.036 0.0082,-0.0355 0.0101,-0.0348 0.01131,-0.0341 0.01323,-0.0331 0.01467,-0.0326 0.01636,-0.0314 0.01756,-0.0307 0.019,-0.0295 0.02045,-0.0288 0.02189,-0.0276 0.02285,-0.0264 0.02429,-0.0254 0.0255,-0.0242 0.02646,-0.0228 0.02766,-0.0218 0.02886,-0.0204 0.02959,-0.0189 0.03079,-0.0175 0.03175,-0.0163 0.03247,-0.0146 0.03319,-0.0132 0.03416,-0.0115 0.03488,-0.01 0.0356,-0.008 0.03608,-0.006 0.0368,-0.005 0.03729,-0.003 0.03464,-7.2e-4 h 8.690446 l 0.03464,7.2e-4 0.03728,0.003 0.03656,0.005 0.03608,0.006 0.0356,0.008 0.03488,0.01 0.03416,0.0115 0.03344,0.0132 0.03247,0.0146 0.03175,0.0163 0.03055,0.0175 0.02983,0.0189 0.02862,0.0204 0.02766,0.0218 0.0267,0.0228 0.02526,0.0242 0.0243,0.0254 0.02309,0.0264 0.02165,0.0276 0.02045,0.0288 0.019,0.0295 0.0178,0.0307 0.01612,0.0317 0.01467,0.0324 0.01323,0.0331 0.01155,0.0341 0.0099,0.0348 0.0082,0.0355 0.0065,0.036 0.0046,0.0367 0.0029,0.0369 9.62e-4,0.0345 v 5.29332 l -9.62e-4,0.0346 -0.0029,0.0372 -0.0046,0.0365 -0.0065,0.0362 -0.0082,0.0355 -0.0099,0.0345 -0.01155,0.0341 -0.01323,0.0334 -0.01467,0.0326 -0.01612,0.0314 -0.0178,0.0305 -0.019,0.0298 -0.02045,0.0288 -0.02165,0.0276 -0.02309,0.0264 -0.0243,0.0254 -0.02526,0.0242 -0.0267,0.0228 -0.02766,0.0216 -0.02862,0.0204 -0.02983,0.0192 -0.03055,0.0175 -0.03175,0.0161 -0.03247,0.0149 -0.03344,0.013 -0.03416,0.0115 -0.03488,0.01 -0.0356,0.008 -0.03608,0.006 -0.03656,0.005 -0.03728,0.003 -0.03464,9.6e-4 h -8.690446 l -0.03464,-9.6e-4 -0.03729,-0.003 -0.0368,-0.005 -0.03608,-0.006 -0.0356,-0.008 -0.03488,-0.01 -0.03416,-0.0115 -0.03319,-0.013 -0.03247,-0.0149 -0.03175,-0.0161 -0.03079,-0.0175 -0.02959,-0.0192 -0.02886,-0.0204 -0.02766,-0.0216 -0.02646,-0.0228 -0.0255,-0.0242 -0.02429,-0.0254 -0.02285,-0.0264 -0.02189,-0.0276 -0.02045,-0.0288 -0.019,-0.0298 -0.01756,-0.0305 -0.01636,-0.0314 -0.01467,-0.0326 -0.01323,-0.0334 -0.01131,-0.0341 -0.0101,-0.0345 -0.0082,-0.0355 -0.0065,-0.0362 -0.0046,-0.0365 -0.0029,-0.0369 -7.22e-4,-0.0348 z m 0.225392,5.29044 v -5.28756 0 c 0,-0.27952 0.227316,-0.50625 0.507552,-0.50625 v 0 h 8.684914 v 0 c 0.280476,0 0.507552,0.22673 0.507552,0.50625 v 0 5.28756 0 c 0,0.27976 -0.227076,0.50625 -0.507552,0.50625 v 0 h -8.684914 v 0 c -0.280236,0 -0.507552,-0.22649 -0.507552,-0.50625 z"
       style="fill:#fcffff;fill-opacity:1;fill-rule:evenodd;stroke:none;stroke-width:0.26458332"
       inkscape:connector-curvature="0" />
    <path
       id="path1442"
       d="m 31.636214,175.17883 c -7.22e-4,0 -2.371784,0 -2.372746,0 -0.527758,-0.001 -0.955208,-0.42803 -0.956171,-0.95444 0,-7.2e-4 0,-0.44195 0,-0.44243 v 0 h 0.225633 v 0 c 0,4.8e-4 0,0.44171 0,0.44219 9.62e-4,0.40212 0.327142,0.72795 0.729816,0.72963 9.63e-4,0 2.372506,0 2.373468,0 v 0 z m -0.746174,-1.18861 h -0.450302 v 0.73682 h -0.741122 v -1.39327 l 0.9694,-0.82295 0.970603,0.82295 v 1.39327 H 30.89004 Z m -0.364186,-0.42012 v -0.41627 h 0.28192 v 0.41627 z m -2.943322,-0.29391 c 0.07553,0 0.137112,0.059 0.137112,0.13196 0,0.0732 -0.06158,0.13244 -0.137112,0.13244 -0.07577,0 -0.137351,-0.0593 -0.137351,-0.13244 0,-0.0729 0.06158,-0.13196 0.137351,-0.13196 z m -1.307848,0.0609 h 0.914315 v 0 c 0.01323,0 0.02381,0.01 0.02381,0.0221 v 0 0.15307 0 c 0,0.012 -0.01058,0.0218 -0.02381,0.0218 v 0 h -0.914315 v 0 c -0.01323,0 -0.02381,-0.01 -0.02381,-0.0218 v 0 -0.15307 0 c 0,-0.0122 0.01058,-0.0221 0.02381,-0.0221 z m -0.393774,-0.0648 c 0.07577,0 0.137111,0.059 0.137111,0.1322 0,0.0729 -0.06134,0.13196 -0.137111,0.13196 -0.07577,0 -0.137111,-0.059 -0.137111,-0.13196 0,-0.0732 0.06134,-0.1322 0.137111,-0.1322 z m 0.05268,-0.17467 c 0.04835,-0.15763 0.155393,-0.411 0.178245,-0.4585 0.08732,-0.0389 1.159672,-0.0413 1.234482,0.002 0.07842,0.143 0.168863,0.37045 0.19821,0.45538 -0.179207,-0.007 -0.545077,-0.0341 -0.796929,-0.0288 -0.231886,-0.005 -0.593667,0.0156 -0.814008,0.03 z m 0.116184,-0.53864 c 0.107284,-0.0504 1.324446,-0.0434 1.362934,9.6e-4 0,0 0.212643,0.44531 0.24247,0.53336 0.104638,0.0449 0.129414,0.16388 0.149379,0.31479 0,0.13676 -0.05581,0.26632 -0.14529,0.33111 0.0029,0.003 -9.62e-4,0.29055 -9.62e-4,0.28023 0,0.10341 -0.219618,0.10341 -0.219618,0.0144 0,-0.089 0,-0.25385 0,-0.25385 0,0 -1.393002,0 -1.393002,0 0,0 9.62e-4,0.15908 9.62e-4,0.23106 0,0.1118 -0.225151,0.12188 -0.225151,-0.005 0,-0.14396 -0.0031,-0.13724 -0.0031,-0.2884 -0.06711,-0.0288 -0.156836,-0.17971 -0.156836,-0.31647 0,-0.13676 0.08852,-0.2704 0.179688,-0.30351 0.02983,-0.0422 0.157557,-0.49521 0.208553,-0.5384 z m 2.135087,4.04425 c 0.04715,-0.012 0.111854,-0.20202 0.102953,-0.24473 -0.0087,-0.0427 -0.202539,-0.12452 -0.202539,-0.12452 0,0 0.06495,0.37789 0.09959,0.36925 z m -2.823289,0.76946 c 0.171269,0 0.310305,0.13868 0.310305,0.30951 0,0.17083 -0.139036,0.30926 -0.310305,0.30926 -0.171269,0 -0.310064,-0.13843 -0.310064,-0.30926 0,-0.17083 0.138795,-0.30951 0.310064,-0.30951 z m -0.943421,-2.84893 c -0.129895,-0.0518 -0.21144,-0.0129 -0.25955,0.0406 -0.04811,0.0763 -0.08636,0.2181 -0.02622,0.37357 0.03223,0.0835 -0.223227,0.0741 -0.280958,0.10293 -0.09959,0.0497 -0.588616,0.45083 -0.599922,0.53624 -0.01106,0.0852 -0.07288,0.16268 -0.08299,0.22602 -0.0101,0.0633 0.006,0.0828 -0.02478,0.16171 -0.07337,0.0511 -0.06952,0.23201 -0.01443,0.23177 0.02454,-2.4e-4 0.05749,0.003 0.13206,-0.0662 0.03993,-0.10989 0.05412,-0.15451 0.172712,-0.41844 -0.0084,-0.077 0.205907,-0.15307 0.281679,-0.21329 0.03031,-0.024 0.08612,-0.0607 0.09886,-0.0564 4.81e-4,0.0322 -0.0534,0.24713 -0.08179,0.32631 -0.02863,0.0789 -0.131819,0.32486 -0.15876,0.39708 -0.0267,0.0722 0.0344,0.0926 0.02141,0.17971 -0.03488,0.0912 -0.122678,0.5408 -0.115221,0.75122 -0.0979,0.15355 -0.267969,0.33998 -0.344462,0.50433 -0.127971,0.25025 0.06302,0.18954 0.18979,0.34286 0.104398,0.0439 0.222265,0.0264 0.264842,-0.0173 0.0522,-0.0926 -0.212403,-0.11972 -0.194602,-0.17802 0.0091,-0.03 0.0012,-0.0525 0.03247,-0.0797 0.03103,-0.0271 0.13663,-0.23345 0.243432,-0.34838 0.106562,-0.10557 0.07962,-0.11324 0.12749,-0.24089 0.06735,-0.15523 0.06735,-0.22409 0.09694,-0.3143 0.04835,-0.14756 0.05316,-0.18403 0.08924,-0.14924 0.03584,0.0348 0.216251,0.27448 0.259549,0.35797 0.04306,0.0835 -0.0034,0.16556 -0.01371,0.25553 -0.01563,0.13748 -0.07409,0.18187 -0.07192,0.29751 0.0019,0.10605 -0.04619,0.23105 0.08972,0.20418 0.143846,0.0612 0.275906,0.0662 0.369478,0.0727 0.142163,0.01 0.118589,-0.0921 -0.01275,-0.12668 -0.171749,-0.0369 -0.221061,-0.10413 -0.11498,-0.40116 0.01082,-0.084 0.116424,-0.27256 0.07601,-0.38605 -0.06567,-0.13268 -0.269893,-0.43859 -0.342297,-0.51873 -0.158279,-0.17443 -0.125084,-0.15115 -0.07288,-0.34622 0.01491,-0.0559 0.119551,-0.31047 0.119551,-0.32558 0.02165,0.0276 0.142884,0.1478 0.262195,0.24713 0.0522,0.0434 0.290098,0.13484 0.338208,0.22649 0.171028,0.0725 0.216251,-0.0972 0.09742,-0.17659 -0.168863,-0.0506 -0.314153,-0.30447 -0.42288,-0.39348 -0.114741,-0.14156 -0.05292,-0.0439 -0.150341,-0.25385 0.01203,-0.065 -0.0279,-0.16195 -0.07673,-0.22505 -0.04907,-0.0629 0.0031,-0.0905 0.0522,-0.0725 0,0 0.06615,0.0233 0.142884,-0.0465 0.03608,-0.0732 0.07866,-0.23009 0.06206,-0.33014 -0.02502,-0.0888 -0.05749,-0.11757 -0.158038,-0.15116 z m 3.817705,2.2599 0.03247,-0.0442 v 0 c 0.04498,-0.0262 0.224911,-0.35653 0.200134,-0.44483 -0.051,-0.037 -0.486384,-0.4014 -0.586932,-0.36541 -0.02309,0.008 -0.02886,-0.0161 -0.0072,-0.072 0.02189,-0.0561 0.04185,-0.11732 0.05027,-0.15259 0.02959,-0.12309 -0.06711,-0.23537 -0.217694,-0.25697 -0.16718,0.0223 -0.170066,0.0684 -0.192918,0.1406 -0.04065,0.12836 2.4e-4,0.28336 0.02574,0.32487 0.04594,0.0281 0.05196,0.0288 0.112095,0.0204 0.06038,-0.0216 0.07096,0.0633 0.01732,0.0936 -0.05364,0.0305 -0.0878,0.0408 -0.104156,0.0914 -0.01636,0.0509 -0.108968,0.38556 -0.108968,0.38556 0,0 -0.257865,0.0741 -0.373808,0.0449 -0.03368,-0.009 -0.03296,-0.006 -0.100789,-0.0331 -0.0368,-0.0146 -0.0902,-0.0216 -0.108486,0.0343 -0.02237,0.0677 0.0445,0.11588 0.07024,0.12284 0.01443,0.004 0.07288,-0.001 0.113297,0.004 0.197008,0.006 0.32161,0.0302 0.406042,0.0197 0.09766,0.007 0.222746,-0.27208 0.222746,-0.27208 0,0 0.151303,0.26488 0.144087,0.3095 -0.0072,0.0444 -0.392572,0.38269 -0.424805,0.46523 -0.03199,0.0825 0.06928,0.53864 0.06928,0.53864 v 0 l 0.0026,0.0161 v 0 c 0,0 0.02598,0.0801 -0.07818,0.0876 -0.104156,0.008 -0.215288,0.0607 -0.215288,0.0907 0,0.03 0.05845,0.0468 0.146732,0.0468 0.08804,0 0.162129,-0.017 0.162129,-0.017 v 0 l 0.02189,0.0161 v 0 c 0,0 0.153228,0.0149 0.17151,-0.013 0.04378,-0.0662 0.01491,-0.33878 -0.0089,-0.6646 -0.0048,-0.0645 0.252574,-0.20466 0.252574,-0.20466 0,0 0.131338,0.37141 0.209275,0.42419 0.07794,0.0526 0.602567,-0.0751 0.602567,-0.0751 0,0 0.051,-0.0202 0.05893,-0.0132 0.08299,0.0725 0.09045,0.2085 0.09045,0.2085 0,0 0.111132,0.12932 0.117627,-0.131 -0.03921,-0.20058 -0.08515,-0.16244 -0.06639,-0.20298 0.01948,-0.042 -0.01106,-0.13508 -0.08203,-0.14156 -0.09333,-0.008 -0.498412,0.15331 -0.532569,0.1358 -0.0344,-0.0175 -0.113779,-0.36254 -0.113779,-0.39757 0,-0.0353 0.0038,-0.0273 0.01948,-0.0566 0.0022,-0.008 0.0053,-0.03 0.0034,-0.0626 z"
       style="fill:#fcffff;fill-opacity:1;fill-rule:evenodd;stroke:none;stroke-width:0.26458332"
       inkscape:connector-curvature="0" />
    <path
       id="path1444"
       d="m 32.093251,172.78026 -9.064976,5.66113 h -0.12749 v 0 c -0.280236,0 -0.507552,-0.22673 -0.507552,-0.50625 v 0 0 -0.0928 l 9.129203,-5.70097 h 0.06326 v 0 c 0.280477,0 0.507552,0.2265 0.507552,0.50626 v 0 z"
       style="fill:#e02726;fill-opacity:1;fill-rule:evenodd;stroke:none;stroke-width:0.26458332"
       inkscape:connector-curvature="0" />
  </g>
</svg>
