<?xml version="1.0" encoding="UTF-8" standalone="no"?>
<!-- Created with Inkscape (http://www.inkscape.org/) -->

<svg
   xmlns:dc="http://purl.org/dc/elements/1.1/"
   xmlns:cc="http://creativecommons.org/ns#"
   xmlns:rdf="http://www.w3.org/1999/02/22-rdf-syntax-ns#"
   xmlns:svg="http://www.w3.org/2000/svg"
   xmlns="http://www.w3.org/2000/svg"
   xmlns:sodipodi="http://sodipodi.sourceforge.net/DTD/sodipodi-0.dtd"
   xmlns:inkscape="http://www.inkscape.org/namespaces/inkscape"
   width="7.8760009mm"
   height="7.8759928mm"
   viewBox="0 0 7.8760008 7.8759925"
   version="1.1"
   id="svg8"
   inkscape:version="0.92.2 (5c3e80d, 2017-08-06)">
  <defs
     id="defs2">
    <pattern
       y="0"
       x="0"
       height="6"
       width="6"
       patternUnits="userSpaceOnUse"
       id="EMFhbasepattern" />
    <pattern
       y="0"
       x="0"
       height="6"
       width="6"
       patternUnits="userSpaceOnUse"
       id="EMFhbasepattern-0" />
    <pattern
       y="0"
       x="0"
       height="6"
       width="6"
       patternUnits="userSpaceOnUse"
       id="EMFhbasepattern-2" />
    <pattern
       y="0"
       x="0"
       height="6"
       width="6"
       patternUnits="userSpaceOnUse"
       id="EMFhbasepattern-6" />
    <pattern
       y="0"
       x="0"
       height="6"
       width="6"
       patternUnits="userSpaceOnUse"
       id="EMFhbasepattern-03" />
    <pattern
       y="0"
       x="0"
       height="6"
       width="6"
       patternUnits="userSpaceOnUse"
       id="EMFhbasepattern-5" />
    <pattern
       y="0"
       x="0"
       height="6"
       width="6"
       patternUnits="userSpaceOnUse"
       id="EMFhbasepattern-69" />
    <pattern
       y="0"
       x="0"
       height="6"
       width="6"
       patternUnits="userSpaceOnUse"
       id="EMFhbasepattern-54" />
    <pattern
       y="0"
       x="0"
       height="6"
       width="6"
       patternUnits="userSpaceOnUse"
       id="EMFhbasepattern-1" />
    <pattern
       y="0"
       x="0"
       height="6"
       width="6"
       patternUnits="userSpaceOnUse"
       id="EMFhbasepattern-05" />
    <pattern
       y="0"
       x="0"
       height="6"
       width="6"
       patternUnits="userSpaceOnUse"
       id="EMFhbasepattern-58" />
    <pattern
       y="0"
       x="0"
       height="6"
       width="6"
       patternUnits="userSpaceOnUse"
       id="EMFhbasepattern-23" />
    <pattern
       y="0"
       x="0"
       height="6"
       width="6"
       patternUnits="userSpaceOnUse"
       id="EMFhbasepattern-62" />
    <pattern
       y="0"
       x="0"
       height="6"
       width="6"
       patternUnits="userSpaceOnUse"
       id="EMFhbasepattern-3" />
    <pattern
       y="0"
       x="0"
       height="6"
       width="6"
       patternUnits="userSpaceOnUse"
       id="EMFhbasepattern-57" />
    <pattern
       y="0"
       x="0"
       height="6"
       width="6"
       patternUnits="userSpaceOnUse"
       id="EMFhbasepattern-7" />
    <pattern
       y="0"
       x="0"
       height="6"
       width="6"
       patternUnits="userSpaceOnUse"
       id="EMFhbasepattern-626" />
    <pattern
       y="0"
       x="0"
       height="6"
       width="6"
       patternUnits="userSpaceOnUse"
       id="EMFhbasepattern-13" />
    <pattern
       y="0"
       x="0"
       height="6"
       width="6"
       patternUnits="userSpaceOnUse"
       id="EMFhbasepattern-38" />
    <pattern
       y="0"
       x="0"
       height="6"
       width="6"
       patternUnits="userSpaceOnUse"
       id="EMFhbasepattern-20" />
    <pattern
       y="0"
       x="0"
       height="6"
       width="6"
       patternUnits="userSpaceOnUse"
       id="EMFhbasepattern-8" />
    <pattern
       y="0"
       x="0"
       height="6"
       width="6"
       patternUnits="userSpaceOnUse"
       id="EMFhbasepattern-80" />
    <pattern
       y="0"
       x="0"
       height="6"
       width="6"
       patternUnits="userSpaceOnUse"
       id="EMFhbasepattern-66" />
    <pattern
       y="0"
       x="0"
       height="6"
       width="6"
       patternUnits="userSpaceOnUse"
       id="EMFhbasepattern-9" />
    <pattern
       y="0"
       x="0"
       height="6"
       width="6"
       patternUnits="userSpaceOnUse"
       id="EMFhbasepattern-31" />
    <pattern
       y="0"
       x="0"
       height="6"
       width="6"
       patternUnits="userSpaceOnUse"
       id="EMFhbasepattern-82" />
  </defs>
  <sodipodi:namedview
     id="base"
     pagecolor="#ffffff"
     bordercolor="#666666"
     borderopacity="1.0"
     inkscape:pageopacity="0.0"
     inkscape:pageshadow="2"
     inkscape:zoom="5.6"
     inkscape:cx="-42.788028"
     inkscape:cy="72.371903"
     inkscape:document-units="mm"
     inkscape:current-layer="layer1"
     showgrid="false"
     fit-margin-top="0"
     fit-margin-left="0"
     fit-margin-right="0"
     fit-margin-bottom="0"
     inkscape:window-width="1920"
     inkscape:window-height="1027"
     inkscape:window-x="-8"
     inkscape:window-y="-8"
     inkscape:window-maximized="1" />
  <metadata
     id="metadata5">
    <rdf:RDF>
      <cc:Work
         rdf:about="">
        <dc:format>image/svg+xml</dc:format>
        <dc:type
           rdf:resource="http://purl.org/dc/dcmitype/StillImage" />
        <dc:title></dc:title>
      </cc:Work>
    </rdf:RDF>
  </metadata>
  <g
     inkscape:label="Layer 1"
     inkscape:groupmode="layer"
     id="layer1"
     transform="translate(-34.223009,-177.25396)">
    <path
       id="path1461"
       d="m 42.073263,185.10421 h -7.824508 v -7.8245 h 7.824508 z"
       style="fill:#2b9fcf;fill-opacity:1;fill-rule:evenodd;stroke:none;stroke-width:0.26458332"
       inkscape:connector-curvature="0" />
    <path
       id="path1463"
       d="m 42.073263,185.10421 h -7.824508 v -7.8245 h 7.824508 z"
       style="fill:none;stroke:#231f20;stroke-width:0.05149271px;stroke-linecap:butt;stroke-linejoin:miter;stroke-miterlimit:4;stroke-dasharray:none;stroke-opacity:1"
       inkscape:connector-curvature="0" />
    <path
       id="path1465"
       d="m 34.248755,178.00346 9.54e-4,-0.0343 0.0026,-0.0369 0.0048,-0.0362 0.0062,-0.036 0.0083,-0.035 0.0098,-0.0348 0.01144,-0.0336 0.01287,-0.0331 0.01478,-0.0322 0.01597,-0.0315 0.01764,-0.0303 0.01883,-0.0296 0.02026,-0.0286 0.02145,-0.0274 0.02289,-0.0262 0.02384,-0.0253 0.02527,-0.0238 0.02622,-0.0229 0.02741,-0.0215 0.02861,-0.0203 0.02956,-0.0191 0.03027,-0.0174 0.03147,-0.016 0.03218,-0.0148 0.03314,-0.0129 0.03385,-0.0117 0.03457,-0.01 0.03528,-0.008 0.03576,-0.006 0.03624,-0.005 0.03695,-0.003 0.03433,-7.1e-4 h 6.37699 l 0.03457,7.1e-4 0.03671,0.003 0.03647,0.005 0.03576,0.006 0.03528,0.008 0.03457,0.01 0.03385,0.0117 0.0329,0.0129 0.03242,0.0148 0.03123,0.016 0.03051,0.0174 0.02956,0.0191 0.02837,0.0203 0.02741,0.0215 0.02622,0.0229 0.02527,0.0238 0.02408,0.0253 0.02265,0.0262 0.02169,0.0274 0.02026,0.0286 0.01883,0.0293 0.0174,0.0305 0.01621,0.0315 0.01454,0.0322 0.01287,0.0331 0.01168,0.0336 0.0098,0.0348 0.0081,0.035 0.0064,0.036 0.0045,0.0362 0.0029,0.0369 7.16e-4,0.0343 v 6.377 l -7.16e-4,0.0346 -0.0029,0.0367 -0.0045,0.0362 -0.0064,0.036 -0.0081,0.035 -0.0098,0.0346 -0.01168,0.0339 -0.01287,0.0331 -0.01454,0.0324 -0.01621,0.0312 -0.0174,0.0305 -0.01883,0.0293 -0.02026,0.0286 -0.02169,0.0274 -0.02265,0.0262 -0.02408,0.0253 -0.02527,0.0238 -0.02622,0.0229 -0.02741,0.0217 -0.02837,0.0203 -0.02956,0.0188 -0.03051,0.0174 -0.03123,0.0162 -0.03242,0.0145 -0.0329,0.0129 -0.03385,0.0114 -0.03457,0.01 -0.03528,0.008 -0.03576,0.006 -0.03647,0.005 -0.03671,0.003 -0.03457,7.1e-4 h -6.37699 l -0.03433,-7.1e-4 -0.03695,-0.003 -0.03624,-0.005 -0.03576,-0.006 -0.03528,-0.008 -0.03457,-0.01 -0.03385,-0.0114 -0.03314,-0.0129 -0.03218,-0.0145 -0.03147,-0.0162 -0.03027,-0.0174 -0.02956,-0.0188 -0.02837,-0.0203 -0.02765,-0.0217 -0.02622,-0.0229 -0.02527,-0.0238 -0.02384,-0.0253 -0.02289,-0.0262 -0.02145,-0.0274 -0.02026,-0.0286 -0.01883,-0.0293 -0.01764,-0.0305 -0.01597,-0.0312 -0.01478,-0.0324 -0.01287,-0.0331 -0.01144,-0.0339 -0.0098,-0.0346 -0.0083,-0.035 -0.0062,-0.036 -0.0048,-0.0362 -0.0026,-0.0367 -9.54e-4,-0.0346 z m 0.223612,6.37413 v -6.37126 0 c 0,-0.27797 0.225042,-0.50301 0.503008,-0.50301 v 0 h 6.371507 v 0 c 0.277727,0 0.503007,0.22504 0.503007,0.50301 v 0 6.37126 0 c 0,0.27797 -0.22528,0.50325 -0.503007,0.50325 v 0 h -6.371507 v 0 c -0.277966,0 -0.503008,-0.22528 -0.503008,-0.50325 z"
       style="fill:#fcffff;fill-opacity:1;fill-rule:evenodd;stroke:none;stroke-width:0.26458332"
       inkscape:connector-curvature="0" />
    <path
       id="path1467"
       d="m 37.217453,181.22176 h 0.984798 v 0 c 0.600748,-0.0701 0.959052,-0.48751 0.959052,-0.9705 0,-0.55902 -0.493949,-0.95786 -0.962866,-0.97311 v 0 h -0.980984 z m 0.01526,0.91852 v 1.95792 h -0.924246 v -5.73429 h 1.904991 v 0 c 0.851537,0.0153 1.857075,0.77716 1.857075,1.90333 0,1.01102 -0.974309,1.85612 -1.851592,1.87304 v 0 z"
       style="fill:#fcffff;fill-opacity:1;fill-rule:evenodd;stroke:none;stroke-width:0.26458332"
       inkscape:connector-curvature="0" />
  </g>
</svg>
