<?xml version="1.0" encoding="UTF-8" standalone="no"?>
<!-- Created with Inkscape (http://www.inkscape.org/) -->

<svg
   xmlns:dc="http://purl.org/dc/elements/1.1/"
   xmlns:cc="http://creativecommons.org/ns#"
   xmlns:rdf="http://www.w3.org/1999/02/22-rdf-syntax-ns#"
   xmlns:svg="http://www.w3.org/2000/svg"
   xmlns="http://www.w3.org/2000/svg"
   xmlns:sodipodi="http://sodipodi.sourceforge.net/DTD/sodipodi-0.dtd"
   xmlns:inkscape="http://www.inkscape.org/namespaces/inkscape"
   width="7.8760009mm"
   height="3.9383328mm"
   viewBox="0 0 7.8760008 3.9383327"
   version="1.1"
   id="svg8"
   inkscape:version="0.92.2 (5c3e80d, 2017-08-06)">
  <defs
     id="defs2">
    <pattern
       y="0"
       x="0"
       height="6"
       width="6"
       patternUnits="userSpaceOnUse"
       id="EMFhbasepattern" />
    <pattern
       y="0"
       x="0"
       height="6"
       width="6"
       patternUnits="userSpaceOnUse"
       id="EMFhbasepattern-0" />
    <pattern
       y="0"
       x="0"
       height="6"
       width="6"
       patternUnits="userSpaceOnUse"
       id="EMFhbasepattern-2" />
    <pattern
       y="0"
       x="0"
       height="6"
       width="6"
       patternUnits="userSpaceOnUse"
       id="EMFhbasepattern-6" />
    <pattern
       y="0"
       x="0"
       height="6"
       width="6"
       patternUnits="userSpaceOnUse"
       id="EMFhbasepattern-03" />
    <pattern
       y="0"
       x="0"
       height="6"
       width="6"
       patternUnits="userSpaceOnUse"
       id="EMFhbasepattern-5" />
    <pattern
       y="0"
       x="0"
       height="6"
       width="6"
       patternUnits="userSpaceOnUse"
       id="EMFhbasepattern-69" />
    <pattern
       y="0"
       x="0"
       height="6"
       width="6"
       patternUnits="userSpaceOnUse"
       id="EMFhbasepattern-54" />
    <pattern
       y="0"
       x="0"
       height="6"
       width="6"
       patternUnits="userSpaceOnUse"
       id="EMFhbasepattern-1" />
    <pattern
       y="0"
       x="0"
       height="6"
       width="6"
       patternUnits="userSpaceOnUse"
       id="EMFhbasepattern-05" />
    <pattern
       y="0"
       x="0"
       height="6"
       width="6"
       patternUnits="userSpaceOnUse"
       id="EMFhbasepattern-58" />
    <pattern
       y="0"
       x="0"
       height="6"
       width="6"
       patternUnits="userSpaceOnUse"
       id="EMFhbasepattern-23" />
    <pattern
       y="0"
       x="0"
       height="6"
       width="6"
       patternUnits="userSpaceOnUse"
       id="EMFhbasepattern-62" />
    <pattern
       y="0"
       x="0"
       height="6"
       width="6"
       patternUnits="userSpaceOnUse"
       id="EMFhbasepattern-3" />
    <pattern
       y="0"
       x="0"
       height="6"
       width="6"
       patternUnits="userSpaceOnUse"
       id="EMFhbasepattern-57" />
    <pattern
       y="0"
       x="0"
       height="6"
       width="6"
       patternUnits="userSpaceOnUse"
       id="EMFhbasepattern-7" />
    <pattern
       y="0"
       x="0"
       height="6"
       width="6"
       patternUnits="userSpaceOnUse"
       id="EMFhbasepattern-626" />
    <pattern
       y="0"
       x="0"
       height="6"
       width="6"
       patternUnits="userSpaceOnUse"
       id="EMFhbasepattern-13" />
    <pattern
       y="0"
       x="0"
       height="6"
       width="6"
       patternUnits="userSpaceOnUse"
       id="EMFhbasepattern-38" />
    <pattern
       y="0"
       x="0"
       height="6"
       width="6"
       patternUnits="userSpaceOnUse"
       id="EMFhbasepattern-20" />
    <pattern
       y="0"
       x="0"
       height="6"
       width="6"
       patternUnits="userSpaceOnUse"
       id="EMFhbasepattern-8" />
    <pattern
       y="0"
       x="0"
       height="6"
       width="6"
       patternUnits="userSpaceOnUse"
       id="EMFhbasepattern-80" />
    <pattern
       y="0"
       x="0"
       height="6"
       width="6"
       patternUnits="userSpaceOnUse"
       id="EMFhbasepattern-66" />
    <pattern
       y="0"
       x="0"
       height="6"
       width="6"
       patternUnits="userSpaceOnUse"
       id="EMFhbasepattern-9" />
    <pattern
       y="0"
       x="0"
       height="6"
       width="6"
       patternUnits="userSpaceOnUse"
       id="EMFhbasepattern-31" />
    <pattern
       y="0"
       x="0"
       height="6"
       width="6"
       patternUnits="userSpaceOnUse"
       id="EMFhbasepattern-82" />
    <pattern
       y="0"
       x="0"
       height="6"
       width="6"
       patternUnits="userSpaceOnUse"
       id="EMFhbasepattern-63" />
  </defs>
  <sodipodi:namedview
     id="base"
     pagecolor="#ffffff"
     bordercolor="#666666"
     borderopacity="1.0"
     inkscape:pageopacity="0.0"
     inkscape:pageshadow="2"
     inkscape:zoom="5.6"
     inkscape:cx="-12.547105"
     inkscape:cy="59.278726"
     inkscape:document-units="mm"
     inkscape:current-layer="layer1"
     showgrid="false"
     fit-margin-top="0"
     fit-margin-left="0"
     fit-margin-right="0"
     fit-margin-bottom="0"
     inkscape:window-width="1920"
     inkscape:window-height="1027"
     inkscape:window-x="-8"
     inkscape:window-y="-8"
     inkscape:window-maximized="1" />
  <metadata
     id="metadata5">
    <rdf:RDF>
      <cc:Work
         rdf:about="">
        <dc:format>image/svg+xml</dc:format>
        <dc:type
           rdf:resource="http://purl.org/dc/dcmitype/StillImage" />
        <dc:title></dc:title>
      </cc:Work>
    </rdf:RDF>
  </metadata>
  <g
     inkscape:label="Layer 1"
     inkscape:groupmode="layer"
     id="layer1"
     transform="translate(-26.221765,-177.72738)">
    <path
       id="path1483"
       d="m 26.247511,181.63997 v -3.88684 h 7.824508 v 3.88684 z"
       style="fill:#2b9fcf;fill-opacity:1;fill-rule:evenodd;stroke:none;stroke-width:0.26458332"
       inkscape:connector-curvature="0" />
    <path
       id="path1485"
       d="m 26.247511,181.63997 v -3.88684 h 7.824508 v 3.88684 z"
       style="fill:none;stroke:#231f20;stroke-width:0.05149271px;stroke-linecap:butt;stroke-linejoin:miter;stroke-miterlimit:4;stroke-dasharray:none;stroke-opacity:1"
       inkscape:connector-curvature="0" />
    <path
       id="path1487"
       d="m 29.408353,179.3748 0.0081,0.20629 v 0 c -0.165921,0.0578 -0.369508,0.23518 -0.369508,0.6229 0,0.396 0.336372,0.73019 0.72662,0.73019 0.394539,0 0.705879,-0.20629 0.876091,-0.51585 v 0 l 0.08296,0.23921 v 0 c -0.161868,0.22714 -0.485605,0.48269 -0.967395,0.48269 -0.531376,0 -0.938073,-0.43295 -0.938073,-0.94051 0,-0.53621 0.348529,-0.75884 0.5812,-0.82492 z"
       style="fill:#ffffff;fill-opacity:1;fill-rule:evenodd;stroke:none;stroke-width:0.26458332"
       inkscape:connector-curvature="0" />
    <path
       id="path1489"
       d="m 29.781913,179.3253 h 0.709932 l -7.15e-4,0.20629 h -0.700873 l 0.0083,0.20629 h 1.000532 l 0.294891,0.84553 0.328027,-0.11558 0.07033,0.20629 -0.556169,0.19398 -0.323975,-0.92393 h -1.066804 l -0.04172,-1.20459 c -0.0079,-0.17242 -0.04982,-0.48316 0.211692,-0.48671 0.166159,-0.002 0.307287,0.0827 0.307287,0.2764 0,0.16508 -0.149471,0.27639 -0.257463,0.27639 v 0 z"
       style="fill:#ffffff;fill-opacity:1;fill-rule:evenodd;stroke:none;stroke-width:0.26458332"
       inkscape:connector-curvature="0" />
    <path
       id="path1491"
       d="m 33.349929,177.75597 0.03433,9.5e-4 0.03695,0.003 0.03624,0.005 0.036,0.006 0.03504,0.008 0.03457,0.01 0.03385,0.0114 0.03314,0.0128 0.03218,0.0147 0.03147,0.0159 0.03051,0.0173 0.02932,0.0189 0.02861,0.0201 0.02741,0.0213 0.02622,0.0227 0.02527,0.0237 0.02384,0.0251 0.02289,0.0263 0.02145,0.0272 0.02026,0.0282 0.01907,0.0294 0.0174,0.0301 0.01597,0.0313 0.01478,0.032 0.01287,0.0329 0.01144,0.0336 0.01001,0.0343 0.0079,0.0351 0.0064,0.0355 0.0048,0.036 0.0029,0.0367 7.15e-4,0.0341 v 2.44873 l -7.15e-4,0.0341 -0.0029,0.0367 -0.0048,0.036 -0.0064,0.0358 -0.0079,0.0348 -0.01001,0.0343 -0.01144,0.0336 -0.01287,0.0329 -0.01478,0.032 -0.01597,0.0313 -0.0174,0.0301 -0.01907,0.0294 -0.02026,0.0284 -0.02145,0.027 -0.02289,0.0263 -0.02384,0.0251 -0.02527,0.0237 -0.02622,0.0227 -0.02741,0.0213 -0.02861,0.0201 -0.02932,0.0189 -0.03051,0.0173 -0.03147,0.0159 -0.03218,0.0147 -0.03314,0.0128 -0.03385,0.0114 -0.03457,0.01 -0.03504,0.008 -0.036,0.006 -0.03624,0.005 -0.03695,0.003 -0.03433,9.4e-4 h -6.37699 l -0.03457,-9.4e-4 -0.03671,-0.003 -0.03623,-0.005 -0.036,-0.006 -0.03528,-0.008 -0.03457,-0.01 -0.03385,-0.0114 -0.0329,-0.0128 -0.03218,-0.0147 -0.03147,-0.0159 -0.03051,-0.0173 -0.02932,-0.0189 -0.02861,-0.0201 -0.02742,-0.0213 -0.02622,-0.0227 -0.02527,-0.0237 -0.02408,-0.0251 -0.02265,-0.026 -0.02169,-0.0272 -0.02026,-0.0284 -0.01883,-0.0294 -0.0174,-0.0301 -0.01621,-0.0313 -0.01454,-0.032 -0.01287,-0.0329 -0.01144,-0.0336 -0.0098,-0.0343 -0.0083,-0.0348 -0.0064,-0.0358 -0.0045,-0.036 -0.0029,-0.0367 -7.15e-4,-0.0341 v -2.44873 l 7.15e-4,-0.0341 0.0029,-0.0367 0.0045,-0.036 0.0064,-0.0355 0.0083,-0.0351 0.0098,-0.0343 0.01144,-0.0336 0.01287,-0.0329 0.01454,-0.032 0.01621,-0.0313 0.0174,-0.0301 0.01883,-0.0294 0.02026,-0.0282 0.02169,-0.0272 0.02265,-0.0263 0.02408,-0.0251 0.02527,-0.0237 0.02622,-0.0227 0.02742,-0.0213 0.02861,-0.0201 0.02932,-0.0189 0.03051,-0.0173 0.03147,-0.0159 0.03218,-0.0147 0.0329,-0.0128 0.03385,-0.0114 0.03457,-0.01 0.03528,-0.008 0.036,-0.006 0.03623,-0.005 0.03695,-0.003 0.03433,-9.5e-4 z m -6.37413,0.22216 h 6.371269 v 0 c 0.277727,0 0.503008,0.22358 0.503008,0.49974 v 0 2.44304 0 c 0,0.27616 -0.225281,0.49974 -0.503008,0.49974 v 0 h -6.371269 v 0 c -0.277965,0 -0.503245,-0.22358 -0.503245,-0.49974 v 0 -2.44304 0 c 0,-0.27616 0.22528,-0.49974 0.503245,-0.49974 z"
       style="fill:#ffffff;fill-opacity:1;fill-rule:evenodd;stroke:none;stroke-width:0.26458332"
       inkscape:connector-curvature="0" />
  </g>
</svg>
