<?xml version="1.0" encoding="UTF-8" standalone="no"?>
<!-- Created with Inkscape (http://www.inkscape.org/) -->

<svg
   xmlns:dc="http://purl.org/dc/elements/1.1/"
   xmlns:cc="http://creativecommons.org/ns#"
   xmlns:rdf="http://www.w3.org/1999/02/22-rdf-syntax-ns#"
   xmlns:svg="http://www.w3.org/2000/svg"
   xmlns="http://www.w3.org/2000/svg"
   xmlns:sodipodi="http://sodipodi.sourceforge.net/DTD/sodipodi-0.dtd"
   xmlns:inkscape="http://www.inkscape.org/namespaces/inkscape"
   width="7.8760009mm"
   height="3.9383328mm"
   viewBox="0 0 7.8760008 3.9383327"
   version="1.1"
   id="svg8"
   inkscape:version="0.92.2 (5c3e80d, 2017-08-06)">
  <defs
     id="defs2">
    <pattern
       y="0"
       x="0"
       height="6"
       width="6"
       patternUnits="userSpaceOnUse"
       id="EMFhbasepattern" />
    <pattern
       y="0"
       x="0"
       height="6"
       width="6"
       patternUnits="userSpaceOnUse"
       id="EMFhbasepattern-0" />
    <pattern
       y="0"
       x="0"
       height="6"
       width="6"
       patternUnits="userSpaceOnUse"
       id="EMFhbasepattern-2" />
    <pattern
       y="0"
       x="0"
       height="6"
       width="6"
       patternUnits="userSpaceOnUse"
       id="EMFhbasepattern-6" />
    <pattern
       y="0"
       x="0"
       height="6"
       width="6"
       patternUnits="userSpaceOnUse"
       id="EMFhbasepattern-03" />
    <pattern
       y="0"
       x="0"
       height="6"
       width="6"
       patternUnits="userSpaceOnUse"
       id="EMFhbasepattern-5" />
    <pattern
       y="0"
       x="0"
       height="6"
       width="6"
       patternUnits="userSpaceOnUse"
       id="EMFhbasepattern-69" />
    <pattern
       y="0"
       x="0"
       height="6"
       width="6"
       patternUnits="userSpaceOnUse"
       id="EMFhbasepattern-54" />
    <pattern
       y="0"
       x="0"
       height="6"
       width="6"
       patternUnits="userSpaceOnUse"
       id="EMFhbasepattern-1" />
    <pattern
       y="0"
       x="0"
       height="6"
       width="6"
       patternUnits="userSpaceOnUse"
       id="EMFhbasepattern-05" />
    <pattern
       y="0"
       x="0"
       height="6"
       width="6"
       patternUnits="userSpaceOnUse"
       id="EMFhbasepattern-58" />
    <pattern
       y="0"
       x="0"
       height="6"
       width="6"
       patternUnits="userSpaceOnUse"
       id="EMFhbasepattern-23" />
    <pattern
       y="0"
       x="0"
       height="6"
       width="6"
       patternUnits="userSpaceOnUse"
       id="EMFhbasepattern-62" />
    <pattern
       y="0"
       x="0"
       height="6"
       width="6"
       patternUnits="userSpaceOnUse"
       id="EMFhbasepattern-3" />
    <pattern
       y="0"
       x="0"
       height="6"
       width="6"
       patternUnits="userSpaceOnUse"
       id="EMFhbasepattern-57" />
    <pattern
       y="0"
       x="0"
       height="6"
       width="6"
       patternUnits="userSpaceOnUse"
       id="EMFhbasepattern-7" />
    <pattern
       y="0"
       x="0"
       height="6"
       width="6"
       patternUnits="userSpaceOnUse"
       id="EMFhbasepattern-626" />
    <pattern
       y="0"
       x="0"
       height="6"
       width="6"
       patternUnits="userSpaceOnUse"
       id="EMFhbasepattern-13" />
    <pattern
       y="0"
       x="0"
       height="6"
       width="6"
       patternUnits="userSpaceOnUse"
       id="EMFhbasepattern-38" />
    <pattern
       y="0"
       x="0"
       height="6"
       width="6"
       patternUnits="userSpaceOnUse"
       id="EMFhbasepattern-20" />
    <pattern
       y="0"
       x="0"
       height="6"
       width="6"
       patternUnits="userSpaceOnUse"
       id="EMFhbasepattern-8" />
    <pattern
       y="0"
       x="0"
       height="6"
       width="6"
       patternUnits="userSpaceOnUse"
       id="EMFhbasepattern-80" />
    <pattern
       y="0"
       x="0"
       height="6"
       width="6"
       patternUnits="userSpaceOnUse"
       id="EMFhbasepattern-66" />
    <pattern
       y="0"
       x="0"
       height="6"
       width="6"
       patternUnits="userSpaceOnUse"
       id="EMFhbasepattern-9" />
    <pattern
       y="0"
       x="0"
       height="6"
       width="6"
       patternUnits="userSpaceOnUse"
       id="EMFhbasepattern-31" />
    <pattern
       y="0"
       x="0"
       height="6"
       width="6"
       patternUnits="userSpaceOnUse"
       id="EMFhbasepattern-82" />
    <pattern
       y="0"
       x="0"
       height="6"
       width="6"
       patternUnits="userSpaceOnUse"
       id="EMFhbasepattern-63" />
    <pattern
       y="0"
       x="0"
       height="6"
       width="6"
       patternUnits="userSpaceOnUse"
       id="EMFhbasepattern-98" />
  </defs>
  <sodipodi:namedview
     id="base"
     pagecolor="#ffffff"
     bordercolor="#666666"
     borderopacity="1.0"
     inkscape:pageopacity="0.0"
     inkscape:pageshadow="2"
     inkscape:zoom="5.6"
     inkscape:cx="41.086676"
     inkscape:cy="-3.6358814"
     inkscape:document-units="mm"
     inkscape:current-layer="layer1"
     showgrid="false"
     fit-margin-top="0"
     fit-margin-left="0"
     fit-margin-right="0"
     fit-margin-bottom="0"
     inkscape:window-width="1920"
     inkscape:window-height="1027"
     inkscape:window-x="-8"
     inkscape:window-y="-8"
     inkscape:window-maximized="1" />
  <metadata
     id="metadata5">
    <rdf:RDF>
      <cc:Work
         rdf:about="">
        <dc:format>image/svg+xml</dc:format>
        <dc:type
           rdf:resource="http://purl.org/dc/dcmitype/StillImage" />
        <dc:title></dc:title>
      </cc:Work>
    </rdf:RDF>
  </metadata>
  <g
     inkscape:label="Layer 1"
     inkscape:groupmode="layer"
     id="layer1"
     transform="translate(-12.031161,-161.08122)">
    <path
       id="path1508"
       d="m 12.056907,164.99381 v -3.88684 h 7.824508 v 3.88684 z"
       style="fill:#2b9fcf;fill-opacity:1;fill-rule:evenodd;stroke:none;stroke-width:0.26458332"
       inkscape:connector-curvature="0" />
    <path
       id="path1510"
       d="m 12.056907,164.99381 v -3.88684 h 7.824508 v 3.88684 z"
       style="fill:none;stroke:#231f20;stroke-width:0.05149271px;stroke-linecap:butt;stroke-linejoin:miter;stroke-miterlimit:4;stroke-dasharray:none;stroke-opacity:1"
       inkscape:connector-curvature="0" />
    <path
       id="path1512"
       d="m 13.062445,163.9742 c 0,-0.16413 0.134215,-0.29748 0.299659,-0.29748 0.165445,0 0.299659,0.13335 0.299659,0.29748 0,0.16461 -0.134214,0.29771 -0.299659,0.29771 -0.165444,0 -0.299659,-0.1331 -0.299659,-0.29771 z m 2.619215,-2.23202 -1.829421,1.80902 -0.128017,-2.4e-4 v -0.48553 c 0.01335,-0.08 -0.04458,-0.08 -0.04911,-0.08 -0.0045,0 -0.42839,-0.004 -0.620296,0 -0.08129,0 -0.113475,0.0424 -0.155193,0.0971 -0.08868,0.11677 -0.141844,0.17527 -0.227427,0.29227 -0.036,0.049 -0.06055,0.11487 -0.05626,0.15679 0.01478,0.14589 0.03266,0.28137 0.04744,0.37445 0.01788,0.0448 0.02718,0.0737 0.08344,0.0682 0,0 0.164491,0.004 0.240776,0 0,-0.0623 0.02217,-0.3574 0.376898,-0.3574 0.370223,0 0.385957,0.3574 0.385957,0.3574 v 0 h 1.062991 v 0 c 0,0 -0.01406,-0.36711 0.405505,-0.38724 0.419332,0.0282 0.417901,0.38724 0.417901,0.38724 v 0 l 0.331604,-0.12292 v -0.29772 l -0.733533,-9.4e-4 0.54115,-1.55464 0.61243,1.63374 h 0.108945 l -0.70421,-1.89048 z m -0.759756,2.22941 c 0,-0.16437 0.134215,-0.29771 0.299659,-0.29771 0.165444,0 0.299659,0.13334 0.299659,0.29771 0,0.16437 -0.134215,0.29772 -0.299659,0.29772 -0.165444,0 -0.299659,-0.13335 -0.299659,-0.29772 z m 0.136837,0 c 0,-0.0895 0.07271,-0.16176 0.162822,-0.16176 0.08987,0 0.16306,0.0722 0.16306,0.16176 0,0.0895 -0.07319,0.162 -0.16306,0.162 -0.09011,0 -0.162822,-0.0725 -0.162822,-0.162 z m -2.092368,-0.85145 c -0.0329,0.0424 -0.180939,0.23353 -0.210738,0.27592 -0.03004,0.0424 -0.04577,0.0623 0.01097,0.0623 0.0565,0 0.580723,0 0.650095,0 0.06913,0 0.08654,0.0114 0.08654,-0.0481 0,-0.0594 0,-0.26455 0,-0.30434 0,-0.0396 -0.0031,-0.0538 -0.04887,-0.0538 -0.04553,0 -0.294414,0 -0.328981,0 -0.09274,0 -0.110137,0.007 -0.159008,0.068 z m 0.232671,0.85406 c 0,-0.0893 0.07295,-0.16177 0.16306,-0.16177 0.08987,0 0.162822,0.0725 0.162822,0.16177 0,0.0895 -0.07295,0.162 -0.162822,0.162 -0.09011,0 -0.16306,-0.0725 -0.16306,-0.162 z m 1.830375,-0.42182 0.518503,-1.41538 -1.423439,1.41443 z"
       style="fill:#fcffff;fill-opacity:1;fill-rule:evenodd;stroke:none;stroke-width:0.26458332"
       inkscape:connector-curvature="0" />
    <path
       id="path1514"
       d="m 18.039358,162.96832 c 0.03504,0.002 0.686808,0.11677 0.686808,0.11677 0,0 0.03624,-0.003 0.06317,0.0483 0.123011,0.14448 0.208593,0.24845 0.208593,0.24845 0,0 0.03695,0.0419 0.02813,0.0708 -0.0031,0.049 -0.01621,0.10374 -0.01621,0.10374 v 0 l -1.438458,-0.25201 v 0 c 0,0 -0.06317,-0.027 -0.0029,-0.0864 0.06818,-0.0493 0.277727,-0.18024 0.388818,-0.24087 0.03862,-0.027 0.07342,-0.009 0.08201,-0.009 z m -1.263955,0.72332 c 0.01478,-0.0836 0.09512,-0.1395 0.17951,-0.12481 0.08415,0.0149 0.140413,0.0947 0.125632,0.17834 -0.01502,0.0836 -0.09536,0.1395 -0.179509,0.12482 -0.08415,-0.0147 -0.140413,-0.0945 -0.125633,-0.17835 z m 1.874239,0.32756 c 0.01478,-0.0836 0.09536,-0.1395 0.17951,-0.12482 0.08415,0.0147 0.140413,0.0945 0.125632,0.17835 -0.01478,0.0836 -0.09512,0.1395 -0.179509,0.12481 -0.08415,-0.0149 -0.140413,-0.0947 -0.125633,-0.17834 z m 0.63174,-0.19327 c 0.08511,0.0422 -0.04863,0.26077 -0.115382,0.24372 -0.03528,-0.002 -0.0894,-0.0135 -0.0894,-0.0135 0,0 0.02646,-0.24822 -0.240776,-0.29061 -0.266999,-0.0424 -0.31587,0.18213 -0.31587,0.18213 v 0 l -1.327367,-0.23234 v 0 c 0,0 0.02527,-0.22003 -0.22838,-0.26456 -0.211454,-0.0369 -0.274628,0.14993 -0.293699,0.1819 -0.05054,-0.004 -0.154002,-0.006 -0.129924,-0.13713 0.01645,-0.0767 0.0057,-0.0734 0.07033,-0.0978 0.03862,-0.0358 0.04744,-0.14139 0.248404,-0.15016 0.200726,-0.009 0.317777,-0.003 0.518503,-0.002 0,0 0.331842,-0.20558 0.602179,-0.36639 0.0174,-0.0182 0.04482,-0.01 0.04482,-0.01 0,0 0.558076,0.0943 0.920908,0.15963 0.02384,-0.003 0.05173,0.041 0.05173,0.041 0,0 0.211693,0.28089 0.318492,0.44739 0.02932,0.0265 -0.03933,0.2404 -0.03457,0.30837 z m -2.577496,-0.1466 c 0.02169,-0.12316 0.139936,-0.20534 0.263661,-0.18356 0.123726,0.0216 0.206448,0.13903 0.184516,0.26195 -0.02169,0.12316 -0.139936,0.20511 -0.263662,0.18356 -0.123725,-0.0218 -0.206447,-0.13903 -0.184515,-0.26195 z m 1.874239,0.32732 c 0.02169,-0.12293 0.139698,-0.20511 0.263662,-0.18356 0.123725,0.0218 0.206447,0.13903 0.184515,0.26195 -0.02169,0.12316 -0.139698,0.20535 -0.263662,0.18356 -0.123725,-0.0216 -0.206447,-0.13903 -0.184515,-0.26195 z"
       style="fill:#ffffff;fill-opacity:1;fill-rule:evenodd;stroke:none;stroke-width:0.26458332"
       inkscape:connector-curvature="0" />
    <path
       id="path1516"
       d="m 19.159325,161.10981 0.03433,7.1e-4 0.03695,0.003 0.03624,0.005 0.036,0.006 0.03504,0.008 0.03457,0.01 0.03385,0.0114 0.03314,0.0128 0.03218,0.0147 0.03147,0.0159 0.03051,0.0173 0.02932,0.0189 0.02837,0.0201 0.02765,0.0213 0.02622,0.0227 0.02503,0.0237 0.02408,0.0251 0.02289,0.0263 0.02145,0.027 0.02026,0.0284 0.01907,0.0291 0.0174,0.0303 0.01597,0.0313 0.01454,0.032 0.01311,0.0329 0.01144,0.0336 0.0098,0.0343 0.0081,0.0348 0.0064,0.0358 0.0048,0.036 0.0029,0.0365 7.15e-4,0.0343 v 2.44873 l -7.15e-4,0.0341 -0.0029,0.0367 -0.0048,0.036 -0.0064,0.0358 -0.0081,0.0348 -0.0098,0.0343 -0.01144,0.0336 -0.01311,0.0329 -0.01454,0.032 -0.01597,0.0313 -0.0174,0.0301 -0.01907,0.0294 -0.02026,0.0284 -0.02145,0.027 -0.02289,0.0263 -0.02408,0.0251 -0.02503,0.0237 -0.02622,0.0227 -0.02765,0.0213 -0.02837,0.0201 -0.02932,0.0187 -0.03051,0.0175 -0.03147,0.0159 -0.03218,0.0145 -0.03314,0.013 -0.03385,0.0114 -0.03457,0.01 -0.03504,0.008 -0.036,0.006 -0.03624,0.005 -0.03695,0.003 -0.03433,9.4e-4 h -6.377229 l -0.03433,-9.4e-4 -0.03671,-0.003 -0.03647,-0.005 -0.03576,-0.006 -0.03504,-0.008 -0.0348,-0.01 -0.03385,-0.0114 -0.0329,-0.013 -0.03242,-0.0145 -0.03123,-0.0159 -0.03051,-0.0175 -0.02932,-0.0187 -0.02861,-0.0201 -0.02742,-0.0213 -0.02622,-0.0227 -0.02527,-0.0237 -0.02408,-0.0251 -0.02265,-0.0263 -0.02169,-0.027 -0.02026,-0.0284 -0.01883,-0.0294 -0.0174,-0.0301 -0.01621,-0.0313 -0.01454,-0.032 -0.01287,-0.0329 -0.01168,-0.0336 -0.0098,-0.0343 -0.0081,-0.0348 -0.0064,-0.0358 -0.0045,-0.036 -0.0029,-0.0367 -7.15e-4,-0.0341 v -2.44873 l 7.15e-4,-0.0341 0.0029,-0.0367 0.0045,-0.036 0.0064,-0.0358 0.0081,-0.0348 0.0098,-0.0343 0.01168,-0.0336 0.01287,-0.0329 0.01454,-0.032 0.01621,-0.0313 0.0174,-0.0303 0.01883,-0.0291 0.02026,-0.0282 0.02169,-0.0272 0.02265,-0.0263 0.02408,-0.0251 0.02527,-0.0237 0.02622,-0.0227 0.02742,-0.0213 0.02861,-0.0201 0.02932,-0.0189 0.03051,-0.0173 0.03123,-0.0159 0.03242,-0.0147 0.0329,-0.0128 0.03385,-0.0114 0.0348,-0.01 0.03504,-0.008 0.03576,-0.006 0.03647,-0.005 0.03671,-0.003 0.03433,-7.1e-4 z m -6.374368,0.22192 h 6.371507 v 0 c 0.277965,0 0.503008,0.22382 0.503008,0.49998 v 0 2.44304 0 c 0,0.27593 -0.225043,0.49974 -0.503008,0.49974 v 0 h -6.371507 v 0 c -0.277727,0 -0.503007,-0.22381 -0.503007,-0.49974 v 0 -2.44304 0 c 0,-0.27616 0.22528,-0.49998 0.503007,-0.49998 z"
       style="fill:#fcffff;fill-opacity:1;fill-rule:evenodd;stroke:none;stroke-width:0.26458332"
       inkscape:connector-curvature="0" />
  </g>
</svg>
