<?xml version="1.0" encoding="UTF-8" standalone="no"?>
<!-- Created with Inkscape (http://www.inkscape.org/) -->

<svg
   xmlns:dc="http://purl.org/dc/elements/1.1/"
   xmlns:cc="http://creativecommons.org/ns#"
   xmlns:rdf="http://www.w3.org/1999/02/22-rdf-syntax-ns#"
   xmlns:svg="http://www.w3.org/2000/svg"
   xmlns="http://www.w3.org/2000/svg"
   xmlns:sodipodi="http://sodipodi.sourceforge.net/DTD/sodipodi-0.dtd"
   xmlns:inkscape="http://www.inkscape.org/namespaces/inkscape"
   width="22.375mm"
   height="7.8760061mm"
   viewBox="0 0 22.375 7.8760059"
   version="1.1"
   id="svg8"
   inkscape:version="0.92.2 (5c3e80d, 2017-08-06)">
  <defs
     id="defs2">
    <pattern
       y="0"
       x="0"
       height="6"
       width="6"
       patternUnits="userSpaceOnUse"
       id="EMFhbasepattern" />
    <pattern
       y="0"
       x="0"
       height="6"
       width="6"
       patternUnits="userSpaceOnUse"
       id="EMFhbasepattern-0" />
    <pattern
       y="0"
       x="0"
       height="6"
       width="6"
       patternUnits="userSpaceOnUse"
       id="EMFhbasepattern-2" />
    <pattern
       y="0"
       x="0"
       height="6"
       width="6"
       patternUnits="userSpaceOnUse"
       id="EMFhbasepattern-6" />
    <pattern
       y="0"
       x="0"
       height="6"
       width="6"
       patternUnits="userSpaceOnUse"
       id="EMFhbasepattern-03" />
    <pattern
       y="0"
       x="0"
       height="6"
       width="6"
       patternUnits="userSpaceOnUse"
       id="EMFhbasepattern-5" />
    <pattern
       y="0"
       x="0"
       height="6"
       width="6"
       patternUnits="userSpaceOnUse"
       id="EMFhbasepattern-69" />
    <pattern
       y="0"
       x="0"
       height="6"
       width="6"
       patternUnits="userSpaceOnUse"
       id="EMFhbasepattern-54" />
    <pattern
       y="0"
       x="0"
       height="6"
       width="6"
       patternUnits="userSpaceOnUse"
       id="EMFhbasepattern-1" />
    <pattern
       y="0"
       x="0"
       height="6"
       width="6"
       patternUnits="userSpaceOnUse"
       id="EMFhbasepattern-05" />
    <pattern
       y="0"
       x="0"
       height="6"
       width="6"
       patternUnits="userSpaceOnUse"
       id="EMFhbasepattern-58" />
    <pattern
       y="0"
       x="0"
       height="6"
       width="6"
       patternUnits="userSpaceOnUse"
       id="EMFhbasepattern-23" />
    <pattern
       y="0"
       x="0"
       height="6"
       width="6"
       patternUnits="userSpaceOnUse"
       id="EMFhbasepattern-62" />
    <pattern
       y="0"
       x="0"
       height="6"
       width="6"
       patternUnits="userSpaceOnUse"
       id="EMFhbasepattern-3" />
    <pattern
       y="0"
       x="0"
       height="6"
       width="6"
       patternUnits="userSpaceOnUse"
       id="EMFhbasepattern-57" />
    <pattern
       y="0"
       x="0"
       height="6"
       width="6"
       patternUnits="userSpaceOnUse"
       id="EMFhbasepattern-7" />
    <pattern
       y="0"
       x="0"
       height="6"
       width="6"
       patternUnits="userSpaceOnUse"
       id="EMFhbasepattern-626" />
    <pattern
       y="0"
       x="0"
       height="6"
       width="6"
       patternUnits="userSpaceOnUse"
       id="EMFhbasepattern-13" />
    <pattern
       y="0"
       x="0"
       height="6"
       width="6"
       patternUnits="userSpaceOnUse"
       id="EMFhbasepattern-38" />
    <pattern
       y="0"
       x="0"
       height="6"
       width="6"
       patternUnits="userSpaceOnUse"
       id="EMFhbasepattern-20" />
    <pattern
       y="0"
       x="0"
       height="6"
       width="6"
       patternUnits="userSpaceOnUse"
       id="EMFhbasepattern-8" />
    <pattern
       y="0"
       x="0"
       height="6"
       width="6"
       patternUnits="userSpaceOnUse"
       id="EMFhbasepattern-80" />
    <pattern
       y="0"
       x="0"
       height="6"
       width="6"
       patternUnits="userSpaceOnUse"
       id="EMFhbasepattern-66" />
    <pattern
       y="0"
       x="0"
       height="6"
       width="6"
       patternUnits="userSpaceOnUse"
       id="EMFhbasepattern-9" />
    <pattern
       y="0"
       x="0"
       height="6"
       width="6"
       patternUnits="userSpaceOnUse"
       id="EMFhbasepattern-31" />
    <pattern
       y="0"
       x="0"
       height="6"
       width="6"
       patternUnits="userSpaceOnUse"
       id="EMFhbasepattern-82" />
    <pattern
       y="0"
       x="0"
       height="6"
       width="6"
       patternUnits="userSpaceOnUse"
       id="EMFhbasepattern-63" />
    <pattern
       y="0"
       x="0"
       height="6"
       width="6"
       patternUnits="userSpaceOnUse"
       id="EMFhbasepattern-98" />
    <pattern
       y="0"
       x="0"
       height="6"
       width="6"
       patternUnits="userSpaceOnUse"
       id="EMFhbasepattern-4" />
  </defs>
  <sodipodi:namedview
     id="base"
     pagecolor="#ffffff"
     bordercolor="#666666"
     borderopacity="1.0"
     inkscape:pageopacity="0.0"
     inkscape:pageshadow="2"
     inkscape:zoom="5.6"
     inkscape:cx="55.512997"
     inkscape:cy="33.926463"
     inkscape:document-units="mm"
     inkscape:current-layer="layer1"
     showgrid="false"
     fit-margin-top="0"
     fit-margin-left="0"
     fit-margin-right="0"
     fit-margin-bottom="0"
     inkscape:window-width="1920"
     inkscape:window-height="1027"
     inkscape:window-x="-8"
     inkscape:window-y="-8"
     inkscape:window-maximized="1" />
  <metadata
     id="metadata5">
    <rdf:RDF>
      <cc:Work
         rdf:about="">
        <dc:format>image/svg+xml</dc:format>
        <dc:type
           rdf:resource="http://purl.org/dc/dcmitype/StillImage" />
        <dc:title></dc:title>
      </cc:Work>
    </rdf:RDF>
  </metadata>
  <g
     inkscape:label="Layer 1"
     inkscape:groupmode="layer"
     id="layer1"
     transform="translate(-8.2141967,-167.08192)">
    <path
       id="path1533"
       d="M 8.2194347,167.08406 H 30.587054 v 7.87172 H 8.2194347 Z"
       style="fill:#2b9fcf;fill-opacity:1;fill-rule:evenodd;stroke:none;stroke-width:0.26458332"
       inkscape:connector-curvature="0" />
    <path
       id="path1535"
       d="M 8.9649507,167.08406 H 29.838205 c 0.411926,0 0.748849,0.33686 0.748849,0.74847 v 6.37455 c 0,0.4116 -0.337161,0.7487 -0.748849,0.7487 H 8.9649507 c -0.411688,0 -0.748611,-0.33686 -0.748611,-0.7487 v -6.37455 c 0,-0.41161 0.336923,-0.74847 0.748611,-0.74847 z m 0,0.2145 c -0.293111,0 -0.533838,0.24067 -0.533838,0.53397 v 6.37455 c 0,0.29329 0.240727,0.53397 0.533838,0.53397 H 29.838205 c 0.293111,0 0.534076,-0.24068 0.534076,-0.53397 v -6.37455 c 0,-0.29306 -0.240727,-0.53397 -0.534076,-0.53397 z"
       style="fill:#fcffff;fill-opacity:1;fill-rule:evenodd;stroke:none;stroke-width:0.26458332"
       inkscape:connector-curvature="0" />
    <path
       id="path1537"
       d="M 8.9649507,167.08406 H 29.838205 c 0.411926,0 0.748849,0.33686 0.748849,0.74847 v 6.37455 c 0,0.4116 -0.337161,0.7487 -0.748849,0.7487 H 8.9649507 c -0.411688,0 -0.748611,-0.33686 -0.748611,-0.7487 v -6.37455 c 0,-0.41161 0.336923,-0.74847 0.748611,-0.74847 z m 0,0.2145 c -0.293111,0 -0.533838,0.24067 -0.533838,0.53397 v 6.37455 c 0,0.29329 0.240727,0.53397 0.533838,0.53397 H 29.838205 c 0.293111,0 0.534076,-0.24068 0.534076,-0.53397 v -6.37455 c 0,-0.29306 -0.240727,-0.53397 -0.534076,-0.53397 z"
       style="fill:none;stroke:#00adef;stroke-width:0.00428594px;stroke-linecap:butt;stroke-linejoin:miter;stroke-miterlimit:4;stroke-dasharray:none;stroke-opacity:1"
       inkscape:connector-curvature="0" />
    <path
       id="path1539"
       d="m 15.587208,172.95964 h 1.849861 v 0.89558 h -1.849861 z"
       style="fill:#fcffff;fill-opacity:1;fill-rule:evenodd;stroke:none;stroke-width:0.26458332"
       inkscape:connector-curvature="0" />
    <path
       id="path1541"
       d="m 21.366087,172.95964 h 1.850099 v 0.89558 h -1.850099 z"
       style="fill:#fcffff;fill-opacity:1;fill-rule:evenodd;stroke:none;stroke-width:0.26458332"
       inkscape:connector-curvature="0" />
    <path
       id="path1543"
       d="m 29.47009,172.89108 v -0.61182 l -0.832664,-0.8444 c -0.03857,-0.0326 -0.07215,-0.031 -0.120244,-0.0345 l -1.845574,0.0259 c -0.0831,0.006 -0.131674,0.0114 -0.197392,0.0688 l -0.91862,0.93058 -1.201731,0.21544 c -0.163104,0.0747 -0.197391,0.22688 -0.283348,0.35329 l -0.09453,0.0516 0.0086,0.21545 0.189058,0.20664 h 0.128578 c 0.02595,-0.31591 0.163342,-0.57135 0.58384,-0.59444 0.289063,0.0345 0.526457,0.1983 0.532171,0.59444 l 2.618235,-0.0345 c -0.0029,-0.379 0.277634,-0.59444 0.583841,-0.62015 0.303111,0.0114 0.529314,0.25544 0.549315,0.55135 0.234536,-0.0402 0.357638,-0.15807 0.369067,-0.40494 z m -0.712657,-0.47398 -0.0086,-0.20688 -0.480502,-0.51683 c -0.07572,-0.0721 -0.144055,-0.10903 -0.249061,-0.12069 l -1.356234,0.0345 c -0.07453,0.008 -0.133817,0.0219 -0.197392,0.0776 l -0.592412,0.62896 c -0.07167,0.0712 -0.03191,0.13141 0.06,0.12903 z m -0.154294,0.71608 c -0.13715,0 -0.249061,0.11189 -0.249061,0.24878 0,0.13712 0.111911,0.24901 0.249061,0.24901 0.136912,0 0.248823,-0.11189 0.248823,-0.24901 0,-0.13689 -0.111911,-0.24878 -0.248823,-0.24878 z m -3.739961,0.0581 c -0.132864,0 -0.241203,0.1057 -0.241203,0.23497 0,0.12926 0.108339,0.23473 0.241203,0.23473 0.132626,0 0.240965,-0.10547 0.240965,-0.23473 0,-0.12927 -0.108339,-0.23497 -0.240965,-0.23497 z m 3.748533,-0.28115 c -0.25549,0 -0.463596,0.20807 -0.463596,0.46327 0,0.2552 0.208106,0.4635 0.463596,0.4635 0.255252,0 0.463358,-0.2083 0.463358,-0.4635 0,-0.2552 -0.208106,-0.46327 -0.463358,-0.46327 z m -3.740199,0.0707 c -0.247394,0 -0.449072,0.1964 -0.449072,0.43731 0,0.24068 0.201678,0.43708 0.449072,0.43708 0.247156,0 0.448833,-0.1964 0.448833,-0.43708 0,-0.24091 -0.201677,-0.43731 -0.448833,-0.43731 z"
       style="fill:#fcffff;fill-opacity:1;fill-rule:evenodd;stroke:none;stroke-width:0.26458332"
       inkscape:connector-curvature="0" />
    <path
       id="path1545"
       d="m 14.758593,172.89108 v -0.61182 l -0.832663,-0.8444 c -0.03857,-0.0326 -0.07215,-0.031 -0.120245,-0.0345 l -1.845574,0.0259 c -0.08286,0.006 -0.131674,0.0114 -0.197392,0.0688 l -0.91862,0.93058 -1.2017313,0.21544 c -0.163104,0.0747 -0.197391,0.22688 -0.283348,0.35329 l -0.09429,0.0516 0.0086,0.21545 0.18882,0.20664 h 0.128816 c 0.02572,-0.31591 0.163104,-0.57135 0.5836023,-0.59444 0.289063,0.0345 0.526457,0.1983 0.532172,0.59444 l 2.618234,-0.0345 c -0.0029,-0.379 0.277634,-0.59444 0.583841,-0.62015 0.303349,0.0114 0.529314,0.25544 0.549315,0.55135 0.234536,-0.0402 0.357638,-0.15807 0.369067,-0.40494 z m -0.712419,-0.47398 -0.0088,-0.20688 -0.480502,-0.51683 c -0.07572,-0.0721 -0.144055,-0.10903 -0.249061,-0.12069 l -1.356262,0.0345 c -0.07429,0.008 -0.133817,0.0219 -0.197392,0.0776 l -0.592412,0.62896 c -0.07167,0.0712 -0.03191,0.13141 0.06,0.12903 z m -0.154532,0.71608 c -0.13715,0 -0.249061,0.11189 -0.249061,0.24878 0,0.13712 0.111911,0.24901 0.249061,0.24901 0.13715,0 0.248823,-0.11189 0.248823,-0.24901 0,-0.13689 -0.111673,-0.24878 -0.248823,-0.24878 z m -3.739961,0.0581 c -0.132864,0 -0.2412033,0.1057 -0.2412033,0.23497 0,0.12926 0.1083393,0.23473 0.2412033,0.23473 0.132626,0 0.240965,-0.10547 0.240965,-0.23473 0,-0.12927 -0.108339,-0.23497 -0.240965,-0.23497 z m 3.748533,-0.28115 c -0.25549,0 -0.463596,0.20807 -0.463596,0.46327 0,0.2552 0.208106,0.4635 0.463596,0.4635 0.255251,0 0.463358,-0.2083 0.463358,-0.4635 0,-0.2552 -0.208107,-0.46327 -0.463358,-0.46327 z m -3.740199,0.0707 c -0.2473943,0 -0.4490723,0.1964 -0.4490723,0.43731 0,0.24068 0.201678,0.43708 0.4490723,0.43708 0.247156,0 0.448833,-0.1964 0.448833,-0.43708 0,-0.24091 -0.201677,-0.43731 -0.448833,-0.43731 z"
       style="fill:#fcffff;fill-opacity:1;fill-rule:evenodd;stroke:none;stroke-width:0.26458332"
       inkscape:connector-curvature="0" />
    <path
       id="path1547"
       d="m 9.2613957,169.99935 v -1.78498 h 0.294301 v 0.703 h 0.5807453 v -0.703 h 0.294302 v 1.78498 h -0.294302 v -0.78036 H 9.5556967 v 0.78036 z"
       style="fill:#fcffff;fill-opacity:1;fill-rule:evenodd;stroke:none;stroke-width:0.26458332"
       inkscape:connector-curvature="0" />
    <path
       id="path1549"
       d="m 10.933151,169.11782 c 0,-0.21235 0.03143,-0.38733 0.09429,-0.52493 0.06262,-0.13736 0.145008,-0.23996 0.246442,-0.30734 0.101434,-0.0674 0.224297,-0.10093 0.368591,-0.10093 0.209535,0 0.379782,0.0798 0.511455,0.23972 0.131912,0.15998 0.197868,0.38709 0.197868,0.68252 0,0.29829 -0.06977,0.53183 -0.209297,0.69966 -0.122387,0.14832 -0.289063,0.22283 -0.498836,0.22283 -0.211916,0 -0.379068,-0.0736 -0.501217,-0.22021 -0.139531,-0.16783 -0.209297,-0.39851 -0.209296,-0.69132 z m 0.304064,-0.0121 c 0,0.20497 0.03905,0.35852 0.116911,0.46065 0.0781,0.10261 0.174771,0.15379 0.290015,0.15379 0.116197,0 0.212631,-0.0507 0.288825,-0.15236 0.07643,-0.10141 0.11453,-0.25758 0.11453,-0.46827 0,-0.20616 -0.03691,-0.35899 -0.111196,-0.45755 -0.07453,-0.0988 -0.171676,-0.14831 -0.292159,-0.14831 -0.120244,0 -0.217868,0.05 -0.293349,0.14926 -0.07572,0.0998 -0.113577,0.25378 -0.113577,0.46279 z"
       style="fill:#fcffff;fill-opacity:1;fill-rule:evenodd;stroke:none;stroke-width:0.26458332"
       inkscape:connector-curvature="0" />
    <path
       id="path1551"
       d="m 12.829919,169.99935 v -1.78498 h 0.294301 v 1.78498 z"
       style="fill:#fcffff;fill-opacity:1;fill-rule:evenodd;stroke:none;stroke-width:0.26458332"
       inkscape:connector-curvature="0" />
    <path
       id="path1553"
       d="M 14.983367,169.99935 H 14.66335 L 14.538105,169.5956 H 13.94974 l -0.120959,0.40375 h -0.314064 l 0.56884,-1.78498 h 0.315017 z m -0.541696,-0.70537 -0.20263,-0.66276 -0.198582,0.66276 z"
       style="fill:#fcffff;fill-opacity:1;fill-rule:evenodd;stroke:none;stroke-width:0.26458332"
       inkscape:connector-curvature="0" />
    <path
       id="path1555"
       d="m 16.145809,169.99935 v -1.78498 h 0.475026 c 0.176914,0 0.292872,0.009 0.347399,0.0257 0.08667,0.0276 0.158342,0.0866 0.214774,0.17664 0.05643,0.0898 0.08477,0.20616 0.08477,0.34828 0,0.12879 -0.02453,0.23711 -0.0731,0.32448 -0.04857,0.0871 -0.109768,0.14831 -0.182867,0.18354 -0.0731,0.0355 -0.199058,0.0533 -0.377639,0.0533 h -0.194058 v 0.67299 z m 0.294302,-1.48311 v 0.50849 h 0.164056 c 0.10953,0 0.18501,-0.008 0.224298,-0.0233 0.03953,-0.0155 0.07191,-0.0433 0.09739,-0.0836 0.02524,-0.0407 0.03762,-0.0902 0.03762,-0.14878 0,-0.0593 -0.01286,-0.10951 -0.03905,-0.15046 -0.02595,-0.0407 -0.05857,-0.0681 -0.09667,-0.0817 -0.03834,-0.0138 -0.119291,-0.0207 -0.243584,-0.0207 z"
       style="fill:#fcffff;fill-opacity:1;fill-rule:evenodd;stroke:none;stroke-width:0.26458332"
       inkscape:connector-curvature="0" />
    <path
       id="path1557"
       d="m 17.755181,169.99935 v -1.78498 h 0.294063 v 1.78498 z"
       style="fill:#fcffff;fill-opacity:1;fill-rule:evenodd;stroke:none;stroke-width:0.26458332"
       inkscape:connector-curvature="0" />
    <path
       id="path1559"
       d="m 18.594273,169.99935 v -1.78498 h 0.294301 v 0.79322 l 0.600509,-0.79322 h 0.398116 l -0.552648,0.69395 0.58003,1.09103 h -0.382639 l -0.403117,-0.83845 -0.240251,0.29996 v 0.53849 z"
       style="fill:#fcffff;fill-opacity:1;fill-rule:evenodd;stroke:none;stroke-width:0.26458332"
       inkscape:connector-curvature="0" />
    <path
       id="path1561"
       d="m 20.311031,169.99935 v -1.78498 h 0.294063 v 1.78498 z"
       style="fill:#fcffff;fill-opacity:1;fill-rule:evenodd;stroke:none;stroke-width:0.26458332"
       inkscape:connector-curvature="0" />
    <path
       id="path1563"
       d="m 21.519667,169.99935 -0.524076,-1.78498 h 0.316684 l 0.372639,1.32124 0.355019,-1.32124 h 0.316921 l -0.518599,1.78498 z"
       style="fill:#fcffff;fill-opacity:1;fill-rule:evenodd;stroke:none;stroke-width:0.26458332"
       inkscape:connector-curvature="0" />
    <path
       id="path1565"
       d="m 23.933843,169.99935 h -0.320017 l -0.125007,-0.40375 h -0.588602 l -0.120721,0.40375 h -0.314303 l 0.56884,-1.78498 h 0.315017 z m -0.541458,-0.70537 -0.202867,-0.66276 -0.198582,0.66276 z"
       style="fill:#fcffff;fill-opacity:1;fill-rule:evenodd;stroke:none;stroke-width:0.26458332"
       inkscape:connector-curvature="0" />
    <path
       id="path1567"
       d="m 24.346484,169.99935 v -1.78498 h 0.294063 v 0.703 h 0.580983 v -0.703 h 0.294302 v 1.78498 H 25.22153 v -0.78036 h -0.580983 v 0.78036 z"
       style="fill:#fcffff;fill-opacity:1;fill-rule:evenodd;stroke:none;stroke-width:0.26458332"
       inkscape:connector-curvature="0" />
    <path
       id="path1569"
       d="m 26.078004,169.99935 v -1.78498 h 1.084582 v 0.30187 h -0.790518 v 0.39375 h 0.735515 v 0.30162 h -0.735515 v 0.48612 h 0.817901 v 0.30162 z"
       style="fill:#fcffff;fill-opacity:1;fill-rule:evenodd;stroke:none;stroke-width:0.26458332"
       inkscape:connector-curvature="0" />
    <path
       id="path1571"
       d="m 28.026204,169.99935 v -1.48311 h -0.433833 v -0.30187 h 1.161966 v 0.30187 h -0.433832 v 1.48311 z"
       style="fill:#fcffff;fill-opacity:1;fill-rule:evenodd;stroke:none;stroke-width:0.26458332"
       inkscape:connector-curvature="0" />
    <path
       id="path1573"
       d="m 29.312224,169.54061 -0.07215,-0.90701 -0.0031,-0.41923 h 0.304302 l -0.0024,0.41923 -0.07239,0.90701 z m -0.06262,0.45874 -0.0026,-0.34138 h 0.286444 l -0.0021,0.34138 z"
       style="fill:#fcffff;fill-opacity:1;fill-rule:evenodd;stroke:none;stroke-width:0.26458332"
       inkscape:connector-curvature="0" />
  </g>
</svg>
