<?xml version="1.0" encoding="UTF-8" standalone="no"?>
<!-- Created with Inkscape (http://www.inkscape.org/) -->

<svg
   xmlns:dc="http://purl.org/dc/elements/1.1/"
   xmlns:cc="http://creativecommons.org/ns#"
   xmlns:rdf="http://www.w3.org/1999/02/22-rdf-syntax-ns#"
   xmlns:svg="http://www.w3.org/2000/svg"
   xmlns="http://www.w3.org/2000/svg"
   xmlns:sodipodi="http://sodipodi.sourceforge.net/DTD/sodipodi-0.dtd"
   xmlns:inkscape="http://www.inkscape.org/namespaces/inkscape"
   width="21.837999mm"
   height="23.628084mm"
   viewBox="0 0 21.838 23.628084"
   version="1.1"
   id="svg8"
   inkscape:version="0.92.2 (5c3e80d, 2017-08-06)">
  <defs
     id="defs2">
    <pattern
       y="0"
       x="0"
       height="6"
       width="6"
       patternUnits="userSpaceOnUse"
       id="EMFhbasepattern" />
    <pattern
       y="0"
       x="0"
       height="6"
       width="6"
       patternUnits="userSpaceOnUse"
       id="EMFhbasepattern-7" />
    <pattern
       y="0"
       x="0"
       height="6"
       width="6"
       patternUnits="userSpaceOnUse"
       id="EMFhbasepattern-1" />
  </defs>
  <sodipodi:namedview
     id="base"
     pagecolor="#ffffff"
     bordercolor="#666666"
     borderopacity="1.0"
     inkscape:pageopacity="0.0"
     inkscape:pageshadow="2"
     inkscape:zoom="11.2"
     inkscape:cx="33.238366"
     inkscape:cy="32.383375"
     inkscape:document-units="mm"
     inkscape:current-layer="layer1"
     showgrid="false"
     fit-margin-top="0"
     fit-margin-left="0"
     fit-margin-right="0"
     fit-margin-bottom="0"
     inkscape:window-width="1920"
     inkscape:window-height="1027"
     inkscape:window-x="-8"
     inkscape:window-y="-8"
     inkscape:window-maximized="1" />
  <metadata
     id="metadata5">
    <rdf:RDF>
      <cc:Work
         rdf:about="">
        <dc:format>image/svg+xml</dc:format>
        <dc:type
           rdf:resource="http://purl.org/dc/dcmitype/StillImage" />
        <dc:title></dc:title>
      </cc:Work>
    </rdf:RDF>
  </metadata>
  <g
     inkscape:label="Layer 1"
     inkscape:groupmode="layer"
     id="layer1"
     transform="translate(-60.469009,-126.50956)">
    <path
       id="path886"
       d="m 60.494751,126.5353 h 21.786516 v 23.5766 H 60.494751 Z"
       style="fill:#00adef;fill-opacity:1;fill-rule:evenodd;stroke:none;stroke-width:0.26458332"
       inkscape:connector-curvature="0" />
    <path
       id="path888"
       d="m 60.494751,126.5353 h 21.786516 v 23.5766 H 60.494751 Z"
       style="fill:none;stroke:#231f20;stroke-width:0.05148392px;stroke-linecap:butt;stroke-linejoin:miter;stroke-miterlimit:4;stroke-dasharray:none;stroke-opacity:1"
       inkscape:connector-curvature="0" />
    <path
       id="path890"
       d="m 70.252383,140.78098 h 1.002507 1.671082 l 0.0086,-0.006 c 0.01835,4.7e-4 0.03694,7.1e-4 0.05554,7.1e-4 1.508288,0 2.73842,-1.40962 2.73842,-2.91563 0,-1.50601 -1.230132,-2.73452 -2.73842,-2.73452 -0.665239,0 -1.276372,0.23918 -1.751883,0.63568 v -2.85423 h 0.876418 l -1.369329,-2.36777 -1.369091,2.36777 h 0.87618 v 3.96255 c -2.38e-4,0.0155 -7.15e-4,0.0307 -7.15e-4,0.0462 h 7.15e-4 v 2.517 h 0.985822 v -1.78541 c 0.105828,-0.87081 0.851868,-1.54932 1.751883,-1.54932 0.971998,0 1.764755,0.79155 1.764755,1.76208 0,0.91865 -0.710049,1.858 -1.610065,1.93654 h -1.856305 -1.036114 -3.644394 v -0.87534 l -2.371597,1.36726 2.371597,1.36703 v -0.8746 z m 0,0.36603 0.985822,-2.4e-4 v 3.15433 l 3.833645,-3.82761 c 0.358242,-0.3577 0.855682,-0.66018 1.481831,-0.66018 h 1.37219 v -0.87462 l 2.371597,1.36726 -2.371597,1.36726 v -0.87533 h -1.053037 c -0.492434,0 -0.884284,0.15255 -1.203437,0.47098 l -4.431192,4.42449 v 2.82639 h -0.985822 z"
       style="fill:#fcffff;fill-opacity:1;fill-rule:evenodd;stroke:none;stroke-width:0.26458332"
       inkscape:connector-curvature="0" />
    <path
       id="path892"
       d="m 64.66757,148.14514 0.214278,-0.0286 c 0.0057,0.0597 0.02384,0.10686 0.05506,0.14113 0.03099,0.0345 0.06555,0.0516 0.10273,0.0516 0.04433,0 0.08223,-0.0219 0.11417,-0.0654 0.03146,-0.0438 0.04743,-0.1109 0.04743,-0.2011 0,-0.0854 -0.01573,-0.14874 -0.04719,-0.18944 -0.03146,-0.0412 -0.07174,-0.0614 -0.12013,-0.0614 -0.06173,0 -0.117269,0.0331 -0.166369,0.0992 l -0.175188,-0.0307 0.111072,-0.71231 h 0.567991 v 0.24442 H 64.96861 l -0.03623,0.23299 c 0.04839,-0.0293 0.09772,-0.0438 0.147539,-0.0438 0.08819,0 0.163033,0.0347 0.224527,0.10448 0.07794,0.0888 0.116792,0.20586 0.116792,0.35128 0,0.11994 -0.03313,0.23013 -0.09939,0.33104 -0.06602,0.10067 -0.160649,0.15089 -0.283638,0.15089 -0.09987,0 -0.182816,-0.0326 -0.249793,-0.0973 -0.06698,-0.065 -0.10702,-0.15731 -0.120844,-0.27702 z"
       style="fill:#fcffff;fill-opacity:1;fill-rule:evenodd;stroke:none;stroke-width:0.26458332"
       inkscape:connector-curvature="0" />
    <path
       id="path894"
       d="m 66.205414,147.12535 c 0.108688,0 0.19664,0.0514 0.263855,0.15493 0.06721,0.10352 0.100823,0.2844 0.100823,0.54238 0,0.25774 -0.03361,0.43838 -0.100823,0.54191 -0.06722,0.10328 -0.154929,0.15493 -0.262902,0.15493 -0.109165,0 -0.197116,-0.0512 -0.264332,-0.15374 -0.06722,-0.10258 -0.100822,-0.28417 -0.100822,-0.54548 0,-0.25655 0.03361,-0.43648 0.100822,-0.54 0.06722,-0.10353 0.154929,-0.15493 0.263379,-0.15493 z m 2.38e-4,0.21776 c -0.04219,0 -0.0758,0.0281 -0.101061,0.0835 -0.02526,0.0559 -0.03766,0.18802 -0.03766,0.39602 0,0.20848 0.01239,0.34033 0.03766,0.39602 0.02527,0.0555 0.05887,0.0831 0.101061,0.0831 0.04266,0 0.07651,-0.0281 0.1013,-0.0838 0.02503,-0.0557 0.03742,-0.1873 0.03742,-0.3953 0,-0.208 -0.01239,-0.34009 -0.03742,-0.39602 -0.02479,-0.0554 -0.05864,-0.0835 -0.1013,-0.0835 z"
       style="fill:#fcffff;fill-opacity:1;fill-rule:evenodd;stroke:none;stroke-width:0.26458332"
       inkscape:connector-curvature="0" />
    <path
       id="path896"
       d="m 67.229848,147.12535 c 0.108689,0 0.19664,0.0514 0.263856,0.15493 0.06721,0.10352 0.100822,0.2844 0.100822,0.54238 0,0.25774 -0.03361,0.43838 -0.100822,0.54191 -0.06722,0.10328 -0.154929,0.15493 -0.262902,0.15493 -0.108927,0 -0.197117,-0.0512 -0.264332,-0.15374 -0.06721,-0.10258 -0.100584,-0.28417 -0.100584,-0.54548 0,-0.25655 0.03337,-0.43648 0.100584,-0.54 0.06722,-0.10353 0.154929,-0.15493 0.263378,-0.15493 z m 2.39e-4,0.21776 c -0.04195,0 -0.0758,0.0281 -0.101061,0.0835 -0.02527,0.0559 -0.03766,0.18802 -0.03766,0.39602 0,0.20848 0.01239,0.34033 0.03766,0.39602 0.02526,0.0555 0.05911,0.0831 0.101061,0.0831 0.04267,0 0.07651,-0.0281 0.101299,-0.0838 0.02503,-0.0557 0.03742,-0.1873 0.03742,-0.3953 0,-0.208 -0.01239,-0.34009 -0.03742,-0.39602 -0.02479,-0.0554 -0.05863,-0.0835 -0.101299,-0.0835 z"
       style="fill:#fcffff;fill-opacity:1;fill-rule:evenodd;stroke:none;stroke-width:0.26458332"
       inkscape:connector-curvature="0" />
    <path
       id="path898"
       d="m 68.377749,147.50542 h 0.20093 v 0.13518 c 0.03551,-0.0528 0.07437,-0.0926 0.116793,-0.11876 0.04219,-0.0264 0.08819,-0.0393 0.13729,-0.0393 0.0522,0 0.09749,0.0128 0.13586,0.039 0.03814,0.0262 0.06984,0.0654 0.09391,0.11828 0.03599,-0.0528 0.07508,-0.0921 0.116077,-0.11828 0.04147,-0.0262 0.08557,-0.039 0.132285,-0.039 0.05554,0 0.103206,0.0133 0.143488,0.0397 0.04028,0.0264 0.07055,0.0642 0.09153,0.11328 0.02074,0.0493 0.03122,0.12471 0.03122,0.2268 v 0.63425 h -0.216185 v -0.56689 c 0,-0.099 -0.0088,-0.16493 -0.02646,-0.19777 -0.0174,-0.0328 -0.04672,-0.049 -0.08819,-0.049 -0.04815,0 -0.087,0.0229 -0.116316,0.0688 -0.02979,0.0454 -0.04433,0.13518 -0.04433,0.26845 v 0.47646 h -0.216185 v -0.54381 c 0,-0.10757 -0.0062,-0.1773 -0.01788,-0.208 -0.01526,-0.0412 -0.04696,-0.0619 -0.09415,-0.0619 -0.0317,0 -0.06102,0.0105 -0.08795,0.0319 -0.0267,0.0209 -0.04576,0.0521 -0.05768,0.0928 -0.01168,0.0409 -0.01788,0.10995 -0.01788,0.20705 v 0.48193 h -0.216185 z"
       style="fill:#fcffff;fill-opacity:1;fill-rule:evenodd;stroke:none;stroke-width:0.26458332"
       inkscape:connector-curvature="0" />
    <path
       id="path900"
       d="m 61.246035,126.5353 h 20.283948 l 0.03766,10e-4 0.041,0.004 0.04052,0.006 0.03957,0.009 0.03885,0.011 0.03766,0.0133 0.03671,0.0155 0.03575,0.0174 0.03432,0.019 0.03313,0.0212 0.03194,0.0224 0.03051,0.0243 0.02932,0.0257 0.02789,0.0269 0.02646,0.0283 0.02527,0.0295 0.02383,0.0307 0.02241,0.0319 0.02097,0.0328 0.01978,0.034 0.01811,0.0348 0.01692,0.0359 0.01525,0.0367 0.01382,0.0374 0.01216,0.0383 0.01096,0.0388 0.0091,0.0397 0.0076,0.0402 0.006,0.0409 0.0043,0.0414 0.0026,0.0419 9.53e-4,0.0397 v 21.83664 l -9.53e-4,0.04 -0.0026,0.0419 -0.0043,0.0414 -0.006,0.0409 -0.0076,0.0402 -0.0091,0.0395 -0.01096,0.039 -0.01216,0.0383 -0.01382,0.0374 -0.01525,0.0367 -0.01692,0.0357 -0.01811,0.035 -0.01978,0.0338 -0.02097,0.0331 -0.02241,0.0317 -0.02383,0.0309 -0.02527,0.0295 -0.02646,0.0283 -0.02789,0.0269 -0.02932,0.0257 -0.03051,0.024 -0.03194,0.0226 -0.03313,0.0209 -0.03432,0.0193 -0.03575,0.0174 -0.03671,0.0155 -0.03766,0.0131 -0.03885,0.0112 -0.03957,0.009 -0.04052,0.006 -0.041,0.004 -0.03766,10e-4 H 61.246035 l -0.03766,-10e-4 -0.04124,-0.004 -0.04028,-0.006 -0.03981,-0.009 -0.03861,-0.0112 -0.0379,-0.0131 -0.03671,-0.0155 -0.03551,-0.0174 -0.03456,-0.019 -0.03313,-0.0212 -0.0317,-0.0226 -0.03075,-0.024 -0.02908,-0.0257 -0.02789,-0.0269 -0.0267,-0.0283 -0.02503,-0.0295 -0.02407,-0.0309 -0.0224,-0.0317 -0.02098,-0.0331 -0.01954,-0.0338 -0.01835,-0.035 -0.01668,-0.0357 -0.01525,-0.0367 -0.01382,-0.0374 -0.01239,-0.0383 -0.01073,-0.039 -0.0093,-0.0395 -0.0076,-0.0405 -0.006,-0.0407 -0.0043,-0.0414 -0.0026,-0.0419 -7.15e-4,-0.04 V 127.4048 l 7.15e-4,-0.0397 0.0026,-0.0419 0.0043,-0.0414 0.006,-0.0409 0.0076,-0.0402 0.0093,-0.0397 0.01073,-0.0388 0.01239,-0.0383 0.01382,-0.0374 0.01525,-0.0367 0.01668,-0.0359 0.01835,-0.0348 0.01954,-0.034 0.02098,-0.0328 0.0224,-0.0319 0.02407,-0.0307 0.02503,-0.0295 0.0267,-0.0283 0.02789,-0.0269 0.02908,-0.0257 0.03075,-0.0243 0.0317,-0.0224 0.03313,-0.0212 0.03456,-0.019 0.03551,-0.0174 0.03671,-0.0155 0.0379,-0.0133 0.03861,-0.011 0.03981,-0.009 0.04028,-0.006 0.04124,-0.004 z m 0.0038,0.24299 h 20.276083 c 0.281493,0 0.511741,0.28321 0.511741,0.62949 v 21.83164 c 0,0.34604 -0.230248,0.62925 -0.511741,0.62925 h -20.27607 c -0.281493,0 -0.51174,-0.28321 -0.51174,-0.62925 v -21.83164 c 0,-0.34628 0.230247,-0.62949 0.51174,-0.62949 z"
       style="fill:#fcffff;fill-opacity:1;fill-rule:evenodd;stroke:none;stroke-width:0.26458332"
       inkscape:connector-curvature="0" />
    <path
       id="path902"
       d="m 75.341664,144.37417 -0.534861,-1.81921 h 0.322967 l 0.380647,1.34656 0.362056,-1.34656 h 0.323681 l -0.529379,1.81921 z"
       style="fill:#fcffff;fill-opacity:1;fill-rule:evenodd;stroke:none;stroke-width:0.26458332"
       inkscape:connector-curvature="0" />
    <path
       id="path904"
       d="m 76.550821,143.47551 c 0,-0.21633 0.03242,-0.39459 0.09629,-0.53476 0.06412,-0.14018 0.148016,-0.2449 0.251461,-0.31344 0.103444,-0.0685 0.229055,-0.10281 0.376357,-0.10281 0.213563,0 0.387559,0.0814 0.52199,0.24418 0.13443,0.16326 0.201883,0.39483 0.201883,0.69589 0,0.30415 -0.07127,0.54214 -0.213801,0.71302 -0.124658,0.15136 -0.294841,0.22704 -0.50888,0.22704 -0.216424,0 -0.386845,-0.075 -0.511503,-0.22442 -0.142534,-0.17112 -0.213801,-0.40602 -0.213801,-0.7047 z m 0.310572,-0.0121 c 0,0.20871 0.03981,0.36531 0.118937,0.46955 0.07985,0.10448 0.178764,0.1566 0.296271,0.1566 0.118699,0 0.217138,-0.0516 0.294603,-0.15541 0.07794,-0.10329 0.11703,-0.2625 0.11703,-0.47717 0,-0.20991 -0.03766,-0.36579 -0.113693,-0.46622 -0.0758,-0.10091 -0.17495,-0.15113 -0.29794,-0.15113 -0.122751,0 -0.222382,0.0507 -0.299608,0.15184 -0.07699,0.10162 -0.1156,0.25893 -0.1156,0.47194 z m 0.185676,-1.04812 h -0.129664 l -0.0014,-0.0407 c 0,-0.0902 0.01788,-0.15779 0.05315,-0.20372 0.03551,-0.0452 0.08009,-0.0681 0.13443,-0.0681 0.02312,0 0.04529,0.003 0.06602,0.01 0.02121,0.007 0.05482,0.0226 0.101538,0.0476 0.06173,0.0331 0.107735,0.0495 0.137291,0.0495 0.04791,0 0.07556,-0.0364 0.0839,-0.10924 h 0.129902 c -9.54e-4,0.11305 -0.01835,0.19301 -0.05172,0.24085 -0.03361,0.0478 -0.07675,0.0716 -0.130379,0.0716 -0.02193,0 -0.04409,-0.003 -0.06555,-0.009 -0.01573,-0.004 -0.0522,-0.0193 -0.109404,-0.0452 -0.06936,-0.0319 -0.117984,-0.0478 -0.147301,-0.0478 -0.02074,0 -0.03718,0.008 -0.05029,0.0233 -0.01287,0.0157 -0.01955,0.0424 -0.0205,0.0809 z"
       style="fill:#fcffff;fill-opacity:1;fill-rule:evenodd;stroke:none;stroke-width:0.26458332"
       inkscape:connector-curvature="0" />
    <path
       id="path906"
       d="m 78.42045,143.78228 0.292696,-0.0357 c 0.03313,0.23204 0.142057,0.34818 0.326541,0.34818 0.09177,0 0.163271,-0.0238 0.215946,-0.0712 0.0522,-0.0476 0.07842,-0.10638 0.07842,-0.17659 0,-0.0417 -0.0093,-0.0764 -0.02765,-0.10543 -0.01811,-0.0288 -0.046,-0.0526 -0.08342,-0.0712 -0.03742,-0.0186 -0.127994,-0.05 -0.271482,-0.0938 -0.128471,-0.0388 -0.22262,-0.0807 -0.282446,-0.12614 -0.05935,-0.0457 -0.106782,-0.10543 -0.142058,-0.1792 -0.03528,-0.074 -0.05291,-0.15351 -0.05291,-0.23871 0,-0.099 0.02241,-0.18849 0.06769,-0.2675 0.04552,-0.0792 0.107735,-0.13946 0.187582,-0.18016 0.07961,-0.0402 0.178049,-0.0604 0.29508,-0.0604 0.176141,0 0.313432,0.0474 0.412348,0.14256 0.09868,0.0954 0.150876,0.2318 0.156835,0.40887 l -0.302706,0.0152 c -0.01335,-0.0971 -0.04219,-0.16517 -0.08605,-0.20372 -0.04433,-0.0386 -0.10702,-0.0581 -0.188775,-0.0581 -0.08152,0 -0.144441,0.0169 -0.188297,0.0504 -0.04433,0.0333 -0.06626,0.075 -0.06626,0.12495 0,0.049 0.0205,0.0902 0.06078,0.12351 0.04028,0.0336 0.132286,0.0712 0.275058,0.11234 0.15183,0.0443 0.261233,0.0909 0.328687,0.13922 0.06745,0.0488 0.119175,0.11091 0.154928,0.1873 0.03552,0.0766 0.05339,0.16921 0.05339,0.27869 0,0.15755 -0.04886,0.29035 -0.145871,0.39744 -0.09749,0.10757 -0.249793,0.16136 -0.45692,0.16136 -0.365869,0 -0.569421,-0.20753 -0.611133,-0.62235 z"
       style="fill:#fcffff;fill-opacity:1;fill-rule:evenodd;stroke:none;stroke-width:0.26458332"
       inkscape:connector-curvature="0" />
    <path
       id="path908"
       d="m 80.14683,142.55496 h 0.300322 v 0.9841 c 0,0.15303 0.0038,0.25251 0.01144,0.29891 0.01311,0.0802 0.04481,0.14185 0.09534,0.18588 0.05053,0.0438 0.117031,0.0657 0.199739,0.0657 0.07008,0 0.127041,-0.0155 0.171374,-0.0464 0.04409,-0.0309 0.07437,-0.0738 0.09033,-0.12875 0.01645,-0.0552 0.02479,-0.17326 0.02479,-0.35413 v -1.00528 h 0.300084 v 0.9553 c 0,0.24394 -0.01311,0.42005 -0.03885,0.52905 -0.02646,0.10877 -0.08533,0.19682 -0.176857,0.26417 -0.09177,0.0674 -0.212609,0.10115 -0.362532,0.10115 -0.156359,0 -0.277918,-0.0278 -0.365631,-0.0838 -0.08747,-0.0559 -0.151115,-0.13423 -0.190443,-0.23561 -0.03957,-0.10139 -0.05911,-0.28821 -0.05911,-0.56023 z"
       style="fill:#fcffff;fill-opacity:1;fill-rule:evenodd;stroke:none;stroke-width:0.26458332"
       inkscape:connector-curvature="0" />
    <path
       id="path910"
       d="m 61.972292,144.4063 -0.534861,-1.81921 h 0.323205 l 0.380409,1.34656 0.362055,-1.34656 h 0.323682 l -0.529141,1.81921 z"
       style="fill:#fcffff;fill-opacity:1;fill-rule:evenodd;stroke:none;stroke-width:0.26458332"
       inkscape:connector-curvature="0" />
    <path
       id="path912"
       d="m 63.232456,144.4063 v -1.81921 h 0.300323 v 1.81921 z"
       style="fill:#fcffff;fill-opacity:1;fill-rule:evenodd;stroke:none;stroke-width:0.26458332"
       inkscape:connector-curvature="0" />
    <path
       id="path914"
       d="m 64.073837,144.4063 v -1.81921 h 0.300084 v 1.81921 z"
       style="fill:#fcffff;fill-opacity:1;fill-rule:evenodd;stroke:none;stroke-width:0.26458332"
       inkscape:connector-curvature="0" />
    <path
       id="path916"
       d="m 65.261065,144.4063 v -1.51172 h -0.442857 v -0.30749 h 1.185799 v 0.30749 h -0.442619 v 1.51172 z"
       style="fill:#fcffff;fill-opacity:1;fill-rule:evenodd;stroke:none;stroke-width:0.26458332"
       inkscape:connector-curvature="0" />
    <path
       id="path918"
       d="m 66.46617,144.4063 v -1.81921 h 0.292219 l 0.613755,1.21495 v -1.21495 h 0.279825 v 1.81921 h -0.302468 l -0.603506,-1.18615 v 1.18615 z"
       style="fill:#fcffff;fill-opacity:1;fill-rule:evenodd;stroke:none;stroke-width:0.26458332"
       inkscape:connector-curvature="0" />
    <path
       id="path920"
       d="m 69.574273,144.4063 h -0.326541 l -0.127756,-0.41149 h -0.600408 l -0.123466,0.41149 h -0.320583 l 0.580625,-1.81921 h 0.321297 z m -0.552737,-0.71897 -0.206889,-0.67542 -0.202837,0.67542 z"
       style="fill:#fcffff;fill-opacity:1;fill-rule:evenodd;stroke:none;stroke-width:0.26458332"
       inkscape:connector-curvature="0" />
    <path
       id="path922"
       d="m 76.709325,135.53256 h 4.174487 v 0 c 0.250984,0 0.454537,0.20396 0.454537,0.45575 v 0 1.82278 0 c 0,0.25179 -0.203553,0.45575 -0.454537,0.45575 v 0 h -4.174487 v 0 c -0.250984,0 -0.454536,-0.20396 -0.454536,-0.45575 v 0 -1.82278 0 c 0,-0.25179 0.203552,-0.45575 0.454536,-0.45575 z"
       style="fill:#1d1d1b;fill-opacity:1;fill-rule:evenodd;stroke:none;stroke-width:0.26458332"
       inkscape:connector-curvature="0" />
    <path
       id="path924"
       d="m 76.709325,135.71486 h 4.174487 v 0 c 0.150162,0 0.271959,0.12233 0.271959,0.27345 v 0 1.82278 0 c 0,0.15112 -0.121797,0.27369 -0.271959,0.27369 v 0 h -4.174487 v 0 c -0.150162,0 -0.271959,-0.12257 -0.271959,-0.27369 v 0 -1.82278 0 c 0,-0.15112 0.121797,-0.27345 0.271959,-0.27345 z"
       style="fill:#fcffff;fill-opacity:1;fill-rule:evenodd;stroke:none;stroke-width:0.26458332"
       inkscape:connector-curvature="0" />
    <path
       id="path926"
       d="m 77.651051,137.79966 h -0.288167 v -1.31656 c -0.106781,0.12018 -0.230009,0.20848 -0.369921,0.26488 v -0.31843 c 0.07985,-0.0321 0.162317,-0.0895 0.247886,-0.17231 0.08581,-0.0826 0.144917,-0.17825 0.178525,-0.28606 h 0.231677 z"
       style="fill:#1d1d1b;fill-opacity:1;fill-rule:evenodd;stroke:none;stroke-width:0.26458332"
       inkscape:connector-curvature="0" />
    <path
       id="path928"
       d="m 78.341079,136.32531 v -0.32343 h 0.979148 v 0.2537 c -0.08033,0.0969 -0.161364,0.23466 -0.243834,0.41339 -0.08223,0.17825 -0.145871,0.37007 -0.190919,0.57427 -0.04505,0.20396 -0.06745,0.38959 -0.06745,0.55642 H 78.54249 c 0.0069,-0.25893 0.04981,-0.51739 0.129186,-0.77513 0.07913,-0.25799 0.186153,-0.49098 0.320821,-0.69922 z"
       style="fill:#1d1d1b;fill-opacity:1;fill-rule:evenodd;stroke:none;stroke-width:0.26458332"
       inkscape:connector-curvature="0" />
    <path
       id="path930"
       d="m 80.737226,136.42455 -0.277918,0.0381 c -0.01335,-0.13566 -0.06817,-0.20372 -0.163747,-0.20372 -0.06245,0 -0.114409,0.034 -0.155643,0.1021 -0.04124,0.0678 -0.06698,0.20491 -0.0777,0.41101 0.03575,-0.0514 0.0758,-0.09 0.119414,-0.11543 0.04433,-0.0257 0.09272,-0.0385 0.145871,-0.0385 0.117269,0 0.21976,0.0543 0.306758,0.16302 0.08724,0.109 0.131094,0.25322 0.131094,0.43362 0,0.19182 -0.046,0.34247 -0.138244,0.45171 -0.09224,0.109 -0.206174,0.16374 -0.342511,0.16374 -0.149208,0 -0.272913,-0.0709 -0.37159,-0.21301 -0.0982,-0.14184 -0.14754,-0.37721 -0.14754,-0.70588 0,-0.33342 0.05101,-0.5738 0.15326,-0.72016 0.102253,-0.14636 0.233585,-0.2199 0.393757,-0.2199 0.110595,0 0.203552,0.0374 0.279824,0.11257 0.07556,0.0747 0.124182,0.18849 0.144918,0.3408 z m -0.650223,0.76133 c 0,0.11471 0.02145,0.20253 0.06459,0.26322 0.0429,0.0607 0.09176,0.0907 0.146586,0.0907 0.05339,0 0.09772,-0.025 0.133477,-0.0754 0.03528,-0.0502 0.05315,-0.1328 0.05315,-0.24751 0,-0.11876 -0.01931,-0.20538 -0.05744,-0.26012 -0.03861,-0.0543 -0.08581,-0.0814 -0.142772,-0.0814 -0.05482,0 -0.101538,0.0257 -0.140389,0.0781 -0.03814,0.0516 -0.0572,0.12946 -0.0572,0.23251 z"
       style="fill:#1d1d1b;fill-opacity:1;fill-rule:evenodd;stroke:none;stroke-width:0.26458332"
       inkscape:connector-curvature="0" />
    <path
       id="path932"
       d="m 61.891967,135.53256 h 4.174488 v 0 c 0.250984,0 0.454536,0.20396 0.454536,0.45575 v 0 1.82278 0 c 0,0.25179 -0.203552,0.45575 -0.454536,0.45575 v 0 h -4.174488 v 0 c -0.250984,0 -0.454536,-0.20396 -0.454536,-0.45575 v 0 -1.82278 0 c 0,-0.25179 0.203552,-0.45575 0.454536,-0.45575 z"
       style="fill:#1d1d1b;fill-opacity:1;fill-rule:evenodd;stroke:none;stroke-width:0.26458332"
       inkscape:connector-curvature="0" />
    <path
       id="path934"
       d="m 61.891967,135.71486 h 4.174488 v 0 c 0.150161,0 0.271959,0.12233 0.271959,0.27345 v 0 1.82278 0 c 0,0.15112 -0.121798,0.27369 -0.271959,0.27369 v 0 h -4.174488 v 0 c -0.150161,0 -0.271959,-0.12257 -0.271959,-0.27369 v 0 -1.82278 0 c 0,-0.15112 0.121798,-0.27345 0.271959,-0.27345 z"
       style="fill:#fcffff;fill-opacity:1;fill-rule:evenodd;stroke:none;stroke-width:0.26458332"
       inkscape:connector-curvature="0" />
    <path
       id="path936"
       d="m 62.833456,137.79966 h -0.288167 v -1.31656 c -0.106543,0.12018 -0.23001,0.20848 -0.369683,0.26488 v -0.31843 c 0.07985,-0.0321 0.162317,-0.0895 0.247647,-0.17231 0.08581,-0.0826 0.144918,-0.17825 0.178525,-0.28606 h 0.231678 z"
       style="fill:#1d1d1b;fill-opacity:1;fill-rule:evenodd;stroke:none;stroke-width:0.26458332"
       inkscape:connector-curvature="0" />
    <path
       id="path938"
       d="m 63.523483,136.32531 v -0.32343 h 0.979386 v 0.2537 c -0.08032,0.0969 -0.161602,0.23466 -0.243833,0.41339 -0.08223,0.17825 -0.14611,0.37007 -0.19092,0.57427 -0.04505,0.20396 -0.06769,0.38959 -0.06769,0.55642 H 63.72513 c 0.0067,-0.25893 0.04958,-0.51739 0.129187,-0.77513 0.07913,-0.25799 0.186152,-0.49098 0.320821,-0.69922 z"
       style="fill:#1d1d1b;fill-opacity:1;fill-rule:evenodd;stroke:none;stroke-width:0.26458332"
       inkscape:connector-curvature="0" />
    <path
       id="path940"
       d="m 65.91963,136.42455 -0.277917,0.0381 c -0.01311,-0.13566 -0.06793,-0.20372 -0.163509,-0.20372 -0.06245,0 -0.114409,0.034 -0.155644,0.1021 -0.04124,0.0678 -0.06722,0.20491 -0.0777,0.41101 0.03551,-0.0514 0.07556,-0.09 0.119415,-0.11543 0.04409,-0.0257 0.09272,-0.0385 0.145871,-0.0385 0.117269,0 0.21976,0.0543 0.306758,0.16302 0.08724,0.109 0.130855,0.25322 0.130855,0.43362 0,0.19182 -0.04576,0.34247 -0.138006,0.45171 -0.09224,0.109 -0.206174,0.16374 -0.342511,0.16374 -0.149208,0 -0.27315,-0.0709 -0.37159,-0.21301 -0.0982,-0.14184 -0.147539,-0.37721 -0.147539,-0.70588 0,-0.33342 0.05101,-0.5738 0.153022,-0.72016 0.102491,-0.14636 0.233822,-0.2199 0.393995,-0.2199 0.110595,0 0.203552,0.0374 0.279586,0.11257 0.0758,0.0747 0.124181,0.18849 0.144917,0.3408 z m -0.650222,0.76133 c 0,0.11471 0.02169,0.20253 0.06459,0.26322 0.0429,0.0607 0.09177,0.0907 0.146586,0.0907 0.05363,0 0.09796,-0.025 0.133477,-0.0754 0.03528,-0.0502 0.05315,-0.1328 0.05315,-0.24751 0,-0.11876 -0.01907,-0.20538 -0.05744,-0.26012 -0.03861,-0.0543 -0.08581,-0.0814 -0.142534,-0.0814 -0.05506,0 -0.101776,0.0257 -0.140389,0.0781 -0.03837,0.0516 -0.05744,0.12946 -0.05744,0.23251 z"
       style="fill:#1d1d1b;fill-opacity:1;fill-rule:evenodd;stroke:none;stroke-width:0.26458332"
       inkscape:connector-curvature="0" />
    <path
       id="path942"
       d="m 71.345702,129.61348 v -1.51196 h -0.442858 v -0.30724 h 1.185799 v 0.30724 h -0.442857 v 1.51196 z"
       style="fill:#fcffff;fill-opacity:1;fill-rule:evenodd;stroke:none;stroke-width:0.26458332"
       inkscape:connector-curvature="0" />
    <path
       id="path944"
       d="m 73.739227,129.61348 h -0.326542 l -0.127756,-0.41172 h -0.600407 l -0.123466,0.41172 h -0.320583 l 0.580624,-1.8192 h 0.321298 z m -0.552737,-0.71921 -0.206889,-0.67542 -0.202599,0.67542 z"
       style="fill:#fcffff;fill-opacity:1;fill-rule:evenodd;stroke:none;stroke-width:0.26458332"
       inkscape:connector-curvature="0" />
    <path
       id="path946"
       d="m 74.165161,129.61348 v -1.80397 h 0.300323 v 1.49649 h 0.750807 v 0.30748 z"
       style="fill:#fcffff;fill-opacity:1;fill-rule:evenodd;stroke:none;stroke-width:0.26458332"
       inkscape:connector-curvature="0" />
    <path
       id="path948"
       d="m 75.701336,129.61348 v -1.80397 h 0.300085 v 1.49649 h 0.750807 v 0.30748 z"
       style="fill:#fcffff;fill-opacity:1;fill-rule:evenodd;stroke:none;stroke-width:0.26458332"
       inkscape:connector-curvature="0" />
    <path
       id="path950"
       d="m 77.222019,129.61348 v -1.8192 h 0.300323 v 1.8192 z"
       style="fill:#fcffff;fill-opacity:1;fill-rule:evenodd;stroke:none;stroke-width:0.26458332"
       inkscape:connector-curvature="0" />
    <path
       id="path952"
       d="m 78.078416,129.61348 v -1.8192 h 0.292218 l 0.613755,1.21494 v -1.21494 h 0.279825 v 1.8192 h -0.302468 l -0.603268,-1.18615 v 1.18615 z"
       style="fill:#fcffff;fill-opacity:1;fill-rule:evenodd;stroke:none;stroke-width:0.26458332"
       inkscape:connector-curvature="0" />
    <path
       id="path954"
       d="m 79.845553,129.61348 v -1.8192 h 0.292219 l 0.613755,1.21494 v -1.21494 h 0.279825 v 1.8192 h -0.302468 l -0.603268,-1.18615 v 1.18615 z"
       style="fill:#fcffff;fill-opacity:1;fill-rule:evenodd;stroke:none;stroke-width:0.26458332"
       inkscape:connector-curvature="0" />
    <path
       id="path956"
       d="m 65.562103,127.34923 h 4.174488 v 0 c 0.251222,0 0.454536,0.20396 0.454536,0.45576 v 0 1.82277 0 c 0,0.25179 -0.203314,0.45575 -0.454536,0.45575 v 0 h -4.174488 v 0 c -0.250984,0 -0.454536,-0.20396 -0.454536,-0.45575 v 0 -1.82277 0 c 0,-0.2518 0.203552,-0.45576 0.454536,-0.45576 z"
       style="fill:#fcffff;fill-opacity:1;fill-rule:evenodd;stroke:none;stroke-width:0.26458332"
       inkscape:connector-curvature="0" />
    <path
       id="path958"
       d="m 65.562103,127.53153 h 4.174488 v 0 c 0.1504,0 0.271959,0.12233 0.271959,0.27346 v 0 1.82277 0 c 0,0.15112 -0.121559,0.27345 -0.271959,0.27345 v 0 h -4.174488 v 0 c -0.150161,0 -0.271959,-0.12233 -0.271959,-0.27345 v 0 -1.82277 0 c 0,-0.15113 0.121798,-0.27346 0.271959,-0.27346 z"
       style="fill:#00a650;fill-opacity:1;fill-rule:evenodd;stroke:none;stroke-width:0.26458332"
       inkscape:connector-curvature="0" />
    <path
       id="path960"
       d="m 65.649817,129.61634 v -1.82325 h 1.109287 v 0.30796 h -0.80825 v 0.40244 h 0.752238 v 0.30796 h -0.752238 v 0.49669 h 0.836376 v 0.3082 z"
       style="fill:#fcffff;fill-opacity:1;fill-rule:evenodd;stroke:none;stroke-width:0.26458332"
       inkscape:connector-curvature="0" />
    <path
       id="path962"
       d="m 68.577964,129.29291 v 0.32343 h -1.004651 c 0.01049,-0.12281 0.04362,-0.23918 0.09844,-0.34937 0.0553,-0.11091 0.162317,-0.25561 0.321298,-0.43553 0.125849,-0.14303 0.203314,-0.23966 0.232154,-0.29035 0.0429,-0.0738 0.06459,-0.14755 0.06459,-0.22228 0,-0.0793 -0.01788,-0.13923 -0.05315,-0.17992 -0.03575,-0.0402 -0.08247,-0.0607 -0.140151,-0.0607 -0.126326,0 -0.194733,0.0952 -0.204505,0.28511 l -0.285545,-0.0381 c 0.0174,-0.18515 0.06864,-0.32081 0.15469,-0.40744 0.08581,-0.0866 0.200215,-0.12994 0.342988,-0.12994 0.156835,0 0.274819,0.0509 0.354428,0.15279 0.07961,0.10186 0.119414,0.21871 0.119414,0.35056 0,0.0747 -0.01025,0.14684 -0.03051,0.21705 -0.02002,0.07 -0.05148,0.14041 -0.09367,0.2111 -0.04243,0.0709 -0.112502,0.16136 -0.211179,0.27131 -0.09176,0.10352 -0.149923,0.17183 -0.174712,0.20538 -0.02407,0.0331 -0.04409,0.0652 -0.05911,0.0969 z"
       style="fill:#fcffff;fill-opacity:1;fill-rule:evenodd;stroke:none;stroke-width:0.26458332"
       inkscape:connector-curvature="0" />
    <path
       id="path964"
       d="m 69.315424,127.78785 c 0.144917,0 0.262186,0.0688 0.351807,0.20681 0.08986,0.1378 0.13443,0.37889 0.13443,0.72302 0,0.3439 -0.04457,0.58451 -0.13443,0.7223 -0.08962,0.13804 -0.206651,0.20682 -0.350615,0.20682 -0.145395,0 -0.262664,-0.0683 -0.352284,-0.20515 -0.08986,-0.13661 -0.13443,-0.37888 -0.13443,-0.7273 0,-0.34199 0.04457,-0.58189 0.13443,-0.71969 0.08962,-0.13803 0.206412,-0.20681 0.351092,-0.20681 z m 2.38e-4,0.29035 c -0.05601,0 -0.101061,0.0374 -0.134668,0.11162 -0.03361,0.0743 -0.05005,0.25036 -0.05005,0.52786 0,0.27798 0.01645,0.45385 0.05005,0.5281 0.03361,0.0738 0.07866,0.11067 0.134668,0.11067 0.05697,0 0.102253,-0.0374 0.135145,-0.11162 0.03337,-0.0743 0.04982,-0.24989 0.04982,-0.52715 0,-0.2775 -0.01645,-0.45361 -0.04982,-0.52786 -0.03289,-0.0743 -0.07818,-0.11162 -0.135145,-0.11162 z"
       style="fill:#fcffff;fill-opacity:1;fill-rule:evenodd;stroke:none;stroke-width:0.26458332"
       inkscape:connector-curvature="0" />
    <path
       id="path966"
       d="m 62.047611,127.34923 h 2.605658 v 0 c 0.250984,0 0.454298,0.20396 0.454298,0.45576 v 0 1.82277 0 c 0,0.25179 -0.203314,0.45575 -0.454298,0.45575 v 0 h -2.605658 v 0 c -0.250984,0 -0.454298,-0.20396 -0.454298,-0.45575 v 0 -1.82277 0 c 0,-0.2518 0.203314,-0.45576 0.454298,-0.45576 z"
       style="fill:#fcffff;fill-opacity:1;fill-rule:evenodd;stroke:none;stroke-width:0.26458332"
       inkscape:connector-curvature="0" />
    <path
       id="path968"
       d="m 62.047611,127.53153 h 2.605658 v 0 c 0.150162,0 0.271959,0.12233 0.271959,0.27346 v 0 1.82277 0 c 0,0.15112 -0.121797,0.27345 -0.271959,0.27345 v 0 h -2.605658 v 0 c -0.149923,0 -0.271721,-0.12233 -0.271721,-0.27345 v 0 -1.82277 0 c 0,-0.15113 0.121798,-0.27346 0.271721,-0.27346 z"
       style="fill:#e02726;fill-opacity:1;fill-rule:evenodd;stroke:none;stroke-width:0.26458332"
       inkscape:connector-curvature="0" />
    <path
       id="path970"
       d="m 63.553754,129.63181 h -0.288167 v -1.31657 c -0.106543,0.12018 -0.230009,0.20848 -0.369683,0.26488 v -0.31843 c 0.07985,-0.0321 0.162317,-0.0895 0.247647,-0.1723 0.08604,-0.0828 0.144917,-0.17826 0.178525,-0.28607 h 0.231678 z"
       style="fill:#fcffff;fill-opacity:1;fill-rule:evenodd;stroke:none;stroke-width:0.26458332"
       inkscape:connector-curvature="0" />
  </g>
</svg>
