<?xml version="1.0" encoding="UTF-8" standalone="no"?>
<!-- Created with Inkscape (http://www.inkscape.org/) -->

<svg
   xmlns:dc="http://purl.org/dc/elements/1.1/"
   xmlns:cc="http://creativecommons.org/ns#"
   xmlns:rdf="http://www.w3.org/1999/02/22-rdf-syntax-ns#"
   xmlns:svg="http://www.w3.org/2000/svg"
   xmlns="http://www.w3.org/2000/svg"
   xmlns:sodipodi="http://sodipodi.sourceforge.net/DTD/sodipodi-0.dtd"
   xmlns:inkscape="http://www.inkscape.org/namespaces/inkscape"
   width="13.067mm"
   height="3.2233026mm"
   viewBox="0 0 13.067 3.2233026"
   version="1.1"
   id="svg8"
   inkscape:version="0.92.2 (5c3e80d, 2017-08-06)">
  <defs
     id="defs2">
    <pattern
       y="0"
       x="0"
       height="6"
       width="6"
       patternUnits="userSpaceOnUse"
       id="EMFhbasepattern" />
  </defs>
  <sodipodi:namedview
     id="base"
     pagecolor="#ffffff"
     bordercolor="#666666"
     borderopacity="1.0"
     inkscape:pageopacity="0.0"
     inkscape:pageshadow="2"
     inkscape:zoom="11.2"
     inkscape:cx="3.6190523"
     inkscape:cy="-13.597896"
     inkscape:document-units="mm"
     inkscape:current-layer="layer1"
     showgrid="false"
     fit-margin-top="0"
     fit-margin-left="0"
     fit-margin-right="0"
     fit-margin-bottom="0"
     inkscape:window-width="1920"
     inkscape:window-height="1027"
     inkscape:window-x="-8"
     inkscape:window-y="-8"
     inkscape:window-maximized="1" />
  <metadata
     id="metadata5">
    <rdf:RDF>
      <cc:Work
         rdf:about="">
        <dc:format>image/svg+xml</dc:format>
        <dc:type
           rdf:resource="http://purl.org/dc/dcmitype/StillImage" />
        <dc:title></dc:title>
      </cc:Work>
    </rdf:RDF>
  </metadata>
  <g
     inkscape:label="Layer 1"
     inkscape:groupmode="layer"
     id="layer1"
     transform="translate(-68.305786,-127.18894)">
    <path
       id="path818"
       d="M 68.331632,127.21479 H 81.34694 v 3.17161 H 68.331632 Z"
       style="fill:#00adef;fill-opacity:1;fill-rule:evenodd;stroke:none;stroke-width:0.26458332"
       inkscape:connector-curvature="0" />
    <path
       id="path820"
       d="M 68.331632,127.21479 H 81.34694 v 3.17161 H 68.331632 Z"
       style="fill:none;stroke:#231f20;stroke-width:0.05169268px;stroke-linecap:butt;stroke-linejoin:miter;stroke-miterlimit:4;stroke-dasharray:none;stroke-opacity:1"
       inkscape:connector-curvature="0" />
    <path
       id="path822"
       d="M 68.929448,127.39346 H 80.75367 c 0.246259,0 0.408516,0.20224 0.408516,0.40331 v 2.00999 c 0,0.23185 -0.200548,0.40097 -0.409473,0.40097 H 68.931602 c -0.227352,0 -0.415217,-0.17845 -0.415217,-0.40097 v -2.00999 c 0,-0.22043 0.180207,-0.40331 0.413063,-0.40331 z m -0.0022,-0.17867 h 11.828766 l 0.03015,7e-4 0.03207,0.003 0.03159,0.004 0.03087,0.006 0.03039,0.007 0.02944,0.009 0.02896,0.0103 0.02776,0.0114 0.02704,0.0128 0.02609,0.014 0.02489,0.0154 0.02417,0.0163 0.02298,0.0173 0.02202,0.0182 0.02106,0.0194 0.01962,0.0201 0.01891,0.0208 0.01747,0.0215 0.01651,0.0224 0.01556,0.0229 0.01412,0.0236 0.01316,0.024 0.01197,0.0245 0.01077,0.0252 0.0096,0.0254 0.0084,0.0259 0.0072,0.0264 0.006,0.0266 0.0048,0.0268 0.0031,0.0273 0.0022,0.0273 7.18e-4,0.0254 v 2.01442 l -7.18e-4,0.0287 -0.0026,0.0306 -0.0041,0.0301 -0.0057,0.0296 -0.0072,0.0289 -0.0086,0.0282 -0.01005,0.0278 -0.01125,0.0268 -0.01268,0.0261 -0.01388,0.0252 -0.01508,0.0243 -0.01627,0.0236 -0.01723,0.0224 -0.01819,0.0217 -0.01914,0.0205 -0.0201,0.0196 -0.02082,0.0187 -0.02178,0.0177 -0.0225,0.0166 -0.02321,0.0156 -0.02393,0.0145 -0.02441,0.0133 -0.02513,0.0124 -0.02585,0.011 -0.02632,0.01 -0.0268,0.009 -0.02728,0.007 -0.02776,0.006 -0.028,0.005 -0.02848,0.004 -0.02872,0.002 -0.02656,4.7e-4 H 68.929448 l -0.02824,-7e-4 -0.03015,-0.002 -0.02967,-0.004 -0.02944,-0.005 -0.02872,-0.007 -0.02824,-0.008 -0.02776,-0.009 -0.02704,-0.0103 -0.02656,-0.0117 -0.02561,-0.0126 -0.02513,-0.0138 -0.02441,-0.0149 -0.02321,-0.0161 -0.02274,-0.0173 -0.02178,-0.018 -0.02082,-0.0191 -0.01986,-0.0198 -0.01891,-0.021 -0.01771,-0.0219 -0.01675,-0.0226 -0.0158,-0.0236 -0.0146,-0.0243 -0.0134,-0.0252 -0.01221,-0.0257 -0.01077,-0.0266 -0.0096,-0.0271 -0.0081,-0.0278 -0.0069,-0.0282 -0.0053,-0.0287 -0.0038,-0.0294 -0.0024,-0.0294 -7.18e-4,-0.0278 v -2.01466 l 7.18e-4,-0.0271 0.0022,-0.0292 0.0038,-0.0289 0.005,-0.0285 0.0065,-0.028 0.0079,-0.0273 0.0091,-0.0271 0.01053,-0.0264 0.01173,-0.0259 0.01316,-0.025 0.01388,-0.0245 0.01532,-0.0236 0.01651,-0.0229 0.01747,-0.0219 0.01867,-0.0212 0.01938,-0.0203 0.02058,-0.0194 0.02178,-0.0184 0.0225,-0.0175 0.02321,-0.0163 0.02441,-0.0154 0.02489,-0.0142 0.02609,-0.0128 0.02656,-0.0119 0.02728,-0.0105 0.028,-0.009 0.02872,-0.008 0.0292,-0.007 0.02967,-0.005 0.03015,-0.004 0.03063,-0.002 z"
       style="fill:#fcffff;fill-opacity:1;fill-rule:evenodd;stroke:none;stroke-width:0.26458332"
       inkscape:connector-curvature="0" />
    <path
       id="path824"
       d="m 73.296522,129.47343 -0.40349,-1.34007 h 0.243865 l 0.286942,0.99205 0.273302,-0.99205 h 0.244343 l -0.399422,1.34007 z"
       style="fill:#fcffff;fill-opacity:1;fill-rule:evenodd;stroke:none;stroke-width:0.26458332"
       inkscape:connector-curvature="0" />
    <path
       id="path826"
       d="m 74.209281,128.81144 c 0,-0.15931 0.02417,-0.29064 0.07251,-0.39374 0.04834,-0.10333 0.111762,-0.18054 0.189779,-0.23092 0.07826,-0.0506 0.173027,-0.0758 0.284071,-0.0758 0.1613,0 0.292446,0.0599 0.393917,0.17984 0.101471,0.12013 0.152206,0.29087 0.152206,0.5127 0,0.22393 -0.05361,0.39934 -0.1613,0.5253 -0.09405,0.11126 -0.222327,0.16725 -0.383866,0.16725 -0.163215,0 -0.291968,-0.0553 -0.38602,-0.16538 -0.107693,-0.1262 -0.1613,-0.29928 -0.1613,-0.51924 z m 0.234292,-0.009 c 0,0.15372 0.02992,0.26918 0.08974,0.34592 0.06031,0.077 0.134976,0.11547 0.223523,0.11547 0.08951,0 0.163933,-0.0383 0.222566,-0.11453 0.05887,-0.0761 0.08831,-0.19337 0.08831,-0.35152 0,-0.15489 -0.02848,-0.26965 -0.08591,-0.34359 -0.0572,-0.0742 -0.132104,-0.11127 -0.224959,-0.11127 -0.09262,0 -0.167762,0.0373 -0.225916,0.11197 -0.05839,0.0749 -0.08735,0.19057 -0.08735,0.34755 z m 0.140001,-0.77209 h -0.09788 l -9.57e-4,-0.0301 c 0,-0.0665 0.0134,-0.11639 0.03997,-0.14998 0.02704,-0.0334 0.06055,-0.0502 0.101471,-0.0502 0.01771,0 0.03422,0.002 0.05002,0.007 0.01603,0.005 0.04116,0.0166 0.07658,0.035 0.04667,0.0245 0.08113,0.0366 0.103624,0.0366 0.03614,0 0.05696,-0.0268 0.06342,-0.0807 h 0.09788 c -7.18e-4,0.0835 -0.01388,0.14252 -0.03901,0.17774 -0.02537,0.0352 -0.05792,0.0527 -0.09836,0.0527 -0.01651,0 -0.03327,-0.002 -0.04954,-0.006 -0.01197,-0.003 -0.03949,-0.0145 -0.08257,-0.0334 -0.05217,-0.0236 -0.08903,-0.0352 -0.111043,-0.0352 -0.01579,0 -0.02824,0.006 -0.03805,0.017 -0.0098,0.0117 -0.01484,0.0313 -0.01556,0.0597 z"
       style="fill:#fcffff;fill-opacity:1;fill-rule:evenodd;stroke:none;stroke-width:0.26458332"
       inkscape:connector-curvature="0" />
    <path
       id="path828"
       d="m 75.677736,129.47343 v -1.34007 h 0.479115 c 0.122531,0 0.209882,0.0121 0.262771,0.0361 0.05265,0.024 0.09549,0.0658 0.129471,0.12503 0.0335,0.0597 0.0505,0.13086 0.0505,0.21343 0,0.10474 -0.02585,0.18941 -0.07754,0.25332 -0.05145,0.0639 -0.124684,0.10427 -0.219933,0.12083 0.04882,0.0341 0.08951,0.0714 0.121095,0.11196 0.03207,0.0406 0.07562,0.11313 0.130907,0.2181 l 0.137608,0.26125 h -0.272347 l -0.16513,-0.29134 c -0.05911,-0.10543 -0.09956,-0.17145 -0.121095,-0.19804 -0.02106,-0.0266 -0.04379,-0.045 -0.06749,-0.0548 -0.02369,-0.0105 -0.06174,-0.0154 -0.114154,-0.0154 h -0.04715 v 0.55959 z m 0.226634,-0.77302 h 0.168959 c 0.103385,0 0.168959,-0.004 0.197198,-0.0133 0.02824,-0.009 0.05098,-0.0266 0.06845,-0.0534 0.01771,-0.0268 0.02632,-0.0627 0.02632,-0.1073 0,-0.0427 -0.0086,-0.077 -0.02632,-0.10287 -0.01747,-0.0259 -0.04116,-0.0436 -0.07132,-0.0537 -0.02106,-0.007 -0.0828,-0.01 -0.184993,-0.01 H 75.90437 Z"
       style="fill:#fcffff;fill-opacity:1;fill-rule:evenodd;stroke:none;stroke-width:0.26458332"
       inkscape:connector-curvature="0" />
    <path
       id="path830"
       d="m 77.009541,128.13336 h 0.226634 v 0.72497 c 0,0.11266 0.0029,0.1859 0.0086,0.22019 0.0098,0.059 0.03374,0.1045 0.0718,0.13693 0.03829,0.0322 0.08855,0.0485 0.15077,0.0485 0.05289,0 0.09573,-0.0117 0.129471,-0.0343 0.03327,-0.0229 0.056,-0.0543 0.06821,-0.0949 0.01244,-0.0406 0.01843,-0.12759 0.01843,-0.26078 v -0.7406 h 0.226635 v 0.70374 c 0,0.17961 -0.01005,0.30953 -0.02944,0.38954 -0.01986,0.0802 -0.06438,0.14509 -0.133539,0.19477 -0.06916,0.0497 -0.160343,0.0746 -0.273541,0.0746 -0.117744,0 -0.209642,-0.0208 -0.275933,-0.0618 -0.06605,-0.0413 -0.113915,-0.0989 -0.14383,-0.17354 -0.02968,-0.0749 -0.04427,-0.2125 -0.04427,-0.41264 z"
       style="fill:#fcffff;fill-opacity:1;fill-rule:evenodd;stroke:none;stroke-width:0.26458332"
       inkscape:connector-curvature="0" />
    <path
       id="path832"
       d="m 79.390276,129.47343 h -0.216822 v -0.96756 c -0.08041,0.0882 -0.173266,0.15302 -0.278566,0.19454 v -0.23396 c 0.06007,-0.0236 0.122291,-0.0658 0.186668,-0.12666 0.06462,-0.0606 0.10889,-0.13086 0.134257,-0.21016 h 0.174463 z"
       style="fill:#fcffff;fill-opacity:1;fill-rule:evenodd;stroke:none;stroke-width:0.26458332"
       inkscape:connector-curvature="0" />
    <path
       id="path834"
       d="m 79.913664,129.12914 0.215147,-0.028 c 0.0057,0.0585 0.02393,0.10473 0.05528,0.13832 0.03111,0.0338 0.06581,0.0506 0.103146,0.0506 0.04451,0 0.08256,-0.0215 0.114633,-0.0644 0.03159,-0.0427 0.04762,-0.10847 0.04762,-0.1971 0,-0.0835 -0.01555,-0.14556 -0.04739,-0.18544 -0.03159,-0.0404 -0.07203,-0.0604 -0.120616,-0.0604 -0.06222,0 -0.117744,0.0327 -0.167044,0.0975 l -0.175899,-0.0301 0.111523,-0.69814 h 0.570294 v 0.23956 h -0.404447 l -0.03662,0.22836 c 0.04858,-0.0287 0.09836,-0.0429 0.148378,-0.0429 0.08855,0 0.163693,0.0341 0.225437,0.10216 0.07826,0.087 0.117266,0.20201 0.117266,0.34453 0,0.11756 -0.03327,0.22556 -0.0998,0.32446 -0.06629,0.0984 -0.1613,0.14789 -0.285028,0.14789 -0.100034,0 -0.183317,-0.032 -0.250566,-0.0956 -0.06725,-0.0634 -0.107453,-0.15395 -0.121334,-0.27128 z"
       style="fill:#fcffff;fill-opacity:1;fill-rule:evenodd;stroke:none;stroke-width:0.26458332"
       inkscape:connector-curvature="0" />
    <path
       id="path836"
       d="m 70.936847,128.43893 h 1.374882 v 0.72357 h -1.374882 v 0.64309 l -1.78603,-1.00488 1.78603,-1.00511 z"
       style="fill:#fcffff;fill-opacity:1;fill-rule:evenodd;stroke:none;stroke-width:0.26458332"
       inkscape:connector-curvature="0" />
  </g>
</svg>
