<?xml version="1.0" encoding="UTF-8" standalone="no"?>
<!-- Created with Inkscape (http://www.inkscape.org/) -->

<svg
   xmlns:dc="http://purl.org/dc/elements/1.1/"
   xmlns:cc="http://creativecommons.org/ns#"
   xmlns:rdf="http://www.w3.org/1999/02/22-rdf-syntax-ns#"
   xmlns:svg="http://www.w3.org/2000/svg"
   xmlns="http://www.w3.org/2000/svg"
   xmlns:sodipodi="http://sodipodi.sourceforge.net/DTD/sodipodi-0.dtd"
   xmlns:inkscape="http://www.inkscape.org/namespaces/inkscape"
   width="18.437mm"
   height="2.8639135mm"
   viewBox="0 0 18.437 2.8639135"
   version="1.1"
   id="svg8"
   inkscape:version="0.92.2 (5c3e80d, 2017-08-06)">
  <defs
     id="defs2">
    <pattern
       y="0"
       x="0"
       height="6"
       width="6"
       patternUnits="userSpaceOnUse"
       id="EMFhbasepattern" />
    <pattern
       y="0"
       x="0"
       height="6"
       width="6"
       patternUnits="userSpaceOnUse"
       id="EMFhbasepattern-0" />
    <pattern
       y="0"
       x="0"
       height="6"
       width="6"
       patternUnits="userSpaceOnUse"
       id="EMFhbasepattern-2" />
    <pattern
       y="0"
       x="0"
       height="6"
       width="6"
       patternUnits="userSpaceOnUse"
       id="EMFhbasepattern-6" />
    <pattern
       y="0"
       x="0"
       height="6"
       width="6"
       patternUnits="userSpaceOnUse"
       id="EMFhbasepattern-03" />
    <pattern
       y="0"
       x="0"
       height="6"
       width="6"
       patternUnits="userSpaceOnUse"
       id="EMFhbasepattern-5" />
    <pattern
       y="0"
       x="0"
       height="6"
       width="6"
       patternUnits="userSpaceOnUse"
       id="EMFhbasepattern-69" />
    <pattern
       y="0"
       x="0"
       height="6"
       width="6"
       patternUnits="userSpaceOnUse"
       id="EMFhbasepattern-54" />
    <pattern
       y="0"
       x="0"
       height="6"
       width="6"
       patternUnits="userSpaceOnUse"
       id="EMFhbasepattern-1" />
    <pattern
       y="0"
       x="0"
       height="6"
       width="6"
       patternUnits="userSpaceOnUse"
       id="EMFhbasepattern-05" />
    <pattern
       y="0"
       x="0"
       height="6"
       width="6"
       patternUnits="userSpaceOnUse"
       id="EMFhbasepattern-58" />
    <pattern
       y="0"
       x="0"
       height="6"
       width="6"
       patternUnits="userSpaceOnUse"
       id="EMFhbasepattern-23" />
    <pattern
       y="0"
       x="0"
       height="6"
       width="6"
       patternUnits="userSpaceOnUse"
       id="EMFhbasepattern-62" />
    <pattern
       y="0"
       x="0"
       height="6"
       width="6"
       patternUnits="userSpaceOnUse"
       id="EMFhbasepattern-3" />
    <pattern
       y="0"
       x="0"
       height="6"
       width="6"
       patternUnits="userSpaceOnUse"
       id="EMFhbasepattern-57" />
    <pattern
       y="0"
       x="0"
       height="6"
       width="6"
       patternUnits="userSpaceOnUse"
       id="EMFhbasepattern-7" />
    <pattern
       y="0"
       x="0"
       height="6"
       width="6"
       patternUnits="userSpaceOnUse"
       id="EMFhbasepattern-626" />
    <pattern
       y="0"
       x="0"
       height="6"
       width="6"
       patternUnits="userSpaceOnUse"
       id="EMFhbasepattern-13" />
    <pattern
       y="0"
       x="0"
       height="6"
       width="6"
       patternUnits="userSpaceOnUse"
       id="EMFhbasepattern-38" />
    <pattern
       y="0"
       x="0"
       height="6"
       width="6"
       patternUnits="userSpaceOnUse"
       id="EMFhbasepattern-20" />
    <pattern
       y="0"
       x="0"
       height="6"
       width="6"
       patternUnits="userSpaceOnUse"
       id="EMFhbasepattern-8" />
    <pattern
       y="0"
       x="0"
       height="6"
       width="6"
       patternUnits="userSpaceOnUse"
       id="EMFhbasepattern-80" />
    <pattern
       y="0"
       x="0"
       height="6"
       width="6"
       patternUnits="userSpaceOnUse"
       id="EMFhbasepattern-66" />
    <pattern
       y="0"
       x="0"
       height="6"
       width="6"
       patternUnits="userSpaceOnUse"
       id="EMFhbasepattern-9" />
    <pattern
       y="0"
       x="0"
       height="6"
       width="6"
       patternUnits="userSpaceOnUse"
       id="EMFhbasepattern-31" />
    <pattern
       y="0"
       x="0"
       height="6"
       width="6"
       patternUnits="userSpaceOnUse"
       id="EMFhbasepattern-82" />
    <pattern
       y="0"
       x="0"
       height="6"
       width="6"
       patternUnits="userSpaceOnUse"
       id="EMFhbasepattern-63" />
    <pattern
       y="0"
       x="0"
       height="6"
       width="6"
       patternUnits="userSpaceOnUse"
       id="EMFhbasepattern-98" />
    <pattern
       y="0"
       x="0"
       height="6"
       width="6"
       patternUnits="userSpaceOnUse"
       id="EMFhbasepattern-4" />
    <pattern
       y="0"
       x="0"
       height="6"
       width="6"
       patternUnits="userSpaceOnUse"
       id="EMFhbasepattern-92" />
  </defs>
  <sodipodi:namedview
     id="base"
     pagecolor="#ffffff"
     bordercolor="#666666"
     borderopacity="1.0"
     inkscape:pageopacity="0.0"
     inkscape:pageshadow="2"
     inkscape:zoom="5.6"
     inkscape:cx="29.997431"
     inkscape:cy="18.624292"
     inkscape:document-units="mm"
     inkscape:current-layer="layer1"
     showgrid="false"
     fit-margin-top="0"
     fit-margin-left="0"
     fit-margin-right="0"
     fit-margin-bottom="0"
     inkscape:window-width="1920"
     inkscape:window-height="1027"
     inkscape:window-x="-8"
     inkscape:window-y="-8"
     inkscape:window-maximized="1" />
  <metadata
     id="metadata5">
    <rdf:RDF>
      <cc:Work
         rdf:about="">
        <dc:format>image/svg+xml</dc:format>
        <dc:type
           rdf:resource="http://purl.org/dc/dcmitype/StillImage" />
        <dc:title></dc:title>
      </cc:Work>
    </rdf:RDF>
  </metadata>
  <g
     inkscape:label="Layer 1"
     inkscape:groupmode="layer"
     id="layer1"
     transform="translate(-14.96519,-168.04531)">
    <path
       id="path1606"
       d="M 33.400034,170.90707 H 14.967347 v -2.8596 h 18.432687 z"
       style="fill:none;stroke:#2884c9;stroke-width:0.00431342px;stroke-linecap:round;stroke-linejoin:miter;stroke-miterlimit:4;stroke-dasharray:none;stroke-opacity:1"
       inkscape:connector-curvature="0" />
    <path
       id="path1608"
       d="m 17.562829,170.09008 v -1.22562 h 0.297626 l 0.179007,0.83605 0.17709,-0.83605 h 0.298584 v 1.22562 h -0.184518 v -0.96477 l -0.196021,0.96477 H 17.94241 l -0.194104,-0.96477 v 0.96477 z m 2.188821,0 h -0.21639 l -0.08627,-0.27844 h -0.39372 l -0.081,0.27844 h -0.211837 l 0.383895,-1.22562 h 0.210878 z m -0.366401,-0.48483 -0.135633,-0.45478 -0.133476,0.45478 z m 1.510417,0.48483 h -0.21663 l -0.08603,-0.27844 h -0.393719 l -0.08124,0.27844 h -0.211593 l 0.383895,-1.22562 h 0.210878 z m -0.366641,-0.48483 -0.135394,-0.45478 -0.133476,0.45478 z m 0.623768,0.48483 v -1.22562 h 0.193865 l 0.403305,0.81846 v -0.81846 h 0.185477 v 1.22562 h -0.200335 l -0.396835,-0.79941 v 0.79941 z m 1.36376,0 v -1.01825 H 22.22372 v -0.20737 h 0.783365 v 0.20737 h -0.292114 v 1.01825 z m 0.769946,0 v -1.22562 h 0.731844 v 0.20737 h -0.533426 v 0.27184 h 0.495564 v 0.20614 h -0.495564 v 0.33364 h 0.551398 v 0.20663 z m 1.068291,0 v -1.22562 h 0.731843 v 0.20737 h -0.533426 v 0.27184 h 0.495564 v 0.20614 h -0.495564 v 0.33364 h 0.551399 v 0.20663 z m 1.956616,0 h -0.21639 l -0.08627,-0.27844 h -0.39348 l -0.08124,0.27844 h -0.211592 l 0.383655,-1.22562 h 0.210878 z m -0.366402,-0.48483 -0.135393,-0.45478 -0.133716,0.45478 z m 0.618976,0.48483 v -1.22562 h 0.297626 l 0.178768,0.83605 0.177329,-0.83605 h 0.298585 v 1.22562 H 27.33153 v -0.96477 l -0.195782,0.96477 h -0.192187 l -0.194104,-0.96477 v 0.96477 z m 1.300497,0 v -1.22562 h 0.731843 v 0.20737 h -0.533426 v 0.27184 h 0.495564 v 0.20614 h -0.495564 v 0.33364 h 0.55116 v 0.20663 z m 1.289713,0 v -1.01825 h -0.292834 v -0.20737 h 0.783366 v 0.20737 h -0.292115 v 1.01825 z"
       style="fill:#2b9fcf;fill-opacity:1;fill-rule:evenodd;stroke:none;stroke-width:0.26458332"
       inkscape:connector-curvature="0" />
    <path
       id="path1610"
       d="m 31.299637,169.80822 h -1.202965 v -0.6619 h 1.202965 v -0.58838 l 1.562897,0.91933 -1.562897,0.91909 z"
       style="fill:#2b9fcf;fill-opacity:1;fill-rule:evenodd;stroke:none;stroke-width:0.26458332"
       inkscape:connector-curvature="0" />
    <path
       id="path1612"
       d="m 14.967827,170.37804 v -1.81913 c 0,-0.2606 0.236279,-0.51144 0.481665,-0.51144 h 17.416157 l 0.02468,4.9e-4 0.02636,0.002 0.02612,0.003 0.02564,0.005 0.02516,0.006 0.02492,0.007 0.0242,0.008 0.02372,0.01 0.02301,0.0105 0.02252,0.0117 0.02205,0.0129 0.02109,0.0137 0.02037,0.0149 0.01965,0.0156 0.01893,0.0169 0.01797,0.0173 0.01725,0.0186 0.01629,0.019 0.01558,0.0203 0.01438,0.0208 0.01366,0.0215 0.01246,0.0222 0.0115,0.023 0.01054,0.0234 0.0093,0.0242 0.0081,0.0249 0.0072,0.0252 0.0058,0.0259 0.0046,0.0261 0.0034,0.0266 0.0019,0.0269 7.19e-4,0.0252 v 1.80154 l -7.19e-4,0.0252 -0.0019,0.0269 -0.0034,0.0266 -0.0046,0.0261 -0.0058,0.0256 -0.0072,0.0254 -0.0081,0.0247 -0.0093,0.0242 -0.01054,0.0237 -0.0115,0.023 -0.01246,0.0222 -0.01366,0.0215 -0.01438,0.0208 -0.01558,0.02 -0.01629,0.0193 -0.01725,0.0183 -0.01797,0.0176 -0.01893,0.0166 -0.01965,0.0159 -0.02037,0.0147 -0.02109,0.0139 -0.02205,0.0127 -0.02252,0.012 -0.02301,0.0105 -0.02372,0.01 -0.0242,0.009 -0.02492,0.007 -0.02516,0.006 -0.02564,0.005 -0.02612,0.003 -0.02636,0.002 -0.02468,4.9e-4 H 15.45069 c -0.263598,0 -0.482863,-0.26061 -0.482863,-0.52903 z m 0.158877,-0.01 v -1.78518 c 0,-0.21225 0.165348,-0.37174 0.360171,-0.37174 l 17.376617,-2.4e-4 c 0.199376,0 0.36089,0.16462 0.36089,0.36758 v 0 1.79764 0 c 0,0.20296 -0.161514,0.36758 -0.36089,0.36758 0,0 -17.378294,0 -17.378294,0 -0.204888,0 -0.339802,-0.13995 -0.358494,-0.37564 z"
       style="fill:#2b9fcf;fill-opacity:1;fill-rule:evenodd;stroke:none;stroke-width:0.26458332"
       inkscape:connector-curvature="0" />
    <path
       id="path1614"
       d="m 16.038034,168.9795 c 0.0062,0.001 0.01174,0.008 0.01246,0.0142 0.0014,0.009 -0.0127,0.0212 -0.0029,0.0391 -0.0103,-0.002 -0.01845,-0.0161 -0.03283,-0.0298 -0.01294,-4.9e-4 -0.0405,2.4e-4 -0.04625,2.4e-4 -0.0062,0.003 -0.02013,0.013 -0.02013,0.013 -0.02013,0.0117 -0.04984,0.0376 -0.07285,0.031 -0.02253,-10e-4 -0.04289,-0.0208 -0.06206,0.005 0.02923,0 0.02588,0.002 0.03019,0.009 -0.02348,-0.006 -0.05703,0.002 -0.0544,0.0444 -0.01222,0.007 -0.0115,0.0183 -0.0077,0.0254 0.0034,-0.011 0.01749,-0.0188 0.0254,-0.0129 0.0036,0.004 0.0081,0.004 0.0086,0.004 -0.0048,-0.0181 0.0139,-0.0432 0.03618,-0.0415 -0.02013,0.0112 -0.0242,0.0322 -0.01989,0.0374 -0.0127,0.001 -0.01534,0.0259 -0.01078,0.0286 0.01102,-0.0129 0.02253,-0.0195 0.02804,-0.0173 0.0024,7.3e-4 0.023,2.4e-4 0.02324,-4.9e-4 -0.0053,-0.007 -0.0046,-0.0176 -0.0019,-0.0215 0.006,-0.009 0.01246,-0.02 0.02612,-0.0174 9.58e-4,0.007 -0.0151,0.009 -0.01629,0.0227 -7.19e-4,0.003 0,0.007 7.19e-4,0.0103 7.19e-4,0.003 0.0046,0.005 0.0067,0.006 0.01366,4.9e-4 0.0089,0.0188 0.0067,0.0208 0.005,-0.002 0.01534,-0.005 0.01989,-0.0149 0.0034,-0.007 0.01606,-0.0137 0.01965,-0.0181 0.0081,-0.01 -0.0065,-0.021 -0.006,-0.0281 0.0036,-0.0132 0.01749,-0.01 0.02444,-0.005 0.0026,0.004 0.0043,0.01 0.0014,0.0171 0.03259,-0.003 0.01725,-0.0476 0.05416,-0.044 -0.0041,0.008 -0.0254,0.0376 -0.03211,0.0447 0.0089,0.004 0.02852,-0.002 0.03139,-0.0122 0.0081,-0.0147 0.01102,-0.0274 0.02947,-0.0298 0.0029,-4.9e-4 0.0074,4.9e-4 0.01007,7.3e-4 -0.0067,0.002 -0.0096,0.009 -0.01294,0.0142 l -0.01917,0.0271 c 0.01941,9.8e-4 0.02732,-0.007 0.03355,-0.0195 0.0041,-0.008 0.0103,-0.022 0.01773,-0.0252 -0.0115,-0.0171 -0.01198,-0.0173 -0.0046,-0.0381 0,0 0.0012,-0.004 0.0014,-0.006 0,-0.002 2.4e-4,-0.004 -4.79e-4,-0.006 -4.79e-4,-0.002 -9.58e-4,-0.003 -0.0022,-0.004 0.0019,0.001 0.0043,0 0.006,0.001 0.0139,0.009 0.0053,0.0159 0.0038,0.0381 0,0.002 0.0024,0.007 0.0055,0.009 0.0017,0.001 0.0026,0.007 0.0089,0.01 l 0.005,0.002 2.39e-4,-0.0447 0.01031,-4.9e-4 -2.4e-4,0.0498 c 0.01366,0.01 0.04289,0.0193 0.05344,0.007 -0.02924,-0.009 -0.02732,-0.01 -0.03906,-0.0208 0.0043,-0.005 0.0069,-0.0222 0.0026,-0.0281 -0.0034,-0.008 -0.0022,-0.0151 0.0043,-0.0198 0.0019,-10e-4 0.0036,-0.002 0.0055,-0.004 -9.58e-4,0.001 2.4e-4,0.001 -2.39e-4,0.003 -0.0031,0.01 0.0089,0.0264 0.0014,0.044 0.0084,0.004 0.01222,0.007 0.01941,0.0132 0.0029,0.002 0.0091,0.008 0.01486,0.008 0.0041,-4.9e-4 0.01893,-0.004 0.02229,-0.006 -0.0115,-0.003 -0.0242,-0.0132 -0.03331,-0.0171 0,0 -0.0062,-0.004 -0.01007,-0.005 0.0019,-0.004 7.19e-4,-9.7e-4 0.0014,-0.005 7.19e-4,-0.003 9.59e-4,-0.005 9.59e-4,-0.008 0,-0.002 0,-0.003 -2.4e-4,-0.005 -4.79e-4,-0.008 -0.0024,-0.0129 -0.0053,-0.0203 0,0 -0.0014,-0.004 -9.59e-4,-0.008 7.19e-4,-0.005 0.0034,-0.007 0.0062,-0.0108 9.58e-4,-0.002 0.0019,-0.002 0.0031,-0.004 0.0014,-0.002 0.0022,-0.003 0.0034,-0.005 -4.79e-4,0.002 -7.19e-4,0.003 -9.58e-4,0.006 -4.8e-4,0.002 -7.19e-4,0.003 -7.19e-4,0.006 0,0.003 0.0017,0.008 0.0017,0.008 0.0048,0.0115 0.0069,0.0269 0.0034,0.0391 0.0093,0.004 0.01893,0.0112 0.02564,0.0156 0.0029,0.002 0.0103,0.007 0.01582,0.007 0.005,-2.4e-4 0.01486,-0.003 0.01893,-0.007 -0.01366,-0.007 -0.03666,-0.0237 -0.04745,-0.0252 0.0046,-0.0169 0.0065,-0.0193 9.59e-4,-0.0342 -0.0031,-0.009 -0.0046,-0.0142 -0.0069,-0.021 0,0 -0.0012,-0.004 7.19e-4,-0.01 9.59e-4,-0.003 0.0022,-0.004 0.0041,-0.007 0.0019,-0.003 0.0034,-0.004 0.006,-0.007 -7.19e-4,0.002 -0.0012,0.003 -0.0012,0.005 -4.8e-4,0.002 -2.4e-4,0.004 2.4e-4,0.006 4.79e-4,0.003 0.0024,0.008 0.0024,0.008 0.0019,0.005 0.0034,0.009 0.0048,0.0137 l 0.0019,0.006 c 0.01126,-0.007 0.01078,-0.0193 0.0072,-0.0318 -0.0012,-0.003 -0.0029,-0.006 -0.0048,-0.01 0,0 -0.0019,-0.002 -0.0012,-0.009 2.39e-4,-0.004 0.0022,-0.006 0.0036,-0.01 0.0014,-0.004 0.0024,-0.006 0.0041,-0.009 0,0.002 2.4e-4,0.004 7.19e-4,0.006 4.79e-4,0.002 4.79e-4,0.004 0.0012,0.006 9.59e-4,0.002 0.0026,0.006 0.0026,0.006 0.0024,0.004 0.0043,0.009 0.0058,0.0132 0.0043,-0.003 0.0072,-0.008 0.0084,-0.0154 0.0012,-0.007 0,-0.0115 -0.0026,-0.0166 l -4.8e-4,2.5e-4 c -0.0022,-0.005 -0.0074,-0.0105 -0.0074,-0.0105 -0.0026,-0.003 -0.0022,-0.007 -0.0019,-0.011 0,-0.005 0.0014,-0.004 0.0038,-0.008 0.0038,0.009 0.0115,0.0183 0.01773,0.0271 0.006,0.0166 -4.8e-4,0.0369 -0.01606,0.0462 0.0024,0.0149 -0.006,0.0298 -0.01917,0.0364 0.0019,0.008 0.0024,0.0166 0,0.0256 0.0096,0.004 0.01917,0.008 0.02684,0.0144 0.01054,0.007 0.0254,0.011 0.03643,7.3e-4 -0.0163,-0.003 -0.03091,-0.0186 -0.04889,-0.0239 0.01678,-0.01 0.03259,0.003 0.04841,0.011 0.01007,0.009 0.02852,0.002 0.03379,0 -0.02971,-0.0242 0.02013,-0.0381 0.03666,-0.0462 0.06135,-0.023 0.162951,-0.10527 0.214713,-0.0725 0.01965,0.0125 0.01869,0.0266 0.01845,0.0506 -0.0017,0.02 0.0019,0.0506 0.03379,0.0659 0.01965,0.008 0.03043,0.0176 0.03067,0.033 0.01126,0.001 0.03163,-0.0107 0.03163,-0.02 h 0.02923 c 0.01678,0.0576 -0.05008,0.009 -0.06877,0.0452 -0.005,0.009 -0.0069,0.019 -0.0058,0.0266 -0.0043,0.002 -0.01654,0.0117 -0.0069,0.0286 0.0046,-0.008 0.01438,-0.0161 0.023,-0.0156 -9.59e-4,-0.0103 0.01366,-0.0354 0.03235,-0.0337 -0.0036,-7.3e-4 -0.02923,0.0269 -0.02157,0.0388 -0.0086,0.003 -0.0055,0.019 -0.0019,0.0264 0.0041,-0.006 0.01318,-0.0191 0.02444,-0.0181 0.0031,4.9e-4 0.0084,7.3e-4 0.01222,2.5e-4 0.0046,-7.4e-4 0.0069,-0.002 0.0069,-0.007 2.4e-4,-0.01 -0.0065,-0.0313 0.02612,-0.0337 -0.0163,0.0139 -0.02133,0.0296 -0.006,0.042 -0.0019,0.006 2.39e-4,0.0112 0.0048,0.0159 0.0038,-0.005 0.0058,-0.0188 0.01869,-0.0173 0.03954,0.002 0.05008,-0.0286 0.03786,-0.0432 l -0.0022,-0.001 c 0.0041,-0.0213 0.0022,-0.0232 2.39e-4,-0.0361 0.01773,-0.002 0.02253,2.5e-4 0.02971,0.007 -7.19e-4,-0.0115 -0.0043,-0.034 -0.02133,-0.034 -0.02348,-4.9e-4 -0.03067,0.004 -0.04002,-0.0125 0.0081,2.5e-4 0.03139,-0.004 0.04409,0.002 -4.79e-4,-0.002 -0.0062,-0.0115 -0.0077,-0.0137 -0.0026,-0.005 -0.0093,-0.0105 -0.01462,-0.0105 l -0.02324,4.8e-4 c -0.01054,0 -0.02133,-9.7e-4 -0.02085,-0.0144 0.0024,0.002 0.0369,-0.003 0.04553,0.004 -2.4e-4,-0.002 -4.79e-4,-0.003 -0.0017,-0.005 -0.0127,-0.0215 -0.03067,-0.0173 -0.05128,-0.0171 -0.01031,0 -0.0163,-0.0108 -0.01797,-0.0146 0.01677,0.002 0.03355,-0.003 0.04649,0.004 -0.0055,-0.033 -0.04361,-0.0178 -0.05751,-0.0249 -0.01078,-0.0117 -0.01725,-0.0213 -0.02276,-0.0347 0.0242,-0.001 0.03618,-0.006 0.05416,-0.0193 0.01414,-0.0134 0.02037,-0.0359 0.01222,-0.0571 -0.006,-0.0134 -0.02708,-0.0315 -0.0405,-0.0357 -0.04122,-0.006 -0.05775,-0.0213 -0.03475,-0.0471 -0.03618,-0.003 -0.05655,0.0103 -0.05272,0.0457 -0.02468,0.009 -0.05847,0.0435 -0.06159,0.0476 0.01078,-0.002 0.03834,-0.009 0.0532,-0.006 -0.0012,-0.007 0.0029,-0.0159 0.0029,-0.0159 0.0055,-0.0108 0.01653,-0.0142 0.02276,-0.0142 0.0019,0 -0.0012,0.003 -0.0084,0.012 -0.0115,0.02 0.0069,0.0225 0.01605,0.0227 -0.0026,-0.006 0,-0.0134 0.005,-0.02 0.0026,-0.004 0.02636,-0.0164 0.0163,-0.006 l -0.0067,0.008 c -0.0058,0.0129 -0.01222,0.0234 0.01965,0.0335 -0.0022,-0.034 0.04242,-0.041 0.03427,-2.5e-4 -0.0029,0.0139 -0.01462,0.0137 -0.02804,0.0152 -0.02756,-4.9e-4 -0.01653,-0.005 -0.04026,-0.009 -0.04913,-0.008 -0.0671,-0.0117 -0.114305,-0.002 -0.04481,0.009 -0.07477,0.0205 -0.120057,0.0293 -0.04242,0.008 -0.06422,0.007 -0.10544,0.003 -0.01725,-0.003 -0.02804,-0.004 -0.03882,-0.0117 9.58e-4,0.007 0.0043,0.007 0.0058,0.0305 -0.0038,-0.0115 -0.01318,-0.0249 -0.02013,-0.0342 l -0.01606,-0.0144 c -0.0062,-0.008 -0.0029,-0.0181 0.0019,-0.0227 2.4e-4,0.008 0.0029,0.0127 0.0077,0.0186 l 0.0163,0.0125 c 0.0029,-0.0237 -0.0053,-0.0454 -0.0151,-0.0657 0.0065,-0.0134 0.006,-0.031 0.0055,-0.0452 -9.58e-4,0.001 -0.006,0.008 -0.0077,0.01 -0.01366,0.0132 -0.01749,0.0103 -0.01462,0.0337 -0.0098,-0.006 -0.01797,-0.0171 -0.0151,-0.0296 0.0026,-0.0107 0.0151,-0.009 0.01821,-0.01 0.0043,-0.001 0.0069,-0.005 0.01007,-0.008 0.0014,-10e-4 0.0036,-0.007 0.0046,-0.008 -0.01174,-0.001 -0.02252,-0.003 -0.03403,-7.3e-4 -0.0065,-0.0122 -0.01749,-0.0147 -0.03163,-0.0137 -0.0067,-0.0134 -0.02756,-0.0129 -0.03978,-0.0129 -0.01198,0 -0.02971,-2.4e-4 -0.03666,0.0132 -0.0081,0 -0.02876,2.5e-4 -0.03187,0.0137 -0.01102,-0.004 -0.02229,-0.001 -0.03403,0 0.0022,0.004 0.01006,0.0159 0.01582,0.0181 0.0062,-4.8e-4 0.0127,0.002 0.01582,0.008 0.0022,0.005 -2.4e-4,0.0156 -0.0029,0.0173 -0.0036,0.005 -0.0067,0.009 -0.01198,0.012 0.0062,-0.0103 7.19e-4,-0.0198 -0.0072,-0.0271 -0.0096,-0.009 -0.0089,-0.0103 -0.01414,-0.0193 -4.79e-4,0.0144 -4.79e-4,0.0354 0.006,0.0488 -0.01701,0.0188 -0.01653,0.0437 -0.01605,0.066 0.0038,-0.005 0.02205,-0.0193 0.02564,-0.0296 0.0046,0.0103 0.0046,0.019 -0.0043,0.0266 l -0.02396,0.0291 c -0.0012,0.002 -0.0022,0.003 -0.0029,0.005 -0.0041,0.008 -0.0065,0.009 -0.0067,0.003 0,-0.003 2.4e-4,-0.008 0.0026,-0.0122 -0.0242,-0.0115 -0.04242,-0.0305 -0.06039,-0.0476 -0.01605,-0.0149 -0.01797,-0.0256 -0.0096,-0.0413 4.79e-4,-9.7e-4 9.58e-4,-0.002 0.0014,-0.003 7.19e-4,-0.001 0.0012,-0.002 0.0019,-0.003 7.19e-4,-0.001 0.0014,-0.003 0.0022,-0.004 7.19e-4,-0.001 0.0014,-0.002 0.0024,-0.004 0.0077,-0.0139 0.0046,-0.0322 -0.0091,-0.0413 0.0017,-0.004 -2.4e-4,-0.0271 -0.01629,-0.0293 0.0022,0.009 0.0012,0.0134 -0.0031,0.0261 0.0065,0.0125 0.0041,0.0217 -0.0038,0.0264 0.0034,-0.0159 -0.0093,-0.0303 -0.01917,-0.0354 -0.0034,-0.008 -0.01725,-0.0232 -0.03115,-0.0108 0.0079,0.003 0.0115,0.009 0.0127,0.0156 -0.0046,0.003 -0.0077,0.005 -0.0084,0.011 0.0041,-2.4e-4 0.03499,0.0117 0.02229,0.0291 -0.01174,-0.0164 -0.01653,-0.0215 -0.0369,-0.0186 -0.01246,-0.009 -0.01869,-0.0103 -0.029,-0.001 l 0.01749,0.0129 c 0.0043,0.001 -0.0093,-9.8e-4 -0.0093,0.0205 0.0012,0.008 0.0014,0.01 0.0055,0.019 0.0034,0.007 0.01773,0.0132 0.02229,0.0115 0.01629,-0.0176 0.023,0.0151 0.0072,0.0107 -0.0026,-7.3e-4 -0.02277,-0.011 -0.02372,0.012 -2.39e-4,0.003 -0.01366,0.001 -0.01725,-4.9e-4 0.0022,0.022 0.01582,0.019 0.01941,0.0217 0.01246,0.0208 0.0278,0.0203 0.03307,0.0161 0.0086,-0.008 0.01653,-0.0127 0.02756,-0.002 0.0062,0.009 0.0055,0.0222 -0.01342,0.0278 l -0.0034,9.8e-4 0.0017,0.003 c 4.79e-4,9.8e-4 0.0014,0.002 0.0022,0.003 0.0031,0.004 0.01486,0.007 0.01941,0.007 h 0.03043 c 0.005,0 0.0084,7.3e-4 0.0127,0.004 0.0019,0.001 0.0081,0.007 0.0093,0.009 -0.0014,-2.5e-4 -0.0031,-4.9e-4 -0.0048,-4.9e-4 l -0.04481,-9.8e-4 0.0014,0.004 c 0.0019,0.005 0.005,0.006 0.0091,0.009 0.0038,0.003 0.0069,0.004 0.01174,0.004 h 0.03451 c 0.0053,0 0.0084,-2.4e-4 0.0127,0.003 0.0019,0.001 0.0067,0.007 0.0081,0.009 -0.0017,-4.9e-4 -0.0034,-7.3e-4 -0.0053,-7.3e-4 h -0.04601 v 0 c 0.0022,0.005 0.0055,0.0112 0.0098,0.0142 0.0041,0.003 0.0072,0.004 0.01222,0.004 l 0.03427,-4.9e-4 c 0.0053,0 0.0086,4.9e-4 0.01294,0.004 0.0019,0.001 0.0089,0.008 0.01006,0.009 -0.0017,-4.9e-4 -0.0031,-7.3e-4 -0.005,-7.3e-4 l -0.04218,-2.4e-4 0.0029,0.004 c 0.0017,0.003 0.0041,0.006 0.0067,0.009 0.0069,0.007 0.01102,0.004 0.02061,0.004 l 0.04146,-4.9e-4 -0.01246,-0.0154 c -0.0041,-0.003 -0.0026,-0.0137 -0.0026,-0.021 -0.0038,-0.006 -0.0266,-0.0125 -0.01318,-0.0476 l 0.0036,-0.006 c 0.0043,-0.007 0.01078,-0.0151 0.0115,-0.0161 0.0091,0.0125 0.0026,0.0169 -0.0067,0.0305 -0.0043,0.0127 0.0014,0.0225 0.01054,0.0281 0.005,-0.01 0.0036,-0.022 0.0072,-0.0232 0.0046,0.007 0.0086,0.0134 0.005,0.02 -0.0024,0.004 -0.0041,0.006 -0.0055,0.01 -0.0041,0.0144 -9.58e-4,0.0259 0.0096,0.0318 0.0012,-0.006 0.0014,-0.0103 0.0048,-0.0176 0.0029,-0.006 0.0034,-0.0103 0.0029,-0.0159 0.0062,0.005 0.0098,0.0112 0.0086,0.0193 -9.59e-4,0.007 -0.0046,0.01 -0.006,0.0169 -0.0022,0.01 0.0069,0.0151 0.0127,0.0188 0.0055,-0.006 0.005,-0.0139 0.0038,-0.0256 z m 0.382697,0.0427 c -0.0024,-0.008 -0.0026,-0.0127 -0.0012,-0.0205 0.0012,-0.0117 0.0093,-0.0244 0.01965,-0.0296 0.0091,-0.005 0.0115,-0.007 0.02109,-0.009 0.0077,-0.002 0.01582,-0.001 0.02253,-0.005 0.0055,-0.003 0.0084,-0.006 0.01318,-0.01 -0.006,0.009 -0.0103,0.0142 -0.01893,0.0213 -0.0067,0.006 -0.01126,0.006 -0.01989,0.0105 -0.0077,0.004 -0.0096,0.007 -0.01558,0.0117 -0.0053,0.004 -0.0103,0.01 -0.01486,0.0164 -0.0031,0.005 -0.0046,0.009 -0.006,0.0144 z m 0.167025,-0.0491 c 0.0024,0.007 0.0046,0.01 0.0091,0.0154 0.0053,0.006 0.0089,0.0103 0.01677,0.0127 0.0041,10e-4 0.0065,10e-4 0.01078,10e-4 h 0.03906 c -0.0012,-0.003 -0.0022,-0.005 -0.0041,-0.008 -0.0024,-0.003 -0.0036,-0.005 -0.0067,-0.007 -0.0058,-0.004 -0.01054,-0.002 -0.01725,-0.002 -0.0046,2.5e-4 -0.0072,0.001 -0.01198,0.001 -0.0055,2.4e-4 -0.0089,2.4e-4 -0.01438,-9.8e-4 -0.0055,-0.001 -0.0089,-0.002 -0.01342,-0.005 -0.0036,-0.002 -0.0055,-0.004 -0.0079,-0.008 z m -0.492688,0.0313 c -0.0031,-7.3e-4 -0.0048,-0.001 -0.0079,-0.002 -0.0053,-0.002 -0.0081,-0.003 -0.01294,-0.006 -0.0031,-0.002 -0.0053,-0.004 -0.0065,-0.006 -0.01102,-0.002 -0.01917,-0.0115 -0.01917,-0.023 -0.01462,-0.008 -0.02109,-0.0269 -0.01366,-0.0418 0,0 0.0014,-0.003 0.0019,-0.006 4.8e-4,-0.003 4.8e-4,-0.004 0,-0.007 0.0017,0.002 0.0024,0.004 0.0041,0.006 0.0017,0.002 0.0031,0.003 0.0041,0.006 0.0012,0.003 7.19e-4,0.008 7.19e-4,0.008 -0.0034,0.009 -2.4e-4,0.0171 0.0072,0.0222 0,0 0.0012,-0.003 0.0017,-0.006 4.8e-4,-0.003 7.19e-4,-0.004 4.8e-4,-0.007 -2.4e-4,-0.002 -4.8e-4,-0.003 -9.59e-4,-0.006 0.0014,0.003 0.0024,0.004 0.0043,0.007 0.0012,0.002 0.0022,0.002 0.0034,0.004 0.0012,0.002 0.0019,0.004 0.0022,0.006 0,0.002 -0.0012,0.006 -0.0012,0.006 -7.19e-4,0.004 -0.0022,0.007 -9.59e-4,0.0107 7.19e-4,0.003 0.0026,0.006 0.0053,0.007 0.0012,-0.004 0.0026,-0.007 0.0043,-0.0105 0,0 2.39e-4,-0.003 2.39e-4,-0.004 0,-0.002 -4.79e-4,-0.004 -0.0014,-0.006 0.0024,0.002 0.0036,0.003 0.0055,0.005 0.0017,0.002 0.0022,0.002 0.0043,0.004 0.0012,0.001 0.0024,0.005 0.0019,0.008 -2.4e-4,10e-4 -0.0014,0.004 -0.0014,0.004 -0.0017,0.004 -0.0019,0.008 0.0014,0.0115 0.0022,0.002 0.0041,0.002 0.0069,0.002 v -0.0234 h 0.01246 v 0.0234 c 0.0029,-4.8e-4 0.0048,-2.4e-4 0.0069,-0.002 0.0034,-0.003 0.0031,-0.008 0.0014,-0.0115 0,0 -0.0012,-0.002 -0.0014,-0.004 -4.79e-4,-0.003 7.19e-4,-0.007 0.0019,-0.008 0.0022,-0.002 0.0026,-0.003 0.0043,-0.004 0.0019,-0.002 0.0031,-0.003 0.0053,-0.005 -7.19e-4,0.002 -0.0012,0.004 -0.0012,0.006 0,0.002 2.39e-4,0.004 2.39e-4,0.004 0.0017,0.003 0.0031,0.007 0.0041,0.0105 0.0029,-10e-4 0.0046,-0.003 0.0055,-0.007 0.0012,-0.004 -2.4e-4,-0.007 -9.59e-4,-0.0107 0,0 -0.0014,-0.004 -0.0012,-0.006 2.4e-4,-0.003 9.58e-4,-0.004 0.0022,-0.006 9.58e-4,-0.002 0.0022,-0.002 0.0034,-0.004 0.0017,-0.002 0.0026,-0.004 0.0043,-0.007 -7.19e-4,0.002 -9.59e-4,0.004 -9.59e-4,0.006 -2.39e-4,0.003 -2.39e-4,0.004 4.8e-4,0.007 4.79e-4,0.002 0.0017,0.006 0.0017,0.006 0.0074,-0.005 0.01054,-0.0132 0.0072,-0.0222 0,0 -7.19e-4,-0.004 7.19e-4,-0.008 9.59e-4,-0.002 0.0024,-0.004 0.0041,-0.006 0.0017,-0.002 0.0024,-0.004 0.0041,-0.006 -4.8e-4,0.003 -4.8e-4,0.005 0,0.007 4.79e-4,0.002 0.0019,0.006 0.0019,0.006 0.0074,0.0149 9.58e-4,0.034 -0.01366,0.0418 0,0.0115 -0.0081,0.021 -0.01917,0.023 -0.0012,0.002 -0.0034,0.004 -0.0062,0.006 -0.005,0.003 -0.0079,0.005 -0.01318,0.006 -0.0031,9.7e-4 -0.0048,0.001 -0.0079,0.002 z m -0.03954,-0.20272 c 0,-0.003 9.58e-4,-0.006 0.0029,-0.007 h -0.0096 c -0.0043,0 -0.0067,-0.002 -0.0096,-0.006 -0.0036,-0.004 -0.0048,-0.007 -0.0043,-0.0127 0.0019,0.003 0.0036,0.004 0.0065,0.005 0.0022,9.8e-4 0.0036,0.001 0.0062,0.001 h 0.03259 c 0.0022,0 0.0036,9.7e-4 0.005,0.003 0.0019,0.002 0.0014,0.005 0.0014,0.008 v 0.006 c -4.79e-4,-0.001 -9.58e-4,-0.002 -0.0022,-0.003 -0.0012,-10e-4 -0.0024,-0.002 -0.0043,-0.002 h -0.0079 c 0.0019,0.002 0.0031,0.004 0.0031,0.007 0,0.006 -0.0046,0.01 -0.01006,0.01 -0.0055,0 -0.0098,-0.004 -0.0098,-0.01 z m 0.05919,0 c 0,-0.003 0.0012,-0.006 0.0031,-0.007 h -0.0079 c -0.0019,0 -0.0031,0.001 -0.0043,0.002 -0.0012,9.7e-4 -0.0017,0.002 -0.0022,0.003 v -0.006 c 0,-0.003 -4.8e-4,-0.006 0.0014,-0.008 0.0014,-0.002 0.0029,-0.003 0.005,-0.003 h 0.03259 c 0.0026,0 0.0038,-4.9e-4 0.0062,-0.001 0.0029,-0.001 0.0046,-0.003 0.0065,-0.005 4.79e-4,0.005 -7.19e-4,0.009 -0.0043,0.0127 -0.0029,0.003 -0.0053,0.006 -0.0096,0.006 h -0.0096 c 0.0017,0.002 0.0029,0.004 0.0029,0.007 0,0.006 -0.0043,0.01 -0.0098,0.01 -0.0055,0 -0.01007,-0.004 -0.01007,-0.01 z m 0.06422,0.0799 c 0.0017,0.003 0.0022,0.004 0.0034,0.007 9.59e-4,0.002 0.0014,0.004 0.0024,0.006 0.0012,-0.004 0.0022,-0.004 0.0029,-0.007 7.19e-4,-0.003 2.4e-4,-0.006 2.4e-4,-0.01 2.4e-4,-0.005 -4.79e-4,-0.008 -0.0034,-0.012 l -0.0096,-0.0134 c -0.0017,-0.002 -0.0019,-0.004 -0.0022,-0.007 -2.4e-4,-0.002 -2.4e-4,-0.003 2.4e-4,-0.005 -0.0024,0.002 -0.0034,0.003 -0.005,0.006 -0.0022,0.004 -0.0031,0.006 -0.0026,0.0107 2.4e-4,0.004 0.0014,0.006 0.0036,0.009 l 0.0077,0.011 c 9.59e-4,0.001 0.0017,0.002 0.0024,0.004 z m -0.155043,-0.001 c 0.0022,0.003 0.0031,0.005 0.0043,0.009 0.0012,0.003 0.0017,0.005 0.0017,0.009 0,0.004 -4.8e-4,0.006 -0.0019,0.009 -0.0014,0.003 -0.0031,0.004 -0.0048,0.007 -0.0017,0.003 -0.0031,0.005 -0.0038,0.009 -7.19e-4,0.003 -7.19e-4,0.005 0,0.009 -0.0019,-0.003 -0.0029,-0.004 -0.0041,-0.007 -0.0019,-0.004 -0.0036,-0.007 -0.0034,-0.0115 0,-0.004 0.0017,-0.007 0.0036,-0.0108 0.0014,-0.003 0.0031,-0.004 0.0046,-0.007 0.0017,-0.003 0.0029,-0.005 0.0036,-0.008 4.8e-4,-0.002 4.8e-4,-0.004 2.4e-4,-0.006 z m -0.0127,0.001 c -0.0017,0.003 -0.0022,0.004 -0.0034,0.007 -9.59e-4,0.002 -0.0014,0.004 -0.0024,0.006 -4.79e-4,-0.003 -7.19e-4,-0.005 -0.0014,-0.009 -4.79e-4,-0.003 -0.0017,-0.005 -0.0017,-0.008 -2.4e-4,-0.005 4.79e-4,-0.008 0.0034,-0.012 l 0.0096,-0.0134 c 0.0017,-0.002 0.0019,-0.004 0.0022,-0.007 2.4e-4,-0.002 0,-0.003 -2.4e-4,-0.005 0.0022,0.002 0.0034,0.003 0.0048,0.006 0.0024,0.004 0.0034,0.006 0.0029,0.0107 -2.4e-4,0.004 -0.0014,0.006 -0.0036,0.009 l -0.0077,0.011 c -9.59e-4,0.001 -0.0017,0.002 -0.0024,0.004 z m 0.09418,-0.14655 h 0.0029 c 0.0024,0 0.0036,0 0.006,4.9e-4 0.0031,7.4e-4 0.005,0.001 0.0077,0.003 0.0022,0.001 0.0034,0.002 0.0048,0.004 l 0.0036,0.006 c 0.0012,0.002 0.0017,0.003 0.0031,0.004 0.0024,0.002 0.0041,0.003 0.0072,0.003 h -0.0127 c -0.0031,0 -0.005,0 -0.0077,-10e-4 -0.0024,-0.001 -0.0034,-0.003 -0.0048,-0.005 l -0.0031,-0.005 c -0.0019,-0.003 -0.0026,-0.006 -0.0055,-0.008 -4.79e-4,-4.9e-4 -7.18e-4,-7.4e-4 -0.0014,-0.001 z m -0.0532,0.009 0.0031,-0.002 c 0.0031,-0.002 0.005,-0.003 0.0086,-0.003 0.0022,-2.4e-4 0.0034,-2.4e-4 0.0053,4.9e-4 0.0029,0.001 0.0043,0.002 0.006,0.005 l 0.0043,0.007 c 9.59e-4,0.001 0.0012,0.002 0.0024,0.003 0.0014,0.002 0.0026,0.003 0.0046,0.004 h -0.01078 c -0.0029,0 -0.0048,-2.5e-4 -0.0072,-0.002 -0.0019,-0.001 -0.0026,-0.003 -0.0041,-0.005 l -0.0038,-0.006 c -0.0014,-0.002 -0.0031,-0.003 -0.0055,-0.003 -0.0012,0 -0.0017,0 -0.0029,0 z m 0.02205,-0.01 0.0034,-10e-4 c 0.0026,-9.8e-4 0.0046,-0.001 0.0074,-9.8e-4 0.0036,2.5e-4 0.0058,4.9e-4 0.0086,0.003 0.0019,0.001 0.0029,0.002 0.0041,0.004 l 0.0115,0.0171 c 9.58e-4,0.001 0.0017,0.002 0.0031,0.004 0.0019,10e-4 0.0034,0.002 0.006,0.002 -0.0036,0.001 -0.0058,0.002 -0.0093,0.002 -0.0043,0 -0.0069,-4.9e-4 -0.01054,-0.003 -0.0022,-10e-4 -0.0031,-0.002 -0.0046,-0.004 l -0.01246,-0.0173 c -7.19e-4,-10e-4 -0.0012,-0.002 -0.0022,-0.002 -0.0019,-0.001 -0.0029,-0.002 -0.005,-0.002 z m 0.09178,0.1463 c -0.0019,0.003 -0.0029,0.005 -0.0041,0.009 -0.0012,0.003 -0.0017,0.005 -0.0017,0.009 0,0.004 4.79e-4,0.006 0.0019,0.009 0.0014,0.003 0.0031,0.004 0.0046,0.007 0.0019,0.003 0.0034,0.005 0.0041,0.009 4.79e-4,0.003 4.79e-4,0.005 0,0.009 0.0019,-0.003 0.0029,-0.004 0.0041,-0.007 0.0019,-0.004 0.0036,-0.007 0.0034,-0.0115 0,-0.004 -0.0017,-0.007 -0.0036,-0.0108 -0.0017,-0.003 -0.0031,-0.004 -0.0046,-0.007 -0.0017,-0.003 -0.0029,-0.005 -0.0036,-0.008 -4.8e-4,-0.002 -4.8e-4,-0.004 -4.8e-4,-0.006 z m -0.03714,-0.009 c 9.58e-4,0.0105 4.79e-4,0.0213 -0.0014,0.0315 0.0022,0.005 0.0041,0.0129 0.0041,0.0198 0,0.0134 -0.01126,0.022 -0.0242,0.0213 -0.0036,-2.4e-4 -0.0077,-0.001 -0.01222,-0.001 -0.01294,0 -0.01821,0.005 -0.03019,-0.005 -0.0048,-0.004 -0.0062,-0.009 -0.0062,-0.0149 0,-0.007 0.0014,-0.0149 0.0038,-0.0203 -0.0017,-0.0103 -0.0022,-0.0205 -0.0014,-0.031 -0.0093,-0.003 -0.01725,-0.0115 -0.01845,-0.0244 -0.02205,-0.003 -0.03475,-0.0257 -0.03355,-0.0469 0,0 0.0017,-0.007 0.0041,-0.011 0.0026,-0.004 0.0046,-0.006 0.0086,-0.009 v 0.022 c 0,0.0169 0.0096,0.032 0.02732,0.0315 h 0.0074 c -7.19e-4,0.007 -0.0022,0.0112 9.59e-4,0.0173 0.0074,0.0144 0.03355,0.0107 0.03163,-0.007 -0.006,-0.002 -0.01031,-0.009 -0.01031,-0.0156 h 0.03283 c 0,0.007 -0.0046,0.0132 -0.01054,0.0156 -0.0019,0.0176 0.02396,0.0213 0.03163,0.007 0.0031,-0.006 0.0017,-0.0107 9.59e-4,-0.0173 h 0.0074 c 0.01773,4.9e-4 0.02732,-0.0146 0.02732,-0.0315 v -0.022 c 0.0041,0.002 0.006,0.004 0.0086,0.009 0.0024,0.004 0.0041,0.011 0.0041,0.011 0.0012,0.0213 -0.01174,0.044 -0.03355,0.0469 -0.0012,0.0129 -0.0091,0.021 -0.01869,0.0244 z m -0.01342,0.0315 c -2.39e-4,-0.008 0.0022,-0.0188 0.0022,-0.0266 l -0.01006,0.009 c 0,0 -0.0034,-0.008 -0.0046,-0.0122 -0.0079,0 -0.0086,4.9e-4 -0.01582,2.5e-4 -0.0029,0.006 -0.0053,0.0122 -0.0055,0.0127 l -0.0093,-0.0105 c 0,0.008 0.0014,0.0186 0.0012,0.0266 0.0072,7.3e-4 0.03523,2.4e-4 0.04194,4.9e-4 z m -0.02516,0.0115 c -0.0081,7.3e-4 -0.02157,0.002 -0.01869,0.01 0.0017,0.005 0.007,0.006 0.01246,0.007 0.0041,9.7e-4 0.0067,-2.5e-4 0.01102,-2.5e-4 0.0043,0 0.0069,0.001 0.01126,2.5e-4 0.0053,-9.8e-4 0.0103,-0.002 0.01222,-0.007 0.0029,-0.008 -0.01078,-0.009 -0.01893,-0.01 -0.0019,0 -0.0031,0 -0.0046,0 -0.0022,0 -0.0031,0 -0.0048,2.5e-4 z m 0.448835,0.0276 c -0.0058,-0.0454 -0.04865,-0.0413 -0.07405,-0.0296 0.0069,0.0183 -0.01366,0.0259 -0.01989,0.0274 -0.02276,0.005 -0.0254,0.002 -0.04577,0.007 -0.02923,0.007 -0.04194,0.0361 -0.05032,0.0569 -0.0034,0.009 -0.0086,0.0159 -0.01342,0.0227 0.01078,-0.002 0.02468,-0.003 0.03571,-0.002 -0.0036,0.003 -0.02684,0.0274 -0.03235,0.0344 -0.01629,0.008 -0.02804,0.005 -0.04577,-0.002 -0.02636,-0.0164 -0.06542,0.005 -0.06614,0.033 -0.0115,0.003 -0.02205,0.0222 -0.01462,0.0335 7.19e-4,-0.003 0.0151,-0.0156 0.02277,-0.0149 0.0017,-0.007 0.01174,-0.0259 0.01965,-0.0257 0.0041,-0.002 0.01054,-0.003 0.01438,-2.4e-4 -0.0043,-9.8e-4 -0.02444,0.023 -0.0242,0.0288 -0.0096,0.001 -0.01821,0.0256 -0.0093,0.03 0.0012,-0.006 0.02253,-0.0188 0.02756,-0.0215 4.79e-4,-0.0117 0.02037,-0.032 0.03067,-0.0252 -0.01653,0.008 -0.02492,0.0322 -0.02085,0.0496 0.0026,-9.8e-4 0.01558,-0.021 0.03211,-0.012 0.0081,0.004 0.02301,2.5e-4 0.02876,-0.006 0.0084,-0.009 0.01054,-0.0195 0.0029,-0.0298 0.01486,-0.003 0.01821,0.0159 0.01366,0.0242 0.01078,0.003 0.0393,-0.0107 0.04074,-0.0296 0.01126,-0.009 0.01318,-0.0103 0.02708,-0.0261 -0.0024,0.0134 0.0053,0.0186 0.0043,0.0322 0.0062,-0.007 0.01582,-0.019 0.01174,-0.0315 l -0.005,-0.019 c -0.0012,-0.005 -0.0014,-0.008 2.4e-4,-0.0125 0.0012,-0.003 0.0029,-0.005 0.005,-0.007 l 0.0058,-0.006 c -0.0017,0.0117 0.0058,0.0274 0.0079,0.0457 0.0043,-0.004 0.01318,-0.012 0.01414,-0.0234 l -0.0019,-0.0149 c -0.0012,-0.005 -0.006,-0.0217 -0.0043,-0.0264 0.0012,-0.003 0.0026,-0.005 0.005,-0.007 l 0.0062,-0.005 c -0.0014,0.003 0,0.005 -2.39e-4,0.009 -2.4e-4,0.0164 0.0058,0.022 0.006,0.0384 0.0048,-0.005 0.01294,-0.0112 0.0115,-0.02 -0.0029,-0.0152 -7.19e-4,-0.0266 0.0089,-0.0366 0.0089,-0.009 0.04122,-0.0325 0.04553,-0.0388 z m 0.01773,-0.1805 c -0.02804,0.007 -0.07692,0.0208 -0.101126,0.0281 -0.03379,0.01 -0.04913,0.0198 -0.08363,0.0271 -0.03187,0.007 -0.04913,0.0103 -0.07141,0.007 -0.01006,-0.002 -0.01845,-0.009 -0.02276,-0.0151 -0.0053,-0.008 -0.0067,-0.0215 0.0036,-0.0264 0.0093,-0.004 0.02181,0.006 0.01654,0.0195 0.04601,-2.5e-4 0.03547,-0.0308 0.01486,-0.041 0.02277,4.9e-4 0.029,0.009 0.02852,0.0266 0.05248,0.001 0.06542,-0.0254 0.08747,-0.0532 -0.01749,0.005 -0.02468,0.0203 -0.10496,0.001 -0.02229,0 -0.05751,9.8e-4 -0.07453,0.02 -0.0086,0.01 -0.01845,0.0266 -0.01534,0.0481 0.0046,0.0383 0.05272,0.0525 0.08315,0.0505 0.06206,-0.003 0.126766,-0.03 0.19003,-0.0449 0.0072,-0.0102 0.02923,-0.0308 0.0508,-0.0422 0.0043,-0.002 0.0024,-0.006 -0.0012,-0.005 z"
       style="fill:#231f20;fill-opacity:1;fill-rule:evenodd;stroke:none;stroke-width:0.26458332"
       inkscape:connector-curvature="0" />
    <path
       id="path1616"
       d="m 16.038034,169.46262 c 0.0062,0.001 0.01174,0.008 0.01246,0.0142 0.0014,0.009 -0.0127,0.021 -0.0029,0.0388 -0.0103,-0.002 -0.01845,-0.0161 -0.03283,-0.0298 -0.01294,-4.9e-4 -0.0405,2.4e-4 -0.04625,2.4e-4 -0.0062,0.003 -0.02013,0.0129 -0.02013,0.0129 -0.02013,0.0117 -0.04984,0.0376 -0.07285,0.031 -0.02253,-10e-4 -0.04289,-0.0208 -0.06206,0.005 0.02923,0 0.02588,0.002 0.03019,0.009 -0.02348,-0.006 -0.05703,0.002 -0.0544,0.0445 -0.01222,0.007 -0.0115,0.0183 -0.0077,0.0254 0.0034,-0.011 0.01749,-0.0186 0.0254,-0.0127 0.0036,0.004 0.0081,0.004 0.0086,0.003 -0.0048,-0.0181 0.0139,-0.043 0.03618,-0.0415 -0.02013,0.0112 -0.0242,0.0322 -0.01989,0.0376 -0.0127,0.001 -0.01534,0.0256 -0.01078,0.0283 0.01102,-0.013 0.02253,-0.0195 0.02804,-0.0173 0.0024,7.3e-4 0.023,2.4e-4 0.02324,-4.9e-4 -0.0053,-0.007 -0.0046,-0.0176 -0.0019,-0.0215 0.006,-0.009 0.01246,-0.0198 0.02612,-0.0173 9.58e-4,0.008 -0.0151,0.009 -0.01629,0.0227 -7.19e-4,0.003 0,0.007 7.19e-4,0.0103 7.19e-4,0.003 0.0046,0.005 0.0067,0.006 0.01366,4.9e-4 0.0089,0.019 0.0067,0.0208 0.005,-0.002 0.01534,-0.005 0.01989,-0.0146 0.0034,-0.007 0.01606,-0.0139 0.01965,-0.0181 0.0081,-0.01 -0.0065,-0.0212 -0.006,-0.0281 0.0036,-0.0132 0.01749,-0.01 0.02444,-0.006 0.0026,0.004 0.0043,0.01 0.0014,0.0171 0.03259,-0.003 0.01725,-0.0476 0.05416,-0.044 -0.0041,0.008 -0.0254,0.0376 -0.03211,0.0447 0.0089,0.004 0.02852,-0.002 0.03139,-0.0122 0.0081,-0.0144 0.01102,-0.0274 0.02947,-0.0298 0.0029,-4.9e-4 0.0074,7.3e-4 0.01007,7.3e-4 -0.0067,0.002 -0.0096,0.009 -0.01294,0.0142 l -0.01917,0.0271 c 0.01941,9.8e-4 0.02732,-0.007 0.03355,-0.0195 0.0041,-0.008 0.0103,-0.0217 0.01773,-0.0252 -0.0115,-0.0171 -0.01198,-0.0173 -0.0046,-0.0381 0,0 0.0012,-0.004 0.0014,-0.006 0,-0.002 2.4e-4,-0.004 -4.79e-4,-0.006 -4.79e-4,-0.002 -9.58e-4,-0.003 -0.0022,-0.004 0.0019,9.8e-4 0.0043,-2.4e-4 0.006,9.8e-4 0.0139,0.009 0.0053,0.0159 0.0038,0.0381 0,0.002 0.0024,0.007 0.0055,0.009 0.0017,0.001 0.0026,0.007 0.0089,0.01 l 0.005,0.002 2.39e-4,-0.0449 0.01031,-4.9e-4 -2.4e-4,0.0498 c 0.01366,0.01 0.04289,0.0193 0.05344,0.007 -0.02924,-0.01 -0.02732,-0.01 -0.03906,-0.021 0.0043,-0.005 0.0069,-0.0222 0.0026,-0.0281 -0.0034,-0.008 -0.0022,-0.0151 0.0043,-0.0195 0.0019,-10e-4 0.0036,-0.003 0.0055,-0.004 -9.58e-4,0.001 2.4e-4,0.001 -2.39e-4,0.003 -0.0031,0.01 0.0089,0.0266 0.0014,0.044 0.0084,0.004 0.01222,0.007 0.01941,0.0132 0.0029,0.002 0.0091,0.009 0.01486,0.008 0.0041,-4.9e-4 0.01893,-0.004 0.02229,-0.006 -0.0115,-0.003 -0.0242,-0.0132 -0.03331,-0.0173 0,0 -0.0062,-0.004 -0.01007,-0.005 0.0019,-0.004 7.19e-4,-10e-4 0.0014,-0.005 7.19e-4,-0.003 9.59e-4,-0.005 9.59e-4,-0.008 0,-0.002 0,-0.003 -2.4e-4,-0.005 -4.79e-4,-0.008 -0.0024,-0.0132 -0.0053,-0.0205 0,0 -0.0014,-0.004 -9.59e-4,-0.008 7.19e-4,-0.005 0.0034,-0.007 0.0062,-0.0108 9.58e-4,-0.002 0.0019,-0.002 0.0031,-0.004 0.0014,-0.002 0.0022,-0.003 0.0034,-0.005 -4.79e-4,0.002 -7.19e-4,0.003 -9.58e-4,0.006 -4.8e-4,0.002 -7.19e-4,0.003 -7.19e-4,0.006 0,0.003 0.0017,0.008 0.0017,0.008 0.0048,0.0115 0.0069,0.0269 0.0034,0.0393 0.0093,0.004 0.01893,0.011 0.02564,0.0154 0.0029,0.002 0.0103,0.007 0.01582,0.007 0.005,0 0.01486,-0.003 0.01893,-0.007 -0.01366,-0.006 -0.03666,-0.0234 -0.04745,-0.0249 0.0046,-0.0171 0.0065,-0.0195 9.59e-4,-0.0342 -0.0031,-0.009 -0.0046,-0.0144 -0.0069,-0.0213 0,0 -0.0012,-0.004 7.19e-4,-0.01 9.59e-4,-0.003 0.0022,-0.005 0.0041,-0.007 0.0019,-0.003 0.0034,-0.004 0.006,-0.007 -7.19e-4,0.002 -0.0012,0.003 -0.0012,0.005 -4.8e-4,0.002 -2.4e-4,0.004 2.4e-4,0.006 4.79e-4,0.003 0.0024,0.008 0.0024,0.008 0.0019,0.005 0.0034,0.009 0.0048,0.0137 l 0.0019,0.006 c 0.01126,-0.007 0.01078,-0.019 0.0072,-0.0315 -0.0012,-0.003 -0.0029,-0.006 -0.0048,-0.0103 0,0 -0.0019,-0.002 -0.0012,-0.009 2.39e-4,-0.004 0.0022,-0.006 0.0036,-0.01 0.0014,-0.004 0.0024,-0.006 0.0041,-0.009 0,0.002 2.4e-4,0.004 7.19e-4,0.006 4.79e-4,0.002 4.79e-4,0.004 0.0012,0.006 9.59e-4,0.002 0.0026,0.006 0.0026,0.006 0.0024,0.004 0.0043,0.009 0.0058,0.0129 0.0043,-0.003 0.0072,-0.008 0.0084,-0.0154 0.0012,-0.007 0,-0.0115 -0.0026,-0.0166 l -4.8e-4,2.5e-4 c -0.0022,-0.005 -0.0074,-0.0105 -0.0074,-0.0105 -0.0026,-0.003 -0.0022,-0.007 -0.0019,-0.011 0,-0.005 0.0014,-0.004 0.0038,-0.008 0.0038,0.009 0.0115,0.0183 0.01773,0.0271 0.006,0.0166 -4.8e-4,0.0371 -0.01606,0.0462 0.0024,0.0149 -0.006,0.0298 -0.01917,0.0364 0.0019,0.008 0.0024,0.0166 0,0.0257 0.0096,0.004 0.01917,0.008 0.02684,0.0144 0.01054,0.007 0.0254,0.011 0.03643,7.3e-4 -0.0163,-0.003 -0.03091,-0.0183 -0.04889,-0.0237 0.01678,-0.0103 0.03259,0.003 0.04841,0.0108 0.01007,0.009 0.02852,0.002 0.03379,0 -0.02971,-0.0242 0.02013,-0.0381 0.03666,-0.0462 0.06135,-0.023 0.162951,-0.10527 0.214713,-0.0725 0.01965,0.0125 0.01869,0.0266 0.01845,0.0505 -0.0017,0.02 0.0019,0.0506 0.03379,0.0662 0.01965,0.008 0.03043,0.0176 0.03067,0.0327 0.01126,0.001 0.03163,-0.0105 0.03163,-0.02 h 0.02923 c 0.01678,0.0576 -0.05008,0.009 -0.06877,0.0454 -0.005,0.009 -0.0069,0.0188 -0.0058,0.0264 -0.0043,0.002 -0.01654,0.0117 -0.0069,0.0288 0.0046,-0.008 0.01438,-0.0164 0.023,-0.0159 -9.59e-4,-0.01 0.01366,-0.0354 0.03235,-0.0337 -0.0036,-7.3e-4 -0.02923,0.0269 -0.02157,0.0388 -0.0086,0.003 -0.0055,0.0191 -0.0019,0.0266 0.0041,-0.007 0.01318,-0.0193 0.02444,-0.0183 0.0031,7.3e-4 0.0084,7.3e-4 0.01222,2.4e-4 0.0046,-7.3e-4 0.0069,-0.002 0.0069,-0.007 2.4e-4,-0.01 -0.0065,-0.0313 0.02612,-0.0337 -0.0163,0.0142 -0.02133,0.0296 -0.006,0.042 -0.0019,0.006 2.39e-4,0.0112 0.0048,0.0161 0.0038,-0.005 0.0058,-0.019 0.01869,-0.0176 0.03954,0.002 0.05008,-0.0286 0.03786,-0.043 l -0.0022,-0.002 c 0.0041,-0.021 0.0022,-0.023 2.39e-4,-0.0361 0.01773,-0.002 0.02253,2.5e-4 0.02971,0.007 -7.19e-4,-0.0112 -0.0043,-0.034 -0.02133,-0.034 -0.02348,-4.9e-4 -0.03067,0.004 -0.04002,-0.0125 0.0081,2.5e-4 0.03139,-0.004 0.04409,0.002 -4.79e-4,-0.002 -0.0062,-0.0115 -0.0077,-0.0137 -0.0026,-0.005 -0.0093,-0.0105 -0.01462,-0.0105 l -0.02324,4.8e-4 c -0.01054,0 -0.02133,-7.3e-4 -0.02085,-0.0144 0.0024,0.002 0.0369,-0.003 0.04553,0.004 -2.4e-4,-0.002 -4.79e-4,-0.003 -0.0017,-0.005 -0.0127,-0.0213 -0.03067,-0.0171 -0.05128,-0.0171 -0.01031,0 -0.0163,-0.0108 -0.01797,-0.0147 0.01677,0.002 0.03355,-0.003 0.04649,0.004 -0.0055,-0.033 -0.04361,-0.0178 -0.05751,-0.0247 -0.01078,-0.012 -0.01725,-0.0215 -0.02276,-0.0347 0.0242,-0.001 0.03618,-0.006 0.05416,-0.0195 0.01414,-0.0134 0.02037,-0.0359 0.01222,-0.0572 -0.006,-0.0134 -0.02708,-0.0315 -0.0405,-0.0354 -0.04122,-0.006 -0.05775,-0.0215 -0.03475,-0.0474 -0.03618,-0.003 -0.05655,0.0103 -0.05272,0.0459 -0.02468,0.009 -0.05847,0.0432 -0.06159,0.0474 0.01078,-0.002 0.03834,-0.008 0.0532,-0.006 -0.0012,-0.007 0.0029,-0.0159 0.0029,-0.0159 0.0055,-0.0108 0.01653,-0.0142 0.02276,-0.0142 0.0019,0 -0.0012,0.003 -0.0084,0.012 -0.0115,0.02 0.0069,0.0225 0.01605,0.023 -0.0026,-0.006 0,-0.0137 0.005,-0.02 0.0026,-0.004 0.02636,-0.0164 0.0163,-0.006 l -0.0067,0.008 c -0.0058,0.0127 -0.01222,0.0234 0.01965,0.0332 -0.0022,-0.0337 0.04242,-0.041 0.03427,-2.5e-4 -0.0029,0.0139 -0.01462,0.0137 -0.02804,0.0152 -0.02756,-4.9e-4 -0.01653,-0.005 -0.04026,-0.009 -0.04913,-0.008 -0.0671,-0.0117 -0.114305,-0.002 -0.04481,0.01 -0.07477,0.0205 -0.120057,0.0293 -0.04242,0.008 -0.06422,0.008 -0.10544,0.003 -0.01725,-0.003 -0.02804,-0.004 -0.03882,-0.0117 9.58e-4,0.007 0.0043,0.007 0.0058,0.0308 -0.0038,-0.0117 -0.01318,-0.0251 -0.02013,-0.0344 l -0.01606,-0.0144 c -0.0062,-0.008 -0.0029,-0.0181 0.0019,-0.0225 2.4e-4,0.007 0.0029,0.0127 0.0077,0.0183 l 0.0163,0.0125 c 0.0029,-0.0237 -0.0053,-0.0452 -0.0151,-0.0657 0.0065,-0.0132 0.006,-0.0308 0.0055,-0.0452 -9.58e-4,0.001 -0.006,0.008 -0.0077,0.01 -0.01366,0.0132 -0.01749,0.01 -0.01462,0.0335 -0.0098,-0.006 -0.01797,-0.0169 -0.0151,-0.0296 0.0026,-0.0107 0.0151,-0.009 0.01821,-0.01 0.0043,-0.001 0.0069,-0.005 0.01007,-0.008 0.0014,-0.001 0.0036,-0.007 0.0046,-0.008 -0.01174,-0.001 -0.02252,-0.003 -0.03403,-7.3e-4 -0.0065,-0.0122 -0.01749,-0.0147 -0.03163,-0.0134 -0.0067,-0.0137 -0.02756,-0.0129 -0.03978,-0.0129 -0.01198,0 -0.02971,-4.9e-4 -0.03666,0.0132 -0.0081,-2.5e-4 -0.02876,0 -0.03187,0.0134 -0.01102,-0.004 -0.02229,-0.001 -0.03403,0 0.0022,0.004 0.01006,0.0159 0.01582,0.0181 0.0062,-4.8e-4 0.0127,0.002 0.01582,0.008 0.0022,0.005 -2.4e-4,0.0159 -0.0029,0.0173 -0.0036,0.005 -0.0067,0.009 -0.01198,0.012 0.0062,-0.0103 7.19e-4,-0.0198 -0.0072,-0.0269 -0.0096,-0.009 -0.0089,-0.0105 -0.01414,-0.0195 -4.79e-4,0.0144 -4.79e-4,0.0354 0.006,0.0491 -0.01701,0.0186 -0.01653,0.0435 -0.01605,0.0657 0.0038,-0.005 0.02205,-0.0193 0.02564,-0.0296 0.0046,0.0103 0.0046,0.019 -0.0043,0.0266 l -0.02396,0.0291 c -0.0012,0.002 -0.0022,0.003 -0.0029,0.005 -0.0041,0.008 -0.0065,0.009 -0.0067,0.003 0,-0.003 2.4e-4,-0.008 0.0026,-0.0122 -0.0242,-0.0117 -0.04242,-0.0308 -0.06039,-0.0476 -0.01605,-0.0151 -0.01797,-0.0256 -0.0096,-0.0413 4.79e-4,-0.001 9.58e-4,-0.002 0.0014,-0.003 7.19e-4,-0.001 0.0012,-0.002 0.0019,-0.003 7.19e-4,-0.001 0.0014,-0.003 0.0022,-0.004 7.19e-4,-10e-4 0.0014,-0.002 0.0024,-0.004 0.0077,-0.0142 0.0046,-0.0322 -0.0091,-0.0415 0.0017,-0.004 -2.4e-4,-0.0271 -0.01629,-0.0293 0.0022,0.009 0.0012,0.0134 -0.0031,0.0261 0.0065,0.0125 0.0041,0.0217 -0.0038,0.0264 0.0034,-0.0156 -0.0093,-0.0303 -0.01917,-0.0354 -0.0034,-0.008 -0.01725,-0.0232 -0.03115,-0.0108 0.0079,0.003 0.0115,0.009 0.0127,0.0159 -0.0046,0.003 -0.0077,0.005 -0.0084,0.0107 0.0041,-2.4e-4 0.03499,0.0117 0.02229,0.0291 -0.01174,-0.0161 -0.01653,-0.0215 -0.0369,-0.0186 -0.01246,-0.009 -0.01869,-0.0103 -0.029,-0.001 l 0.01749,0.013 c 0.0043,0.001 -0.0093,-7.3e-4 -0.0093,0.0208 0.0012,0.007 0.0014,0.01 0.0055,0.0188 0.0034,0.007 0.01773,0.0132 0.02229,0.0115 0.01629,-0.0176 0.023,0.0151 0.0072,0.0107 -0.0026,-4.8e-4 -0.02277,-0.011 -0.02372,0.012 -2.39e-4,0.003 -0.01366,0.001 -0.01725,-4.9e-4 0.0022,0.022 0.01582,0.019 0.01941,0.0217 0.01246,0.0208 0.0278,0.0203 0.03307,0.0161 0.0086,-0.008 0.01653,-0.0127 0.02756,-0.002 0.0062,0.009 0.0055,0.0222 -0.01342,0.0278 l -0.0034,9.8e-4 0.0017,0.003 c 4.79e-4,10e-4 0.0014,0.002 0.0022,0.003 0.0031,0.004 0.01486,0.008 0.01941,0.008 h 0.03043 c 0.005,0 0.0084,4.9e-4 0.0127,0.004 0.0019,0.001 0.0081,0.007 0.0093,0.009 -0.0014,-4.9e-4 -0.0031,-7.3e-4 -0.0048,-7.3e-4 l -0.04481,-9.8e-4 0.0014,0.004 c 0.0019,0.005 0.005,0.007 0.0091,0.009 0.0038,0.003 0.0069,0.004 0.01174,0.004 h 0.03451 c 0.0053,0 0.0084,0 0.0127,0.003 0.0019,0.001 0.0067,0.007 0.0081,0.009 -0.0017,-4.9e-4 -0.0034,-7.3e-4 -0.0053,-7.3e-4 h -0.04601 v 0 c 0.0022,0.005 0.0055,0.0112 0.0098,0.0142 0.0041,0.003 0.0072,0.004 0.01222,0.004 l 0.03427,-4.9e-4 c 0.0053,0 0.0086,7.3e-4 0.01294,0.004 0.0019,0.001 0.0089,0.008 0.01006,0.009 -0.0017,-4.9e-4 -0.0031,-7.3e-4 -0.005,-7.3e-4 l -0.04218,-2.4e-4 0.0029,0.004 c 0.0017,0.003 0.0041,0.006 0.0067,0.009 0.0069,0.006 0.01102,0.004 0.02061,0.004 l 0.04146,-4.9e-4 -0.01246,-0.0154 c -0.0041,-0.003 -0.0026,-0.0137 -0.0026,-0.0208 -0.0038,-0.006 -0.0266,-0.0127 -0.01318,-0.0476 l 0.0036,-0.007 c 0.0043,-0.007 0.01078,-0.0151 0.0115,-0.0161 0.0091,0.0125 0.0026,0.0169 -0.0067,0.0305 -0.0043,0.0127 0.0014,0.0227 0.01054,0.0281 0.005,-0.01 0.0036,-0.0217 0.0072,-0.0232 0.0046,0.007 0.0086,0.0134 0.005,0.0203 -0.0024,0.004 -0.0041,0.006 -0.0055,0.01 -0.0041,0.0147 -9.58e-4,0.0259 0.0096,0.032 0.0012,-0.006 0.0014,-0.0103 0.0048,-0.0178 0.0029,-0.006 0.0034,-0.0103 0.0029,-0.0159 0.0062,0.005 0.0098,0.0112 0.0086,0.0193 -9.59e-4,0.007 -0.0046,0.01 -0.006,0.0169 -0.0022,0.01 0.0069,0.0151 0.0127,0.0188 0.0055,-0.006 0.005,-0.0139 0.0038,-0.0254 z m 0.382697,0.0425 c -0.0024,-0.008 -0.0026,-0.0125 -0.0012,-0.0205 0.0012,-0.0117 0.0093,-0.0244 0.01965,-0.0296 0.0091,-0.005 0.0115,-0.006 0.02109,-0.009 0.0077,-0.002 0.01582,-0.002 0.02253,-0.006 0.0055,-0.003 0.0084,-0.005 0.01318,-0.01 -0.006,0.009 -0.0103,0.0142 -0.01893,0.0213 -0.0067,0.006 -0.01126,0.006 -0.01989,0.0105 -0.0077,0.004 -0.0096,0.007 -0.01558,0.0117 -0.0053,0.004 -0.0103,0.01 -0.01486,0.0164 -0.0031,0.005 -0.0046,0.009 -0.006,0.0144 z m 0.167025,-0.0488 c 0.0024,0.006 0.0046,0.01 0.0091,0.0151 0.0053,0.006 0.0089,0.0103 0.01677,0.0127 0.0041,0.001 0.0065,0.001 0.01078,0.001 h 0.03906 c -0.0012,-0.003 -0.0022,-0.005 -0.0041,-0.008 -0.0024,-0.003 -0.0036,-0.005 -0.0067,-0.007 -0.0058,-0.004 -0.01054,-0.002 -0.01725,-0.001 -0.0046,0 -0.0072,0.001 -0.01198,0.001 -0.0055,2.4e-4 -0.0089,2.4e-4 -0.01438,-9.8e-4 -0.0055,-9.8e-4 -0.0089,-0.002 -0.01342,-0.005 -0.0036,-0.002 -0.0055,-0.004 -0.0079,-0.008 z m -0.492688,0.031 c -0.0031,-7.3e-4 -0.0048,-9.7e-4 -0.0079,-0.002 -0.0053,-0.002 -0.0081,-0.003 -0.01294,-0.006 -0.0031,-0.002 -0.0053,-0.004 -0.0065,-0.006 -0.01102,-0.002 -0.01917,-0.0115 -0.01917,-0.023 -0.01462,-0.008 -0.02109,-0.0269 -0.01366,-0.0418 0,0 0.0014,-0.003 0.0019,-0.005 4.8e-4,-0.003 4.8e-4,-0.005 0,-0.008 0.0017,0.002 0.0024,0.004 0.0041,0.006 0.0017,0.002 0.0031,0.003 0.0041,0.006 0.0012,0.003 7.19e-4,0.007 7.19e-4,0.007 -0.0034,0.009 -2.4e-4,0.0171 0.0072,0.0225 0,0 0.0012,-0.003 0.0017,-0.006 4.8e-4,-0.002 7.19e-4,-0.004 4.8e-4,-0.007 -2.4e-4,-0.002 -4.8e-4,-0.004 -9.59e-4,-0.006 0.0014,0.002 0.0024,0.004 0.0043,0.006 0.0012,0.002 0.0022,0.002 0.0034,0.004 0.0012,0.002 0.0019,0.004 0.0022,0.006 0,0.002 -0.0012,0.006 -0.0012,0.006 -7.19e-4,0.004 -0.0022,0.007 -9.59e-4,0.0107 7.19e-4,0.003 0.0026,0.006 0.0053,0.007 0.0012,-0.004 0.0026,-0.007 0.0043,-0.0105 0,0 2.39e-4,-0.003 2.39e-4,-0.004 0,-0.002 -4.79e-4,-0.004 -0.0014,-0.006 0.0024,0.002 0.0036,0.003 0.0055,0.005 0.0017,0.002 0.0022,0.002 0.0043,0.005 0.0012,0.001 0.0024,0.005 0.0019,0.008 -2.4e-4,0.002 -0.0014,0.004 -0.0014,0.004 -0.0017,0.004 -0.0019,0.009 0.0014,0.0115 0.0022,0.002 0.0041,0.002 0.0069,0.002 v -0.0234 h 0.01246 v 0.0234 c 0.0029,-7.3e-4 0.0048,-4.9e-4 0.0069,-0.002 0.0034,-0.003 0.0031,-0.008 0.0014,-0.0115 0,0 -0.0012,-0.002 -0.0014,-0.004 -4.79e-4,-0.003 7.19e-4,-0.007 0.0019,-0.008 0.0022,-0.002 0.0026,-0.003 0.0043,-0.005 0.0019,-0.002 0.0031,-0.003 0.0053,-0.005 -7.19e-4,0.002 -0.0012,0.004 -0.0012,0.006 0,0.002 2.39e-4,0.004 2.39e-4,0.004 0.0017,0.003 0.0031,0.007 0.0041,0.0105 0.0029,-0.001 0.0046,-0.003 0.0055,-0.007 0.0012,-0.004 -2.4e-4,-0.007 -9.59e-4,-0.0107 0,0 -0.0014,-0.004 -0.0012,-0.006 2.4e-4,-0.003 9.58e-4,-0.004 0.0022,-0.006 9.58e-4,-0.002 0.0022,-0.002 0.0034,-0.004 0.0017,-0.002 0.0026,-0.004 0.0043,-0.006 -7.19e-4,0.002 -9.59e-4,0.003 -9.59e-4,0.006 -2.39e-4,0.002 -2.39e-4,0.004 4.8e-4,0.007 4.79e-4,0.002 0.0017,0.006 0.0017,0.006 0.0074,-0.005 0.01054,-0.0132 0.0072,-0.0225 0,0 -7.19e-4,-0.004 7.19e-4,-0.007 9.59e-4,-0.003 0.0024,-0.004 0.0041,-0.006 0.0017,-0.002 0.0024,-0.004 0.0041,-0.006 -4.8e-4,0.003 -4.8e-4,0.005 0,0.008 4.79e-4,0.002 0.0019,0.005 0.0019,0.005 0.0074,0.0149 9.58e-4,0.0342 -0.01366,0.0418 0,0.0115 -0.0081,0.021 -0.01917,0.023 -0.0012,0.002 -0.0034,0.005 -0.0062,0.006 -0.005,0.003 -0.0079,0.005 -0.01318,0.006 -0.0031,0.001 -0.0048,0.001 -0.0079,0.002 z m -0.03954,-0.20272 c 0,-0.003 9.58e-4,-0.005 0.0029,-0.007 h -0.0096 c -0.0043,0 -0.0067,-0.002 -0.0096,-0.005 -0.0036,-0.004 -0.0048,-0.008 -0.0043,-0.0129 0.0019,0.003 0.0036,0.004 0.0065,0.005 0.0022,9.8e-4 0.0036,0.001 0.0062,0.001 h 0.03259 c 0.0022,0 0.0036,10e-4 0.005,0.003 0.0019,0.002 0.0014,0.005 0.0014,0.008 v 0.006 c -4.79e-4,-0.001 -9.58e-4,-0.002 -0.0022,-0.003 -0.0012,-0.001 -0.0024,-0.003 -0.0043,-0.003 h -0.0079 c 0.0019,0.002 0.0031,0.004 0.0031,0.007 0,0.006 -0.0046,0.0103 -0.01006,0.0103 -0.0055,0 -0.0098,-0.005 -0.0098,-0.0103 z m 0.05919,0 c 0,-0.003 0.0012,-0.005 0.0031,-0.007 h -0.0079 c -0.0019,0 -0.0031,0.001 -0.0043,0.003 -0.0012,9.8e-4 -0.0017,0.002 -0.0022,0.003 v -0.006 c 0,-0.003 -4.8e-4,-0.006 0.0014,-0.008 0.0014,-0.002 0.0029,-0.003 0.005,-0.003 h 0.03259 c 0.0026,0 0.0038,-4.8e-4 0.0062,-0.001 0.0029,-0.001 0.0046,-0.003 0.0065,-0.005 4.79e-4,0.005 -7.19e-4,0.009 -0.0043,0.0129 -0.0029,0.003 -0.0053,0.005 -0.0096,0.005 h -0.0096 c 0.0017,0.002 0.0029,0.004 0.0029,0.007 0,0.006 -0.0043,0.0103 -0.0098,0.0103 -0.0055,0 -0.01007,-0.005 -0.01007,-0.0103 z m 0.06422,0.0799 c 0.0017,0.003 0.0022,0.004 0.0034,0.007 9.59e-4,0.002 0.0014,0.004 0.0024,0.007 0.0012,-0.004 0.0022,-0.004 0.0029,-0.007 7.19e-4,-0.003 2.4e-4,-0.006 2.4e-4,-0.01 2.4e-4,-0.005 -4.79e-4,-0.008 -0.0034,-0.012 l -0.0096,-0.0137 c -0.0017,-0.002 -0.0019,-0.004 -0.0022,-0.006 -2.4e-4,-0.002 -2.4e-4,-0.003 2.4e-4,-0.005 -0.0024,0.002 -0.0034,0.003 -0.005,0.006 -0.0022,0.004 -0.0031,0.007 -0.0026,0.0107 2.4e-4,0.004 0.0014,0.006 0.0036,0.009 l 0.0077,0.011 c 9.59e-4,0.001 0.0017,0.002 0.0024,0.004 z m -0.155043,-0.001 c 0.0022,0.003 0.0031,0.005 0.0043,0.009 0.0012,0.003 0.0017,0.005 0.0017,0.009 0,0.004 -4.8e-4,0.006 -0.0019,0.009 -0.0014,0.003 -0.0031,0.004 -0.0048,0.007 -0.0017,0.003 -0.0031,0.005 -0.0038,0.009 -7.19e-4,0.003 -7.19e-4,0.005 0,0.009 -0.0019,-0.003 -0.0029,-0.004 -0.0041,-0.007 -0.0019,-0.004 -0.0036,-0.007 -0.0034,-0.0115 0,-0.004 0.0017,-0.007 0.0036,-0.0105 0.0014,-0.003 0.0031,-0.004 0.0046,-0.007 0.0017,-0.003 0.0029,-0.005 0.0036,-0.008 4.8e-4,-0.002 4.8e-4,-0.004 2.4e-4,-0.006 z m -0.0127,0.001 c -0.0017,0.003 -0.0022,0.004 -0.0034,0.007 -9.59e-4,0.002 -0.0014,0.004 -0.0024,0.007 -4.79e-4,-0.004 -7.19e-4,-0.005 -0.0014,-0.009 -4.79e-4,-0.003 -0.0017,-0.005 -0.0017,-0.008 -2.4e-4,-0.005 4.79e-4,-0.008 0.0034,-0.012 l 0.0096,-0.0137 c 0.0017,-0.002 0.0019,-0.004 0.0022,-0.006 2.4e-4,-0.002 0,-0.003 -2.4e-4,-0.005 0.0022,0.002 0.0034,0.003 0.0048,0.006 0.0024,0.004 0.0034,0.007 0.0029,0.0107 -2.4e-4,0.004 -0.0014,0.006 -0.0036,0.009 l -0.0077,0.011 c -9.59e-4,0.001 -0.0017,0.002 -0.0024,0.004 z m 0.09418,-0.14655 h 0.0029 c 0.0024,0 0.0036,0 0.006,4.9e-4 0.0031,7.3e-4 0.005,0.001 0.0077,0.003 0.0022,0.001 0.0034,0.002 0.0048,0.004 l 0.0036,0.006 c 0.0012,0.002 0.0017,0.003 0.0031,0.004 0.0024,0.002 0.0041,0.003 0.0072,0.004 h -0.0127 c -0.0031,0 -0.005,-2.4e-4 -0.0077,-0.002 -0.0024,-0.001 -0.0034,-0.003 -0.0048,-0.005 l -0.0031,-0.005 c -0.0019,-0.003 -0.0026,-0.006 -0.0055,-0.008 -4.79e-4,-4.8e-4 -7.18e-4,-7.3e-4 -0.0014,-0.001 z m -0.0532,0.009 0.0031,-0.002 c 0.0031,-0.002 0.005,-0.003 0.0086,-0.003 0.0022,0 0.0034,0 0.0053,4.9e-4 0.0029,0.001 0.0043,0.003 0.006,0.005 l 0.0043,0.007 c 9.59e-4,0.001 0.0012,0.002 0.0024,0.003 0.0014,0.002 0.0026,0.003 0.0046,0.004 h -0.01078 c -0.0029,0 -0.0048,-2.4e-4 -0.0072,-0.002 -0.0019,-0.001 -0.0026,-0.003 -0.0041,-0.005 l -0.0038,-0.006 c -0.0014,-0.002 -0.0031,-0.003 -0.0055,-0.003 -0.0012,-2.5e-4 -0.0017,-2.5e-4 -0.0029,0 z m 0.02205,-0.01 0.0034,-0.001 c 0.0026,-9.8e-4 0.0046,-0.001 0.0074,-9.8e-4 0.0036,2.5e-4 0.0058,4.9e-4 0.0086,0.003 0.0019,0.001 0.0029,0.002 0.0041,0.004 l 0.0115,0.0171 c 9.58e-4,0.001 0.0017,0.002 0.0031,0.004 0.0019,0.001 0.0034,0.002 0.006,0.002 -0.0036,0.001 -0.0058,0.002 -0.0093,0.002 -0.0043,0 -0.0069,-2.5e-4 -0.01054,-0.003 -0.0022,-0.001 -0.0031,-0.002 -0.0046,-0.004 l -0.01246,-0.0173 c -7.19e-4,-9.8e-4 -0.0012,-0.002 -0.0022,-0.002 -0.0019,-10e-4 -0.0029,-0.002 -0.005,-0.002 z m 0.09178,0.1463 c -0.0019,0.003 -0.0029,0.005 -0.0041,0.009 -0.0012,0.003 -0.0017,0.005 -0.0017,0.009 0,0.004 4.79e-4,0.006 0.0019,0.009 0.0014,0.003 0.0031,0.004 0.0046,0.007 0.0019,0.003 0.0034,0.005 0.0041,0.009 4.79e-4,0.003 4.79e-4,0.005 0,0.009 0.0019,-0.003 0.0029,-0.004 0.0041,-0.007 0.0019,-0.004 0.0036,-0.007 0.0034,-0.0115 0,-0.004 -0.0017,-0.007 -0.0036,-0.0105 -0.0017,-0.003 -0.0031,-0.004 -0.0046,-0.007 -0.0017,-0.003 -0.0029,-0.005 -0.0036,-0.008 -4.8e-4,-0.002 -4.8e-4,-0.004 -4.8e-4,-0.006 z m -0.03714,-0.009 c 9.58e-4,0.0105 4.79e-4,0.0213 -0.0014,0.0315 0.0022,0.005 0.0041,0.0129 0.0041,0.02 0,0.0134 -0.01126,0.0217 -0.0242,0.021 -0.0036,-2.4e-4 -0.0077,-0.001 -0.01222,-0.001 -0.01294,0 -0.01821,0.005 -0.03019,-0.005 -0.0048,-0.004 -0.0062,-0.009 -0.0062,-0.0146 0,-0.007 0.0014,-0.0152 0.0038,-0.0203 -0.0017,-0.0105 -0.0022,-0.0208 -0.0014,-0.0313 -0.0093,-0.003 -0.01725,-0.0115 -0.01845,-0.0242 -0.02205,-0.003 -0.03475,-0.0259 -0.03355,-0.0471 0,0 0.0017,-0.007 0.0041,-0.011 0.0026,-0.004 0.0046,-0.006 0.0086,-0.009 v 0.022 c 0,0.0169 0.0096,0.032 0.02732,0.0315 h 0.0074 c -7.19e-4,0.007 -0.0022,0.0112 9.59e-4,0.0176 0.0074,0.0144 0.03355,0.0105 0.03163,-0.007 -0.006,-0.002 -0.01031,-0.009 -0.01031,-0.0156 h 0.03283 c 0,0.007 -0.0046,0.0132 -0.01054,0.0156 -0.0019,0.0176 0.02396,0.0215 0.03163,0.007 0.0031,-0.006 0.0017,-0.011 9.59e-4,-0.0176 h 0.0074 c 0.01773,4.9e-4 0.02732,-0.0146 0.02732,-0.0315 v -0.022 c 0.0041,0.002 0.006,0.004 0.0086,0.009 0.0024,0.004 0.0041,0.011 0.0041,0.011 0.0012,0.0212 -0.01174,0.044 -0.03355,0.0471 -0.0012,0.0127 -0.0091,0.0208 -0.01869,0.0242 z m -0.01342,0.0315 c -2.39e-4,-0.008 0.0022,-0.0188 0.0022,-0.0266 l -0.01006,0.009 c 0,0 -0.0034,-0.008 -0.0046,-0.0122 -0.0079,2.5e-4 -0.0086,7.4e-4 -0.01582,2.5e-4 -0.0029,0.006 -0.0053,0.0122 -0.0055,0.0127 l -0.0093,-0.0105 c 0,0.008 0.0014,0.0186 0.0012,0.0269 0.0072,4.9e-4 0.03523,0 0.04194,2.5e-4 z m -0.02516,0.0115 c -0.0081,7.3e-4 -0.02157,0.002 -0.01869,0.01 0.0017,0.005 0.007,0.006 0.01246,0.007 0.0041,9.7e-4 0.0067,-2.5e-4 0.01102,-2.5e-4 0.0043,0 0.0069,0.001 0.01126,4.9e-4 0.0053,-0.001 0.0103,-0.002 0.01222,-0.007 0.0029,-0.008 -0.01078,-0.009 -0.01893,-0.01 -0.0019,-2.5e-4 -0.0031,-2.5e-4 -0.0046,-2.5e-4 -0.0022,0 -0.0031,0 -0.0048,2.5e-4 z m 0.448835,0.0276 c -0.0058,-0.0454 -0.04865,-0.0413 -0.07405,-0.0296 0.0069,0.0183 -0.01366,0.0259 -0.01989,0.0274 -0.02276,0.005 -0.0254,0.002 -0.04577,0.007 -0.02923,0.007 -0.04194,0.0361 -0.05032,0.0569 -0.0034,0.009 -0.0086,0.0161 -0.01342,0.0227 0.01078,-0.002 0.02468,-0.003 0.03571,-0.002 -0.0036,0.003 -0.02684,0.0276 -0.03235,0.0344 -0.01629,0.008 -0.02804,0.005 -0.04577,-0.001 -0.02636,-0.0166 -0.06542,0.005 -0.06614,0.0327 -0.0115,0.003 -0.02205,0.0222 -0.01462,0.0335 7.19e-4,-0.003 0.0151,-0.0156 0.02277,-0.0149 0.0017,-0.007 0.01174,-0.0259 0.01965,-0.0256 0.0041,-0.002 0.01054,-0.003 0.01438,0 -0.0043,-0.001 -0.02444,0.023 -0.0242,0.0286 -0.0096,10e-4 -0.01821,0.0256 -0.0093,0.0303 0.0012,-0.006 0.02253,-0.019 0.02756,-0.0217 4.79e-4,-0.0117 0.02037,-0.0318 0.03067,-0.0252 -0.01653,0.008 -0.02492,0.0325 -0.02085,0.0498 0.0026,-0.001 0.01558,-0.0213 0.03211,-0.0122 0.0081,0.004 0.02301,2.5e-4 0.02876,-0.006 0.0084,-0.009 0.01054,-0.0195 0.0029,-0.0296 0.01486,-0.003 0.01821,0.0156 0.01366,0.0242 0.01078,0.003 0.0393,-0.011 0.04074,-0.0298 0.01126,-0.009 0.01318,-0.0103 0.02708,-0.0261 -0.0024,0.0134 0.0053,0.0186 0.0043,0.0322 0.0062,-0.007 0.01582,-0.019 0.01174,-0.0315 l -0.005,-0.019 c -0.0012,-0.005 -0.0014,-0.008 2.4e-4,-0.0125 0.0012,-0.003 0.0029,-0.005 0.005,-0.007 l 0.0058,-0.006 c -0.0017,0.0117 0.0058,0.0274 0.0079,0.0457 0.0043,-0.004 0.01318,-0.012 0.01414,-0.0232 l -0.0019,-0.0151 c -0.0012,-0.005 -0.006,-0.0217 -0.0043,-0.0261 0.0012,-0.003 0.0026,-0.005 0.005,-0.007 l 0.0062,-0.005 c -0.0014,0.003 0,0.005 -2.39e-4,0.009 -2.4e-4,0.0166 0.0058,0.022 0.006,0.0386 0.0048,-0.005 0.01294,-0.0115 0.0115,-0.02 -0.0029,-0.0154 -7.19e-4,-0.0269 0.0089,-0.0369 0.0089,-0.008 0.04122,-0.0325 0.04553,-0.0388 z m 0.01773,-0.1805 c -0.02804,0.007 -0.07692,0.0208 -0.101126,0.0281 -0.03379,0.0103 -0.04913,0.0198 -0.08363,0.0271 -0.03187,0.007 -0.04913,0.0105 -0.07141,0.007 -0.01006,-0.002 -0.01845,-0.009 -0.02276,-0.0154 -0.0053,-0.008 -0.0067,-0.0215 0.0036,-0.0261 0.0093,-0.004 0.02181,0.005 0.01654,0.0195 0.04601,-2.4e-4 0.03547,-0.031 0.01486,-0.0413 0.02277,4.9e-4 0.029,0.009 0.02852,0.0266 0.05248,0.001 0.06542,-0.0254 0.08747,-0.053 -0.01749,0.005 -0.02468,0.02 -0.10496,9.8e-4 -0.02229,0 -0.05751,9.8e-4 -0.07453,0.02 -0.0086,0.01 -0.01845,0.0266 -0.01534,0.0481 0.0046,0.0383 0.05272,0.0525 0.08315,0.0506 0.06206,-0.003 0.126766,-0.03 0.19003,-0.0447 0.0072,-0.0105 0.02923,-0.031 0.0508,-0.0423 0.0043,-0.002 0.0024,-0.006 -0.0012,-0.005 z"
       style="fill:#231f20;fill-opacity:1;fill-rule:evenodd;stroke:none;stroke-width:0.26458332"
       inkscape:connector-curvature="0" />
    <path
       id="path1618"
       d="m 16.038034,169.94548 c 0.0062,0.001 0.01174,0.008 0.01246,0.0142 0.0014,0.009 -0.0127,0.021 -0.0029,0.0388 -0.0103,-0.002 -0.01845,-0.0159 -0.03283,-0.0296 -0.01294,-7.3e-4 -0.0405,2.5e-4 -0.04625,2.5e-4 -0.0062,0.003 -0.02013,0.0129 -0.02013,0.0129 -0.02013,0.0115 -0.04984,0.0374 -0.07285,0.031 -0.02253,-10e-4 -0.04289,-0.021 -0.06206,0.005 0.02923,0 0.02588,0.002 0.03019,0.009 -0.02348,-0.006 -0.05703,0.002 -0.0544,0.0442 -0.01222,0.007 -0.0115,0.0183 -0.0077,0.0254 0.0034,-0.011 0.01749,-0.0186 0.0254,-0.0127 0.0036,0.004 0.0081,0.004 0.0086,0.004 -0.0048,-0.0181 0.0139,-0.0432 0.03618,-0.0418 -0.02013,0.0112 -0.0242,0.0325 -0.01989,0.0376 -0.0127,0.001 -0.01534,0.0259 -0.01078,0.0283 0.01102,-0.0129 0.02253,-0.0195 0.02804,-0.0173 0.0024,9.7e-4 0.023,2.4e-4 0.02324,-4.9e-4 -0.0053,-0.007 -0.0046,-0.0173 -0.0019,-0.0215 0.006,-0.009 0.01246,-0.0198 0.02612,-0.0173 9.58e-4,0.008 -0.0151,0.009 -0.01629,0.0227 -7.19e-4,0.003 0,0.008 7.19e-4,0.0103 7.19e-4,0.003 0.0046,0.005 0.0067,0.006 0.01366,4.9e-4 0.0089,0.0191 0.0067,0.021 0.005,-0.002 0.01534,-0.005 0.01989,-0.0149 0.0034,-0.007 0.01606,-0.0137 0.01965,-0.0181 0.0081,-0.01 -0.0065,-0.021 -0.006,-0.0281 0.0036,-0.0132 0.01749,-0.01 0.02444,-0.005 0.0026,0.004 0.0043,0.01 0.0014,0.0169 0.03259,-0.003 0.01725,-0.0474 0.05416,-0.044 -0.0041,0.008 -0.0254,0.0376 -0.03211,0.0447 0.0089,0.004 0.02852,-0.002 0.03139,-0.012 0.0081,-0.0146 0.01102,-0.0274 0.02947,-0.03 0.0029,-4.9e-4 0.0074,7.3e-4 0.01007,9.8e-4 -0.0067,0.002 -0.0096,0.009 -0.01294,0.0139 l -0.01917,0.0271 c 0.01941,9.8e-4 0.02732,-0.007 0.03355,-0.0195 0.0041,-0.008 0.0103,-0.0217 0.01773,-0.0249 -0.0115,-0.0173 -0.01198,-0.0176 -0.0046,-0.0384 0,0 0.0012,-0.004 0.0014,-0.006 0,-0.002 2.4e-4,-0.004 -4.79e-4,-0.006 -4.79e-4,-0.002 -9.58e-4,-0.003 -0.0022,-0.004 0.0019,9.8e-4 0.0043,-2.4e-4 0.006,9.8e-4 0.0139,0.009 0.0053,0.0159 0.0038,0.0381 0,0.002 0.0024,0.007 0.0055,0.009 0.0017,0.001 0.0026,0.007 0.0089,0.01 l 0.005,0.002 2.39e-4,-0.0447 0.01031,-7.4e-4 -2.4e-4,0.0501 c 0.01366,0.01 0.04289,0.0193 0.05344,0.007 -0.02924,-0.01 -0.02732,-0.01 -0.03906,-0.021 0.0043,-0.005 0.0069,-0.0222 0.0026,-0.0281 -0.0034,-0.008 -0.0022,-0.0151 0.0043,-0.0195 0.0019,-0.001 0.0036,-0.003 0.0055,-0.004 -9.58e-4,10e-4 2.4e-4,10e-4 -2.39e-4,0.003 -0.0031,0.01 0.0089,0.0266 0.0014,0.044 0.0084,0.004 0.01222,0.007 0.01941,0.0132 0.0029,0.003 0.0091,0.009 0.01486,0.008 0.0041,-4.8e-4 0.01893,-0.004 0.02229,-0.006 -0.0115,-0.003 -0.0242,-0.0132 -0.03331,-0.0171 0,0 -0.0062,-0.004 -0.01007,-0.005 0.0019,-0.004 7.19e-4,-0.001 0.0014,-0.005 7.19e-4,-0.003 9.59e-4,-0.005 9.59e-4,-0.008 0,-0.002 0,-0.003 -2.4e-4,-0.005 -4.79e-4,-0.008 -0.0024,-0.0129 -0.0053,-0.0205 0,0 -0.0014,-0.004 -9.59e-4,-0.008 7.19e-4,-0.005 0.0034,-0.007 0.0062,-0.0108 9.58e-4,-0.002 0.0019,-0.002 0.0031,-0.004 0.0014,-0.002 0.0022,-0.003 0.0034,-0.005 -4.79e-4,0.002 -7.19e-4,0.003 -9.58e-4,0.006 -4.8e-4,0.002 -7.19e-4,0.003 -7.19e-4,0.006 0,0.003 0.0017,0.008 0.0017,0.008 0.0048,0.0112 0.0069,0.0269 0.0034,0.0391 0.0093,0.004 0.01893,0.011 0.02564,0.0156 0.0029,0.002 0.0103,0.007 0.01582,0.007 0.005,0 0.01486,-0.003 0.01893,-0.007 -0.01366,-0.006 -0.03666,-0.0234 -0.04745,-0.0249 0.0046,-0.0171 0.0065,-0.0195 9.59e-4,-0.0342 -0.0031,-0.009 -0.0046,-0.0144 -0.0069,-0.021 0,0 -0.0012,-0.004 7.19e-4,-0.01 9.59e-4,-0.003 0.0022,-0.005 0.0041,-0.007 0.0019,-0.003 0.0034,-0.004 0.006,-0.007 -7.19e-4,0.002 -0.0012,0.003 -0.0012,0.005 -4.8e-4,0.002 -2.4e-4,0.004 2.4e-4,0.006 4.79e-4,0.003 0.0024,0.008 0.0024,0.008 0.0019,0.005 0.0034,0.009 0.0048,0.0134 l 0.0019,0.006 c 0.01126,-0.007 0.01078,-0.019 0.0072,-0.0315 -0.0012,-0.003 -0.0029,-0.006 -0.0048,-0.0103 0,0 -0.0019,-0.002 -0.0012,-0.009 2.39e-4,-0.004 0.0022,-0.006 0.0036,-0.01 0.0014,-0.004 0.0024,-0.005 0.0041,-0.009 0,0.002 2.4e-4,0.004 7.19e-4,0.006 4.79e-4,0.002 4.79e-4,0.004 0.0012,0.006 9.59e-4,0.002 0.0026,0.006 0.0026,0.006 0.0024,0.004 0.0043,0.009 0.0058,0.013 0.0043,-0.003 0.0072,-0.008 0.0084,-0.0154 0.0012,-0.007 0,-0.0115 -0.0026,-0.0166 l -4.8e-4,4.9e-4 c -0.0022,-0.005 -0.0074,-0.0108 -0.0074,-0.0108 -0.0026,-0.003 -0.0022,-0.007 -0.0019,-0.011 0,-0.005 0.0014,-0.004 0.0038,-0.008 0.0038,0.009 0.0115,0.0183 0.01773,0.0271 0.006,0.0169 -4.8e-4,0.0371 -0.01606,0.0462 0.0024,0.0151 -0.006,0.0298 -0.01917,0.0366 0.0019,0.008 0.0024,0.0164 0,0.0256 0.0096,0.004 0.01917,0.008 0.02684,0.0144 0.01054,0.007 0.0254,0.0108 0.03643,4.9e-4 -0.0163,-0.003 -0.03091,-0.0183 -0.04889,-0.0237 0.01678,-0.01 0.03259,0.003 0.04841,0.011 0.01007,0.009 0.02852,0.002 0.03379,-2.4e-4 -0.02971,-0.0242 0.02013,-0.0381 0.03666,-0.0462 0.06135,-0.023 0.162951,-0.10527 0.214713,-0.0725 0.01965,0.0125 0.01869,0.0266 0.01845,0.0506 -0.0017,0.0203 0.0019,0.0508 0.03379,0.0662 0.01965,0.008 0.03043,0.0176 0.03067,0.0327 0.01126,0.001 0.03163,-0.0105 0.03163,-0.0198 l 0.02923,-2.5e-4 c 0.01678,0.0577 -0.05008,0.009 -0.06877,0.0454 -0.005,0.009 -0.0069,0.0188 -0.0058,0.0264 -0.0043,0.002 -0.01654,0.0117 -0.0069,0.0288 0.0046,-0.008 0.01438,-0.0164 0.023,-0.0156 -9.59e-4,-0.0103 0.01366,-0.0357 0.03235,-0.034 -0.0036,-7.3e-4 -0.02923,0.0269 -0.02157,0.0388 -0.0086,0.003 -0.0055,0.019 -0.0019,0.0266 0.0041,-0.007 0.01318,-0.0193 0.02444,-0.0183 0.0031,7.3e-4 0.0084,9.8e-4 0.01222,2.4e-4 0.0046,-4.8e-4 0.0069,-0.002 0.0069,-0.007 2.4e-4,-0.01 -0.0065,-0.0313 0.02612,-0.0337 -0.0163,0.0142 -0.02133,0.0296 -0.006,0.042 -0.0019,0.006 2.39e-4,0.0112 0.0048,0.0161 0.0038,-0.005 0.0058,-0.019 0.01869,-0.0173 0.03954,0.002 0.05008,-0.0288 0.03786,-0.0432 l -0.0022,-0.002 c 0.0041,-0.021 0.0022,-0.023 2.39e-4,-0.0361 0.01773,-0.002 0.02253,4.9e-4 0.02971,0.007 -7.19e-4,-0.0112 -0.0043,-0.034 -0.02133,-0.034 -0.02348,-4.9e-4 -0.03067,0.004 -0.04002,-0.0125 0.0081,4.9e-4 0.03139,-0.004 0.04409,0.003 -4.79e-4,-0.002 -0.0062,-0.0117 -0.0077,-0.0139 -0.0026,-0.005 -0.0093,-0.0103 -0.01462,-0.0103 l -0.02324,4.9e-4 c -0.01054,0 -0.02133,-9.8e-4 -0.02085,-0.0147 0.0024,0.002 0.0369,-0.003 0.04553,0.005 -2.4e-4,-0.002 -4.79e-4,-0.003 -0.0017,-0.005 -0.0127,-0.0215 -0.03067,-0.0173 -0.05128,-0.0171 -0.01031,0 -0.0163,-0.011 -0.01797,-0.0146 0.01677,0.002 0.03355,-0.003 0.04649,0.004 -0.0055,-0.033 -0.04361,-0.0178 -0.05751,-0.0247 -0.01078,-0.012 -0.01725,-0.0215 -0.02276,-0.0347 0.0242,-0.001 0.03618,-0.006 0.05416,-0.0193 0.01414,-0.0134 0.02037,-0.0361 0.01222,-0.0574 -0.006,-0.0134 -0.02708,-0.0315 -0.0405,-0.0354 -0.04122,-0.006 -0.05775,-0.0215 -0.03475,-0.0474 -0.03618,-0.003 -0.05655,0.0103 -0.05272,0.0459 -0.02468,0.009 -0.05847,0.0435 -0.06159,0.0476 0.01078,-0.002 0.03834,-0.009 0.0532,-0.006 -0.0012,-0.007 0.0029,-0.0159 0.0029,-0.0159 0.0055,-0.0108 0.01653,-0.0139 0.02276,-0.0139 0.0019,0 -0.0012,0.003 -0.0084,0.0117 -0.0115,0.02 0.0069,0.0225 0.01605,0.023 -0.0026,-0.006 0,-0.0137 0.005,-0.02 0.0026,-0.004 0.02636,-0.0164 0.0163,-0.006 l -0.0067,0.008 c -0.0058,0.0127 -0.01222,0.0234 0.01965,0.0332 -0.0022,-0.0337 0.04242,-0.0408 0.03427,-2.5e-4 -0.0029,0.0139 -0.01462,0.0137 -0.02804,0.0154 -0.02756,-4.9e-4 -0.01653,-0.005 -0.04026,-0.009 -0.04913,-0.008 -0.0671,-0.0117 -0.114305,-0.002 -0.04481,0.01 -0.07477,0.0205 -0.120057,0.0293 -0.04242,0.008 -0.06422,0.008 -0.10544,0.003 -0.01725,-0.003 -0.02804,-0.004 -0.03882,-0.0117 9.58e-4,0.007 0.0043,0.007 0.0058,0.0308 -0.0038,-0.0117 -0.01318,-0.0252 -0.02013,-0.0344 l -0.01606,-0.0144 c -0.0062,-0.008 -0.0029,-0.0178 0.0019,-0.0225 2.4e-4,0.008 0.0029,0.0127 0.0077,0.0183 l 0.0163,0.0125 c 0.0029,-0.0237 -0.0053,-0.0452 -0.0151,-0.0655 0.0065,-0.0134 0.006,-0.031 0.0055,-0.0454 -9.58e-4,10e-4 -0.006,0.009 -0.0077,0.01 -0.01366,0.0132 -0.01749,0.01 -0.01462,0.0335 -0.0098,-0.006 -0.01797,-0.0169 -0.0151,-0.0296 0.0026,-0.0105 0.0151,-0.009 0.01821,-0.01 0.0043,-0.001 0.0069,-0.005 0.01007,-0.008 0.0014,-10e-4 0.0036,-0.007 0.0046,-0.009 -0.01174,-0.001 -0.02252,-0.003 -0.03403,-7.3e-4 -0.0065,-0.0122 -0.01749,-0.0147 -0.03163,-0.0134 -0.0067,-0.0137 -0.02756,-0.0129 -0.03978,-0.0129 -0.01198,0 -0.02971,-4.9e-4 -0.03666,0.0132 -0.0081,-2.5e-4 -0.02876,2.4e-4 -0.03187,0.0137 -0.01102,-0.004 -0.02229,-10e-4 -0.03403,0 0.0022,0.004 0.01006,0.0156 0.01582,0.0178 0.0062,-4.8e-4 0.0127,0.002 0.01582,0.008 0.0022,0.005 -2.4e-4,0.0159 -0.0029,0.0173 -0.0036,0.005 -0.0067,0.009 -0.01198,0.0122 0.0062,-0.0105 7.19e-4,-0.02 -0.0072,-0.0271 -0.0096,-0.009 -0.0089,-0.0103 -0.01414,-0.0195 -4.79e-4,0.0144 -4.79e-4,0.0354 0.006,0.0491 -0.01701,0.0188 -0.01653,0.0435 -0.01605,0.0657 0.0038,-0.005 0.02205,-0.0193 0.02564,-0.0293 0.0046,0.01 0.0046,0.019 -0.0043,0.0264 l -0.02396,0.0291 c -0.0012,0.002 -0.0022,0.003 -0.0029,0.005 -0.0041,0.007 -0.0065,0.009 -0.0067,0.003 0,-0.003 2.4e-4,-0.008 0.0026,-0.0122 -0.0242,-0.0117 -0.04242,-0.0308 -0.06039,-0.0476 -0.01605,-0.0149 -0.01797,-0.0256 -0.0096,-0.0413 4.79e-4,-0.001 9.58e-4,-0.002 0.0014,-0.003 7.19e-4,-9.8e-4 0.0012,-0.002 0.0019,-0.003 7.19e-4,-0.001 0.0014,-0.002 0.0022,-0.004 7.19e-4,-0.001 0.0014,-0.003 0.0024,-0.004 0.0077,-0.0142 0.0046,-0.0322 -0.0091,-0.0413 0.0017,-0.004 -2.4e-4,-0.0273 -0.01629,-0.0293 0.0022,0.008 0.0012,0.0132 -0.0031,0.0259 0.0065,0.0125 0.0041,0.0217 -0.0038,0.0264 0.0034,-0.0156 -0.0093,-0.0303 -0.01917,-0.0354 -0.0034,-0.008 -0.01725,-0.0232 -0.03115,-0.0108 0.0079,0.003 0.0115,0.009 0.0127,0.0159 -0.0046,0.003 -0.0077,0.005 -0.0084,0.0107 0.0041,0 0.03499,0.0117 0.02229,0.0291 -0.01174,-0.0161 -0.01653,-0.0212 -0.0369,-0.0186 -0.01246,-0.009 -0.01869,-0.01 -0.029,-9.8e-4 l 0.01749,0.0129 c 0.0043,9.8e-4 -0.0093,-9.7e-4 -0.0093,0.0205 0.0012,0.007 0.0014,0.01 0.0055,0.0188 0.0034,0.007 0.01773,0.0132 0.02229,0.0115 0.01629,-0.0174 0.023,0.0154 0.0072,0.011 -0.0026,-7.4e-4 -0.02277,-0.0112 -0.02372,0.012 -2.39e-4,0.002 -0.01366,0.001 -0.01725,-4.9e-4 0.0022,0.022 0.01582,0.019 0.01941,0.0215 0.01246,0.021 0.0278,0.0205 0.03307,0.0164 0.0086,-0.008 0.01653,-0.0129 0.02756,-0.002 0.0062,0.009 0.0055,0.022 -0.01342,0.0276 l -0.0034,9.8e-4 0.0017,0.003 c 4.79e-4,0.001 0.0014,0.003 0.0022,0.003 0.0031,0.004 0.01486,0.008 0.01941,0.008 h 0.03043 c 0.005,0 0.0084,4.9e-4 0.0127,0.004 0.0019,10e-4 0.0081,0.007 0.0093,0.009 -0.0014,-4.9e-4 -0.0031,-7.3e-4 -0.0048,-7.3e-4 l -0.04481,-9.8e-4 0.0014,0.004 c 0.0019,0.004 0.005,0.006 0.0091,0.009 0.0038,0.003 0.0069,0.004 0.01174,0.004 h 0.03451 c 0.0053,0 0.0084,0 0.0127,0.003 0.0019,0.001 0.0067,0.007 0.0081,0.009 -0.0017,-4.9e-4 -0.0034,-7.3e-4 -0.0053,-7.3e-4 l -0.04601,2.4e-4 v 0 c 0.0022,0.005 0.0055,0.011 0.0098,0.0139 0.0041,0.003 0.0072,0.004 0.01222,0.004 l 0.03427,-4.9e-4 c 0.0053,0 0.0086,7.3e-4 0.01294,0.004 0.0019,0.001 0.0089,0.008 0.01006,0.009 -0.0017,-2.4e-4 -0.0031,-4.9e-4 -0.005,-4.9e-4 l -0.04218,-4.8e-4 0.0029,0.005 c 0.0017,0.003 0.0041,0.006 0.0067,0.009 0.0069,0.006 0.01102,0.004 0.02061,0.004 l 0.04146,-4.9e-4 -0.01246,-0.0154 c -0.0041,-0.003 -0.0026,-0.0137 -0.0026,-0.0208 -0.0038,-0.006 -0.0266,-0.0127 -0.01318,-0.0476 l 0.0036,-0.007 c 0.0043,-0.007 0.01078,-0.0151 0.0115,-0.0161 0.0091,0.0125 0.0026,0.0169 -0.0067,0.0305 -0.0043,0.0127 0.0014,0.0227 0.01054,0.0283 0.005,-0.01 0.0036,-0.022 0.0072,-0.0234 0.0046,0.007 0.0086,0.0134 0.005,0.0203 -0.0024,0.004 -0.0041,0.006 -0.0055,0.01 -0.0041,0.0144 -9.58e-4,0.0256 0.0096,0.0317 0.0012,-0.006 0.0014,-0.0103 0.0048,-0.0178 0.0029,-0.006 0.0034,-0.01 0.0029,-0.0159 0.0062,0.005 0.0098,0.0115 0.0086,0.0193 -9.59e-4,0.007 -0.0046,0.01 -0.006,0.0169 -0.0022,0.01 0.0069,0.0154 0.0127,0.0188 0.0055,-0.006 0.005,-0.0139 0.0038,-0.0254 z m 0.382697,0.0427 c -0.0024,-0.008 -0.0026,-0.0127 -0.0012,-0.0205 0.0012,-0.012 0.0093,-0.0244 0.01965,-0.0296 0.0091,-0.005 0.0115,-0.007 0.02109,-0.009 0.0077,-0.002 0.01582,-0.001 0.02253,-0.006 0.0055,-0.003 0.0084,-0.005 0.01318,-0.01 -0.006,0.009 -0.0103,0.0142 -0.01893,0.0215 -0.0067,0.006 -0.01126,0.006 -0.01989,0.0103 -0.0077,0.004 -0.0096,0.007 -0.01558,0.0117 -0.0053,0.004 -0.0103,0.01 -0.01486,0.0164 -0.0031,0.005 -0.0046,0.009 -0.006,0.0147 z m 0.167025,-0.0491 c 0.0024,0.006 0.0046,0.01 0.0091,0.0152 0.0053,0.006 0.0089,0.0103 0.01677,0.0127 0.0041,0.001 0.0065,0.001 0.01078,0.001 h 0.03906 c -0.0012,-0.003 -0.0022,-0.005 -0.0041,-0.008 -0.0024,-0.003 -0.0036,-0.005 -0.0067,-0.007 -0.0058,-0.003 -0.01054,-0.002 -0.01725,-0.001 -0.0046,0 -0.0072,0.001 -0.01198,0.001 -0.0055,0 -0.0089,2.4e-4 -0.01438,-9.8e-4 -0.0055,-0.001 -0.0089,-0.002 -0.01342,-0.005 -0.0036,-0.003 -0.0055,-0.004 -0.0079,-0.008 z m -0.492688,0.031 c -0.0031,-7.3e-4 -0.0048,-9.7e-4 -0.0079,-0.002 -0.0053,-0.002 -0.0081,-0.003 -0.01294,-0.007 -0.0031,-0.002 -0.0053,-0.004 -0.0065,-0.006 -0.01102,-0.002 -0.01917,-0.0115 -0.01917,-0.023 -0.01462,-0.008 -0.02109,-0.0266 -0.01366,-0.0418 0,0 0.0014,-0.003 0.0019,-0.005 4.8e-4,-0.003 4.8e-4,-0.005 0,-0.008 0.0017,0.003 0.0024,0.004 0.0041,0.006 0.0017,0.002 0.0031,0.003 0.0041,0.006 0.0012,0.003 7.19e-4,0.008 7.19e-4,0.008 -0.0034,0.009 -2.4e-4,0.0171 0.0072,0.0222 0,0 0.0012,-0.003 0.0017,-0.006 4.8e-4,-0.002 7.19e-4,-0.004 4.8e-4,-0.007 -2.4e-4,-0.002 -4.8e-4,-0.004 -9.59e-4,-0.006 0.0014,0.003 0.0024,0.004 0.0043,0.007 0.0012,0.001 0.0022,0.002 0.0034,0.004 0.0012,0.002 0.0019,0.004 0.0022,0.006 0,0.002 -0.0012,0.006 -0.0012,0.006 -7.19e-4,0.004 -0.0022,0.007 -9.59e-4,0.011 7.19e-4,0.003 0.0026,0.005 0.0053,0.007 0.0012,-0.003 0.0026,-0.007 0.0043,-0.0105 0,0 2.39e-4,-0.002 2.39e-4,-0.004 0,-0.003 -4.79e-4,-0.004 -0.0014,-0.006 0.0024,0.002 0.0036,0.003 0.0055,0.005 0.0017,0.002 0.0022,0.002 0.0043,0.005 0.0012,0.001 0.0024,0.005 0.0019,0.008 -2.4e-4,0.002 -0.0014,0.004 -0.0014,0.004 -0.0017,0.004 -0.0019,0.009 0.0014,0.0115 0.0022,0.002 0.0041,0.002 0.0069,0.002 v -0.0234 h 0.01246 v 0.0234 c 0.0029,-7.4e-4 0.0048,-4.9e-4 0.0069,-0.002 0.0034,-0.003 0.0031,-0.008 0.0014,-0.0115 0,0 -0.0012,-0.002 -0.0014,-0.004 -4.79e-4,-0.003 7.19e-4,-0.007 0.0019,-0.008 0.0022,-0.002 0.0026,-0.003 0.0043,-0.005 0.0019,-0.002 0.0031,-0.003 0.0053,-0.005 -7.19e-4,0.002 -0.0012,0.004 -0.0012,0.006 0,0.002 2.39e-4,0.004 2.39e-4,0.004 0.0017,0.003 0.0031,0.007 0.0041,0.0105 0.0029,-0.001 0.0046,-0.003 0.0055,-0.007 0.0012,-0.004 -2.4e-4,-0.007 -9.59e-4,-0.011 0,0 -0.0014,-0.003 -0.0012,-0.006 2.4e-4,-0.003 9.58e-4,-0.004 0.0022,-0.006 9.58e-4,-0.002 0.0022,-0.002 0.0034,-0.004 0.0017,-0.002 0.0026,-0.004 0.0043,-0.007 -7.19e-4,0.002 -9.59e-4,0.003 -9.59e-4,0.006 -2.39e-4,0.003 -2.39e-4,0.004 4.8e-4,0.007 4.79e-4,0.002 0.0017,0.006 0.0017,0.006 0.0074,-0.005 0.01054,-0.0132 0.0072,-0.0222 0,0 -7.19e-4,-0.005 7.19e-4,-0.008 9.59e-4,-0.003 0.0024,-0.004 0.0041,-0.006 0.0017,-0.002 0.0024,-0.004 0.0041,-0.006 -4.8e-4,0.003 -4.8e-4,0.005 0,0.008 4.79e-4,0.002 0.0019,0.005 0.0019,0.005 0.0074,0.0151 9.58e-4,0.0342 -0.01366,0.0418 0,0.0115 -0.0081,0.0212 -0.01917,0.023 -0.0012,0.002 -0.0034,0.005 -0.0062,0.006 -0.005,0.003 -0.0079,0.005 -0.01318,0.007 -0.0031,9.8e-4 -0.0048,0.001 -0.0079,0.002 z m -0.03954,-0.20272 c 0,-0.003 9.58e-4,-0.005 0.0029,-0.007 h -0.0096 c -0.0043,0 -0.0067,-0.002 -0.0096,-0.005 -0.0036,-0.004 -0.0048,-0.008 -0.0043,-0.0129 0.0019,0.003 0.0036,0.004 0.0065,0.005 0.0022,9.8e-4 0.0036,0.001 0.0062,0.001 h 0.03259 c 0.0022,0 0.0036,0.001 0.005,0.003 0.0019,0.002 0.0014,0.005 0.0014,0.008 v 0.006 c -4.79e-4,-10e-4 -9.58e-4,-0.002 -0.0022,-0.003 -0.0012,-0.001 -0.0024,-0.003 -0.0043,-0.003 h -0.0079 c 0.0019,0.002 0.0031,0.004 0.0031,0.007 0,0.006 -0.0046,0.0103 -0.01006,0.0103 -0.0055,0 -0.0098,-0.005 -0.0098,-0.0103 z m 0.05919,0 c 0,-0.003 0.0012,-0.005 0.0031,-0.007 h -0.0079 c -0.0019,0 -0.0031,0.001 -0.0043,0.003 -0.0012,9.8e-4 -0.0017,0.002 -0.0022,0.003 v -0.006 c 0,-0.003 -4.8e-4,-0.006 0.0014,-0.008 0.0014,-0.002 0.0029,-0.003 0.005,-0.003 h 0.03259 c 0.0026,0 0.0038,-4.8e-4 0.0062,-0.001 0.0029,-0.001 0.0046,-0.003 0.0065,-0.005 4.79e-4,0.005 -7.19e-4,0.009 -0.0043,0.0129 -0.0029,0.003 -0.0053,0.005 -0.0096,0.005 h -0.0096 c 0.0017,0.002 0.0029,0.004 0.0029,0.007 0,0.006 -0.0043,0.0103 -0.0098,0.0103 -0.0055,0 -0.01007,-0.005 -0.01007,-0.0103 z m 0.06422,0.0799 c 0.0017,0.003 0.0022,0.004 0.0034,0.007 9.59e-4,0.002 0.0014,0.004 0.0024,0.006 0.0012,-0.004 0.0022,-0.004 0.0029,-0.007 7.19e-4,-0.003 2.4e-4,-0.006 2.4e-4,-0.01 2.4e-4,-0.005 -4.79e-4,-0.008 -0.0034,-0.012 l -0.0096,-0.0137 c -0.0017,-0.002 -0.0019,-0.004 -0.0022,-0.006 -2.4e-4,-0.002 -2.4e-4,-0.003 2.4e-4,-0.005 -0.0024,0.002 -0.0034,0.003 -0.005,0.006 -0.0022,0.004 -0.0031,0.007 -0.0026,0.011 2.4e-4,0.004 0.0014,0.006 0.0036,0.009 l 0.0077,0.0112 c 9.59e-4,0.001 0.0017,0.002 0.0024,0.004 z m -0.155043,-9.8e-4 c 0.0022,0.003 0.0031,0.005 0.0043,0.009 0.0012,0.003 0.0017,0.005 0.0017,0.009 0,0.003 -4.8e-4,0.006 -0.0019,0.009 -0.0014,0.003 -0.0031,0.004 -0.0048,0.007 -0.0017,0.003 -0.0031,0.005 -0.0038,0.009 -7.19e-4,0.003 -7.19e-4,0.006 0,0.009 -0.0019,-0.002 -0.0029,-0.004 -0.0041,-0.007 -0.0019,-0.004 -0.0036,-0.007 -0.0034,-0.0112 0,-0.004 0.0017,-0.007 0.0036,-0.0107 0.0014,-0.003 0.0031,-0.004 0.0046,-0.007 0.0017,-0.003 0.0029,-0.005 0.0036,-0.008 4.8e-4,-0.002 4.8e-4,-0.004 2.4e-4,-0.006 z m -0.0127,9.8e-4 c -0.0017,0.003 -0.0022,0.004 -0.0034,0.007 -9.59e-4,0.002 -0.0014,0.004 -0.0024,0.006 -4.79e-4,-0.003 -7.19e-4,-0.005 -0.0014,-0.009 -4.79e-4,-0.003 -0.0017,-0.005 -0.0017,-0.008 -2.4e-4,-0.005 4.79e-4,-0.008 0.0034,-0.012 l 0.0096,-0.0137 c 0.0017,-0.002 0.0019,-0.004 0.0022,-0.006 2.4e-4,-0.002 0,-0.003 -2.4e-4,-0.005 0.0022,0.002 0.0034,0.003 0.0048,0.006 0.0024,0.004 0.0034,0.007 0.0029,0.011 -2.4e-4,0.004 -0.0014,0.006 -0.0036,0.009 l -0.0077,0.0112 c -9.59e-4,0.001 -0.0017,0.002 -0.0024,0.004 z m 0.09418,-0.14655 h 0.0029 c 0.0024,0 0.0036,2.5e-4 0.006,7.4e-4 0.0031,4.8e-4 0.005,9.7e-4 0.0077,0.003 0.0022,0.001 0.0034,0.002 0.0048,0.004 l 0.0036,0.006 c 0.0012,0.001 0.0017,0.003 0.0031,0.004 0.0024,0.002 0.0041,0.003 0.0072,0.004 h -0.0127 c -0.0031,0 -0.005,0 -0.0077,-0.002 -0.0024,-0.001 -0.0034,-0.003 -0.0048,-0.005 l -0.0031,-0.005 c -0.0019,-0.003 -0.0026,-0.006 -0.0055,-0.008 -4.79e-4,-4.8e-4 -7.18e-4,-7.3e-4 -0.0014,-0.001 z m -0.0532,0.009 0.0031,-0.002 c 0.0031,-0.002 0.005,-0.003 0.0086,-0.003 0.0022,0 0.0034,0 0.0053,7.3e-4 0.0029,9.8e-4 0.0043,0.002 0.006,0.005 l 0.0043,0.007 c 9.59e-4,10e-4 0.0012,0.002 0.0024,0.003 0.0014,0.002 0.0026,0.003 0.0046,0.004 h -0.01078 c -0.0029,0 -0.0048,0 -0.0072,-0.002 -0.0019,-0.001 -0.0026,-0.002 -0.0041,-0.004 l -0.0038,-0.006 c -0.0014,-0.002 -0.0031,-0.002 -0.0055,-0.003 -0.0012,-2.5e-4 -0.0017,-2.5e-4 -0.0029,0 z m 0.02205,-0.01 0.0034,-0.001 c 0.0026,-0.001 0.0046,-0.001 0.0074,-0.001 0.0036,2.5e-4 0.0058,7.4e-4 0.0086,0.003 0.0019,0.001 0.0029,0.002 0.0041,0.004 l 0.0115,0.0171 c 9.58e-4,0.001 0.0017,0.003 0.0031,0.004 0.0019,0.001 0.0034,0.002 0.006,0.002 -0.0036,0.001 -0.0058,0.002 -0.0093,0.002 -0.0043,-2.4e-4 -0.0069,-4.9e-4 -0.01054,-0.003 -0.0022,-0.001 -0.0031,-0.002 -0.0046,-0.004 l -0.01246,-0.0176 c -7.19e-4,-9.8e-4 -0.0012,-0.002 -0.0022,-0.002 -0.0019,-0.001 -0.0029,-0.002 -0.005,-0.002 z m 0.09178,0.14654 c -0.0019,0.003 -0.0029,0.005 -0.0041,0.009 -0.0012,0.003 -0.0017,0.005 -0.0017,0.009 0,0.003 4.79e-4,0.006 0.0019,0.009 0.0014,0.003 0.0031,0.004 0.0046,0.007 0.0019,0.003 0.0034,0.005 0.0041,0.009 4.79e-4,0.003 4.79e-4,0.006 0,0.009 0.0019,-0.002 0.0029,-0.004 0.0041,-0.007 0.0019,-0.004 0.0036,-0.007 0.0034,-0.0112 0,-0.004 -0.0017,-0.007 -0.0036,-0.0107 -0.0017,-0.003 -0.0031,-0.004 -0.0046,-0.007 -0.0017,-0.003 -0.0029,-0.005 -0.0036,-0.008 -4.8e-4,-0.002 -4.8e-4,-0.004 -4.8e-4,-0.006 z m -0.03714,-0.009 c 9.58e-4,0.0108 4.79e-4,0.0213 -0.0014,0.0318 0.0022,0.005 0.0041,0.0127 0.0041,0.0198 0,0.0134 -0.01126,0.0217 -0.0242,0.021 -0.0036,-2.4e-4 -0.0077,-9.8e-4 -0.01222,-9.8e-4 -0.01294,0 -0.01821,0.005 -0.03019,-0.005 -0.0048,-0.004 -0.0062,-0.009 -0.0062,-0.0147 0,-0.007 0.0014,-0.0149 0.0038,-0.0203 -0.0017,-0.0103 -0.0022,-0.0208 -0.0014,-0.0313 -0.0093,-0.003 -0.01725,-0.0115 -0.01845,-0.0242 -0.02205,-0.003 -0.03475,-0.0259 -0.03355,-0.0471 0,0 0.0017,-0.007 0.0041,-0.011 0.0026,-0.004 0.0046,-0.006 0.0086,-0.008 v 0.0217 c 0,0.0169 0.0096,0.032 0.02732,0.0317 l 0.0074,-2.4e-4 c -7.19e-4,0.007 -0.0022,0.0112 9.59e-4,0.0176 0.0074,0.0144 0.03355,0.0105 0.03163,-0.007 -0.006,-0.002 -0.01031,-0.009 -0.01031,-0.0156 h 0.03283 c 0,0.007 -0.0046,0.0132 -0.01054,0.0156 -0.0019,0.0176 0.02396,0.0215 0.03163,0.007 0.0031,-0.006 0.0017,-0.0108 9.59e-4,-0.0176 l 0.0074,2.4e-4 c 0.01773,2.5e-4 0.02732,-0.0149 0.02732,-0.0317 v -0.0217 c 0.0041,0.002 0.006,0.004 0.0086,0.008 0.0024,0.004 0.0041,0.011 0.0041,0.011 0.0012,0.0213 -0.01174,0.044 -0.03355,0.0471 -0.0012,0.0127 -0.0091,0.0208 -0.01869,0.0242 z m -0.01342,0.0315 c -2.39e-4,-0.008 0.0022,-0.0186 0.0022,-0.0264 l -0.01006,0.009 c 0,0 -0.0034,-0.007 -0.0046,-0.0122 -0.0079,2.5e-4 -0.0086,7.4e-4 -0.01582,4.9e-4 -0.0029,0.006 -0.0053,0.012 -0.0055,0.0125 l -0.0093,-0.0105 c 0,0.008 0.0014,0.0188 0.0012,0.0269 0.0072,4.9e-4 0.03523,0 0.04194,2.5e-4 z m -0.02516,0.0115 c -0.0081,9.7e-4 -0.02157,0.002 -0.01869,0.01 0.0017,0.005 0.007,0.006 0.01246,0.007 0.0041,9.8e-4 0.0067,-2.4e-4 0.01102,-2.4e-4 0.0043,2.4e-4 0.0069,0.001 0.01126,4.9e-4 0.0053,-0.001 0.0103,-0.002 0.01222,-0.007 0.0029,-0.008 -0.01078,-0.009 -0.01893,-0.01 -0.0019,-2.5e-4 -0.0031,-2.5e-4 -0.0046,-2.5e-4 -0.0022,0 -0.0031,0 -0.0048,2.5e-4 z m 0.448835,0.0276 c -0.0058,-0.0452 -0.04865,-0.041 -0.07405,-0.0296 0.0069,0.0186 -0.01366,0.0259 -0.01989,0.0274 -0.02276,0.005 -0.0254,0.002 -0.04577,0.007 -0.02923,0.008 -0.04194,0.0364 -0.05032,0.0569 -0.0034,0.009 -0.0086,0.0161 -0.01342,0.023 0.01078,-0.002 0.02468,-0.003 0.03571,-0.002 -0.0036,0.003 -0.02684,0.0276 -0.03235,0.0344 -0.01629,0.008 -0.02804,0.005 -0.04577,-10e-4 -0.02636,-0.0166 -0.06542,0.005 -0.06614,0.0327 -0.0115,0.003 -0.02205,0.0222 -0.01462,0.0337 7.19e-4,-0.003 0.0151,-0.0159 0.02277,-0.0151 0.0017,-0.007 0.01174,-0.0259 0.01965,-0.0257 0.0041,-0.002 0.01054,-0.003 0.01438,0 -0.0043,-0.001 -0.02444,0.023 -0.0242,0.0286 -0.0096,0.001 -0.01821,0.0256 -0.0093,0.0303 0.0012,-0.006 0.02253,-0.0191 0.02756,-0.0217 4.79e-4,-0.0115 0.02037,-0.0317 0.03067,-0.0249 -0.01653,0.008 -0.02492,0.0322 -0.02085,0.0496 0.0026,-0.001 0.01558,-0.0213 0.03211,-0.0122 0.0081,0.004 0.02301,4.9e-4 0.02876,-0.006 0.0084,-0.009 0.01054,-0.0195 0.0029,-0.0296 0.01486,-0.003 0.01821,0.0156 0.01366,0.0242 0.01078,0.003 0.0393,-0.011 0.04074,-0.0298 0.01126,-0.009 0.01318,-0.0103 0.02708,-0.0259 -0.0024,0.0134 0.0053,0.0183 0.0043,0.032 0.0062,-0.007 0.01582,-0.0191 0.01174,-0.0315 l -0.005,-0.0191 c -0.0012,-0.005 -0.0014,-0.008 2.4e-4,-0.0125 0.0012,-0.003 0.0029,-0.005 0.005,-0.007 l 0.0058,-0.006 c -0.0017,0.0117 0.0058,0.0274 0.0079,0.0457 0.0043,-0.004 0.01318,-0.0117 0.01414,-0.0232 l -0.0019,-0.0151 c -0.0012,-0.005 -0.006,-0.0217 -0.0043,-0.0261 0.0012,-0.003 0.0026,-0.005 0.005,-0.007 l 0.0062,-0.005 c -0.0014,0.003 0,0.005 -2.39e-4,0.009 -2.4e-4,0.0166 0.0058,0.022 0.006,0.0386 0.0048,-0.005 0.01294,-0.0115 0.0115,-0.02 -0.0029,-0.0154 -7.19e-4,-0.0269 0.0089,-0.0369 0.0089,-0.008 0.04122,-0.0325 0.04553,-0.0388 z m 0.01773,-0.18026 c -0.02804,0.007 -0.07692,0.0208 -0.101126,0.0279 -0.03379,0.0103 -0.04913,0.0198 -0.08363,0.0274 -0.03187,0.007 -0.04913,0.0103 -0.07141,0.007 -0.01006,-0.002 -0.01845,-0.009 -0.02276,-0.0154 -0.0053,-0.008 -0.0067,-0.0215 0.0036,-0.0261 0.0093,-0.004 0.02181,0.005 0.01654,0.0195 0.04601,-2.4e-4 0.03547,-0.031 0.01486,-0.0413 0.02277,4.9e-4 0.029,0.009 0.02852,0.0266 0.05248,0.001 0.06542,-0.0254 0.08747,-0.053 -0.01749,0.005 -0.02468,0.0203 -0.10496,9.8e-4 -0.02229,0 -0.05751,0.001 -0.07453,0.0203 -0.0086,0.01 -0.01845,0.0264 -0.01534,0.0479 0.0046,0.0386 0.05272,0.0525 0.08315,0.0506 0.06206,-0.003 0.126766,-0.03 0.19003,-0.0447 0.0072,-0.0105 0.02923,-0.031 0.0508,-0.0423 0.0043,-0.002 0.0024,-0.006 -0.0012,-0.005 z"
       style="fill:#231f20;fill-opacity:1;fill-rule:evenodd;stroke:none;stroke-width:0.26458332"
       inkscape:connector-curvature="0" />
    <path
       id="path1620"
       d="m 16.953199,169.63578 c 0.0046,0.009 0.0093,0.0171 0.01462,0.0256 0.02444,0.0391 0.04265,0.0628 0.07117,0.0914 l -0.0091,-0.0371 c -0.03235,-0.0276 -0.05655,-0.0523 -0.07668,-0.0799 z m -1.474472,-0.71758 c -0.0055,0.0271 0.006,0.0557 0.03283,0.0664 0.02229,0.009 0.04409,0.005 0.05128,-0.0222 0.0072,-0.0266 -0.0062,-0.0298 -0.0254,-0.0449 0.02348,0.003 0.05607,0.0103 0.08914,0.0476 0.01366,0.0154 0.02276,0.0322 0.03259,0.0503 0.0065,0.012 0.01246,0.0237 0.01749,0.0352 -0.0098,-0.0425 -0.02516,-0.0833 -0.0496,-0.12335 -0.023,-0.0371 -0.05703,-0.0498 -0.09897,-0.0479 -0.02276,9.8e-4 -0.04313,0.0164 -0.04913,0.0388 z m 0.03547,0.83287 c 0.03427,-0.0354 0.0635,-0.0747 0.08675,-0.11822 -0.02061,0.0283 -0.04481,0.0533 -0.07764,0.0813 z m 1.36376,-0.70074 c 0.0086,-0.02 0.01917,-0.0396 0.03235,-0.0608 0.01917,-0.0315 0.04865,-0.0598 0.08459,-0.0694 l 0.02276,-0.002 c -0.01893,0.0154 -0.03283,0.0178 -0.02564,0.0445 0.01438,0.0542 0.09777,0.0191 0.08411,-0.0442 -0.0062,-0.0225 -0.0266,-0.0379 -0.04936,-0.0388 -0.01869,-9.8e-4 -0.04194,0.001 -0.05847,0.01 -0.02708,0.0134 -0.03858,0.0352 -0.05272,0.0601 -0.01773,0.0315 -0.02947,0.0657 -0.03762,0.10136 z m 0.169182,0.72687 c -0.05679,-0.0537 -0.101844,-0.11797 -0.130361,-0.19173 -0.01007,-0.0261 -0.0278,-0.0845 -0.0278,-0.0845 -0.0022,-0.009 -0.0062,-0.0264 -0.01965,-0.0706 -0.01845,-0.0608 -0.02923,-0.19149 -0.02133,-0.26086 0.0062,-0.0909 0.01989,-0.1717 0.06806,-0.24986 0.02564,-0.0418 0.06398,-0.0569 0.111191,-0.0547 0.01054,4.9e-4 0.02061,0.003 0.02947,0.008 -0.01845,-0.0305 -0.04433,-0.0564 -0.07117,-0.0782 -0.0544,-0.044 -0.101845,-0.0933 -0.132278,-0.15778 -0.07764,0.0208 -0.131559,0.0105 -0.206805,-0.01 -0.05152,-0.0142 -0.07908,-0.0325 -0.132278,-0.0432 -0.03834,-0.008 -0.06638,-0.0117 -0.09993,-0.0117 -0.05152,0 -0.09681,0.0195 -0.136592,0.0515 -0.02324,-0.0183 -0.03571,-0.0266 -0.06302,-0.0371 -0.0278,-0.0105 -0.04697,-0.0144 -0.07405,-0.0144 -0.03355,0 -0.06135,0.004 -0.09993,0.0117 -0.0532,0.0108 -0.08076,0.0291 -0.132518,0.0432 -0.075,0.0205 -0.128923,0.0308 -0.206564,0.01 -0.03043,0.0645 -0.07788,0.11381 -0.132279,0.15778 -0.02684,0.0217 -0.05296,0.0476 -0.07117,0.0782 0.0089,-0.005 0.01893,-0.008 0.02923,-0.008 0.04745,-0.002 0.08579,0.013 0.11143,0.0547 0.04841,0.0789 0.06183,0.16023 0.06806,0.25206 0.0026,0.0293 0.0024,0.0598 9.58e-4,0.0933 -0.0026,0.0699 -0.01605,0.16267 -0.04098,0.23643 -0.01989,0.0581 -0.0369,0.11357 -0.06973,0.16609 -0.02924,0.0471 -0.05008,0.0725 -0.08938,0.10966 l -0.0012,0.005 c 0.01917,0.0867 0.05919,0.19051 0.112628,0.26183 0.03139,0.0418 0.052,0.064 0.0937,0.0945 0.0556,0.0408 0.0949,0.0528 0.161993,0.072 0.0544,0.0159 0.08843,0.0178 0.144021,0.0332 0.08196,0.0227 0.133716,0.0374 0.204408,0.0884 0.02252,0.0161 0.03547,0.0269 0.05416,0.0447 0.04313,-0.041 0.09513,-0.0762 0.149532,-0.0989 0.04098,-0.0171 0.06614,-0.0225 0.109034,-0.0342 0.0556,-0.0154 0.08962,-0.0173 0.14402,-0.0332 0.0671,-0.0193 0.106158,-0.0313 0.161993,-0.072 0.0417,-0.0305 0.06231,-0.0528 0.0937,-0.0945 0.0532,-0.0713 0.09346,-0.17512 0.112629,-0.26183 z m -0.769706,-1.17115 c 0.03858,-0.0293 0.08866,-0.0481 0.136832,-0.0481 0.03451,0 0.06302,0.004 0.102563,0.012 0.05368,0.011 0.08148,0.0293 0.133477,0.0435 0.08028,0.022 0.127725,0.03 0.210399,0.007 0.03235,0.0696 0.07525,0.11626 0.133476,0.1634 0.04409,0.0357 0.123891,0.11919 0.08842,0.18367 -0.02276,0.0413 -0.08938,0.0542 -0.104241,-0.001 -0.0022,-0.008 -0.0034,-0.0151 -9.58e-4,-0.0239 -0.03259,0.0164 -0.05224,0.0484 -0.06949,0.0799 -0.029,0.0528 -0.04146,0.0994 -0.04601,0.14973 l -2.4e-4,0.004 c -0.0024,0.0279 -0.0019,0.0569 -7.19e-4,0.0887 0.0026,0.064 0.01054,0.1253 0.02157,0.16145 0.01534,0.0501 0.01893,0.0662 0.02085,0.0747 0.0019,0.01 0.0058,0.0178 0.0096,0.0271 0.03403,0.0806 0.06494,0.12212 0.13108,0.1783 l 0.01869,0.0755 c -0.01989,0.0906 -0.06039,0.19661 -0.115983,0.27062 -0.03187,0.0427 -0.05344,0.0659 -0.09657,0.0977 -0.05775,0.0422 -0.09897,0.0547 -0.166307,0.0742 -0.0544,0.0156 -0.08842,0.0176 -0.14402,0.033 -0.0798,0.0222 -0.131559,0.0369 -0.200334,0.0865 -0.02277,0.0164 -0.04194,0.0332 -0.06207,0.0528 -0.04553,-0.0444 -0.09633,-0.0811 -0.155043,-0.10551 -0.04026,-0.0169 -0.06494,-0.022 -0.107357,-0.0337 -0.0556,-0.0154 -0.08962,-0.0173 -0.14402,-0.033 -0.06734,-0.0195 -0.108554,-0.032 -0.166306,-0.0742 -0.04313,-0.0318 -0.06446,-0.055 -0.09657,-0.0977 -0.05584,-0.074 -0.09633,-0.18001 -0.115983,-0.27062 l 0.01869,-0.0755 c 0.06614,-0.0562 0.09705,-0.0977 0.131081,-0.1783 0.03187,-0.0757 0.04889,-0.18465 0.052,-0.2633 0.0012,-0.0318 0.0014,-0.0608 -7.19e-4,-0.0887 l -2.39e-4,-0.003 v -4.9e-4 -4.9e-4 c -0.0046,-0.0506 -0.01701,-0.0972 -0.04601,-0.14997 -0.01725,-0.0315 -0.0369,-0.0635 -0.06949,-0.0799 0.0067,0.0232 -0.0098,0.0501 -0.03139,0.0584 -0.02756,0.0105 -0.06039,-0.009 -0.07381,-0.0332 -0.0103,-0.0188 -0.01078,-0.0359 -0.0065,-0.053 0,-0.002 7.19e-4,-0.003 0.0012,-0.005 0.0024,-0.009 0.006,-0.0169 0.0096,-0.0256 0.01534,-0.0359 0.0544,-0.0757 0.08411,-0.0999 0.05823,-0.0471 0.100887,-0.0938 0.133237,-0.1634 0.08291,0.023 0.130122,0.0149 0.210639,-0.007 0.052,-0.0142 0.0798,-0.0325 0.133476,-0.0435 0.0393,-0.008 0.06806,-0.012 0.102564,-0.012 0.04865,0 0.09801,0.0176 0.136831,0.0479 z"
       style="fill:#231f20;fill-opacity:1;fill-rule:evenodd;stroke:none;stroke-width:0.26458332"
       inkscape:connector-curvature="0" />
  </g>
</svg>
