<?xml version="1.0" encoding="UTF-8" standalone="no"?>
<!-- Created with Inkscape (http://www.inkscape.org/) -->

<svg
   xmlns:dc="http://purl.org/dc/elements/1.1/"
   xmlns:cc="http://creativecommons.org/ns#"
   xmlns:rdf="http://www.w3.org/1999/02/22-rdf-syntax-ns#"
   xmlns:svg="http://www.w3.org/2000/svg"
   xmlns="http://www.w3.org/2000/svg"
   xmlns:sodipodi="http://sodipodi.sourceforge.net/DTD/sodipodi-0.dtd"
   xmlns:inkscape="http://www.inkscape.org/namespaces/inkscape"
   width="12.351mm"
   height="3.2227299mm"
   viewBox="0 0 12.351 3.2227299"
   version="1.1"
   id="svg8"
   inkscape:version="0.92.2 (5c3e80d, 2017-08-06)">
  <defs
     id="defs2">
    <pattern
       y="0"
       x="0"
       height="6"
       width="6"
       patternUnits="userSpaceOnUse"
       id="EMFhbasepattern" />
    <pattern
       y="0"
       x="0"
       height="6"
       width="6"
       patternUnits="userSpaceOnUse"
       id="EMFhbasepattern-0" />
    <pattern
       y="0"
       x="0"
       height="6"
       width="6"
       patternUnits="userSpaceOnUse"
       id="EMFhbasepattern-2" />
    <pattern
       y="0"
       x="0"
       height="6"
       width="6"
       patternUnits="userSpaceOnUse"
       id="EMFhbasepattern-6" />
    <pattern
       y="0"
       x="0"
       height="6"
       width="6"
       patternUnits="userSpaceOnUse"
       id="EMFhbasepattern-03" />
    <pattern
       y="0"
       x="0"
       height="6"
       width="6"
       patternUnits="userSpaceOnUse"
       id="EMFhbasepattern-5" />
    <pattern
       y="0"
       x="0"
       height="6"
       width="6"
       patternUnits="userSpaceOnUse"
       id="EMFhbasepattern-69" />
    <pattern
       y="0"
       x="0"
       height="6"
       width="6"
       patternUnits="userSpaceOnUse"
       id="EMFhbasepattern-54" />
    <pattern
       y="0"
       x="0"
       height="6"
       width="6"
       patternUnits="userSpaceOnUse"
       id="EMFhbasepattern-1" />
    <pattern
       y="0"
       x="0"
       height="6"
       width="6"
       patternUnits="userSpaceOnUse"
       id="EMFhbasepattern-05" />
    <pattern
       y="0"
       x="0"
       height="6"
       width="6"
       patternUnits="userSpaceOnUse"
       id="EMFhbasepattern-58" />
    <pattern
       y="0"
       x="0"
       height="6"
       width="6"
       patternUnits="userSpaceOnUse"
       id="EMFhbasepattern-23" />
    <pattern
       y="0"
       x="0"
       height="6"
       width="6"
       patternUnits="userSpaceOnUse"
       id="EMFhbasepattern-62" />
    <pattern
       y="0"
       x="0"
       height="6"
       width="6"
       patternUnits="userSpaceOnUse"
       id="EMFhbasepattern-3" />
    <pattern
       y="0"
       x="0"
       height="6"
       width="6"
       patternUnits="userSpaceOnUse"
       id="EMFhbasepattern-57" />
    <pattern
       y="0"
       x="0"
       height="6"
       width="6"
       patternUnits="userSpaceOnUse"
       id="EMFhbasepattern-7" />
    <pattern
       y="0"
       x="0"
       height="6"
       width="6"
       patternUnits="userSpaceOnUse"
       id="EMFhbasepattern-626" />
    <pattern
       y="0"
       x="0"
       height="6"
       width="6"
       patternUnits="userSpaceOnUse"
       id="EMFhbasepattern-13" />
    <pattern
       y="0"
       x="0"
       height="6"
       width="6"
       patternUnits="userSpaceOnUse"
       id="EMFhbasepattern-38" />
    <pattern
       y="0"
       x="0"
       height="6"
       width="6"
       patternUnits="userSpaceOnUse"
       id="EMFhbasepattern-20" />
    <pattern
       y="0"
       x="0"
       height="6"
       width="6"
       patternUnits="userSpaceOnUse"
       id="EMFhbasepattern-8" />
    <pattern
       y="0"
       x="0"
       height="6"
       width="6"
       patternUnits="userSpaceOnUse"
       id="EMFhbasepattern-80" />
    <pattern
       y="0"
       x="0"
       height="6"
       width="6"
       patternUnits="userSpaceOnUse"
       id="EMFhbasepattern-66" />
    <pattern
       y="0"
       x="0"
       height="6"
       width="6"
       patternUnits="userSpaceOnUse"
       id="EMFhbasepattern-9" />
    <pattern
       y="0"
       x="0"
       height="6"
       width="6"
       patternUnits="userSpaceOnUse"
       id="EMFhbasepattern-31" />
    <pattern
       y="0"
       x="0"
       height="6"
       width="6"
       patternUnits="userSpaceOnUse"
       id="EMFhbasepattern-82" />
    <pattern
       y="0"
       x="0"
       height="6"
       width="6"
       patternUnits="userSpaceOnUse"
       id="EMFhbasepattern-63" />
    <pattern
       y="0"
       x="0"
       height="6"
       width="6"
       patternUnits="userSpaceOnUse"
       id="EMFhbasepattern-98" />
    <pattern
       y="0"
       x="0"
       height="6"
       width="6"
       patternUnits="userSpaceOnUse"
       id="EMFhbasepattern-4" />
    <pattern
       y="0"
       x="0"
       height="6"
       width="6"
       patternUnits="userSpaceOnUse"
       id="EMFhbasepattern-92" />
    <pattern
       y="0"
       x="0"
       height="6"
       width="6"
       patternUnits="userSpaceOnUse"
       id="EMFhbasepattern-820" />
    <pattern
       y="0"
       x="0"
       height="6"
       width="6"
       patternUnits="userSpaceOnUse"
       id="EMFhbasepattern-628" />
    <pattern
       y="0"
       x="0"
       height="6"
       width="6"
       patternUnits="userSpaceOnUse"
       id="EMFhbasepattern-33" />
  </defs>
  <sodipodi:namedview
     id="base"
     pagecolor="#ffffff"
     bordercolor="#666666"
     borderopacity="1.0"
     inkscape:pageopacity="0.0"
     inkscape:pageshadow="2"
     inkscape:zoom="5.6"
     inkscape:cx="47.305469"
     inkscape:cy="7.8149643"
     inkscape:document-units="mm"
     inkscape:current-layer="layer1"
     showgrid="false"
     fit-margin-top="0"
     fit-margin-left="0"
     fit-margin-right="0"
     fit-margin-bottom="0"
     inkscape:window-width="1920"
     inkscape:window-height="1027"
     inkscape:window-x="-8"
     inkscape:window-y="-8"
     inkscape:window-maximized="1" />
  <metadata
     id="metadata5">
    <rdf:RDF>
      <cc:Work
         rdf:about="">
        <dc:format>image/svg+xml</dc:format>
        <dc:type
           rdf:resource="http://purl.org/dc/dcmitype/StillImage" />
        <dc:title></dc:title>
      </cc:Work>
    </rdf:RDF>
  </metadata>
  <g
     inkscape:label="Layer 1"
     inkscape:groupmode="layer"
     id="layer1"
     transform="translate(-10.385772,-164.82653)">
    <path
       id="path4084"
       d="m 10.385772,164.827 h 12.351 v 3.22153 h -12.351 z"
       style="fill:#1d1d1b;fill-opacity:1;fill-rule:evenodd;stroke:none;stroke-width:0.26458332"
       inkscape:connector-curvature="0" />
    <path
       id="path4086"
       d="m 10.981536,165.00827 h 11.164011 c 0.246045,0 0.407766,0.20543 0.407766,0.40968 v 2.042 c 0,0.23529 -0.199942,0.40708 -0.408483,0.40708 H 10.983686 c -0.226935,0 -0.414694,-0.18127 -0.414694,-0.40708 v -2.042 c 0,-0.22415 0.179876,-0.40968 0.412544,-0.40968 z m -0.0024,-0.18174 h 11.169027 l 0.02986,9.5e-4 0.03201,0.003 0.03153,0.004 0.03105,0.006 0.0301,0.007 0.02962,0.009 0.02867,0.0104 0.02795,0.0116 0.02699,0.013 0.02604,0.0142 0.02484,0.0154 0.02413,0.0166 0.02293,0.0178 0.02198,0.0185 0.02102,0.0197 0.01959,0.0204 0.01887,0.0211 0.01744,0.022 0.01648,0.0225 0.01529,0.0232 0.01433,0.0239 0.01314,0.0244 0.01194,0.0249 0.01075,0.0256 0.0096,0.0258 0.0084,0.0263 0.0072,0.0268 0.006,0.027 0.0045,0.0273 0.0033,0.0277 0.0021,0.0277 7.17e-4,0.0258 v 2.04627 l -9.55e-4,0.0291 -0.0024,0.031 -0.0041,0.0306 -0.0057,0.0301 -0.0072,0.0294 -0.0086,0.0287 -0.01003,0.0282 -0.01147,0.0272 -0.01266,0.0265 -0.01386,0.0256 -0.01505,0.0246 -0.016,0.0239 -0.0172,0.0228 -0.01816,0.022 -0.01911,0.0208 -0.02006,0.0199 -0.02078,0.019 -0.02174,0.018 -0.02245,0.0168 -0.02317,0.0159 -0.02389,0.0147 -0.02436,0.0135 -0.02508,0.0126 -0.0258,0.0111 -0.02628,0.0102 -0.02675,0.009 -0.02723,0.008 -0.02771,0.006 -0.02795,0.005 -0.02843,0.004 -0.02867,0.002 -0.02651,7.1e-4 H 10.981297 l -0.02795,-7.1e-4 -0.0301,-0.002 -0.02962,-0.004 -0.02938,-0.005 -0.02867,-0.007 -0.02843,-0.008 -0.02747,-0.009 -0.02723,-0.0104 -0.02628,-0.0119 -0.0258,-0.0128 -0.02484,-0.014 -0.02436,-0.0154 -0.02341,-0.0161 -0.02245,-0.0173 -0.02174,-0.0185 -0.02078,-0.0194 -0.01983,-0.0204 -0.01887,-0.0211 -0.01792,-0.0223 -0.01672,-0.023 -0.01553,-0.0239 -0.01457,-0.0246 -0.01338,-0.0256 -0.01218,-0.0261 -0.01099,-0.027 -0.0093,-0.0275 -0.0081,-0.0282 -0.0069,-0.0287 -0.0055,-0.0291 -0.0038,-0.0299 -0.0022,-0.0299 -7.16e-4,-0.0282 v -2.04627 l 4.78e-4,-0.0277 0.0024,-0.0296 0.0036,-0.0294 0.0053,-0.0289 0.0065,-0.0284 0.0079,-0.028 0.0091,-0.0272 0.01051,-0.0268 0.0117,-0.0263 0.0129,-0.0254 0.01409,-0.0246 0.01529,-0.0242 0.01648,-0.0232 0.01744,-0.0223 0.01839,-0.0216 0.01959,-0.0206 0.02054,-0.0197 0.0215,-0.019 0.02245,-0.0175 0.02341,-0.0166 0.02413,-0.0156 0.02508,-0.0145 0.0258,-0.0133 0.02676,-0.0118 0.02723,-0.0107 0.02795,-0.009 0.02867,-0.008 0.02914,-0.007 0.02962,-0.005 0.0301,-0.004 0.03058,-0.002 z"
       style="fill:#fcffff;fill-opacity:1;fill-rule:evenodd;stroke:none;stroke-width:0.26458332"
       inkscape:connector-curvature="0" />
    <path
       id="path4088"
       d="m 11.196288,167.11828 v -1.36126 h 0.478236 c 0.122545,0 0.209736,0.0123 0.262289,0.0367 0.05255,0.0244 0.09531,0.0668 0.129234,0.127 0.03344,0.0607 0.0504,0.13293 0.0504,0.21681 0,0.10638 -0.0258,0.1924 -0.0774,0.25732 -0.05136,0.0649 -0.124456,0.10591 -0.219291,0.12274 0.04849,0.0344 0.0891,0.0725 0.120634,0.11373 0.03201,0.0412 0.07548,0.11492 0.130666,0.22155 l 0.137356,0.26538 h -0.271844 l -0.164827,-0.29595 c -0.059,-0.1071 -0.09937,-0.17415 -0.120873,-0.20117 -0.02102,-0.027 -0.04371,-0.0457 -0.06736,-0.0557 -0.02365,-0.0107 -0.06163,-0.0156 -0.113945,-0.0156 h -0.04706 v 0.56844 z m 0.226219,-0.78524 h 0.168648 c 0.103196,0 0.168888,-0.004 0.196837,-0.0135 0.02819,-0.009 0.05088,-0.027 0.06832,-0.0543 0.01768,-0.0272 0.02628,-0.0637 0.02628,-0.109 0,-0.0434 -0.0086,-0.0782 -0.02628,-0.10449 -0.01744,-0.0263 -0.04109,-0.0446 -0.07119,-0.0545 -0.02102,-0.007 -0.08265,-0.0102 -0.184653,-0.0102 h -0.177965 z"
       style="fill:#fcffff;fill-opacity:1;fill-rule:evenodd;stroke:none;stroke-width:0.26458332"
       inkscape:connector-curvature="0" />
    <path
       id="path4090"
       d="m 12.481457,166.44582 c 0,-0.16183 0.02437,-0.29523 0.07262,-0.4002 0.04825,-0.10473 0.111556,-0.18316 0.189431,-0.23458 0.07787,-0.0512 0.17247,-0.0768 0.28331,-0.0768 0.161005,0 0.291911,0.0609 0.393195,0.18269 0.101285,0.12203 0.152166,0.29547 0.152166,0.52081 0,0.22747 -0.05375,0.40565 -0.161005,0.5336 -0.09388,0.11302 -0.222157,0.16989 -0.3834,0.16989 -0.162916,0 -0.291433,-0.0561 -0.385312,-0.16799 -0.107257,-0.12819 -0.161005,-0.30401 -0.161005,-0.52745 z m 0.233863,-0.009 c 0,0.15615 0.0301,0.27344 0.08982,0.35139 0.05996,0.0782 0.134488,0.11729 0.223113,0.11729 0.08934,0 0.163393,-0.0389 0.221918,-0.11634 0.05876,-0.0775 0.08815,-0.19643 0.08815,-0.35708 0,-0.15733 -0.02843,-0.27391 -0.08576,-0.34902 -0.05709,-0.0753 -0.131861,-0.11303 -0.224307,-0.11303 -0.09245,0 -0.167694,0.0379 -0.225741,0.11374 -0.05805,0.0761 -0.08719,0.19358 -0.08719,0.35305 z m 0.139983,-0.78429 h -0.09794 l -7.17e-4,-0.0306 c 0,-0.0675 0.01338,-0.11824 0.03989,-0.15236 0.02675,-0.0339 0.06044,-0.0509 0.101285,-0.0509 0.01744,0 0.03416,0.002 0.04969,0.007 0.016,0.005 0.04133,0.0168 0.07644,0.0355 0.04658,0.0249 0.08122,0.0372 0.103434,0.0372 0.03607,0 0.05685,-0.0273 0.0633,-0.082 h 0.0977 c -4.78e-4,0.0848 -0.01362,0.14453 -0.03894,0.18055 -0.02532,0.0358 -0.05781,0.0533 -0.09794,0.0533 -0.01672,0 -0.0332,-0.002 -0.04969,-0.006 -0.0117,-0.003 -0.03918,-0.0147 -0.08241,-0.0339 -0.05208,-0.0239 -0.08862,-0.0358 -0.11084,-0.0358 -0.01553,0 -0.02795,0.006 -0.03798,0.0173 -0.0096,0.0118 -0.01457,0.0317 -0.01529,0.0607 z"
       style="fill:#fcffff;fill-opacity:1;fill-rule:evenodd;stroke:none;stroke-width:0.26458332"
       inkscape:connector-curvature="0" />
    <path
       id="path4092"
       d="m 13.901354,166.44582 c 0,-0.16183 0.02437,-0.29523 0.07262,-0.4002 0.04801,-0.10473 0.111556,-0.18316 0.18943,-0.23458 0.07787,-0.0512 0.172471,-0.0768 0.283311,-0.0768 0.161005,0 0.29191,0.0609 0.393195,0.18269 0.101285,0.12203 0.152166,0.29547 0.152166,0.52081 0,0.22747 -0.05375,0.40565 -0.161004,0.5336 -0.09412,0.11302 -0.222158,0.16989 -0.383401,0.16989 -0.162916,0 -0.291433,-0.0561 -0.385312,-0.16799 -0.107257,-0.12819 -0.161005,-0.30401 -0.161005,-0.52745 z m 0.233863,-0.009 c 0,0.15615 0.0301,0.27344 0.08982,0.35139 0.05996,0.0782 0.134489,0.11729 0.222874,0.11729 0.08958,0 0.163633,-0.0389 0.222158,-0.11634 0.05876,-0.0775 0.08815,-0.19643 0.08815,-0.35708 0,-0.15733 -0.02843,-0.27391 -0.08576,-0.34902 -0.05709,-0.0753 -0.131862,-0.11303 -0.224547,-0.11303 -0.09221,0 -0.167454,0.0379 -0.225501,0.11374 -0.05805,0.0761 -0.08719,0.19358 -0.08719,0.35305 z m 0.139983,-0.78429 h -0.09794 l -7.17e-4,-0.0306 c 0,-0.0675 0.01338,-0.11824 0.03989,-0.15236 0.02675,-0.0339 0.06044,-0.0509 0.101284,-0.0509 0.01744,0 0.03416,0.002 0.04969,0.007 0.016,0.005 0.04133,0.0168 0.07644,0.0355 0.04658,0.0249 0.08122,0.0372 0.103434,0.0372 0.03607,0 0.05685,-0.0273 0.0633,-0.082 h 0.0977 c -4.78e-4,0.0848 -0.01362,0.14453 -0.03894,0.18055 -0.02532,0.0358 -0.05781,0.0533 -0.09794,0.0533 -0.01672,0 -0.03344,-0.002 -0.04969,-0.006 -0.0117,-0.003 -0.03918,-0.0147 -0.08241,-0.0339 -0.05208,-0.0239 -0.08862,-0.0358 -0.11084,-0.0358 -0.01553,0 -0.02819,0.006 -0.03798,0.0173 -0.0096,0.0118 -0.01457,0.0317 -0.01529,0.0607 z"
       style="fill:#fcffff;fill-opacity:1;fill-rule:evenodd;stroke:none;stroke-width:0.26458332"
       inkscape:connector-curvature="0" />
    <path
       id="path4094"
       d="m 15.363533,167.11828 v -1.36126 h 0.338969 l 0.204242,0.93049 0.202091,-0.93049 h 0.341358 v 1.36126 h -0.210691 v -1.07361 l -0.224068,1.07361 h -0.216903 l -0.224307,-1.07361 v 1.07361 z"
       style="fill:#fcffff;fill-opacity:1;fill-rule:evenodd;stroke:none;stroke-width:0.26458332"
       inkscape:connector-curvature="0" />
    <path
       id="path4096"
       d="m 16.871576,165.75702 h 0.226218 v 0.73643 c 0,0.11444 0.0029,0.18885 0.0086,0.22368 0.0098,0.0599 0.03368,0.10615 0.07166,0.13908 0.03822,0.0327 0.08838,0.0493 0.150732,0.0493 0.05255,0 0.09531,-0.0118 0.128995,-0.0348 0.0332,-0.0232 0.0559,-0.0552 0.06808,-0.0964 0.01242,-0.0412 0.01839,-0.12961 0.01839,-0.26491 v -0.7523 h 0.226219 v 0.71487 c 0,0.18245 -0.0098,0.31443 -0.02938,0.3957 -0.01983,0.0815 -0.06426,0.14738 -0.133294,0.19785 -0.0688,0.0505 -0.160049,0.0758 -0.273039,0.0758 -0.117528,0 -0.209258,-0.0211 -0.275427,-0.0628 -0.06593,-0.0419 -0.113707,-0.10046 -0.143328,-0.17629 -0.02986,-0.0761 -0.04443,-0.21586 -0.04443,-0.41916 z"
       style="fill:#fcffff;fill-opacity:1;fill-rule:evenodd;stroke:none;stroke-width:0.26458332"
       inkscape:connector-curvature="0" />
    <path
       id="path4098"
       d="m 19.253916,166.13163 v 0.20709 h -0.147627 v 0.39831 c 0,0.0865 0.0022,0.13624 0.0067,0.14999 0.0086,0.0251 0.02651,0.0374 0.05327,0.0374 0.01983,0 0.04849,-0.008 0.086,-0.0251 l 0.01887,0.20283 c -0.04992,0.0261 -0.10654,0.0391 -0.169604,0.0391 -0.05518,0 -0.09914,-0.013 -0.132339,-0.0391 -0.03297,-0.0263 -0.05542,-0.0637 -0.06641,-0.11279 -0.0086,-0.0358 -0.01314,-0.109 -0.01314,-0.21965 v -0.43101 h -0.09961 v -0.20709 h 0.09961 v -0.19595 l 0.216663,-0.15212 v 0.34807 z"
       style="fill:#fcffff;fill-opacity:1;fill-rule:evenodd;stroke:none;stroke-width:0.26458332"
       inkscape:connector-curvature="0" />
    <path
       id="path4100"
       d="m 19.762967,166.43208 -0.195642,-0.04 c 0.02365,-0.10071 0.06259,-0.17297 0.11729,-0.21705 0.05446,-0.0441 0.132578,-0.0663 0.234818,-0.0663 0.09101,0 0.160527,0.0128 0.208303,0.0382 0.04801,0.0253 0.08217,0.0599 0.102956,0.10354 0.02031,0.0438 0.03058,0.12345 0.03058,0.23861 l -0.0019,0.30495 c 0,0.0855 0.0036,0.14927 0.01027,0.19098 0.0067,0.0419 0.01911,0.0863 0.03774,0.1334 H 20.09454 l -0.02819,-0.10758 c -0.03679,0.0434 -0.0762,0.0758 -0.118484,0.0979 -0.04228,0.0218 -0.08695,0.0327 -0.134489,0.0327 -0.07931,0 -0.144522,-0.0268 -0.194925,-0.0796 -0.05064,-0.0533 -0.07596,-0.12369 -0.07596,-0.2116 0,-0.0562 0.01027,-0.10473 0.03105,-0.14643 0.02078,-0.0415 0.04969,-0.0749 0.08719,-0.0995 0.0375,-0.0246 0.0977,-0.0469 0.180354,-0.0659 0.10009,-0.0232 0.170082,-0.0445 0.209258,-0.0644 0,-0.0545 -0.0038,-0.0903 -0.0117,-0.10733 -0.0076,-0.0168 -0.02222,-0.0308 -0.04276,-0.0419 -0.02078,-0.0107 -0.05016,-0.0161 -0.08815,-0.0161 -0.0387,0 -0.06904,0.009 -0.09125,0.0261 -0.02198,0.0173 -0.03989,0.0495 -0.05351,0.0976 z m 0.287372,0.21088 c -0.02747,0.0111 -0.07047,0.0244 -0.128756,0.0393 -0.06713,0.0175 -0.11084,0.0367 -0.131622,0.0578 -0.02054,0.0211 -0.03082,0.0486 -0.03082,0.0822 0,0.0377 0.01147,0.0697 0.03416,0.0957 0.02293,0.0256 0.0516,0.0386 0.08623,0.0386 0.03058,0 0.06091,-0.0104 0.09101,-0.0313 0.0301,-0.0211 0.05088,-0.0457 0.06259,-0.0742 0.01147,-0.0287 0.0172,-0.0806 0.0172,-0.15591 z"
       style="fill:#fcffff;fill-opacity:1;fill-rule:evenodd;stroke:none;stroke-width:0.26458332"
       inkscape:connector-curvature="0" />
    <path
       id="path4102"
       d="m 20.670707,167.11828 v -1.36126 h 0.216425 v 1.36126 z"
       style="fill:#fcffff;fill-opacity:1;fill-rule:evenodd;stroke:none;stroke-width:0.26458332"
       inkscape:connector-curvature="0" />
    <path
       id="path4104"
       d="m 21.840976,167.11828 v -0.14786 c -0.0301,0.0536 -0.06927,0.0953 -0.117768,0.12535 -0.04873,0.0301 -0.09937,0.0455 -0.152404,0.0455 -0.05375,0 -0.101524,-0.014 -0.144044,-0.0419 -0.04252,-0.028 -0.07429,-0.0675 -0.09507,-0.11918 -0.02078,-0.0512 -0.03129,-0.12606 -0.03129,-0.22392 v -0.62459 h 0.216663 v 0.45304 c 0,0.12961 0.0033,0.21183 0.01003,0.2469 0.0062,0.0348 0.02054,0.0621 0.043,0.081 0.02245,0.0194 0.04945,0.0289 0.08122,0.0289 0.03607,0 0.06928,-0.0126 0.10009,-0.0377 0.0301,-0.0251 0.0504,-0.0573 0.05996,-0.0967 0.0096,-0.0393 0.01433,-0.12582 0.01433,-0.25946 v -0.41608 h 0.216663 v 0.98665 z"
       style="fill:#fcffff;fill-opacity:1;fill-rule:evenodd;stroke:none;stroke-width:0.26458332"
       inkscape:connector-curvature="0" />
  </g>
</svg>
