<?xml version="1.0" encoding="UTF-8" standalone="no"?>
<!-- Created with Inkscape (http://www.inkscape.org/) -->

<svg
   xmlns:dc="http://purl.org/dc/elements/1.1/"
   xmlns:cc="http://creativecommons.org/ns#"
   xmlns:rdf="http://www.w3.org/1999/02/22-rdf-syntax-ns#"
   xmlns:svg="http://www.w3.org/2000/svg"
   xmlns="http://www.w3.org/2000/svg"
   xmlns:sodipodi="http://sodipodi.sourceforge.net/DTD/sodipodi-0.dtd"
   xmlns:inkscape="http://www.inkscape.org/namespaces/inkscape"
   width="7.3390007mm"
   height="2.3270366mm"
   viewBox="0 0 7.3390008 2.3270366"
   version="1.1"
   id="svg8"
   inkscape:version="0.92.2 (5c3e80d, 2017-08-06)">
  <defs
     id="defs2">
    <pattern
       y="0"
       x="0"
       height="6"
       width="6"
       patternUnits="userSpaceOnUse"
       id="EMFhbasepattern" />
    <pattern
       y="0"
       x="0"
       height="6"
       width="6"
       patternUnits="userSpaceOnUse"
       id="EMFhbasepattern-0" />
    <pattern
       y="0"
       x="0"
       height="6"
       width="6"
       patternUnits="userSpaceOnUse"
       id="EMFhbasepattern-2" />
    <pattern
       y="0"
       x="0"
       height="6"
       width="6"
       patternUnits="userSpaceOnUse"
       id="EMFhbasepattern-6" />
    <pattern
       y="0"
       x="0"
       height="6"
       width="6"
       patternUnits="userSpaceOnUse"
       id="EMFhbasepattern-03" />
    <pattern
       y="0"
       x="0"
       height="6"
       width="6"
       patternUnits="userSpaceOnUse"
       id="EMFhbasepattern-5" />
    <pattern
       y="0"
       x="0"
       height="6"
       width="6"
       patternUnits="userSpaceOnUse"
       id="EMFhbasepattern-69" />
    <pattern
       y="0"
       x="0"
       height="6"
       width="6"
       patternUnits="userSpaceOnUse"
       id="EMFhbasepattern-54" />
    <pattern
       y="0"
       x="0"
       height="6"
       width="6"
       patternUnits="userSpaceOnUse"
       id="EMFhbasepattern-1" />
    <pattern
       y="0"
       x="0"
       height="6"
       width="6"
       patternUnits="userSpaceOnUse"
       id="EMFhbasepattern-05" />
    <pattern
       y="0"
       x="0"
       height="6"
       width="6"
       patternUnits="userSpaceOnUse"
       id="EMFhbasepattern-58" />
    <pattern
       y="0"
       x="0"
       height="6"
       width="6"
       patternUnits="userSpaceOnUse"
       id="EMFhbasepattern-23" />
    <pattern
       y="0"
       x="0"
       height="6"
       width="6"
       patternUnits="userSpaceOnUse"
       id="EMFhbasepattern-62" />
    <pattern
       y="0"
       x="0"
       height="6"
       width="6"
       patternUnits="userSpaceOnUse"
       id="EMFhbasepattern-3" />
    <pattern
       y="0"
       x="0"
       height="6"
       width="6"
       patternUnits="userSpaceOnUse"
       id="EMFhbasepattern-57" />
    <pattern
       y="0"
       x="0"
       height="6"
       width="6"
       patternUnits="userSpaceOnUse"
       id="EMFhbasepattern-7" />
    <pattern
       y="0"
       x="0"
       height="6"
       width="6"
       patternUnits="userSpaceOnUse"
       id="EMFhbasepattern-626" />
    <pattern
       y="0"
       x="0"
       height="6"
       width="6"
       patternUnits="userSpaceOnUse"
       id="EMFhbasepattern-13" />
    <pattern
       y="0"
       x="0"
       height="6"
       width="6"
       patternUnits="userSpaceOnUse"
       id="EMFhbasepattern-38" />
    <pattern
       y="0"
       x="0"
       height="6"
       width="6"
       patternUnits="userSpaceOnUse"
       id="EMFhbasepattern-20" />
    <pattern
       y="0"
       x="0"
       height="6"
       width="6"
       patternUnits="userSpaceOnUse"
       id="EMFhbasepattern-8" />
    <pattern
       y="0"
       x="0"
       height="6"
       width="6"
       patternUnits="userSpaceOnUse"
       id="EMFhbasepattern-80" />
    <pattern
       y="0"
       x="0"
       height="6"
       width="6"
       patternUnits="userSpaceOnUse"
       id="EMFhbasepattern-66" />
    <pattern
       y="0"
       x="0"
       height="6"
       width="6"
       patternUnits="userSpaceOnUse"
       id="EMFhbasepattern-9" />
    <pattern
       y="0"
       x="0"
       height="6"
       width="6"
       patternUnits="userSpaceOnUse"
       id="EMFhbasepattern-31" />
    <pattern
       y="0"
       x="0"
       height="6"
       width="6"
       patternUnits="userSpaceOnUse"
       id="EMFhbasepattern-82" />
    <pattern
       y="0"
       x="0"
       height="6"
       width="6"
       patternUnits="userSpaceOnUse"
       id="EMFhbasepattern-63" />
    <pattern
       y="0"
       x="0"
       height="6"
       width="6"
       patternUnits="userSpaceOnUse"
       id="EMFhbasepattern-98" />
    <pattern
       y="0"
       x="0"
       height="6"
       width="6"
       patternUnits="userSpaceOnUse"
       id="EMFhbasepattern-4" />
    <pattern
       y="0"
       x="0"
       height="6"
       width="6"
       patternUnits="userSpaceOnUse"
       id="EMFhbasepattern-92" />
    <pattern
       y="0"
       x="0"
       height="6"
       width="6"
       patternUnits="userSpaceOnUse"
       id="EMFhbasepattern-820" />
    <pattern
       y="0"
       x="0"
       height="6"
       width="6"
       patternUnits="userSpaceOnUse"
       id="EMFhbasepattern-628" />
    <pattern
       y="0"
       x="0"
       height="6"
       width="6"
       patternUnits="userSpaceOnUse"
       id="EMFhbasepattern-33" />
    <pattern
       y="0"
       x="0"
       height="6"
       width="6"
       patternUnits="userSpaceOnUse"
       id="EMFhbasepattern-96" />
  </defs>
  <sodipodi:namedview
     id="base"
     pagecolor="#ffffff"
     bordercolor="#666666"
     borderopacity="1.0"
     inkscape:pageopacity="0.0"
     inkscape:pageshadow="2"
     inkscape:zoom="5.6"
     inkscape:cx="30.817304"
     inkscape:cy="13.819645"
     inkscape:document-units="mm"
     inkscape:current-layer="layer1"
     showgrid="false"
     fit-margin-top="0"
     fit-margin-left="0"
     fit-margin-right="0"
     fit-margin-bottom="0"
     inkscape:window-width="1920"
     inkscape:window-height="1027"
     inkscape:window-x="-8"
     inkscape:window-y="-8"
     inkscape:window-maximized="1" />
  <metadata
     id="metadata5">
    <rdf:RDF>
      <cc:Work
         rdf:about="">
        <dc:format>image/svg+xml</dc:format>
        <dc:type
           rdf:resource="http://purl.org/dc/dcmitype/StillImage" />
        <dc:title></dc:title>
      </cc:Work>
    </rdf:RDF>
  </metadata>
  <g
     inkscape:label="Layer 1"
     inkscape:groupmode="layer"
     id="layer1"
     transform="translate(-14.748266,-167.31096)">
    <path
       id="path4127"
       d="m 14.773954,167.33665 h 7.287624 v 2.27566 h -7.287624 z"
       style="fill:#fcffff;fill-opacity:1;fill-rule:evenodd;stroke:none;stroke-width:0.26458332"
       inkscape:connector-curvature="0" />
    <path
       id="path4129"
       d="m 14.773954,167.33665 h 7.287624 v 2.27566 h -7.287624 z"
       style="fill:none;stroke:#231f20;stroke-width:0.05137657px;stroke-linecap:butt;stroke-linejoin:miter;stroke-miterlimit:4;stroke-dasharray:none;stroke-opacity:1"
       inkscape:connector-curvature="0" />
    <path
       id="path4131"
       d="m 15.220883,168.92236 v -0.9105 h 0.317536 c 0.08135,0 0.139145,0.008 0.174109,0.0247 0.03473,0.0162 0.06327,0.0447 0.08563,0.0848 0.02236,0.0406 0.03354,0.0889 0.03354,0.14497 0,0.0713 -0.01713,0.12858 -0.05138,0.17207 -0.03401,0.0435 -0.08277,0.0708 -0.145567,0.082 0.03211,0.023 0.05899,0.0485 0.08016,0.0761 0.02117,0.0276 0.04995,0.077 0.08658,0.14807 l 0.09134,0.17777 h -0.180532 l -0.109413,-0.19797 c -0.03925,-0.0718 -0.06588,-0.1167 -0.08016,-0.13452 -0.01403,-0.0181 -0.02902,-0.0307 -0.04472,-0.0373 -0.0157,-0.007 -0.04091,-0.0105 -0.07564,-0.0105 h -0.0314 v 0.38026 z m 0.150086,-0.52524 h 0.11203 c 0.0685,0 0.112029,-0.003 0.130582,-0.009 0.01879,-0.006 0.03378,-0.0181 0.04543,-0.0364 0.01166,-0.0181 0.01736,-0.0425 0.01736,-0.0727 0,-0.0292 -0.0057,-0.0525 -0.01736,-0.0699 -0.01165,-0.0178 -0.02735,-0.0299 -0.04733,-0.0366 -0.0138,-0.005 -0.05471,-0.007 -0.122495,-0.007 h -0.118214 z"
       style="fill:#1d1d1b;fill-opacity:1;fill-rule:evenodd;stroke:none;stroke-width:0.26458332"
       inkscape:connector-curvature="0" />
    <path
       id="path4133"
       d="m 16.77764,168.92236 h -0.163168 l -0.06398,-0.20605 h -0.30041 l -0.0616,0.20605 h -0.160314 l 0.29042,-0.9105 h 0.160552 z m -0.276386,-0.36006 -0.103467,-0.33796 -0.101326,0.33796 z"
       style="fill:#1d1d1b;fill-opacity:1;fill-rule:evenodd;stroke:none;stroke-width:0.26458332"
       inkscape:connector-curvature="0" />
    <path
       id="path4135"
       d="m 16.990758,168.92236 v -0.9105 h 0.146043 l 0.306832,0.60795 v -0.60795 h 0.139858 v 0.9105 h -0.151037 l -0.301838,-0.59369 v 0.59369 z"
       style="fill:#1d1d1b;fill-opacity:1;fill-rule:evenodd;stroke:none;stroke-width:0.26458332"
       inkscape:connector-curvature="0" />
    <path
       id="path4137"
       d="m 17.874149,168.92236 v -0.9105 h 0.146281 l 0.306832,0.60795 v -0.60795 h 0.139859 v 0.9105 h -0.151276 l -0.301599,-0.59369 v 0.59369 z"
       style="fill:#1d1d1b;fill-opacity:1;fill-rule:evenodd;stroke:none;stroke-width:0.26458332"
       inkscape:connector-curvature="0" />
    <path
       id="path4139"
       d="m 19.428291,168.92236 h -0.163168 l -0.06398,-0.20605 H 18.90097 l -0.0616,0.20605 h -0.160552 l 0.290421,-0.9105 h 0.160789 z m -0.276387,-0.36006 -0.103467,-0.33796 -0.101326,0.33796 z"
       style="fill:#1d1d1b;fill-opacity:1;fill-rule:evenodd;stroke:none;stroke-width:0.26458332"
       inkscape:connector-curvature="0" />
    <path
       id="path4141"
       d="m 20.24651,168.26236 v 0.13856 h -0.098 v 0.26643 c 0,0.0577 0.0014,0.091 0.0045,0.10029 0.0057,0.0166 0.0176,0.025 0.03544,0.025 0.01308,0 0.03211,-0.005 0.05709,-0.0169 l 0.01237,0.13571 c -0.03306,0.0173 -0.07064,0.0261 -0.112505,0.0261 -0.03663,0 -0.06589,-0.009 -0.08777,-0.0261 -0.02188,-0.0176 -0.03663,-0.0425 -0.04424,-0.0753 -0.0057,-0.024 -0.0086,-0.073 -0.0086,-0.14688 v -0.28829 h -0.06636 v -0.13856 h 0.06636 v -0.13095 l 0.143664,-0.10172 v 0.23267 z"
       style="fill:#1d1d1b;fill-opacity:1;fill-rule:evenodd;stroke:none;stroke-width:0.26458332"
       inkscape:connector-curvature="0" />
    <path
       id="path4143"
       d="m 20.790721,168.7125 0.142475,0.0292 c -0.01927,0.0663 -0.04876,0.1155 -0.0892,0.14759 -0.0402,0.0321 -0.0892,0.0482 -0.146994,0.0482 -0.08016,0 -0.141762,-0.0268 -0.185527,-0.0803 -0.05161,-0.062 -0.07707,-0.14925 -0.07707,-0.26119 0,-0.11028 0.02569,-0.19869 0.07754,-0.265 0.04377,-0.0561 0.10085,-0.0839 0.170303,-0.0839 0.0773,0 0.137956,0.0285 0.181959,0.0858 0.05066,0.0656 0.07588,0.16209 0.07588,0.28972 l -7.14e-4,0.02 h -0.358684 c 7.13e-4,0.052 0.01261,0.0924 0.03544,0.12121 0.0226,0.0285 0.04995,0.0428 0.08206,0.0428 0.04614,0 0.07683,-0.0314 0.09252,-0.0941 z m 0.0076,-0.17682 c -0.0014,-0.0513 -0.01237,-0.0903 -0.0333,-0.11598 -0.02069,-0.0262 -0.04519,-0.039 -0.07397,-0.039 -0.03044,0 -0.0559,0.0135 -0.07659,0.0404 -0.02117,0.0273 -0.03164,0.0656 -0.03116,0.11456 z"
       style="fill:#1d1d1b;fill-opacity:1;fill-rule:evenodd;stroke:none;stroke-width:0.26458332"
       inkscape:connector-curvature="0" />
    <path
       id="path4145"
       d="m 21.50143,168.7125 0.142475,0.0292 c -0.01903,0.0663 -0.04876,0.1155 -0.0892,0.14759 -0.0402,0.0321 -0.0892,0.0482 -0.146756,0.0482 -0.08016,0 -0.142,-0.0268 -0.185527,-0.0803 -0.05161,-0.062 -0.0773,-0.14925 -0.0773,-0.26119 0,-0.11028 0.02593,-0.19869 0.07754,-0.265 0.044,-0.0561 0.10085,-0.0839 0.170304,-0.0839 0.07754,0 0.137955,0.0285 0.181958,0.0858 0.05066,0.0656 0.07588,0.16209 0.07588,0.28972 l -4.76e-4,0.02 h -0.358922 c 9.51e-4,0.052 0.01261,0.0924 0.03544,0.12121 0.02283,0.0285 0.04995,0.0428 0.08206,0.0428 0.04614,0 0.07707,-0.0314 0.09253,-0.0941 z m 0.0076,-0.17682 c -0.0014,-0.0513 -0.01237,-0.0903 -0.03306,-0.11598 -0.02093,-0.0262 -0.04543,-0.039 -0.07421,-0.039 -0.03045,0 -0.05589,0.0135 -0.07659,0.0404 -0.02117,0.0273 -0.03163,0.0656 -0.03116,0.11456 z"
       style="fill:#1d1d1b;fill-opacity:1;fill-rule:evenodd;stroke:none;stroke-width:0.26458332"
       inkscape:connector-curvature="0" />
    <path
       id="path4147"
       d="m 15.191389,167.46499 h 6.456084 c 0.172445,0 0.285901,0.14521 0.285901,0.28948 v 1.44216 c 0,0.16613 -0.140334,0.28758 -0.286614,0.28758 h -6.453944 c -0.159125,0 -0.290658,-0.1281 -0.290658,-0.28758 v -1.44216 c 0,-0.15829 0.126063,-0.28948 0.289231,-0.28948 z m -0.0017,-0.12834 h 6.459414 l 0.02117,7.1e-4 0.02236,0.002 0.02212,0.003 0.02164,0.004 0.02141,0.005 0.02069,0.006 0.01998,0.007 0.0195,0.008 0.01903,0.009 0.01808,0.0102 0.0176,0.0109 0.01689,0.0117 0.01617,0.0124 0.01546,0.0133 0.01451,0.0138 0.0138,0.0143 0.01332,0.015 0.01213,0.0154 0.01165,0.0159 0.0107,0.0166 0.01,0.0169 0.0093,0.0171 0.0083,0.0176 0.0074,0.0181 0.0069,0.0183 0.0057,0.0185 0.0052,0.0188 0.004,0.019 0.0033,0.0195 0.0024,0.0195 0.0014,0.0197 4.75e-4,0.0181 v 1.4455 l -7.13e-4,0.0204 -0.0017,0.0219 -0.0029,0.0216 -0.004,0.0212 -0.005,0.0209 -0.0059,0.0202 -0.0071,0.02 -0.0078,0.0192 -0.009,0.0185 -0.0098,0.0181 -0.01046,0.0176 -0.01118,0.0166 -0.01213,0.0164 -0.01284,0.0154 -0.01332,0.0147 -0.01403,0.014 -0.01475,0.0135 -0.01499,0.0126 -0.01594,0.0119 -0.01617,0.0112 -0.01665,0.0105 -0.01713,0.01 -0.0176,0.009 -0.01808,0.008 -0.01831,0.007 -0.01879,0.006 -0.01927,0.005 -0.01927,0.004 -0.01974,0.004 -0.01998,0.003 -0.01998,0.001 -0.01855,4.7e-4 h -6.457511 l -0.0195,-4.7e-4 -0.02117,-0.001 -0.02069,-0.003 -0.02069,-0.004 -0.01998,-0.005 -0.01998,-0.005 -0.01927,-0.007 -0.01903,-0.007 -0.01855,-0.008 -0.01808,-0.009 -0.01736,-0.01 -0.01713,-0.0107 -0.01641,-0.0114 -0.0157,-0.0123 -0.01522,-0.0131 -0.01475,-0.0135 -0.0138,-0.0145 -0.01332,-0.015 -0.01237,-0.0157 -0.01189,-0.0162 -0.01094,-0.0169 -0.01023,-0.0173 -0.0093,-0.0181 -0.0086,-0.0185 -0.0076,-0.019 -0.0067,-0.0195 -0.0057,-0.02 -0.0048,-0.0202 -0.0038,-0.0207 -0.0026,-0.0209 -0.0017,-0.0211 -4.76e-4,-0.0197 v -1.4455 l 4.76e-4,-0.0195 0.0014,-0.0209 0.0026,-0.0207 0.0036,-0.0204 0.0048,-0.0202 0.0055,-0.0195 0.0064,-0.0195 0.0074,-0.0188 0.0081,-0.0185 0.009,-0.0181 0.01,-0.0176 0.0107,-0.0169 0.01142,-0.0164 0.01237,-0.0157 0.01284,-0.0152 0.0138,-0.0147 0.01427,-0.0138 0.01522,-0.0133 0.0157,-0.0124 0.01641,-0.0119 0.01689,-0.0109 0.0176,-0.0102 0.01808,-0.009 0.01855,-0.009 0.01927,-0.008 0.0195,-0.007 0.02022,-0.006 0.02022,-0.005 0.02093,-0.004 0.02117,-0.003 0.02141,-0.001 z"
       style="fill:#1d1d1b;fill-opacity:1;fill-rule:evenodd;stroke:none;stroke-width:0.26458332"
       inkscape:connector-curvature="0" />
  </g>
</svg>
