<?xml version="1.0" encoding="UTF-8" standalone="no"?>
<!-- Created with Inkscape (http://www.inkscape.org/) -->

<svg
   xmlns:dc="http://purl.org/dc/elements/1.1/"
   xmlns:cc="http://creativecommons.org/ns#"
   xmlns:rdf="http://www.w3.org/1999/02/22-rdf-syntax-ns#"
   xmlns:svg="http://www.w3.org/2000/svg"
   xmlns="http://www.w3.org/2000/svg"
   xmlns:sodipodi="http://sodipodi.sourceforge.net/DTD/sodipodi-0.dtd"
   xmlns:inkscape="http://www.inkscape.org/namespaces/inkscape"
   width="7.3390007mm"
   height="2.3270366mm"
   viewBox="0 0 7.3390008 2.3270366"
   version="1.1"
   id="svg8"
   inkscape:version="0.92.2 (5c3e80d, 2017-08-06)"
   sodipodi:docname="644_RANNA_tee.svg">
  <defs
     id="defs2">
    <pattern
       y="0"
       x="0"
       height="6"
       width="6"
       patternUnits="userSpaceOnUse"
       id="EMFhbasepattern" />
    <pattern
       y="0"
       x="0"
       height="6"
       width="6"
       patternUnits="userSpaceOnUse"
       id="EMFhbasepattern-0" />
    <pattern
       y="0"
       x="0"
       height="6"
       width="6"
       patternUnits="userSpaceOnUse"
       id="EMFhbasepattern-2" />
    <pattern
       y="0"
       x="0"
       height="6"
       width="6"
       patternUnits="userSpaceOnUse"
       id="EMFhbasepattern-6" />
    <pattern
       y="0"
       x="0"
       height="6"
       width="6"
       patternUnits="userSpaceOnUse"
       id="EMFhbasepattern-03" />
    <pattern
       y="0"
       x="0"
       height="6"
       width="6"
       patternUnits="userSpaceOnUse"
       id="EMFhbasepattern-5" />
    <pattern
       y="0"
       x="0"
       height="6"
       width="6"
       patternUnits="userSpaceOnUse"
       id="EMFhbasepattern-69" />
    <pattern
       y="0"
       x="0"
       height="6"
       width="6"
       patternUnits="userSpaceOnUse"
       id="EMFhbasepattern-54" />
    <pattern
       y="0"
       x="0"
       height="6"
       width="6"
       patternUnits="userSpaceOnUse"
       id="EMFhbasepattern-1" />
    <pattern
       y="0"
       x="0"
       height="6"
       width="6"
       patternUnits="userSpaceOnUse"
       id="EMFhbasepattern-05" />
    <pattern
       y="0"
       x="0"
       height="6"
       width="6"
       patternUnits="userSpaceOnUse"
       id="EMFhbasepattern-58" />
    <pattern
       y="0"
       x="0"
       height="6"
       width="6"
       patternUnits="userSpaceOnUse"
       id="EMFhbasepattern-23" />
    <pattern
       y="0"
       x="0"
       height="6"
       width="6"
       patternUnits="userSpaceOnUse"
       id="EMFhbasepattern-62" />
    <pattern
       y="0"
       x="0"
       height="6"
       width="6"
       patternUnits="userSpaceOnUse"
       id="EMFhbasepattern-3" />
    <pattern
       y="0"
       x="0"
       height="6"
       width="6"
       patternUnits="userSpaceOnUse"
       id="EMFhbasepattern-57" />
    <pattern
       y="0"
       x="0"
       height="6"
       width="6"
       patternUnits="userSpaceOnUse"
       id="EMFhbasepattern-7" />
    <pattern
       y="0"
       x="0"
       height="6"
       width="6"
       patternUnits="userSpaceOnUse"
       id="EMFhbasepattern-626" />
    <pattern
       y="0"
       x="0"
       height="6"
       width="6"
       patternUnits="userSpaceOnUse"
       id="EMFhbasepattern-13" />
    <pattern
       y="0"
       x="0"
       height="6"
       width="6"
       patternUnits="userSpaceOnUse"
       id="EMFhbasepattern-38" />
    <pattern
       y="0"
       x="0"
       height="6"
       width="6"
       patternUnits="userSpaceOnUse"
       id="EMFhbasepattern-20" />
    <pattern
       y="0"
       x="0"
       height="6"
       width="6"
       patternUnits="userSpaceOnUse"
       id="EMFhbasepattern-8" />
    <pattern
       y="0"
       x="0"
       height="6"
       width="6"
       patternUnits="userSpaceOnUse"
       id="EMFhbasepattern-80" />
    <pattern
       y="0"
       x="0"
       height="6"
       width="6"
       patternUnits="userSpaceOnUse"
       id="EMFhbasepattern-66" />
    <pattern
       y="0"
       x="0"
       height="6"
       width="6"
       patternUnits="userSpaceOnUse"
       id="EMFhbasepattern-9" />
    <pattern
       y="0"
       x="0"
       height="6"
       width="6"
       patternUnits="userSpaceOnUse"
       id="EMFhbasepattern-31" />
    <pattern
       y="0"
       x="0"
       height="6"
       width="6"
       patternUnits="userSpaceOnUse"
       id="EMFhbasepattern-82" />
    <pattern
       y="0"
       x="0"
       height="6"
       width="6"
       patternUnits="userSpaceOnUse"
       id="EMFhbasepattern-63" />
    <pattern
       y="0"
       x="0"
       height="6"
       width="6"
       patternUnits="userSpaceOnUse"
       id="EMFhbasepattern-98" />
    <pattern
       y="0"
       x="0"
       height="6"
       width="6"
       patternUnits="userSpaceOnUse"
       id="EMFhbasepattern-4" />
    <pattern
       y="0"
       x="0"
       height="6"
       width="6"
       patternUnits="userSpaceOnUse"
       id="EMFhbasepattern-92" />
    <pattern
       y="0"
       x="0"
       height="6"
       width="6"
       patternUnits="userSpaceOnUse"
       id="EMFhbasepattern-820" />
    <pattern
       y="0"
       x="0"
       height="6"
       width="6"
       patternUnits="userSpaceOnUse"
       id="EMFhbasepattern-628" />
    <pattern
       y="0"
       x="0"
       height="6"
       width="6"
       patternUnits="userSpaceOnUse"
       id="EMFhbasepattern-33" />
    <pattern
       y="0"
       x="0"
       height="6"
       width="6"
       patternUnits="userSpaceOnUse"
       id="EMFhbasepattern-96" />
  </defs>
  <sodipodi:namedview
     id="base"
     pagecolor="#ffffff"
     bordercolor="#666666"
     borderopacity="1.0"
     inkscape:pageopacity="0.0"
     inkscape:pageshadow="2"
     inkscape:zoom="22.4"
     inkscape:cx="18.677313"
     inkscape:cy="7.1313228"
     inkscape:document-units="mm"
     inkscape:current-layer="layer1"
     showgrid="false"
     fit-margin-top="0"
     fit-margin-left="0"
     fit-margin-right="0"
     fit-margin-bottom="0"
     inkscape:window-width="1920"
     inkscape:window-height="1027"
     inkscape:window-x="-8"
     inkscape:window-y="-8"
     inkscape:window-maximized="1" />
  <metadata
     id="metadata5">
    <rdf:RDF>
      <cc:Work
         rdf:about="">
        <dc:format>image/svg+xml</dc:format>
        <dc:type
           rdf:resource="http://purl.org/dc/dcmitype/StillImage" />
        <dc:title></dc:title>
      </cc:Work>
    </rdf:RDF>
  </metadata>
  <g
     inkscape:label="Layer 1"
     inkscape:groupmode="layer"
     id="layer1"
     transform="translate(-14.748266,-167.31096)">
    <path
       id="path4127"
       d="m 14.773954,167.33665 h 7.287624 v 2.27566 h -7.287624 z"
       style="fill:#fcffff;fill-opacity:1;fill-rule:evenodd;stroke:none;stroke-width:0.26458332"
       inkscape:connector-curvature="0" />
    <path
       id="path4129"
       d="m 14.773954,167.33665 h 7.287624 v 2.27566 h -7.287624 z"
       style="fill:none;stroke:#231f20;stroke-width:0.05137657px;stroke-linecap:butt;stroke-linejoin:miter;stroke-miterlimit:4;stroke-dasharray:none;stroke-opacity:1"
       inkscape:connector-curvature="0" />
    <path
       id="path4147"
       d="m 15.191389,167.46499 h 6.456084 c 0.172445,0 0.285901,0.14521 0.285901,0.28948 v 1.44216 c 0,0.16613 -0.140334,0.28758 -0.286614,0.28758 h -6.453944 c -0.159125,0 -0.290658,-0.1281 -0.290658,-0.28758 v -1.44216 c 0,-0.15829 0.126063,-0.28948 0.289231,-0.28948 z m -0.0017,-0.12834 h 6.459414 l 0.02117,7.1e-4 0.02236,0.002 0.02212,0.003 0.02164,0.004 0.02141,0.005 0.02069,0.006 0.01998,0.007 0.0195,0.008 0.01903,0.009 0.01808,0.0102 0.0176,0.0109 0.01689,0.0117 0.01617,0.0124 0.01546,0.0133 0.01451,0.0138 0.0138,0.0143 0.01332,0.015 0.01213,0.0154 0.01165,0.0159 0.0107,0.0166 0.01,0.0169 0.0093,0.0171 0.0083,0.0176 0.0074,0.0181 0.0069,0.0183 0.0057,0.0185 0.0052,0.0188 0.004,0.019 0.0033,0.0195 0.0024,0.0195 0.0014,0.0197 4.75e-4,0.0181 v 1.4455 l -7.13e-4,0.0204 -0.0017,0.0219 -0.0029,0.0216 -0.004,0.0212 -0.005,0.0209 -0.0059,0.0202 -0.0071,0.02 -0.0078,0.0192 -0.009,0.0185 -0.0098,0.0181 -0.01046,0.0176 -0.01118,0.0166 -0.01213,0.0164 -0.01284,0.0154 -0.01332,0.0147 -0.01403,0.014 -0.01475,0.0135 -0.01499,0.0126 -0.01594,0.0119 -0.01617,0.0112 -0.01665,0.0105 -0.01713,0.01 -0.0176,0.009 -0.01808,0.008 -0.01831,0.007 -0.01879,0.006 -0.01927,0.005 -0.01927,0.004 -0.01974,0.004 -0.01998,0.003 -0.01998,0.001 -0.01855,4.7e-4 h -6.457511 l -0.0195,-4.7e-4 -0.02117,-0.001 -0.02069,-0.003 -0.02069,-0.004 -0.01998,-0.005 -0.01998,-0.005 -0.01927,-0.007 -0.01903,-0.007 -0.01855,-0.008 -0.01808,-0.009 -0.01736,-0.01 -0.01713,-0.0107 -0.01641,-0.0114 -0.0157,-0.0123 -0.01522,-0.0131 -0.01475,-0.0135 -0.0138,-0.0145 -0.01332,-0.015 -0.01237,-0.0157 -0.01189,-0.0162 -0.01094,-0.0169 -0.01023,-0.0173 -0.0093,-0.0181 -0.0086,-0.0185 -0.0076,-0.019 -0.0067,-0.0195 -0.0057,-0.02 -0.0048,-0.0202 -0.0038,-0.0207 -0.0026,-0.0209 -0.0017,-0.0211 -4.76e-4,-0.0197 v -1.4455 l 4.76e-4,-0.0195 0.0014,-0.0209 0.0026,-0.0207 0.0036,-0.0204 0.0048,-0.0202 0.0055,-0.0195 0.0064,-0.0195 0.0074,-0.0188 0.0081,-0.0185 0.009,-0.0181 0.01,-0.0176 0.0107,-0.0169 0.01142,-0.0164 0.01237,-0.0157 0.01284,-0.0152 0.0138,-0.0147 0.01427,-0.0138 0.01522,-0.0133 0.0157,-0.0124 0.01641,-0.0119 0.01689,-0.0109 0.0176,-0.0102 0.01808,-0.009 0.01855,-0.009 0.01927,-0.008 0.0195,-0.007 0.02022,-0.006 0.02022,-0.005 0.02093,-0.004 0.02117,-0.003 0.02141,-0.001 z"
       style="fill:#1d1d1b;fill-opacity:1;fill-rule:evenodd;stroke:none;stroke-width:0.26458332"
       inkscape:connector-curvature="0" />
    <text
       xml:space="preserve"
       style="font-style:normal;font-variant:normal;font-weight:normal;font-stretch:normal;font-size:5.07912731px;line-height:1.25;font-family:'Helvetica LT Std';-inkscape-font-specification:'Helvetica LT Std';letter-spacing:0px;word-spacing:0px;fill:#1d1d1b;fill-opacity:1;stroke:none;stroke-width:0.23808408"
       x="15.147975"
       y="168.92659"
       id="text862"><tspan
         sodipodi:role="line"
         id="tspan860"
         x="15.147975"
         y="168.92659"
         style="font-style:normal;font-variant:normal;font-weight:bold;font-stretch:condensed;font-size:1.26999998px;font-family:Arial;-inkscape-font-specification:'Arial Bold Condensed';letter-spacing:0.14285046px;word-spacing:-0.07142523px;fill:#1d1d1b;fill-opacity:1;stroke-width:0.23808408">RANNA tee</tspan></text>
  </g>
</svg>
