<?xml version="1.0" encoding="UTF-8" standalone="no"?>
<!-- Created with Inkscape (http://www.inkscape.org/) -->

<svg
   xmlns:dc="http://purl.org/dc/elements/1.1/"
   xmlns:cc="http://creativecommons.org/ns#"
   xmlns:rdf="http://www.w3.org/1999/02/22-rdf-syntax-ns#"
   xmlns:svg="http://www.w3.org/2000/svg"
   xmlns="http://www.w3.org/2000/svg"
   xmlns:sodipodi="http://sodipodi.sourceforge.net/DTD/sodipodi-0.dtd"
   xmlns:inkscape="http://www.inkscape.org/namespaces/inkscape"
   width="5.9070005mm"
   height="3.2217128mm"
   viewBox="0 0 5.9070006 3.2217128"
   version="1.1"
   id="svg8"
   inkscape:version="0.92.2 (5c3e80d, 2017-08-06)">
  <defs
     id="defs2">
    <pattern
       y="0"
       x="0"
       height="6"
       width="6"
       patternUnits="userSpaceOnUse"
       id="EMFhbasepattern" />
    <pattern
       y="0"
       x="0"
       height="6"
       width="6"
       patternUnits="userSpaceOnUse"
       id="EMFhbasepattern-0" />
    <pattern
       y="0"
       x="0"
       height="6"
       width="6"
       patternUnits="userSpaceOnUse"
       id="EMFhbasepattern-2" />
    <pattern
       y="0"
       x="0"
       height="6"
       width="6"
       patternUnits="userSpaceOnUse"
       id="EMFhbasepattern-6" />
    <pattern
       y="0"
       x="0"
       height="6"
       width="6"
       patternUnits="userSpaceOnUse"
       id="EMFhbasepattern-03" />
    <pattern
       y="0"
       x="0"
       height="6"
       width="6"
       patternUnits="userSpaceOnUse"
       id="EMFhbasepattern-5" />
    <pattern
       y="0"
       x="0"
       height="6"
       width="6"
       patternUnits="userSpaceOnUse"
       id="EMFhbasepattern-69" />
    <pattern
       y="0"
       x="0"
       height="6"
       width="6"
       patternUnits="userSpaceOnUse"
       id="EMFhbasepattern-54" />
    <pattern
       y="0"
       x="0"
       height="6"
       width="6"
       patternUnits="userSpaceOnUse"
       id="EMFhbasepattern-1" />
    <pattern
       y="0"
       x="0"
       height="6"
       width="6"
       patternUnits="userSpaceOnUse"
       id="EMFhbasepattern-05" />
    <pattern
       y="0"
       x="0"
       height="6"
       width="6"
       patternUnits="userSpaceOnUse"
       id="EMFhbasepattern-58" />
    <pattern
       y="0"
       x="0"
       height="6"
       width="6"
       patternUnits="userSpaceOnUse"
       id="EMFhbasepattern-23" />
    <pattern
       y="0"
       x="0"
       height="6"
       width="6"
       patternUnits="userSpaceOnUse"
       id="EMFhbasepattern-62" />
    <pattern
       y="0"
       x="0"
       height="6"
       width="6"
       patternUnits="userSpaceOnUse"
       id="EMFhbasepattern-3" />
    <pattern
       y="0"
       x="0"
       height="6"
       width="6"
       patternUnits="userSpaceOnUse"
       id="EMFhbasepattern-57" />
    <pattern
       y="0"
       x="0"
       height="6"
       width="6"
       patternUnits="userSpaceOnUse"
       id="EMFhbasepattern-7" />
    <pattern
       y="0"
       x="0"
       height="6"
       width="6"
       patternUnits="userSpaceOnUse"
       id="EMFhbasepattern-626" />
    <pattern
       y="0"
       x="0"
       height="6"
       width="6"
       patternUnits="userSpaceOnUse"
       id="EMFhbasepattern-13" />
    <pattern
       y="0"
       x="0"
       height="6"
       width="6"
       patternUnits="userSpaceOnUse"
       id="EMFhbasepattern-38" />
    <pattern
       y="0"
       x="0"
       height="6"
       width="6"
       patternUnits="userSpaceOnUse"
       id="EMFhbasepattern-20" />
    <pattern
       y="0"
       x="0"
       height="6"
       width="6"
       patternUnits="userSpaceOnUse"
       id="EMFhbasepattern-8" />
    <pattern
       y="0"
       x="0"
       height="6"
       width="6"
       patternUnits="userSpaceOnUse"
       id="EMFhbasepattern-80" />
    <pattern
       y="0"
       x="0"
       height="6"
       width="6"
       patternUnits="userSpaceOnUse"
       id="EMFhbasepattern-66" />
    <pattern
       y="0"
       x="0"
       height="6"
       width="6"
       patternUnits="userSpaceOnUse"
       id="EMFhbasepattern-9" />
    <pattern
       y="0"
       x="0"
       height="6"
       width="6"
       patternUnits="userSpaceOnUse"
       id="EMFhbasepattern-31" />
    <pattern
       y="0"
       x="0"
       height="6"
       width="6"
       patternUnits="userSpaceOnUse"
       id="EMFhbasepattern-82" />
    <pattern
       y="0"
       x="0"
       height="6"
       width="6"
       patternUnits="userSpaceOnUse"
       id="EMFhbasepattern-63" />
    <pattern
       y="0"
       x="0"
       height="6"
       width="6"
       patternUnits="userSpaceOnUse"
       id="EMFhbasepattern-98" />
    <pattern
       y="0"
       x="0"
       height="6"
       width="6"
       patternUnits="userSpaceOnUse"
       id="EMFhbasepattern-4" />
    <pattern
       y="0"
       x="0"
       height="6"
       width="6"
       patternUnits="userSpaceOnUse"
       id="EMFhbasepattern-92" />
    <pattern
       y="0"
       x="0"
       height="6"
       width="6"
       patternUnits="userSpaceOnUse"
       id="EMFhbasepattern-820" />
    <pattern
       y="0"
       x="0"
       height="6"
       width="6"
       patternUnits="userSpaceOnUse"
       id="EMFhbasepattern-628" />
    <pattern
       y="0"
       x="0"
       height="6"
       width="6"
       patternUnits="userSpaceOnUse"
       id="EMFhbasepattern-33" />
    <pattern
       y="0"
       x="0"
       height="6"
       width="6"
       patternUnits="userSpaceOnUse"
       id="EMFhbasepattern-96" />
    <pattern
       y="0"
       x="0"
       height="6"
       width="6"
       patternUnits="userSpaceOnUse"
       id="EMFhbasepattern-45" />
  </defs>
  <sodipodi:namedview
     id="base"
     pagecolor="#ffffff"
     bordercolor="#666666"
     borderopacity="1.0"
     inkscape:pageopacity="0.0"
     inkscape:pageshadow="2"
     inkscape:zoom="5.6"
     inkscape:cx="55.372997"
     inkscape:cy="14.907921"
     inkscape:document-units="mm"
     inkscape:current-layer="layer1"
     showgrid="false"
     fit-margin-top="0"
     fit-margin-left="0"
     fit-margin-right="0"
     fit-margin-bottom="0"
     inkscape:window-width="1920"
     inkscape:window-height="1027"
     inkscape:window-x="-8"
     inkscape:window-y="-8"
     inkscape:window-maximized="1"
     showguides="false" />
  <metadata
     id="metadata5">
    <rdf:RDF>
      <cc:Work
         rdf:about="">
        <dc:format>image/svg+xml</dc:format>
        <dc:type
           rdf:resource="http://purl.org/dc/dcmitype/StillImage" />
        <dc:title></dc:title>
      </cc:Work>
    </rdf:RDF>
  </metadata>
  <g
     inkscape:label="Layer 1"
     inkscape:groupmode="layer"
     id="layer1"
     transform="translate(-8.2512387,-166.70422)">
    <path
       id="path4170"
       d="m 8.2766452,166.72963 h 5.8561878 v 3.1709 H 8.2766452 Z"
       style="fill:#fcffff;fill-opacity:1;fill-rule:evenodd;stroke:none;stroke-width:0.26458332"
       inkscape:connector-curvature="0" />
    <path
       id="path4172"
       d="m 8.2766452,166.72963 h 5.8561878 v 3.1709 H 8.2766452 Z"
       style="fill:none;stroke:#231f20;stroke-width:0.0508129px;stroke-linecap:butt;stroke-linejoin:miter;stroke-miterlimit:4;stroke-dasharray:none;stroke-opacity:1"
       inkscape:connector-curvature="0" />
    <path
       id="path4174"
       d="m 8.8000652,166.94088 h 4.8067598 v 0 c 0.172905,0 0.313111,0.14194 0.313111,0.317 v 0 2.11417 0 c 0,0.17505 -0.140206,0.31699 -0.313111,0.31699 v 0 H 8.8000652 v 0 c -0.172905,0 -0.313111,-0.14194 -0.313111,-0.31699 v 0 -2.11417 0 c 0,-0.17506 0.140206,-0.317 0.313111,-0.317 z m 0,-0.21125 h 4.8067598 v 0 c 0.289116,0 0.52342,0.23656 0.52342,0.52825 v 0 2.11417 0 c 0,0.29192 -0.234304,0.52848 -0.52342,0.52848 v 0 H 8.8000652 v 0 c -0.289116,0 -0.52342,-0.23656 -0.52342,-0.52848 v 0 -2.11417 0 c 0,-0.29169 0.234304,-0.52825 0.52342,-0.52825 z"
       style="fill:#231f20;fill-opacity:1;fill-rule:evenodd;stroke:none;stroke-width:0.26458332"
       inkscape:connector-curvature="0" />
    <path
       id="path4176"
       d="M 10.084738,169.20953 H 9.8003272 v -1.30867 c -0.105155,0.11946 -0.227011,0.20723 -0.364865,0.26329 v -0.31652 c 0.07881,-0.0319 0.160202,-0.0889 0.24442,-0.17127 0.08492,-0.0823 0.143263,-0.17719 0.176198,-0.28435 h 0.2286578 z"
       style="fill:#231f20;fill-opacity:1;fill-rule:evenodd;stroke:none;stroke-width:0.26458332"
       inkscape:connector-curvature="0" />
    <path
       id="path4178"
       d="m 10.755892,168.72859 0.274295,-0.0405 c 0.0075,0.0852 0.03082,0.15046 0.06963,0.19564 0.03952,0.0452 0.08563,0.0677 0.139029,0.0677 0.05787,0 0.106331,-0.0267 0.146793,-0.0802 0.03976,-0.0537 0.05999,-0.12751 0.05999,-0.2219 0,-0.0882 -0.01929,-0.15731 -0.05787,-0.2077 -0.03858,-0.0502 -0.08516,-0.075 -0.140206,-0.075 -0.03599,0 -0.07928,0.009 -0.12915,0.026 l 0.03058,-0.28435 c 0.07387,0.002 0.132208,-0.018 0.175257,-0.0589 0.04234,-0.0407 0.06352,-0.0984 0.06352,-0.17269 0,-0.062 -0.01529,-0.11095 -0.04587,-0.14596 -0.03058,-0.035 -0.06963,-0.0528 -0.117388,-0.0528 -0.04775,0 -0.08939,0.0204 -0.124209,0.0613 -0.03529,0.0409 -0.05575,0.10173 -0.06257,0.18192 l -0.261592,-0.0532 c 0.02705,-0.16654 0.07998,-0.28742 0.15879,-0.36288 0.07857,-0.0755 0.17808,-0.11308 0.298055,-0.11308 0.13409,0 0.241126,0.0483 0.320404,0.1443 0.07928,0.0963 0.118799,0.2025 0.118799,0.31889 0,0.079 -0.01764,0.15022 -0.0534,0.21362 -0.03552,0.0632 -0.08892,0.11852 -0.159731,0.16606 0.0821,0.0225 0.14938,0.0714 0.200899,0.14738 0.05152,0.0755 0.07763,0.17033 0.07763,0.28435 0,0.16536 -0.04917,0.30233 -0.146793,0.41092 -0.09786,0.10834 -0.214308,0.16228 -0.349574,0.16228 -0.12962,0 -0.239009,-0.0454 -0.328873,-0.13697 -0.08939,-0.0916 -0.141852,-0.21599 -0.156437,-0.37425 z"
       style="fill:#231f20;fill-opacity:1;fill-rule:evenodd;stroke:none;stroke-width:0.26458332"
       inkscape:connector-curvature="0" />
    <path
       id="path4180"
       d="m 12.16195,168.72859 0.274296,-0.0405 c 0.0078,0.0852 0.03082,0.15046 0.06963,0.19564 0.03952,0.0452 0.08563,0.0677 0.139029,0.0677 0.05787,0 0.106566,-0.0267 0.146793,-0.0802 0.03976,-0.0537 0.05999,-0.12751 0.05999,-0.2219 0,-0.0882 -0.01929,-0.15731 -0.05787,-0.2077 -0.03858,-0.0502 -0.08516,-0.075 -0.140206,-0.075 -0.03599,0 -0.07928,0.009 -0.129149,0.026 l 0.03058,-0.28435 c 0.07387,0.002 0.132207,-0.018 0.175493,-0.0589 0.04234,-0.0407 0.06328,-0.0984 0.06328,-0.17269 0,-0.062 -0.01506,-0.11095 -0.04587,-0.14596 -0.03058,-0.035 -0.0694,-0.0528 -0.117387,-0.0528 -0.04776,0 -0.08939,0.0204 -0.12421,0.0613 -0.03529,0.0409 -0.05575,0.10173 -0.06234,0.18192 l -0.261827,-0.0532 c 0.02729,-0.16654 0.07998,-0.28742 0.15879,-0.36288 0.07857,-0.0755 0.17808,-0.11308 0.298055,-0.11308 0.13409,0 0.241126,0.0483 0.320404,0.1443 0.07928,0.0963 0.118799,0.2025 0.118799,0.31889 0,0.079 -0.01764,0.15022 -0.0534,0.21362 -0.03552,0.0632 -0.08892,0.11852 -0.159731,0.16606 0.0821,0.0225 0.14938,0.0714 0.200899,0.14738 0.05152,0.0755 0.07763,0.17033 0.07763,0.28435 0,0.16536 -0.04917,0.30233 -0.146793,0.41092 -0.09786,0.10834 -0.214308,0.16228 -0.349574,0.16228 -0.12962,0 -0.239009,-0.0454 -0.328872,-0.13697 -0.08916,-0.0916 -0.141853,-0.21599 -0.156439,-0.37425 z"
       style="fill:#231f20;fill-opacity:1;fill-rule:evenodd;stroke:none;stroke-width:0.26458332"
       inkscape:connector-curvature="0" />
  </g>
</svg>
