<?xml version="1.0" encoding="UTF-8" standalone="no"?>
<!-- Created with Inkscape (http://www.inkscape.org/) -->

<svg
   xmlns:dc="http://purl.org/dc/elements/1.1/"
   xmlns:cc="http://creativecommons.org/ns#"
   xmlns:rdf="http://www.w3.org/1999/02/22-rdf-syntax-ns#"
   xmlns:svg="http://www.w3.org/2000/svg"
   xmlns="http://www.w3.org/2000/svg"
   xmlns:sodipodi="http://sodipodi.sourceforge.net/DTD/sodipodi-0.dtd"
   xmlns:inkscape="http://www.inkscape.org/namespaces/inkscape"
   width="10.560995mm"
   height="5.2989354mm"
   viewBox="0 0 10.560995 5.2989354"
   version="1.1"
   id="svg8"
   inkscape:version="0.92.3 (2405546, 2018-03-11)">
  <defs
     id="defs2">
    <pattern
       y="0"
       x="0"
       height="6"
       width="6"
       patternUnits="userSpaceOnUse"
       id="EMFhbasepattern" />
  </defs>
  <sodipodi:namedview
     id="base"
     pagecolor="#ffffff"
     bordercolor="#666666"
     borderopacity="1.0"
     inkscape:pageopacity="0.0"
     inkscape:pageshadow="2"
     inkscape:zoom="5.6"
     inkscape:cx="17.976662"
     inkscape:cy="19.991448"
     inkscape:document-units="mm"
     inkscape:current-layer="layer1"
     showgrid="false"
     fit-margin-top="0"
     fit-margin-left="0"
     fit-margin-right="0"
     fit-margin-bottom="0"
     inkscape:window-width="1920"
     inkscape:window-height="1027"
     inkscape:window-x="-8"
     inkscape:window-y="-8"
     inkscape:window-maximized="1" />
  <metadata
     id="metadata5">
    <rdf:RDF>
      <cc:Work
         rdf:about="">
        <dc:format>image/svg+xml</dc:format>
        <dc:type
           rdf:resource="http://purl.org/dc/dcmitype/StillImage" />
        <dc:title></dc:title>
      </cc:Work>
    </rdf:RDF>
  </metadata>
  <g
     inkscape:label="Layer 1"
     inkscape:groupmode="layer"
     id="layer1"
     transform="translate(-139.86236,-123.24119)">
    <path
       id="path824"
       d="m 139.88829,128.5142 v -5.24708 h 10.50914 v 5.24708 z"
       style="fill:#fcffff;fill-opacity:1;fill-rule:evenodd;stroke:none;stroke-width:0.26458332"
       inkscape:connector-curvature="0" />
    <path
       id="path826"
       d="m 139.88829,128.5142 v -5.24708 h 10.50914 v 5.24708 z"
       style="fill:none;stroke:#231f20;stroke-width:0.05185552px;stroke-linecap:butt;stroke-linejoin:miter;stroke-miterlimit:4;stroke-dasharray:none;stroke-opacity:1"
       inkscape:connector-curvature="0" />
    <path
       id="path828"
       d="m 140.96309,126.51121 0.411,-0.0549 c 0.011,0.11483 0.0461,0.20521 0.10587,0.27114 0.0593,0.0659 0.12556,0.099 0.1971,0.099 0.085,0 0.15773,-0.0422 0.21895,-0.12586 0.0605,-0.0837 0.0912,-0.21265 0.0912,-0.38598 0,-0.16374 -0.03,-0.28528 -0.0905,-0.36367 -0.0607,-0.0786 -0.13781,-0.11771 -0.23071,-0.11771 -0.1186,0 -0.22519,0.0635 -0.3193,0.19058 l -0.33586,-0.0587 0.21294,-1.36697 h 1.08993 v 0.46892 h -0.77303 l -0.0699,0.44735 c 0.0929,-0.0563 0.18773,-0.0844 0.28328,-0.0844 0.16949,0 0.3133,0.0667 0.43117,0.20042 0.14933,0.17045 0.22399,0.39508 0.22399,0.67437 0,0.23039 -0.0636,0.44159 -0.19086,0.6353 -0.12676,0.19299 -0.30825,0.28936 -0.54448,0.28936 -0.19158,0 -0.35051,-0.0621 -0.47894,-0.18675 -0.12844,-0.12467 -0.20551,-0.30183 -0.23191,-0.5315 z"
       style="fill:#1d1d1b;fill-opacity:1;fill-rule:evenodd;stroke:none;stroke-width:0.26458332"
       inkscape:connector-curvature="0" />
    <path
       id="path830"
       d="m 143.70471,124.55402 c 0.20862,0 0.37739,0.099 0.50655,0.29751 0.12892,0.1985 0.19326,0.5454 0.19326,1.04093 0,0.49481 -0.0643,0.84099 -0.19326,1.03973 -0.12916,0.1985 -0.29745,0.29727 -0.50487,0.29727 -0.20911,0 -0.37788,-0.0983 -0.50703,-0.29487 -0.12892,-0.19683 -0.19326,-0.54564 -0.19326,-1.04717 0,-0.49217 0.0643,-0.83739 0.19326,-1.03589 0.12915,-0.1985 0.2972,-0.29751 0.50535,-0.29751 z m 4.8e-4,0.41786 c -0.0807,0 -0.14549,0.0537 -0.19374,0.16062 -0.0485,0.10692 -0.0723,0.36032 -0.0723,0.75996 0,0.40012 0.0238,0.65304 0.0723,0.75996 0.0482,0.1062 0.11307,0.15942 0.19374,0.15942 0.0821,0 0.14692,-0.0537 0.1947,-0.16062 0.0475,-0.10692 0.0715,-0.35984 0.0715,-0.75876 0,-0.39964 -0.024,-0.65304 -0.0715,-0.75996 -0.0478,-0.10692 -0.1126,-0.16062 -0.1947,-0.16062 z"
       style="fill:#1d1d1b;fill-opacity:1;fill-rule:evenodd;stroke:none;stroke-width:0.26458332"
       inkscape:connector-curvature="0" />
    <path
       id="path832"
       d="m 145.75492,124.55402 c 0.20862,0 0.37739,0.099 0.50655,0.29751 0.12892,0.1985 0.19326,0.5454 0.19326,1.04093 0,0.49481 -0.0643,0.84099 -0.19326,1.03973 -0.12916,0.1985 -0.29745,0.29727 -0.50463,0.29727 -0.20934,0 -0.37811,-0.0983 -0.50727,-0.29487 -0.12892,-0.19683 -0.19326,-0.54564 -0.19326,-1.04717 0,-0.49217 0.0643,-0.83739 0.19326,-1.03589 0.12916,-0.1985 0.29745,-0.29751 0.50535,-0.29751 z m 4.8e-4,0.41786 c -0.0807,0 -0.14548,0.0537 -0.19374,0.16062 -0.0485,0.10692 -0.0723,0.36032 -0.0723,0.75996 0,0.40012 0.0238,0.65304 0.0723,0.75996 0.0483,0.1062 0.11308,0.15942 0.19374,0.15942 0.0821,0 0.14692,-0.0537 0.1947,-0.16062 0.0478,-0.10692 0.0715,-0.35984 0.0715,-0.75876 0,-0.39964 -0.0238,-0.65304 -0.0715,-0.75996 -0.0478,-0.10692 -0.11259,-0.16062 -0.1947,-0.16062 z"
       style="fill:#1d1d1b;fill-opacity:1;fill-rule:evenodd;stroke:none;stroke-width:0.26458332"
       inkscape:connector-curvature="0" />
    <path
       id="path834"
       d="m 147.16174,125.28329 h 0.38532 v 0.25964 c 0.0679,-0.10141 0.1426,-0.17765 0.22374,-0.22775 0.0814,-0.0506 0.16949,-0.0758 0.26384,-0.0758 0.10035,0 0.18726,0.0252 0.26048,0.075 0.0735,0.0501 0.13396,0.12586 0.18053,0.22727 0.0691,-0.10141 0.14381,-0.17717 0.22255,-0.22727 0.0797,-0.0499 0.16397,-0.075 0.254,-0.075 0.10635,0 0.19806,0.0256 0.27536,0.0765 0.0768,0.0506 0.13516,0.12322 0.17549,0.21744 0.0396,0.0947 0.0598,0.23925 0.0598,0.43535 v 1.2169 h -0.4146 v -1.08792 c 0,-0.18987 -0.0173,-0.31645 -0.0509,-0.37926 -0.0336,-0.0631 -0.0898,-0.0942 -0.16925,-0.0942 -0.0924,0 -0.16709,0.0441 -0.22327,0.13209 -0.0569,0.0873 -0.0852,0.25963 -0.0852,0.51495 v 0.91435 h -0.4146 v -1.04333 c 0,-0.20641 -0.0118,-0.34018 -0.0343,-0.3994 -0.0293,-0.0789 -0.0898,-0.11866 -0.18053,-0.11866 -0.061,0 -0.1174,0.0201 -0.16877,0.0611 -0.0514,0.0403 -0.0881,0.10021 -0.11067,0.17836 -0.0226,0.0782 -0.0343,0.21073 -0.0343,0.397 v 0.9249 h -0.41461 z"
       style="fill:#1d1d1b;fill-opacity:1;fill-rule:evenodd;stroke:none;stroke-width:0.26458332"
       inkscape:connector-curvature="0" />
    <path
       id="path836"
       d="m 149.42754,123.27096 0.0461,9.6e-4 0.0495,0.004 0.0487,0.006 0.0483,0.009 0.0473,0.0108 0.0463,0.0132 0.0456,0.0153 0.0444,0.0175 0.0432,0.0196 0.042,0.0216 0.0411,0.0235 0.0394,0.0252 0.0384,0.0273 0.0367,0.0288 0.0355,0.0305 0.0336,0.0324 0.0324,0.0338 0.0305,0.0352 0.0291,0.0369 0.0271,0.0381 0.0255,0.0393 0.0235,0.041 0.0214,0.0419 0.0197,0.0434 0.0175,0.0444 0.0154,0.0453 0.0132,0.0463 0.0108,0.0475 0.009,0.048 0.006,0.0487 0.004,0.0494 0.001,0.0463 v 3.3057 l -0.001,0.046 -0.004,0.0494 -0.006,0.0487 -0.009,0.0482 -0.0108,0.0472 -0.0132,0.0465 -0.0154,0.0453 -0.0175,0.0444 -0.0197,0.0432 -0.0214,0.0422 -0.0235,0.0408 -0.0255,0.0396 -0.0271,0.0381 -0.0291,0.0367 -0.0305,0.0355 -0.0324,0.0338 -0.0336,0.0321 -0.0355,0.0307 -0.0367,0.0288 -0.0384,0.0271 -0.0394,0.0254 -0.0411,0.0235 -0.042,0.0216 -0.0432,0.0194 -0.0444,0.0175 -0.0456,0.0153 -0.0463,0.0132 -0.0473,0.011 -0.0483,0.009 -0.0487,0.006 -0.0495,0.004 -0.0461,0.001 h -8.56504 l -0.0461,-0.001 -0.0494,-0.004 -0.049,-0.006 -0.048,-0.009 -0.0473,-0.011 -0.0466,-0.0132 -0.0454,-0.0153 -0.0444,-0.0175 -0.0432,-0.0194 -0.0423,-0.0216 -0.0408,-0.0235 -0.0396,-0.0254 -0.0382,-0.0271 -0.037,-0.0288 -0.0353,-0.0307 -0.0339,-0.0321 -0.0322,-0.0338 -0.0307,-0.0355 -0.0288,-0.0367 -0.0271,-0.0381 -0.0254,-0.0396 -0.0235,-0.0408 -0.0216,-0.0422 -0.0194,-0.0432 -0.0175,-0.0444 -0.0156,-0.0453 -0.013,-0.0465 -0.011,-0.0472 -0.009,-0.0482 -0.006,-0.0487 -0.004,-0.0494 -0.001,-0.046 v -3.3057 l 0.001,-0.0463 0.004,-0.0494 0.006,-0.0487 0.009,-0.0482 0.011,-0.0472 0.013,-0.0463 0.0154,-0.0453 0.0178,-0.0444 0.0194,-0.0434 0.0216,-0.042 0.0235,-0.041 0.0254,-0.0393 0.0271,-0.0381 0.0288,-0.0369 0.0307,-0.0352 0.0322,-0.0338 0.0339,-0.0324 0.0353,-0.0305 0.037,-0.0288 0.0382,-0.0273 0.0396,-0.0252 0.0408,-0.0235 0.0423,-0.0216 0.0432,-0.0197 0.0444,-0.0175 0.0454,-0.0153 0.0466,-0.0132 0.0473,-0.0108 0.048,-0.009 0.049,-0.006 0.0494,-0.004 0.0461,-9.6e-4 z m -8.5612,0.29967 h 8.55736 v 0 c 0.37307,0 0.67556,0.30206 0.67556,0.67461 v 0 3.29827 0 c 0,0.37255 -0.30249,0.67462 -0.67556,0.67462 v 0 h -8.55736 v 0 c -0.37331,0 -0.67556,-0.30207 -0.67556,-0.67462 v 0 -3.29827 0 c 0,-0.37255 0.30225,-0.67461 0.67556,-0.67461 z"
       style="fill:#1d1d1b;fill-opacity:1;fill-rule:evenodd;stroke:none;stroke-width:0.26458332"
       inkscape:connector-curvature="0" />
  </g>
</svg>
