<?xml version="1.0" encoding="UTF-8" standalone="no"?>
<!-- Created with Inkscape (http://www.inkscape.org/) -->

<svg
   xmlns:dc="http://purl.org/dc/elements/1.1/"
   xmlns:cc="http://creativecommons.org/ns#"
   xmlns:rdf="http://www.w3.org/1999/02/22-rdf-syntax-ns#"
   xmlns:svg="http://www.w3.org/2000/svg"
   xmlns="http://www.w3.org/2000/svg"
   xmlns:sodipodi="http://sodipodi.sourceforge.net/DTD/sodipodi-0.dtd"
   xmlns:inkscape="http://www.inkscape.org/namespaces/inkscape"
   width="10.560997mm"
   height="5.1921368mm"
   viewBox="0 0 10.560997 5.1921368"
   version="1.1"
   id="svg8"
   inkscape:version="0.92.3 (2405546, 2018-03-11)">
  <defs
     id="defs2">
    <pattern
       y="0"
       x="0"
       height="6"
       width="6"
       patternUnits="userSpaceOnUse"
       id="EMFhbasepattern" />
    <pattern
       y="0"
       x="0"
       height="6"
       width="6"
       patternUnits="userSpaceOnUse"
       id="EMFhbasepattern-4" />
  </defs>
  <sodipodi:namedview
     id="base"
     pagecolor="#ffffff"
     bordercolor="#666666"
     borderopacity="1.0"
     inkscape:pageopacity="0.0"
     inkscape:pageshadow="2"
     inkscape:zoom="5.6"
     inkscape:cx="-5.1012528"
     inkscape:cy="24.981947"
     inkscape:document-units="mm"
     inkscape:current-layer="layer1"
     showgrid="false"
     fit-margin-top="0"
     fit-margin-left="0"
     fit-margin-right="0"
     fit-margin-bottom="0"
     inkscape:window-width="1920"
     inkscape:window-height="1027"
     inkscape:window-x="-8"
     inkscape:window-y="-8"
     inkscape:window-maximized="1" />
  <metadata
     id="metadata5">
    <rdf:RDF>
      <cc:Work
         rdf:about="">
        <dc:format>image/svg+xml</dc:format>
        <dc:type
           rdf:resource="http://purl.org/dc/dcmitype/StillImage" />
        <dc:title></dc:title>
      </cc:Work>
    </rdf:RDF>
  </metadata>
  <g
     inkscape:label="Layer 1"
     inkscape:groupmode="layer"
     id="layer1"
     transform="translate(-145.96839,-124.66839)">
    <path
       id="path858"
       d="m 145.99432,129.8346 v -5.14028 h 10.50914 v 5.14028 z"
       style="fill:#fcffff;fill-opacity:1;fill-rule:evenodd;stroke:none;stroke-width:0.26458332"
       inkscape:connector-curvature="0" />
    <path
       id="path860"
       d="m 145.99432,129.8346 v -5.14028 h 10.50914 v 5.14028 z"
       style="fill:none;stroke:#231f20;stroke-width:0.0518567px;stroke-linecap:butt;stroke-linejoin:miter;stroke-miterlimit:4;stroke-dasharray:none;stroke-opacity:1"
       inkscape:connector-curvature="0" />
    <path
       id="path862"
       d="m 154.29019,127.5619 h -1.12596 v -0.59488 h 1.12596 v -0.52866 l 1.46279,0.82598 -1.46279,0.82622 z"
       style="fill:#1d1d1b;fill-opacity:1;fill-rule:evenodd;stroke:none;stroke-width:0.26458332"
       inkscape:connector-curvature="0" />
    <path
       id="path864"
       d="m 147.53994,128.05651 h -0.26601 v -1.15901 c -0.0984,0.10568 -0.21223,0.18342 -0.34115,0.23321 v -0.28018 c 0.0737,-0.0284 0.14981,-0.0789 0.22855,-0.15172 0.0792,-0.0728 0.13373,-0.15688 0.1647,-0.25176 h 0.21391 z"
       style="fill:#1d1d1b;fill-opacity:1;fill-rule:evenodd;stroke:none;stroke-width:0.26458332"
       inkscape:connector-curvature="0" />
    <path
       id="path866"
       d="m 148.62485,126.44705 c 0.13396,0 0.24223,0.0603 0.32506,0.18201 0.0826,0.12118 0.12388,0.33349 0.12388,0.63646 0,0.30273 -0.0413,0.51456 -0.12388,0.63598 -0.0828,0.12142 -0.19086,0.18178 -0.32362,0.18178 -0.13421,0 -0.24248,-0.0601 -0.32531,-0.18037 -0.0828,-0.12024 -0.12412,-0.33373 -0.12412,-0.64045 0,-0.30108 0.0413,-0.51222 0.12412,-0.6334 0.0828,-0.12166 0.19062,-0.18201 0.32387,-0.18201 z m 4.8e-4,0.25552 c -0.0519,0 -0.0934,0.0329 -0.12436,0.0982 -0.031,0.0655 -0.0463,0.22053 -0.0463,0.46478 0,0.24472 0.0154,0.39949 0.0463,0.46477 0.031,0.0651 0.0725,0.0975 0.12436,0.0975 0.0526,0 0.0941,-0.0329 0.12484,-0.0982 0.0305,-0.0653 0.0459,-0.22006 0.0459,-0.46407 0,-0.24425 -0.0154,-0.39926 -0.0459,-0.46478 -0.0307,-0.0653 -0.0723,-0.0982 -0.12484,-0.0982 z"
       style="fill:#1d1d1b;fill-opacity:1;fill-rule:evenodd;stroke:none;stroke-width:0.26458332"
       inkscape:connector-curvature="0" />
    <path
       id="path868"
       d="m 149.93999,126.44705 c 0.13372,0 0.242,0.0603 0.32482,0.18201 0.0826,0.12118 0.12388,0.33349 0.12388,0.63646 0,0.30273 -0.0413,0.51456 -0.12388,0.63598 -0.0828,0.12142 -0.19086,0.18178 -0.32386,0.18178 -0.13396,0 -0.24224,-0.0601 -0.32507,-0.18037 -0.0828,-0.12024 -0.12412,-0.33373 -0.12412,-0.64045 0,-0.30108 0.0413,-0.51222 0.12412,-0.6334 0.0828,-0.12166 0.19063,-0.18201 0.32411,-0.18201 z m 2.4e-4,0.25552 c -0.0516,0 -0.0934,0.0329 -0.12436,0.0982 -0.031,0.0655 -0.0463,0.22053 -0.0463,0.46478 0,0.24472 0.0154,0.39949 0.0463,0.46477 0.031,0.0651 0.0727,0.0975 0.12436,0.0975 0.0526,0 0.0941,-0.0329 0.12484,-0.0982 0.0305,-0.0653 0.0459,-0.22006 0.0459,-0.46407 0,-0.24425 -0.0154,-0.39926 -0.0459,-0.46478 -0.0307,-0.0653 -0.0723,-0.0982 -0.12484,-0.0982 z"
       style="fill:#1d1d1b;fill-opacity:1;fill-rule:evenodd;stroke:none;stroke-width:0.26458332"
       inkscape:connector-curvature="0" />
    <path
       id="path870"
       d="m 150.84196,126.89304 h 0.24728 v 0.15876 c 0.0434,-0.062 0.0915,-0.10874 0.14356,-0.13927 0.0521,-0.031 0.10852,-0.0463 0.16902,-0.0463 0.0643,0 0.12004,0.0153 0.16709,0.0458 0.0471,0.0308 0.0859,0.077 0.11596,0.13903 0.0442,-0.062 0.0922,-0.10826 0.14261,-0.13903 0.0511,-0.0305 0.10515,-0.0458 0.16277,-0.0458 0.0684,0 0.12724,0.0155 0.1767,0.0465 0.0495,0.0312 0.0867,0.0756 0.11235,0.13317 0.0257,0.0578 0.0386,0.14631 0.0386,0.26632 v 0.74426 h -0.266 v -0.66535 c 0,-0.11625 -0.011,-0.19352 -0.0326,-0.23203 -0.0214,-0.0385 -0.0576,-0.0575 -0.10852,-0.0575 -0.0593,0 -0.10707,0.0268 -0.14332,0.0806 -0.0365,0.0536 -0.0545,0.15877 -0.0545,0.31494 v 0.55943 h -0.26601 v -0.6381 c 0,-0.12635 -0.007,-0.20808 -0.0221,-0.24449 -0.0187,-0.0481 -0.0576,-0.0723 -0.11572,-0.0723 -0.0391,0 -0.0751,0.0122 -0.10828,0.0373 -0.0329,0.0247 -0.0564,0.0613 -0.0708,0.10897 -0.0146,0.0479 -0.0221,0.12894 -0.0221,0.24284 v 0.56577 h -0.266 z"
       style="fill:#1d1d1b;fill-opacity:1;fill-rule:evenodd;stroke:none;stroke-width:0.26458332"
       inkscape:connector-curvature="0" />
    <path
       id="path872"
       d="m 155.53379,124.69808 0.0461,9.4e-4 0.0495,0.004 0.0487,0.006 0.0483,0.008 0.0473,0.0106 0.0463,0.0129 0.0456,0.015 0.0442,0.0171 0.0435,0.0193 0.0423,0.0211 0.0408,0.023 0.0394,0.0247 0.0384,0.0268 0.0367,0.0282 0.0353,0.0298 0.0339,0.0317 0.0324,0.0331 0.0305,0.0345 0.029,0.0362 0.0271,0.0373 0.0255,0.0385 0.0235,0.0402 0.0216,0.0411 0.0195,0.0425 0.0175,0.0434 0.0154,0.0444 0.0132,0.0453 0.0111,0.0465 0.008,0.047 0.006,0.0477 0.004,0.0484 0.001,0.0453 v 3.23842 l -0.001,0.0451 -0.004,0.0484 -0.006,0.0477 -0.008,0.0472 -0.0111,0.0463 -0.0132,0.0456 -0.0154,0.0444 -0.0175,0.0435 -0.0195,0.0423 -0.0216,0.0413 -0.0235,0.0399 -0.0255,0.0387 -0.0271,0.0373 -0.029,0.0359 -0.0305,0.0348 -0.0324,0.0331 -0.0336,0.0315 -0.0355,0.0301 -0.0367,0.0282 -0.0384,0.0265 -0.0394,0.0249 -0.0408,0.023 -0.0423,0.0211 -0.0435,0.019 -0.0442,0.0171 -0.0456,0.015 -0.0463,0.0129 -0.0473,0.0108 -0.0483,0.008 -0.0487,0.006 -0.0495,0.004 -0.0461,0.001 h -8.56524 l -0.0461,-0.001 -0.0495,-0.004 -0.049,-0.006 -0.048,-0.008 -0.0473,-0.0108 -0.0466,-0.0129 -0.0454,-0.015 -0.0444,-0.0171 -0.0432,-0.019 -0.0423,-0.0211 -0.0408,-0.023 -0.0396,-0.0249 -0.0382,-0.0265 -0.037,-0.0282 -0.0353,-0.0301 -0.0339,-0.0315 -0.0322,-0.0331 -0.0307,-0.0348 -0.0288,-0.0359 -0.0271,-0.0373 -0.0255,-0.0387 -0.0235,-0.0399 -0.0216,-0.0413 -0.0197,-0.0423 -0.0173,-0.0435 -0.0156,-0.0444 -0.0132,-0.0456 -0.0108,-0.0463 -0.009,-0.0472 -0.006,-0.0477 -0.004,-0.0484 -0.001,-0.0451 v -3.23842 l 0.001,-0.0453 0.004,-0.0484 0.006,-0.0477 0.009,-0.0472 0.0108,-0.0463 0.0132,-0.0453 0.0156,-0.0444 0.0173,-0.0434 0.0197,-0.0425 0.0216,-0.0411 0.0235,-0.0402 0.0255,-0.0385 0.0271,-0.0373 0.0288,-0.0362 0.0307,-0.0345 0.0322,-0.0331 0.0339,-0.0317 0.0353,-0.0298 0.037,-0.0282 0.0382,-0.0268 0.0396,-0.0247 0.0408,-0.023 0.0423,-0.0211 0.0432,-0.0193 0.0444,-0.0171 0.0454,-0.015 0.0466,-0.0129 0.0473,-0.0106 0.048,-0.008 0.049,-0.006 0.0495,-0.004 0.0461,-9.4e-4 z m -8.5614,0.29357 h 8.55756 v 0 c 0.37308,0 0.67558,0.29592 0.67558,0.66088 v 0 3.23114 0 c 0,0.36496 -0.3025,0.66088 -0.67558,0.66088 v 0 h -8.55756 v 0 c -0.37332,0 -0.67557,-0.29592 -0.67557,-0.66088 v 0 -3.23114 0 c 0,-0.36496 0.30225,-0.66088 0.67557,-0.66088 z"
       style="fill:#1d1d1b;fill-opacity:1;fill-rule:evenodd;stroke:none;stroke-width:0.26458332"
       inkscape:connector-curvature="0" />
  </g>
</svg>
