<?xml version="1.0" encoding="UTF-8" standalone="no"?>
<!-- Created with Inkscape (http://www.inkscape.org/) -->

<svg
   xmlns:dc="http://purl.org/dc/elements/1.1/"
   xmlns:cc="http://creativecommons.org/ns#"
   xmlns:rdf="http://www.w3.org/1999/02/22-rdf-syntax-ns#"
   xmlns:svg="http://www.w3.org/2000/svg"
   xmlns="http://www.w3.org/2000/svg"
   xmlns:sodipodi="http://sodipodi.sourceforge.net/DTD/sodipodi-0.dtd"
   xmlns:inkscape="http://www.inkscape.org/namespaces/inkscape"
   width="10.560995mm"
   height="5.1921353mm"
   viewBox="0 0 10.560995 5.1921347"
   version="1.1"
   id="svg8"
   inkscape:version="0.92.2 (5c3e80d, 2017-08-06)">
  <defs
     id="defs2">
    <pattern
       y="0"
       x="0"
       height="6"
       width="6"
       patternUnits="userSpaceOnUse"
       id="EMFhbasepattern" />
    <pattern
       y="0"
       x="0"
       height="6"
       width="6"
       patternUnits="userSpaceOnUse"
       id="EMFhbasepattern-3" />
    <pattern
       y="0"
       x="0"
       height="6"
       width="6"
       patternUnits="userSpaceOnUse"
       id="EMFhbasepattern-7" />
    <pattern
       y="0"
       x="0"
       height="6"
       width="6"
       patternUnits="userSpaceOnUse"
       id="EMFhbasepattern-2" />
    <pattern
       y="0"
       x="0"
       height="6"
       width="6"
       patternUnits="userSpaceOnUse"
       id="EMFhbasepattern-1" />
    <pattern
       y="0"
       x="0"
       height="6"
       width="6"
       patternUnits="userSpaceOnUse"
       id="EMFhbasepattern-4" />
    <pattern
       y="0"
       x="0"
       height="6"
       width="6"
       patternUnits="userSpaceOnUse"
       id="EMFhbasepattern-11" />
  </defs>
  <sodipodi:namedview
     id="base"
     pagecolor="#ffffff"
     bordercolor="#666666"
     borderopacity="1.0"
     inkscape:pageopacity="0.0"
     inkscape:pageshadow="2"
     inkscape:zoom="16"
     inkscape:cx="14.797841"
     inkscape:cy="17.64593"
     inkscape:document-units="mm"
     inkscape:current-layer="layer1"
     showgrid="false"
     fit-margin-top="0"
     fit-margin-left="0"
     fit-margin-right="0"
     fit-margin-bottom="0"
     inkscape:pagecheckerboard="false"
     inkscape:window-width="1920"
     inkscape:window-height="1027"
     inkscape:window-x="-8"
     inkscape:window-y="-8"
     inkscape:window-maximized="1" />
  <metadata
     id="metadata5">
    <rdf:RDF>
      <cc:Work
         rdf:about="">
        <dc:format>image/svg+xml</dc:format>
        <dc:type
           rdf:resource="http://purl.org/dc/dcmitype/StillImage" />
        <dc:title></dc:title>
      </cc:Work>
    </rdf:RDF>
  </metadata>
  <g
     inkscape:label="Layer 1"
     inkscape:groupmode="layer"
     id="layer1"
     transform="translate(-126.03735,-208.9876)">
    <path
       id="path946"
       d="m 126.06328,214.15381 v -5.14028 h 10.50914 v 5.14028 z"
       style="fill:#fcffff;fill-opacity:1;fill-rule:evenodd;stroke:none;stroke-width:0.26458332"
       inkscape:connector-curvature="0" />
    <path
       id="path948"
       d="m 126.06328,214.15381 v -5.14028 h 10.50914 v 5.14028 z"
       style="fill:none;stroke:#231f20;stroke-width:0.05185552px;stroke-linecap:butt;stroke-linejoin:miter;stroke-miterlimit:4;stroke-dasharray:none;stroke-opacity:1"
       inkscape:connector-curvature="0" />
    <path
       id="path950"
       d="m 135.35622,211.74842 v 1.10147 h -0.6081 v -1.10147 h -0.54041 l 0.84458,-1.43097 0.84433,1.43097 z"
       style="fill:#1d1d1b;fill-opacity:1;fill-rule:evenodd;stroke:none;stroke-width:0.26458332"
       inkscape:connector-curvature="0" />
    <path
       id="path952"
       d="m 127.88734,211.74842 v 1.10147 h -0.6081 v -1.10147 h -0.5404 l 0.84433,-1.43097 0.84458,1.43097 z"
       style="fill:#1d1d1b;fill-opacity:1;fill-rule:evenodd;stroke:none;stroke-width:0.26458332"
       inkscape:connector-curvature="0" />
    <path
       id="path954"
       d="m 129.23415,212.37572 h -0.266 v -1.15901 c -0.0984,0.10592 -0.21223,0.18366 -0.34115,0.23321 v -0.28018 c 0.0737,-0.0284 0.14981,-0.0789 0.22855,-0.15172 0.0792,-0.0728 0.13396,-0.15688 0.16493,-0.25176 h 0.21367 z"
       style="fill:#1d1d1b;fill-opacity:1;fill-rule:evenodd;stroke:none;stroke-width:0.26458332"
       inkscape:connector-curvature="0" />
    <path
       id="path956"
       d="m 130.31927,210.76626 c 0.13372,0 0.24199,0.0606 0.32482,0.18201 0.0828,0.12142 0.12388,0.33349 0.12388,0.63669 0,0.3025 -0.0411,0.51433 -0.12388,0.63575 -0.0828,0.12142 -0.19086,0.18178 -0.32386,0.18178 -0.13396,0 -0.24223,-0.0599 -0.32506,-0.18037 -0.0828,-0.12024 -0.12411,-0.33349 -0.12411,-0.64021 0,-0.30109 0.0413,-0.51222 0.12411,-0.63364 0.0828,-0.12142 0.19062,-0.18201 0.3241,-0.18201 z m 2.4e-4,0.25552 c -0.0516,0 -0.0934,0.0329 -0.12436,0.0984 -0.031,0.0653 -0.0461,0.2203 -0.0461,0.46478 0,0.24449 0.0151,0.39926 0.0461,0.46454 0.031,0.0651 0.0728,0.0977 0.12436,0.0977 0.0526,0 0.0944,-0.0329 0.12484,-0.0984 0.0305,-0.0653 0.0459,-0.22006 0.0459,-0.46384 0,-0.24448 -0.0154,-0.39949 -0.0459,-0.46478 -0.0305,-0.0655 -0.0723,-0.0984 -0.12484,-0.0984 z"
       style="fill:#1d1d1b;fill-opacity:1;fill-rule:evenodd;stroke:none;stroke-width:0.26458332"
       inkscape:connector-curvature="0" />
    <path
       id="path958"
       d="m 131.6339,210.76626 c 0.13396,0 0.24224,0.0606 0.32506,0.18201 0.0826,0.12142 0.12388,0.33349 0.12388,0.63669 0,0.3025 -0.0413,0.51433 -0.12388,0.63575 -0.0828,0.12142 -0.19086,0.18178 -0.32361,0.18178 -0.13421,0 -0.24248,-0.0599 -0.3253,-0.18037 -0.0828,-0.12024 -0.12412,-0.33349 -0.12412,-0.64021 0,-0.30109 0.0413,-0.51222 0.12412,-0.63364 0.0828,-0.12142 0.19061,-0.18201 0.32385,-0.18201 z m 4.8e-4,0.25552 c -0.0519,0 -0.0934,0.0329 -0.12435,0.0984 -0.031,0.0653 -0.0463,0.2203 -0.0463,0.46478 0,0.24449 0.0154,0.39926 0.0463,0.46454 0.031,0.0651 0.0725,0.0977 0.12435,0.0977 0.0526,0 0.0941,-0.0329 0.12484,-0.0984 0.0305,-0.0653 0.0459,-0.22006 0.0459,-0.46384 0,-0.24448 -0.0154,-0.39949 -0.0459,-0.46478 -0.0307,-0.0655 -0.0723,-0.0984 -0.12484,-0.0984 z"
       style="fill:#1d1d1b;fill-opacity:1;fill-rule:evenodd;stroke:none;stroke-width:0.26458332"
       inkscape:connector-curvature="0" />
    <path
       id="path960"
       d="m 132.53633,211.21248 h 0.24704 v 0.15853 c 0.0435,-0.062 0.0915,-0.1085 0.14356,-0.13927 0.0521,-0.031 0.10875,-0.0463 0.16901,-0.0463 0.0643,0 0.12004,0.0153 0.16709,0.046 0.0473,0.0305 0.0859,0.0768 0.11572,0.1388 0.0444,-0.062 0.0924,-0.10826 0.14284,-0.1388 0.0511,-0.0308 0.10515,-0.046 0.16277,-0.046 0.0684,0 0.12724,0.0157 0.17669,0.0467 0.0495,0.031 0.0867,0.0754 0.11259,0.13293 0.0255,0.058 0.0384,0.14655 0.0384,0.26632 v 0.74426 h -0.266 v -0.66535 c 0,-0.11625 -0.0111,-0.19352 -0.0324,-0.23203 -0.0219,-0.0385 -0.0579,-0.0575 -0.10876,-0.0575 -0.0593,0 -0.10707,0.0268 -0.14332,0.0808 -0.0365,0.0533 -0.0545,0.15876 -0.0545,0.31494 v 0.55919 h -0.266 v -0.6381 c 0,-0.12635 -0.007,-0.20808 -0.0219,-0.24425 -0.019,-0.0481 -0.0576,-0.0726 -0.11572,-0.0726 -0.0394,0 -0.0754,0.0122 -0.10827,0.0373 -0.0331,0.0247 -0.0567,0.0613 -0.0711,0.10921 -0.0144,0.0477 -0.0221,0.1287 -0.0221,0.24284 v 0.56553 h -0.26576 z"
       style="fill:#1d1d1b;fill-opacity:1;fill-rule:evenodd;stroke:none;stroke-width:0.26458332"
       inkscape:connector-curvature="0" />
    <path
       id="path962"
       d="m 135.60253,209.01729 0.0461,0.001 0.0494,0.004 0.0487,0.006 0.0482,0.008 0.0473,0.0108 0.0463,0.0129 0.0456,0.015 0.0444,0.0169 0.0432,0.0193 0.042,0.0211 0.0411,0.023 0.0394,0.0249 0.0384,0.0265 0.0367,0.0282 0.0355,0.0301 0.0336,0.0315 0.0324,0.0331 0.0305,0.0345 0.029,0.0362 0.0271,0.0373 0.0255,0.0387 0.0235,0.0399 0.0214,0.0413 0.0197,0.0423 0.0175,0.0435 0.0154,0.0446 0.0132,0.0453 0.0108,0.0463 0.009,0.047 0.006,0.0479 0.004,0.0484 0.001,0.0451 v 3.23842 l -0.001,0.0453 -0.004,0.0484 -0.006,0.0477 -0.009,0.047 -0.0108,0.0463 -0.0132,0.0456 -0.0154,0.0444 -0.0175,0.0435 -0.0197,0.0423 -0.0214,0.0413 -0.0235,0.0399 -0.0255,0.0387 -0.0271,0.0376 -0.029,0.0359 -0.0305,0.0345 -0.0324,0.0331 -0.0336,0.0315 -0.0355,0.0301 -0.0367,0.0282 -0.0384,0.0268 -0.0394,0.0247 -0.0411,0.023 -0.042,0.0211 -0.0432,0.0192 -0.0444,0.0172 -0.0456,0.015 -0.0463,0.0129 -0.0473,0.0106 -0.0482,0.008 -0.0487,0.006 -0.0494,0.004 -0.0461,10e-4 h -8.56504 l -0.0461,-10e-4 -0.0495,-0.004 -0.049,-0.006 -0.048,-0.008 -0.0473,-0.0106 -0.0466,-0.0129 -0.0454,-0.015 -0.0444,-0.0172 -0.0432,-0.0192 -0.0422,-0.0211 -0.0408,-0.023 -0.0396,-0.0247 -0.0382,-0.0268 -0.037,-0.0282 -0.0353,-0.0301 -0.0339,-0.0315 -0.0322,-0.0331 -0.0307,-0.0345 -0.0288,-0.0359 -0.0271,-0.0376 -0.0254,-0.0387 -0.0235,-0.0399 -0.0216,-0.0413 -0.0195,-0.0423 -0.0175,-0.0435 -0.0156,-0.0444 -0.013,-0.0456 -0.0111,-0.0463 -0.009,-0.047 -0.006,-0.0477 -0.004,-0.0484 -0.001,-0.0451 v -3.23865 l 0.001,-0.0451 0.004,-0.0486 0.006,-0.0477 0.009,-0.047 0.0111,-0.0463 0.013,-0.0453 0.0154,-0.0446 0.0178,-0.0435 0.0195,-0.0423 0.0216,-0.0413 0.0235,-0.0399 0.0254,-0.0387 0.0271,-0.0373 0.0288,-0.0362 0.0307,-0.0345 0.0322,-0.0331 0.0339,-0.0315 0.0353,-0.0301 0.037,-0.0282 0.0382,-0.0265 0.0396,-0.0249 0.0408,-0.023 0.0422,-0.0211 0.0432,-0.0193 0.0444,-0.0169 0.0454,-0.015 0.0466,-0.0129 0.0473,-0.0108 0.048,-0.008 0.049,-0.006 0.0495,-0.004 0.0461,-0.001 z m -8.5612,0.29381 h 8.55736 v 0 c 0.37307,0 0.67556,0.29568 0.67556,0.66088 v 0 3.23113 0 c 0,0.36497 -0.30249,0.66088 -0.67556,0.66088 v 0 h -8.55736 v 0 c -0.37331,0 -0.67556,-0.29591 -0.67556,-0.66088 v 0 -3.23113 0 c 0,-0.3652 0.30225,-0.66088 0.67556,-0.66088 z"
       style="fill:#1d1d1b;fill-opacity:1;fill-rule:evenodd;stroke:none;stroke-width:0.26458332"
       inkscape:connector-curvature="0" />
  </g>
</svg>
