<?xml version="1.0" encoding="UTF-8" standalone="no"?>
<!-- Created with Inkscape (http://www.inkscape.org/) -->

<svg
   xmlns:dc="http://purl.org/dc/elements/1.1/"
   xmlns:cc="http://creativecommons.org/ns#"
   xmlns:rdf="http://www.w3.org/1999/02/22-rdf-syntax-ns#"
   xmlns:svg="http://www.w3.org/2000/svg"
   xmlns="http://www.w3.org/2000/svg"
   xmlns:sodipodi="http://sodipodi.sourceforge.net/DTD/sodipodi-0.dtd"
   xmlns:inkscape="http://www.inkscape.org/namespaces/inkscape"
   width="5.1910086mm"
   height="10.559869mm"
   viewBox="0 0 5.1910085 10.559868"
   version="1.1"
   id="svg8"
   inkscape:version="0.92.2 (5c3e80d, 2017-08-06)">
  <defs
     id="defs2">
    <pattern
       y="0"
       x="0"
       height="6"
       width="6"
       patternUnits="userSpaceOnUse"
       id="EMFhbasepattern" />
    <pattern
       y="0"
       x="0"
       height="6"
       width="6"
       patternUnits="userSpaceOnUse"
       id="EMFhbasepattern-3" />
    <pattern
       y="0"
       x="0"
       height="6"
       width="6"
       patternUnits="userSpaceOnUse"
       id="EMFhbasepattern-7" />
    <pattern
       y="0"
       x="0"
       height="6"
       width="6"
       patternUnits="userSpaceOnUse"
       id="EMFhbasepattern-2" />
    <pattern
       y="0"
       x="0"
       height="6"
       width="6"
       patternUnits="userSpaceOnUse"
       id="EMFhbasepattern-1" />
    <pattern
       y="0"
       x="0"
       height="6"
       width="6"
       patternUnits="userSpaceOnUse"
       id="EMFhbasepattern-4" />
    <pattern
       y="0"
       x="0"
       height="6"
       width="6"
       patternUnits="userSpaceOnUse"
       id="EMFhbasepattern-11" />
    <pattern
       y="0"
       x="0"
       height="6"
       width="6"
       patternUnits="userSpaceOnUse"
       id="EMFhbasepattern-9" />
  </defs>
  <sodipodi:namedview
     id="base"
     pagecolor="#ffffff"
     bordercolor="#666666"
     borderopacity="1.0"
     inkscape:pageopacity="0.0"
     inkscape:pageshadow="2"
     inkscape:zoom="16"
     inkscape:cx="12.607621"
     inkscape:cy="19.78907"
     inkscape:document-units="mm"
     inkscape:current-layer="layer1"
     showgrid="false"
     fit-margin-top="0"
     fit-margin-left="0"
     fit-margin-right="0"
     fit-margin-bottom="0"
     inkscape:pagecheckerboard="false"
     inkscape:window-width="1920"
     inkscape:window-height="1027"
     inkscape:window-x="-8"
     inkscape:window-y="-8"
     inkscape:window-maximized="1" />
  <metadata
     id="metadata5">
    <rdf:RDF>
      <cc:Work
         rdf:about="">
        <dc:format>image/svg+xml</dc:format>
        <dc:type
           rdf:resource="http://purl.org/dc/dcmitype/StillImage" />
        <dc:title></dc:title>
      </cc:Work>
    </rdf:RDF>
  </metadata>
  <g
     inkscape:label="Layer 1"
     inkscape:groupmode="layer"
     id="layer1"
     transform="translate(-126.61685,-204.18691)">
    <path
       id="path983"
       d="m 131.78249,214.72141 h -5.14028 v -10.50914 h 5.14028 z"
       style="fill:#fcffff;fill-opacity:1;fill-rule:evenodd;stroke:none;stroke-width:0.26458332"
       inkscape:connector-curvature="0" />
    <path
       id="path985"
       d="m 131.78249,214.72141 h -5.14028 v -10.50914 h 5.14028 z"
       style="fill:none;stroke:#231f20;stroke-width:0.05072868px;stroke-linecap:butt;stroke-linejoin:miter;stroke-miterlimit:4;stroke-dasharray:none;stroke-opacity:1"
       inkscape:connector-curvature="0" />
    <path
       id="path987"
       d="m 129.68805,207.6785 v 3.29098 0 0.2857 h 0.84595 l -1.32177,2.34027 -1.32176,-2.34027 h 0.84595 v 0 -3.23553 0 -0.34115 h -0.84595 l 1.32176,-2.34027 1.32177,2.34027 z"
       style="fill:#1d1d1b;fill-opacity:1;fill-rule:evenodd;stroke:none;stroke-width:0.26458332"
       inkscape:connector-curvature="0" />
    <path
       id="path989"
       d="m 126.64597,205.18218 9.4e-4,-0.0463 0.004,-0.0495 0.006,-0.0487 0.008,-0.048 0.0106,-0.0475 0.0129,-0.0463 0.015,-0.0454 0.0171,-0.0444 0.0193,-0.0434 0.0211,-0.042 0.0228,-0.0408 0.0249,-0.0396 0.0265,-0.0382 0.0284,-0.037 0.0301,-0.0353 0.0315,-0.0339 0.0331,-0.0324 0.0345,-0.0305 0.0359,-0.0291 0.0376,-0.0271 0.0387,-0.0252 0.0399,-0.0238 0.0411,-0.0214 0.0425,-0.0197 0.0435,-0.0175 0.0444,-0.0154 0.0453,-0.0132 0.0463,-0.0108 0.0472,-0.009 0.0477,-0.006 0.0484,-0.004 0.0451,-9.6e-4 h 3.23865 l 0.0451,9.6e-4 0.0484,0.004 0.0479,0.006 0.047,0.009 0.0463,0.0108 0.0453,0.0132 0.0446,0.0154 0.0435,0.0175 0.0423,0.0197 0.0413,0.0214 0.0399,0.0238 0.0387,0.0252 0.0373,0.0271 0.0362,0.0291 0.0345,0.0305 0.0329,0.0324 0.0317,0.0339 0.0298,0.0353 0.0284,0.037 0.0265,0.0382 0.0249,0.0396 0.023,0.0408 0.0211,0.042 0.019,0.0434 0.0171,0.0444 0.015,0.0454 0.0129,0.0463 0.0108,0.0475 0.008,0.048 0.006,0.0487 0.004,0.0495 0.001,0.0463 v 8.565 l -0.001,0.0463 -0.004,0.0495 -0.006,0.0487 -0.008,0.048 -0.0108,0.0475 -0.0129,0.0463 -0.015,0.0454 -0.0171,0.0444 -0.019,0.0435 -0.0211,0.042 -0.023,0.0408 -0.0249,0.0396 -0.0265,0.0384 -0.0284,0.0367 -0.0298,0.0353 -0.0317,0.0339 -0.0329,0.0322 -0.0345,0.0307 -0.0362,0.0291 -0.0373,0.0271 -0.0387,0.0252 -0.0399,0.0235 -0.0413,0.0216 -0.0423,0.0197 -0.0435,0.0175 -0.0446,0.0154 -0.0453,0.0132 -0.0463,0.0108 -0.047,0.009 -0.0479,0.006 -0.0484,0.004 -0.0451,9.6e-4 h -3.23842 l -0.0453,-9.6e-4 -0.0484,-0.004 -0.0477,-0.006 -0.0472,-0.009 -0.0463,-0.0108 -0.0453,-0.0132 -0.0444,-0.0154 -0.0435,-0.0175 -0.0425,-0.0197 -0.0411,-0.0216 -0.0399,-0.0235 -0.0387,-0.0252 -0.0376,-0.0271 -0.0359,-0.0291 -0.0345,-0.0307 -0.0331,-0.0322 -0.0315,-0.0339 -0.0301,-0.0353 -0.0284,-0.0367 -0.0265,-0.0384 -0.0249,-0.0396 -0.0228,-0.0408 -0.0211,-0.042 -0.0193,-0.0435 -0.0171,-0.0444 -0.015,-0.0454 -0.0129,-0.0463 -0.0106,-0.0475 -0.008,-0.048 -0.006,-0.0487 -0.004,-0.0495 -9.4e-4,-0.0463 z m 0.29357,8.5614 v -8.5578 0 c 0,-0.37308 0.29592,-0.67558 0.66088,-0.67558 v 0 h 3.23114 v 0 c 0.36496,0 0.66088,0.3025 0.66088,0.67558 v 0 8.5578 0 c 0,0.37308 -0.29592,0.67557 -0.66088,0.67557 v 0 h -3.23114 v 0 c -0.36496,0 -0.66088,-0.30249 -0.66088,-0.67557 z"
       style="fill:#1d1d1b;fill-opacity:1;fill-rule:evenodd;stroke:none;stroke-width:0.26458332"
       inkscape:connector-curvature="0" />
  </g>
</svg>
