<?xml version="1.0" encoding="UTF-8" standalone="no"?>
<!-- Created with Inkscape (http://www.inkscape.org/) -->

<svg
   xmlns:dc="http://purl.org/dc/elements/1.1/"
   xmlns:cc="http://creativecommons.org/ns#"
   xmlns:rdf="http://www.w3.org/1999/02/22-rdf-syntax-ns#"
   xmlns:svg="http://www.w3.org/2000/svg"
   xmlns="http://www.w3.org/2000/svg"
   xmlns:sodipodi="http://sodipodi.sourceforge.net/DTD/sodipodi-0.dtd"
   xmlns:inkscape="http://www.inkscape.org/namespaces/inkscape"
   width="10.561mm"
   height="5.1921353mm"
   viewBox="0 0 10.561 5.1921352"
   version="1.1"
   id="svg8"
   inkscape:version="0.92.2 (5c3e80d, 2017-08-06)">
  <defs
     id="defs2">
    <pattern
       y="0"
       x="0"
       height="6"
       width="6"
       patternUnits="userSpaceOnUse"
       id="EMFhbasepattern" />
    <pattern
       y="0"
       x="0"
       height="6"
       width="6"
       patternUnits="userSpaceOnUse"
       id="EMFhbasepattern-7" />
    <pattern
       y="0"
       x="0"
       height="6"
       width="6"
       patternUnits="userSpaceOnUse"
       id="EMFhbasepattern-1" />
    <pattern
       y="0"
       x="0"
       height="6"
       width="6"
       patternUnits="userSpaceOnUse"
       id="EMFhbasepattern-4" />
    <pattern
       y="0"
       x="0"
       height="6"
       width="6"
       patternUnits="userSpaceOnUse"
       id="EMFhbasepattern-18" />
    <pattern
       y="0"
       x="0"
       height="6"
       width="6"
       patternUnits="userSpaceOnUse"
       id="EMFhbasepattern-45" />
    <pattern
       y="0"
       x="0"
       height="6"
       width="6"
       patternUnits="userSpaceOnUse"
       id="EMFhbasepattern-0" />
  </defs>
  <sodipodi:namedview
     id="base"
     pagecolor="#ffffff"
     bordercolor="#666666"
     borderopacity="1.0"
     inkscape:pageopacity="0.0"
     inkscape:pageshadow="2"
     inkscape:zoom="5.6"
     inkscape:cx="-6.4056034"
     inkscape:cy="42.174556"
     inkscape:document-units="mm"
     inkscape:current-layer="layer1"
     showgrid="false"
     fit-margin-top="0"
     fit-margin-left="0"
     fit-margin-right="0"
     fit-margin-bottom="0"
     inkscape:window-width="1920"
     inkscape:window-height="1027"
     inkscape:window-x="-8"
     inkscape:window-y="-8"
     inkscape:window-maximized="1" />
  <metadata
     id="metadata5">
    <rdf:RDF>
      <cc:Work
         rdf:about="">
        <dc:format>image/svg+xml</dc:format>
        <dc:type
           rdf:resource="http://purl.org/dc/dcmitype/StillImage" />
        <dc:title></dc:title>
      </cc:Work>
    </rdf:RDF>
  </metadata>
  <g
     inkscape:label="Layer 1"
     inkscape:groupmode="layer"
     id="layer1"
     transform="translate(-67.428462,-149.25677)">
    <path
       id="path1124"
       d="m 67.45439,149.2827 v 5.14028 h 10.509144 v -5.14028 z"
       style="fill:#fcffff;fill-opacity:1;fill-rule:evenodd;stroke:none;stroke-width:0.26458332"
       inkscape:connector-curvature="0" />
    <path
       id="path1126"
       d="m 67.45439,149.2827 v 5.14028 h 10.509144 v -5.14028 z"
       style="fill:none;stroke:#231f20;stroke-width:0.05185552px;stroke-linecap:butt;stroke-linejoin:miter;stroke-miterlimit:4;stroke-dasharray:none;stroke-opacity:1"
       inkscape:connector-curvature="0" />
    <path
       id="path1128"
       d="m 70.920787,152.32877 h 5.91681 v -0.95163 h -5.91681 v -0.84618 l -2.34022,1.322 2.34022,1.32176 z"
       style="fill:#1d1d1b;fill-opacity:1;fill-rule:evenodd;stroke:none;stroke-width:0.26458332"
       inkscape:connector-curvature="0" />
    <path
       id="path1130"
       d="m 76.993644,154.41922 0.04609,-9.4e-4 0.04946,-0.004 0.04897,-0.006 0.04801,-0.008 0.04729,-0.0106 0.04657,-0.0129 0.04537,-0.015 0.04441,-0.0171 0.04321,-0.0193 0.04225,-0.0211 0.04081,-0.0228 0.03961,-0.0249 0.03817,-0.0265 0.03697,-0.0284 0.03529,-0.0298 0.03385,-0.0317 0.03217,-0.0331 0.03073,-0.0345 0.02881,-0.0359 0.02713,-0.0373 0.02545,-0.0388 0.02353,-0.0402 0.02161,-0.0411 0.01945,-0.0425 0.01776,-0.0435 0.01537,-0.0444 0.01296,-0.0453 0.01104,-0.0463 0.0086,-0.0472 0.0062,-0.0477 0.0036,-0.0484 0.0012,-0.0453 v -3.23842 l -0.0012,-0.0451 -0.0036,-0.0484 -0.0062,-0.0479 -0.0086,-0.047 -0.01104,-0.0463 -0.01296,-0.0453 -0.01537,-0.0446 -0.01776,-0.0435 -0.01945,-0.0423 -0.02161,-0.0411 -0.02353,-0.0402 -0.02545,-0.0387 -0.02713,-0.0373 -0.02881,-0.0359 -0.03073,-0.0348 -0.03217,-0.0329 -0.03385,-0.0317 -0.03529,-0.0298 -0.03697,-0.0284 -0.03817,-0.0265 -0.03961,-0.0249 -0.04081,-0.023 -0.04225,-0.0211 -0.04321,-0.019 -0.04441,-0.0171 -0.04537,-0.015 -0.04657,-0.0129 -0.04729,-0.0108 -0.04801,-0.008 -0.04897,-0.006 -0.04946,-0.004 -0.04609,-10e-4 h -8.565043 l -0.04609,10e-4 -0.04945,0.004 -0.04874,0.006 -0.04825,0.008 -0.04729,0.0108 -0.04633,0.0129 -0.04561,0.015 -0.04417,0.0171 -0.04345,0.019 -0.04201,0.0211 -0.04105,0.023 -0.03961,0.0249 -0.03817,0.0265 -0.03673,0.0284 -0.03553,0.0298 -0.03361,0.0317 -0.03241,0.0329 -0.03049,0.0348 -0.02905,0.0359 -0.02713,0.0373 -0.02545,0.0387 -0.02353,0.0402 -0.02161,0.0411 -0.01945,0.0423 -0.01752,0.0435 -0.01536,0.0446 -0.0132,0.0453 -0.0108,0.0463 -0.0086,0.047 -0.0062,0.0479 -0.0038,0.0484 -0.0012,0.0451 v 3.23842 l 0.0012,0.0453 0.0038,0.0484 0.0062,0.0477 0.0086,0.0472 0.0108,0.0463 0.0132,0.0453 0.01536,0.0444 0.01752,0.0435 0.01945,0.0425 0.02161,0.0411 0.02353,0.0402 0.02545,0.0388 0.02713,0.0373 0.02905,0.0359 0.03049,0.0345 0.03241,0.0331 0.03361,0.0317 0.03553,0.0298 0.03673,0.0284 0.03817,0.0265 0.03961,0.0249 0.04105,0.0228 0.04201,0.0211 0.04345,0.0193 0.04417,0.0171 0.04561,0.015 0.04633,0.0129 0.04729,0.0106 0.04825,0.008 0.04874,0.006 0.04945,0.004 0.04609,9.4e-4 z m -8.561202,-0.29357 h 8.557361 v 0 c 0.373311,0 0.675802,-0.29592 0.675802,-0.66088 v 0 -3.23114 0 c 0,-0.36496 -0.302491,-0.66088 -0.675802,-0.66088 v 0 h -8.557361 v 0 c -0.373071,0 -0.675562,0.29592 -0.675562,0.66088 v 0 3.23114 0 c 0,0.36496 0.302491,0.66088 0.675562,0.66088 z"
       style="fill:#1d1d1b;fill-opacity:1;fill-rule:evenodd;stroke:none;stroke-width:0.26458332"
       inkscape:connector-curvature="0" />
  </g>
</svg>
