<?xml version="1.0" encoding="UTF-8" standalone="no"?>
<svg
   xmlns:dc="http://purl.org/dc/elements/1.1/"
   xmlns:cc="http://creativecommons.org/ns#"
   xmlns:rdf="http://www.w3.org/1999/02/22-rdf-syntax-ns#"
   xmlns:svg="http://www.w3.org/2000/svg"
   xmlns="http://www.w3.org/2000/svg"
   xmlns:sodipodi="http://sodipodi.sourceforge.net/DTD/sodipodi-0.dtd"
   xmlns:inkscape="http://www.inkscape.org/namespaces/inkscape"
   width="10.560995mm"
   height="10.560995mm"
   viewBox="0 0 10.560995 10.560995"
   version="1.1"
   id="svg8"
   inkscape:version="1.0.1 (3bc2e813f5, 2020-09-07)">
  <defs
     id="defs2">
    <pattern
       id="EMFhbasepattern"
       patternUnits="userSpaceOnUse"
       width="6"
       height="6"
       x="0"
       y="0" />
  </defs>
  <sodipodi:namedview
     id="base"
     pagecolor="#ffffff"
     bordercolor="#666666"
     borderopacity="1.0"
     inkscape:pageopacity="0.0"
     inkscape:pageshadow="2"
     inkscape:zoom="7.9195959"
     inkscape:cx="1.9640977"
     inkscape:cy="24.279438"
     inkscape:document-units="mm"
     inkscape:current-layer="layer1"
     inkscape:document-rotation="0"
     showgrid="false"
     fit-margin-top="0"
     fit-margin-left="0"
     fit-margin-right="0"
     fit-margin-bottom="0"
     inkscape:window-width="1920"
     inkscape:window-height="1027"
     inkscape:window-x="-8"
     inkscape:window-y="-8"
     inkscape:window-maximized="1" />
  <metadata
     id="metadata5">
    <rdf:RDF>
      <cc:Work
         rdf:about="">
        <dc:format>image/svg+xml</dc:format>
        <dc:type
           rdf:resource="http://purl.org/dc/dcmitype/StillImage" />
        <dc:title></dc:title>
      </cc:Work>
    </rdf:RDF>
  </metadata>
  <g
     inkscape:label="Layer 1"
     inkscape:groupmode="layer"
     id="layer1"
     transform="translate(-118.69569,-152.71355)">
    <path
       style="fill:#fcffff;fill-opacity:1;fill-rule:evenodd;stroke:none;stroke-width:0.264583"
       d="m 118.72162,163.24862 v -10.50914 h 10.50914 v 10.50914 z"
       id="path836" />
    <path
       style="fill:none;stroke:#231f20;stroke-width:0.0518555px;stroke-linecap:butt;stroke-linejoin:miter;stroke-miterlimit:4;stroke-dasharray:none;stroke-opacity:1"
       d="m 118.72162,163.24862 v -10.50914 h 10.50914 v 10.50914 z"
       id="path838" />
    <path
       style="fill:#1d1d1b;fill-opacity:1;fill-rule:evenodd;stroke:none;stroke-width:0.264583"
       d="m 124.50159,162.1978 h -1.0508 v -2.62741 0 c 0,-1.16077 0.94084,-2.10187 2.10159,-2.10187 v 0 h 2.62735 v 1.05106 h -2.62735 v 0 c -0.58025,0 -1.05079,0.47055 -1.05079,1.05081 v 0 z"
       id="path840" />
    <path
       style="fill:#1d1d1b;fill-opacity:1;fill-rule:evenodd;stroke:none;stroke-width:0.264583"
       d="m 119.77241,157.88793 h 3.75329 v 0.2252 h -3.75329 z"
       id="path842" />
    <path
       style="fill:#1d1d1b;fill-opacity:1;fill-rule:evenodd;stroke:none;stroke-width:0.264583"
       d="m 123.84979,157.54366 v -3.75337 h 0.22519 v 3.75337 z"
       id="path844" />
    <path
       style="fill:#1d1d1b;fill-opacity:1;fill-rule:evenodd;stroke:none;stroke-width:0.264583"
       d="m 128.25871,152.73948 0.0461,0.001 0.0495,0.004 0.0487,0.006 0.0483,0.009 0.0473,0.0108 0.0463,0.0132 0.0454,0.0154 0.0444,0.0175 0.0432,0.0195 0.0422,0.0216 0.0408,0.0235 0.0396,0.0254 0.0382,0.0271 0.037,0.0288 0.0353,0.0307 0.0338,0.0322 0.0322,0.0339 0.0307,0.0353 0.0291,0.0367 0.0271,0.0382 0.0252,0.0396 0.0235,0.0408 0.0216,0.0423 0.0197,0.0432 0.0175,0.0444 0.0154,0.0454 0.0132,0.0466 0.011,0.0471 0.008,0.0483 0.006,0.0487 0.004,0.0495 0.001,0.0461 v 8.56644 l -0.001,0.0461 -0.004,0.0495 -0.006,0.049 -0.008,0.048 -0.011,0.0473 -0.0132,0.0463 -0.0154,0.0454 -0.0175,0.0444 -0.0197,0.0435 -0.0216,0.042 -0.0235,0.0408 -0.0252,0.0396 -0.0271,0.0382 -0.0291,0.0367 -0.0307,0.0353 -0.0322,0.0339 -0.0338,0.0324 -0.0353,0.0305 -0.037,0.0288 -0.0382,0.0274 -0.0396,0.0252 -0.0408,0.0235 -0.0422,0.0216 -0.0432,0.0195 -0.0444,0.0175 -0.0454,0.0154 -0.0463,0.0132 -0.0473,0.011 -0.0483,0.008 -0.0487,0.006 -0.0495,0.004 -0.0461,9.6e-4 h -8.56504 l -0.0461,-9.6e-4 -0.0495,-0.004 -0.049,-0.006 -0.048,-0.008 -0.0473,-0.011 -0.0463,-0.0132 -0.0456,-0.0154 -0.0444,-0.0175 -0.0432,-0.0195 -0.042,-0.0216 -0.041,-0.0235 -0.0396,-0.0252 -0.0382,-0.0274 -0.0367,-0.0288 -0.0353,-0.0305 -0.0339,-0.0324 -0.0324,-0.0339 -0.0305,-0.0353 -0.029,-0.0367 -0.0271,-0.0382 -0.0254,-0.0396 -0.0235,-0.0408 -0.0216,-0.042 -0.0195,-0.0435 -0.0175,-0.0444 -0.0154,-0.0454 -0.0132,-0.0463 -0.0111,-0.0473 -0.009,-0.048 -0.006,-0.049 -0.004,-0.0495 -0.001,-0.0461 v -8.56643 l 0.001,-0.0461 0.004,-0.0494 0.006,-0.0487 0.009,-0.0482 0.0111,-0.0471 0.0132,-0.0466 0.0154,-0.0454 0.0175,-0.0444 0.0195,-0.0432 0.0216,-0.0422 0.0235,-0.0408 0.0254,-0.0396 0.0271,-0.0382 0.029,-0.0367 0.0305,-0.0353 0.0324,-0.0339 0.0339,-0.0322 0.0353,-0.0307 0.0367,-0.0288 0.0382,-0.0271 0.0396,-0.0255 0.041,-0.0235 0.042,-0.0216 0.0432,-0.0195 0.0444,-0.0175 0.0456,-0.0154 0.0463,-0.0132 0.0473,-0.0108 0.048,-0.009 0.049,-0.006 0.0495,-0.004 0.0461,-0.001 z m -8.5612,0.30033 h 8.55736 v 0 c 0.37307,0 0.67556,0.30202 0.67556,0.67486 v 0 8.55876 0 c 0,0.37284 -0.30249,0.67509 -0.67556,0.67509 v 0 h -8.55736 v 0 c -0.37331,0 -0.6758,-0.30225 -0.6758,-0.67509 v 0 -8.55876 0 c 0,-0.37284 0.30249,-0.67486 0.6758,-0.67486 z"
       id="path846" />
  </g>
</svg>
