<?xml version="1.0" encoding="UTF-8" standalone="no"?>
<!-- Created with Inkscape (http://www.inkscape.org/) -->

<svg
   xmlns:dc="http://purl.org/dc/elements/1.1/"
   xmlns:cc="http://creativecommons.org/ns#"
   xmlns:rdf="http://www.w3.org/1999/02/22-rdf-syntax-ns#"
   xmlns:svg="http://www.w3.org/2000/svg"
   xmlns="http://www.w3.org/2000/svg"
   xmlns:sodipodi="http://sodipodi.sourceforge.net/DTD/sodipodi-0.dtd"
   xmlns:inkscape="http://www.inkscape.org/namespaces/inkscape"
   width="10.561mm"
   height="5.1921353mm"
   viewBox="0 0 10.561 5.1921353"
   version="1.1"
   id="svg8"
   inkscape:version="0.92.2 (5c3e80d, 2017-08-06)">
  <defs
     id="defs2">
    <pattern
       y="0"
       x="0"
       height="6"
       width="6"
       patternUnits="userSpaceOnUse"
       id="EMFhbasepattern" />
    <pattern
       y="0"
       x="0"
       height="6"
       width="6"
       patternUnits="userSpaceOnUse"
       id="EMFhbasepattern-7" />
  </defs>
  <sodipodi:namedview
     id="base"
     pagecolor="#ffffff"
     bordercolor="#666666"
     borderopacity="1.0"
     inkscape:pageopacity="0.0"
     inkscape:pageshadow="2"
     inkscape:zoom="11.2"
     inkscape:cx="5.3625626"
     inkscape:cy="7.0175939"
     inkscape:document-units="mm"
     inkscape:current-layer="layer1"
     showgrid="false"
     fit-margin-top="0"
     fit-margin-left="0"
     fit-margin-right="0"
     fit-margin-bottom="0"
     inkscape:window-width="1920"
     inkscape:window-height="1027"
     inkscape:window-x="-8"
     inkscape:window-y="-8"
     inkscape:window-maximized="1" />
  <metadata
     id="metadata5">
    <rdf:RDF>
      <cc:Work
         rdf:about="">
        <dc:format>image/svg+xml</dc:format>
        <dc:type
           rdf:resource="http://purl.org/dc/dcmitype/StillImage" />
        <dc:title></dc:title>
      </cc:Work>
    </rdf:RDF>
  </metadata>
  <g
     inkscape:label="Layer 1"
     inkscape:groupmode="layer"
     id="layer1"
     transform="translate(-67.844482,-130.67462)">
    <path
       id="path858"
       d="m 67.87041,135.84083 v -5.14028 h 10.509144 v 5.14028 z"
       style="fill:#fcffff;fill-opacity:1;fill-rule:evenodd;stroke:none;stroke-width:0.26458332"
       inkscape:connector-curvature="0" />
    <path
       id="path860"
       d="m 67.87041,135.84083 v -5.14028 h 10.509144 v 5.14028 z"
       style="fill:none;stroke:#231f20;stroke-width:0.05185552px;stroke-linecap:butt;stroke-linejoin:miter;stroke-miterlimit:4;stroke-dasharray:none;stroke-opacity:1"
       inkscape:connector-curvature="0" />
    <path
       id="path862"
       d="m 76.69449,133.49497 h -0.848894 v -0.44856 h 0.848894 v -0.39853 l 1.10265,0.62281 -1.10265,0.62281 z"
       style="fill:#1d1d1b;fill-opacity:1;fill-rule:evenodd;stroke:none;stroke-width:0.26458332"
       inkscape:connector-curvature="0" />
    <path
       id="path864"
       d="m 69.517543,133.04641 h 0.848894 v 0.44856 h -0.848894 v 0.39853 l -1.10289,-0.62281 1.10289,-0.62281 z"
       style="fill:#1d1d1b;fill-opacity:1;fill-rule:evenodd;stroke:none;stroke-width:0.26458332"
       inkscape:connector-curvature="0" />
    <path
       id="path866"
       d="m 77.407503,130.70055 0.04609,0.001 0.04946,0.004 0.04897,0.006 0.04801,0.008 0.04729,0.0106 0.04657,0.0129 0.04537,0.015 0.04441,0.0171 0.04321,0.0193 0.04225,0.0209 0.04081,0.023 0.03961,0.0249 0.03817,0.0265 0.03697,0.0284 0.03529,0.0298 0.03385,0.0317 0.03217,0.0331 0.03073,0.0345 0.02881,0.0359 0.02713,0.0376 0.02545,0.0387 0.02353,0.0399 0.02161,0.0411 0.01969,0.0425 0.01729,0.0434 0.0156,0.0444 0.0132,0.0456 0.0108,0.046 0.0086,0.0472 0.0062,0.0477 0.0036,0.0484 0.0012,0.0451 v 3.2385 l -0.0012,0.0451 -0.0036,0.0484 -0.0062,0.0479 -0.0086,0.047 -0.0108,0.0463 -0.0132,0.0453 -0.0156,0.0446 -0.01729,0.0434 -0.01969,0.0423 -0.02161,0.0413 -0.02353,0.0399 -0.02545,0.0388 -0.02713,0.0373 -0.02881,0.0359 -0.03073,0.0348 -0.03217,0.0331 -0.03385,0.0315 -0.03529,0.0298 -0.03697,0.0284 -0.03817,0.0265 -0.03961,0.0249 -0.04081,0.023 -0.04225,0.0211 -0.04321,0.019 -0.04441,0.0171 -0.04537,0.015 -0.04657,0.0129 -0.04729,0.0108 -0.04801,0.008 -0.04897,0.006 -0.04946,0.004 -0.04609,0.001 h -8.565042 l -0.04609,-0.001 -0.04945,-0.004 -0.04873,-0.006 -0.04825,-0.008 -0.04729,-0.0108 -0.04633,-0.0129 -0.04561,-0.015 -0.04417,-0.0171 -0.04345,-0.019 -0.04201,-0.0211 -0.04105,-0.023 -0.03937,-0.0249 -0.03841,-0.0265 -0.03673,-0.0284 -0.03529,-0.0298 -0.03385,-0.0315 -0.03241,-0.0331 -0.03049,-0.0348 -0.02905,-0.0359 -0.02713,-0.0373 -0.02545,-0.0388 -0.02353,-0.0399 -0.02161,-0.0413 -0.01945,-0.0423 -0.01753,-0.0434 -0.01536,-0.0446 -0.0132,-0.0453 -0.01104,-0.0463 -0.0084,-0.047 -0.0062,-0.0479 -0.0038,-0.0484 -0.0012,-0.0451 v -3.2385 l 0.0012,-0.0451 0.0038,-0.0484 0.0062,-0.0477 0.0084,-0.0472 0.01104,-0.0463 0.0132,-0.0453 0.01536,-0.0444 0.01753,-0.0434 0.01945,-0.0425 0.02185,-0.0411 0.02329,-0.0399 0.02545,-0.0387 0.02713,-0.0376 0.02905,-0.0359 0.03049,-0.0345 0.03241,-0.0331 0.03385,-0.0317 0.03529,-0.0298 0.03673,-0.0284 0.03841,-0.0265 0.03937,-0.0249 0.04105,-0.023 0.04201,-0.0209 0.04345,-0.0193 0.04441,-0.0171 0.04537,-0.015 0.04633,-0.0129 0.04729,-0.0106 0.04825,-0.008 0.04873,-0.006 0.04945,-0.004 0.04609,-0.001 z m -8.561201,0.29379 h 8.55736 v 0 c 0.373072,0 0.675562,0.29591 0.675562,0.66086 v 0 3.23098 0 c 0,0.36495 -0.30249,0.66086 -0.675562,0.66086 v 0 h -8.55736 v 0 c -0.373072,0 -0.675562,-0.29591 -0.675562,-0.66086 v 0 -3.23098 0 c 0,-0.36495 0.30249,-0.66086 0.675562,-0.66086 z"
       style="fill:#1d1d1b;fill-opacity:1;fill-rule:evenodd;stroke:none;stroke-width:0.26458332"
       inkscape:connector-curvature="0" />
    <path
       id="path868"
       d="m 71.777579,132.98277 c 0.106592,-0.25387 0.20094,-0.4812 0.20094,-0.4812 0,0 -0.196619,-0.30107 -0.26792,-0.44432 -0.113314,-0.22733 0.175732,-0.22733 0.175732,-0.22733 0.115475,0 0.569931,0 0.569931,0 0.116195,-0.0117 0.210063,0.16439 -0.0074,0.17754 0,0 -0.147645,7.1e-4 -0.353386,0 -0.156767,-7e-4 -0.162529,-0.005 -0.174532,0.0146 -0.01921,0.0305 0.0725,0.16111 0.0725,0.16111 0.0605,0.12986 0.149325,0.25104 0.187256,0.31844 v 0 h 1.831989 l 0.10299,-0.14161 h -0.443933 v 0 c -0.06914,-0.0186 -0.09387,-0.0749 -0.08114,-0.13879 0.01681,-0.0831 0.06218,-0.086 0.08114,-0.086 0.08691,0 0.676282,0 0.676282,0 0,0 0.102991,0.0244 0.08811,0.12611 -0.01488,0.10145 -0.132519,0.0986 -0.132519,0.0986 v 0 l -0.09195,0.14161 0.209823,0.50116 c 0.107072,-0.0437 0.224467,-0.0679 0.347624,-0.0679 0.500069,0 0.908192,0.39924 0.908192,0.88842 0,0.48918 -0.408123,0.88841 -0.908192,0.88841 -0.459498,0 -0.841212,-0.337 -0.900029,-0.77122 l -0.556247,2.3e-4 -1.323756,-1.05539 v 0 l -0.06986,0.15922 c 0.279684,0.15171 0.469821,0.44363 0.469821,0.77757 0,0.48942 -0.407882,0.88842 -0.907952,0.88842 -0.500309,0 -0.908192,-0.399 -0.908192,-0.88842 0,-0.48918 0.407883,-0.88818 0.908192,-0.88818 0.103711,0 0.203341,0.0171 0.296489,0.0488 z m 2.028127,0.80575 h -0.391077 l 0.681804,-1.10071 0.190377,0.38279 v 0 c -0.0641,0.0395 -0.122437,0.0867 -0.174533,0.1402 0,0 0,2.4e-4 -2.4e-4,2.4e-4 -0.0036,0.004 -0.0072,0.008 -0.0108,0.0115 -0.141402,0.1503 -0.230709,0.34804 -0.239352,0.5655 z m 0.206942,-0.004 c 0.01248,-0.23743 0.139962,-0.44597 0.328898,-0.57302 l 0.262398,0.57302 z m 0.756466,-0.70289 c 0.417245,0 0.757667,0.33301 0.757667,0.74117 0,0.40816 -0.340422,0.74117 -0.757667,0.74117 -0.376433,0 -0.690447,-0.27125 -0.748064,-0.62422 l 0.726217,4.7e-4 c 0.09795,0 0.06026,-0.093 0.04249,-0.11601 l -0.313534,-0.68481 c 0.09027,-0.0371 0.189177,-0.0578 0.292888,-0.0578 z m -3.288024,-9.4e-4 c 0.08355,0 0.164209,0.0134 0.239592,0.038 l -0.257837,0.60707 c -0.117636,0.0975 -0.206942,0.11437 -0.16469,0.20549 0.03577,0.0775 0.141403,0.0195 0.262879,-0.0721 l 0.296729,-0.67072 v 0 l 0.0043,-0.007 c 0.224948,0.12893 0.376433,0.36754 0.376433,0.63995 0,0.40816 -0.340422,0.74117 -0.757427,0.74117 -0.417485,0 -0.757666,-0.33301 -0.757666,-0.74117 0,-0.40816 0.340181,-0.74093 0.757666,-0.74093 z m 2.446812,-0.43329 -0.648914,1.0359 -1.215244,-0.95887 0.03169,-0.0801 z"
       style="fill:#1d1d1b;fill-opacity:1;fill-rule:evenodd;stroke:none;stroke-width:0.26458332"
       inkscape:connector-curvature="0" />
  </g>
</svg>
