<?xml version="1.0" encoding="UTF-8" standalone="no"?>
<svg
   xmlns:dc="http://purl.org/dc/elements/1.1/"
   xmlns:cc="http://creativecommons.org/ns#"
   xmlns:rdf="http://www.w3.org/1999/02/22-rdf-syntax-ns#"
   xmlns:svg="http://www.w3.org/2000/svg"
   xmlns="http://www.w3.org/2000/svg"
   xmlns:sodipodi="http://sodipodi.sourceforge.net/DTD/sodipodi-0.dtd"
   xmlns:inkscape="http://www.inkscape.org/namespaces/inkscape"
   width="10.560995mm"
   height="5.1921306mm"
   viewBox="0 0 10.560995 5.1921306"
   version="1.1"
   id="svg8"
   inkscape:version="1.0.1 (3bc2e813f5, 2020-09-07)">
  <defs
     id="defs2">
    <pattern
       id="EMFhbasepattern"
       patternUnits="userSpaceOnUse"
       width="6"
       height="6"
       x="0"
       y="0" />
  </defs>
  <sodipodi:namedview
     id="base"
     pagecolor="#ffffff"
     bordercolor="#666666"
     borderopacity="1.0"
     inkscape:pageopacity="0.0"
     inkscape:pageshadow="2"
     inkscape:zoom="7.9195959"
     inkscape:cx="27.317914"
     inkscape:cy="19.590259"
     inkscape:document-units="mm"
     inkscape:current-layer="layer1"
     inkscape:document-rotation="0"
     showgrid="false"
     fit-margin-top="0"
     fit-margin-left="0"
     fit-margin-right="0"
     fit-margin-bottom="0"
     inkscape:window-width="1920"
     inkscape:window-height="1027"
     inkscape:window-x="-8"
     inkscape:window-y="-8"
     inkscape:window-maximized="1" />
  <metadata
     id="metadata5">
    <rdf:RDF>
      <cc:Work
         rdf:about="">
        <dc:format>image/svg+xml</dc:format>
        <dc:type
           rdf:resource="http://purl.org/dc/dcmitype/StillImage" />
        <dc:title></dc:title>
      </cc:Work>
    </rdf:RDF>
  </metadata>
  <g
     inkscape:label="Layer 1"
     inkscape:groupmode="layer"
     id="layer1"
     transform="translate(-108.86831,-99.457507)">
    <path
       style="fill:#fcffff;fill-opacity:1;fill-rule:evenodd;stroke:none;stroke-width:0.264583"
       d="m 108.89424,104.62371 v -5.140275 h 10.50914 v 5.140275 z"
       id="path836" />
    <path
       style="fill:none;stroke:#231f20;stroke-width:0.0518555px;stroke-linecap:butt;stroke-linejoin:miter;stroke-miterlimit:4;stroke-dasharray:none;stroke-opacity:1"
       d="m 108.89424,104.62371 v -5.140275 h 10.50914 v 5.140275 z"
       id="path838" />
    <path
       style="fill:#1d1d1b;fill-opacity:1;fill-rule:evenodd;stroke:none;stroke-width:0.264583"
       d="m 115.80038,103.29097 h 3.32164 l -4.8e-4,0.33348 c -4.8e-4,0.42107 -0.29217,0.73107 -0.8076,0.72026 h -8.38571 c -0.47463,0 -0.73894,-0.2959 -0.75335,-0.68668 h 6.6255 z"
       id="path840" />
    <path
       style="fill:#1d1d1b;fill-opacity:1;fill-rule:evenodd;stroke:none;stroke-width:0.264583"
       d="m 112.76059,102.01506 c 0.0744,-0.2588 0.22447,-0.67424 0.25952,-0.75244 0.13468,-0.0634 1.79598,-0.0676 1.91097,0.003 0.12076,0.23461 0.26024,0.60755 0.30537,0.74728 -0.27632,-0.0117 -0.83977,-0.0559 -1.2282,-0.0474 -0.35747,-0.007 -0.91492,0.0258 -1.25438,0.0493 v 0 z m 0.18726,-0.88631 c 0.16517,-0.0824 2.02645,-0.0686 2.08574,0.004 0,0 0.3277,0.73061 0.3738,0.87527 0.16108,0.0737 0.19926,0.2689 0.22998,0.51689 -0.0384,0.24048 -0.0859,0.43658 -0.22398,0.54296 0.005,0.005 -0.001,0.47721 -0.001,0.46006 0,0.16979 -0.3385,0.16979 -0.3385,0.0237 0,-0.14631 0,-0.41661 0,-0.41661 0,0 -2.14721,0 -2.14721,0 0,0 0.002,0.26114 0.002,0.37927 0,0.18341 -0.34714,0.19985 -0.34714,-0.009 0,-0.23602 -0.005,-0.22498 -0.005,-0.47298 -0.10347,-0.0472 -0.22519,-0.28439 -0.24175,-0.51947 0.0221,-0.21911 0.1366,-0.44386 0.2768,-0.49811 0.0461,-0.0695 0.2528,-0.81279 0.33154,-0.88348 h -0.01 z"
       id="path842" />
    <path
       style="fill:#1d1d1b;fill-opacity:1;fill-rule:evenodd;stroke:none;stroke-width:0.264583"
       d="m 118.43133,99.483435 0.0461,0.0012 0.0495,0.0038 0.049,0.0059 0.048,0.0084 0.0473,0.0108 0.0466,0.01292 0.0454,0.01503 0.0444,0.01714 0.0432,0.01902 0.0422,0.02114 0.0408,0.02302 0.0396,0.02489 0.0382,0.02654 0.037,0.02842 0.0353,0.02983 0.0339,0.03147 0.0322,0.03311 0.0307,0.03476 0.0288,0.03593 0.0271,0.03734 0.0254,0.03875 0.0235,0.04016 0.0216,0.04108 0.0197,0.0423 0.0175,0.0434 0.0154,0.0446 0.0132,0.0453 0.0108,0.0463 0.009,0.047 0.006,0.0479 0.004,0.0484 10e-4,0.0451 v 3.2385 l -10e-4,0.0451 -0.004,0.0484 -0.006,0.0477 -0.009,0.0472 -0.0108,0.0463 -0.0132,0.0453 -0.0154,0.0446 -0.0175,0.0432 -0.0197,0.0425 -0.0216,0.0411 -0.0235,0.0399 -0.0254,0.0388 -0.0271,0.0376 -0.0288,0.0359 -0.0307,0.0345 -0.0322,0.0331 -0.0339,0.0317 -0.0353,0.0298 -0.037,0.0284 -0.0382,0.0265 -0.0396,0.0249 -0.0408,0.023 -0.0422,0.0211 -0.0432,0.019 -0.0444,0.0171 -0.0454,0.015 -0.0466,0.0129 -0.0473,0.0106 -0.048,0.008 -0.049,0.006 -0.0495,0.004 -0.0461,0.001 h -8.56504 l -0.0461,-0.001 -0.0494,-0.004 -0.0487,-0.006 -0.0483,-0.008 -0.0473,-0.0106 -0.0463,-0.0129 -0.0456,-0.015 -0.0442,-0.0171 -0.0435,-0.019 -0.042,-0.0211 -0.041,-0.023 -0.0396,-0.0249 -0.0382,-0.0265 -0.0367,-0.0284 -0.0353,-0.0298 -0.0339,-0.0317 -0.0324,-0.0331 -0.0305,-0.0345 -0.029,-0.0359 -0.0271,-0.0376 -0.0254,-0.0388 -0.0235,-0.0399 -0.0216,-0.0411 -0.0195,-0.0425 -0.0175,-0.0432 -0.0154,-0.0446 -0.0132,-0.0453 -0.011,-0.0463 -0.008,-0.0472 -0.006,-0.0477 -0.004,-0.0484 -0.001,-0.0451 v -3.23849 l 0.001,-0.0451 0.004,-0.0484 0.006,-0.0479 0.008,-0.047 0.011,-0.0463 0.0132,-0.0453 0.0154,-0.0446 0.0175,-0.0434 0.0195,-0.0423 0.0216,-0.04109 0.0235,-0.04016 0.0254,-0.03875 0.0271,-0.03734 0.029,-0.03593 0.0305,-0.03476 0.0324,-0.03311 0.0339,-0.03147 0.0353,-0.02983 0.0367,-0.02842 0.0382,-0.02654 0.0396,-0.02489 0.041,-0.02302 0.042,-0.02114 0.0435,-0.01902 0.0442,-0.01714 0.0456,-0.01503 0.0463,-0.01292 0.0473,-0.0108 0.0483,-0.0084 0.0487,-0.0059 0.0494,-0.0038 0.0461,-0.0012 z m -8.5612,0.29379 h 8.55736 v 0 c 0.37331,0 0.67556,0.295905 0.67556,0.660855 v 0 3.23099 0 c -0.006,0.36494 -0.31113,0.66085 -0.67556,0.66085 v 0 h -8.55736 v 0 c -0.37307,0 -0.67556,-0.29591 -0.67556,-0.66085 v 0 -3.23099 0 c 0,-0.36495 0.30249,-0.660855 0.67556,-0.660855 z"
       id="path844" />
  </g>
</svg>
