<?xml version="1.0" encoding="UTF-8" standalone="no"?>
<!-- Created with Inkscape (http://www.inkscape.org/) -->

<svg
   xmlns:dc="http://purl.org/dc/elements/1.1/"
   xmlns:cc="http://creativecommons.org/ns#"
   xmlns:rdf="http://www.w3.org/1999/02/22-rdf-syntax-ns#"
   xmlns:svg="http://www.w3.org/2000/svg"
   xmlns="http://www.w3.org/2000/svg"
   xmlns:sodipodi="http://sodipodi.sourceforge.net/DTD/sodipodi-0.dtd"
   xmlns:inkscape="http://www.inkscape.org/namespaces/inkscape"
   width="10.561006mm"
   height="5.1921287mm"
   viewBox="0 0 10.561006 5.1921287"
   version="1.1"
   id="svg8"
   inkscape:version="0.92.2 (5c3e80d, 2017-08-06)">
  <defs
     id="defs2">
    <pattern
       y="0"
       x="0"
       height="6"
       width="6"
       patternUnits="userSpaceOnUse"
       id="EMFhbasepattern" />
  </defs>
  <sodipodi:namedview
     id="base"
     pagecolor="#ffffff"
     bordercolor="#666666"
     borderopacity="1.0"
     inkscape:pageopacity="0.0"
     inkscape:pageshadow="2"
     inkscape:zoom="5.6"
     inkscape:cx="34.327578"
     inkscape:cy="-6.16213"
     inkscape:document-units="mm"
     inkscape:current-layer="layer1"
     showgrid="false"
     fit-margin-top="0"
     fit-margin-left="0"
     fit-margin-right="0"
     fit-margin-bottom="0"
     inkscape:window-width="1920"
     inkscape:window-height="1027"
     inkscape:window-x="-8"
     inkscape:window-y="-8"
     inkscape:window-maximized="1" />
  <metadata
     id="metadata5">
    <rdf:RDF>
      <cc:Work
         rdf:about="">
        <dc:format>image/svg+xml</dc:format>
        <dc:type
           rdf:resource="http://purl.org/dc/dcmitype/StillImage" />
        <dc:title></dc:title>
      </cc:Work>
    </rdf:RDF>
  </metadata>
  <g
     inkscape:label="Layer 1"
     inkscape:groupmode="layer"
     id="layer1"
     transform="translate(126.98884,-95.588459)">
    <path
       id="path818"
       d="m -126.96291,100.75466 v -5.140273 h 10.50915 v 5.140273 z"
       style="fill:#fcffff;fill-opacity:1;fill-rule:evenodd;stroke:none;stroke-width:0.26458332"
       inkscape:connector-curvature="0" />
    <path
       id="path820"
       d="m -126.96291,100.75466 v -5.140273 h 10.50915 v 5.140273 z"
       style="fill:none;stroke:#231f20;stroke-width:0.05185552px;stroke-linecap:butt;stroke-linejoin:miter;stroke-miterlimit:4;stroke-dasharray:none;stroke-opacity:1"
       inkscape:connector-curvature="0" />
    <path
       id="path822"
       d="m -121.90123,99.056031 v -0.38397 h -0.65444 v -0.321502 l 0.69309,-1.209449 h 0.25856 v 1.208275 h 0.19902 v 0.322676 h -0.19902 v 0.38397 z m 0,-0.706646 v -0.650754 l -0.36731,0.650754 z"
       style="fill:#1d1d1b;fill-opacity:1;fill-rule:evenodd;stroke:none;stroke-width:0.26458332"
       inkscape:connector-curvature="0" />
    <path
       id="path824"
       d="m -121.08715,98.690614 h 0.30537 v 0.261851 c 0,0.148422 -0.0178,0.258799 -0.053,0.331131 -0.0432,0.08948 -0.11548,0.155701 -0.21679,0.199148 l -0.06,-0.151005 c 0.06,-0.02442 0.10323,-0.0573 0.12939,-0.09864 0.0264,-0.04133 0.0406,-0.100514 0.0425,-0.177073 h -0.14741 z"
       style="fill:#1d1d1b;fill-opacity:1;fill-rule:evenodd;stroke:none;stroke-width:0.26458332"
       inkscape:connector-curvature="0" />
    <path
       id="path826"
       d="m -118.91066,97.671858 h 0.28641 v 0.188816 c 0.0504,-0.07374 0.10587,-0.129165 0.16637,-0.165801 0.0605,-0.03687 0.1258,-0.05519 0.1959,-0.05519 0.0744,0 0.139,0.01832 0.1935,0.05495 0.0545,0.0364 0.0994,0.09135 0.13396,0.165331 0.0514,-0.07398 0.10683,-0.12893 0.16541,-0.165331 0.0591,-0.03664 0.12195,-0.05495 0.18869,-0.05495 0.079,0 0.14717,0.01879 0.20454,0.05566 0.0571,0.03687 0.10035,0.08995 0.13036,0.158285 0.0295,0.06881 0.0444,0.174255 0.0444,0.31704 v 0.885363 h -0.30801 v -0.79166 c 0,-0.138089 -0.0127,-0.230148 -0.0377,-0.275942 -0.025,-0.04579 -0.0667,-0.06857 -0.12579,-0.06857 -0.0687,0 -0.12412,0.03194 -0.16589,0.09605 -0.0425,0.06364 -0.0631,0.189049 -0.0631,0.374811 v 0.665315 h -0.30826 v -0.759252 c 0,-0.150065 -0.009,-0.247525 -0.0254,-0.290737 -0.0219,-0.0573 -0.0667,-0.08619 -0.13396,-0.08619 -0.0454,0 -0.0874,0.01479 -0.12555,0.04439 -0.0382,0.02936 -0.0653,0.07304 -0.0821,0.129869 -0.0168,0.05707 -0.0255,0.153353 -0.0255,0.288859 v 0.673063 h -0.30826 z"
       style="fill:#1d1d1b;fill-opacity:1;fill-rule:evenodd;stroke:none;stroke-width:0.26458332"
       inkscape:connector-curvature="0" />
    <path
       id="path828"
       d="m -120.36357,98.640826 0.25856,-0.03382 c 0.007,0.07069 0.0288,0.126347 0.0665,0.166975 0.0372,0.04063 0.0787,0.06106 0.12363,0.06106 0.0535,0 0.0994,-0.02607 0.1378,-0.0775 0.0382,-0.05167 0.0571,-0.131043 0.0571,-0.237898 0,-0.100748 -0.0187,-0.175663 -0.0569,-0.223806 -0.0379,-0.04838 -0.0864,-0.07257 -0.14476,-0.07257 -0.0747,0 -0.14164,0.03922 -0.2007,0.117422 l -0.21126,-0.03617 0.13372,-0.841917 h 0.6854 v 0.289094 h -0.48614 l -0.0437,0.275237 c 0.0583,-0.03452 0.11788,-0.0519 0.1779,-0.0519 0.10659,0 0.19686,0.0411 0.27128,0.123294 0.0936,0.104975 0.14068,0.243533 0.14068,0.415439 0,0.141612 -0.0401,0.27195 -0.12003,0.391251 -0.0797,0.118597 -0.19374,0.178247 -0.34235,0.178247 -0.12027,0 -0.22038,-0.03851 -0.30105,-0.115074 -0.0807,-0.07679 -0.12916,-0.185996 -0.14572,-0.327373 z"
       style="fill:#1d1d1b;fill-opacity:1;fill-rule:evenodd;stroke:none;stroke-width:0.26458332"
       inkscape:connector-curvature="0" />
    <path
       id="path830"
       d="m -122.53406,96.054955 h 1.65145 l -0.82584,0.807865 z"
       style="fill:#1d1d1b;fill-opacity:1;fill-rule:evenodd;stroke:none;stroke-width:0.26458332"
       inkscape:connector-curvature="0" />
    <path
       id="path832"
       d="m -120.88261,100.31386 h -1.65145 l 0.82561,-0.807632 z"
       style="fill:#1d1d1b;fill-opacity:1;fill-rule:evenodd;stroke:none;stroke-width:0.26458332"
       inkscape:connector-curvature="0" />
    <path
       id="path834"
       d="m -124.39774,96.238603 h 0.97037 l -1.23853,1.466838 h 0.75647 l -1.23373,1.470831 h 0.80496 l -1.79142,0.954168 v -0.954168 h 0.49383 l 0.98766,-1.173753 h -1.23541 z"
       style="fill:#1d1d1b;fill-opacity:1;fill-rule:evenodd;stroke:none;stroke-width:0.26458332"
       inkscape:connector-curvature="0" />
    <path
       id="path836"
       d="m -117.42365,95.618145 0.0461,0.0012 0.0495,0.0035 0.0487,0.0061 0.0483,0.0084 0.0473,0.0108 0.0463,0.01292 0.0454,0.01503 0.0446,0.01714 0.0432,0.01902 0.042,0.02114 0.041,0.02302 0.0396,0.02489 0.0382,0.02654 0.0367,0.02818 0.0353,0.03006 0.0339,0.03147 0.0324,0.03311 0.0305,0.03476 0.029,0.03593 0.0271,0.03734 0.0255,0.03875 0.0235,0.03992 0.0216,0.04133 0.0195,0.04227 0.0175,0.04345 0.0154,0.04439 0.0132,0.04556 0.011,0.04626 0.008,0.04697 0.006,0.04791 0.004,0.04814 0.001,0.04533 v 3.238269 l -0.001,0.04533 -0.004,0.04838 -0.006,0.04767 -0.008,0.04697 -0.011,0.04627 -0.0132,0.0456 -0.0154,0.0444 -0.0175,0.0435 -0.0195,0.0425 -0.0216,0.0411 -0.0235,0.0399 -0.0255,0.0387 -0.0271,0.0373 -0.029,0.0362 -0.0305,0.0345 -0.0324,0.0331 -0.0339,0.0315 -0.0353,0.0301 -0.0367,0.0284 -0.0382,0.0265 -0.0396,0.0247 -0.041,0.023 -0.042,0.0211 -0.0432,0.0193 -0.0446,0.0171 -0.0454,0.015 -0.0463,0.0129 -0.0473,0.0106 -0.0483,0.008 -0.0487,0.006 -0.0495,0.004 -0.0461,9.4e-4 h -8.56504 l -0.0463,-9.4e-4 -0.0492,-0.004 -0.049,-0.006 -0.048,-0.008 -0.0473,-0.0106 -0.0466,-0.0129 -0.0454,-0.015 -0.0444,-0.0171 -0.0432,-0.0193 -0.0422,-0.0211 -0.0408,-0.023 -0.0396,-0.0247 -0.0382,-0.0265 -0.0367,-0.0284 -0.0355,-0.0301 -0.0339,-0.0315 -0.0322,-0.0331 -0.0307,-0.0345 -0.0288,-0.0362 -0.0274,-0.0373 -0.0252,-0.0387 -0.0235,-0.0399 -0.0216,-0.0411 -0.0197,-0.0425 -0.0173,-0.0435 -0.0156,-0.0444 -0.0132,-0.0456 -0.0108,-0.04627 -0.009,-0.04697 -0.006,-0.04767 -0.004,-0.04838 -10e-4,-0.04533 v -3.238269 l 10e-4,-0.04509 0.004,-0.04838 0.006,-0.04791 0.009,-0.04697 0.0108,-0.04626 0.0132,-0.04556 0.0156,-0.04439 0.0173,-0.04345 0.0197,-0.04227 0.0216,-0.04133 0.0235,-0.03992 0.0252,-0.03875 0.0274,-0.03734 0.0288,-0.03593 0.0307,-0.03476 0.0322,-0.03311 0.0339,-0.03147 0.0355,-0.03006 0.0367,-0.02818 0.0382,-0.02654 0.0396,-0.02489 0.0408,-0.02302 0.0422,-0.02114 0.0432,-0.01902 0.0444,-0.01714 0.0454,-0.01503 0.0466,-0.01292 0.0473,-0.0108 0.048,-0.0084 0.049,-0.0061 0.0494,-0.0035 0.0461,-0.0012 z m -8.5612,0.29379 h 8.55736 v 0 c 0.37307,0 0.67556,0.295904 0.67556,0.660852 v 0 3.230989 0 c 0,0.364944 -0.30249,0.660854 -0.67556,0.660854 v 0 h -8.55736 v 0 c -0.37307,0 -0.67556,-0.29591 -0.67556,-0.660854 v 0 -3.230989 0 c 0,-0.364948 0.30249,-0.660852 0.67556,-0.660852 z"
       style="fill:#1d1d1b;fill-opacity:1;fill-rule:evenodd;stroke:none;stroke-width:0.26458332"
       inkscape:connector-curvature="0" />
  </g>
</svg>
