<?xml version="1.0" encoding="UTF-8" standalone="no"?>
<!-- Created with Inkscape (http://www.inkscape.org/) -->

<svg
   xmlns:dc="http://purl.org/dc/elements/1.1/"
   xmlns:cc="http://creativecommons.org/ns#"
   xmlns:rdf="http://www.w3.org/1999/02/22-rdf-syntax-ns#"
   xmlns:svg="http://www.w3.org/2000/svg"
   xmlns="http://www.w3.org/2000/svg"
   xmlns:sodipodi="http://sodipodi.sourceforge.net/DTD/sodipodi-0.dtd"
   xmlns:inkscape="http://www.inkscape.org/namespaces/inkscape"
   width="10.560995mm"
   height="5.1921353mm"
   viewBox="0 0 10.560995 5.1921353"
   version="1.1"
   id="svg8"
   inkscape:version="0.92.2 (5c3e80d, 2017-08-06)"
   sodipodi:docname="888.svg">
  <defs
     id="defs2">
    <pattern
       y="0"
       x="0"
       height="6"
       width="6"
       patternUnits="userSpaceOnUse"
       id="EMFhbasepattern" />
  </defs>
  <sodipodi:namedview
     id="base"
     pagecolor="#ffffff"
     bordercolor="#666666"
     borderopacity="1.0"
     inkscape:pageopacity="0.0"
     inkscape:pageshadow="2"
     inkscape:zoom="7.9195959"
     inkscape:cx="49.217693"
     inkscape:cy="-9.874381"
     inkscape:document-units="mm"
     inkscape:current-layer="layer1"
     showgrid="false"
     fit-margin-top="0"
     fit-margin-left="0"
     fit-margin-right="0"
     fit-margin-bottom="0"
     inkscape:window-width="1920"
     inkscape:window-height="1027"
     inkscape:window-x="-8"
     inkscape:window-y="-8"
     inkscape:window-maximized="1" />
  <metadata
     id="metadata5">
    <rdf:RDF>
      <cc:Work
         rdf:about="">
        <dc:format>image/svg+xml</dc:format>
        <dc:type
           rdf:resource="http://purl.org/dc/dcmitype/StillImage" />
        <dc:title></dc:title>
      </cc:Work>
    </rdf:RDF>
  </metadata>
  <g
     inkscape:label="Layer 1"
     inkscape:groupmode="layer"
     id="layer1"
     transform="translate(164.0305,-112.97536)">
    <path
       id="path818"
       d="m -164.00457,118.14157 v -5.14028 h 10.50914 v 5.14028 z"
       style="fill:#fcffff;fill-opacity:1;fill-rule:evenodd;stroke:none;stroke-width:0.26458332"
       inkscape:connector-curvature="0" />
    <path
       id="path820"
       d="m -164.00457,118.14157 v -5.14028 h 10.50914 v 5.14028 z"
       style="fill:none;stroke:#231f20;stroke-width:0.05185552px;stroke-linecap:butt;stroke-linejoin:miter;stroke-miterlimit:4;stroke-dasharray:none;stroke-opacity:1"
       inkscape:connector-curvature="0" />
    <path
       id="path822"
       d="m -163.25411,117.08289 h 9.00798 v 0.22028 h -9.00798 z"
       style="fill:#1d1d1b;fill-opacity:1;fill-rule:evenodd;stroke:none;stroke-width:0.26458332"
       inkscape:connector-curvature="0" />
    <path
       id="path824"
       d="m -161.01232,115.04632 1.11154,-0.15829 c 0,0 0.10347,-0.0345 0.17717,0.0214 l 0.38795,0.29426 c 0,0 0.0783,0.0479 0.0823,0.0977 l 0.0235,0.16016 v 0 l -2.31838,0.31869 c 0,0 -0.13252,-0.0122 -0.061,-0.12729 l 0.47511,-0.55329 c 0.0521,-0.0552 0.0975,-0.0482 0.12171,-0.0533 z m -1.57511,1.70825 c -0.0192,-0.13362 0.0759,-0.25715 0.21247,-0.27594 0.13636,-0.0188 0.26263,0.0742 0.28184,0.20784 0.0192,0.13363 -0.0759,0.25715 -0.21246,0.27594 -0.1366,0.0188 -0.26264,-0.0744 -0.28185,-0.20784 z m 3.01506,-0.4159 c -0.0192,-0.13363 0.0759,-0.25716 0.21247,-0.27595 0.1366,-0.0188 0.26,0.0747 0.2792,0.20831 0.0192,0.13363 -0.0761,0.25692 -0.2127,0.27571 -0.13636,0.0188 -0.25976,-0.0747 -0.27897,-0.20807 z m 0.77808,-0.63432 c 0.067,0.20032 0.10827,0.37199 0.0612,0.45583 -0.0547,0.0143 -0.14356,0.0228 -0.14356,0.0228 0,0 -0.084,-0.38725 -0.51495,-0.32126 -0.43069,0.0662 -0.39276,0.42906 -0.39276,0.42906 v 0 l -2.15176,0.2959 c 0,0 -0.0631,-0.34546 -0.47415,-0.28909 -0.34258,0.0472 -0.37355,0.3525 -0.3673,0.42154 -0.0948,0.0127 -0.2396,0.0636 -0.26841,-0.14654 -0.0134,-0.12376 -0.0281,-0.11343 0.0588,-0.18153 0.0411,-0.073 0.002,-0.23673 0.30537,-0.34781 l 0.7944,-0.25527 0.73942,-0.84662 c 0.0192,-0.0258 0.0636,-0.0366 0.0636,-0.0366 l 1.49205,-0.20808 c 0.0473,-0.004 0.0999,0.0369 0.0999,0.0369 l 0.71229,0.52018 c 0.0235,0.0261 0.0411,0.0528 0.0444,0.0817 z m -3.90933,1.06619 c -0.0283,-0.19633 0.11163,-0.37786 0.31233,-0.40557 0.2007,-0.0275 0.38604,0.10944 0.41436,0.30553 0.0283,0.19633 -0.11163,0.37786 -0.31233,0.40558 -0.2007,0.0275 -0.38627,-0.10921 -0.41436,-0.30554 z m 3.01218,-0.41567 c -0.0281,-0.19633 0.11163,-0.37763 0.31233,-0.40534 0.2007,-0.0275 0.38628,0.1092 0.41437,0.30553 0.0283,0.19633 -0.11164,0.37786 -0.31234,0.40534 -0.2007,0.0277 -0.38315,-0.10967 -0.41148,-0.30577 v 0 z"
       style="fill:#1d1d1b;fill-opacity:1;fill-rule:evenodd;stroke:none;stroke-width:0.26458332"
       inkscape:connector-curvature="0" />
    <path
       id="path826"
       d="m -156.51985,115.01391 1.10697,0.18529 c 0,0 0.10947,-0.002 0.16181,0.074 l 0.27608,0.39688 c 0,0 0.0593,0.0695 0.0475,0.11813 l -0.0283,0.15922 v 0 l -2.30564,-0.39759 c 0,0 -0.12196,-0.0519 -0.0178,-0.13973 l 0.62683,-0.38233 c 0.067,-0.0369 0.10803,-0.0164 0.13252,-0.0139 z m -2.03773,1.14839 c 0.024,-0.13293 0.1534,-0.2217 0.28928,-0.19821 0.13564,0.0235 0.22639,0.15006 0.20238,0.28299 -0.0238,0.13268 -0.1534,0.22145 -0.28904,0.19797 -0.13588,-0.0235 -0.22663,-0.15007 -0.20262,-0.28275 z m 2.99898,0.51572 c 0.024,-0.13293 0.1534,-0.22146 0.28928,-0.19798 0.13564,0.0233 0.22351,0.14936 0.1995,0.28228 -0.0238,0.13293 -0.1534,0.22146 -0.28904,0.19821 -0.13589,-0.0235 -0.22375,-0.14959 -0.19974,-0.28251 z m 1.03831,-0.28886 c 0.13708,0.0672 -0.0761,0.39994 -0.18366,0.37293 -0.0567,-0.003 -0.1438,-0.0216 -0.1438,-0.0216 0,0 0.0422,-0.39383 -0.3882,-0.46123 -0.43069,-0.0674 -0.50919,0.28933 -0.50919,0.28933 v 0 l -2.13976,-0.36918 c 0,0 0.049,-0.34757 -0.35963,-0.41802 l -0.32866,0.10897 -0.0391,-0.11061 0.14308,-0.13645 c 0.0123,-0.0188 0.17622,-0.0944 0.22831,-0.11366 0.0499,-0.003 0.13204,-0.11954 0.1983,-0.13363 l 0.45614,0.0587 0.97061,-0.58171 c 0.0267,-0.0188 0.0723,-0.0157 0.0723,-0.0157 l 1.4846,0.25316 c 0.0466,0.0101 0.0836,0.0653 0.0836,0.0653 l 0.51328,0.70993 c 0.0139,0.0319 0.0221,0.0629 0.0161,0.0914 z m -4.15277,-0.24682 c 0.0353,-0.1954 0.22543,-0.32573 0.42517,-0.29121 0.1995,0.0343 0.33274,0.22052 0.29769,0.41591 -0.0353,0.19515 -0.22567,0.32549 -0.42517,0.29097 -0.1995,-0.0343 -0.33298,-0.22052 -0.29769,-0.41567 z m 2.9961,0.51524 c 0.0351,-0.19515 0.22543,-0.32549 0.42493,-0.2912 0.19974,0.0345 0.33298,0.22075 0.29769,0.41591 -0.035,0.19515 -0.22543,0.32549 -0.42493,0.2912 -0.19974,-0.0345 -0.3301,-0.22028 -0.29481,-0.41544 v 0 z"
       style="fill:#1d1d1b;fill-opacity:1;fill-rule:evenodd;stroke:none;stroke-width:0.26458332"
       inkscape:connector-curvature="0" />
    <path
       id="path828"
       d="m -158.7494,113.87421 c 0.0612,-0.0115 0.18053,0.21347 0.18101,0.40816 l 9.6e-4,0.48636 -0.18053,-0.45959 c -0.0715,-0.18177 -0.0627,-0.42342 -0.001,-0.43493 z"
       style="fill:#1d1d1b;fill-opacity:1;fill-rule:evenodd;stroke:none;stroke-width:0.26458332"
       inkscape:connector-curvature="0" />
    <path
       id="path830"
       d="m -158.1641,114.85609 c 0.0214,0.0211 -0.0387,0.12987 -0.11908,0.18342 l -0.20046,0.13362 0.1402,-0.19727 c 0.0555,-0.078 0.15773,-0.14067 0.17934,-0.11977 z"
       style="fill:#1d1d1b;fill-opacity:1;fill-rule:evenodd;stroke:none;stroke-width:0.26458332"
       inkscape:connector-curvature="0" />
    <path
       id="path832"
       d="m -158.35736,114.60763 c 0.0293,0.008 0.0329,0.13128 -0.009,0.21699 l -0.1054,0.21371 0.0206,-0.2393 c 0.008,-0.0949 0.0646,-0.19915 0.0941,-0.1914 z"
       style="fill:#1d1d1b;fill-opacity:1;fill-rule:evenodd;stroke:none;stroke-width:0.26458332"
       inkscape:connector-curvature="0" />
    <path
       id="path834"
       d="m -158.89032,114.31994 c 0.0293,-0.008 0.0956,0.0975 0.10275,0.19234 l 0.018,0.23672 -0.10443,-0.21746 c -0.0413,-0.086 -0.0456,-0.20408 -0.0163,-0.2116 z"
       style="fill:#1d1d1b;fill-opacity:1;fill-rule:evenodd;stroke:none;stroke-width:0.26458332"
       inkscape:connector-curvature="0" />
    <path
       id="path836"
       d="m -158.03038,114.00149 c 0.0295,0.008 0.0331,0.13128 -0.009,0.21677 l -0.1054,0.21394 0.0207,-0.23931 c 0.008,-0.0949 0.0646,-0.19915 0.0939,-0.1914 z"
       style="fill:#1d1d1b;fill-opacity:1;fill-rule:evenodd;stroke:none;stroke-width:0.26458332"
       inkscape:connector-curvature="0" />
    <path
       id="path838"
       d="m -159.0771,114.7011 c 0.0238,-0.023 0.14573,0.0416 0.20598,0.12775 l 0.14981,0.21535 -0.22111,-0.15053 c -0.0876,-0.0597 -0.1582,-0.16956 -0.13468,-0.19257 z"
       style="fill:#1d1d1b;fill-opacity:1;fill-rule:evenodd;stroke:none;stroke-width:0.26458332"
       inkscape:connector-curvature="0" />
    <path
       id="path840"
       d="m -159.3563,114.2455 c 0.0235,-0.023 0.14572,0.0416 0.20574,0.12775 l 0.15005,0.21535 -0.22135,-0.15053 c -0.0876,-0.0596 -0.15797,-0.16956 -0.13444,-0.19257 z"
       style="fill:#1d1d1b;fill-opacity:1;fill-rule:evenodd;stroke:none;stroke-width:0.26458332"
       inkscape:connector-curvature="0" />
    <path
       id="path842"
       d="m -158.2971,113.59568 c 0.0651,0 0.14284,0.25434 0.10395,0.4549 l -0.097,0.50045 -0.0931,-0.5075 c -0.037,-0.20103 0.0209,-0.44785 0.0862,-0.44785 z"
       style="fill:#1d1d1b;fill-opacity:1;fill-rule:evenodd;stroke:none;stroke-width:0.26458332"
       inkscape:connector-curvature="0" />
    <path
       id="path844"
       d="m -157.44317,114.01065 c 0.0456,0.0444 -0.0819,0.27524 -0.25231,0.38891 l -0.42493,0.28345 0.29721,-0.41849 c 0.11763,-0.16557 0.33442,-0.29849 0.38003,-0.25387 z"
       style="fill:#1d1d1b;fill-opacity:1;fill-rule:evenodd;stroke:none;stroke-width:0.26458332"
       inkscape:connector-curvature="0" />
    <path
       id="path846"
       d="m -157.22927,114.61773 c 0.0365,0.0632 -0.17765,0.28087 -0.40236,0.35555 l -0.56128,0.18623 0.46189,-0.37458 c 0.18294,-0.14818 0.46526,-0.23038 0.50175,-0.1672 z"
       style="fill:#1d1d1b;fill-opacity:1;fill-rule:evenodd;stroke:none;stroke-width:0.26458332"
       inkscape:connector-curvature="0" />
    <path
       id="path848"
       d="m -154.46532,113.00505 0.0461,0.001 0.0495,0.004 0.0487,0.006 0.0483,0.008 0.0473,0.0108 0.0463,0.0129 0.0456,0.015 0.0442,0.0171 0.0435,0.019 0.042,0.0211 0.041,0.023 0.0396,0.0249 0.0382,0.0265 0.0367,0.0282 0.0355,0.0301 0.0336,0.0315 0.0324,0.0331 0.0305,0.0348 0.029,0.0359 0.0271,0.0373 0.0255,0.0387 0.0235,0.0399 0.0216,0.0413 0.0195,0.0423 0.0175,0.0435 0.0154,0.0444 0.0132,0.0456 0.011,0.0463 0.008,0.047 0.006,0.0479 0.004,0.0481 0.001,0.0453 v 3.23826 l -0.001,0.0453 -0.004,0.0484 -0.006,0.0477 -0.008,0.047 -0.011,0.0463 -0.0132,0.0456 -0.0154,0.0444 -0.0175,0.0435 -0.0195,0.0425 -0.0216,0.0411 -0.0235,0.0399 -0.0255,0.0387 -0.0271,0.0373 -0.029,0.0362 -0.0305,0.0345 -0.0324,0.0331 -0.0339,0.0315 -0.0353,0.0301 -0.0367,0.0284 -0.0382,0.0265 -0.0396,0.0247 -0.041,0.023 -0.042,0.0211 -0.0435,0.0192 -0.0442,0.0172 -0.0456,0.015 -0.0463,0.0129 -0.0473,0.0106 -0.0483,0.008 -0.0487,0.006 -0.0495,0.004 -0.0461,9.4e-4 h -8.56504 l -0.0461,-9.4e-4 -0.0495,-0.004 -0.049,-0.006 -0.048,-0.008 -0.0473,-0.0106 -0.0466,-0.0129 -0.0454,-0.015 -0.0444,-0.0172 -0.0432,-0.0192 -0.0422,-0.0211 -0.0408,-0.023 -0.0396,-0.0247 -0.0382,-0.0265 -0.037,-0.0284 -0.0353,-0.0301 -0.0339,-0.0315 -0.0322,-0.0331 -0.0307,-0.0345 -0.0288,-0.0362 -0.0271,-0.0373 -0.0255,-0.0387 -0.0235,-0.0399 -0.0216,-0.0411 -0.0195,-0.0425 -0.0175,-0.0435 -0.0156,-0.0444 -0.0132,-0.0456 -0.0108,-0.0463 -0.009,-0.047 -0.006,-0.0477 -0.004,-0.0484 -0.001,-0.0453 v -3.23826 l 0.001,-0.0451 0.004,-0.0484 0.006,-0.0479 0.009,-0.047 0.0108,-0.0463 0.0132,-0.0456 0.0156,-0.0444 0.0175,-0.0435 0.0195,-0.0423 0.0216,-0.0413 0.0235,-0.0399 0.0255,-0.0387 0.0271,-0.0373 0.0288,-0.0359 0.0307,-0.0348 0.0322,-0.0331 0.0339,-0.0315 0.0353,-0.0301 0.037,-0.0282 0.0382,-0.0265 0.0396,-0.0249 0.0408,-0.023 0.0422,-0.0211 0.0432,-0.019 0.0444,-0.0171 0.0454,-0.015 0.0466,-0.0129 0.0473,-0.0108 0.048,-0.008 0.049,-0.006 0.0495,-0.004 0.0461,-0.001 z m -8.5612,0.29379 h 8.55736 v 0 c 0.37307,0 0.67556,0.2959 0.67556,0.66085 v 0 3.23099 0 c 0,0.36495 -0.30249,0.66085 -0.67556,0.66085 v 0 h -8.55736 v 0 c -0.37307,0 -0.67556,-0.2959 -0.67556,-0.66085 v 0 -3.23099 0 c 0,-0.36495 0.30249,-0.66085 0.67556,-0.66085 z"
       style="fill:#1d1d1b;fill-opacity:1;fill-rule:evenodd;stroke:none;stroke-width:0.26458332"
       inkscape:connector-curvature="0" />
  </g>
</svg>
