<?xml version="1.0" encoding="UTF-8" standalone="no"?>
<!-- Created with Inkscape (http://www.inkscape.org/) -->

<svg
   xmlns:dc="http://purl.org/dc/elements/1.1/"
   xmlns:cc="http://creativecommons.org/ns#"
   xmlns:rdf="http://www.w3.org/1999/02/22-rdf-syntax-ns#"
   xmlns:svg="http://www.w3.org/2000/svg"
   xmlns="http://www.w3.org/2000/svg"
   xmlns:sodipodi="http://sodipodi.sourceforge.net/DTD/sodipodi-0.dtd"
   xmlns:inkscape="http://www.inkscape.org/namespaces/inkscape"
   width="10.561mm"
   height="5.1921353mm"
   viewBox="0 0 10.561 5.1921353"
   version="1.1"
   id="svg8"
   inkscape:version="0.92.2 (5c3e80d, 2017-08-06)">
  <defs
     id="defs2">
    <pattern
       y="0"
       x="0"
       height="6"
       width="6"
       patternUnits="userSpaceOnUse"
       id="EMFhbasepattern" />
    <pattern
       y="0"
       x="0"
       height="6"
       width="6"
       patternUnits="userSpaceOnUse"
       id="EMFhbasepattern-7" />
    <pattern
       y="0"
       x="0"
       height="6"
       width="6"
       patternUnits="userSpaceOnUse"
       id="EMFhbasepattern-1" />
    <pattern
       y="0"
       x="0"
       height="6"
       width="6"
       patternUnits="userSpaceOnUse"
       id="EMFhbasepattern-4" />
  </defs>
  <sodipodi:namedview
     id="base"
     pagecolor="#ffffff"
     bordercolor="#666666"
     borderopacity="1.0"
     inkscape:pageopacity="0.0"
     inkscape:pageshadow="2"
     inkscape:zoom="11.2"
     inkscape:cx="14.981875"
     inkscape:cy="10.588138"
     inkscape:document-units="mm"
     inkscape:current-layer="layer1"
     showgrid="false"
     fit-margin-top="0"
     fit-margin-left="0"
     fit-margin-right="0"
     fit-margin-bottom="0"
     inkscape:window-width="1920"
     inkscape:window-height="1027"
     inkscape:window-x="-8"
     inkscape:window-y="-8"
     inkscape:window-maximized="1" />
  <metadata
     id="metadata5">
    <rdf:RDF>
      <cc:Work
         rdf:about="">
        <dc:format>image/svg+xml</dc:format>
        <dc:type
           rdf:resource="http://purl.org/dc/dcmitype/StillImage" />
        <dc:title></dc:title>
      </cc:Work>
    </rdf:RDF>
  </metadata>
  <g
     inkscape:label="Layer 1"
     inkscape:groupmode="layer"
     id="layer1"
     transform="translate(-65.299372,-139.17885)">
    <path
       id="path1025"
       d="m 65.3253,144.34506 v -5.14028 h 10.509144 v 5.14028 z"
       style="fill:#fcffff;fill-opacity:1;fill-rule:evenodd;stroke:none;stroke-width:0.26458332"
       inkscape:connector-curvature="0" />
    <path
       id="path1027"
       d="m 65.3253,144.34506 v -5.14028 h 10.509144 v 5.14028 z"
       style="fill:none;stroke:#231f20;stroke-width:0.05185552px;stroke-linecap:butt;stroke-linejoin:miter;stroke-miterlimit:4;stroke-dasharray:none;stroke-opacity:1"
       inkscape:connector-curvature="0" />
    <path
       id="path1029"
       d="m 69.408442,140.68977 -0.222067,-0.73956 h 0.1342 l 0.157727,0.54745 0.150285,-0.54745 h 0.134441 l -0.219666,0.73956 z"
       style="fill:#1d1d1b;fill-opacity:1;fill-rule:evenodd;stroke:none;stroke-width:0.26458332"
       inkscape:connector-curvature="0" />
    <path
       id="path1031"
       d="m 70.084244,140.31706 -0.107553,-0.0218 c 0.01297,-0.0547 0.03433,-0.094 0.06458,-0.1179 0.02977,-0.024 0.07298,-0.0359 0.129399,-0.0359 0.05017,0 0.08835,0.007 0.114754,0.0207 0.02617,0.0139 0.04513,0.0327 0.05642,0.0564 0.01128,0.0237 0.01705,0.0669 0.01705,0.12964 l -0.0012,0.16557 c 0,0.0463 0.0022,0.081 0.0058,0.10357 0.0036,0.0228 0.01056,0.047 0.02065,0.0726 h -0.117155 l -0.01536,-0.0585 c -0.02041,0.0235 -0.04225,0.0413 -0.0653,0.0533 -0.02329,0.0117 -0.04801,0.0176 -0.07418,0.0176 -0.04369,0 -0.07946,-0.0146 -0.107312,-0.0432 -0.02785,-0.0289 -0.04177,-0.0672 -0.04177,-0.11508 0,-0.0303 0.0055,-0.0566 0.01705,-0.0794 0.01152,-0.0225 0.02737,-0.0406 0.04801,-0.054 0.02065,-0.0136 0.05378,-0.0256 0.09939,-0.0359 0.05498,-0.0125 0.09363,-0.024 0.115234,-0.035 0,-0.0296 -0.0022,-0.0491 -0.0065,-0.0582 -0.0043,-0.009 -0.01224,-0.0167 -0.02353,-0.0228 -0.01152,-0.006 -0.02761,-0.009 -0.04873,-0.009 -0.02113,0 -0.03793,0.005 -0.05017,0.0141 -0.012,0.009 -0.02185,0.027 -0.02953,0.0531 z m 0.158447,0.11461 c -0.01512,0.006 -0.03889,0.0131 -0.07082,0.0214 -0.03697,0.009 -0.06122,0.02 -0.0725,0.0312 -0.01152,0.0115 -0.01705,0.0265 -0.01705,0.0449 0,0.0204 0.0062,0.0378 0.01873,0.0519 0.01272,0.0139 0.02857,0.0209 0.04753,0.0209 0.0168,0 0.03361,-0.006 0.05017,-0.0169 0.01656,-0.0113 0.02785,-0.0249 0.03433,-0.0404 0.0065,-0.0153 0.0096,-0.0437 0.0096,-0.0846 z m -0.212224,-0.37178 V 139.938 h 0.102511 v 0.12189 z m 0.181495,0 V 139.938 h 0.102511 v 0.12189 z"
       style="fill:#1d1d1b;fill-opacity:1;fill-rule:evenodd;stroke:none;stroke-width:0.26458332"
       inkscape:connector-curvature="0" />
    <path
       id="path1033"
       d="m 70.644571,140.68977 v -0.73956 h 0.119316 v 0.73956 z"
       style="fill:#1d1d1b;fill-opacity:1;fill-rule:evenodd;stroke:none;stroke-width:0.26458332"
       inkscape:connector-curvature="0" />
    <path
       id="path1035"
       d="m 71.051493,140.0815 v -0.13129 h 0.119316 v 0.13129 z m 0.119316,0.0723 v 0.51903 c 0,0.0728 -0.0038,0.1226 -0.01224,0.14961 -0.0082,0.027 -0.02329,0.0477 -0.04441,0.0625 -0.02137,0.0146 -0.04777,0.0218 -0.07922,0.0218 -0.02353,0 -0.05137,-0.005 -0.08258,-0.0153 l 0.02065,-0.12048 c 0.01152,0.003 0.02113,0.004 0.02953,0.004 0.02065,0 0.03505,-0.008 0.04297,-0.0242 0.0038,-0.009 0.006,-0.0376 0.006,-0.0862 v -0.51128 z"
       style="fill:#1d1d1b;fill-opacity:1;fill-rule:evenodd;stroke:none;stroke-width:0.26458332"
       inkscape:connector-curvature="0" />
    <path
       id="path1037"
       d="m 71.552523,140.31706 -0.107552,-0.0218 c 0.01296,-0.0547 0.03433,-0.094 0.06458,-0.1179 0.02977,-0.024 0.07298,-0.0359 0.129399,-0.0359 0.05017,0 0.08835,0.007 0.114754,0.0207 0.02641,0.0139 0.04513,0.0327 0.05642,0.0564 0.01128,0.0237 0.01704,0.0669 0.01704,0.12964 l -0.0012,0.16557 c 0,0.0463 0.0022,0.081 0.0058,0.10357 0.0036,0.0228 0.01056,0.047 0.02065,0.0726 h -0.117155 l -0.01536,-0.0585 c -0.02041,0.0235 -0.04225,0.0413 -0.0653,0.0533 -0.02329,0.0117 -0.04778,0.0176 -0.07418,0.0176 -0.04369,0 -0.07946,-0.0146 -0.107312,-0.0432 -0.02785,-0.0289 -0.04177,-0.0672 -0.04177,-0.11508 0,-0.0303 0.0055,-0.0566 0.01704,-0.0794 0.01152,-0.0225 0.02737,-0.0406 0.04801,-0.054 0.02089,-0.0136 0.05378,-0.0256 0.09939,-0.0359 0.05498,-0.0125 0.09363,-0.024 0.115234,-0.035 0,-0.0296 -0.0022,-0.0491 -0.0065,-0.0582 -0.0043,-0.009 -0.01224,-0.0167 -0.02353,-0.0228 -0.01152,-0.006 -0.02761,-0.009 -0.04873,-0.009 -0.02113,0 -0.03793,0.005 -0.05018,0.0141 -0.012,0.009 -0.02185,0.027 -0.02953,0.0531 z m 0.158447,0.11461 c -0.01512,0.006 -0.03889,0.0131 -0.07082,0.0214 -0.03697,0.009 -0.06122,0.02 -0.0725,0.0312 -0.01152,0.0115 -0.01704,0.0265 -0.01704,0.0449 0,0.0204 0.0062,0.0378 0.01873,0.0519 0.01272,0.0139 0.02857,0.0209 0.04753,0.0209 0.0168,0 0.03361,-0.006 0.05017,-0.0169 0.01656,-0.0113 0.02785,-0.0249 0.03433,-0.0404 0.0065,-0.0153 0.0096,-0.0437 0.0096,-0.0846 z"
       style="fill:#1d1d1b;fill-opacity:1;fill-rule:evenodd;stroke:none;stroke-width:0.26458332"
       inkscape:connector-curvature="0" />
    <path
       id="path1039"
       d="m 68.690147,141.38541 -0.107553,-0.0216 c 0.01296,-0.0547 0.03433,-0.094 0.06458,-0.1179 0.02977,-0.024 0.07298,-0.0359 0.129158,-0.0359 0.05017,0 0.08835,0.007 0.114755,0.0207 0.02641,0.0136 0.04513,0.0324 0.05666,0.0564 0.01128,0.0237 0.01704,0.0669 0.01704,0.1294 l -0.0012,0.16558 c 0,0.0465 0.0019,0.0813 0.0058,0.1038 0.0036,0.0228 0.01056,0.047 0.02065,0.0726 h -0.117155 l -0.0156,-0.0585 c -0.02017,0.0235 -0.04201,0.0413 -0.0653,0.0531 -0.02305,0.012 -0.04777,0.0179 -0.07394,0.0179 -0.04369,0 -0.07946,-0.0146 -0.107312,-0.0432 -0.02809,-0.0289 -0.04201,-0.0672 -0.04201,-0.11508 0,-0.0305 0.0058,-0.0568 0.01729,-0.0794 0.01128,-0.0225 0.02737,-0.0406 0.04801,-0.0542 0.02065,-0.0134 0.05378,-0.0254 0.09939,-0.0357 0.05498,-0.0125 0.09363,-0.024 0.115234,-0.035 0,-0.0296 -0.0022,-0.0491 -0.0065,-0.0582 -0.0043,-0.009 -0.01224,-0.0167 -0.02377,-0.0228 -0.01128,-0.006 -0.02761,-0.009 -0.0485,-0.009 -0.02137,0 -0.03793,0.004 -0.05017,0.0141 -0.012,0.009 -0.02185,0.027 -0.02953,0.0528 z m 0.158447,0.11461 c -0.01512,0.006 -0.03889,0.0134 -0.07106,0.0214 -0.03697,0.01 -0.06098,0.0202 -0.0725,0.0315 -0.01128,0.0115 -0.01704,0.0265 -0.01704,0.0449 0,0.0204 0.0065,0.0378 0.01897,0.0519 0.01272,0.0139 0.02857,0.0209 0.04753,0.0209 0.0168,0 0.03361,-0.006 0.05017,-0.0169 0.01632,-0.0115 0.02785,-0.0249 0.03433,-0.0404 0.0065,-0.0155 0.0096,-0.0437 0.0096,-0.0846 z"
       style="fill:#1d1d1b;fill-opacity:1;fill-rule:evenodd;stroke:none;stroke-width:0.26458332"
       inkscape:connector-curvature="0" />
    <path
       id="path1041"
       d="m 69.364268,141.75836 h -0.119315 v -0.53594 h 0.110913 v 0.0761 c 0.01897,-0.0357 0.03601,-0.0592 0.05089,-0.0709 0.01488,-0.0117 0.03217,-0.0176 0.05162,-0.0176 0.02737,0 0.0533,0.009 0.07802,0.0268 l -0.03721,0.12353 c -0.01969,-0.0155 -0.03817,-0.0233 -0.0557,-0.0233 -0.01656,0 -0.03097,0.006 -0.04369,0.0179 -0.01248,0.012 -0.02161,0.0336 -0.02713,0.0648 -0.0055,0.0315 -0.0084,0.089 -0.0084,0.17286 z"
       style="fill:#1d1d1b;fill-opacity:1;fill-rule:evenodd;stroke:none;stroke-width:0.26458332"
       inkscape:connector-curvature="0" />
    <path
       id="path1043"
       d="m 69.877542,141.75836 -0.180294,-0.53594 h 0.125558 l 0.08354,0.27384 0.02473,0.0911 0.02545,-0.0914 0.08475,-0.27361 h 0.121716 l -0.177413,0.53594 z"
       style="fill:#1d1d1b;fill-opacity:1;fill-rule:evenodd;stroke:none;stroke-width:0.26458332"
       inkscape:connector-curvature="0" />
    <path
       id="path1045"
       d="m 70.495007,141.38541 -0.107553,-0.0216 c 0.01296,-0.0547 0.03433,-0.094 0.06458,-0.1179 0.02977,-0.024 0.07298,-0.0359 0.129158,-0.0359 0.05017,0 0.08835,0.007 0.114755,0.0207 0.02641,0.0136 0.04513,0.0324 0.05666,0.0564 0.01128,0.0237 0.01705,0.0669 0.01705,0.1294 l -0.0012,0.16558 c 0,0.0465 0.0019,0.0813 0.0058,0.1038 0.0036,0.0228 0.01056,0.047 0.02065,0.0726 h -0.117155 l -0.0156,-0.0585 c -0.02017,0.0235 -0.04201,0.0413 -0.0653,0.0531 -0.02305,0.012 -0.04777,0.0179 -0.07394,0.0179 -0.04369,0 -0.07946,-0.0146 -0.107312,-0.0432 -0.02809,-0.0289 -0.04201,-0.0672 -0.04201,-0.11508 0,-0.0305 0.0058,-0.0568 0.01729,-0.0794 0.01128,-0.0225 0.02737,-0.0406 0.04802,-0.0542 0.02065,-0.0134 0.05378,-0.0254 0.09939,-0.0357 0.05498,-0.0125 0.09363,-0.024 0.115234,-0.035 0,-0.0296 -0.0022,-0.0491 -0.0065,-0.0582 -0.0043,-0.009 -0.01224,-0.0167 -0.02377,-0.0228 -0.01128,-0.006 -0.02761,-0.009 -0.0485,-0.009 -0.02137,0 -0.03793,0.004 -0.05017,0.0141 -0.012,0.009 -0.02185,0.027 -0.02953,0.0528 z m 0.158447,0.11461 c -0.01512,0.006 -0.03889,0.0134 -0.07106,0.0214 -0.03697,0.01 -0.06098,0.0202 -0.07226,0.0315 -0.01152,0.0115 -0.01729,0.0265 -0.01729,0.0449 0,0.0204 0.0065,0.0378 0.01897,0.0519 0.01272,0.0139 0.02857,0.0209 0.04753,0.0209 0.01681,0 0.03361,-0.006 0.05018,-0.0169 0.01656,-0.0115 0.02785,-0.0249 0.03433,-0.0404 0.0065,-0.0155 0.0096,-0.0437 0.0096,-0.0846 z"
       style="fill:#1d1d1b;fill-opacity:1;fill-rule:evenodd;stroke:none;stroke-width:0.26458332"
       inkscape:connector-curvature="0" />
    <path
       id="path1047"
       d="m 71.261076,141.22242 v 0.1125 h -0.08138 v 0.2163 c 0,0.047 0.0012,0.074 0.0038,0.0815 0.0048,0.0136 0.01464,0.0204 0.02929,0.0204 0.0108,0 0.02689,-0.005 0.0473,-0.0139 l 0.01056,0.11038 c -0.02761,0.0141 -0.05882,0.0211 -0.09363,0.0211 -0.03025,0 -0.0545,-0.007 -0.07274,-0.0211 -0.01825,-0.0143 -0.03049,-0.0348 -0.03649,-0.0613 -0.0048,-0.0195 -0.0074,-0.0592 -0.0074,-0.11931 v -0.23415 h -0.05474 v -0.1125 h 0.05474 v -0.10639 l 0.119316,-0.0827 v 0.18905 z"
       style="fill:#1d1d1b;fill-opacity:1;fill-rule:evenodd;stroke:none;stroke-width:0.26458332"
       inkscape:connector-curvature="0" />
    <path
       id="path1049"
       d="m 71.807479,141.75836 v -0.0803 c -0.01656,0.0291 -0.03817,0.0517 -0.06482,0.0681 -0.02689,0.0164 -0.05474,0.0247 -0.08403,0.0247 -0.02953,0 -0.05594,-0.008 -0.07922,-0.0228 -0.02353,-0.0153 -0.04081,-0.0366 -0.05234,-0.0646 -0.01152,-0.0279 -0.01729,-0.0686 -0.01729,-0.12189 v -0.33913 h 0.119316 v 0.24613 c 0,0.0702 0.0017,0.11485 0.0055,0.1341 0.0034,0.0188 0.01128,0.0338 0.02377,0.0439 0.01224,0.0106 0.02713,0.0157 0.04465,0.0157 0.01993,0 0.03817,-0.007 0.05498,-0.0204 0.01681,-0.0136 0.02785,-0.0312 0.03313,-0.0526 0.0053,-0.0214 0.0079,-0.0684 0.0079,-0.14092 v -0.22593 h 0.119316 v 0.53594 z"
       style="fill:#1d1d1b;fill-opacity:1;fill-rule:evenodd;stroke:none;stroke-width:0.26458332"
       inkscape:connector-curvature="0" />
    <path
       id="path1051"
       d="m 72.621083,141.75836 h -0.110914 v -0.0787 c -0.01801,0.0303 -0.03961,0.0531 -0.06434,0.0681 -0.02473,0.0155 -0.04994,0.023 -0.0761,0.023 -0.04994,0 -0.09363,-0.0244 -0.13108,-0.0735 -0.03697,-0.0491 -0.0557,-0.11907 -0.0557,-0.20996 0,-0.0916 0.01824,-0.16088 0.0545,-0.20738 0.03625,-0.0467 0.08114,-0.07 0.1342,-0.07 0.02521,0 0.0485,0.006 0.07034,0.0186 0.02161,0.0127 0.04153,0.0312 0.05978,0.0561 v -0.26586 h 0.119316 z m -0.316655,-0.27947 c 0,0.0486 0.0041,0.0848 0.01272,0.10873 0.0082,0.0237 0.02017,0.0416 0.03577,0.0538 0.0156,0.0118 0.03337,0.0179 0.05282,0.0179 0.02617,0 0.0485,-0.0139 0.0677,-0.0416 0.0192,-0.0277 0.02881,-0.0693 0.02881,-0.12517 0,-0.0618 -0.0094,-0.10616 -0.02785,-0.1334 -0.01873,-0.0272 -0.04249,-0.0406 -0.0713,-0.0406 -0.02737,0 -0.05066,0.0131 -0.06986,0.0399 -0.01921,0.0265 -0.02881,0.0669 -0.02881,0.12049 z"
       style="fill:#1d1d1b;fill-opacity:1;fill-rule:evenodd;stroke:none;stroke-width:0.26458332"
       inkscape:connector-curvature="0" />
    <path
       id="path1053"
       d="m 74.864554,139.20854 0.04609,0.001 0.04945,0.004 0.04897,0.006 0.04802,0.008 0.04729,0.0106 0.04633,0.0129 0.04561,0.015 0.04441,0.0171 0.04321,0.0193 0.04225,0.0211 0.04081,0.023 0.03961,0.0247 0.03817,0.0268 0.03673,0.0282 0.03553,0.0301 0.03385,0.0315 0.03217,0.0331 0.03073,0.0345 0.02881,0.0362 0.02713,0.0373 0.02545,0.0387 0.02353,0.0399 0.02161,0.0413 0.01945,0.0423 0.01752,0.0435 0.01537,0.0444 0.0132,0.0456 0.01104,0.0463 0.0086,0.047 0.006,0.0479 0.0038,0.0484 0.0012,0.0451 v 3.23842 l -0.0012,0.0451 -0.0038,0.0484 -0.006,0.0479 -0.0086,0.047 -0.01104,0.0463 -0.0132,0.0456 -0.01537,0.0444 -0.01752,0.0435 -0.01945,0.0425 -0.02161,0.0411 -0.02353,0.0399 -0.02545,0.0387 -0.02713,0.0373 -0.02881,0.0362 -0.03073,0.0345 -0.03217,0.0331 -0.03385,0.0315 -0.03553,0.0301 -0.03673,0.0282 -0.03817,0.0268 -0.03961,0.0247 -0.04081,0.023 -0.04225,0.0211 -0.04321,0.019 -0.04441,0.0174 -0.04561,0.015 -0.04633,0.0127 -0.04729,0.0108 -0.04802,0.008 -0.04897,0.006 -0.04945,0.004 -0.04609,0.001 h -8.565043 l -0.04609,-0.001 -0.04945,-0.004 -0.04897,-0.006 -0.04801,-0.008 -0.04729,-0.0108 -0.04633,-0.0127 -0.04561,-0.015 -0.04441,-0.0174 -0.04321,-0.019 -0.04201,-0.0211 -0.04105,-0.023 -0.03961,-0.0247 -0.03817,-0.0268 -0.03673,-0.0282 -0.03553,-0.0301 -0.03361,-0.0315 -0.03241,-0.0331 -0.03049,-0.0345 -0.02905,-0.0362 -0.02713,-0.0373 -0.02545,-0.0387 -0.02353,-0.0399 -0.02161,-0.0411 -0.01945,-0.0425 -0.01752,-0.0435 -0.01536,-0.0444 -0.0132,-0.0453 -0.01104,-0.0465 -0.0086,-0.047 -0.006,-0.0479 -0.0038,-0.0484 -0.0012,-0.0451 v -3.23842 l 0.0012,-0.0453 0.0038,-0.0481 0.006,-0.0479 0.0086,-0.047 0.01104,-0.0463 0.0132,-0.0456 0.01536,-0.0444 0.01752,-0.0435 0.01945,-0.0423 0.02161,-0.0413 0.02353,-0.0399 0.02545,-0.0387 0.02713,-0.0373 0.02905,-0.0362 0.03049,-0.0345 0.03241,-0.0331 0.03361,-0.0315 0.03553,-0.0301 0.03673,-0.0282 0.03817,-0.0268 0.03961,-0.0247 0.04105,-0.023 0.04201,-0.0211 0.04321,-0.0193 0.04441,-0.0171 0.04561,-0.015 0.04633,-0.0129 0.04729,-0.0106 0.04801,-0.008 0.04897,-0.006 0.04945,-0.004 0.04609,-0.001 z m -8.561202,0.29357 h 8.557361 v 0 c 0.373071,0 0.675562,0.29592 0.675562,0.66112 v 0 3.2309 0 c 0,0.3652 -0.302491,0.66111 -0.675562,0.66111 v 0 h -8.557361 v 0 c -0.373071,0 -0.675562,-0.29591 -0.675562,-0.66111 v 0 -3.2309 0 c 0,-0.3652 0.302491,-0.66112 0.675562,-0.66112 z"
       style="fill:#1d1d1b;fill-opacity:1;fill-rule:evenodd;stroke:none;stroke-width:0.26458332"
       inkscape:connector-curvature="0" />
  </g>
</svg>
